M48
INCH,TZ
T1C0.0276
T2C0.0295
T3C0.0315
T4C0.0360
T5C0.0394
T6C0.0433
T7C0.0906
T8C0.0984
T9C0.1181
%
G90
G05
T1
X28000Y-30000
X30000Y-30000
X28000Y-31000
X30000Y-31000
T2
X29500Y-28000
X29500Y-28500
X29500Y-29000
T3
X27000Y-29000
X27000Y-30969
X30016Y-15500
X31000Y-15500
X29000Y-17000
X29000Y-18000
X29000Y-19000
X29000Y-20000
X29000Y-21000
X29000Y-22000
X29000Y-23000
X29000Y-24000
X29000Y-25000
X29000Y-26000
X32000Y-17000
X32000Y-18000
X32000Y-19000
X32000Y-20000
X32000Y-21000
X32000Y-22000
X32000Y-23000
X32000Y-24000
X32000Y-25000
X32000Y-26000
X43000Y-17500
X43000Y-18500
X43000Y-19500
X43000Y-20500
X43000Y-21500
X43000Y-22500
X43000Y-23500
X43000Y-24500
X43000Y-25500
X33500Y-17000
X33500Y-18000
X33500Y-19000
X33500Y-20000
X33500Y-21000
X33500Y-22000
X33500Y-23000
X33500Y-24000
X33500Y-25000
X33500Y-26000
X36500Y-17000
X36500Y-18000
X36500Y-19000
X36500Y-20000
X36500Y-21000
X36500Y-22000
X36500Y-23000
X36500Y-24000
X36500Y-25000
X36500Y-26000
X43000Y-27000
X43000Y-28000
X43000Y-29000
X43000Y-30000
X43000Y-31000
X43000Y-32000
X43000Y-33000
X43000Y-34000
X43000Y-35000
X34500Y-15500
X35484Y-15500
T4
X38000Y-27500
X38000Y-28500
X38000Y-29500
X38000Y-30500
X38000Y-31500
X38000Y-32500
X38000Y-33500
X38000Y-34500
X38000Y-35500
X38000Y-36500
X41000Y-27500
X41000Y-28500
X41000Y-29500
X41000Y-30500
X41000Y-31500
X41000Y-32500
X41000Y-33500
X41000Y-34500
X41000Y-35500
X41000Y-36500
X38000Y-17000
X38000Y-18000
X38000Y-19000
X38000Y-20000
X38000Y-21000
X38000Y-22000
X38000Y-23000
X38000Y-24000
X38000Y-25000
X38000Y-26000
X41000Y-17000
X41000Y-18000
X41000Y-19000
X41000Y-20000
X41000Y-21000
X41000Y-22000
X41000Y-23000
X41000Y-24000
X41000Y-25000
X41000Y-26000
T5
X27000Y-18000
X27000Y-19000
X27000Y-20000
X27000Y-21000
X27000Y-22000
X27000Y-23000
X27000Y-24000
X27000Y-25000
X27000Y-26000
X27000Y-27000
T6
X34000Y-34000
X35000Y-34000
X36000Y-34000
X33500Y-28500
X33500Y-32500
T7
X29138Y-34500
T8
X28744Y-32728
X28744Y-36272
T9
X31500Y-34500
T0
M30
