G04 #@! TF.GenerationSoftware,KiCad,Pcbnew,(5.1.9-0-10_14)*
G04 #@! TF.CreationDate,2021-09-02T08:13:15+02:00*
G04 #@! TF.ProjectId,i2c-32io,6932632d-3332-4696-9f2e-6b696361645f,rev?*
G04 #@! TF.SameCoordinates,Original*
G04 #@! TF.FileFunction,Copper,L1,Top*
G04 #@! TF.FilePolarity,Positive*
%FSLAX46Y46*%
G04 Gerber Fmt 4.6, Leading zero omitted, Abs format (unit mm)*
G04 Created by KiCad (PCBNEW (5.1.9-0-10_14)) date 2021-09-02 08:13:15*
%MOMM*%
%LPD*%
G01*
G04 APERTURE LIST*
G04 #@! TA.AperFunction,ComponentPad*
%ADD10O,1.700000X1.700000*%
G04 #@! TD*
G04 #@! TA.AperFunction,ComponentPad*
%ADD11R,1.700000X1.700000*%
G04 #@! TD*
G04 #@! TA.AperFunction,ComponentPad*
%ADD12C,3.500000*%
G04 #@! TD*
G04 #@! TA.AperFunction,ComponentPad*
%ADD13C,3.300000*%
G04 #@! TD*
G04 #@! TA.AperFunction,ComponentPad*
%ADD14R,4.000000X4.000000*%
G04 #@! TD*
G04 #@! TA.AperFunction,ComponentPad*
%ADD15O,1.600000X1.600000*%
G04 #@! TD*
G04 #@! TA.AperFunction,ComponentPad*
%ADD16R,1.600000X1.600000*%
G04 #@! TD*
G04 #@! TA.AperFunction,ViaPad*
%ADD17C,0.800000*%
G04 #@! TD*
G04 #@! TA.AperFunction,Conductor*
%ADD18C,0.250000*%
G04 #@! TD*
G04 APERTURE END LIST*
D10*
G04 #@! TO.P,J1,4*
G04 #@! TO.N,GND*
X64380000Y-110000000D03*
G04 #@! TO.P,J1,3*
G04 #@! TO.N,Net-(J1-Pad3)*
X66920000Y-110000000D03*
G04 #@! TO.P,J1,2*
G04 #@! TO.N,Net-(J1-Pad2)*
X69460000Y-110000000D03*
D11*
G04 #@! TO.P,J1,1*
G04 #@! TO.N,VCC*
X72000000Y-110000000D03*
G04 #@! TD*
D10*
G04 #@! TO.P,J2,9*
G04 #@! TO.N,GND*
X68820000Y-84500000D03*
G04 #@! TO.P,J2,8*
G04 #@! TO.N,Net-(J2-Pad8)*
X66280000Y-84500000D03*
G04 #@! TO.P,J2,7*
G04 #@! TO.N,Net-(J2-Pad7)*
X63740000Y-84500000D03*
G04 #@! TO.P,J2,6*
G04 #@! TO.N,Net-(J2-Pad6)*
X61200000Y-84500000D03*
G04 #@! TO.P,J2,5*
G04 #@! TO.N,Net-(J2-Pad5)*
X58660000Y-84500000D03*
G04 #@! TO.P,J2,4*
G04 #@! TO.N,Net-(J2-Pad4)*
X56120000Y-84500000D03*
G04 #@! TO.P,J2,3*
G04 #@! TO.N,Net-(J2-Pad3)*
X53580000Y-84500000D03*
G04 #@! TO.P,J2,2*
G04 #@! TO.N,Net-(J2-Pad2)*
X51040000Y-84500000D03*
D11*
G04 #@! TO.P,J2,1*
G04 #@! TO.N,Net-(J2-Pad1)*
X48500000Y-84500000D03*
G04 #@! TD*
D12*
G04 #@! TO.P,J6,MP*
G04 #@! TO.N,N/C*
X33500000Y-107500000D03*
X24500000Y-107500000D03*
D13*
G04 #@! TO.P,J6,2*
G04 #@! TO.N,Net-(D33-Pad1)*
X29000000Y-106500000D03*
D14*
G04 #@! TO.P,J6,1*
G04 #@! TO.N,GND*
X29000000Y-100500000D03*
G04 #@! TD*
D10*
G04 #@! TO.P,J5,9*
G04 #@! TO.N,GND*
X92820000Y-84500000D03*
G04 #@! TO.P,J5,8*
G04 #@! TO.N,Net-(J5-Pad8)*
X90280000Y-84500000D03*
G04 #@! TO.P,J5,7*
G04 #@! TO.N,Net-(J5-Pad7)*
X87740000Y-84500000D03*
G04 #@! TO.P,J5,6*
G04 #@! TO.N,Net-(J5-Pad6)*
X85200000Y-84500000D03*
G04 #@! TO.P,J5,5*
G04 #@! TO.N,Net-(J5-Pad5)*
X82660000Y-84500000D03*
G04 #@! TO.P,J5,4*
G04 #@! TO.N,Net-(J5-Pad4)*
X80120000Y-84500000D03*
G04 #@! TO.P,J5,3*
G04 #@! TO.N,Net-(J5-Pad3)*
X77580000Y-84500000D03*
G04 #@! TO.P,J5,2*
G04 #@! TO.N,Net-(J5-Pad2)*
X75040000Y-84500000D03*
D11*
G04 #@! TO.P,J5,1*
G04 #@! TO.N,Net-(J5-Pad1)*
X72500000Y-84500000D03*
G04 #@! TD*
D10*
G04 #@! TO.P,J4,9*
G04 #@! TO.N,GND*
X116820000Y-84500000D03*
G04 #@! TO.P,J4,8*
G04 #@! TO.N,Net-(J4-Pad8)*
X114280000Y-84500000D03*
G04 #@! TO.P,J4,7*
G04 #@! TO.N,Net-(J4-Pad7)*
X111740000Y-84500000D03*
G04 #@! TO.P,J4,6*
G04 #@! TO.N,Net-(J4-Pad6)*
X109200000Y-84500000D03*
G04 #@! TO.P,J4,5*
G04 #@! TO.N,Net-(J4-Pad5)*
X106660000Y-84500000D03*
G04 #@! TO.P,J4,4*
G04 #@! TO.N,Net-(J4-Pad4)*
X104120000Y-84500000D03*
G04 #@! TO.P,J4,3*
G04 #@! TO.N,Net-(J4-Pad3)*
X101580000Y-84500000D03*
G04 #@! TO.P,J4,2*
G04 #@! TO.N,Net-(J4-Pad2)*
X99040000Y-84500000D03*
D11*
G04 #@! TO.P,J4,1*
G04 #@! TO.N,Net-(J4-Pad1)*
X96500000Y-84500000D03*
G04 #@! TD*
D10*
G04 #@! TO.P,J3,9*
G04 #@! TO.N,GND*
X44500000Y-84500000D03*
G04 #@! TO.P,J3,8*
G04 #@! TO.N,Net-(J3-Pad8)*
X41960000Y-84500000D03*
G04 #@! TO.P,J3,7*
G04 #@! TO.N,Net-(J3-Pad7)*
X39420000Y-84500000D03*
G04 #@! TO.P,J3,6*
G04 #@! TO.N,Net-(J3-Pad6)*
X36880000Y-84500000D03*
G04 #@! TO.P,J3,5*
G04 #@! TO.N,Net-(J3-Pad5)*
X34340000Y-84500000D03*
G04 #@! TO.P,J3,4*
G04 #@! TO.N,Net-(J3-Pad4)*
X31800000Y-84500000D03*
G04 #@! TO.P,J3,3*
G04 #@! TO.N,Net-(J3-Pad3)*
X29260000Y-84500000D03*
G04 #@! TO.P,J3,2*
G04 #@! TO.N,Net-(J3-Pad2)*
X26720000Y-84500000D03*
D11*
G04 #@! TO.P,J3,1*
G04 #@! TO.N,Net-(J3-Pad1)*
X24180000Y-84500000D03*
G04 #@! TD*
D15*
G04 #@! TO.P,D33,2*
G04 #@! TO.N,VCC*
X36200000Y-95000000D03*
D16*
G04 #@! TO.P,D33,1*
G04 #@! TO.N,Net-(D33-Pad1)*
X23500000Y-95000000D03*
G04 #@! TD*
G04 #@! TO.P,U2,28*
G04 #@! TO.N,Net-(J5-Pad8)*
G04 #@! TA.AperFunction,SMDPad,CuDef*
G36*
G01*
X91375000Y-107605000D02*
X91375000Y-107905000D01*
G75*
G02*
X91225000Y-108055000I-150000J0D01*
G01*
X89475000Y-108055000D01*
G75*
G02*
X89325000Y-107905000I0J150000D01*
G01*
X89325000Y-107605000D01*
G75*
G02*
X89475000Y-107455000I150000J0D01*
G01*
X91225000Y-107455000D01*
G75*
G02*
X91375000Y-107605000I0J-150000D01*
G01*
G37*
G04 #@! TD.AperFunction*
G04 #@! TO.P,U2,27*
G04 #@! TO.N,Net-(J5-Pad7)*
G04 #@! TA.AperFunction,SMDPad,CuDef*
G36*
G01*
X91375000Y-106335000D02*
X91375000Y-106635000D01*
G75*
G02*
X91225000Y-106785000I-150000J0D01*
G01*
X89475000Y-106785000D01*
G75*
G02*
X89325000Y-106635000I0J150000D01*
G01*
X89325000Y-106335000D01*
G75*
G02*
X89475000Y-106185000I150000J0D01*
G01*
X91225000Y-106185000D01*
G75*
G02*
X91375000Y-106335000I0J-150000D01*
G01*
G37*
G04 #@! TD.AperFunction*
G04 #@! TO.P,U2,26*
G04 #@! TO.N,Net-(J5-Pad6)*
G04 #@! TA.AperFunction,SMDPad,CuDef*
G36*
G01*
X91375000Y-105065000D02*
X91375000Y-105365000D01*
G75*
G02*
X91225000Y-105515000I-150000J0D01*
G01*
X89475000Y-105515000D01*
G75*
G02*
X89325000Y-105365000I0J150000D01*
G01*
X89325000Y-105065000D01*
G75*
G02*
X89475000Y-104915000I150000J0D01*
G01*
X91225000Y-104915000D01*
G75*
G02*
X91375000Y-105065000I0J-150000D01*
G01*
G37*
G04 #@! TD.AperFunction*
G04 #@! TO.P,U2,25*
G04 #@! TO.N,Net-(J5-Pad5)*
G04 #@! TA.AperFunction,SMDPad,CuDef*
G36*
G01*
X91375000Y-103795000D02*
X91375000Y-104095000D01*
G75*
G02*
X91225000Y-104245000I-150000J0D01*
G01*
X89475000Y-104245000D01*
G75*
G02*
X89325000Y-104095000I0J150000D01*
G01*
X89325000Y-103795000D01*
G75*
G02*
X89475000Y-103645000I150000J0D01*
G01*
X91225000Y-103645000D01*
G75*
G02*
X91375000Y-103795000I0J-150000D01*
G01*
G37*
G04 #@! TD.AperFunction*
G04 #@! TO.P,U2,24*
G04 #@! TO.N,Net-(J5-Pad4)*
G04 #@! TA.AperFunction,SMDPad,CuDef*
G36*
G01*
X91375000Y-102525000D02*
X91375000Y-102825000D01*
G75*
G02*
X91225000Y-102975000I-150000J0D01*
G01*
X89475000Y-102975000D01*
G75*
G02*
X89325000Y-102825000I0J150000D01*
G01*
X89325000Y-102525000D01*
G75*
G02*
X89475000Y-102375000I150000J0D01*
G01*
X91225000Y-102375000D01*
G75*
G02*
X91375000Y-102525000I0J-150000D01*
G01*
G37*
G04 #@! TD.AperFunction*
G04 #@! TO.P,U2,23*
G04 #@! TO.N,Net-(J5-Pad3)*
G04 #@! TA.AperFunction,SMDPad,CuDef*
G36*
G01*
X91375000Y-101255000D02*
X91375000Y-101555000D01*
G75*
G02*
X91225000Y-101705000I-150000J0D01*
G01*
X89475000Y-101705000D01*
G75*
G02*
X89325000Y-101555000I0J150000D01*
G01*
X89325000Y-101255000D01*
G75*
G02*
X89475000Y-101105000I150000J0D01*
G01*
X91225000Y-101105000D01*
G75*
G02*
X91375000Y-101255000I0J-150000D01*
G01*
G37*
G04 #@! TD.AperFunction*
G04 #@! TO.P,U2,22*
G04 #@! TO.N,Net-(J5-Pad2)*
G04 #@! TA.AperFunction,SMDPad,CuDef*
G36*
G01*
X91375000Y-99985000D02*
X91375000Y-100285000D01*
G75*
G02*
X91225000Y-100435000I-150000J0D01*
G01*
X89475000Y-100435000D01*
G75*
G02*
X89325000Y-100285000I0J150000D01*
G01*
X89325000Y-99985000D01*
G75*
G02*
X89475000Y-99835000I150000J0D01*
G01*
X91225000Y-99835000D01*
G75*
G02*
X91375000Y-99985000I0J-150000D01*
G01*
G37*
G04 #@! TD.AperFunction*
G04 #@! TO.P,U2,21*
G04 #@! TO.N,Net-(J5-Pad1)*
G04 #@! TA.AperFunction,SMDPad,CuDef*
G36*
G01*
X91375000Y-98715000D02*
X91375000Y-99015000D01*
G75*
G02*
X91225000Y-99165000I-150000J0D01*
G01*
X89475000Y-99165000D01*
G75*
G02*
X89325000Y-99015000I0J150000D01*
G01*
X89325000Y-98715000D01*
G75*
G02*
X89475000Y-98565000I150000J0D01*
G01*
X91225000Y-98565000D01*
G75*
G02*
X91375000Y-98715000I0J-150000D01*
G01*
G37*
G04 #@! TD.AperFunction*
G04 #@! TO.P,U2,20*
G04 #@! TO.N,N/C*
G04 #@! TA.AperFunction,SMDPad,CuDef*
G36*
G01*
X91375000Y-97445000D02*
X91375000Y-97745000D01*
G75*
G02*
X91225000Y-97895000I-150000J0D01*
G01*
X89475000Y-97895000D01*
G75*
G02*
X89325000Y-97745000I0J150000D01*
G01*
X89325000Y-97445000D01*
G75*
G02*
X89475000Y-97295000I150000J0D01*
G01*
X91225000Y-97295000D01*
G75*
G02*
X91375000Y-97445000I0J-150000D01*
G01*
G37*
G04 #@! TD.AperFunction*
G04 #@! TO.P,U2,19*
G04 #@! TA.AperFunction,SMDPad,CuDef*
G36*
G01*
X91375000Y-96175000D02*
X91375000Y-96475000D01*
G75*
G02*
X91225000Y-96625000I-150000J0D01*
G01*
X89475000Y-96625000D01*
G75*
G02*
X89325000Y-96475000I0J150000D01*
G01*
X89325000Y-96175000D01*
G75*
G02*
X89475000Y-96025000I150000J0D01*
G01*
X91225000Y-96025000D01*
G75*
G02*
X91375000Y-96175000I0J-150000D01*
G01*
G37*
G04 #@! TD.AperFunction*
G04 #@! TO.P,U2,18*
G04 #@! TO.N,Net-(R33-Pad2)*
G04 #@! TA.AperFunction,SMDPad,CuDef*
G36*
G01*
X91375000Y-94905000D02*
X91375000Y-95205000D01*
G75*
G02*
X91225000Y-95355000I-150000J0D01*
G01*
X89475000Y-95355000D01*
G75*
G02*
X89325000Y-95205000I0J150000D01*
G01*
X89325000Y-94905000D01*
G75*
G02*
X89475000Y-94755000I150000J0D01*
G01*
X91225000Y-94755000D01*
G75*
G02*
X91375000Y-94905000I0J-150000D01*
G01*
G37*
G04 #@! TD.AperFunction*
G04 #@! TO.P,U2,17*
G04 #@! TO.N,GND*
G04 #@! TA.AperFunction,SMDPad,CuDef*
G36*
G01*
X91375000Y-93635000D02*
X91375000Y-93935000D01*
G75*
G02*
X91225000Y-94085000I-150000J0D01*
G01*
X89475000Y-94085000D01*
G75*
G02*
X89325000Y-93935000I0J150000D01*
G01*
X89325000Y-93635000D01*
G75*
G02*
X89475000Y-93485000I150000J0D01*
G01*
X91225000Y-93485000D01*
G75*
G02*
X91375000Y-93635000I0J-150000D01*
G01*
G37*
G04 #@! TD.AperFunction*
G04 #@! TO.P,U2,16*
G04 #@! TA.AperFunction,SMDPad,CuDef*
G36*
G01*
X91375000Y-92365000D02*
X91375000Y-92665000D01*
G75*
G02*
X91225000Y-92815000I-150000J0D01*
G01*
X89475000Y-92815000D01*
G75*
G02*
X89325000Y-92665000I0J150000D01*
G01*
X89325000Y-92365000D01*
G75*
G02*
X89475000Y-92215000I150000J0D01*
G01*
X91225000Y-92215000D01*
G75*
G02*
X91375000Y-92365000I0J-150000D01*
G01*
G37*
G04 #@! TD.AperFunction*
G04 #@! TO.P,U2,15*
G04 #@! TO.N,VCC*
G04 #@! TA.AperFunction,SMDPad,CuDef*
G36*
G01*
X91375000Y-91095000D02*
X91375000Y-91395000D01*
G75*
G02*
X91225000Y-91545000I-150000J0D01*
G01*
X89475000Y-91545000D01*
G75*
G02*
X89325000Y-91395000I0J150000D01*
G01*
X89325000Y-91095000D01*
G75*
G02*
X89475000Y-90945000I150000J0D01*
G01*
X91225000Y-90945000D01*
G75*
G02*
X91375000Y-91095000I0J-150000D01*
G01*
G37*
G04 #@! TD.AperFunction*
G04 #@! TO.P,U2,14*
G04 #@! TO.N,N/C*
G04 #@! TA.AperFunction,SMDPad,CuDef*
G36*
G01*
X100675000Y-91095000D02*
X100675000Y-91395000D01*
G75*
G02*
X100525000Y-91545000I-150000J0D01*
G01*
X98775000Y-91545000D01*
G75*
G02*
X98625000Y-91395000I0J150000D01*
G01*
X98625000Y-91095000D01*
G75*
G02*
X98775000Y-90945000I150000J0D01*
G01*
X100525000Y-90945000D01*
G75*
G02*
X100675000Y-91095000I0J-150000D01*
G01*
G37*
G04 #@! TD.AperFunction*
G04 #@! TO.P,U2,13*
G04 #@! TO.N,Net-(J1-Pad2)*
G04 #@! TA.AperFunction,SMDPad,CuDef*
G36*
G01*
X100675000Y-92365000D02*
X100675000Y-92665000D01*
G75*
G02*
X100525000Y-92815000I-150000J0D01*
G01*
X98775000Y-92815000D01*
G75*
G02*
X98625000Y-92665000I0J150000D01*
G01*
X98625000Y-92365000D01*
G75*
G02*
X98775000Y-92215000I150000J0D01*
G01*
X100525000Y-92215000D01*
G75*
G02*
X100675000Y-92365000I0J-150000D01*
G01*
G37*
G04 #@! TD.AperFunction*
G04 #@! TO.P,U2,12*
G04 #@! TO.N,Net-(J1-Pad3)*
G04 #@! TA.AperFunction,SMDPad,CuDef*
G36*
G01*
X100675000Y-93635000D02*
X100675000Y-93935000D01*
G75*
G02*
X100525000Y-94085000I-150000J0D01*
G01*
X98775000Y-94085000D01*
G75*
G02*
X98625000Y-93935000I0J150000D01*
G01*
X98625000Y-93635000D01*
G75*
G02*
X98775000Y-93485000I150000J0D01*
G01*
X100525000Y-93485000D01*
G75*
G02*
X100675000Y-93635000I0J-150000D01*
G01*
G37*
G04 #@! TD.AperFunction*
G04 #@! TO.P,U2,11*
G04 #@! TO.N,N/C*
G04 #@! TA.AperFunction,SMDPad,CuDef*
G36*
G01*
X100675000Y-94905000D02*
X100675000Y-95205000D01*
G75*
G02*
X100525000Y-95355000I-150000J0D01*
G01*
X98775000Y-95355000D01*
G75*
G02*
X98625000Y-95205000I0J150000D01*
G01*
X98625000Y-94905000D01*
G75*
G02*
X98775000Y-94755000I150000J0D01*
G01*
X100525000Y-94755000D01*
G75*
G02*
X100675000Y-94905000I0J-150000D01*
G01*
G37*
G04 #@! TD.AperFunction*
G04 #@! TO.P,U2,10*
G04 #@! TO.N,GND*
G04 #@! TA.AperFunction,SMDPad,CuDef*
G36*
G01*
X100675000Y-96175000D02*
X100675000Y-96475000D01*
G75*
G02*
X100525000Y-96625000I-150000J0D01*
G01*
X98775000Y-96625000D01*
G75*
G02*
X98625000Y-96475000I0J150000D01*
G01*
X98625000Y-96175000D01*
G75*
G02*
X98775000Y-96025000I150000J0D01*
G01*
X100525000Y-96025000D01*
G75*
G02*
X100675000Y-96175000I0J-150000D01*
G01*
G37*
G04 #@! TD.AperFunction*
G04 #@! TO.P,U2,9*
G04 #@! TO.N,VCC*
G04 #@! TA.AperFunction,SMDPad,CuDef*
G36*
G01*
X100675000Y-97445000D02*
X100675000Y-97745000D01*
G75*
G02*
X100525000Y-97895000I-150000J0D01*
G01*
X98775000Y-97895000D01*
G75*
G02*
X98625000Y-97745000I0J150000D01*
G01*
X98625000Y-97445000D01*
G75*
G02*
X98775000Y-97295000I150000J0D01*
G01*
X100525000Y-97295000D01*
G75*
G02*
X100675000Y-97445000I0J-150000D01*
G01*
G37*
G04 #@! TD.AperFunction*
G04 #@! TO.P,U2,8*
G04 #@! TO.N,Net-(J4-Pad8)*
G04 #@! TA.AperFunction,SMDPad,CuDef*
G36*
G01*
X100675000Y-98715000D02*
X100675000Y-99015000D01*
G75*
G02*
X100525000Y-99165000I-150000J0D01*
G01*
X98775000Y-99165000D01*
G75*
G02*
X98625000Y-99015000I0J150000D01*
G01*
X98625000Y-98715000D01*
G75*
G02*
X98775000Y-98565000I150000J0D01*
G01*
X100525000Y-98565000D01*
G75*
G02*
X100675000Y-98715000I0J-150000D01*
G01*
G37*
G04 #@! TD.AperFunction*
G04 #@! TO.P,U2,7*
G04 #@! TO.N,Net-(J4-Pad7)*
G04 #@! TA.AperFunction,SMDPad,CuDef*
G36*
G01*
X100675000Y-99985000D02*
X100675000Y-100285000D01*
G75*
G02*
X100525000Y-100435000I-150000J0D01*
G01*
X98775000Y-100435000D01*
G75*
G02*
X98625000Y-100285000I0J150000D01*
G01*
X98625000Y-99985000D01*
G75*
G02*
X98775000Y-99835000I150000J0D01*
G01*
X100525000Y-99835000D01*
G75*
G02*
X100675000Y-99985000I0J-150000D01*
G01*
G37*
G04 #@! TD.AperFunction*
G04 #@! TO.P,U2,6*
G04 #@! TO.N,Net-(J4-Pad6)*
G04 #@! TA.AperFunction,SMDPad,CuDef*
G36*
G01*
X100675000Y-101255000D02*
X100675000Y-101555000D01*
G75*
G02*
X100525000Y-101705000I-150000J0D01*
G01*
X98775000Y-101705000D01*
G75*
G02*
X98625000Y-101555000I0J150000D01*
G01*
X98625000Y-101255000D01*
G75*
G02*
X98775000Y-101105000I150000J0D01*
G01*
X100525000Y-101105000D01*
G75*
G02*
X100675000Y-101255000I0J-150000D01*
G01*
G37*
G04 #@! TD.AperFunction*
G04 #@! TO.P,U2,5*
G04 #@! TO.N,Net-(J4-Pad5)*
G04 #@! TA.AperFunction,SMDPad,CuDef*
G36*
G01*
X100675000Y-102525000D02*
X100675000Y-102825000D01*
G75*
G02*
X100525000Y-102975000I-150000J0D01*
G01*
X98775000Y-102975000D01*
G75*
G02*
X98625000Y-102825000I0J150000D01*
G01*
X98625000Y-102525000D01*
G75*
G02*
X98775000Y-102375000I150000J0D01*
G01*
X100525000Y-102375000D01*
G75*
G02*
X100675000Y-102525000I0J-150000D01*
G01*
G37*
G04 #@! TD.AperFunction*
G04 #@! TO.P,U2,4*
G04 #@! TO.N,Net-(J4-Pad4)*
G04 #@! TA.AperFunction,SMDPad,CuDef*
G36*
G01*
X100675000Y-103795000D02*
X100675000Y-104095000D01*
G75*
G02*
X100525000Y-104245000I-150000J0D01*
G01*
X98775000Y-104245000D01*
G75*
G02*
X98625000Y-104095000I0J150000D01*
G01*
X98625000Y-103795000D01*
G75*
G02*
X98775000Y-103645000I150000J0D01*
G01*
X100525000Y-103645000D01*
G75*
G02*
X100675000Y-103795000I0J-150000D01*
G01*
G37*
G04 #@! TD.AperFunction*
G04 #@! TO.P,U2,3*
G04 #@! TO.N,Net-(J4-Pad3)*
G04 #@! TA.AperFunction,SMDPad,CuDef*
G36*
G01*
X100675000Y-105065000D02*
X100675000Y-105365000D01*
G75*
G02*
X100525000Y-105515000I-150000J0D01*
G01*
X98775000Y-105515000D01*
G75*
G02*
X98625000Y-105365000I0J150000D01*
G01*
X98625000Y-105065000D01*
G75*
G02*
X98775000Y-104915000I150000J0D01*
G01*
X100525000Y-104915000D01*
G75*
G02*
X100675000Y-105065000I0J-150000D01*
G01*
G37*
G04 #@! TD.AperFunction*
G04 #@! TO.P,U2,2*
G04 #@! TO.N,Net-(J4-Pad2)*
G04 #@! TA.AperFunction,SMDPad,CuDef*
G36*
G01*
X100675000Y-106335000D02*
X100675000Y-106635000D01*
G75*
G02*
X100525000Y-106785000I-150000J0D01*
G01*
X98775000Y-106785000D01*
G75*
G02*
X98625000Y-106635000I0J150000D01*
G01*
X98625000Y-106335000D01*
G75*
G02*
X98775000Y-106185000I150000J0D01*
G01*
X100525000Y-106185000D01*
G75*
G02*
X100675000Y-106335000I0J-150000D01*
G01*
G37*
G04 #@! TD.AperFunction*
G04 #@! TO.P,U2,1*
G04 #@! TO.N,Net-(J4-Pad1)*
G04 #@! TA.AperFunction,SMDPad,CuDef*
G36*
G01*
X100675000Y-107605000D02*
X100675000Y-107905000D01*
G75*
G02*
X100525000Y-108055000I-150000J0D01*
G01*
X98775000Y-108055000D01*
G75*
G02*
X98625000Y-107905000I0J150000D01*
G01*
X98625000Y-107605000D01*
G75*
G02*
X98775000Y-107455000I150000J0D01*
G01*
X100525000Y-107455000D01*
G75*
G02*
X100675000Y-107605000I0J-150000D01*
G01*
G37*
G04 #@! TD.AperFunction*
G04 #@! TD*
G04 #@! TO.P,U1,28*
G04 #@! TO.N,Net-(J3-Pad8)*
G04 #@! TA.AperFunction,SMDPad,CuDef*
G36*
G01*
X48375000Y-107605000D02*
X48375000Y-107905000D01*
G75*
G02*
X48225000Y-108055000I-150000J0D01*
G01*
X46475000Y-108055000D01*
G75*
G02*
X46325000Y-107905000I0J150000D01*
G01*
X46325000Y-107605000D01*
G75*
G02*
X46475000Y-107455000I150000J0D01*
G01*
X48225000Y-107455000D01*
G75*
G02*
X48375000Y-107605000I0J-150000D01*
G01*
G37*
G04 #@! TD.AperFunction*
G04 #@! TO.P,U1,27*
G04 #@! TO.N,Net-(J3-Pad7)*
G04 #@! TA.AperFunction,SMDPad,CuDef*
G36*
G01*
X48375000Y-106335000D02*
X48375000Y-106635000D01*
G75*
G02*
X48225000Y-106785000I-150000J0D01*
G01*
X46475000Y-106785000D01*
G75*
G02*
X46325000Y-106635000I0J150000D01*
G01*
X46325000Y-106335000D01*
G75*
G02*
X46475000Y-106185000I150000J0D01*
G01*
X48225000Y-106185000D01*
G75*
G02*
X48375000Y-106335000I0J-150000D01*
G01*
G37*
G04 #@! TD.AperFunction*
G04 #@! TO.P,U1,26*
G04 #@! TO.N,Net-(J3-Pad6)*
G04 #@! TA.AperFunction,SMDPad,CuDef*
G36*
G01*
X48375000Y-105065000D02*
X48375000Y-105365000D01*
G75*
G02*
X48225000Y-105515000I-150000J0D01*
G01*
X46475000Y-105515000D01*
G75*
G02*
X46325000Y-105365000I0J150000D01*
G01*
X46325000Y-105065000D01*
G75*
G02*
X46475000Y-104915000I150000J0D01*
G01*
X48225000Y-104915000D01*
G75*
G02*
X48375000Y-105065000I0J-150000D01*
G01*
G37*
G04 #@! TD.AperFunction*
G04 #@! TO.P,U1,25*
G04 #@! TO.N,Net-(J3-Pad5)*
G04 #@! TA.AperFunction,SMDPad,CuDef*
G36*
G01*
X48375000Y-103795000D02*
X48375000Y-104095000D01*
G75*
G02*
X48225000Y-104245000I-150000J0D01*
G01*
X46475000Y-104245000D01*
G75*
G02*
X46325000Y-104095000I0J150000D01*
G01*
X46325000Y-103795000D01*
G75*
G02*
X46475000Y-103645000I150000J0D01*
G01*
X48225000Y-103645000D01*
G75*
G02*
X48375000Y-103795000I0J-150000D01*
G01*
G37*
G04 #@! TD.AperFunction*
G04 #@! TO.P,U1,24*
G04 #@! TO.N,Net-(J3-Pad4)*
G04 #@! TA.AperFunction,SMDPad,CuDef*
G36*
G01*
X48375000Y-102525000D02*
X48375000Y-102825000D01*
G75*
G02*
X48225000Y-102975000I-150000J0D01*
G01*
X46475000Y-102975000D01*
G75*
G02*
X46325000Y-102825000I0J150000D01*
G01*
X46325000Y-102525000D01*
G75*
G02*
X46475000Y-102375000I150000J0D01*
G01*
X48225000Y-102375000D01*
G75*
G02*
X48375000Y-102525000I0J-150000D01*
G01*
G37*
G04 #@! TD.AperFunction*
G04 #@! TO.P,U1,23*
G04 #@! TO.N,Net-(J3-Pad3)*
G04 #@! TA.AperFunction,SMDPad,CuDef*
G36*
G01*
X48375000Y-101255000D02*
X48375000Y-101555000D01*
G75*
G02*
X48225000Y-101705000I-150000J0D01*
G01*
X46475000Y-101705000D01*
G75*
G02*
X46325000Y-101555000I0J150000D01*
G01*
X46325000Y-101255000D01*
G75*
G02*
X46475000Y-101105000I150000J0D01*
G01*
X48225000Y-101105000D01*
G75*
G02*
X48375000Y-101255000I0J-150000D01*
G01*
G37*
G04 #@! TD.AperFunction*
G04 #@! TO.P,U1,22*
G04 #@! TO.N,Net-(J3-Pad2)*
G04 #@! TA.AperFunction,SMDPad,CuDef*
G36*
G01*
X48375000Y-99985000D02*
X48375000Y-100285000D01*
G75*
G02*
X48225000Y-100435000I-150000J0D01*
G01*
X46475000Y-100435000D01*
G75*
G02*
X46325000Y-100285000I0J150000D01*
G01*
X46325000Y-99985000D01*
G75*
G02*
X46475000Y-99835000I150000J0D01*
G01*
X48225000Y-99835000D01*
G75*
G02*
X48375000Y-99985000I0J-150000D01*
G01*
G37*
G04 #@! TD.AperFunction*
G04 #@! TO.P,U1,21*
G04 #@! TO.N,Net-(J3-Pad1)*
G04 #@! TA.AperFunction,SMDPad,CuDef*
G36*
G01*
X48375000Y-98715000D02*
X48375000Y-99015000D01*
G75*
G02*
X48225000Y-99165000I-150000J0D01*
G01*
X46475000Y-99165000D01*
G75*
G02*
X46325000Y-99015000I0J150000D01*
G01*
X46325000Y-98715000D01*
G75*
G02*
X46475000Y-98565000I150000J0D01*
G01*
X48225000Y-98565000D01*
G75*
G02*
X48375000Y-98715000I0J-150000D01*
G01*
G37*
G04 #@! TD.AperFunction*
G04 #@! TO.P,U1,20*
G04 #@! TO.N,N/C*
G04 #@! TA.AperFunction,SMDPad,CuDef*
G36*
G01*
X48375000Y-97445000D02*
X48375000Y-97745000D01*
G75*
G02*
X48225000Y-97895000I-150000J0D01*
G01*
X46475000Y-97895000D01*
G75*
G02*
X46325000Y-97745000I0J150000D01*
G01*
X46325000Y-97445000D01*
G75*
G02*
X46475000Y-97295000I150000J0D01*
G01*
X48225000Y-97295000D01*
G75*
G02*
X48375000Y-97445000I0J-150000D01*
G01*
G37*
G04 #@! TD.AperFunction*
G04 #@! TO.P,U1,19*
G04 #@! TA.AperFunction,SMDPad,CuDef*
G36*
G01*
X48375000Y-96175000D02*
X48375000Y-96475000D01*
G75*
G02*
X48225000Y-96625000I-150000J0D01*
G01*
X46475000Y-96625000D01*
G75*
G02*
X46325000Y-96475000I0J150000D01*
G01*
X46325000Y-96175000D01*
G75*
G02*
X46475000Y-96025000I150000J0D01*
G01*
X48225000Y-96025000D01*
G75*
G02*
X48375000Y-96175000I0J-150000D01*
G01*
G37*
G04 #@! TD.AperFunction*
G04 #@! TO.P,U1,18*
G04 #@! TO.N,Net-(R34-Pad2)*
G04 #@! TA.AperFunction,SMDPad,CuDef*
G36*
G01*
X48375000Y-94905000D02*
X48375000Y-95205000D01*
G75*
G02*
X48225000Y-95355000I-150000J0D01*
G01*
X46475000Y-95355000D01*
G75*
G02*
X46325000Y-95205000I0J150000D01*
G01*
X46325000Y-94905000D01*
G75*
G02*
X46475000Y-94755000I150000J0D01*
G01*
X48225000Y-94755000D01*
G75*
G02*
X48375000Y-94905000I0J-150000D01*
G01*
G37*
G04 #@! TD.AperFunction*
G04 #@! TO.P,U1,17*
G04 #@! TO.N,GND*
G04 #@! TA.AperFunction,SMDPad,CuDef*
G36*
G01*
X48375000Y-93635000D02*
X48375000Y-93935000D01*
G75*
G02*
X48225000Y-94085000I-150000J0D01*
G01*
X46475000Y-94085000D01*
G75*
G02*
X46325000Y-93935000I0J150000D01*
G01*
X46325000Y-93635000D01*
G75*
G02*
X46475000Y-93485000I150000J0D01*
G01*
X48225000Y-93485000D01*
G75*
G02*
X48375000Y-93635000I0J-150000D01*
G01*
G37*
G04 #@! TD.AperFunction*
G04 #@! TO.P,U1,16*
G04 #@! TA.AperFunction,SMDPad,CuDef*
G36*
G01*
X48375000Y-92365000D02*
X48375000Y-92665000D01*
G75*
G02*
X48225000Y-92815000I-150000J0D01*
G01*
X46475000Y-92815000D01*
G75*
G02*
X46325000Y-92665000I0J150000D01*
G01*
X46325000Y-92365000D01*
G75*
G02*
X46475000Y-92215000I150000J0D01*
G01*
X48225000Y-92215000D01*
G75*
G02*
X48375000Y-92365000I0J-150000D01*
G01*
G37*
G04 #@! TD.AperFunction*
G04 #@! TO.P,U1,15*
G04 #@! TA.AperFunction,SMDPad,CuDef*
G36*
G01*
X48375000Y-91095000D02*
X48375000Y-91395000D01*
G75*
G02*
X48225000Y-91545000I-150000J0D01*
G01*
X46475000Y-91545000D01*
G75*
G02*
X46325000Y-91395000I0J150000D01*
G01*
X46325000Y-91095000D01*
G75*
G02*
X46475000Y-90945000I150000J0D01*
G01*
X48225000Y-90945000D01*
G75*
G02*
X48375000Y-91095000I0J-150000D01*
G01*
G37*
G04 #@! TD.AperFunction*
G04 #@! TO.P,U1,14*
G04 #@! TO.N,N/C*
G04 #@! TA.AperFunction,SMDPad,CuDef*
G36*
G01*
X57675000Y-91095000D02*
X57675000Y-91395000D01*
G75*
G02*
X57525000Y-91545000I-150000J0D01*
G01*
X55775000Y-91545000D01*
G75*
G02*
X55625000Y-91395000I0J150000D01*
G01*
X55625000Y-91095000D01*
G75*
G02*
X55775000Y-90945000I150000J0D01*
G01*
X57525000Y-90945000D01*
G75*
G02*
X57675000Y-91095000I0J-150000D01*
G01*
G37*
G04 #@! TD.AperFunction*
G04 #@! TO.P,U1,13*
G04 #@! TO.N,Net-(J1-Pad2)*
G04 #@! TA.AperFunction,SMDPad,CuDef*
G36*
G01*
X57675000Y-92365000D02*
X57675000Y-92665000D01*
G75*
G02*
X57525000Y-92815000I-150000J0D01*
G01*
X55775000Y-92815000D01*
G75*
G02*
X55625000Y-92665000I0J150000D01*
G01*
X55625000Y-92365000D01*
G75*
G02*
X55775000Y-92215000I150000J0D01*
G01*
X57525000Y-92215000D01*
G75*
G02*
X57675000Y-92365000I0J-150000D01*
G01*
G37*
G04 #@! TD.AperFunction*
G04 #@! TO.P,U1,12*
G04 #@! TO.N,Net-(J1-Pad3)*
G04 #@! TA.AperFunction,SMDPad,CuDef*
G36*
G01*
X57675000Y-93635000D02*
X57675000Y-93935000D01*
G75*
G02*
X57525000Y-94085000I-150000J0D01*
G01*
X55775000Y-94085000D01*
G75*
G02*
X55625000Y-93935000I0J150000D01*
G01*
X55625000Y-93635000D01*
G75*
G02*
X55775000Y-93485000I150000J0D01*
G01*
X57525000Y-93485000D01*
G75*
G02*
X57675000Y-93635000I0J-150000D01*
G01*
G37*
G04 #@! TD.AperFunction*
G04 #@! TO.P,U1,11*
G04 #@! TO.N,N/C*
G04 #@! TA.AperFunction,SMDPad,CuDef*
G36*
G01*
X57675000Y-94905000D02*
X57675000Y-95205000D01*
G75*
G02*
X57525000Y-95355000I-150000J0D01*
G01*
X55775000Y-95355000D01*
G75*
G02*
X55625000Y-95205000I0J150000D01*
G01*
X55625000Y-94905000D01*
G75*
G02*
X55775000Y-94755000I150000J0D01*
G01*
X57525000Y-94755000D01*
G75*
G02*
X57675000Y-94905000I0J-150000D01*
G01*
G37*
G04 #@! TD.AperFunction*
G04 #@! TO.P,U1,10*
G04 #@! TO.N,GND*
G04 #@! TA.AperFunction,SMDPad,CuDef*
G36*
G01*
X57675000Y-96175000D02*
X57675000Y-96475000D01*
G75*
G02*
X57525000Y-96625000I-150000J0D01*
G01*
X55775000Y-96625000D01*
G75*
G02*
X55625000Y-96475000I0J150000D01*
G01*
X55625000Y-96175000D01*
G75*
G02*
X55775000Y-96025000I150000J0D01*
G01*
X57525000Y-96025000D01*
G75*
G02*
X57675000Y-96175000I0J-150000D01*
G01*
G37*
G04 #@! TD.AperFunction*
G04 #@! TO.P,U1,9*
G04 #@! TO.N,VCC*
G04 #@! TA.AperFunction,SMDPad,CuDef*
G36*
G01*
X57675000Y-97445000D02*
X57675000Y-97745000D01*
G75*
G02*
X57525000Y-97895000I-150000J0D01*
G01*
X55775000Y-97895000D01*
G75*
G02*
X55625000Y-97745000I0J150000D01*
G01*
X55625000Y-97445000D01*
G75*
G02*
X55775000Y-97295000I150000J0D01*
G01*
X57525000Y-97295000D01*
G75*
G02*
X57675000Y-97445000I0J-150000D01*
G01*
G37*
G04 #@! TD.AperFunction*
G04 #@! TO.P,U1,8*
G04 #@! TO.N,Net-(J2-Pad8)*
G04 #@! TA.AperFunction,SMDPad,CuDef*
G36*
G01*
X57675000Y-98715000D02*
X57675000Y-99015000D01*
G75*
G02*
X57525000Y-99165000I-150000J0D01*
G01*
X55775000Y-99165000D01*
G75*
G02*
X55625000Y-99015000I0J150000D01*
G01*
X55625000Y-98715000D01*
G75*
G02*
X55775000Y-98565000I150000J0D01*
G01*
X57525000Y-98565000D01*
G75*
G02*
X57675000Y-98715000I0J-150000D01*
G01*
G37*
G04 #@! TD.AperFunction*
G04 #@! TO.P,U1,7*
G04 #@! TO.N,Net-(J2-Pad7)*
G04 #@! TA.AperFunction,SMDPad,CuDef*
G36*
G01*
X57675000Y-99985000D02*
X57675000Y-100285000D01*
G75*
G02*
X57525000Y-100435000I-150000J0D01*
G01*
X55775000Y-100435000D01*
G75*
G02*
X55625000Y-100285000I0J150000D01*
G01*
X55625000Y-99985000D01*
G75*
G02*
X55775000Y-99835000I150000J0D01*
G01*
X57525000Y-99835000D01*
G75*
G02*
X57675000Y-99985000I0J-150000D01*
G01*
G37*
G04 #@! TD.AperFunction*
G04 #@! TO.P,U1,6*
G04 #@! TO.N,Net-(J2-Pad6)*
G04 #@! TA.AperFunction,SMDPad,CuDef*
G36*
G01*
X57675000Y-101255000D02*
X57675000Y-101555000D01*
G75*
G02*
X57525000Y-101705000I-150000J0D01*
G01*
X55775000Y-101705000D01*
G75*
G02*
X55625000Y-101555000I0J150000D01*
G01*
X55625000Y-101255000D01*
G75*
G02*
X55775000Y-101105000I150000J0D01*
G01*
X57525000Y-101105000D01*
G75*
G02*
X57675000Y-101255000I0J-150000D01*
G01*
G37*
G04 #@! TD.AperFunction*
G04 #@! TO.P,U1,5*
G04 #@! TO.N,Net-(J2-Pad5)*
G04 #@! TA.AperFunction,SMDPad,CuDef*
G36*
G01*
X57675000Y-102525000D02*
X57675000Y-102825000D01*
G75*
G02*
X57525000Y-102975000I-150000J0D01*
G01*
X55775000Y-102975000D01*
G75*
G02*
X55625000Y-102825000I0J150000D01*
G01*
X55625000Y-102525000D01*
G75*
G02*
X55775000Y-102375000I150000J0D01*
G01*
X57525000Y-102375000D01*
G75*
G02*
X57675000Y-102525000I0J-150000D01*
G01*
G37*
G04 #@! TD.AperFunction*
G04 #@! TO.P,U1,4*
G04 #@! TO.N,Net-(J2-Pad4)*
G04 #@! TA.AperFunction,SMDPad,CuDef*
G36*
G01*
X57675000Y-103795000D02*
X57675000Y-104095000D01*
G75*
G02*
X57525000Y-104245000I-150000J0D01*
G01*
X55775000Y-104245000D01*
G75*
G02*
X55625000Y-104095000I0J150000D01*
G01*
X55625000Y-103795000D01*
G75*
G02*
X55775000Y-103645000I150000J0D01*
G01*
X57525000Y-103645000D01*
G75*
G02*
X57675000Y-103795000I0J-150000D01*
G01*
G37*
G04 #@! TD.AperFunction*
G04 #@! TO.P,U1,3*
G04 #@! TO.N,Net-(J2-Pad3)*
G04 #@! TA.AperFunction,SMDPad,CuDef*
G36*
G01*
X57675000Y-105065000D02*
X57675000Y-105365000D01*
G75*
G02*
X57525000Y-105515000I-150000J0D01*
G01*
X55775000Y-105515000D01*
G75*
G02*
X55625000Y-105365000I0J150000D01*
G01*
X55625000Y-105065000D01*
G75*
G02*
X55775000Y-104915000I150000J0D01*
G01*
X57525000Y-104915000D01*
G75*
G02*
X57675000Y-105065000I0J-150000D01*
G01*
G37*
G04 #@! TD.AperFunction*
G04 #@! TO.P,U1,2*
G04 #@! TO.N,Net-(J2-Pad2)*
G04 #@! TA.AperFunction,SMDPad,CuDef*
G36*
G01*
X57675000Y-106335000D02*
X57675000Y-106635000D01*
G75*
G02*
X57525000Y-106785000I-150000J0D01*
G01*
X55775000Y-106785000D01*
G75*
G02*
X55625000Y-106635000I0J150000D01*
G01*
X55625000Y-106335000D01*
G75*
G02*
X55775000Y-106185000I150000J0D01*
G01*
X57525000Y-106185000D01*
G75*
G02*
X57675000Y-106335000I0J-150000D01*
G01*
G37*
G04 #@! TD.AperFunction*
G04 #@! TO.P,U1,1*
G04 #@! TO.N,Net-(J2-Pad1)*
G04 #@! TA.AperFunction,SMDPad,CuDef*
G36*
G01*
X57675000Y-107605000D02*
X57675000Y-107905000D01*
G75*
G02*
X57525000Y-108055000I-150000J0D01*
G01*
X55775000Y-108055000D01*
G75*
G02*
X55625000Y-107905000I0J150000D01*
G01*
X55625000Y-107605000D01*
G75*
G02*
X55775000Y-107455000I150000J0D01*
G01*
X57525000Y-107455000D01*
G75*
G02*
X57675000Y-107605000I0J-150000D01*
G01*
G37*
G04 #@! TD.AperFunction*
G04 #@! TD*
G04 #@! TO.P,R34,2*
G04 #@! TO.N,Net-(R34-Pad2)*
G04 #@! TA.AperFunction,SMDPad,CuDef*
G36*
G01*
X41937500Y-95625003D02*
X41937500Y-94374997D01*
G75*
G02*
X42187497Y-94125000I249997J0D01*
G01*
X42812503Y-94125000D01*
G75*
G02*
X43062500Y-94374997I0J-249997D01*
G01*
X43062500Y-95625003D01*
G75*
G02*
X42812503Y-95875000I-249997J0D01*
G01*
X42187497Y-95875000D01*
G75*
G02*
X41937500Y-95625003I0J249997D01*
G01*
G37*
G04 #@! TD.AperFunction*
G04 #@! TO.P,R34,1*
G04 #@! TO.N,VCC*
G04 #@! TA.AperFunction,SMDPad,CuDef*
G36*
G01*
X39012500Y-95625003D02*
X39012500Y-94374997D01*
G75*
G02*
X39262497Y-94125000I249997J0D01*
G01*
X39887503Y-94125000D01*
G75*
G02*
X40137500Y-94374997I0J-249997D01*
G01*
X40137500Y-95625003D01*
G75*
G02*
X39887503Y-95875000I-249997J0D01*
G01*
X39262497Y-95875000D01*
G75*
G02*
X39012500Y-95625003I0J249997D01*
G01*
G37*
G04 #@! TD.AperFunction*
G04 #@! TD*
G04 #@! TO.P,R33,2*
G04 #@! TO.N,Net-(R33-Pad2)*
G04 #@! TA.AperFunction,SMDPad,CuDef*
G36*
G01*
X73862500Y-95625003D02*
X73862500Y-94374997D01*
G75*
G02*
X74112497Y-94125000I249997J0D01*
G01*
X74737503Y-94125000D01*
G75*
G02*
X74987500Y-94374997I0J-249997D01*
G01*
X74987500Y-95625003D01*
G75*
G02*
X74737503Y-95875000I-249997J0D01*
G01*
X74112497Y-95875000D01*
G75*
G02*
X73862500Y-95625003I0J249997D01*
G01*
G37*
G04 #@! TD.AperFunction*
G04 #@! TO.P,R33,1*
G04 #@! TO.N,VCC*
G04 #@! TA.AperFunction,SMDPad,CuDef*
G36*
G01*
X70937500Y-95625003D02*
X70937500Y-94374997D01*
G75*
G02*
X71187497Y-94125000I249997J0D01*
G01*
X71812503Y-94125000D01*
G75*
G02*
X72062500Y-94374997I0J-249997D01*
G01*
X72062500Y-95625003D01*
G75*
G02*
X71812503Y-95875000I-249997J0D01*
G01*
X71187497Y-95875000D01*
G75*
G02*
X70937500Y-95625003I0J249997D01*
G01*
G37*
G04 #@! TD.AperFunction*
G04 #@! TD*
G04 #@! TO.P,R32,2*
G04 #@! TO.N,Net-(J4-Pad8)*
G04 #@! TA.AperFunction,SMDPad,CuDef*
G36*
G01*
X107374997Y-77937500D02*
X108625003Y-77937500D01*
G75*
G02*
X108875000Y-78187497I0J-249997D01*
G01*
X108875000Y-78812503D01*
G75*
G02*
X108625003Y-79062500I-249997J0D01*
G01*
X107374997Y-79062500D01*
G75*
G02*
X107125000Y-78812503I0J249997D01*
G01*
X107125000Y-78187497D01*
G75*
G02*
X107374997Y-77937500I249997J0D01*
G01*
G37*
G04 #@! TD.AperFunction*
G04 #@! TO.P,R32,1*
G04 #@! TO.N,Net-(D32-Pad2)*
G04 #@! TA.AperFunction,SMDPad,CuDef*
G36*
G01*
X107374997Y-75012500D02*
X108625003Y-75012500D01*
G75*
G02*
X108875000Y-75262497I0J-249997D01*
G01*
X108875000Y-75887503D01*
G75*
G02*
X108625003Y-76137500I-249997J0D01*
G01*
X107374997Y-76137500D01*
G75*
G02*
X107125000Y-75887503I0J249997D01*
G01*
X107125000Y-75262497D01*
G75*
G02*
X107374997Y-75012500I249997J0D01*
G01*
G37*
G04 #@! TD.AperFunction*
G04 #@! TD*
G04 #@! TO.P,R31,2*
G04 #@! TO.N,Net-(J4-Pad7)*
G04 #@! TA.AperFunction,SMDPad,CuDef*
G36*
G01*
X104874997Y-77937500D02*
X106125003Y-77937500D01*
G75*
G02*
X106375000Y-78187497I0J-249997D01*
G01*
X106375000Y-78812503D01*
G75*
G02*
X106125003Y-79062500I-249997J0D01*
G01*
X104874997Y-79062500D01*
G75*
G02*
X104625000Y-78812503I0J249997D01*
G01*
X104625000Y-78187497D01*
G75*
G02*
X104874997Y-77937500I249997J0D01*
G01*
G37*
G04 #@! TD.AperFunction*
G04 #@! TO.P,R31,1*
G04 #@! TO.N,Net-(D31-Pad2)*
G04 #@! TA.AperFunction,SMDPad,CuDef*
G36*
G01*
X104874997Y-75012500D02*
X106125003Y-75012500D01*
G75*
G02*
X106375000Y-75262497I0J-249997D01*
G01*
X106375000Y-75887503D01*
G75*
G02*
X106125003Y-76137500I-249997J0D01*
G01*
X104874997Y-76137500D01*
G75*
G02*
X104625000Y-75887503I0J249997D01*
G01*
X104625000Y-75262497D01*
G75*
G02*
X104874997Y-75012500I249997J0D01*
G01*
G37*
G04 #@! TD.AperFunction*
G04 #@! TD*
G04 #@! TO.P,R30,2*
G04 #@! TO.N,Net-(J4-Pad6)*
G04 #@! TA.AperFunction,SMDPad,CuDef*
G36*
G01*
X102374997Y-77937500D02*
X103625003Y-77937500D01*
G75*
G02*
X103875000Y-78187497I0J-249997D01*
G01*
X103875000Y-78812503D01*
G75*
G02*
X103625003Y-79062500I-249997J0D01*
G01*
X102374997Y-79062500D01*
G75*
G02*
X102125000Y-78812503I0J249997D01*
G01*
X102125000Y-78187497D01*
G75*
G02*
X102374997Y-77937500I249997J0D01*
G01*
G37*
G04 #@! TD.AperFunction*
G04 #@! TO.P,R30,1*
G04 #@! TO.N,Net-(D30-Pad2)*
G04 #@! TA.AperFunction,SMDPad,CuDef*
G36*
G01*
X102374997Y-75012500D02*
X103625003Y-75012500D01*
G75*
G02*
X103875000Y-75262497I0J-249997D01*
G01*
X103875000Y-75887503D01*
G75*
G02*
X103625003Y-76137500I-249997J0D01*
G01*
X102374997Y-76137500D01*
G75*
G02*
X102125000Y-75887503I0J249997D01*
G01*
X102125000Y-75262497D01*
G75*
G02*
X102374997Y-75012500I249997J0D01*
G01*
G37*
G04 #@! TD.AperFunction*
G04 #@! TD*
G04 #@! TO.P,R29,2*
G04 #@! TO.N,Net-(J4-Pad5)*
G04 #@! TA.AperFunction,SMDPad,CuDef*
G36*
G01*
X99874997Y-77937500D02*
X101125003Y-77937500D01*
G75*
G02*
X101375000Y-78187497I0J-249997D01*
G01*
X101375000Y-78812503D01*
G75*
G02*
X101125003Y-79062500I-249997J0D01*
G01*
X99874997Y-79062500D01*
G75*
G02*
X99625000Y-78812503I0J249997D01*
G01*
X99625000Y-78187497D01*
G75*
G02*
X99874997Y-77937500I249997J0D01*
G01*
G37*
G04 #@! TD.AperFunction*
G04 #@! TO.P,R29,1*
G04 #@! TO.N,Net-(D29-Pad2)*
G04 #@! TA.AperFunction,SMDPad,CuDef*
G36*
G01*
X99874997Y-75012500D02*
X101125003Y-75012500D01*
G75*
G02*
X101375000Y-75262497I0J-249997D01*
G01*
X101375000Y-75887503D01*
G75*
G02*
X101125003Y-76137500I-249997J0D01*
G01*
X99874997Y-76137500D01*
G75*
G02*
X99625000Y-75887503I0J249997D01*
G01*
X99625000Y-75262497D01*
G75*
G02*
X99874997Y-75012500I249997J0D01*
G01*
G37*
G04 #@! TD.AperFunction*
G04 #@! TD*
G04 #@! TO.P,R28,2*
G04 #@! TO.N,Net-(J4-Pad4)*
G04 #@! TA.AperFunction,SMDPad,CuDef*
G36*
G01*
X97374997Y-77937500D02*
X98625003Y-77937500D01*
G75*
G02*
X98875000Y-78187497I0J-249997D01*
G01*
X98875000Y-78812503D01*
G75*
G02*
X98625003Y-79062500I-249997J0D01*
G01*
X97374997Y-79062500D01*
G75*
G02*
X97125000Y-78812503I0J249997D01*
G01*
X97125000Y-78187497D01*
G75*
G02*
X97374997Y-77937500I249997J0D01*
G01*
G37*
G04 #@! TD.AperFunction*
G04 #@! TO.P,R28,1*
G04 #@! TO.N,Net-(D28-Pad2)*
G04 #@! TA.AperFunction,SMDPad,CuDef*
G36*
G01*
X97374997Y-75012500D02*
X98625003Y-75012500D01*
G75*
G02*
X98875000Y-75262497I0J-249997D01*
G01*
X98875000Y-75887503D01*
G75*
G02*
X98625003Y-76137500I-249997J0D01*
G01*
X97374997Y-76137500D01*
G75*
G02*
X97125000Y-75887503I0J249997D01*
G01*
X97125000Y-75262497D01*
G75*
G02*
X97374997Y-75012500I249997J0D01*
G01*
G37*
G04 #@! TD.AperFunction*
G04 #@! TD*
G04 #@! TO.P,R27,2*
G04 #@! TO.N,Net-(J4-Pad3)*
G04 #@! TA.AperFunction,SMDPad,CuDef*
G36*
G01*
X94874997Y-77937500D02*
X96125003Y-77937500D01*
G75*
G02*
X96375000Y-78187497I0J-249997D01*
G01*
X96375000Y-78812503D01*
G75*
G02*
X96125003Y-79062500I-249997J0D01*
G01*
X94874997Y-79062500D01*
G75*
G02*
X94625000Y-78812503I0J249997D01*
G01*
X94625000Y-78187497D01*
G75*
G02*
X94874997Y-77937500I249997J0D01*
G01*
G37*
G04 #@! TD.AperFunction*
G04 #@! TO.P,R27,1*
G04 #@! TO.N,Net-(D27-Pad2)*
G04 #@! TA.AperFunction,SMDPad,CuDef*
G36*
G01*
X94874997Y-75012500D02*
X96125003Y-75012500D01*
G75*
G02*
X96375000Y-75262497I0J-249997D01*
G01*
X96375000Y-75887503D01*
G75*
G02*
X96125003Y-76137500I-249997J0D01*
G01*
X94874997Y-76137500D01*
G75*
G02*
X94625000Y-75887503I0J249997D01*
G01*
X94625000Y-75262497D01*
G75*
G02*
X94874997Y-75012500I249997J0D01*
G01*
G37*
G04 #@! TD.AperFunction*
G04 #@! TD*
G04 #@! TO.P,R26,2*
G04 #@! TO.N,Net-(J4-Pad2)*
G04 #@! TA.AperFunction,SMDPad,CuDef*
G36*
G01*
X92374997Y-77937500D02*
X93625003Y-77937500D01*
G75*
G02*
X93875000Y-78187497I0J-249997D01*
G01*
X93875000Y-78812503D01*
G75*
G02*
X93625003Y-79062500I-249997J0D01*
G01*
X92374997Y-79062500D01*
G75*
G02*
X92125000Y-78812503I0J249997D01*
G01*
X92125000Y-78187497D01*
G75*
G02*
X92374997Y-77937500I249997J0D01*
G01*
G37*
G04 #@! TD.AperFunction*
G04 #@! TO.P,R26,1*
G04 #@! TO.N,Net-(D26-Pad2)*
G04 #@! TA.AperFunction,SMDPad,CuDef*
G36*
G01*
X92374997Y-75012500D02*
X93625003Y-75012500D01*
G75*
G02*
X93875000Y-75262497I0J-249997D01*
G01*
X93875000Y-75887503D01*
G75*
G02*
X93625003Y-76137500I-249997J0D01*
G01*
X92374997Y-76137500D01*
G75*
G02*
X92125000Y-75887503I0J249997D01*
G01*
X92125000Y-75262497D01*
G75*
G02*
X92374997Y-75012500I249997J0D01*
G01*
G37*
G04 #@! TD.AperFunction*
G04 #@! TD*
G04 #@! TO.P,R25,2*
G04 #@! TO.N,Net-(J4-Pad1)*
G04 #@! TA.AperFunction,SMDPad,CuDef*
G36*
G01*
X89874997Y-77937500D02*
X91125003Y-77937500D01*
G75*
G02*
X91375000Y-78187497I0J-249997D01*
G01*
X91375000Y-78812503D01*
G75*
G02*
X91125003Y-79062500I-249997J0D01*
G01*
X89874997Y-79062500D01*
G75*
G02*
X89625000Y-78812503I0J249997D01*
G01*
X89625000Y-78187497D01*
G75*
G02*
X89874997Y-77937500I249997J0D01*
G01*
G37*
G04 #@! TD.AperFunction*
G04 #@! TO.P,R25,1*
G04 #@! TO.N,Net-(D25-Pad2)*
G04 #@! TA.AperFunction,SMDPad,CuDef*
G36*
G01*
X89874997Y-75012500D02*
X91125003Y-75012500D01*
G75*
G02*
X91375000Y-75262497I0J-249997D01*
G01*
X91375000Y-75887503D01*
G75*
G02*
X91125003Y-76137500I-249997J0D01*
G01*
X89874997Y-76137500D01*
G75*
G02*
X89625000Y-75887503I0J249997D01*
G01*
X89625000Y-75262497D01*
G75*
G02*
X89874997Y-75012500I249997J0D01*
G01*
G37*
G04 #@! TD.AperFunction*
G04 #@! TD*
G04 #@! TO.P,R24,2*
G04 #@! TO.N,Net-(J5-Pad8)*
G04 #@! TA.AperFunction,SMDPad,CuDef*
G36*
G01*
X87374997Y-77937500D02*
X88625003Y-77937500D01*
G75*
G02*
X88875000Y-78187497I0J-249997D01*
G01*
X88875000Y-78812503D01*
G75*
G02*
X88625003Y-79062500I-249997J0D01*
G01*
X87374997Y-79062500D01*
G75*
G02*
X87125000Y-78812503I0J249997D01*
G01*
X87125000Y-78187497D01*
G75*
G02*
X87374997Y-77937500I249997J0D01*
G01*
G37*
G04 #@! TD.AperFunction*
G04 #@! TO.P,R24,1*
G04 #@! TO.N,Net-(D24-Pad2)*
G04 #@! TA.AperFunction,SMDPad,CuDef*
G36*
G01*
X87374997Y-75012500D02*
X88625003Y-75012500D01*
G75*
G02*
X88875000Y-75262497I0J-249997D01*
G01*
X88875000Y-75887503D01*
G75*
G02*
X88625003Y-76137500I-249997J0D01*
G01*
X87374997Y-76137500D01*
G75*
G02*
X87125000Y-75887503I0J249997D01*
G01*
X87125000Y-75262497D01*
G75*
G02*
X87374997Y-75012500I249997J0D01*
G01*
G37*
G04 #@! TD.AperFunction*
G04 #@! TD*
G04 #@! TO.P,R23,2*
G04 #@! TO.N,Net-(J5-Pad7)*
G04 #@! TA.AperFunction,SMDPad,CuDef*
G36*
G01*
X84874997Y-77937500D02*
X86125003Y-77937500D01*
G75*
G02*
X86375000Y-78187497I0J-249997D01*
G01*
X86375000Y-78812503D01*
G75*
G02*
X86125003Y-79062500I-249997J0D01*
G01*
X84874997Y-79062500D01*
G75*
G02*
X84625000Y-78812503I0J249997D01*
G01*
X84625000Y-78187497D01*
G75*
G02*
X84874997Y-77937500I249997J0D01*
G01*
G37*
G04 #@! TD.AperFunction*
G04 #@! TO.P,R23,1*
G04 #@! TO.N,Net-(D23-Pad2)*
G04 #@! TA.AperFunction,SMDPad,CuDef*
G36*
G01*
X84874997Y-75012500D02*
X86125003Y-75012500D01*
G75*
G02*
X86375000Y-75262497I0J-249997D01*
G01*
X86375000Y-75887503D01*
G75*
G02*
X86125003Y-76137500I-249997J0D01*
G01*
X84874997Y-76137500D01*
G75*
G02*
X84625000Y-75887503I0J249997D01*
G01*
X84625000Y-75262497D01*
G75*
G02*
X84874997Y-75012500I249997J0D01*
G01*
G37*
G04 #@! TD.AperFunction*
G04 #@! TD*
G04 #@! TO.P,R22,2*
G04 #@! TO.N,Net-(J5-Pad6)*
G04 #@! TA.AperFunction,SMDPad,CuDef*
G36*
G01*
X82374997Y-77937500D02*
X83625003Y-77937500D01*
G75*
G02*
X83875000Y-78187497I0J-249997D01*
G01*
X83875000Y-78812503D01*
G75*
G02*
X83625003Y-79062500I-249997J0D01*
G01*
X82374997Y-79062500D01*
G75*
G02*
X82125000Y-78812503I0J249997D01*
G01*
X82125000Y-78187497D01*
G75*
G02*
X82374997Y-77937500I249997J0D01*
G01*
G37*
G04 #@! TD.AperFunction*
G04 #@! TO.P,R22,1*
G04 #@! TO.N,Net-(D22-Pad2)*
G04 #@! TA.AperFunction,SMDPad,CuDef*
G36*
G01*
X82374997Y-75012500D02*
X83625003Y-75012500D01*
G75*
G02*
X83875000Y-75262497I0J-249997D01*
G01*
X83875000Y-75887503D01*
G75*
G02*
X83625003Y-76137500I-249997J0D01*
G01*
X82374997Y-76137500D01*
G75*
G02*
X82125000Y-75887503I0J249997D01*
G01*
X82125000Y-75262497D01*
G75*
G02*
X82374997Y-75012500I249997J0D01*
G01*
G37*
G04 #@! TD.AperFunction*
G04 #@! TD*
G04 #@! TO.P,R21,2*
G04 #@! TO.N,Net-(J5-Pad5)*
G04 #@! TA.AperFunction,SMDPad,CuDef*
G36*
G01*
X79874997Y-77937500D02*
X81125003Y-77937500D01*
G75*
G02*
X81375000Y-78187497I0J-249997D01*
G01*
X81375000Y-78812503D01*
G75*
G02*
X81125003Y-79062500I-249997J0D01*
G01*
X79874997Y-79062500D01*
G75*
G02*
X79625000Y-78812503I0J249997D01*
G01*
X79625000Y-78187497D01*
G75*
G02*
X79874997Y-77937500I249997J0D01*
G01*
G37*
G04 #@! TD.AperFunction*
G04 #@! TO.P,R21,1*
G04 #@! TO.N,Net-(D21-Pad2)*
G04 #@! TA.AperFunction,SMDPad,CuDef*
G36*
G01*
X79874997Y-75012500D02*
X81125003Y-75012500D01*
G75*
G02*
X81375000Y-75262497I0J-249997D01*
G01*
X81375000Y-75887503D01*
G75*
G02*
X81125003Y-76137500I-249997J0D01*
G01*
X79874997Y-76137500D01*
G75*
G02*
X79625000Y-75887503I0J249997D01*
G01*
X79625000Y-75262497D01*
G75*
G02*
X79874997Y-75012500I249997J0D01*
G01*
G37*
G04 #@! TD.AperFunction*
G04 #@! TD*
G04 #@! TO.P,R20,2*
G04 #@! TO.N,Net-(J5-Pad4)*
G04 #@! TA.AperFunction,SMDPad,CuDef*
G36*
G01*
X77374997Y-77937500D02*
X78625003Y-77937500D01*
G75*
G02*
X78875000Y-78187497I0J-249997D01*
G01*
X78875000Y-78812503D01*
G75*
G02*
X78625003Y-79062500I-249997J0D01*
G01*
X77374997Y-79062500D01*
G75*
G02*
X77125000Y-78812503I0J249997D01*
G01*
X77125000Y-78187497D01*
G75*
G02*
X77374997Y-77937500I249997J0D01*
G01*
G37*
G04 #@! TD.AperFunction*
G04 #@! TO.P,R20,1*
G04 #@! TO.N,Net-(D20-Pad2)*
G04 #@! TA.AperFunction,SMDPad,CuDef*
G36*
G01*
X77374997Y-75012500D02*
X78625003Y-75012500D01*
G75*
G02*
X78875000Y-75262497I0J-249997D01*
G01*
X78875000Y-75887503D01*
G75*
G02*
X78625003Y-76137500I-249997J0D01*
G01*
X77374997Y-76137500D01*
G75*
G02*
X77125000Y-75887503I0J249997D01*
G01*
X77125000Y-75262497D01*
G75*
G02*
X77374997Y-75012500I249997J0D01*
G01*
G37*
G04 #@! TD.AperFunction*
G04 #@! TD*
G04 #@! TO.P,R19,2*
G04 #@! TO.N,Net-(J5-Pad3)*
G04 #@! TA.AperFunction,SMDPad,CuDef*
G36*
G01*
X74874997Y-77937500D02*
X76125003Y-77937500D01*
G75*
G02*
X76375000Y-78187497I0J-249997D01*
G01*
X76375000Y-78812503D01*
G75*
G02*
X76125003Y-79062500I-249997J0D01*
G01*
X74874997Y-79062500D01*
G75*
G02*
X74625000Y-78812503I0J249997D01*
G01*
X74625000Y-78187497D01*
G75*
G02*
X74874997Y-77937500I249997J0D01*
G01*
G37*
G04 #@! TD.AperFunction*
G04 #@! TO.P,R19,1*
G04 #@! TO.N,Net-(D19-Pad2)*
G04 #@! TA.AperFunction,SMDPad,CuDef*
G36*
G01*
X74874997Y-75012500D02*
X76125003Y-75012500D01*
G75*
G02*
X76375000Y-75262497I0J-249997D01*
G01*
X76375000Y-75887503D01*
G75*
G02*
X76125003Y-76137500I-249997J0D01*
G01*
X74874997Y-76137500D01*
G75*
G02*
X74625000Y-75887503I0J249997D01*
G01*
X74625000Y-75262497D01*
G75*
G02*
X74874997Y-75012500I249997J0D01*
G01*
G37*
G04 #@! TD.AperFunction*
G04 #@! TD*
G04 #@! TO.P,R18,2*
G04 #@! TO.N,Net-(J5-Pad2)*
G04 #@! TA.AperFunction,SMDPad,CuDef*
G36*
G01*
X72374997Y-77937500D02*
X73625003Y-77937500D01*
G75*
G02*
X73875000Y-78187497I0J-249997D01*
G01*
X73875000Y-78812503D01*
G75*
G02*
X73625003Y-79062500I-249997J0D01*
G01*
X72374997Y-79062500D01*
G75*
G02*
X72125000Y-78812503I0J249997D01*
G01*
X72125000Y-78187497D01*
G75*
G02*
X72374997Y-77937500I249997J0D01*
G01*
G37*
G04 #@! TD.AperFunction*
G04 #@! TO.P,R18,1*
G04 #@! TO.N,Net-(D18-Pad2)*
G04 #@! TA.AperFunction,SMDPad,CuDef*
G36*
G01*
X72374997Y-75012500D02*
X73625003Y-75012500D01*
G75*
G02*
X73875000Y-75262497I0J-249997D01*
G01*
X73875000Y-75887503D01*
G75*
G02*
X73625003Y-76137500I-249997J0D01*
G01*
X72374997Y-76137500D01*
G75*
G02*
X72125000Y-75887503I0J249997D01*
G01*
X72125000Y-75262497D01*
G75*
G02*
X72374997Y-75012500I249997J0D01*
G01*
G37*
G04 #@! TD.AperFunction*
G04 #@! TD*
G04 #@! TO.P,R17,2*
G04 #@! TO.N,Net-(J5-Pad1)*
G04 #@! TA.AperFunction,SMDPad,CuDef*
G36*
G01*
X69874997Y-77937500D02*
X71125003Y-77937500D01*
G75*
G02*
X71375000Y-78187497I0J-249997D01*
G01*
X71375000Y-78812503D01*
G75*
G02*
X71125003Y-79062500I-249997J0D01*
G01*
X69874997Y-79062500D01*
G75*
G02*
X69625000Y-78812503I0J249997D01*
G01*
X69625000Y-78187497D01*
G75*
G02*
X69874997Y-77937500I249997J0D01*
G01*
G37*
G04 #@! TD.AperFunction*
G04 #@! TO.P,R17,1*
G04 #@! TO.N,Net-(D17-Pad2)*
G04 #@! TA.AperFunction,SMDPad,CuDef*
G36*
G01*
X69874997Y-75012500D02*
X71125003Y-75012500D01*
G75*
G02*
X71375000Y-75262497I0J-249997D01*
G01*
X71375000Y-75887503D01*
G75*
G02*
X71125003Y-76137500I-249997J0D01*
G01*
X69874997Y-76137500D01*
G75*
G02*
X69625000Y-75887503I0J249997D01*
G01*
X69625000Y-75262497D01*
G75*
G02*
X69874997Y-75012500I249997J0D01*
G01*
G37*
G04 #@! TD.AperFunction*
G04 #@! TD*
G04 #@! TO.P,R16,2*
G04 #@! TO.N,Net-(J2-Pad8)*
G04 #@! TA.AperFunction,SMDPad,CuDef*
G36*
G01*
X67374997Y-77937500D02*
X68625003Y-77937500D01*
G75*
G02*
X68875000Y-78187497I0J-249997D01*
G01*
X68875000Y-78812503D01*
G75*
G02*
X68625003Y-79062500I-249997J0D01*
G01*
X67374997Y-79062500D01*
G75*
G02*
X67125000Y-78812503I0J249997D01*
G01*
X67125000Y-78187497D01*
G75*
G02*
X67374997Y-77937500I249997J0D01*
G01*
G37*
G04 #@! TD.AperFunction*
G04 #@! TO.P,R16,1*
G04 #@! TO.N,Net-(D16-Pad2)*
G04 #@! TA.AperFunction,SMDPad,CuDef*
G36*
G01*
X67374997Y-75012500D02*
X68625003Y-75012500D01*
G75*
G02*
X68875000Y-75262497I0J-249997D01*
G01*
X68875000Y-75887503D01*
G75*
G02*
X68625003Y-76137500I-249997J0D01*
G01*
X67374997Y-76137500D01*
G75*
G02*
X67125000Y-75887503I0J249997D01*
G01*
X67125000Y-75262497D01*
G75*
G02*
X67374997Y-75012500I249997J0D01*
G01*
G37*
G04 #@! TD.AperFunction*
G04 #@! TD*
G04 #@! TO.P,R15,2*
G04 #@! TO.N,Net-(J2-Pad7)*
G04 #@! TA.AperFunction,SMDPad,CuDef*
G36*
G01*
X64874997Y-77937500D02*
X66125003Y-77937500D01*
G75*
G02*
X66375000Y-78187497I0J-249997D01*
G01*
X66375000Y-78812503D01*
G75*
G02*
X66125003Y-79062500I-249997J0D01*
G01*
X64874997Y-79062500D01*
G75*
G02*
X64625000Y-78812503I0J249997D01*
G01*
X64625000Y-78187497D01*
G75*
G02*
X64874997Y-77937500I249997J0D01*
G01*
G37*
G04 #@! TD.AperFunction*
G04 #@! TO.P,R15,1*
G04 #@! TO.N,Net-(D15-Pad2)*
G04 #@! TA.AperFunction,SMDPad,CuDef*
G36*
G01*
X64874997Y-75012500D02*
X66125003Y-75012500D01*
G75*
G02*
X66375000Y-75262497I0J-249997D01*
G01*
X66375000Y-75887503D01*
G75*
G02*
X66125003Y-76137500I-249997J0D01*
G01*
X64874997Y-76137500D01*
G75*
G02*
X64625000Y-75887503I0J249997D01*
G01*
X64625000Y-75262497D01*
G75*
G02*
X64874997Y-75012500I249997J0D01*
G01*
G37*
G04 #@! TD.AperFunction*
G04 #@! TD*
G04 #@! TO.P,R14,2*
G04 #@! TO.N,Net-(J2-Pad6)*
G04 #@! TA.AperFunction,SMDPad,CuDef*
G36*
G01*
X62374997Y-77937500D02*
X63625003Y-77937500D01*
G75*
G02*
X63875000Y-78187497I0J-249997D01*
G01*
X63875000Y-78812503D01*
G75*
G02*
X63625003Y-79062500I-249997J0D01*
G01*
X62374997Y-79062500D01*
G75*
G02*
X62125000Y-78812503I0J249997D01*
G01*
X62125000Y-78187497D01*
G75*
G02*
X62374997Y-77937500I249997J0D01*
G01*
G37*
G04 #@! TD.AperFunction*
G04 #@! TO.P,R14,1*
G04 #@! TO.N,Net-(D14-Pad2)*
G04 #@! TA.AperFunction,SMDPad,CuDef*
G36*
G01*
X62374997Y-75012500D02*
X63625003Y-75012500D01*
G75*
G02*
X63875000Y-75262497I0J-249997D01*
G01*
X63875000Y-75887503D01*
G75*
G02*
X63625003Y-76137500I-249997J0D01*
G01*
X62374997Y-76137500D01*
G75*
G02*
X62125000Y-75887503I0J249997D01*
G01*
X62125000Y-75262497D01*
G75*
G02*
X62374997Y-75012500I249997J0D01*
G01*
G37*
G04 #@! TD.AperFunction*
G04 #@! TD*
G04 #@! TO.P,R13,2*
G04 #@! TO.N,Net-(J2-Pad5)*
G04 #@! TA.AperFunction,SMDPad,CuDef*
G36*
G01*
X59874997Y-77937500D02*
X61125003Y-77937500D01*
G75*
G02*
X61375000Y-78187497I0J-249997D01*
G01*
X61375000Y-78812503D01*
G75*
G02*
X61125003Y-79062500I-249997J0D01*
G01*
X59874997Y-79062500D01*
G75*
G02*
X59625000Y-78812503I0J249997D01*
G01*
X59625000Y-78187497D01*
G75*
G02*
X59874997Y-77937500I249997J0D01*
G01*
G37*
G04 #@! TD.AperFunction*
G04 #@! TO.P,R13,1*
G04 #@! TO.N,Net-(D13-Pad2)*
G04 #@! TA.AperFunction,SMDPad,CuDef*
G36*
G01*
X59874997Y-75012500D02*
X61125003Y-75012500D01*
G75*
G02*
X61375000Y-75262497I0J-249997D01*
G01*
X61375000Y-75887503D01*
G75*
G02*
X61125003Y-76137500I-249997J0D01*
G01*
X59874997Y-76137500D01*
G75*
G02*
X59625000Y-75887503I0J249997D01*
G01*
X59625000Y-75262497D01*
G75*
G02*
X59874997Y-75012500I249997J0D01*
G01*
G37*
G04 #@! TD.AperFunction*
G04 #@! TD*
G04 #@! TO.P,R12,2*
G04 #@! TO.N,Net-(J2-Pad4)*
G04 #@! TA.AperFunction,SMDPad,CuDef*
G36*
G01*
X57374997Y-77937500D02*
X58625003Y-77937500D01*
G75*
G02*
X58875000Y-78187497I0J-249997D01*
G01*
X58875000Y-78812503D01*
G75*
G02*
X58625003Y-79062500I-249997J0D01*
G01*
X57374997Y-79062500D01*
G75*
G02*
X57125000Y-78812503I0J249997D01*
G01*
X57125000Y-78187497D01*
G75*
G02*
X57374997Y-77937500I249997J0D01*
G01*
G37*
G04 #@! TD.AperFunction*
G04 #@! TO.P,R12,1*
G04 #@! TO.N,Net-(D12-Pad2)*
G04 #@! TA.AperFunction,SMDPad,CuDef*
G36*
G01*
X57374997Y-75012500D02*
X58625003Y-75012500D01*
G75*
G02*
X58875000Y-75262497I0J-249997D01*
G01*
X58875000Y-75887503D01*
G75*
G02*
X58625003Y-76137500I-249997J0D01*
G01*
X57374997Y-76137500D01*
G75*
G02*
X57125000Y-75887503I0J249997D01*
G01*
X57125000Y-75262497D01*
G75*
G02*
X57374997Y-75012500I249997J0D01*
G01*
G37*
G04 #@! TD.AperFunction*
G04 #@! TD*
G04 #@! TO.P,R11,2*
G04 #@! TO.N,Net-(J2-Pad3)*
G04 #@! TA.AperFunction,SMDPad,CuDef*
G36*
G01*
X54874997Y-77937500D02*
X56125003Y-77937500D01*
G75*
G02*
X56375000Y-78187497I0J-249997D01*
G01*
X56375000Y-78812503D01*
G75*
G02*
X56125003Y-79062500I-249997J0D01*
G01*
X54874997Y-79062500D01*
G75*
G02*
X54625000Y-78812503I0J249997D01*
G01*
X54625000Y-78187497D01*
G75*
G02*
X54874997Y-77937500I249997J0D01*
G01*
G37*
G04 #@! TD.AperFunction*
G04 #@! TO.P,R11,1*
G04 #@! TO.N,Net-(D11-Pad2)*
G04 #@! TA.AperFunction,SMDPad,CuDef*
G36*
G01*
X54874997Y-75012500D02*
X56125003Y-75012500D01*
G75*
G02*
X56375000Y-75262497I0J-249997D01*
G01*
X56375000Y-75887503D01*
G75*
G02*
X56125003Y-76137500I-249997J0D01*
G01*
X54874997Y-76137500D01*
G75*
G02*
X54625000Y-75887503I0J249997D01*
G01*
X54625000Y-75262497D01*
G75*
G02*
X54874997Y-75012500I249997J0D01*
G01*
G37*
G04 #@! TD.AperFunction*
G04 #@! TD*
G04 #@! TO.P,R10,2*
G04 #@! TO.N,Net-(J2-Pad2)*
G04 #@! TA.AperFunction,SMDPad,CuDef*
G36*
G01*
X52374997Y-77937500D02*
X53625003Y-77937500D01*
G75*
G02*
X53875000Y-78187497I0J-249997D01*
G01*
X53875000Y-78812503D01*
G75*
G02*
X53625003Y-79062500I-249997J0D01*
G01*
X52374997Y-79062500D01*
G75*
G02*
X52125000Y-78812503I0J249997D01*
G01*
X52125000Y-78187497D01*
G75*
G02*
X52374997Y-77937500I249997J0D01*
G01*
G37*
G04 #@! TD.AperFunction*
G04 #@! TO.P,R10,1*
G04 #@! TO.N,Net-(D10-Pad2)*
G04 #@! TA.AperFunction,SMDPad,CuDef*
G36*
G01*
X52374997Y-75012500D02*
X53625003Y-75012500D01*
G75*
G02*
X53875000Y-75262497I0J-249997D01*
G01*
X53875000Y-75887503D01*
G75*
G02*
X53625003Y-76137500I-249997J0D01*
G01*
X52374997Y-76137500D01*
G75*
G02*
X52125000Y-75887503I0J249997D01*
G01*
X52125000Y-75262497D01*
G75*
G02*
X52374997Y-75012500I249997J0D01*
G01*
G37*
G04 #@! TD.AperFunction*
G04 #@! TD*
G04 #@! TO.P,R9,2*
G04 #@! TO.N,Net-(J2-Pad1)*
G04 #@! TA.AperFunction,SMDPad,CuDef*
G36*
G01*
X49874997Y-77862500D02*
X51125003Y-77862500D01*
G75*
G02*
X51375000Y-78112497I0J-249997D01*
G01*
X51375000Y-78737503D01*
G75*
G02*
X51125003Y-78987500I-249997J0D01*
G01*
X49874997Y-78987500D01*
G75*
G02*
X49625000Y-78737503I0J249997D01*
G01*
X49625000Y-78112497D01*
G75*
G02*
X49874997Y-77862500I249997J0D01*
G01*
G37*
G04 #@! TD.AperFunction*
G04 #@! TO.P,R9,1*
G04 #@! TO.N,Net-(D9-Pad2)*
G04 #@! TA.AperFunction,SMDPad,CuDef*
G36*
G01*
X49874997Y-74937500D02*
X51125003Y-74937500D01*
G75*
G02*
X51375000Y-75187497I0J-249997D01*
G01*
X51375000Y-75812503D01*
G75*
G02*
X51125003Y-76062500I-249997J0D01*
G01*
X49874997Y-76062500D01*
G75*
G02*
X49625000Y-75812503I0J249997D01*
G01*
X49625000Y-75187497D01*
G75*
G02*
X49874997Y-74937500I249997J0D01*
G01*
G37*
G04 #@! TD.AperFunction*
G04 #@! TD*
G04 #@! TO.P,R8,2*
G04 #@! TO.N,Net-(J3-Pad8)*
G04 #@! TA.AperFunction,SMDPad,CuDef*
G36*
G01*
X47374997Y-77862500D02*
X48625003Y-77862500D01*
G75*
G02*
X48875000Y-78112497I0J-249997D01*
G01*
X48875000Y-78737503D01*
G75*
G02*
X48625003Y-78987500I-249997J0D01*
G01*
X47374997Y-78987500D01*
G75*
G02*
X47125000Y-78737503I0J249997D01*
G01*
X47125000Y-78112497D01*
G75*
G02*
X47374997Y-77862500I249997J0D01*
G01*
G37*
G04 #@! TD.AperFunction*
G04 #@! TO.P,R8,1*
G04 #@! TO.N,Net-(D8-Pad2)*
G04 #@! TA.AperFunction,SMDPad,CuDef*
G36*
G01*
X47374997Y-74937500D02*
X48625003Y-74937500D01*
G75*
G02*
X48875000Y-75187497I0J-249997D01*
G01*
X48875000Y-75812503D01*
G75*
G02*
X48625003Y-76062500I-249997J0D01*
G01*
X47374997Y-76062500D01*
G75*
G02*
X47125000Y-75812503I0J249997D01*
G01*
X47125000Y-75187497D01*
G75*
G02*
X47374997Y-74937500I249997J0D01*
G01*
G37*
G04 #@! TD.AperFunction*
G04 #@! TD*
G04 #@! TO.P,R7,2*
G04 #@! TO.N,Net-(J3-Pad7)*
G04 #@! TA.AperFunction,SMDPad,CuDef*
G36*
G01*
X44874997Y-77862500D02*
X46125003Y-77862500D01*
G75*
G02*
X46375000Y-78112497I0J-249997D01*
G01*
X46375000Y-78737503D01*
G75*
G02*
X46125003Y-78987500I-249997J0D01*
G01*
X44874997Y-78987500D01*
G75*
G02*
X44625000Y-78737503I0J249997D01*
G01*
X44625000Y-78112497D01*
G75*
G02*
X44874997Y-77862500I249997J0D01*
G01*
G37*
G04 #@! TD.AperFunction*
G04 #@! TO.P,R7,1*
G04 #@! TO.N,Net-(D7-Pad2)*
G04 #@! TA.AperFunction,SMDPad,CuDef*
G36*
G01*
X44874997Y-74937500D02*
X46125003Y-74937500D01*
G75*
G02*
X46375000Y-75187497I0J-249997D01*
G01*
X46375000Y-75812503D01*
G75*
G02*
X46125003Y-76062500I-249997J0D01*
G01*
X44874997Y-76062500D01*
G75*
G02*
X44625000Y-75812503I0J249997D01*
G01*
X44625000Y-75187497D01*
G75*
G02*
X44874997Y-74937500I249997J0D01*
G01*
G37*
G04 #@! TD.AperFunction*
G04 #@! TD*
G04 #@! TO.P,R6,2*
G04 #@! TO.N,Net-(J3-Pad6)*
G04 #@! TA.AperFunction,SMDPad,CuDef*
G36*
G01*
X42374997Y-77862500D02*
X43625003Y-77862500D01*
G75*
G02*
X43875000Y-78112497I0J-249997D01*
G01*
X43875000Y-78737503D01*
G75*
G02*
X43625003Y-78987500I-249997J0D01*
G01*
X42374997Y-78987500D01*
G75*
G02*
X42125000Y-78737503I0J249997D01*
G01*
X42125000Y-78112497D01*
G75*
G02*
X42374997Y-77862500I249997J0D01*
G01*
G37*
G04 #@! TD.AperFunction*
G04 #@! TO.P,R6,1*
G04 #@! TO.N,Net-(D6-Pad2)*
G04 #@! TA.AperFunction,SMDPad,CuDef*
G36*
G01*
X42374997Y-74937500D02*
X43625003Y-74937500D01*
G75*
G02*
X43875000Y-75187497I0J-249997D01*
G01*
X43875000Y-75812503D01*
G75*
G02*
X43625003Y-76062500I-249997J0D01*
G01*
X42374997Y-76062500D01*
G75*
G02*
X42125000Y-75812503I0J249997D01*
G01*
X42125000Y-75187497D01*
G75*
G02*
X42374997Y-74937500I249997J0D01*
G01*
G37*
G04 #@! TD.AperFunction*
G04 #@! TD*
G04 #@! TO.P,R5,2*
G04 #@! TO.N,Net-(J3-Pad5)*
G04 #@! TA.AperFunction,SMDPad,CuDef*
G36*
G01*
X39874997Y-77862500D02*
X41125003Y-77862500D01*
G75*
G02*
X41375000Y-78112497I0J-249997D01*
G01*
X41375000Y-78737503D01*
G75*
G02*
X41125003Y-78987500I-249997J0D01*
G01*
X39874997Y-78987500D01*
G75*
G02*
X39625000Y-78737503I0J249997D01*
G01*
X39625000Y-78112497D01*
G75*
G02*
X39874997Y-77862500I249997J0D01*
G01*
G37*
G04 #@! TD.AperFunction*
G04 #@! TO.P,R5,1*
G04 #@! TO.N,Net-(D5-Pad2)*
G04 #@! TA.AperFunction,SMDPad,CuDef*
G36*
G01*
X39874997Y-74937500D02*
X41125003Y-74937500D01*
G75*
G02*
X41375000Y-75187497I0J-249997D01*
G01*
X41375000Y-75812503D01*
G75*
G02*
X41125003Y-76062500I-249997J0D01*
G01*
X39874997Y-76062500D01*
G75*
G02*
X39625000Y-75812503I0J249997D01*
G01*
X39625000Y-75187497D01*
G75*
G02*
X39874997Y-74937500I249997J0D01*
G01*
G37*
G04 #@! TD.AperFunction*
G04 #@! TD*
G04 #@! TO.P,R4,2*
G04 #@! TO.N,Net-(J3-Pad4)*
G04 #@! TA.AperFunction,SMDPad,CuDef*
G36*
G01*
X37374997Y-77900000D02*
X38625003Y-77900000D01*
G75*
G02*
X38875000Y-78149997I0J-249997D01*
G01*
X38875000Y-78775003D01*
G75*
G02*
X38625003Y-79025000I-249997J0D01*
G01*
X37374997Y-79025000D01*
G75*
G02*
X37125000Y-78775003I0J249997D01*
G01*
X37125000Y-78149997D01*
G75*
G02*
X37374997Y-77900000I249997J0D01*
G01*
G37*
G04 #@! TD.AperFunction*
G04 #@! TO.P,R4,1*
G04 #@! TO.N,Net-(D4-Pad2)*
G04 #@! TA.AperFunction,SMDPad,CuDef*
G36*
G01*
X37374997Y-74975000D02*
X38625003Y-74975000D01*
G75*
G02*
X38875000Y-75224997I0J-249997D01*
G01*
X38875000Y-75850003D01*
G75*
G02*
X38625003Y-76100000I-249997J0D01*
G01*
X37374997Y-76100000D01*
G75*
G02*
X37125000Y-75850003I0J249997D01*
G01*
X37125000Y-75224997D01*
G75*
G02*
X37374997Y-74975000I249997J0D01*
G01*
G37*
G04 #@! TD.AperFunction*
G04 #@! TD*
G04 #@! TO.P,R3,2*
G04 #@! TO.N,Net-(J3-Pad3)*
G04 #@! TA.AperFunction,SMDPad,CuDef*
G36*
G01*
X34874997Y-77900000D02*
X36125003Y-77900000D01*
G75*
G02*
X36375000Y-78149997I0J-249997D01*
G01*
X36375000Y-78775003D01*
G75*
G02*
X36125003Y-79025000I-249997J0D01*
G01*
X34874997Y-79025000D01*
G75*
G02*
X34625000Y-78775003I0J249997D01*
G01*
X34625000Y-78149997D01*
G75*
G02*
X34874997Y-77900000I249997J0D01*
G01*
G37*
G04 #@! TD.AperFunction*
G04 #@! TO.P,R3,1*
G04 #@! TO.N,Net-(D3-Pad2)*
G04 #@! TA.AperFunction,SMDPad,CuDef*
G36*
G01*
X34874997Y-74975000D02*
X36125003Y-74975000D01*
G75*
G02*
X36375000Y-75224997I0J-249997D01*
G01*
X36375000Y-75850003D01*
G75*
G02*
X36125003Y-76100000I-249997J0D01*
G01*
X34874997Y-76100000D01*
G75*
G02*
X34625000Y-75850003I0J249997D01*
G01*
X34625000Y-75224997D01*
G75*
G02*
X34874997Y-74975000I249997J0D01*
G01*
G37*
G04 #@! TD.AperFunction*
G04 #@! TD*
G04 #@! TO.P,R2,2*
G04 #@! TO.N,Net-(J3-Pad2)*
G04 #@! TA.AperFunction,SMDPad,CuDef*
G36*
G01*
X32374997Y-77862500D02*
X33625003Y-77862500D01*
G75*
G02*
X33875000Y-78112497I0J-249997D01*
G01*
X33875000Y-78737503D01*
G75*
G02*
X33625003Y-78987500I-249997J0D01*
G01*
X32374997Y-78987500D01*
G75*
G02*
X32125000Y-78737503I0J249997D01*
G01*
X32125000Y-78112497D01*
G75*
G02*
X32374997Y-77862500I249997J0D01*
G01*
G37*
G04 #@! TD.AperFunction*
G04 #@! TO.P,R2,1*
G04 #@! TO.N,Net-(D2-Pad2)*
G04 #@! TA.AperFunction,SMDPad,CuDef*
G36*
G01*
X32374997Y-74937500D02*
X33625003Y-74937500D01*
G75*
G02*
X33875000Y-75187497I0J-249997D01*
G01*
X33875000Y-75812503D01*
G75*
G02*
X33625003Y-76062500I-249997J0D01*
G01*
X32374997Y-76062500D01*
G75*
G02*
X32125000Y-75812503I0J249997D01*
G01*
X32125000Y-75187497D01*
G75*
G02*
X32374997Y-74937500I249997J0D01*
G01*
G37*
G04 #@! TD.AperFunction*
G04 #@! TD*
G04 #@! TO.P,R1,2*
G04 #@! TO.N,Net-(J3-Pad1)*
G04 #@! TA.AperFunction,SMDPad,CuDef*
G36*
G01*
X29874997Y-77862500D02*
X31125003Y-77862500D01*
G75*
G02*
X31375000Y-78112497I0J-249997D01*
G01*
X31375000Y-78737503D01*
G75*
G02*
X31125003Y-78987500I-249997J0D01*
G01*
X29874997Y-78987500D01*
G75*
G02*
X29625000Y-78737503I0J249997D01*
G01*
X29625000Y-78112497D01*
G75*
G02*
X29874997Y-77862500I249997J0D01*
G01*
G37*
G04 #@! TD.AperFunction*
G04 #@! TO.P,R1,1*
G04 #@! TO.N,Net-(D1-Pad2)*
G04 #@! TA.AperFunction,SMDPad,CuDef*
G36*
G01*
X29874997Y-74937500D02*
X31125003Y-74937500D01*
G75*
G02*
X31375000Y-75187497I0J-249997D01*
G01*
X31375000Y-75812503D01*
G75*
G02*
X31125003Y-76062500I-249997J0D01*
G01*
X29874997Y-76062500D01*
G75*
G02*
X29625000Y-75812503I0J249997D01*
G01*
X29625000Y-75187497D01*
G75*
G02*
X29874997Y-74937500I249997J0D01*
G01*
G37*
G04 #@! TD.AperFunction*
G04 #@! TD*
G04 #@! TO.P,D32,2*
G04 #@! TO.N,Net-(D32-Pad2)*
G04 #@! TA.AperFunction,SMDPad,CuDef*
G36*
G01*
X107375000Y-70375000D02*
X108625000Y-70375000D01*
G75*
G02*
X108875000Y-70625000I0J-250000D01*
G01*
X108875000Y-71375000D01*
G75*
G02*
X108625000Y-71625000I-250000J0D01*
G01*
X107375000Y-71625000D01*
G75*
G02*
X107125000Y-71375000I0J250000D01*
G01*
X107125000Y-70625000D01*
G75*
G02*
X107375000Y-70375000I250000J0D01*
G01*
G37*
G04 #@! TD.AperFunction*
G04 #@! TO.P,D32,1*
G04 #@! TO.N,GND*
G04 #@! TA.AperFunction,SMDPad,CuDef*
G36*
G01*
X107375000Y-67575000D02*
X108625000Y-67575000D01*
G75*
G02*
X108875000Y-67825000I0J-250000D01*
G01*
X108875000Y-68575000D01*
G75*
G02*
X108625000Y-68825000I-250000J0D01*
G01*
X107375000Y-68825000D01*
G75*
G02*
X107125000Y-68575000I0J250000D01*
G01*
X107125000Y-67825000D01*
G75*
G02*
X107375000Y-67575000I250000J0D01*
G01*
G37*
G04 #@! TD.AperFunction*
G04 #@! TD*
G04 #@! TO.P,D31,2*
G04 #@! TO.N,Net-(D31-Pad2)*
G04 #@! TA.AperFunction,SMDPad,CuDef*
G36*
G01*
X104875000Y-70375000D02*
X106125000Y-70375000D01*
G75*
G02*
X106375000Y-70625000I0J-250000D01*
G01*
X106375000Y-71375000D01*
G75*
G02*
X106125000Y-71625000I-250000J0D01*
G01*
X104875000Y-71625000D01*
G75*
G02*
X104625000Y-71375000I0J250000D01*
G01*
X104625000Y-70625000D01*
G75*
G02*
X104875000Y-70375000I250000J0D01*
G01*
G37*
G04 #@! TD.AperFunction*
G04 #@! TO.P,D31,1*
G04 #@! TO.N,GND*
G04 #@! TA.AperFunction,SMDPad,CuDef*
G36*
G01*
X104875000Y-67575000D02*
X106125000Y-67575000D01*
G75*
G02*
X106375000Y-67825000I0J-250000D01*
G01*
X106375000Y-68575000D01*
G75*
G02*
X106125000Y-68825000I-250000J0D01*
G01*
X104875000Y-68825000D01*
G75*
G02*
X104625000Y-68575000I0J250000D01*
G01*
X104625000Y-67825000D01*
G75*
G02*
X104875000Y-67575000I250000J0D01*
G01*
G37*
G04 #@! TD.AperFunction*
G04 #@! TD*
G04 #@! TO.P,D30,2*
G04 #@! TO.N,Net-(D30-Pad2)*
G04 #@! TA.AperFunction,SMDPad,CuDef*
G36*
G01*
X102375000Y-70375000D02*
X103625000Y-70375000D01*
G75*
G02*
X103875000Y-70625000I0J-250000D01*
G01*
X103875000Y-71375000D01*
G75*
G02*
X103625000Y-71625000I-250000J0D01*
G01*
X102375000Y-71625000D01*
G75*
G02*
X102125000Y-71375000I0J250000D01*
G01*
X102125000Y-70625000D01*
G75*
G02*
X102375000Y-70375000I250000J0D01*
G01*
G37*
G04 #@! TD.AperFunction*
G04 #@! TO.P,D30,1*
G04 #@! TO.N,GND*
G04 #@! TA.AperFunction,SMDPad,CuDef*
G36*
G01*
X102375000Y-67575000D02*
X103625000Y-67575000D01*
G75*
G02*
X103875000Y-67825000I0J-250000D01*
G01*
X103875000Y-68575000D01*
G75*
G02*
X103625000Y-68825000I-250000J0D01*
G01*
X102375000Y-68825000D01*
G75*
G02*
X102125000Y-68575000I0J250000D01*
G01*
X102125000Y-67825000D01*
G75*
G02*
X102375000Y-67575000I250000J0D01*
G01*
G37*
G04 #@! TD.AperFunction*
G04 #@! TD*
G04 #@! TO.P,D29,2*
G04 #@! TO.N,Net-(D29-Pad2)*
G04 #@! TA.AperFunction,SMDPad,CuDef*
G36*
G01*
X99875000Y-70375000D02*
X101125000Y-70375000D01*
G75*
G02*
X101375000Y-70625000I0J-250000D01*
G01*
X101375000Y-71375000D01*
G75*
G02*
X101125000Y-71625000I-250000J0D01*
G01*
X99875000Y-71625000D01*
G75*
G02*
X99625000Y-71375000I0J250000D01*
G01*
X99625000Y-70625000D01*
G75*
G02*
X99875000Y-70375000I250000J0D01*
G01*
G37*
G04 #@! TD.AperFunction*
G04 #@! TO.P,D29,1*
G04 #@! TO.N,GND*
G04 #@! TA.AperFunction,SMDPad,CuDef*
G36*
G01*
X99875000Y-67575000D02*
X101125000Y-67575000D01*
G75*
G02*
X101375000Y-67825000I0J-250000D01*
G01*
X101375000Y-68575000D01*
G75*
G02*
X101125000Y-68825000I-250000J0D01*
G01*
X99875000Y-68825000D01*
G75*
G02*
X99625000Y-68575000I0J250000D01*
G01*
X99625000Y-67825000D01*
G75*
G02*
X99875000Y-67575000I250000J0D01*
G01*
G37*
G04 #@! TD.AperFunction*
G04 #@! TD*
G04 #@! TO.P,D28,2*
G04 #@! TO.N,Net-(D28-Pad2)*
G04 #@! TA.AperFunction,SMDPad,CuDef*
G36*
G01*
X97375000Y-70375000D02*
X98625000Y-70375000D01*
G75*
G02*
X98875000Y-70625000I0J-250000D01*
G01*
X98875000Y-71375000D01*
G75*
G02*
X98625000Y-71625000I-250000J0D01*
G01*
X97375000Y-71625000D01*
G75*
G02*
X97125000Y-71375000I0J250000D01*
G01*
X97125000Y-70625000D01*
G75*
G02*
X97375000Y-70375000I250000J0D01*
G01*
G37*
G04 #@! TD.AperFunction*
G04 #@! TO.P,D28,1*
G04 #@! TO.N,GND*
G04 #@! TA.AperFunction,SMDPad,CuDef*
G36*
G01*
X97375000Y-67575000D02*
X98625000Y-67575000D01*
G75*
G02*
X98875000Y-67825000I0J-250000D01*
G01*
X98875000Y-68575000D01*
G75*
G02*
X98625000Y-68825000I-250000J0D01*
G01*
X97375000Y-68825000D01*
G75*
G02*
X97125000Y-68575000I0J250000D01*
G01*
X97125000Y-67825000D01*
G75*
G02*
X97375000Y-67575000I250000J0D01*
G01*
G37*
G04 #@! TD.AperFunction*
G04 #@! TD*
G04 #@! TO.P,D27,2*
G04 #@! TO.N,Net-(D27-Pad2)*
G04 #@! TA.AperFunction,SMDPad,CuDef*
G36*
G01*
X94875000Y-70375000D02*
X96125000Y-70375000D01*
G75*
G02*
X96375000Y-70625000I0J-250000D01*
G01*
X96375000Y-71375000D01*
G75*
G02*
X96125000Y-71625000I-250000J0D01*
G01*
X94875000Y-71625000D01*
G75*
G02*
X94625000Y-71375000I0J250000D01*
G01*
X94625000Y-70625000D01*
G75*
G02*
X94875000Y-70375000I250000J0D01*
G01*
G37*
G04 #@! TD.AperFunction*
G04 #@! TO.P,D27,1*
G04 #@! TO.N,GND*
G04 #@! TA.AperFunction,SMDPad,CuDef*
G36*
G01*
X94875000Y-67575000D02*
X96125000Y-67575000D01*
G75*
G02*
X96375000Y-67825000I0J-250000D01*
G01*
X96375000Y-68575000D01*
G75*
G02*
X96125000Y-68825000I-250000J0D01*
G01*
X94875000Y-68825000D01*
G75*
G02*
X94625000Y-68575000I0J250000D01*
G01*
X94625000Y-67825000D01*
G75*
G02*
X94875000Y-67575000I250000J0D01*
G01*
G37*
G04 #@! TD.AperFunction*
G04 #@! TD*
G04 #@! TO.P,D26,2*
G04 #@! TO.N,Net-(D26-Pad2)*
G04 #@! TA.AperFunction,SMDPad,CuDef*
G36*
G01*
X92375000Y-70375000D02*
X93625000Y-70375000D01*
G75*
G02*
X93875000Y-70625000I0J-250000D01*
G01*
X93875000Y-71375000D01*
G75*
G02*
X93625000Y-71625000I-250000J0D01*
G01*
X92375000Y-71625000D01*
G75*
G02*
X92125000Y-71375000I0J250000D01*
G01*
X92125000Y-70625000D01*
G75*
G02*
X92375000Y-70375000I250000J0D01*
G01*
G37*
G04 #@! TD.AperFunction*
G04 #@! TO.P,D26,1*
G04 #@! TO.N,GND*
G04 #@! TA.AperFunction,SMDPad,CuDef*
G36*
G01*
X92375000Y-67575000D02*
X93625000Y-67575000D01*
G75*
G02*
X93875000Y-67825000I0J-250000D01*
G01*
X93875000Y-68575000D01*
G75*
G02*
X93625000Y-68825000I-250000J0D01*
G01*
X92375000Y-68825000D01*
G75*
G02*
X92125000Y-68575000I0J250000D01*
G01*
X92125000Y-67825000D01*
G75*
G02*
X92375000Y-67575000I250000J0D01*
G01*
G37*
G04 #@! TD.AperFunction*
G04 #@! TD*
G04 #@! TO.P,D25,2*
G04 #@! TO.N,Net-(D25-Pad2)*
G04 #@! TA.AperFunction,SMDPad,CuDef*
G36*
G01*
X89875000Y-70375000D02*
X91125000Y-70375000D01*
G75*
G02*
X91375000Y-70625000I0J-250000D01*
G01*
X91375000Y-71375000D01*
G75*
G02*
X91125000Y-71625000I-250000J0D01*
G01*
X89875000Y-71625000D01*
G75*
G02*
X89625000Y-71375000I0J250000D01*
G01*
X89625000Y-70625000D01*
G75*
G02*
X89875000Y-70375000I250000J0D01*
G01*
G37*
G04 #@! TD.AperFunction*
G04 #@! TO.P,D25,1*
G04 #@! TO.N,GND*
G04 #@! TA.AperFunction,SMDPad,CuDef*
G36*
G01*
X89875000Y-67575000D02*
X91125000Y-67575000D01*
G75*
G02*
X91375000Y-67825000I0J-250000D01*
G01*
X91375000Y-68575000D01*
G75*
G02*
X91125000Y-68825000I-250000J0D01*
G01*
X89875000Y-68825000D01*
G75*
G02*
X89625000Y-68575000I0J250000D01*
G01*
X89625000Y-67825000D01*
G75*
G02*
X89875000Y-67575000I250000J0D01*
G01*
G37*
G04 #@! TD.AperFunction*
G04 #@! TD*
G04 #@! TO.P,D24,2*
G04 #@! TO.N,Net-(D24-Pad2)*
G04 #@! TA.AperFunction,SMDPad,CuDef*
G36*
G01*
X87375000Y-70375000D02*
X88625000Y-70375000D01*
G75*
G02*
X88875000Y-70625000I0J-250000D01*
G01*
X88875000Y-71375000D01*
G75*
G02*
X88625000Y-71625000I-250000J0D01*
G01*
X87375000Y-71625000D01*
G75*
G02*
X87125000Y-71375000I0J250000D01*
G01*
X87125000Y-70625000D01*
G75*
G02*
X87375000Y-70375000I250000J0D01*
G01*
G37*
G04 #@! TD.AperFunction*
G04 #@! TO.P,D24,1*
G04 #@! TO.N,GND*
G04 #@! TA.AperFunction,SMDPad,CuDef*
G36*
G01*
X87375000Y-67575000D02*
X88625000Y-67575000D01*
G75*
G02*
X88875000Y-67825000I0J-250000D01*
G01*
X88875000Y-68575000D01*
G75*
G02*
X88625000Y-68825000I-250000J0D01*
G01*
X87375000Y-68825000D01*
G75*
G02*
X87125000Y-68575000I0J250000D01*
G01*
X87125000Y-67825000D01*
G75*
G02*
X87375000Y-67575000I250000J0D01*
G01*
G37*
G04 #@! TD.AperFunction*
G04 #@! TD*
G04 #@! TO.P,D23,2*
G04 #@! TO.N,Net-(D23-Pad2)*
G04 #@! TA.AperFunction,SMDPad,CuDef*
G36*
G01*
X84875000Y-70375000D02*
X86125000Y-70375000D01*
G75*
G02*
X86375000Y-70625000I0J-250000D01*
G01*
X86375000Y-71375000D01*
G75*
G02*
X86125000Y-71625000I-250000J0D01*
G01*
X84875000Y-71625000D01*
G75*
G02*
X84625000Y-71375000I0J250000D01*
G01*
X84625000Y-70625000D01*
G75*
G02*
X84875000Y-70375000I250000J0D01*
G01*
G37*
G04 #@! TD.AperFunction*
G04 #@! TO.P,D23,1*
G04 #@! TO.N,GND*
G04 #@! TA.AperFunction,SMDPad,CuDef*
G36*
G01*
X84875000Y-67575000D02*
X86125000Y-67575000D01*
G75*
G02*
X86375000Y-67825000I0J-250000D01*
G01*
X86375000Y-68575000D01*
G75*
G02*
X86125000Y-68825000I-250000J0D01*
G01*
X84875000Y-68825000D01*
G75*
G02*
X84625000Y-68575000I0J250000D01*
G01*
X84625000Y-67825000D01*
G75*
G02*
X84875000Y-67575000I250000J0D01*
G01*
G37*
G04 #@! TD.AperFunction*
G04 #@! TD*
G04 #@! TO.P,D22,2*
G04 #@! TO.N,Net-(D22-Pad2)*
G04 #@! TA.AperFunction,SMDPad,CuDef*
G36*
G01*
X82375000Y-70375000D02*
X83625000Y-70375000D01*
G75*
G02*
X83875000Y-70625000I0J-250000D01*
G01*
X83875000Y-71375000D01*
G75*
G02*
X83625000Y-71625000I-250000J0D01*
G01*
X82375000Y-71625000D01*
G75*
G02*
X82125000Y-71375000I0J250000D01*
G01*
X82125000Y-70625000D01*
G75*
G02*
X82375000Y-70375000I250000J0D01*
G01*
G37*
G04 #@! TD.AperFunction*
G04 #@! TO.P,D22,1*
G04 #@! TO.N,GND*
G04 #@! TA.AperFunction,SMDPad,CuDef*
G36*
G01*
X82375000Y-67575000D02*
X83625000Y-67575000D01*
G75*
G02*
X83875000Y-67825000I0J-250000D01*
G01*
X83875000Y-68575000D01*
G75*
G02*
X83625000Y-68825000I-250000J0D01*
G01*
X82375000Y-68825000D01*
G75*
G02*
X82125000Y-68575000I0J250000D01*
G01*
X82125000Y-67825000D01*
G75*
G02*
X82375000Y-67575000I250000J0D01*
G01*
G37*
G04 #@! TD.AperFunction*
G04 #@! TD*
G04 #@! TO.P,D21,2*
G04 #@! TO.N,Net-(D21-Pad2)*
G04 #@! TA.AperFunction,SMDPad,CuDef*
G36*
G01*
X79875000Y-70375000D02*
X81125000Y-70375000D01*
G75*
G02*
X81375000Y-70625000I0J-250000D01*
G01*
X81375000Y-71375000D01*
G75*
G02*
X81125000Y-71625000I-250000J0D01*
G01*
X79875000Y-71625000D01*
G75*
G02*
X79625000Y-71375000I0J250000D01*
G01*
X79625000Y-70625000D01*
G75*
G02*
X79875000Y-70375000I250000J0D01*
G01*
G37*
G04 #@! TD.AperFunction*
G04 #@! TO.P,D21,1*
G04 #@! TO.N,GND*
G04 #@! TA.AperFunction,SMDPad,CuDef*
G36*
G01*
X79875000Y-67575000D02*
X81125000Y-67575000D01*
G75*
G02*
X81375000Y-67825000I0J-250000D01*
G01*
X81375000Y-68575000D01*
G75*
G02*
X81125000Y-68825000I-250000J0D01*
G01*
X79875000Y-68825000D01*
G75*
G02*
X79625000Y-68575000I0J250000D01*
G01*
X79625000Y-67825000D01*
G75*
G02*
X79875000Y-67575000I250000J0D01*
G01*
G37*
G04 #@! TD.AperFunction*
G04 #@! TD*
G04 #@! TO.P,D20,2*
G04 #@! TO.N,Net-(D20-Pad2)*
G04 #@! TA.AperFunction,SMDPad,CuDef*
G36*
G01*
X77375000Y-70375000D02*
X78625000Y-70375000D01*
G75*
G02*
X78875000Y-70625000I0J-250000D01*
G01*
X78875000Y-71375000D01*
G75*
G02*
X78625000Y-71625000I-250000J0D01*
G01*
X77375000Y-71625000D01*
G75*
G02*
X77125000Y-71375000I0J250000D01*
G01*
X77125000Y-70625000D01*
G75*
G02*
X77375000Y-70375000I250000J0D01*
G01*
G37*
G04 #@! TD.AperFunction*
G04 #@! TO.P,D20,1*
G04 #@! TO.N,GND*
G04 #@! TA.AperFunction,SMDPad,CuDef*
G36*
G01*
X77375000Y-67575000D02*
X78625000Y-67575000D01*
G75*
G02*
X78875000Y-67825000I0J-250000D01*
G01*
X78875000Y-68575000D01*
G75*
G02*
X78625000Y-68825000I-250000J0D01*
G01*
X77375000Y-68825000D01*
G75*
G02*
X77125000Y-68575000I0J250000D01*
G01*
X77125000Y-67825000D01*
G75*
G02*
X77375000Y-67575000I250000J0D01*
G01*
G37*
G04 #@! TD.AperFunction*
G04 #@! TD*
G04 #@! TO.P,D19,2*
G04 #@! TO.N,Net-(D19-Pad2)*
G04 #@! TA.AperFunction,SMDPad,CuDef*
G36*
G01*
X74875000Y-70375000D02*
X76125000Y-70375000D01*
G75*
G02*
X76375000Y-70625000I0J-250000D01*
G01*
X76375000Y-71375000D01*
G75*
G02*
X76125000Y-71625000I-250000J0D01*
G01*
X74875000Y-71625000D01*
G75*
G02*
X74625000Y-71375000I0J250000D01*
G01*
X74625000Y-70625000D01*
G75*
G02*
X74875000Y-70375000I250000J0D01*
G01*
G37*
G04 #@! TD.AperFunction*
G04 #@! TO.P,D19,1*
G04 #@! TO.N,GND*
G04 #@! TA.AperFunction,SMDPad,CuDef*
G36*
G01*
X74875000Y-67575000D02*
X76125000Y-67575000D01*
G75*
G02*
X76375000Y-67825000I0J-250000D01*
G01*
X76375000Y-68575000D01*
G75*
G02*
X76125000Y-68825000I-250000J0D01*
G01*
X74875000Y-68825000D01*
G75*
G02*
X74625000Y-68575000I0J250000D01*
G01*
X74625000Y-67825000D01*
G75*
G02*
X74875000Y-67575000I250000J0D01*
G01*
G37*
G04 #@! TD.AperFunction*
G04 #@! TD*
G04 #@! TO.P,D18,2*
G04 #@! TO.N,Net-(D18-Pad2)*
G04 #@! TA.AperFunction,SMDPad,CuDef*
G36*
G01*
X72375000Y-70375000D02*
X73625000Y-70375000D01*
G75*
G02*
X73875000Y-70625000I0J-250000D01*
G01*
X73875000Y-71375000D01*
G75*
G02*
X73625000Y-71625000I-250000J0D01*
G01*
X72375000Y-71625000D01*
G75*
G02*
X72125000Y-71375000I0J250000D01*
G01*
X72125000Y-70625000D01*
G75*
G02*
X72375000Y-70375000I250000J0D01*
G01*
G37*
G04 #@! TD.AperFunction*
G04 #@! TO.P,D18,1*
G04 #@! TO.N,GND*
G04 #@! TA.AperFunction,SMDPad,CuDef*
G36*
G01*
X72375000Y-67575000D02*
X73625000Y-67575000D01*
G75*
G02*
X73875000Y-67825000I0J-250000D01*
G01*
X73875000Y-68575000D01*
G75*
G02*
X73625000Y-68825000I-250000J0D01*
G01*
X72375000Y-68825000D01*
G75*
G02*
X72125000Y-68575000I0J250000D01*
G01*
X72125000Y-67825000D01*
G75*
G02*
X72375000Y-67575000I250000J0D01*
G01*
G37*
G04 #@! TD.AperFunction*
G04 #@! TD*
G04 #@! TO.P,D17,2*
G04 #@! TO.N,Net-(D17-Pad2)*
G04 #@! TA.AperFunction,SMDPad,CuDef*
G36*
G01*
X69875000Y-70375000D02*
X71125000Y-70375000D01*
G75*
G02*
X71375000Y-70625000I0J-250000D01*
G01*
X71375000Y-71375000D01*
G75*
G02*
X71125000Y-71625000I-250000J0D01*
G01*
X69875000Y-71625000D01*
G75*
G02*
X69625000Y-71375000I0J250000D01*
G01*
X69625000Y-70625000D01*
G75*
G02*
X69875000Y-70375000I250000J0D01*
G01*
G37*
G04 #@! TD.AperFunction*
G04 #@! TO.P,D17,1*
G04 #@! TO.N,GND*
G04 #@! TA.AperFunction,SMDPad,CuDef*
G36*
G01*
X69875000Y-67575000D02*
X71125000Y-67575000D01*
G75*
G02*
X71375000Y-67825000I0J-250000D01*
G01*
X71375000Y-68575000D01*
G75*
G02*
X71125000Y-68825000I-250000J0D01*
G01*
X69875000Y-68825000D01*
G75*
G02*
X69625000Y-68575000I0J250000D01*
G01*
X69625000Y-67825000D01*
G75*
G02*
X69875000Y-67575000I250000J0D01*
G01*
G37*
G04 #@! TD.AperFunction*
G04 #@! TD*
G04 #@! TO.P,D16,2*
G04 #@! TO.N,Net-(D16-Pad2)*
G04 #@! TA.AperFunction,SMDPad,CuDef*
G36*
G01*
X67375000Y-70375000D02*
X68625000Y-70375000D01*
G75*
G02*
X68875000Y-70625000I0J-250000D01*
G01*
X68875000Y-71375000D01*
G75*
G02*
X68625000Y-71625000I-250000J0D01*
G01*
X67375000Y-71625000D01*
G75*
G02*
X67125000Y-71375000I0J250000D01*
G01*
X67125000Y-70625000D01*
G75*
G02*
X67375000Y-70375000I250000J0D01*
G01*
G37*
G04 #@! TD.AperFunction*
G04 #@! TO.P,D16,1*
G04 #@! TO.N,GND*
G04 #@! TA.AperFunction,SMDPad,CuDef*
G36*
G01*
X67375000Y-67575000D02*
X68625000Y-67575000D01*
G75*
G02*
X68875000Y-67825000I0J-250000D01*
G01*
X68875000Y-68575000D01*
G75*
G02*
X68625000Y-68825000I-250000J0D01*
G01*
X67375000Y-68825000D01*
G75*
G02*
X67125000Y-68575000I0J250000D01*
G01*
X67125000Y-67825000D01*
G75*
G02*
X67375000Y-67575000I250000J0D01*
G01*
G37*
G04 #@! TD.AperFunction*
G04 #@! TD*
G04 #@! TO.P,D15,2*
G04 #@! TO.N,Net-(D15-Pad2)*
G04 #@! TA.AperFunction,SMDPad,CuDef*
G36*
G01*
X64875000Y-70375000D02*
X66125000Y-70375000D01*
G75*
G02*
X66375000Y-70625000I0J-250000D01*
G01*
X66375000Y-71375000D01*
G75*
G02*
X66125000Y-71625000I-250000J0D01*
G01*
X64875000Y-71625000D01*
G75*
G02*
X64625000Y-71375000I0J250000D01*
G01*
X64625000Y-70625000D01*
G75*
G02*
X64875000Y-70375000I250000J0D01*
G01*
G37*
G04 #@! TD.AperFunction*
G04 #@! TO.P,D15,1*
G04 #@! TO.N,GND*
G04 #@! TA.AperFunction,SMDPad,CuDef*
G36*
G01*
X64875000Y-67575000D02*
X66125000Y-67575000D01*
G75*
G02*
X66375000Y-67825000I0J-250000D01*
G01*
X66375000Y-68575000D01*
G75*
G02*
X66125000Y-68825000I-250000J0D01*
G01*
X64875000Y-68825000D01*
G75*
G02*
X64625000Y-68575000I0J250000D01*
G01*
X64625000Y-67825000D01*
G75*
G02*
X64875000Y-67575000I250000J0D01*
G01*
G37*
G04 #@! TD.AperFunction*
G04 #@! TD*
G04 #@! TO.P,D14,2*
G04 #@! TO.N,Net-(D14-Pad2)*
G04 #@! TA.AperFunction,SMDPad,CuDef*
G36*
G01*
X62375000Y-70375000D02*
X63625000Y-70375000D01*
G75*
G02*
X63875000Y-70625000I0J-250000D01*
G01*
X63875000Y-71375000D01*
G75*
G02*
X63625000Y-71625000I-250000J0D01*
G01*
X62375000Y-71625000D01*
G75*
G02*
X62125000Y-71375000I0J250000D01*
G01*
X62125000Y-70625000D01*
G75*
G02*
X62375000Y-70375000I250000J0D01*
G01*
G37*
G04 #@! TD.AperFunction*
G04 #@! TO.P,D14,1*
G04 #@! TO.N,GND*
G04 #@! TA.AperFunction,SMDPad,CuDef*
G36*
G01*
X62375000Y-67575000D02*
X63625000Y-67575000D01*
G75*
G02*
X63875000Y-67825000I0J-250000D01*
G01*
X63875000Y-68575000D01*
G75*
G02*
X63625000Y-68825000I-250000J0D01*
G01*
X62375000Y-68825000D01*
G75*
G02*
X62125000Y-68575000I0J250000D01*
G01*
X62125000Y-67825000D01*
G75*
G02*
X62375000Y-67575000I250000J0D01*
G01*
G37*
G04 #@! TD.AperFunction*
G04 #@! TD*
G04 #@! TO.P,D13,2*
G04 #@! TO.N,Net-(D13-Pad2)*
G04 #@! TA.AperFunction,SMDPad,CuDef*
G36*
G01*
X59875000Y-70375000D02*
X61125000Y-70375000D01*
G75*
G02*
X61375000Y-70625000I0J-250000D01*
G01*
X61375000Y-71375000D01*
G75*
G02*
X61125000Y-71625000I-250000J0D01*
G01*
X59875000Y-71625000D01*
G75*
G02*
X59625000Y-71375000I0J250000D01*
G01*
X59625000Y-70625000D01*
G75*
G02*
X59875000Y-70375000I250000J0D01*
G01*
G37*
G04 #@! TD.AperFunction*
G04 #@! TO.P,D13,1*
G04 #@! TO.N,GND*
G04 #@! TA.AperFunction,SMDPad,CuDef*
G36*
G01*
X59875000Y-67575000D02*
X61125000Y-67575000D01*
G75*
G02*
X61375000Y-67825000I0J-250000D01*
G01*
X61375000Y-68575000D01*
G75*
G02*
X61125000Y-68825000I-250000J0D01*
G01*
X59875000Y-68825000D01*
G75*
G02*
X59625000Y-68575000I0J250000D01*
G01*
X59625000Y-67825000D01*
G75*
G02*
X59875000Y-67575000I250000J0D01*
G01*
G37*
G04 #@! TD.AperFunction*
G04 #@! TD*
G04 #@! TO.P,D12,2*
G04 #@! TO.N,Net-(D12-Pad2)*
G04 #@! TA.AperFunction,SMDPad,CuDef*
G36*
G01*
X57375000Y-70375000D02*
X58625000Y-70375000D01*
G75*
G02*
X58875000Y-70625000I0J-250000D01*
G01*
X58875000Y-71375000D01*
G75*
G02*
X58625000Y-71625000I-250000J0D01*
G01*
X57375000Y-71625000D01*
G75*
G02*
X57125000Y-71375000I0J250000D01*
G01*
X57125000Y-70625000D01*
G75*
G02*
X57375000Y-70375000I250000J0D01*
G01*
G37*
G04 #@! TD.AperFunction*
G04 #@! TO.P,D12,1*
G04 #@! TO.N,GND*
G04 #@! TA.AperFunction,SMDPad,CuDef*
G36*
G01*
X57375000Y-67575000D02*
X58625000Y-67575000D01*
G75*
G02*
X58875000Y-67825000I0J-250000D01*
G01*
X58875000Y-68575000D01*
G75*
G02*
X58625000Y-68825000I-250000J0D01*
G01*
X57375000Y-68825000D01*
G75*
G02*
X57125000Y-68575000I0J250000D01*
G01*
X57125000Y-67825000D01*
G75*
G02*
X57375000Y-67575000I250000J0D01*
G01*
G37*
G04 #@! TD.AperFunction*
G04 #@! TD*
G04 #@! TO.P,D11,2*
G04 #@! TO.N,Net-(D11-Pad2)*
G04 #@! TA.AperFunction,SMDPad,CuDef*
G36*
G01*
X54875000Y-70375000D02*
X56125000Y-70375000D01*
G75*
G02*
X56375000Y-70625000I0J-250000D01*
G01*
X56375000Y-71375000D01*
G75*
G02*
X56125000Y-71625000I-250000J0D01*
G01*
X54875000Y-71625000D01*
G75*
G02*
X54625000Y-71375000I0J250000D01*
G01*
X54625000Y-70625000D01*
G75*
G02*
X54875000Y-70375000I250000J0D01*
G01*
G37*
G04 #@! TD.AperFunction*
G04 #@! TO.P,D11,1*
G04 #@! TO.N,GND*
G04 #@! TA.AperFunction,SMDPad,CuDef*
G36*
G01*
X54875000Y-67575000D02*
X56125000Y-67575000D01*
G75*
G02*
X56375000Y-67825000I0J-250000D01*
G01*
X56375000Y-68575000D01*
G75*
G02*
X56125000Y-68825000I-250000J0D01*
G01*
X54875000Y-68825000D01*
G75*
G02*
X54625000Y-68575000I0J250000D01*
G01*
X54625000Y-67825000D01*
G75*
G02*
X54875000Y-67575000I250000J0D01*
G01*
G37*
G04 #@! TD.AperFunction*
G04 #@! TD*
G04 #@! TO.P,D10,2*
G04 #@! TO.N,Net-(D10-Pad2)*
G04 #@! TA.AperFunction,SMDPad,CuDef*
G36*
G01*
X52375000Y-70375000D02*
X53625000Y-70375000D01*
G75*
G02*
X53875000Y-70625000I0J-250000D01*
G01*
X53875000Y-71375000D01*
G75*
G02*
X53625000Y-71625000I-250000J0D01*
G01*
X52375000Y-71625000D01*
G75*
G02*
X52125000Y-71375000I0J250000D01*
G01*
X52125000Y-70625000D01*
G75*
G02*
X52375000Y-70375000I250000J0D01*
G01*
G37*
G04 #@! TD.AperFunction*
G04 #@! TO.P,D10,1*
G04 #@! TO.N,GND*
G04 #@! TA.AperFunction,SMDPad,CuDef*
G36*
G01*
X52375000Y-67575000D02*
X53625000Y-67575000D01*
G75*
G02*
X53875000Y-67825000I0J-250000D01*
G01*
X53875000Y-68575000D01*
G75*
G02*
X53625000Y-68825000I-250000J0D01*
G01*
X52375000Y-68825000D01*
G75*
G02*
X52125000Y-68575000I0J250000D01*
G01*
X52125000Y-67825000D01*
G75*
G02*
X52375000Y-67575000I250000J0D01*
G01*
G37*
G04 #@! TD.AperFunction*
G04 #@! TD*
G04 #@! TO.P,D9,2*
G04 #@! TO.N,Net-(D9-Pad2)*
G04 #@! TA.AperFunction,SMDPad,CuDef*
G36*
G01*
X49875000Y-70375000D02*
X51125000Y-70375000D01*
G75*
G02*
X51375000Y-70625000I0J-250000D01*
G01*
X51375000Y-71375000D01*
G75*
G02*
X51125000Y-71625000I-250000J0D01*
G01*
X49875000Y-71625000D01*
G75*
G02*
X49625000Y-71375000I0J250000D01*
G01*
X49625000Y-70625000D01*
G75*
G02*
X49875000Y-70375000I250000J0D01*
G01*
G37*
G04 #@! TD.AperFunction*
G04 #@! TO.P,D9,1*
G04 #@! TO.N,GND*
G04 #@! TA.AperFunction,SMDPad,CuDef*
G36*
G01*
X49875000Y-67575000D02*
X51125000Y-67575000D01*
G75*
G02*
X51375000Y-67825000I0J-250000D01*
G01*
X51375000Y-68575000D01*
G75*
G02*
X51125000Y-68825000I-250000J0D01*
G01*
X49875000Y-68825000D01*
G75*
G02*
X49625000Y-68575000I0J250000D01*
G01*
X49625000Y-67825000D01*
G75*
G02*
X49875000Y-67575000I250000J0D01*
G01*
G37*
G04 #@! TD.AperFunction*
G04 #@! TD*
G04 #@! TO.P,D8,2*
G04 #@! TO.N,Net-(D8-Pad2)*
G04 #@! TA.AperFunction,SMDPad,CuDef*
G36*
G01*
X47375000Y-70375000D02*
X48625000Y-70375000D01*
G75*
G02*
X48875000Y-70625000I0J-250000D01*
G01*
X48875000Y-71375000D01*
G75*
G02*
X48625000Y-71625000I-250000J0D01*
G01*
X47375000Y-71625000D01*
G75*
G02*
X47125000Y-71375000I0J250000D01*
G01*
X47125000Y-70625000D01*
G75*
G02*
X47375000Y-70375000I250000J0D01*
G01*
G37*
G04 #@! TD.AperFunction*
G04 #@! TO.P,D8,1*
G04 #@! TO.N,GND*
G04 #@! TA.AperFunction,SMDPad,CuDef*
G36*
G01*
X47375000Y-67575000D02*
X48625000Y-67575000D01*
G75*
G02*
X48875000Y-67825000I0J-250000D01*
G01*
X48875000Y-68575000D01*
G75*
G02*
X48625000Y-68825000I-250000J0D01*
G01*
X47375000Y-68825000D01*
G75*
G02*
X47125000Y-68575000I0J250000D01*
G01*
X47125000Y-67825000D01*
G75*
G02*
X47375000Y-67575000I250000J0D01*
G01*
G37*
G04 #@! TD.AperFunction*
G04 #@! TD*
G04 #@! TO.P,D7,2*
G04 #@! TO.N,Net-(D7-Pad2)*
G04 #@! TA.AperFunction,SMDPad,CuDef*
G36*
G01*
X44875000Y-70375000D02*
X46125000Y-70375000D01*
G75*
G02*
X46375000Y-70625000I0J-250000D01*
G01*
X46375000Y-71375000D01*
G75*
G02*
X46125000Y-71625000I-250000J0D01*
G01*
X44875000Y-71625000D01*
G75*
G02*
X44625000Y-71375000I0J250000D01*
G01*
X44625000Y-70625000D01*
G75*
G02*
X44875000Y-70375000I250000J0D01*
G01*
G37*
G04 #@! TD.AperFunction*
G04 #@! TO.P,D7,1*
G04 #@! TO.N,GND*
G04 #@! TA.AperFunction,SMDPad,CuDef*
G36*
G01*
X44875000Y-67575000D02*
X46125000Y-67575000D01*
G75*
G02*
X46375000Y-67825000I0J-250000D01*
G01*
X46375000Y-68575000D01*
G75*
G02*
X46125000Y-68825000I-250000J0D01*
G01*
X44875000Y-68825000D01*
G75*
G02*
X44625000Y-68575000I0J250000D01*
G01*
X44625000Y-67825000D01*
G75*
G02*
X44875000Y-67575000I250000J0D01*
G01*
G37*
G04 #@! TD.AperFunction*
G04 #@! TD*
G04 #@! TO.P,D6,2*
G04 #@! TO.N,Net-(D6-Pad2)*
G04 #@! TA.AperFunction,SMDPad,CuDef*
G36*
G01*
X42375000Y-70375000D02*
X43625000Y-70375000D01*
G75*
G02*
X43875000Y-70625000I0J-250000D01*
G01*
X43875000Y-71375000D01*
G75*
G02*
X43625000Y-71625000I-250000J0D01*
G01*
X42375000Y-71625000D01*
G75*
G02*
X42125000Y-71375000I0J250000D01*
G01*
X42125000Y-70625000D01*
G75*
G02*
X42375000Y-70375000I250000J0D01*
G01*
G37*
G04 #@! TD.AperFunction*
G04 #@! TO.P,D6,1*
G04 #@! TO.N,GND*
G04 #@! TA.AperFunction,SMDPad,CuDef*
G36*
G01*
X42375000Y-67575000D02*
X43625000Y-67575000D01*
G75*
G02*
X43875000Y-67825000I0J-250000D01*
G01*
X43875000Y-68575000D01*
G75*
G02*
X43625000Y-68825000I-250000J0D01*
G01*
X42375000Y-68825000D01*
G75*
G02*
X42125000Y-68575000I0J250000D01*
G01*
X42125000Y-67825000D01*
G75*
G02*
X42375000Y-67575000I250000J0D01*
G01*
G37*
G04 #@! TD.AperFunction*
G04 #@! TD*
G04 #@! TO.P,D5,2*
G04 #@! TO.N,Net-(D5-Pad2)*
G04 #@! TA.AperFunction,SMDPad,CuDef*
G36*
G01*
X39875000Y-70375000D02*
X41125000Y-70375000D01*
G75*
G02*
X41375000Y-70625000I0J-250000D01*
G01*
X41375000Y-71375000D01*
G75*
G02*
X41125000Y-71625000I-250000J0D01*
G01*
X39875000Y-71625000D01*
G75*
G02*
X39625000Y-71375000I0J250000D01*
G01*
X39625000Y-70625000D01*
G75*
G02*
X39875000Y-70375000I250000J0D01*
G01*
G37*
G04 #@! TD.AperFunction*
G04 #@! TO.P,D5,1*
G04 #@! TO.N,GND*
G04 #@! TA.AperFunction,SMDPad,CuDef*
G36*
G01*
X39875000Y-67575000D02*
X41125000Y-67575000D01*
G75*
G02*
X41375000Y-67825000I0J-250000D01*
G01*
X41375000Y-68575000D01*
G75*
G02*
X41125000Y-68825000I-250000J0D01*
G01*
X39875000Y-68825000D01*
G75*
G02*
X39625000Y-68575000I0J250000D01*
G01*
X39625000Y-67825000D01*
G75*
G02*
X39875000Y-67575000I250000J0D01*
G01*
G37*
G04 #@! TD.AperFunction*
G04 #@! TD*
G04 #@! TO.P,D4,2*
G04 #@! TO.N,Net-(D4-Pad2)*
G04 #@! TA.AperFunction,SMDPad,CuDef*
G36*
G01*
X37375000Y-70375000D02*
X38625000Y-70375000D01*
G75*
G02*
X38875000Y-70625000I0J-250000D01*
G01*
X38875000Y-71375000D01*
G75*
G02*
X38625000Y-71625000I-250000J0D01*
G01*
X37375000Y-71625000D01*
G75*
G02*
X37125000Y-71375000I0J250000D01*
G01*
X37125000Y-70625000D01*
G75*
G02*
X37375000Y-70375000I250000J0D01*
G01*
G37*
G04 #@! TD.AperFunction*
G04 #@! TO.P,D4,1*
G04 #@! TO.N,GND*
G04 #@! TA.AperFunction,SMDPad,CuDef*
G36*
G01*
X37375000Y-67575000D02*
X38625000Y-67575000D01*
G75*
G02*
X38875000Y-67825000I0J-250000D01*
G01*
X38875000Y-68575000D01*
G75*
G02*
X38625000Y-68825000I-250000J0D01*
G01*
X37375000Y-68825000D01*
G75*
G02*
X37125000Y-68575000I0J250000D01*
G01*
X37125000Y-67825000D01*
G75*
G02*
X37375000Y-67575000I250000J0D01*
G01*
G37*
G04 #@! TD.AperFunction*
G04 #@! TD*
G04 #@! TO.P,D3,2*
G04 #@! TO.N,Net-(D3-Pad2)*
G04 #@! TA.AperFunction,SMDPad,CuDef*
G36*
G01*
X34875000Y-70375000D02*
X36125000Y-70375000D01*
G75*
G02*
X36375000Y-70625000I0J-250000D01*
G01*
X36375000Y-71375000D01*
G75*
G02*
X36125000Y-71625000I-250000J0D01*
G01*
X34875000Y-71625000D01*
G75*
G02*
X34625000Y-71375000I0J250000D01*
G01*
X34625000Y-70625000D01*
G75*
G02*
X34875000Y-70375000I250000J0D01*
G01*
G37*
G04 #@! TD.AperFunction*
G04 #@! TO.P,D3,1*
G04 #@! TO.N,GND*
G04 #@! TA.AperFunction,SMDPad,CuDef*
G36*
G01*
X34875000Y-67575000D02*
X36125000Y-67575000D01*
G75*
G02*
X36375000Y-67825000I0J-250000D01*
G01*
X36375000Y-68575000D01*
G75*
G02*
X36125000Y-68825000I-250000J0D01*
G01*
X34875000Y-68825000D01*
G75*
G02*
X34625000Y-68575000I0J250000D01*
G01*
X34625000Y-67825000D01*
G75*
G02*
X34875000Y-67575000I250000J0D01*
G01*
G37*
G04 #@! TD.AperFunction*
G04 #@! TD*
G04 #@! TO.P,D2,2*
G04 #@! TO.N,Net-(D2-Pad2)*
G04 #@! TA.AperFunction,SMDPad,CuDef*
G36*
G01*
X32375000Y-70375000D02*
X33625000Y-70375000D01*
G75*
G02*
X33875000Y-70625000I0J-250000D01*
G01*
X33875000Y-71375000D01*
G75*
G02*
X33625000Y-71625000I-250000J0D01*
G01*
X32375000Y-71625000D01*
G75*
G02*
X32125000Y-71375000I0J250000D01*
G01*
X32125000Y-70625000D01*
G75*
G02*
X32375000Y-70375000I250000J0D01*
G01*
G37*
G04 #@! TD.AperFunction*
G04 #@! TO.P,D2,1*
G04 #@! TO.N,GND*
G04 #@! TA.AperFunction,SMDPad,CuDef*
G36*
G01*
X32375000Y-67575000D02*
X33625000Y-67575000D01*
G75*
G02*
X33875000Y-67825000I0J-250000D01*
G01*
X33875000Y-68575000D01*
G75*
G02*
X33625000Y-68825000I-250000J0D01*
G01*
X32375000Y-68825000D01*
G75*
G02*
X32125000Y-68575000I0J250000D01*
G01*
X32125000Y-67825000D01*
G75*
G02*
X32375000Y-67575000I250000J0D01*
G01*
G37*
G04 #@! TD.AperFunction*
G04 #@! TD*
G04 #@! TO.P,D1,2*
G04 #@! TO.N,Net-(D1-Pad2)*
G04 #@! TA.AperFunction,SMDPad,CuDef*
G36*
G01*
X29875000Y-70375000D02*
X31125000Y-70375000D01*
G75*
G02*
X31375000Y-70625000I0J-250000D01*
G01*
X31375000Y-71375000D01*
G75*
G02*
X31125000Y-71625000I-250000J0D01*
G01*
X29875000Y-71625000D01*
G75*
G02*
X29625000Y-71375000I0J250000D01*
G01*
X29625000Y-70625000D01*
G75*
G02*
X29875000Y-70375000I250000J0D01*
G01*
G37*
G04 #@! TD.AperFunction*
G04 #@! TO.P,D1,1*
G04 #@! TO.N,GND*
G04 #@! TA.AperFunction,SMDPad,CuDef*
G36*
G01*
X29875000Y-67575000D02*
X31125000Y-67575000D01*
G75*
G02*
X31375000Y-67825000I0J-250000D01*
G01*
X31375000Y-68575000D01*
G75*
G02*
X31125000Y-68825000I-250000J0D01*
G01*
X29875000Y-68825000D01*
G75*
G02*
X29625000Y-68575000I0J250000D01*
G01*
X29625000Y-67825000D01*
G75*
G02*
X29875000Y-67575000I250000J0D01*
G01*
G37*
G04 #@! TD.AperFunction*
G04 #@! TD*
D17*
G04 #@! TO.N,Net-(J1-Pad3)*
X67500000Y-94000000D03*
X112500000Y-94000000D03*
G04 #@! TO.N,Net-(J1-Pad2)*
X69000000Y-93000000D03*
X100500000Y-88500000D03*
G04 #@! TO.N,VCC*
X51500000Y-96500000D03*
X116500000Y-97595000D03*
X62000000Y-106000000D03*
G04 #@! TO.N,Net-(J2-Pad8)*
X62000000Y-99000000D03*
G04 #@! TO.N,Net-(J2-Pad7)*
X61000000Y-100500000D03*
G04 #@! TO.N,Net-(J2-Pad6)*
X61000014Y-103000000D03*
G04 #@! TO.N,Net-(J3-Pad8)*
X42500000Y-107500000D03*
X34500000Y-91000000D03*
G04 #@! TO.N,Net-(J3-Pad7)*
X41500000Y-106500000D03*
X33500000Y-92000000D03*
G04 #@! TO.N,Net-(J3-Pad6)*
X40500000Y-105000000D03*
X32000000Y-92500000D03*
G04 #@! TO.N,Net-(J3-Pad5)*
X30500000Y-93000000D03*
X39500000Y-104000000D03*
G04 #@! TO.N,Net-(J4-Pad8)*
X110000000Y-99000000D03*
G04 #@! TO.N,Net-(J4-Pad7)*
X109000000Y-100000000D03*
G04 #@! TO.N,Net-(J4-Pad6)*
X107905000Y-101405000D03*
G04 #@! TO.N,Net-(J4-Pad5)*
X107000000Y-103000000D03*
G04 #@! TO.N,Net-(J4-Pad4)*
X106000000Y-104000000D03*
G04 #@! TO.N,Net-(J4-Pad3)*
X105000000Y-105000000D03*
G04 #@! TO.N,Net-(J4-Pad2)*
X104000000Y-106000000D03*
G04 #@! TO.N,Net-(J4-Pad1)*
X103000000Y-107500000D03*
G04 #@! TD*
D18*
G04 #@! TO.N,Net-(D1-Pad2)*
X30500000Y-75500000D02*
X30500000Y-71000000D01*
G04 #@! TO.N,GND*
X108000000Y-68200000D02*
X105500000Y-68200000D01*
X105500000Y-68200000D02*
X103000000Y-68200000D01*
X103000000Y-68200000D02*
X100500000Y-68200000D01*
X100500000Y-68200000D02*
X98000000Y-68200000D01*
X98000000Y-68200000D02*
X95500000Y-68200000D01*
X95500000Y-68200000D02*
X93000000Y-68200000D01*
X93000000Y-68200000D02*
X90500000Y-68200000D01*
X90500000Y-68200000D02*
X88000000Y-68200000D01*
X88000000Y-68200000D02*
X85500000Y-68200000D01*
X85500000Y-68200000D02*
X83000000Y-68200000D01*
X83000000Y-68200000D02*
X80500000Y-68200000D01*
X80500000Y-68200000D02*
X78000000Y-68200000D01*
X78000000Y-68200000D02*
X75500000Y-68200000D01*
X75500000Y-68200000D02*
X73000000Y-68200000D01*
X73000000Y-68200000D02*
X70500000Y-68200000D01*
X70500000Y-68200000D02*
X68000000Y-68200000D01*
X68000000Y-68200000D02*
X65500000Y-68200000D01*
X65500000Y-68200000D02*
X30500000Y-68200000D01*
X44500000Y-84500000D02*
X44500000Y-86000000D01*
X44500000Y-86000000D02*
X46500000Y-88000000D01*
X46500000Y-90395000D02*
X47350000Y-91245000D01*
X46500000Y-88000000D02*
X46500000Y-90395000D01*
X47350000Y-91245000D02*
X47350000Y-92515000D01*
X47350000Y-92515000D02*
X47350000Y-93785000D01*
X64380000Y-110000000D02*
X64380000Y-97880000D01*
X62825000Y-96325000D02*
X56650000Y-96325000D01*
X64380000Y-97880000D02*
X62825000Y-96325000D01*
X29000000Y-100500000D02*
X29000000Y-103500000D01*
X29000000Y-103500000D02*
X30500000Y-105000000D01*
X30500000Y-105000000D02*
X37000000Y-105000000D01*
X37000000Y-105000000D02*
X40500000Y-108500000D01*
X40500000Y-108500000D02*
X40500000Y-109500000D01*
X41000000Y-110000000D02*
X64380000Y-110000000D01*
X40500000Y-109500000D02*
X41000000Y-110000000D01*
X108000000Y-68200000D02*
X115700000Y-68200000D01*
X116820000Y-69320000D02*
X116820000Y-84500000D01*
X115700000Y-68200000D02*
X116820000Y-69320000D01*
X99650000Y-96325000D02*
X115675000Y-96325000D01*
X116820000Y-95180000D02*
X116820000Y-84500000D01*
X115675000Y-96325000D02*
X116820000Y-95180000D01*
X90350000Y-93785000D02*
X90350000Y-92515000D01*
X90350000Y-92515000D02*
X83015000Y-92515000D01*
X76215001Y-85715001D02*
X76215001Y-83935999D01*
X83015000Y-92515000D02*
X76215001Y-85715001D01*
X76215001Y-83935999D02*
X74500000Y-82220998D01*
X74200010Y-78950700D02*
X74200010Y-77700010D01*
X74500000Y-79250690D02*
X74200010Y-78950700D01*
X74500000Y-82220998D02*
X74500000Y-79250690D01*
X74200010Y-77700010D02*
X73500000Y-77000000D01*
X69200010Y-84119990D02*
X68820000Y-84500000D01*
X69200010Y-78049300D02*
X69200010Y-84119990D01*
X70249310Y-77000000D02*
X69200010Y-78049300D01*
X73500000Y-77000000D02*
X70249310Y-77000000D01*
G04 #@! TO.N,Net-(D2-Pad2)*
X33000000Y-75500000D02*
X33000000Y-71000000D01*
G04 #@! TO.N,Net-(D3-Pad2)*
X35500000Y-75537500D02*
X35500000Y-71000000D01*
G04 #@! TO.N,Net-(D4-Pad2)*
X38000000Y-75537500D02*
X38000000Y-71000000D01*
G04 #@! TO.N,Net-(D5-Pad2)*
X40500000Y-75500000D02*
X40500000Y-71000000D01*
G04 #@! TO.N,Net-(D6-Pad2)*
X43000000Y-75500000D02*
X43000000Y-71000000D01*
G04 #@! TO.N,Net-(D7-Pad2)*
X45500000Y-75500000D02*
X45500000Y-71000000D01*
G04 #@! TO.N,Net-(D8-Pad2)*
X48000000Y-75500000D02*
X48000000Y-71000000D01*
G04 #@! TO.N,Net-(D9-Pad2)*
X50500000Y-75500000D02*
X50500000Y-70500000D01*
G04 #@! TO.N,Net-(D10-Pad2)*
X53000000Y-75575000D02*
X53000000Y-71000000D01*
G04 #@! TO.N,Net-(D11-Pad2)*
X55500000Y-75575000D02*
X55500000Y-71000000D01*
G04 #@! TO.N,Net-(D12-Pad2)*
X58000000Y-75575000D02*
X58000000Y-71000000D01*
G04 #@! TO.N,Net-(D13-Pad2)*
X60500000Y-75575000D02*
X60500000Y-71000000D01*
G04 #@! TO.N,Net-(D14-Pad2)*
X63000000Y-75575000D02*
X63000000Y-71000000D01*
G04 #@! TO.N,Net-(D15-Pad2)*
X65500000Y-75575000D02*
X65500000Y-71000000D01*
G04 #@! TO.N,Net-(D16-Pad2)*
X68000000Y-75575000D02*
X68000000Y-71000000D01*
G04 #@! TO.N,Net-(D17-Pad2)*
X70500000Y-75575000D02*
X70500000Y-71000000D01*
G04 #@! TO.N,Net-(D18-Pad2)*
X73000000Y-75575000D02*
X73000000Y-71000000D01*
G04 #@! TO.N,Net-(D19-Pad2)*
X75500000Y-75575000D02*
X75500000Y-71000000D01*
G04 #@! TO.N,Net-(D20-Pad2)*
X78000000Y-75575000D02*
X78000000Y-71000000D01*
G04 #@! TO.N,Net-(D21-Pad2)*
X80500000Y-75575000D02*
X80500000Y-71000000D01*
G04 #@! TO.N,Net-(D22-Pad2)*
X83000000Y-75575000D02*
X83000000Y-71000000D01*
G04 #@! TO.N,Net-(D23-Pad2)*
X85500000Y-75575000D02*
X85500000Y-71000000D01*
G04 #@! TO.N,Net-(D24-Pad2)*
X88000000Y-75575000D02*
X88000000Y-71000000D01*
G04 #@! TO.N,Net-(D25-Pad2)*
X90500000Y-75575000D02*
X90500000Y-71000000D01*
G04 #@! TO.N,Net-(D26-Pad2)*
X93000000Y-75575000D02*
X93000000Y-71000000D01*
G04 #@! TO.N,Net-(D27-Pad2)*
X95500000Y-75575000D02*
X95500000Y-71000000D01*
G04 #@! TO.N,Net-(D28-Pad2)*
X98000000Y-75575000D02*
X98000000Y-71000000D01*
G04 #@! TO.N,Net-(D29-Pad2)*
X100500000Y-75575000D02*
X100500000Y-71000000D01*
G04 #@! TO.N,Net-(D30-Pad2)*
X103000000Y-75575000D02*
X103000000Y-71000000D01*
G04 #@! TO.N,Net-(D31-Pad2)*
X105500000Y-75575000D02*
X105500000Y-71000000D01*
G04 #@! TO.N,Net-(D32-Pad2)*
X108000000Y-75575000D02*
X108000000Y-71000000D01*
G04 #@! TO.N,Net-(J1-Pad3)*
X61136410Y-94000000D02*
X67500000Y-94000000D01*
X60921410Y-93785000D02*
X61136410Y-94000000D01*
X56650000Y-93785000D02*
X60921410Y-93785000D01*
X99650000Y-93785000D02*
X112285000Y-93785000D01*
X112285000Y-93785000D02*
X112500000Y-94000000D01*
G04 #@! TO.N,Net-(J1-Pad2)*
X60136410Y-93000000D02*
X69000000Y-93000000D01*
X59651410Y-92515000D02*
X60136410Y-93000000D01*
X56650000Y-92515000D02*
X59651410Y-92515000D01*
X100500000Y-88500000D02*
X102000000Y-90000000D01*
X102000000Y-90000000D02*
X102000000Y-92000000D01*
X101485000Y-92515000D02*
X99650000Y-92515000D01*
X102000000Y-92000000D02*
X101485000Y-92515000D01*
G04 #@! TO.N,VCC*
X39575000Y-95000000D02*
X36200000Y-95000000D01*
X39575000Y-95000000D02*
X40500000Y-94075000D01*
X46278242Y-94410010D02*
X50910010Y-94410010D01*
X41949320Y-93799990D02*
X45668222Y-93799990D01*
X45668222Y-93799990D02*
X46278242Y-94410010D01*
X41674310Y-94075000D02*
X41949320Y-93799990D01*
X40500000Y-94075000D02*
X41674310Y-94075000D01*
X51500000Y-95000000D02*
X51500000Y-96500000D01*
X50910010Y-94410010D02*
X51500000Y-95000000D01*
X56745000Y-97500000D02*
X56650000Y-97595000D01*
X71500000Y-109500000D02*
X72000000Y-110000000D01*
X90350000Y-91245000D02*
X93245000Y-91245000D01*
X93245000Y-91245000D02*
X93500000Y-91500000D01*
X93500000Y-91500000D02*
X93500000Y-100000000D01*
X92739990Y-100760010D02*
X71760010Y-100760010D01*
X93500000Y-100000000D02*
X92739990Y-100760010D01*
X71500000Y-100500000D02*
X71500000Y-109500000D01*
X71760010Y-100760010D02*
X71500000Y-100500000D01*
X71500000Y-95000000D02*
X71500000Y-100500000D01*
X111405000Y-97595000D02*
X116500000Y-97595000D01*
X99650000Y-97595000D02*
X111405000Y-97595000D01*
X63000000Y-98000000D02*
X63000000Y-105000000D01*
X62595000Y-97595000D02*
X63000000Y-98000000D01*
X63000000Y-105000000D02*
X62000000Y-106000000D01*
X56650000Y-97595000D02*
X62595000Y-97595000D01*
G04 #@! TO.N,Net-(J2-Pad8)*
X66280000Y-84500000D02*
X66280000Y-83220000D01*
X68000000Y-81500000D02*
X68000000Y-78500000D01*
X66280000Y-83220000D02*
X68000000Y-81500000D01*
X61865000Y-98865000D02*
X62000000Y-99000000D01*
X56650000Y-98865000D02*
X61865000Y-98865000D01*
G04 #@! TO.N,Net-(J2-Pad7)*
X63740000Y-84500000D02*
X63740000Y-82760000D01*
X65500000Y-81000000D02*
X65500000Y-78500000D01*
X63740000Y-82760000D02*
X65500000Y-81000000D01*
X56785000Y-100000000D02*
X56650000Y-100135000D01*
X60635000Y-100135000D02*
X61000000Y-100500000D01*
X56650000Y-100135000D02*
X60635000Y-100135000D01*
G04 #@! TO.N,Net-(J2-Pad6)*
X63000000Y-78500000D02*
X63000000Y-80500000D01*
X61200000Y-82300000D02*
X61200000Y-84500000D01*
X63000000Y-80500000D02*
X61200000Y-82300000D01*
X56650000Y-101405000D02*
X59405014Y-101405000D01*
X59405014Y-101405000D02*
X61000014Y-103000000D01*
G04 #@! TO.N,Net-(J2-Pad5)*
X56650000Y-102675000D02*
X55675000Y-102675000D01*
X55299990Y-102299990D02*
X55299990Y-89700010D01*
X55675000Y-102675000D02*
X55299990Y-102299990D01*
X55299990Y-89700010D02*
X56000000Y-89000000D01*
X56000000Y-89000000D02*
X57500000Y-89000000D01*
X58660000Y-87840000D02*
X58660000Y-84500000D01*
X57500000Y-89000000D02*
X58660000Y-87840000D01*
X58660000Y-84500000D02*
X58660000Y-82340000D01*
X60500000Y-80500000D02*
X60500000Y-78500000D01*
X58660000Y-82340000D02*
X60500000Y-80500000D01*
G04 #@! TO.N,Net-(J2-Pad4)*
X56120000Y-88380000D02*
X56120000Y-84500000D01*
X55950009Y-88549991D02*
X56120000Y-88380000D01*
X55945000Y-103945000D02*
X54849980Y-102849980D01*
X55813599Y-88549991D02*
X55950009Y-88549991D01*
X56650000Y-103945000D02*
X55945000Y-103945000D01*
X54849980Y-102849980D02*
X54849980Y-89513610D01*
X54849980Y-89513610D02*
X55813599Y-88549991D01*
X56120000Y-84500000D02*
X56120000Y-82880000D01*
X58000000Y-81000000D02*
X58000000Y-78500000D01*
X56120000Y-82880000D02*
X58000000Y-81000000D01*
G04 #@! TO.N,Net-(J2-Pad3)*
X54399970Y-103989970D02*
X54399970Y-86600030D01*
X55625000Y-105215000D02*
X54399970Y-103989970D01*
X56650000Y-105215000D02*
X55625000Y-105215000D01*
X53580000Y-85780060D02*
X53580000Y-84500000D01*
X54399970Y-86600030D02*
X53580000Y-85780060D01*
X53580000Y-84500000D02*
X53580000Y-82920000D01*
X55500000Y-81000000D02*
X55500000Y-78500000D01*
X53580000Y-82920000D02*
X55500000Y-81000000D01*
G04 #@! TO.N,Net-(J2-Pad2)*
X55625000Y-106485000D02*
X53949960Y-104809960D01*
X56650000Y-106485000D02*
X55625000Y-106485000D01*
X53949960Y-104809960D02*
X53949960Y-86949960D01*
X51500000Y-84500000D02*
X51040000Y-84500000D01*
X53949960Y-86949960D02*
X51500000Y-84500000D01*
X51040000Y-84500000D02*
X51040000Y-82960000D01*
X53000000Y-81000000D02*
X53000000Y-78500000D01*
X51040000Y-82960000D02*
X53000000Y-81000000D01*
G04 #@! TO.N,Net-(J2-Pad1)*
X48500000Y-84500000D02*
X50500000Y-86500000D01*
X52500000Y-86500000D02*
X53499950Y-87499950D01*
X50500000Y-86500000D02*
X52500000Y-86500000D01*
X53499950Y-87499950D02*
X53499950Y-106499950D01*
X54755000Y-107755000D02*
X56650000Y-107755000D01*
X53499950Y-106499950D02*
X54755000Y-107755000D01*
X48500000Y-84500000D02*
X48500000Y-83500000D01*
X50500000Y-81500000D02*
X50500000Y-78425000D01*
X48500000Y-83500000D02*
X50500000Y-81500000D01*
G04 #@! TO.N,Net-(J3-Pad8)*
X42755000Y-107755000D02*
X42500000Y-107500000D01*
X47350000Y-107755000D02*
X42755000Y-107755000D01*
X34500000Y-91000000D02*
X37000000Y-88500000D01*
X37960000Y-88500000D02*
X41960000Y-84500000D01*
X37000000Y-88500000D02*
X37960000Y-88500000D01*
X41960000Y-84500000D02*
X41960000Y-83040000D01*
X41960000Y-83040000D02*
X45500000Y-79500000D01*
X46925000Y-79500000D02*
X48000000Y-78425000D01*
X45500000Y-79500000D02*
X46925000Y-79500000D01*
G04 #@! TO.N,Net-(J3-Pad7)*
X41515000Y-106485000D02*
X41500000Y-106500000D01*
X47350000Y-106485000D02*
X41515000Y-106485000D01*
X33500000Y-92000000D02*
X33500000Y-90500000D01*
X39420000Y-84580000D02*
X39420000Y-84500000D01*
X33500000Y-90500000D02*
X39420000Y-84580000D01*
X39420000Y-84500000D02*
X39420000Y-83080000D01*
X41000000Y-81500000D02*
X41675690Y-81500000D01*
X39420000Y-83080000D02*
X41000000Y-81500000D01*
X44750690Y-78425000D02*
X45500000Y-78425000D01*
X41675690Y-81500000D02*
X44750690Y-78425000D01*
G04 #@! TO.N,Net-(J3-Pad6)*
X40715000Y-105215000D02*
X40500000Y-105000000D01*
X47350000Y-105215000D02*
X40715000Y-105215000D01*
X32000000Y-92500000D02*
X32000000Y-90500000D01*
X36880000Y-85620000D02*
X36880000Y-84500000D01*
X32000000Y-90500000D02*
X36880000Y-85620000D01*
X43000000Y-78425000D02*
X39356795Y-82068205D01*
X38568205Y-82068205D02*
X37636410Y-83000000D01*
X39356795Y-82068205D02*
X38568205Y-82068205D01*
X37636410Y-83743590D02*
X36880000Y-84500000D01*
X37636410Y-83000000D02*
X37636410Y-83743590D01*
G04 #@! TO.N,Net-(J3-Pad5)*
X40500000Y-78425000D02*
X40500000Y-79500000D01*
X40500000Y-79500000D02*
X38000000Y-82000000D01*
X38000000Y-82000000D02*
X35000000Y-82000000D01*
X34340000Y-82660000D02*
X34340000Y-84500000D01*
X35000000Y-82000000D02*
X34340000Y-82660000D01*
X34340000Y-84500000D02*
X34340000Y-86160000D01*
X34340000Y-86160000D02*
X30500000Y-90000000D01*
X30500000Y-90000000D02*
X30500000Y-93000000D01*
X47295000Y-104000000D02*
X47350000Y-103945000D01*
X39500000Y-104000000D02*
X47295000Y-104000000D01*
G04 #@! TO.N,Net-(J3-Pad4)*
X38000000Y-78462500D02*
X38000000Y-80000000D01*
X38000000Y-80000000D02*
X36500000Y-81500000D01*
X36500000Y-81500000D02*
X32500000Y-81500000D01*
X31800000Y-82200000D02*
X31800000Y-84500000D01*
X32500000Y-81500000D02*
X31800000Y-82200000D01*
X31800000Y-84500000D02*
X31800000Y-85700000D01*
X30000000Y-87500000D02*
X29500000Y-87500000D01*
X31800000Y-85700000D02*
X30000000Y-87500000D01*
X29500000Y-87500000D02*
X28000000Y-89000000D01*
X28000000Y-89000000D02*
X28000000Y-93500000D01*
X28000000Y-93500000D02*
X29500000Y-95000000D01*
X29500000Y-95000000D02*
X32000000Y-95000000D01*
X32000000Y-95000000D02*
X33500000Y-96500000D01*
X46298222Y-95680010D02*
X49819990Y-95680010D01*
X45478232Y-96500000D02*
X46298222Y-95680010D01*
X33500000Y-96500000D02*
X45478232Y-96500000D01*
X49819990Y-95680010D02*
X50500000Y-96360020D01*
X50500000Y-96360020D02*
X50500000Y-102000000D01*
X49825000Y-102675000D02*
X47350000Y-102675000D01*
X50500000Y-102000000D02*
X49825000Y-102675000D01*
G04 #@! TO.N,Net-(J3-Pad3)*
X35500000Y-78462500D02*
X35500000Y-80000000D01*
X35500000Y-80000000D02*
X34500000Y-81000000D01*
X34500000Y-81000000D02*
X29500000Y-81000000D01*
X29260000Y-81240000D02*
X29260000Y-84500000D01*
X29500000Y-81000000D02*
X29260000Y-81240000D01*
X49595000Y-101405000D02*
X47350000Y-101405000D01*
X32469990Y-96969990D02*
X49469990Y-96969990D01*
X50000000Y-101000000D02*
X49595000Y-101405000D01*
X49469990Y-96969990D02*
X50000000Y-97500000D01*
X31000000Y-95500000D02*
X32469990Y-96969990D01*
X50000000Y-97500000D02*
X50000000Y-101000000D01*
X29260000Y-85740000D02*
X27500000Y-87500000D01*
X28500000Y-95500000D02*
X31000000Y-95500000D01*
X27500000Y-94500000D02*
X28500000Y-95500000D01*
X27500000Y-87500000D02*
X27500000Y-94500000D01*
X29260000Y-84500000D02*
X29260000Y-85740000D01*
G04 #@! TO.N,Net-(J3-Pad2)*
X26720000Y-84500000D02*
X26720000Y-81280000D01*
X26720000Y-81280000D02*
X27500000Y-80500000D01*
X27500000Y-80500000D02*
X32500000Y-80500000D01*
X33000000Y-80000000D02*
X33000000Y-78425000D01*
X32500000Y-80500000D02*
X33000000Y-80000000D01*
X26720000Y-84500000D02*
X26720000Y-95220000D01*
X26720000Y-95220000D02*
X27500000Y-96000000D01*
X27500000Y-96000000D02*
X30500000Y-96000000D01*
X48421758Y-98239990D02*
X49000000Y-98818232D01*
X32739990Y-98239990D02*
X48421758Y-98239990D01*
X30500000Y-96000000D02*
X32739990Y-98239990D01*
X48375000Y-100135000D02*
X47350000Y-100135000D01*
X49000000Y-99510000D02*
X48375000Y-100135000D01*
X49000000Y-98818232D02*
X49000000Y-99510000D01*
G04 #@! TO.N,Net-(J3-Pad1)*
X30500000Y-78425000D02*
X26575000Y-78425000D01*
X24180000Y-80820000D02*
X24180000Y-84500000D01*
X26575000Y-78425000D02*
X24180000Y-80820000D01*
X31950002Y-98865000D02*
X30085002Y-97000000D01*
X47350000Y-98865000D02*
X31950002Y-98865000D01*
X30085002Y-97000000D02*
X27000000Y-97000000D01*
X27000000Y-97000000D02*
X25000000Y-95000000D01*
X25000000Y-95000000D02*
X25000000Y-91500000D01*
X24180000Y-90680000D02*
X24180000Y-84500000D01*
X25000000Y-91500000D02*
X24180000Y-90680000D01*
G04 #@! TO.N,Net-(J4-Pad8)*
X114280000Y-84500000D02*
X109780000Y-80000000D01*
X109500000Y-80000000D02*
X108000000Y-78500000D01*
X109780000Y-80000000D02*
X109500000Y-80000000D01*
X99650000Y-98865000D02*
X109865000Y-98865000D01*
X109865000Y-98865000D02*
X110000000Y-99000000D01*
G04 #@! TO.N,Net-(J4-Pad7)*
X111740000Y-84500000D02*
X107240000Y-80000000D01*
X107000000Y-80000000D02*
X105500000Y-78500000D01*
X107240000Y-80000000D02*
X107000000Y-80000000D01*
X99650000Y-100135000D02*
X108865000Y-100135000D01*
X108865000Y-100135000D02*
X109000000Y-100000000D01*
G04 #@! TO.N,Net-(J4-Pad6)*
X109200000Y-84500000D02*
X104700000Y-80000000D01*
X104500000Y-80000000D02*
X103000000Y-78500000D01*
X104700000Y-80000000D02*
X104500000Y-80000000D01*
X99650000Y-101405000D02*
X107905000Y-101405000D01*
G04 #@! TO.N,Net-(J4-Pad5)*
X106660000Y-84500000D02*
X102160000Y-80000000D01*
X102160000Y-80000000D02*
X101000000Y-80000000D01*
X100500000Y-79500000D02*
X100500000Y-78500000D01*
X101000000Y-80000000D02*
X100500000Y-79500000D01*
X99650000Y-102675000D02*
X106825000Y-102675000D01*
X107000000Y-102850000D02*
X107000000Y-103000000D01*
X106825000Y-102675000D02*
X107000000Y-102850000D01*
G04 #@! TO.N,Net-(J4-Pad4)*
X104120000Y-84500000D02*
X100120000Y-80500000D01*
X100120000Y-80500000D02*
X99000000Y-80500000D01*
X98000000Y-79500000D02*
X98000000Y-78500000D01*
X99000000Y-80500000D02*
X98000000Y-79500000D01*
X99650000Y-103945000D02*
X105945000Y-103945000D01*
X105945000Y-103945000D02*
X106000000Y-104000000D01*
G04 #@! TO.N,Net-(J4-Pad3)*
X101580000Y-84500000D02*
X97580000Y-80500000D01*
X97580000Y-80500000D02*
X96500000Y-80500000D01*
X95500000Y-79500000D02*
X95500000Y-78500000D01*
X96500000Y-80500000D02*
X95500000Y-79500000D01*
X104785000Y-105215000D02*
X105000000Y-105000000D01*
X99650000Y-105215000D02*
X104785000Y-105215000D01*
G04 #@! TO.N,Net-(J4-Pad2)*
X93000000Y-80000000D02*
X93000000Y-78500000D01*
X93500000Y-80500000D02*
X93000000Y-80000000D01*
X95040000Y-80500000D02*
X93500000Y-80500000D01*
X99040000Y-84500000D02*
X95040000Y-80500000D01*
X103515000Y-106485000D02*
X104000000Y-106000000D01*
X99650000Y-106485000D02*
X103515000Y-106485000D01*
G04 #@! TO.N,Net-(J4-Pad1)*
X96500000Y-84500000D02*
X96500000Y-83500000D01*
X96500000Y-83500000D02*
X94500000Y-81500000D01*
X94500000Y-81500000D02*
X91000000Y-81500000D01*
X90500000Y-81000000D02*
X90500000Y-78500000D01*
X91000000Y-81500000D02*
X90500000Y-81000000D01*
X100930000Y-107500000D02*
X103000000Y-107500000D01*
X100675000Y-107755000D02*
X100930000Y-107500000D01*
X99650000Y-107755000D02*
X100675000Y-107755000D01*
G04 #@! TO.N,Net-(J5-Pad8)*
X90280000Y-84500000D02*
X88500000Y-82720000D01*
X88500000Y-79000000D02*
X88000000Y-78500000D01*
X88500000Y-82720000D02*
X88500000Y-79000000D01*
X90280000Y-86780000D02*
X90280000Y-84500000D01*
X96500000Y-88000000D02*
X91500000Y-88000000D01*
X98000000Y-89500000D02*
X96500000Y-88000000D01*
X98000000Y-107500000D02*
X98000000Y-89500000D01*
X91500000Y-88000000D02*
X90280000Y-86780000D01*
X97745000Y-107755000D02*
X98000000Y-107500000D01*
X90350000Y-107755000D02*
X97745000Y-107755000D01*
G04 #@! TO.N,Net-(J5-Pad7)*
X87740000Y-84500000D02*
X85740000Y-82500000D01*
X85740000Y-78740000D02*
X85500000Y-78500000D01*
X85740000Y-82500000D02*
X85740000Y-78740000D01*
X90350000Y-106485000D02*
X97015000Y-106485000D01*
X97015000Y-106485000D02*
X97549990Y-105950010D01*
X97549990Y-105950010D02*
X97549990Y-89686400D01*
X97549990Y-89686400D02*
X96363590Y-88500000D01*
X91363590Y-88500000D02*
X89500000Y-86636410D01*
X96363590Y-88500000D02*
X91363590Y-88500000D01*
X89500000Y-86636410D02*
X89500000Y-85500000D01*
X88500000Y-84500000D02*
X87740000Y-84500000D01*
X89500000Y-85500000D02*
X88500000Y-84500000D01*
G04 #@! TO.N,Net-(J5-Pad6)*
X85200000Y-84500000D02*
X83200000Y-82500000D01*
X83200000Y-78700000D02*
X83000000Y-78500000D01*
X83200000Y-82500000D02*
X83200000Y-78700000D01*
X90350000Y-105215000D02*
X96384980Y-105215000D01*
X96384980Y-105215000D02*
X97099980Y-104500000D01*
X97099980Y-104500000D02*
X97099980Y-89872800D01*
X96177190Y-88950010D02*
X90950010Y-88950010D01*
X97099980Y-89872800D02*
X96177190Y-88950010D01*
X90950010Y-88950010D02*
X89000000Y-87000000D01*
X89000000Y-87000000D02*
X89000000Y-86500000D01*
X89000000Y-86500000D02*
X88500000Y-86000000D01*
X88500000Y-86000000D02*
X86500000Y-86000000D01*
X85200000Y-84700000D02*
X85200000Y-84500000D01*
X86500000Y-86000000D02*
X85200000Y-84700000D01*
G04 #@! TO.N,Net-(J5-Pad5)*
X82660000Y-84500000D02*
X80500000Y-82340000D01*
X80500000Y-82340000D02*
X80500000Y-78500000D01*
X90350000Y-103945000D02*
X96204970Y-103945000D01*
X96204970Y-103945000D02*
X96649970Y-103500000D01*
X96649970Y-103500000D02*
X96649970Y-90149970D01*
X95900020Y-89400020D02*
X90763609Y-89400019D01*
X96649970Y-90149970D02*
X95900020Y-89400020D01*
X88500000Y-87136410D02*
X88500000Y-86636410D01*
X90763609Y-89400019D02*
X88500000Y-87136410D01*
X84610010Y-86450010D02*
X82660000Y-84500000D01*
X88313600Y-86450010D02*
X84610010Y-86450010D01*
X88500000Y-86636410D02*
X88313600Y-86450010D01*
G04 #@! TO.N,Net-(J5-Pad4)*
X80120000Y-84500000D02*
X78000000Y-82380000D01*
X78000000Y-82380000D02*
X78000000Y-78500000D01*
X90350000Y-102675000D02*
X95524960Y-102675000D01*
X95524960Y-102675000D02*
X96199960Y-102000000D01*
X96199960Y-102000000D02*
X96199960Y-90336370D01*
X95713619Y-89850029D02*
X90577208Y-89850028D01*
X96199960Y-90336370D02*
X95713619Y-89850029D01*
X82520020Y-86900020D02*
X80120000Y-84500000D01*
X87627200Y-86900020D02*
X82520020Y-86900020D01*
X90577208Y-89850028D02*
X87627200Y-86900020D01*
G04 #@! TO.N,Net-(J5-Pad3)*
X77580000Y-84500000D02*
X75080000Y-82000000D01*
X75080000Y-78920000D02*
X75500000Y-78500000D01*
X75080000Y-82000000D02*
X75080000Y-78920000D01*
X90350000Y-101405000D02*
X95095000Y-101405000D01*
X95095000Y-101405000D02*
X95749950Y-100750050D01*
X95749950Y-90749950D02*
X95500000Y-90500000D01*
X95749950Y-100750050D02*
X95749950Y-90749950D01*
X94800038Y-90300038D02*
X90300038Y-90300038D01*
X95000000Y-90500000D02*
X94800038Y-90300038D01*
X95500000Y-90500000D02*
X95000000Y-90500000D01*
X80430030Y-87350030D02*
X77580000Y-84500000D01*
X87350030Y-87350030D02*
X80430030Y-87350030D01*
X90300038Y-90300038D02*
X87350030Y-87350030D01*
G04 #@! TO.N,Net-(J5-Pad2)*
X75040000Y-84500000D02*
X73500000Y-82960000D01*
X73500000Y-79000000D02*
X73000000Y-78500000D01*
X73500000Y-82960000D02*
X73500000Y-79000000D01*
X91865000Y-100135000D02*
X90350000Y-100135000D01*
X92500000Y-99500000D02*
X91865000Y-100135000D01*
X91739990Y-98239990D02*
X92500000Y-99000000D01*
X73000000Y-93500000D02*
X73000000Y-97000000D01*
X73000000Y-97000000D02*
X74239990Y-98239990D01*
X74000000Y-92500000D02*
X73000000Y-93500000D01*
X92500000Y-99000000D02*
X92500000Y-99500000D01*
X74000000Y-85540000D02*
X74000000Y-92500000D01*
X74239990Y-98239990D02*
X91739990Y-98239990D01*
X75040000Y-84500000D02*
X74000000Y-85540000D01*
G04 #@! TO.N,Net-(J5-Pad1)*
X72500000Y-84500000D02*
X72500000Y-83500000D01*
X70500000Y-81500000D02*
X70500000Y-78500000D01*
X72500000Y-83500000D02*
X70500000Y-81500000D01*
X72500000Y-84500000D02*
X72500000Y-97500000D01*
X73865000Y-98865000D02*
X90350000Y-98865000D01*
X72500000Y-97500000D02*
X73865000Y-98865000D01*
G04 #@! TO.N,Net-(R33-Pad2)*
X90295000Y-95000000D02*
X90350000Y-95055000D01*
X74425000Y-95000000D02*
X90295000Y-95000000D01*
G04 #@! TO.N,Net-(R34-Pad2)*
X47295000Y-95000000D02*
X47350000Y-95055000D01*
X42500000Y-95000000D02*
X47295000Y-95000000D01*
G04 #@! TO.N,Net-(D33-Pad1)*
X23500000Y-101000000D02*
X23500000Y-95000000D01*
X29000000Y-106500000D02*
X23500000Y-101000000D01*
G04 #@! TD*
M02*
