G04 #@! TF.GenerationSoftware,KiCad,Pcbnew,(5.1.9-0-10_14)*
G04 #@! TF.CreationDate,2021-09-02T08:13:15+02:00*
G04 #@! TF.ProjectId,i2c-32io,6932632d-3332-4696-9f2e-6b696361645f,rev?*
G04 #@! TF.SameCoordinates,Original*
G04 #@! TF.FileFunction,Paste,Top*
G04 #@! TF.FilePolarity,Positive*
%FSLAX46Y46*%
G04 Gerber Fmt 4.6, Leading zero omitted, Abs format (unit mm)*
G04 Created by KiCad (PCBNEW (5.1.9-0-10_14)) date 2021-09-02 08:13:15*
%MOMM*%
%LPD*%
G01*
G04 APERTURE LIST*
G04 APERTURE END LIST*
G04 #@! TO.C,U2*
G36*
G01*
X91375000Y-107605000D02*
X91375000Y-107905000D01*
G75*
G02*
X91225000Y-108055000I-150000J0D01*
G01*
X89475000Y-108055000D01*
G75*
G02*
X89325000Y-107905000I0J150000D01*
G01*
X89325000Y-107605000D01*
G75*
G02*
X89475000Y-107455000I150000J0D01*
G01*
X91225000Y-107455000D01*
G75*
G02*
X91375000Y-107605000I0J-150000D01*
G01*
G37*
G36*
G01*
X91375000Y-106335000D02*
X91375000Y-106635000D01*
G75*
G02*
X91225000Y-106785000I-150000J0D01*
G01*
X89475000Y-106785000D01*
G75*
G02*
X89325000Y-106635000I0J150000D01*
G01*
X89325000Y-106335000D01*
G75*
G02*
X89475000Y-106185000I150000J0D01*
G01*
X91225000Y-106185000D01*
G75*
G02*
X91375000Y-106335000I0J-150000D01*
G01*
G37*
G36*
G01*
X91375000Y-105065000D02*
X91375000Y-105365000D01*
G75*
G02*
X91225000Y-105515000I-150000J0D01*
G01*
X89475000Y-105515000D01*
G75*
G02*
X89325000Y-105365000I0J150000D01*
G01*
X89325000Y-105065000D01*
G75*
G02*
X89475000Y-104915000I150000J0D01*
G01*
X91225000Y-104915000D01*
G75*
G02*
X91375000Y-105065000I0J-150000D01*
G01*
G37*
G36*
G01*
X91375000Y-103795000D02*
X91375000Y-104095000D01*
G75*
G02*
X91225000Y-104245000I-150000J0D01*
G01*
X89475000Y-104245000D01*
G75*
G02*
X89325000Y-104095000I0J150000D01*
G01*
X89325000Y-103795000D01*
G75*
G02*
X89475000Y-103645000I150000J0D01*
G01*
X91225000Y-103645000D01*
G75*
G02*
X91375000Y-103795000I0J-150000D01*
G01*
G37*
G36*
G01*
X91375000Y-102525000D02*
X91375000Y-102825000D01*
G75*
G02*
X91225000Y-102975000I-150000J0D01*
G01*
X89475000Y-102975000D01*
G75*
G02*
X89325000Y-102825000I0J150000D01*
G01*
X89325000Y-102525000D01*
G75*
G02*
X89475000Y-102375000I150000J0D01*
G01*
X91225000Y-102375000D01*
G75*
G02*
X91375000Y-102525000I0J-150000D01*
G01*
G37*
G36*
G01*
X91375000Y-101255000D02*
X91375000Y-101555000D01*
G75*
G02*
X91225000Y-101705000I-150000J0D01*
G01*
X89475000Y-101705000D01*
G75*
G02*
X89325000Y-101555000I0J150000D01*
G01*
X89325000Y-101255000D01*
G75*
G02*
X89475000Y-101105000I150000J0D01*
G01*
X91225000Y-101105000D01*
G75*
G02*
X91375000Y-101255000I0J-150000D01*
G01*
G37*
G36*
G01*
X91375000Y-99985000D02*
X91375000Y-100285000D01*
G75*
G02*
X91225000Y-100435000I-150000J0D01*
G01*
X89475000Y-100435000D01*
G75*
G02*
X89325000Y-100285000I0J150000D01*
G01*
X89325000Y-99985000D01*
G75*
G02*
X89475000Y-99835000I150000J0D01*
G01*
X91225000Y-99835000D01*
G75*
G02*
X91375000Y-99985000I0J-150000D01*
G01*
G37*
G36*
G01*
X91375000Y-98715000D02*
X91375000Y-99015000D01*
G75*
G02*
X91225000Y-99165000I-150000J0D01*
G01*
X89475000Y-99165000D01*
G75*
G02*
X89325000Y-99015000I0J150000D01*
G01*
X89325000Y-98715000D01*
G75*
G02*
X89475000Y-98565000I150000J0D01*
G01*
X91225000Y-98565000D01*
G75*
G02*
X91375000Y-98715000I0J-150000D01*
G01*
G37*
G36*
G01*
X91375000Y-97445000D02*
X91375000Y-97745000D01*
G75*
G02*
X91225000Y-97895000I-150000J0D01*
G01*
X89475000Y-97895000D01*
G75*
G02*
X89325000Y-97745000I0J150000D01*
G01*
X89325000Y-97445000D01*
G75*
G02*
X89475000Y-97295000I150000J0D01*
G01*
X91225000Y-97295000D01*
G75*
G02*
X91375000Y-97445000I0J-150000D01*
G01*
G37*
G36*
G01*
X91375000Y-96175000D02*
X91375000Y-96475000D01*
G75*
G02*
X91225000Y-96625000I-150000J0D01*
G01*
X89475000Y-96625000D01*
G75*
G02*
X89325000Y-96475000I0J150000D01*
G01*
X89325000Y-96175000D01*
G75*
G02*
X89475000Y-96025000I150000J0D01*
G01*
X91225000Y-96025000D01*
G75*
G02*
X91375000Y-96175000I0J-150000D01*
G01*
G37*
G36*
G01*
X91375000Y-94905000D02*
X91375000Y-95205000D01*
G75*
G02*
X91225000Y-95355000I-150000J0D01*
G01*
X89475000Y-95355000D01*
G75*
G02*
X89325000Y-95205000I0J150000D01*
G01*
X89325000Y-94905000D01*
G75*
G02*
X89475000Y-94755000I150000J0D01*
G01*
X91225000Y-94755000D01*
G75*
G02*
X91375000Y-94905000I0J-150000D01*
G01*
G37*
G36*
G01*
X91375000Y-93635000D02*
X91375000Y-93935000D01*
G75*
G02*
X91225000Y-94085000I-150000J0D01*
G01*
X89475000Y-94085000D01*
G75*
G02*
X89325000Y-93935000I0J150000D01*
G01*
X89325000Y-93635000D01*
G75*
G02*
X89475000Y-93485000I150000J0D01*
G01*
X91225000Y-93485000D01*
G75*
G02*
X91375000Y-93635000I0J-150000D01*
G01*
G37*
G36*
G01*
X91375000Y-92365000D02*
X91375000Y-92665000D01*
G75*
G02*
X91225000Y-92815000I-150000J0D01*
G01*
X89475000Y-92815000D01*
G75*
G02*
X89325000Y-92665000I0J150000D01*
G01*
X89325000Y-92365000D01*
G75*
G02*
X89475000Y-92215000I150000J0D01*
G01*
X91225000Y-92215000D01*
G75*
G02*
X91375000Y-92365000I0J-150000D01*
G01*
G37*
G36*
G01*
X91375000Y-91095000D02*
X91375000Y-91395000D01*
G75*
G02*
X91225000Y-91545000I-150000J0D01*
G01*
X89475000Y-91545000D01*
G75*
G02*
X89325000Y-91395000I0J150000D01*
G01*
X89325000Y-91095000D01*
G75*
G02*
X89475000Y-90945000I150000J0D01*
G01*
X91225000Y-90945000D01*
G75*
G02*
X91375000Y-91095000I0J-150000D01*
G01*
G37*
G36*
G01*
X100675000Y-91095000D02*
X100675000Y-91395000D01*
G75*
G02*
X100525000Y-91545000I-150000J0D01*
G01*
X98775000Y-91545000D01*
G75*
G02*
X98625000Y-91395000I0J150000D01*
G01*
X98625000Y-91095000D01*
G75*
G02*
X98775000Y-90945000I150000J0D01*
G01*
X100525000Y-90945000D01*
G75*
G02*
X100675000Y-91095000I0J-150000D01*
G01*
G37*
G36*
G01*
X100675000Y-92365000D02*
X100675000Y-92665000D01*
G75*
G02*
X100525000Y-92815000I-150000J0D01*
G01*
X98775000Y-92815000D01*
G75*
G02*
X98625000Y-92665000I0J150000D01*
G01*
X98625000Y-92365000D01*
G75*
G02*
X98775000Y-92215000I150000J0D01*
G01*
X100525000Y-92215000D01*
G75*
G02*
X100675000Y-92365000I0J-150000D01*
G01*
G37*
G36*
G01*
X100675000Y-93635000D02*
X100675000Y-93935000D01*
G75*
G02*
X100525000Y-94085000I-150000J0D01*
G01*
X98775000Y-94085000D01*
G75*
G02*
X98625000Y-93935000I0J150000D01*
G01*
X98625000Y-93635000D01*
G75*
G02*
X98775000Y-93485000I150000J0D01*
G01*
X100525000Y-93485000D01*
G75*
G02*
X100675000Y-93635000I0J-150000D01*
G01*
G37*
G36*
G01*
X100675000Y-94905000D02*
X100675000Y-95205000D01*
G75*
G02*
X100525000Y-95355000I-150000J0D01*
G01*
X98775000Y-95355000D01*
G75*
G02*
X98625000Y-95205000I0J150000D01*
G01*
X98625000Y-94905000D01*
G75*
G02*
X98775000Y-94755000I150000J0D01*
G01*
X100525000Y-94755000D01*
G75*
G02*
X100675000Y-94905000I0J-150000D01*
G01*
G37*
G36*
G01*
X100675000Y-96175000D02*
X100675000Y-96475000D01*
G75*
G02*
X100525000Y-96625000I-150000J0D01*
G01*
X98775000Y-96625000D01*
G75*
G02*
X98625000Y-96475000I0J150000D01*
G01*
X98625000Y-96175000D01*
G75*
G02*
X98775000Y-96025000I150000J0D01*
G01*
X100525000Y-96025000D01*
G75*
G02*
X100675000Y-96175000I0J-150000D01*
G01*
G37*
G36*
G01*
X100675000Y-97445000D02*
X100675000Y-97745000D01*
G75*
G02*
X100525000Y-97895000I-150000J0D01*
G01*
X98775000Y-97895000D01*
G75*
G02*
X98625000Y-97745000I0J150000D01*
G01*
X98625000Y-97445000D01*
G75*
G02*
X98775000Y-97295000I150000J0D01*
G01*
X100525000Y-97295000D01*
G75*
G02*
X100675000Y-97445000I0J-150000D01*
G01*
G37*
G36*
G01*
X100675000Y-98715000D02*
X100675000Y-99015000D01*
G75*
G02*
X100525000Y-99165000I-150000J0D01*
G01*
X98775000Y-99165000D01*
G75*
G02*
X98625000Y-99015000I0J150000D01*
G01*
X98625000Y-98715000D01*
G75*
G02*
X98775000Y-98565000I150000J0D01*
G01*
X100525000Y-98565000D01*
G75*
G02*
X100675000Y-98715000I0J-150000D01*
G01*
G37*
G36*
G01*
X100675000Y-99985000D02*
X100675000Y-100285000D01*
G75*
G02*
X100525000Y-100435000I-150000J0D01*
G01*
X98775000Y-100435000D01*
G75*
G02*
X98625000Y-100285000I0J150000D01*
G01*
X98625000Y-99985000D01*
G75*
G02*
X98775000Y-99835000I150000J0D01*
G01*
X100525000Y-99835000D01*
G75*
G02*
X100675000Y-99985000I0J-150000D01*
G01*
G37*
G36*
G01*
X100675000Y-101255000D02*
X100675000Y-101555000D01*
G75*
G02*
X100525000Y-101705000I-150000J0D01*
G01*
X98775000Y-101705000D01*
G75*
G02*
X98625000Y-101555000I0J150000D01*
G01*
X98625000Y-101255000D01*
G75*
G02*
X98775000Y-101105000I150000J0D01*
G01*
X100525000Y-101105000D01*
G75*
G02*
X100675000Y-101255000I0J-150000D01*
G01*
G37*
G36*
G01*
X100675000Y-102525000D02*
X100675000Y-102825000D01*
G75*
G02*
X100525000Y-102975000I-150000J0D01*
G01*
X98775000Y-102975000D01*
G75*
G02*
X98625000Y-102825000I0J150000D01*
G01*
X98625000Y-102525000D01*
G75*
G02*
X98775000Y-102375000I150000J0D01*
G01*
X100525000Y-102375000D01*
G75*
G02*
X100675000Y-102525000I0J-150000D01*
G01*
G37*
G36*
G01*
X100675000Y-103795000D02*
X100675000Y-104095000D01*
G75*
G02*
X100525000Y-104245000I-150000J0D01*
G01*
X98775000Y-104245000D01*
G75*
G02*
X98625000Y-104095000I0J150000D01*
G01*
X98625000Y-103795000D01*
G75*
G02*
X98775000Y-103645000I150000J0D01*
G01*
X100525000Y-103645000D01*
G75*
G02*
X100675000Y-103795000I0J-150000D01*
G01*
G37*
G36*
G01*
X100675000Y-105065000D02*
X100675000Y-105365000D01*
G75*
G02*
X100525000Y-105515000I-150000J0D01*
G01*
X98775000Y-105515000D01*
G75*
G02*
X98625000Y-105365000I0J150000D01*
G01*
X98625000Y-105065000D01*
G75*
G02*
X98775000Y-104915000I150000J0D01*
G01*
X100525000Y-104915000D01*
G75*
G02*
X100675000Y-105065000I0J-150000D01*
G01*
G37*
G36*
G01*
X100675000Y-106335000D02*
X100675000Y-106635000D01*
G75*
G02*
X100525000Y-106785000I-150000J0D01*
G01*
X98775000Y-106785000D01*
G75*
G02*
X98625000Y-106635000I0J150000D01*
G01*
X98625000Y-106335000D01*
G75*
G02*
X98775000Y-106185000I150000J0D01*
G01*
X100525000Y-106185000D01*
G75*
G02*
X100675000Y-106335000I0J-150000D01*
G01*
G37*
G36*
G01*
X100675000Y-107605000D02*
X100675000Y-107905000D01*
G75*
G02*
X100525000Y-108055000I-150000J0D01*
G01*
X98775000Y-108055000D01*
G75*
G02*
X98625000Y-107905000I0J150000D01*
G01*
X98625000Y-107605000D01*
G75*
G02*
X98775000Y-107455000I150000J0D01*
G01*
X100525000Y-107455000D01*
G75*
G02*
X100675000Y-107605000I0J-150000D01*
G01*
G37*
G04 #@! TD*
G04 #@! TO.C,U1*
G36*
G01*
X48375000Y-107605000D02*
X48375000Y-107905000D01*
G75*
G02*
X48225000Y-108055000I-150000J0D01*
G01*
X46475000Y-108055000D01*
G75*
G02*
X46325000Y-107905000I0J150000D01*
G01*
X46325000Y-107605000D01*
G75*
G02*
X46475000Y-107455000I150000J0D01*
G01*
X48225000Y-107455000D01*
G75*
G02*
X48375000Y-107605000I0J-150000D01*
G01*
G37*
G36*
G01*
X48375000Y-106335000D02*
X48375000Y-106635000D01*
G75*
G02*
X48225000Y-106785000I-150000J0D01*
G01*
X46475000Y-106785000D01*
G75*
G02*
X46325000Y-106635000I0J150000D01*
G01*
X46325000Y-106335000D01*
G75*
G02*
X46475000Y-106185000I150000J0D01*
G01*
X48225000Y-106185000D01*
G75*
G02*
X48375000Y-106335000I0J-150000D01*
G01*
G37*
G36*
G01*
X48375000Y-105065000D02*
X48375000Y-105365000D01*
G75*
G02*
X48225000Y-105515000I-150000J0D01*
G01*
X46475000Y-105515000D01*
G75*
G02*
X46325000Y-105365000I0J150000D01*
G01*
X46325000Y-105065000D01*
G75*
G02*
X46475000Y-104915000I150000J0D01*
G01*
X48225000Y-104915000D01*
G75*
G02*
X48375000Y-105065000I0J-150000D01*
G01*
G37*
G36*
G01*
X48375000Y-103795000D02*
X48375000Y-104095000D01*
G75*
G02*
X48225000Y-104245000I-150000J0D01*
G01*
X46475000Y-104245000D01*
G75*
G02*
X46325000Y-104095000I0J150000D01*
G01*
X46325000Y-103795000D01*
G75*
G02*
X46475000Y-103645000I150000J0D01*
G01*
X48225000Y-103645000D01*
G75*
G02*
X48375000Y-103795000I0J-150000D01*
G01*
G37*
G36*
G01*
X48375000Y-102525000D02*
X48375000Y-102825000D01*
G75*
G02*
X48225000Y-102975000I-150000J0D01*
G01*
X46475000Y-102975000D01*
G75*
G02*
X46325000Y-102825000I0J150000D01*
G01*
X46325000Y-102525000D01*
G75*
G02*
X46475000Y-102375000I150000J0D01*
G01*
X48225000Y-102375000D01*
G75*
G02*
X48375000Y-102525000I0J-150000D01*
G01*
G37*
G36*
G01*
X48375000Y-101255000D02*
X48375000Y-101555000D01*
G75*
G02*
X48225000Y-101705000I-150000J0D01*
G01*
X46475000Y-101705000D01*
G75*
G02*
X46325000Y-101555000I0J150000D01*
G01*
X46325000Y-101255000D01*
G75*
G02*
X46475000Y-101105000I150000J0D01*
G01*
X48225000Y-101105000D01*
G75*
G02*
X48375000Y-101255000I0J-150000D01*
G01*
G37*
G36*
G01*
X48375000Y-99985000D02*
X48375000Y-100285000D01*
G75*
G02*
X48225000Y-100435000I-150000J0D01*
G01*
X46475000Y-100435000D01*
G75*
G02*
X46325000Y-100285000I0J150000D01*
G01*
X46325000Y-99985000D01*
G75*
G02*
X46475000Y-99835000I150000J0D01*
G01*
X48225000Y-99835000D01*
G75*
G02*
X48375000Y-99985000I0J-150000D01*
G01*
G37*
G36*
G01*
X48375000Y-98715000D02*
X48375000Y-99015000D01*
G75*
G02*
X48225000Y-99165000I-150000J0D01*
G01*
X46475000Y-99165000D01*
G75*
G02*
X46325000Y-99015000I0J150000D01*
G01*
X46325000Y-98715000D01*
G75*
G02*
X46475000Y-98565000I150000J0D01*
G01*
X48225000Y-98565000D01*
G75*
G02*
X48375000Y-98715000I0J-150000D01*
G01*
G37*
G36*
G01*
X48375000Y-97445000D02*
X48375000Y-97745000D01*
G75*
G02*
X48225000Y-97895000I-150000J0D01*
G01*
X46475000Y-97895000D01*
G75*
G02*
X46325000Y-97745000I0J150000D01*
G01*
X46325000Y-97445000D01*
G75*
G02*
X46475000Y-97295000I150000J0D01*
G01*
X48225000Y-97295000D01*
G75*
G02*
X48375000Y-97445000I0J-150000D01*
G01*
G37*
G36*
G01*
X48375000Y-96175000D02*
X48375000Y-96475000D01*
G75*
G02*
X48225000Y-96625000I-150000J0D01*
G01*
X46475000Y-96625000D01*
G75*
G02*
X46325000Y-96475000I0J150000D01*
G01*
X46325000Y-96175000D01*
G75*
G02*
X46475000Y-96025000I150000J0D01*
G01*
X48225000Y-96025000D01*
G75*
G02*
X48375000Y-96175000I0J-150000D01*
G01*
G37*
G36*
G01*
X48375000Y-94905000D02*
X48375000Y-95205000D01*
G75*
G02*
X48225000Y-95355000I-150000J0D01*
G01*
X46475000Y-95355000D01*
G75*
G02*
X46325000Y-95205000I0J150000D01*
G01*
X46325000Y-94905000D01*
G75*
G02*
X46475000Y-94755000I150000J0D01*
G01*
X48225000Y-94755000D01*
G75*
G02*
X48375000Y-94905000I0J-150000D01*
G01*
G37*
G36*
G01*
X48375000Y-93635000D02*
X48375000Y-93935000D01*
G75*
G02*
X48225000Y-94085000I-150000J0D01*
G01*
X46475000Y-94085000D01*
G75*
G02*
X46325000Y-93935000I0J150000D01*
G01*
X46325000Y-93635000D01*
G75*
G02*
X46475000Y-93485000I150000J0D01*
G01*
X48225000Y-93485000D01*
G75*
G02*
X48375000Y-93635000I0J-150000D01*
G01*
G37*
G36*
G01*
X48375000Y-92365000D02*
X48375000Y-92665000D01*
G75*
G02*
X48225000Y-92815000I-150000J0D01*
G01*
X46475000Y-92815000D01*
G75*
G02*
X46325000Y-92665000I0J150000D01*
G01*
X46325000Y-92365000D01*
G75*
G02*
X46475000Y-92215000I150000J0D01*
G01*
X48225000Y-92215000D01*
G75*
G02*
X48375000Y-92365000I0J-150000D01*
G01*
G37*
G36*
G01*
X48375000Y-91095000D02*
X48375000Y-91395000D01*
G75*
G02*
X48225000Y-91545000I-150000J0D01*
G01*
X46475000Y-91545000D01*
G75*
G02*
X46325000Y-91395000I0J150000D01*
G01*
X46325000Y-91095000D01*
G75*
G02*
X46475000Y-90945000I150000J0D01*
G01*
X48225000Y-90945000D01*
G75*
G02*
X48375000Y-91095000I0J-150000D01*
G01*
G37*
G36*
G01*
X57675000Y-91095000D02*
X57675000Y-91395000D01*
G75*
G02*
X57525000Y-91545000I-150000J0D01*
G01*
X55775000Y-91545000D01*
G75*
G02*
X55625000Y-91395000I0J150000D01*
G01*
X55625000Y-91095000D01*
G75*
G02*
X55775000Y-90945000I150000J0D01*
G01*
X57525000Y-90945000D01*
G75*
G02*
X57675000Y-91095000I0J-150000D01*
G01*
G37*
G36*
G01*
X57675000Y-92365000D02*
X57675000Y-92665000D01*
G75*
G02*
X57525000Y-92815000I-150000J0D01*
G01*
X55775000Y-92815000D01*
G75*
G02*
X55625000Y-92665000I0J150000D01*
G01*
X55625000Y-92365000D01*
G75*
G02*
X55775000Y-92215000I150000J0D01*
G01*
X57525000Y-92215000D01*
G75*
G02*
X57675000Y-92365000I0J-150000D01*
G01*
G37*
G36*
G01*
X57675000Y-93635000D02*
X57675000Y-93935000D01*
G75*
G02*
X57525000Y-94085000I-150000J0D01*
G01*
X55775000Y-94085000D01*
G75*
G02*
X55625000Y-93935000I0J150000D01*
G01*
X55625000Y-93635000D01*
G75*
G02*
X55775000Y-93485000I150000J0D01*
G01*
X57525000Y-93485000D01*
G75*
G02*
X57675000Y-93635000I0J-150000D01*
G01*
G37*
G36*
G01*
X57675000Y-94905000D02*
X57675000Y-95205000D01*
G75*
G02*
X57525000Y-95355000I-150000J0D01*
G01*
X55775000Y-95355000D01*
G75*
G02*
X55625000Y-95205000I0J150000D01*
G01*
X55625000Y-94905000D01*
G75*
G02*
X55775000Y-94755000I150000J0D01*
G01*
X57525000Y-94755000D01*
G75*
G02*
X57675000Y-94905000I0J-150000D01*
G01*
G37*
G36*
G01*
X57675000Y-96175000D02*
X57675000Y-96475000D01*
G75*
G02*
X57525000Y-96625000I-150000J0D01*
G01*
X55775000Y-96625000D01*
G75*
G02*
X55625000Y-96475000I0J150000D01*
G01*
X55625000Y-96175000D01*
G75*
G02*
X55775000Y-96025000I150000J0D01*
G01*
X57525000Y-96025000D01*
G75*
G02*
X57675000Y-96175000I0J-150000D01*
G01*
G37*
G36*
G01*
X57675000Y-97445000D02*
X57675000Y-97745000D01*
G75*
G02*
X57525000Y-97895000I-150000J0D01*
G01*
X55775000Y-97895000D01*
G75*
G02*
X55625000Y-97745000I0J150000D01*
G01*
X55625000Y-97445000D01*
G75*
G02*
X55775000Y-97295000I150000J0D01*
G01*
X57525000Y-97295000D01*
G75*
G02*
X57675000Y-97445000I0J-150000D01*
G01*
G37*
G36*
G01*
X57675000Y-98715000D02*
X57675000Y-99015000D01*
G75*
G02*
X57525000Y-99165000I-150000J0D01*
G01*
X55775000Y-99165000D01*
G75*
G02*
X55625000Y-99015000I0J150000D01*
G01*
X55625000Y-98715000D01*
G75*
G02*
X55775000Y-98565000I150000J0D01*
G01*
X57525000Y-98565000D01*
G75*
G02*
X57675000Y-98715000I0J-150000D01*
G01*
G37*
G36*
G01*
X57675000Y-99985000D02*
X57675000Y-100285000D01*
G75*
G02*
X57525000Y-100435000I-150000J0D01*
G01*
X55775000Y-100435000D01*
G75*
G02*
X55625000Y-100285000I0J150000D01*
G01*
X55625000Y-99985000D01*
G75*
G02*
X55775000Y-99835000I150000J0D01*
G01*
X57525000Y-99835000D01*
G75*
G02*
X57675000Y-99985000I0J-150000D01*
G01*
G37*
G36*
G01*
X57675000Y-101255000D02*
X57675000Y-101555000D01*
G75*
G02*
X57525000Y-101705000I-150000J0D01*
G01*
X55775000Y-101705000D01*
G75*
G02*
X55625000Y-101555000I0J150000D01*
G01*
X55625000Y-101255000D01*
G75*
G02*
X55775000Y-101105000I150000J0D01*
G01*
X57525000Y-101105000D01*
G75*
G02*
X57675000Y-101255000I0J-150000D01*
G01*
G37*
G36*
G01*
X57675000Y-102525000D02*
X57675000Y-102825000D01*
G75*
G02*
X57525000Y-102975000I-150000J0D01*
G01*
X55775000Y-102975000D01*
G75*
G02*
X55625000Y-102825000I0J150000D01*
G01*
X55625000Y-102525000D01*
G75*
G02*
X55775000Y-102375000I150000J0D01*
G01*
X57525000Y-102375000D01*
G75*
G02*
X57675000Y-102525000I0J-150000D01*
G01*
G37*
G36*
G01*
X57675000Y-103795000D02*
X57675000Y-104095000D01*
G75*
G02*
X57525000Y-104245000I-150000J0D01*
G01*
X55775000Y-104245000D01*
G75*
G02*
X55625000Y-104095000I0J150000D01*
G01*
X55625000Y-103795000D01*
G75*
G02*
X55775000Y-103645000I150000J0D01*
G01*
X57525000Y-103645000D01*
G75*
G02*
X57675000Y-103795000I0J-150000D01*
G01*
G37*
G36*
G01*
X57675000Y-105065000D02*
X57675000Y-105365000D01*
G75*
G02*
X57525000Y-105515000I-150000J0D01*
G01*
X55775000Y-105515000D01*
G75*
G02*
X55625000Y-105365000I0J150000D01*
G01*
X55625000Y-105065000D01*
G75*
G02*
X55775000Y-104915000I150000J0D01*
G01*
X57525000Y-104915000D01*
G75*
G02*
X57675000Y-105065000I0J-150000D01*
G01*
G37*
G36*
G01*
X57675000Y-106335000D02*
X57675000Y-106635000D01*
G75*
G02*
X57525000Y-106785000I-150000J0D01*
G01*
X55775000Y-106785000D01*
G75*
G02*
X55625000Y-106635000I0J150000D01*
G01*
X55625000Y-106335000D01*
G75*
G02*
X55775000Y-106185000I150000J0D01*
G01*
X57525000Y-106185000D01*
G75*
G02*
X57675000Y-106335000I0J-150000D01*
G01*
G37*
G36*
G01*
X57675000Y-107605000D02*
X57675000Y-107905000D01*
G75*
G02*
X57525000Y-108055000I-150000J0D01*
G01*
X55775000Y-108055000D01*
G75*
G02*
X55625000Y-107905000I0J150000D01*
G01*
X55625000Y-107605000D01*
G75*
G02*
X55775000Y-107455000I150000J0D01*
G01*
X57525000Y-107455000D01*
G75*
G02*
X57675000Y-107605000I0J-150000D01*
G01*
G37*
G04 #@! TD*
G04 #@! TO.C,R34*
G36*
G01*
X41937500Y-95625003D02*
X41937500Y-94374997D01*
G75*
G02*
X42187497Y-94125000I249997J0D01*
G01*
X42812503Y-94125000D01*
G75*
G02*
X43062500Y-94374997I0J-249997D01*
G01*
X43062500Y-95625003D01*
G75*
G02*
X42812503Y-95875000I-249997J0D01*
G01*
X42187497Y-95875000D01*
G75*
G02*
X41937500Y-95625003I0J249997D01*
G01*
G37*
G36*
G01*
X39012500Y-95625003D02*
X39012500Y-94374997D01*
G75*
G02*
X39262497Y-94125000I249997J0D01*
G01*
X39887503Y-94125000D01*
G75*
G02*
X40137500Y-94374997I0J-249997D01*
G01*
X40137500Y-95625003D01*
G75*
G02*
X39887503Y-95875000I-249997J0D01*
G01*
X39262497Y-95875000D01*
G75*
G02*
X39012500Y-95625003I0J249997D01*
G01*
G37*
G04 #@! TD*
G04 #@! TO.C,R33*
G36*
G01*
X73862500Y-95625003D02*
X73862500Y-94374997D01*
G75*
G02*
X74112497Y-94125000I249997J0D01*
G01*
X74737503Y-94125000D01*
G75*
G02*
X74987500Y-94374997I0J-249997D01*
G01*
X74987500Y-95625003D01*
G75*
G02*
X74737503Y-95875000I-249997J0D01*
G01*
X74112497Y-95875000D01*
G75*
G02*
X73862500Y-95625003I0J249997D01*
G01*
G37*
G36*
G01*
X70937500Y-95625003D02*
X70937500Y-94374997D01*
G75*
G02*
X71187497Y-94125000I249997J0D01*
G01*
X71812503Y-94125000D01*
G75*
G02*
X72062500Y-94374997I0J-249997D01*
G01*
X72062500Y-95625003D01*
G75*
G02*
X71812503Y-95875000I-249997J0D01*
G01*
X71187497Y-95875000D01*
G75*
G02*
X70937500Y-95625003I0J249997D01*
G01*
G37*
G04 #@! TD*
G04 #@! TO.C,R32*
G36*
G01*
X107374997Y-77937500D02*
X108625003Y-77937500D01*
G75*
G02*
X108875000Y-78187497I0J-249997D01*
G01*
X108875000Y-78812503D01*
G75*
G02*
X108625003Y-79062500I-249997J0D01*
G01*
X107374997Y-79062500D01*
G75*
G02*
X107125000Y-78812503I0J249997D01*
G01*
X107125000Y-78187497D01*
G75*
G02*
X107374997Y-77937500I249997J0D01*
G01*
G37*
G36*
G01*
X107374997Y-75012500D02*
X108625003Y-75012500D01*
G75*
G02*
X108875000Y-75262497I0J-249997D01*
G01*
X108875000Y-75887503D01*
G75*
G02*
X108625003Y-76137500I-249997J0D01*
G01*
X107374997Y-76137500D01*
G75*
G02*
X107125000Y-75887503I0J249997D01*
G01*
X107125000Y-75262497D01*
G75*
G02*
X107374997Y-75012500I249997J0D01*
G01*
G37*
G04 #@! TD*
G04 #@! TO.C,R31*
G36*
G01*
X104874997Y-77937500D02*
X106125003Y-77937500D01*
G75*
G02*
X106375000Y-78187497I0J-249997D01*
G01*
X106375000Y-78812503D01*
G75*
G02*
X106125003Y-79062500I-249997J0D01*
G01*
X104874997Y-79062500D01*
G75*
G02*
X104625000Y-78812503I0J249997D01*
G01*
X104625000Y-78187497D01*
G75*
G02*
X104874997Y-77937500I249997J0D01*
G01*
G37*
G36*
G01*
X104874997Y-75012500D02*
X106125003Y-75012500D01*
G75*
G02*
X106375000Y-75262497I0J-249997D01*
G01*
X106375000Y-75887503D01*
G75*
G02*
X106125003Y-76137500I-249997J0D01*
G01*
X104874997Y-76137500D01*
G75*
G02*
X104625000Y-75887503I0J249997D01*
G01*
X104625000Y-75262497D01*
G75*
G02*
X104874997Y-75012500I249997J0D01*
G01*
G37*
G04 #@! TD*
G04 #@! TO.C,R30*
G36*
G01*
X102374997Y-77937500D02*
X103625003Y-77937500D01*
G75*
G02*
X103875000Y-78187497I0J-249997D01*
G01*
X103875000Y-78812503D01*
G75*
G02*
X103625003Y-79062500I-249997J0D01*
G01*
X102374997Y-79062500D01*
G75*
G02*
X102125000Y-78812503I0J249997D01*
G01*
X102125000Y-78187497D01*
G75*
G02*
X102374997Y-77937500I249997J0D01*
G01*
G37*
G36*
G01*
X102374997Y-75012500D02*
X103625003Y-75012500D01*
G75*
G02*
X103875000Y-75262497I0J-249997D01*
G01*
X103875000Y-75887503D01*
G75*
G02*
X103625003Y-76137500I-249997J0D01*
G01*
X102374997Y-76137500D01*
G75*
G02*
X102125000Y-75887503I0J249997D01*
G01*
X102125000Y-75262497D01*
G75*
G02*
X102374997Y-75012500I249997J0D01*
G01*
G37*
G04 #@! TD*
G04 #@! TO.C,R29*
G36*
G01*
X99874997Y-77937500D02*
X101125003Y-77937500D01*
G75*
G02*
X101375000Y-78187497I0J-249997D01*
G01*
X101375000Y-78812503D01*
G75*
G02*
X101125003Y-79062500I-249997J0D01*
G01*
X99874997Y-79062500D01*
G75*
G02*
X99625000Y-78812503I0J249997D01*
G01*
X99625000Y-78187497D01*
G75*
G02*
X99874997Y-77937500I249997J0D01*
G01*
G37*
G36*
G01*
X99874997Y-75012500D02*
X101125003Y-75012500D01*
G75*
G02*
X101375000Y-75262497I0J-249997D01*
G01*
X101375000Y-75887503D01*
G75*
G02*
X101125003Y-76137500I-249997J0D01*
G01*
X99874997Y-76137500D01*
G75*
G02*
X99625000Y-75887503I0J249997D01*
G01*
X99625000Y-75262497D01*
G75*
G02*
X99874997Y-75012500I249997J0D01*
G01*
G37*
G04 #@! TD*
G04 #@! TO.C,R28*
G36*
G01*
X97374997Y-77937500D02*
X98625003Y-77937500D01*
G75*
G02*
X98875000Y-78187497I0J-249997D01*
G01*
X98875000Y-78812503D01*
G75*
G02*
X98625003Y-79062500I-249997J0D01*
G01*
X97374997Y-79062500D01*
G75*
G02*
X97125000Y-78812503I0J249997D01*
G01*
X97125000Y-78187497D01*
G75*
G02*
X97374997Y-77937500I249997J0D01*
G01*
G37*
G36*
G01*
X97374997Y-75012500D02*
X98625003Y-75012500D01*
G75*
G02*
X98875000Y-75262497I0J-249997D01*
G01*
X98875000Y-75887503D01*
G75*
G02*
X98625003Y-76137500I-249997J0D01*
G01*
X97374997Y-76137500D01*
G75*
G02*
X97125000Y-75887503I0J249997D01*
G01*
X97125000Y-75262497D01*
G75*
G02*
X97374997Y-75012500I249997J0D01*
G01*
G37*
G04 #@! TD*
G04 #@! TO.C,R27*
G36*
G01*
X94874997Y-77937500D02*
X96125003Y-77937500D01*
G75*
G02*
X96375000Y-78187497I0J-249997D01*
G01*
X96375000Y-78812503D01*
G75*
G02*
X96125003Y-79062500I-249997J0D01*
G01*
X94874997Y-79062500D01*
G75*
G02*
X94625000Y-78812503I0J249997D01*
G01*
X94625000Y-78187497D01*
G75*
G02*
X94874997Y-77937500I249997J0D01*
G01*
G37*
G36*
G01*
X94874997Y-75012500D02*
X96125003Y-75012500D01*
G75*
G02*
X96375000Y-75262497I0J-249997D01*
G01*
X96375000Y-75887503D01*
G75*
G02*
X96125003Y-76137500I-249997J0D01*
G01*
X94874997Y-76137500D01*
G75*
G02*
X94625000Y-75887503I0J249997D01*
G01*
X94625000Y-75262497D01*
G75*
G02*
X94874997Y-75012500I249997J0D01*
G01*
G37*
G04 #@! TD*
G04 #@! TO.C,R26*
G36*
G01*
X92374997Y-77937500D02*
X93625003Y-77937500D01*
G75*
G02*
X93875000Y-78187497I0J-249997D01*
G01*
X93875000Y-78812503D01*
G75*
G02*
X93625003Y-79062500I-249997J0D01*
G01*
X92374997Y-79062500D01*
G75*
G02*
X92125000Y-78812503I0J249997D01*
G01*
X92125000Y-78187497D01*
G75*
G02*
X92374997Y-77937500I249997J0D01*
G01*
G37*
G36*
G01*
X92374997Y-75012500D02*
X93625003Y-75012500D01*
G75*
G02*
X93875000Y-75262497I0J-249997D01*
G01*
X93875000Y-75887503D01*
G75*
G02*
X93625003Y-76137500I-249997J0D01*
G01*
X92374997Y-76137500D01*
G75*
G02*
X92125000Y-75887503I0J249997D01*
G01*
X92125000Y-75262497D01*
G75*
G02*
X92374997Y-75012500I249997J0D01*
G01*
G37*
G04 #@! TD*
G04 #@! TO.C,R25*
G36*
G01*
X89874997Y-77937500D02*
X91125003Y-77937500D01*
G75*
G02*
X91375000Y-78187497I0J-249997D01*
G01*
X91375000Y-78812503D01*
G75*
G02*
X91125003Y-79062500I-249997J0D01*
G01*
X89874997Y-79062500D01*
G75*
G02*
X89625000Y-78812503I0J249997D01*
G01*
X89625000Y-78187497D01*
G75*
G02*
X89874997Y-77937500I249997J0D01*
G01*
G37*
G36*
G01*
X89874997Y-75012500D02*
X91125003Y-75012500D01*
G75*
G02*
X91375000Y-75262497I0J-249997D01*
G01*
X91375000Y-75887503D01*
G75*
G02*
X91125003Y-76137500I-249997J0D01*
G01*
X89874997Y-76137500D01*
G75*
G02*
X89625000Y-75887503I0J249997D01*
G01*
X89625000Y-75262497D01*
G75*
G02*
X89874997Y-75012500I249997J0D01*
G01*
G37*
G04 #@! TD*
G04 #@! TO.C,R24*
G36*
G01*
X87374997Y-77937500D02*
X88625003Y-77937500D01*
G75*
G02*
X88875000Y-78187497I0J-249997D01*
G01*
X88875000Y-78812503D01*
G75*
G02*
X88625003Y-79062500I-249997J0D01*
G01*
X87374997Y-79062500D01*
G75*
G02*
X87125000Y-78812503I0J249997D01*
G01*
X87125000Y-78187497D01*
G75*
G02*
X87374997Y-77937500I249997J0D01*
G01*
G37*
G36*
G01*
X87374997Y-75012500D02*
X88625003Y-75012500D01*
G75*
G02*
X88875000Y-75262497I0J-249997D01*
G01*
X88875000Y-75887503D01*
G75*
G02*
X88625003Y-76137500I-249997J0D01*
G01*
X87374997Y-76137500D01*
G75*
G02*
X87125000Y-75887503I0J249997D01*
G01*
X87125000Y-75262497D01*
G75*
G02*
X87374997Y-75012500I249997J0D01*
G01*
G37*
G04 #@! TD*
G04 #@! TO.C,R23*
G36*
G01*
X84874997Y-77937500D02*
X86125003Y-77937500D01*
G75*
G02*
X86375000Y-78187497I0J-249997D01*
G01*
X86375000Y-78812503D01*
G75*
G02*
X86125003Y-79062500I-249997J0D01*
G01*
X84874997Y-79062500D01*
G75*
G02*
X84625000Y-78812503I0J249997D01*
G01*
X84625000Y-78187497D01*
G75*
G02*
X84874997Y-77937500I249997J0D01*
G01*
G37*
G36*
G01*
X84874997Y-75012500D02*
X86125003Y-75012500D01*
G75*
G02*
X86375000Y-75262497I0J-249997D01*
G01*
X86375000Y-75887503D01*
G75*
G02*
X86125003Y-76137500I-249997J0D01*
G01*
X84874997Y-76137500D01*
G75*
G02*
X84625000Y-75887503I0J249997D01*
G01*
X84625000Y-75262497D01*
G75*
G02*
X84874997Y-75012500I249997J0D01*
G01*
G37*
G04 #@! TD*
G04 #@! TO.C,R22*
G36*
G01*
X82374997Y-77937500D02*
X83625003Y-77937500D01*
G75*
G02*
X83875000Y-78187497I0J-249997D01*
G01*
X83875000Y-78812503D01*
G75*
G02*
X83625003Y-79062500I-249997J0D01*
G01*
X82374997Y-79062500D01*
G75*
G02*
X82125000Y-78812503I0J249997D01*
G01*
X82125000Y-78187497D01*
G75*
G02*
X82374997Y-77937500I249997J0D01*
G01*
G37*
G36*
G01*
X82374997Y-75012500D02*
X83625003Y-75012500D01*
G75*
G02*
X83875000Y-75262497I0J-249997D01*
G01*
X83875000Y-75887503D01*
G75*
G02*
X83625003Y-76137500I-249997J0D01*
G01*
X82374997Y-76137500D01*
G75*
G02*
X82125000Y-75887503I0J249997D01*
G01*
X82125000Y-75262497D01*
G75*
G02*
X82374997Y-75012500I249997J0D01*
G01*
G37*
G04 #@! TD*
G04 #@! TO.C,R21*
G36*
G01*
X79874997Y-77937500D02*
X81125003Y-77937500D01*
G75*
G02*
X81375000Y-78187497I0J-249997D01*
G01*
X81375000Y-78812503D01*
G75*
G02*
X81125003Y-79062500I-249997J0D01*
G01*
X79874997Y-79062500D01*
G75*
G02*
X79625000Y-78812503I0J249997D01*
G01*
X79625000Y-78187497D01*
G75*
G02*
X79874997Y-77937500I249997J0D01*
G01*
G37*
G36*
G01*
X79874997Y-75012500D02*
X81125003Y-75012500D01*
G75*
G02*
X81375000Y-75262497I0J-249997D01*
G01*
X81375000Y-75887503D01*
G75*
G02*
X81125003Y-76137500I-249997J0D01*
G01*
X79874997Y-76137500D01*
G75*
G02*
X79625000Y-75887503I0J249997D01*
G01*
X79625000Y-75262497D01*
G75*
G02*
X79874997Y-75012500I249997J0D01*
G01*
G37*
G04 #@! TD*
G04 #@! TO.C,R20*
G36*
G01*
X77374997Y-77937500D02*
X78625003Y-77937500D01*
G75*
G02*
X78875000Y-78187497I0J-249997D01*
G01*
X78875000Y-78812503D01*
G75*
G02*
X78625003Y-79062500I-249997J0D01*
G01*
X77374997Y-79062500D01*
G75*
G02*
X77125000Y-78812503I0J249997D01*
G01*
X77125000Y-78187497D01*
G75*
G02*
X77374997Y-77937500I249997J0D01*
G01*
G37*
G36*
G01*
X77374997Y-75012500D02*
X78625003Y-75012500D01*
G75*
G02*
X78875000Y-75262497I0J-249997D01*
G01*
X78875000Y-75887503D01*
G75*
G02*
X78625003Y-76137500I-249997J0D01*
G01*
X77374997Y-76137500D01*
G75*
G02*
X77125000Y-75887503I0J249997D01*
G01*
X77125000Y-75262497D01*
G75*
G02*
X77374997Y-75012500I249997J0D01*
G01*
G37*
G04 #@! TD*
G04 #@! TO.C,R19*
G36*
G01*
X74874997Y-77937500D02*
X76125003Y-77937500D01*
G75*
G02*
X76375000Y-78187497I0J-249997D01*
G01*
X76375000Y-78812503D01*
G75*
G02*
X76125003Y-79062500I-249997J0D01*
G01*
X74874997Y-79062500D01*
G75*
G02*
X74625000Y-78812503I0J249997D01*
G01*
X74625000Y-78187497D01*
G75*
G02*
X74874997Y-77937500I249997J0D01*
G01*
G37*
G36*
G01*
X74874997Y-75012500D02*
X76125003Y-75012500D01*
G75*
G02*
X76375000Y-75262497I0J-249997D01*
G01*
X76375000Y-75887503D01*
G75*
G02*
X76125003Y-76137500I-249997J0D01*
G01*
X74874997Y-76137500D01*
G75*
G02*
X74625000Y-75887503I0J249997D01*
G01*
X74625000Y-75262497D01*
G75*
G02*
X74874997Y-75012500I249997J0D01*
G01*
G37*
G04 #@! TD*
G04 #@! TO.C,R18*
G36*
G01*
X72374997Y-77937500D02*
X73625003Y-77937500D01*
G75*
G02*
X73875000Y-78187497I0J-249997D01*
G01*
X73875000Y-78812503D01*
G75*
G02*
X73625003Y-79062500I-249997J0D01*
G01*
X72374997Y-79062500D01*
G75*
G02*
X72125000Y-78812503I0J249997D01*
G01*
X72125000Y-78187497D01*
G75*
G02*
X72374997Y-77937500I249997J0D01*
G01*
G37*
G36*
G01*
X72374997Y-75012500D02*
X73625003Y-75012500D01*
G75*
G02*
X73875000Y-75262497I0J-249997D01*
G01*
X73875000Y-75887503D01*
G75*
G02*
X73625003Y-76137500I-249997J0D01*
G01*
X72374997Y-76137500D01*
G75*
G02*
X72125000Y-75887503I0J249997D01*
G01*
X72125000Y-75262497D01*
G75*
G02*
X72374997Y-75012500I249997J0D01*
G01*
G37*
G04 #@! TD*
G04 #@! TO.C,R17*
G36*
G01*
X69874997Y-77937500D02*
X71125003Y-77937500D01*
G75*
G02*
X71375000Y-78187497I0J-249997D01*
G01*
X71375000Y-78812503D01*
G75*
G02*
X71125003Y-79062500I-249997J0D01*
G01*
X69874997Y-79062500D01*
G75*
G02*
X69625000Y-78812503I0J249997D01*
G01*
X69625000Y-78187497D01*
G75*
G02*
X69874997Y-77937500I249997J0D01*
G01*
G37*
G36*
G01*
X69874997Y-75012500D02*
X71125003Y-75012500D01*
G75*
G02*
X71375000Y-75262497I0J-249997D01*
G01*
X71375000Y-75887503D01*
G75*
G02*
X71125003Y-76137500I-249997J0D01*
G01*
X69874997Y-76137500D01*
G75*
G02*
X69625000Y-75887503I0J249997D01*
G01*
X69625000Y-75262497D01*
G75*
G02*
X69874997Y-75012500I249997J0D01*
G01*
G37*
G04 #@! TD*
G04 #@! TO.C,R16*
G36*
G01*
X67374997Y-77937500D02*
X68625003Y-77937500D01*
G75*
G02*
X68875000Y-78187497I0J-249997D01*
G01*
X68875000Y-78812503D01*
G75*
G02*
X68625003Y-79062500I-249997J0D01*
G01*
X67374997Y-79062500D01*
G75*
G02*
X67125000Y-78812503I0J249997D01*
G01*
X67125000Y-78187497D01*
G75*
G02*
X67374997Y-77937500I249997J0D01*
G01*
G37*
G36*
G01*
X67374997Y-75012500D02*
X68625003Y-75012500D01*
G75*
G02*
X68875000Y-75262497I0J-249997D01*
G01*
X68875000Y-75887503D01*
G75*
G02*
X68625003Y-76137500I-249997J0D01*
G01*
X67374997Y-76137500D01*
G75*
G02*
X67125000Y-75887503I0J249997D01*
G01*
X67125000Y-75262497D01*
G75*
G02*
X67374997Y-75012500I249997J0D01*
G01*
G37*
G04 #@! TD*
G04 #@! TO.C,R15*
G36*
G01*
X64874997Y-77937500D02*
X66125003Y-77937500D01*
G75*
G02*
X66375000Y-78187497I0J-249997D01*
G01*
X66375000Y-78812503D01*
G75*
G02*
X66125003Y-79062500I-249997J0D01*
G01*
X64874997Y-79062500D01*
G75*
G02*
X64625000Y-78812503I0J249997D01*
G01*
X64625000Y-78187497D01*
G75*
G02*
X64874997Y-77937500I249997J0D01*
G01*
G37*
G36*
G01*
X64874997Y-75012500D02*
X66125003Y-75012500D01*
G75*
G02*
X66375000Y-75262497I0J-249997D01*
G01*
X66375000Y-75887503D01*
G75*
G02*
X66125003Y-76137500I-249997J0D01*
G01*
X64874997Y-76137500D01*
G75*
G02*
X64625000Y-75887503I0J249997D01*
G01*
X64625000Y-75262497D01*
G75*
G02*
X64874997Y-75012500I249997J0D01*
G01*
G37*
G04 #@! TD*
G04 #@! TO.C,R14*
G36*
G01*
X62374997Y-77937500D02*
X63625003Y-77937500D01*
G75*
G02*
X63875000Y-78187497I0J-249997D01*
G01*
X63875000Y-78812503D01*
G75*
G02*
X63625003Y-79062500I-249997J0D01*
G01*
X62374997Y-79062500D01*
G75*
G02*
X62125000Y-78812503I0J249997D01*
G01*
X62125000Y-78187497D01*
G75*
G02*
X62374997Y-77937500I249997J0D01*
G01*
G37*
G36*
G01*
X62374997Y-75012500D02*
X63625003Y-75012500D01*
G75*
G02*
X63875000Y-75262497I0J-249997D01*
G01*
X63875000Y-75887503D01*
G75*
G02*
X63625003Y-76137500I-249997J0D01*
G01*
X62374997Y-76137500D01*
G75*
G02*
X62125000Y-75887503I0J249997D01*
G01*
X62125000Y-75262497D01*
G75*
G02*
X62374997Y-75012500I249997J0D01*
G01*
G37*
G04 #@! TD*
G04 #@! TO.C,R13*
G36*
G01*
X59874997Y-77937500D02*
X61125003Y-77937500D01*
G75*
G02*
X61375000Y-78187497I0J-249997D01*
G01*
X61375000Y-78812503D01*
G75*
G02*
X61125003Y-79062500I-249997J0D01*
G01*
X59874997Y-79062500D01*
G75*
G02*
X59625000Y-78812503I0J249997D01*
G01*
X59625000Y-78187497D01*
G75*
G02*
X59874997Y-77937500I249997J0D01*
G01*
G37*
G36*
G01*
X59874997Y-75012500D02*
X61125003Y-75012500D01*
G75*
G02*
X61375000Y-75262497I0J-249997D01*
G01*
X61375000Y-75887503D01*
G75*
G02*
X61125003Y-76137500I-249997J0D01*
G01*
X59874997Y-76137500D01*
G75*
G02*
X59625000Y-75887503I0J249997D01*
G01*
X59625000Y-75262497D01*
G75*
G02*
X59874997Y-75012500I249997J0D01*
G01*
G37*
G04 #@! TD*
G04 #@! TO.C,R12*
G36*
G01*
X57374997Y-77937500D02*
X58625003Y-77937500D01*
G75*
G02*
X58875000Y-78187497I0J-249997D01*
G01*
X58875000Y-78812503D01*
G75*
G02*
X58625003Y-79062500I-249997J0D01*
G01*
X57374997Y-79062500D01*
G75*
G02*
X57125000Y-78812503I0J249997D01*
G01*
X57125000Y-78187497D01*
G75*
G02*
X57374997Y-77937500I249997J0D01*
G01*
G37*
G36*
G01*
X57374997Y-75012500D02*
X58625003Y-75012500D01*
G75*
G02*
X58875000Y-75262497I0J-249997D01*
G01*
X58875000Y-75887503D01*
G75*
G02*
X58625003Y-76137500I-249997J0D01*
G01*
X57374997Y-76137500D01*
G75*
G02*
X57125000Y-75887503I0J249997D01*
G01*
X57125000Y-75262497D01*
G75*
G02*
X57374997Y-75012500I249997J0D01*
G01*
G37*
G04 #@! TD*
G04 #@! TO.C,R11*
G36*
G01*
X54874997Y-77937500D02*
X56125003Y-77937500D01*
G75*
G02*
X56375000Y-78187497I0J-249997D01*
G01*
X56375000Y-78812503D01*
G75*
G02*
X56125003Y-79062500I-249997J0D01*
G01*
X54874997Y-79062500D01*
G75*
G02*
X54625000Y-78812503I0J249997D01*
G01*
X54625000Y-78187497D01*
G75*
G02*
X54874997Y-77937500I249997J0D01*
G01*
G37*
G36*
G01*
X54874997Y-75012500D02*
X56125003Y-75012500D01*
G75*
G02*
X56375000Y-75262497I0J-249997D01*
G01*
X56375000Y-75887503D01*
G75*
G02*
X56125003Y-76137500I-249997J0D01*
G01*
X54874997Y-76137500D01*
G75*
G02*
X54625000Y-75887503I0J249997D01*
G01*
X54625000Y-75262497D01*
G75*
G02*
X54874997Y-75012500I249997J0D01*
G01*
G37*
G04 #@! TD*
G04 #@! TO.C,R10*
G36*
G01*
X52374997Y-77937500D02*
X53625003Y-77937500D01*
G75*
G02*
X53875000Y-78187497I0J-249997D01*
G01*
X53875000Y-78812503D01*
G75*
G02*
X53625003Y-79062500I-249997J0D01*
G01*
X52374997Y-79062500D01*
G75*
G02*
X52125000Y-78812503I0J249997D01*
G01*
X52125000Y-78187497D01*
G75*
G02*
X52374997Y-77937500I249997J0D01*
G01*
G37*
G36*
G01*
X52374997Y-75012500D02*
X53625003Y-75012500D01*
G75*
G02*
X53875000Y-75262497I0J-249997D01*
G01*
X53875000Y-75887503D01*
G75*
G02*
X53625003Y-76137500I-249997J0D01*
G01*
X52374997Y-76137500D01*
G75*
G02*
X52125000Y-75887503I0J249997D01*
G01*
X52125000Y-75262497D01*
G75*
G02*
X52374997Y-75012500I249997J0D01*
G01*
G37*
G04 #@! TD*
G04 #@! TO.C,R9*
G36*
G01*
X49874997Y-77862500D02*
X51125003Y-77862500D01*
G75*
G02*
X51375000Y-78112497I0J-249997D01*
G01*
X51375000Y-78737503D01*
G75*
G02*
X51125003Y-78987500I-249997J0D01*
G01*
X49874997Y-78987500D01*
G75*
G02*
X49625000Y-78737503I0J249997D01*
G01*
X49625000Y-78112497D01*
G75*
G02*
X49874997Y-77862500I249997J0D01*
G01*
G37*
G36*
G01*
X49874997Y-74937500D02*
X51125003Y-74937500D01*
G75*
G02*
X51375000Y-75187497I0J-249997D01*
G01*
X51375000Y-75812503D01*
G75*
G02*
X51125003Y-76062500I-249997J0D01*
G01*
X49874997Y-76062500D01*
G75*
G02*
X49625000Y-75812503I0J249997D01*
G01*
X49625000Y-75187497D01*
G75*
G02*
X49874997Y-74937500I249997J0D01*
G01*
G37*
G04 #@! TD*
G04 #@! TO.C,R8*
G36*
G01*
X47374997Y-77862500D02*
X48625003Y-77862500D01*
G75*
G02*
X48875000Y-78112497I0J-249997D01*
G01*
X48875000Y-78737503D01*
G75*
G02*
X48625003Y-78987500I-249997J0D01*
G01*
X47374997Y-78987500D01*
G75*
G02*
X47125000Y-78737503I0J249997D01*
G01*
X47125000Y-78112497D01*
G75*
G02*
X47374997Y-77862500I249997J0D01*
G01*
G37*
G36*
G01*
X47374997Y-74937500D02*
X48625003Y-74937500D01*
G75*
G02*
X48875000Y-75187497I0J-249997D01*
G01*
X48875000Y-75812503D01*
G75*
G02*
X48625003Y-76062500I-249997J0D01*
G01*
X47374997Y-76062500D01*
G75*
G02*
X47125000Y-75812503I0J249997D01*
G01*
X47125000Y-75187497D01*
G75*
G02*
X47374997Y-74937500I249997J0D01*
G01*
G37*
G04 #@! TD*
G04 #@! TO.C,R7*
G36*
G01*
X44874997Y-77862500D02*
X46125003Y-77862500D01*
G75*
G02*
X46375000Y-78112497I0J-249997D01*
G01*
X46375000Y-78737503D01*
G75*
G02*
X46125003Y-78987500I-249997J0D01*
G01*
X44874997Y-78987500D01*
G75*
G02*
X44625000Y-78737503I0J249997D01*
G01*
X44625000Y-78112497D01*
G75*
G02*
X44874997Y-77862500I249997J0D01*
G01*
G37*
G36*
G01*
X44874997Y-74937500D02*
X46125003Y-74937500D01*
G75*
G02*
X46375000Y-75187497I0J-249997D01*
G01*
X46375000Y-75812503D01*
G75*
G02*
X46125003Y-76062500I-249997J0D01*
G01*
X44874997Y-76062500D01*
G75*
G02*
X44625000Y-75812503I0J249997D01*
G01*
X44625000Y-75187497D01*
G75*
G02*
X44874997Y-74937500I249997J0D01*
G01*
G37*
G04 #@! TD*
G04 #@! TO.C,R6*
G36*
G01*
X42374997Y-77862500D02*
X43625003Y-77862500D01*
G75*
G02*
X43875000Y-78112497I0J-249997D01*
G01*
X43875000Y-78737503D01*
G75*
G02*
X43625003Y-78987500I-249997J0D01*
G01*
X42374997Y-78987500D01*
G75*
G02*
X42125000Y-78737503I0J249997D01*
G01*
X42125000Y-78112497D01*
G75*
G02*
X42374997Y-77862500I249997J0D01*
G01*
G37*
G36*
G01*
X42374997Y-74937500D02*
X43625003Y-74937500D01*
G75*
G02*
X43875000Y-75187497I0J-249997D01*
G01*
X43875000Y-75812503D01*
G75*
G02*
X43625003Y-76062500I-249997J0D01*
G01*
X42374997Y-76062500D01*
G75*
G02*
X42125000Y-75812503I0J249997D01*
G01*
X42125000Y-75187497D01*
G75*
G02*
X42374997Y-74937500I249997J0D01*
G01*
G37*
G04 #@! TD*
G04 #@! TO.C,R5*
G36*
G01*
X39874997Y-77862500D02*
X41125003Y-77862500D01*
G75*
G02*
X41375000Y-78112497I0J-249997D01*
G01*
X41375000Y-78737503D01*
G75*
G02*
X41125003Y-78987500I-249997J0D01*
G01*
X39874997Y-78987500D01*
G75*
G02*
X39625000Y-78737503I0J249997D01*
G01*
X39625000Y-78112497D01*
G75*
G02*
X39874997Y-77862500I249997J0D01*
G01*
G37*
G36*
G01*
X39874997Y-74937500D02*
X41125003Y-74937500D01*
G75*
G02*
X41375000Y-75187497I0J-249997D01*
G01*
X41375000Y-75812503D01*
G75*
G02*
X41125003Y-76062500I-249997J0D01*
G01*
X39874997Y-76062500D01*
G75*
G02*
X39625000Y-75812503I0J249997D01*
G01*
X39625000Y-75187497D01*
G75*
G02*
X39874997Y-74937500I249997J0D01*
G01*
G37*
G04 #@! TD*
G04 #@! TO.C,R4*
G36*
G01*
X37374997Y-77900000D02*
X38625003Y-77900000D01*
G75*
G02*
X38875000Y-78149997I0J-249997D01*
G01*
X38875000Y-78775003D01*
G75*
G02*
X38625003Y-79025000I-249997J0D01*
G01*
X37374997Y-79025000D01*
G75*
G02*
X37125000Y-78775003I0J249997D01*
G01*
X37125000Y-78149997D01*
G75*
G02*
X37374997Y-77900000I249997J0D01*
G01*
G37*
G36*
G01*
X37374997Y-74975000D02*
X38625003Y-74975000D01*
G75*
G02*
X38875000Y-75224997I0J-249997D01*
G01*
X38875000Y-75850003D01*
G75*
G02*
X38625003Y-76100000I-249997J0D01*
G01*
X37374997Y-76100000D01*
G75*
G02*
X37125000Y-75850003I0J249997D01*
G01*
X37125000Y-75224997D01*
G75*
G02*
X37374997Y-74975000I249997J0D01*
G01*
G37*
G04 #@! TD*
G04 #@! TO.C,R3*
G36*
G01*
X34874997Y-77900000D02*
X36125003Y-77900000D01*
G75*
G02*
X36375000Y-78149997I0J-249997D01*
G01*
X36375000Y-78775003D01*
G75*
G02*
X36125003Y-79025000I-249997J0D01*
G01*
X34874997Y-79025000D01*
G75*
G02*
X34625000Y-78775003I0J249997D01*
G01*
X34625000Y-78149997D01*
G75*
G02*
X34874997Y-77900000I249997J0D01*
G01*
G37*
G36*
G01*
X34874997Y-74975000D02*
X36125003Y-74975000D01*
G75*
G02*
X36375000Y-75224997I0J-249997D01*
G01*
X36375000Y-75850003D01*
G75*
G02*
X36125003Y-76100000I-249997J0D01*
G01*
X34874997Y-76100000D01*
G75*
G02*
X34625000Y-75850003I0J249997D01*
G01*
X34625000Y-75224997D01*
G75*
G02*
X34874997Y-74975000I249997J0D01*
G01*
G37*
G04 #@! TD*
G04 #@! TO.C,R2*
G36*
G01*
X32374997Y-77862500D02*
X33625003Y-77862500D01*
G75*
G02*
X33875000Y-78112497I0J-249997D01*
G01*
X33875000Y-78737503D01*
G75*
G02*
X33625003Y-78987500I-249997J0D01*
G01*
X32374997Y-78987500D01*
G75*
G02*
X32125000Y-78737503I0J249997D01*
G01*
X32125000Y-78112497D01*
G75*
G02*
X32374997Y-77862500I249997J0D01*
G01*
G37*
G36*
G01*
X32374997Y-74937500D02*
X33625003Y-74937500D01*
G75*
G02*
X33875000Y-75187497I0J-249997D01*
G01*
X33875000Y-75812503D01*
G75*
G02*
X33625003Y-76062500I-249997J0D01*
G01*
X32374997Y-76062500D01*
G75*
G02*
X32125000Y-75812503I0J249997D01*
G01*
X32125000Y-75187497D01*
G75*
G02*
X32374997Y-74937500I249997J0D01*
G01*
G37*
G04 #@! TD*
G04 #@! TO.C,R1*
G36*
G01*
X29874997Y-77862500D02*
X31125003Y-77862500D01*
G75*
G02*
X31375000Y-78112497I0J-249997D01*
G01*
X31375000Y-78737503D01*
G75*
G02*
X31125003Y-78987500I-249997J0D01*
G01*
X29874997Y-78987500D01*
G75*
G02*
X29625000Y-78737503I0J249997D01*
G01*
X29625000Y-78112497D01*
G75*
G02*
X29874997Y-77862500I249997J0D01*
G01*
G37*
G36*
G01*
X29874997Y-74937500D02*
X31125003Y-74937500D01*
G75*
G02*
X31375000Y-75187497I0J-249997D01*
G01*
X31375000Y-75812503D01*
G75*
G02*
X31125003Y-76062500I-249997J0D01*
G01*
X29874997Y-76062500D01*
G75*
G02*
X29625000Y-75812503I0J249997D01*
G01*
X29625000Y-75187497D01*
G75*
G02*
X29874997Y-74937500I249997J0D01*
G01*
G37*
G04 #@! TD*
G04 #@! TO.C,D32*
G36*
G01*
X107375000Y-70375000D02*
X108625000Y-70375000D01*
G75*
G02*
X108875000Y-70625000I0J-250000D01*
G01*
X108875000Y-71375000D01*
G75*
G02*
X108625000Y-71625000I-250000J0D01*
G01*
X107375000Y-71625000D01*
G75*
G02*
X107125000Y-71375000I0J250000D01*
G01*
X107125000Y-70625000D01*
G75*
G02*
X107375000Y-70375000I250000J0D01*
G01*
G37*
G36*
G01*
X107375000Y-67575000D02*
X108625000Y-67575000D01*
G75*
G02*
X108875000Y-67825000I0J-250000D01*
G01*
X108875000Y-68575000D01*
G75*
G02*
X108625000Y-68825000I-250000J0D01*
G01*
X107375000Y-68825000D01*
G75*
G02*
X107125000Y-68575000I0J250000D01*
G01*
X107125000Y-67825000D01*
G75*
G02*
X107375000Y-67575000I250000J0D01*
G01*
G37*
G04 #@! TD*
G04 #@! TO.C,D31*
G36*
G01*
X104875000Y-70375000D02*
X106125000Y-70375000D01*
G75*
G02*
X106375000Y-70625000I0J-250000D01*
G01*
X106375000Y-71375000D01*
G75*
G02*
X106125000Y-71625000I-250000J0D01*
G01*
X104875000Y-71625000D01*
G75*
G02*
X104625000Y-71375000I0J250000D01*
G01*
X104625000Y-70625000D01*
G75*
G02*
X104875000Y-70375000I250000J0D01*
G01*
G37*
G36*
G01*
X104875000Y-67575000D02*
X106125000Y-67575000D01*
G75*
G02*
X106375000Y-67825000I0J-250000D01*
G01*
X106375000Y-68575000D01*
G75*
G02*
X106125000Y-68825000I-250000J0D01*
G01*
X104875000Y-68825000D01*
G75*
G02*
X104625000Y-68575000I0J250000D01*
G01*
X104625000Y-67825000D01*
G75*
G02*
X104875000Y-67575000I250000J0D01*
G01*
G37*
G04 #@! TD*
G04 #@! TO.C,D30*
G36*
G01*
X102375000Y-70375000D02*
X103625000Y-70375000D01*
G75*
G02*
X103875000Y-70625000I0J-250000D01*
G01*
X103875000Y-71375000D01*
G75*
G02*
X103625000Y-71625000I-250000J0D01*
G01*
X102375000Y-71625000D01*
G75*
G02*
X102125000Y-71375000I0J250000D01*
G01*
X102125000Y-70625000D01*
G75*
G02*
X102375000Y-70375000I250000J0D01*
G01*
G37*
G36*
G01*
X102375000Y-67575000D02*
X103625000Y-67575000D01*
G75*
G02*
X103875000Y-67825000I0J-250000D01*
G01*
X103875000Y-68575000D01*
G75*
G02*
X103625000Y-68825000I-250000J0D01*
G01*
X102375000Y-68825000D01*
G75*
G02*
X102125000Y-68575000I0J250000D01*
G01*
X102125000Y-67825000D01*
G75*
G02*
X102375000Y-67575000I250000J0D01*
G01*
G37*
G04 #@! TD*
G04 #@! TO.C,D29*
G36*
G01*
X99875000Y-70375000D02*
X101125000Y-70375000D01*
G75*
G02*
X101375000Y-70625000I0J-250000D01*
G01*
X101375000Y-71375000D01*
G75*
G02*
X101125000Y-71625000I-250000J0D01*
G01*
X99875000Y-71625000D01*
G75*
G02*
X99625000Y-71375000I0J250000D01*
G01*
X99625000Y-70625000D01*
G75*
G02*
X99875000Y-70375000I250000J0D01*
G01*
G37*
G36*
G01*
X99875000Y-67575000D02*
X101125000Y-67575000D01*
G75*
G02*
X101375000Y-67825000I0J-250000D01*
G01*
X101375000Y-68575000D01*
G75*
G02*
X101125000Y-68825000I-250000J0D01*
G01*
X99875000Y-68825000D01*
G75*
G02*
X99625000Y-68575000I0J250000D01*
G01*
X99625000Y-67825000D01*
G75*
G02*
X99875000Y-67575000I250000J0D01*
G01*
G37*
G04 #@! TD*
G04 #@! TO.C,D28*
G36*
G01*
X97375000Y-70375000D02*
X98625000Y-70375000D01*
G75*
G02*
X98875000Y-70625000I0J-250000D01*
G01*
X98875000Y-71375000D01*
G75*
G02*
X98625000Y-71625000I-250000J0D01*
G01*
X97375000Y-71625000D01*
G75*
G02*
X97125000Y-71375000I0J250000D01*
G01*
X97125000Y-70625000D01*
G75*
G02*
X97375000Y-70375000I250000J0D01*
G01*
G37*
G36*
G01*
X97375000Y-67575000D02*
X98625000Y-67575000D01*
G75*
G02*
X98875000Y-67825000I0J-250000D01*
G01*
X98875000Y-68575000D01*
G75*
G02*
X98625000Y-68825000I-250000J0D01*
G01*
X97375000Y-68825000D01*
G75*
G02*
X97125000Y-68575000I0J250000D01*
G01*
X97125000Y-67825000D01*
G75*
G02*
X97375000Y-67575000I250000J0D01*
G01*
G37*
G04 #@! TD*
G04 #@! TO.C,D27*
G36*
G01*
X94875000Y-70375000D02*
X96125000Y-70375000D01*
G75*
G02*
X96375000Y-70625000I0J-250000D01*
G01*
X96375000Y-71375000D01*
G75*
G02*
X96125000Y-71625000I-250000J0D01*
G01*
X94875000Y-71625000D01*
G75*
G02*
X94625000Y-71375000I0J250000D01*
G01*
X94625000Y-70625000D01*
G75*
G02*
X94875000Y-70375000I250000J0D01*
G01*
G37*
G36*
G01*
X94875000Y-67575000D02*
X96125000Y-67575000D01*
G75*
G02*
X96375000Y-67825000I0J-250000D01*
G01*
X96375000Y-68575000D01*
G75*
G02*
X96125000Y-68825000I-250000J0D01*
G01*
X94875000Y-68825000D01*
G75*
G02*
X94625000Y-68575000I0J250000D01*
G01*
X94625000Y-67825000D01*
G75*
G02*
X94875000Y-67575000I250000J0D01*
G01*
G37*
G04 #@! TD*
G04 #@! TO.C,D26*
G36*
G01*
X92375000Y-70375000D02*
X93625000Y-70375000D01*
G75*
G02*
X93875000Y-70625000I0J-250000D01*
G01*
X93875000Y-71375000D01*
G75*
G02*
X93625000Y-71625000I-250000J0D01*
G01*
X92375000Y-71625000D01*
G75*
G02*
X92125000Y-71375000I0J250000D01*
G01*
X92125000Y-70625000D01*
G75*
G02*
X92375000Y-70375000I250000J0D01*
G01*
G37*
G36*
G01*
X92375000Y-67575000D02*
X93625000Y-67575000D01*
G75*
G02*
X93875000Y-67825000I0J-250000D01*
G01*
X93875000Y-68575000D01*
G75*
G02*
X93625000Y-68825000I-250000J0D01*
G01*
X92375000Y-68825000D01*
G75*
G02*
X92125000Y-68575000I0J250000D01*
G01*
X92125000Y-67825000D01*
G75*
G02*
X92375000Y-67575000I250000J0D01*
G01*
G37*
G04 #@! TD*
G04 #@! TO.C,D25*
G36*
G01*
X89875000Y-70375000D02*
X91125000Y-70375000D01*
G75*
G02*
X91375000Y-70625000I0J-250000D01*
G01*
X91375000Y-71375000D01*
G75*
G02*
X91125000Y-71625000I-250000J0D01*
G01*
X89875000Y-71625000D01*
G75*
G02*
X89625000Y-71375000I0J250000D01*
G01*
X89625000Y-70625000D01*
G75*
G02*
X89875000Y-70375000I250000J0D01*
G01*
G37*
G36*
G01*
X89875000Y-67575000D02*
X91125000Y-67575000D01*
G75*
G02*
X91375000Y-67825000I0J-250000D01*
G01*
X91375000Y-68575000D01*
G75*
G02*
X91125000Y-68825000I-250000J0D01*
G01*
X89875000Y-68825000D01*
G75*
G02*
X89625000Y-68575000I0J250000D01*
G01*
X89625000Y-67825000D01*
G75*
G02*
X89875000Y-67575000I250000J0D01*
G01*
G37*
G04 #@! TD*
G04 #@! TO.C,D24*
G36*
G01*
X87375000Y-70375000D02*
X88625000Y-70375000D01*
G75*
G02*
X88875000Y-70625000I0J-250000D01*
G01*
X88875000Y-71375000D01*
G75*
G02*
X88625000Y-71625000I-250000J0D01*
G01*
X87375000Y-71625000D01*
G75*
G02*
X87125000Y-71375000I0J250000D01*
G01*
X87125000Y-70625000D01*
G75*
G02*
X87375000Y-70375000I250000J0D01*
G01*
G37*
G36*
G01*
X87375000Y-67575000D02*
X88625000Y-67575000D01*
G75*
G02*
X88875000Y-67825000I0J-250000D01*
G01*
X88875000Y-68575000D01*
G75*
G02*
X88625000Y-68825000I-250000J0D01*
G01*
X87375000Y-68825000D01*
G75*
G02*
X87125000Y-68575000I0J250000D01*
G01*
X87125000Y-67825000D01*
G75*
G02*
X87375000Y-67575000I250000J0D01*
G01*
G37*
G04 #@! TD*
G04 #@! TO.C,D23*
G36*
G01*
X84875000Y-70375000D02*
X86125000Y-70375000D01*
G75*
G02*
X86375000Y-70625000I0J-250000D01*
G01*
X86375000Y-71375000D01*
G75*
G02*
X86125000Y-71625000I-250000J0D01*
G01*
X84875000Y-71625000D01*
G75*
G02*
X84625000Y-71375000I0J250000D01*
G01*
X84625000Y-70625000D01*
G75*
G02*
X84875000Y-70375000I250000J0D01*
G01*
G37*
G36*
G01*
X84875000Y-67575000D02*
X86125000Y-67575000D01*
G75*
G02*
X86375000Y-67825000I0J-250000D01*
G01*
X86375000Y-68575000D01*
G75*
G02*
X86125000Y-68825000I-250000J0D01*
G01*
X84875000Y-68825000D01*
G75*
G02*
X84625000Y-68575000I0J250000D01*
G01*
X84625000Y-67825000D01*
G75*
G02*
X84875000Y-67575000I250000J0D01*
G01*
G37*
G04 #@! TD*
G04 #@! TO.C,D22*
G36*
G01*
X82375000Y-70375000D02*
X83625000Y-70375000D01*
G75*
G02*
X83875000Y-70625000I0J-250000D01*
G01*
X83875000Y-71375000D01*
G75*
G02*
X83625000Y-71625000I-250000J0D01*
G01*
X82375000Y-71625000D01*
G75*
G02*
X82125000Y-71375000I0J250000D01*
G01*
X82125000Y-70625000D01*
G75*
G02*
X82375000Y-70375000I250000J0D01*
G01*
G37*
G36*
G01*
X82375000Y-67575000D02*
X83625000Y-67575000D01*
G75*
G02*
X83875000Y-67825000I0J-250000D01*
G01*
X83875000Y-68575000D01*
G75*
G02*
X83625000Y-68825000I-250000J0D01*
G01*
X82375000Y-68825000D01*
G75*
G02*
X82125000Y-68575000I0J250000D01*
G01*
X82125000Y-67825000D01*
G75*
G02*
X82375000Y-67575000I250000J0D01*
G01*
G37*
G04 #@! TD*
G04 #@! TO.C,D21*
G36*
G01*
X79875000Y-70375000D02*
X81125000Y-70375000D01*
G75*
G02*
X81375000Y-70625000I0J-250000D01*
G01*
X81375000Y-71375000D01*
G75*
G02*
X81125000Y-71625000I-250000J0D01*
G01*
X79875000Y-71625000D01*
G75*
G02*
X79625000Y-71375000I0J250000D01*
G01*
X79625000Y-70625000D01*
G75*
G02*
X79875000Y-70375000I250000J0D01*
G01*
G37*
G36*
G01*
X79875000Y-67575000D02*
X81125000Y-67575000D01*
G75*
G02*
X81375000Y-67825000I0J-250000D01*
G01*
X81375000Y-68575000D01*
G75*
G02*
X81125000Y-68825000I-250000J0D01*
G01*
X79875000Y-68825000D01*
G75*
G02*
X79625000Y-68575000I0J250000D01*
G01*
X79625000Y-67825000D01*
G75*
G02*
X79875000Y-67575000I250000J0D01*
G01*
G37*
G04 #@! TD*
G04 #@! TO.C,D20*
G36*
G01*
X77375000Y-70375000D02*
X78625000Y-70375000D01*
G75*
G02*
X78875000Y-70625000I0J-250000D01*
G01*
X78875000Y-71375000D01*
G75*
G02*
X78625000Y-71625000I-250000J0D01*
G01*
X77375000Y-71625000D01*
G75*
G02*
X77125000Y-71375000I0J250000D01*
G01*
X77125000Y-70625000D01*
G75*
G02*
X77375000Y-70375000I250000J0D01*
G01*
G37*
G36*
G01*
X77375000Y-67575000D02*
X78625000Y-67575000D01*
G75*
G02*
X78875000Y-67825000I0J-250000D01*
G01*
X78875000Y-68575000D01*
G75*
G02*
X78625000Y-68825000I-250000J0D01*
G01*
X77375000Y-68825000D01*
G75*
G02*
X77125000Y-68575000I0J250000D01*
G01*
X77125000Y-67825000D01*
G75*
G02*
X77375000Y-67575000I250000J0D01*
G01*
G37*
G04 #@! TD*
G04 #@! TO.C,D19*
G36*
G01*
X74875000Y-70375000D02*
X76125000Y-70375000D01*
G75*
G02*
X76375000Y-70625000I0J-250000D01*
G01*
X76375000Y-71375000D01*
G75*
G02*
X76125000Y-71625000I-250000J0D01*
G01*
X74875000Y-71625000D01*
G75*
G02*
X74625000Y-71375000I0J250000D01*
G01*
X74625000Y-70625000D01*
G75*
G02*
X74875000Y-70375000I250000J0D01*
G01*
G37*
G36*
G01*
X74875000Y-67575000D02*
X76125000Y-67575000D01*
G75*
G02*
X76375000Y-67825000I0J-250000D01*
G01*
X76375000Y-68575000D01*
G75*
G02*
X76125000Y-68825000I-250000J0D01*
G01*
X74875000Y-68825000D01*
G75*
G02*
X74625000Y-68575000I0J250000D01*
G01*
X74625000Y-67825000D01*
G75*
G02*
X74875000Y-67575000I250000J0D01*
G01*
G37*
G04 #@! TD*
G04 #@! TO.C,D18*
G36*
G01*
X72375000Y-70375000D02*
X73625000Y-70375000D01*
G75*
G02*
X73875000Y-70625000I0J-250000D01*
G01*
X73875000Y-71375000D01*
G75*
G02*
X73625000Y-71625000I-250000J0D01*
G01*
X72375000Y-71625000D01*
G75*
G02*
X72125000Y-71375000I0J250000D01*
G01*
X72125000Y-70625000D01*
G75*
G02*
X72375000Y-70375000I250000J0D01*
G01*
G37*
G36*
G01*
X72375000Y-67575000D02*
X73625000Y-67575000D01*
G75*
G02*
X73875000Y-67825000I0J-250000D01*
G01*
X73875000Y-68575000D01*
G75*
G02*
X73625000Y-68825000I-250000J0D01*
G01*
X72375000Y-68825000D01*
G75*
G02*
X72125000Y-68575000I0J250000D01*
G01*
X72125000Y-67825000D01*
G75*
G02*
X72375000Y-67575000I250000J0D01*
G01*
G37*
G04 #@! TD*
G04 #@! TO.C,D17*
G36*
G01*
X69875000Y-70375000D02*
X71125000Y-70375000D01*
G75*
G02*
X71375000Y-70625000I0J-250000D01*
G01*
X71375000Y-71375000D01*
G75*
G02*
X71125000Y-71625000I-250000J0D01*
G01*
X69875000Y-71625000D01*
G75*
G02*
X69625000Y-71375000I0J250000D01*
G01*
X69625000Y-70625000D01*
G75*
G02*
X69875000Y-70375000I250000J0D01*
G01*
G37*
G36*
G01*
X69875000Y-67575000D02*
X71125000Y-67575000D01*
G75*
G02*
X71375000Y-67825000I0J-250000D01*
G01*
X71375000Y-68575000D01*
G75*
G02*
X71125000Y-68825000I-250000J0D01*
G01*
X69875000Y-68825000D01*
G75*
G02*
X69625000Y-68575000I0J250000D01*
G01*
X69625000Y-67825000D01*
G75*
G02*
X69875000Y-67575000I250000J0D01*
G01*
G37*
G04 #@! TD*
G04 #@! TO.C,D16*
G36*
G01*
X67375000Y-70375000D02*
X68625000Y-70375000D01*
G75*
G02*
X68875000Y-70625000I0J-250000D01*
G01*
X68875000Y-71375000D01*
G75*
G02*
X68625000Y-71625000I-250000J0D01*
G01*
X67375000Y-71625000D01*
G75*
G02*
X67125000Y-71375000I0J250000D01*
G01*
X67125000Y-70625000D01*
G75*
G02*
X67375000Y-70375000I250000J0D01*
G01*
G37*
G36*
G01*
X67375000Y-67575000D02*
X68625000Y-67575000D01*
G75*
G02*
X68875000Y-67825000I0J-250000D01*
G01*
X68875000Y-68575000D01*
G75*
G02*
X68625000Y-68825000I-250000J0D01*
G01*
X67375000Y-68825000D01*
G75*
G02*
X67125000Y-68575000I0J250000D01*
G01*
X67125000Y-67825000D01*
G75*
G02*
X67375000Y-67575000I250000J0D01*
G01*
G37*
G04 #@! TD*
G04 #@! TO.C,D15*
G36*
G01*
X64875000Y-70375000D02*
X66125000Y-70375000D01*
G75*
G02*
X66375000Y-70625000I0J-250000D01*
G01*
X66375000Y-71375000D01*
G75*
G02*
X66125000Y-71625000I-250000J0D01*
G01*
X64875000Y-71625000D01*
G75*
G02*
X64625000Y-71375000I0J250000D01*
G01*
X64625000Y-70625000D01*
G75*
G02*
X64875000Y-70375000I250000J0D01*
G01*
G37*
G36*
G01*
X64875000Y-67575000D02*
X66125000Y-67575000D01*
G75*
G02*
X66375000Y-67825000I0J-250000D01*
G01*
X66375000Y-68575000D01*
G75*
G02*
X66125000Y-68825000I-250000J0D01*
G01*
X64875000Y-68825000D01*
G75*
G02*
X64625000Y-68575000I0J250000D01*
G01*
X64625000Y-67825000D01*
G75*
G02*
X64875000Y-67575000I250000J0D01*
G01*
G37*
G04 #@! TD*
G04 #@! TO.C,D14*
G36*
G01*
X62375000Y-70375000D02*
X63625000Y-70375000D01*
G75*
G02*
X63875000Y-70625000I0J-250000D01*
G01*
X63875000Y-71375000D01*
G75*
G02*
X63625000Y-71625000I-250000J0D01*
G01*
X62375000Y-71625000D01*
G75*
G02*
X62125000Y-71375000I0J250000D01*
G01*
X62125000Y-70625000D01*
G75*
G02*
X62375000Y-70375000I250000J0D01*
G01*
G37*
G36*
G01*
X62375000Y-67575000D02*
X63625000Y-67575000D01*
G75*
G02*
X63875000Y-67825000I0J-250000D01*
G01*
X63875000Y-68575000D01*
G75*
G02*
X63625000Y-68825000I-250000J0D01*
G01*
X62375000Y-68825000D01*
G75*
G02*
X62125000Y-68575000I0J250000D01*
G01*
X62125000Y-67825000D01*
G75*
G02*
X62375000Y-67575000I250000J0D01*
G01*
G37*
G04 #@! TD*
G04 #@! TO.C,D13*
G36*
G01*
X59875000Y-70375000D02*
X61125000Y-70375000D01*
G75*
G02*
X61375000Y-70625000I0J-250000D01*
G01*
X61375000Y-71375000D01*
G75*
G02*
X61125000Y-71625000I-250000J0D01*
G01*
X59875000Y-71625000D01*
G75*
G02*
X59625000Y-71375000I0J250000D01*
G01*
X59625000Y-70625000D01*
G75*
G02*
X59875000Y-70375000I250000J0D01*
G01*
G37*
G36*
G01*
X59875000Y-67575000D02*
X61125000Y-67575000D01*
G75*
G02*
X61375000Y-67825000I0J-250000D01*
G01*
X61375000Y-68575000D01*
G75*
G02*
X61125000Y-68825000I-250000J0D01*
G01*
X59875000Y-68825000D01*
G75*
G02*
X59625000Y-68575000I0J250000D01*
G01*
X59625000Y-67825000D01*
G75*
G02*
X59875000Y-67575000I250000J0D01*
G01*
G37*
G04 #@! TD*
G04 #@! TO.C,D12*
G36*
G01*
X57375000Y-70375000D02*
X58625000Y-70375000D01*
G75*
G02*
X58875000Y-70625000I0J-250000D01*
G01*
X58875000Y-71375000D01*
G75*
G02*
X58625000Y-71625000I-250000J0D01*
G01*
X57375000Y-71625000D01*
G75*
G02*
X57125000Y-71375000I0J250000D01*
G01*
X57125000Y-70625000D01*
G75*
G02*
X57375000Y-70375000I250000J0D01*
G01*
G37*
G36*
G01*
X57375000Y-67575000D02*
X58625000Y-67575000D01*
G75*
G02*
X58875000Y-67825000I0J-250000D01*
G01*
X58875000Y-68575000D01*
G75*
G02*
X58625000Y-68825000I-250000J0D01*
G01*
X57375000Y-68825000D01*
G75*
G02*
X57125000Y-68575000I0J250000D01*
G01*
X57125000Y-67825000D01*
G75*
G02*
X57375000Y-67575000I250000J0D01*
G01*
G37*
G04 #@! TD*
G04 #@! TO.C,D11*
G36*
G01*
X54875000Y-70375000D02*
X56125000Y-70375000D01*
G75*
G02*
X56375000Y-70625000I0J-250000D01*
G01*
X56375000Y-71375000D01*
G75*
G02*
X56125000Y-71625000I-250000J0D01*
G01*
X54875000Y-71625000D01*
G75*
G02*
X54625000Y-71375000I0J250000D01*
G01*
X54625000Y-70625000D01*
G75*
G02*
X54875000Y-70375000I250000J0D01*
G01*
G37*
G36*
G01*
X54875000Y-67575000D02*
X56125000Y-67575000D01*
G75*
G02*
X56375000Y-67825000I0J-250000D01*
G01*
X56375000Y-68575000D01*
G75*
G02*
X56125000Y-68825000I-250000J0D01*
G01*
X54875000Y-68825000D01*
G75*
G02*
X54625000Y-68575000I0J250000D01*
G01*
X54625000Y-67825000D01*
G75*
G02*
X54875000Y-67575000I250000J0D01*
G01*
G37*
G04 #@! TD*
G04 #@! TO.C,D10*
G36*
G01*
X52375000Y-70375000D02*
X53625000Y-70375000D01*
G75*
G02*
X53875000Y-70625000I0J-250000D01*
G01*
X53875000Y-71375000D01*
G75*
G02*
X53625000Y-71625000I-250000J0D01*
G01*
X52375000Y-71625000D01*
G75*
G02*
X52125000Y-71375000I0J250000D01*
G01*
X52125000Y-70625000D01*
G75*
G02*
X52375000Y-70375000I250000J0D01*
G01*
G37*
G36*
G01*
X52375000Y-67575000D02*
X53625000Y-67575000D01*
G75*
G02*
X53875000Y-67825000I0J-250000D01*
G01*
X53875000Y-68575000D01*
G75*
G02*
X53625000Y-68825000I-250000J0D01*
G01*
X52375000Y-68825000D01*
G75*
G02*
X52125000Y-68575000I0J250000D01*
G01*
X52125000Y-67825000D01*
G75*
G02*
X52375000Y-67575000I250000J0D01*
G01*
G37*
G04 #@! TD*
G04 #@! TO.C,D9*
G36*
G01*
X49875000Y-70375000D02*
X51125000Y-70375000D01*
G75*
G02*
X51375000Y-70625000I0J-250000D01*
G01*
X51375000Y-71375000D01*
G75*
G02*
X51125000Y-71625000I-250000J0D01*
G01*
X49875000Y-71625000D01*
G75*
G02*
X49625000Y-71375000I0J250000D01*
G01*
X49625000Y-70625000D01*
G75*
G02*
X49875000Y-70375000I250000J0D01*
G01*
G37*
G36*
G01*
X49875000Y-67575000D02*
X51125000Y-67575000D01*
G75*
G02*
X51375000Y-67825000I0J-250000D01*
G01*
X51375000Y-68575000D01*
G75*
G02*
X51125000Y-68825000I-250000J0D01*
G01*
X49875000Y-68825000D01*
G75*
G02*
X49625000Y-68575000I0J250000D01*
G01*
X49625000Y-67825000D01*
G75*
G02*
X49875000Y-67575000I250000J0D01*
G01*
G37*
G04 #@! TD*
G04 #@! TO.C,D8*
G36*
G01*
X47375000Y-70375000D02*
X48625000Y-70375000D01*
G75*
G02*
X48875000Y-70625000I0J-250000D01*
G01*
X48875000Y-71375000D01*
G75*
G02*
X48625000Y-71625000I-250000J0D01*
G01*
X47375000Y-71625000D01*
G75*
G02*
X47125000Y-71375000I0J250000D01*
G01*
X47125000Y-70625000D01*
G75*
G02*
X47375000Y-70375000I250000J0D01*
G01*
G37*
G36*
G01*
X47375000Y-67575000D02*
X48625000Y-67575000D01*
G75*
G02*
X48875000Y-67825000I0J-250000D01*
G01*
X48875000Y-68575000D01*
G75*
G02*
X48625000Y-68825000I-250000J0D01*
G01*
X47375000Y-68825000D01*
G75*
G02*
X47125000Y-68575000I0J250000D01*
G01*
X47125000Y-67825000D01*
G75*
G02*
X47375000Y-67575000I250000J0D01*
G01*
G37*
G04 #@! TD*
G04 #@! TO.C,D7*
G36*
G01*
X44875000Y-70375000D02*
X46125000Y-70375000D01*
G75*
G02*
X46375000Y-70625000I0J-250000D01*
G01*
X46375000Y-71375000D01*
G75*
G02*
X46125000Y-71625000I-250000J0D01*
G01*
X44875000Y-71625000D01*
G75*
G02*
X44625000Y-71375000I0J250000D01*
G01*
X44625000Y-70625000D01*
G75*
G02*
X44875000Y-70375000I250000J0D01*
G01*
G37*
G36*
G01*
X44875000Y-67575000D02*
X46125000Y-67575000D01*
G75*
G02*
X46375000Y-67825000I0J-250000D01*
G01*
X46375000Y-68575000D01*
G75*
G02*
X46125000Y-68825000I-250000J0D01*
G01*
X44875000Y-68825000D01*
G75*
G02*
X44625000Y-68575000I0J250000D01*
G01*
X44625000Y-67825000D01*
G75*
G02*
X44875000Y-67575000I250000J0D01*
G01*
G37*
G04 #@! TD*
G04 #@! TO.C,D6*
G36*
G01*
X42375000Y-70375000D02*
X43625000Y-70375000D01*
G75*
G02*
X43875000Y-70625000I0J-250000D01*
G01*
X43875000Y-71375000D01*
G75*
G02*
X43625000Y-71625000I-250000J0D01*
G01*
X42375000Y-71625000D01*
G75*
G02*
X42125000Y-71375000I0J250000D01*
G01*
X42125000Y-70625000D01*
G75*
G02*
X42375000Y-70375000I250000J0D01*
G01*
G37*
G36*
G01*
X42375000Y-67575000D02*
X43625000Y-67575000D01*
G75*
G02*
X43875000Y-67825000I0J-250000D01*
G01*
X43875000Y-68575000D01*
G75*
G02*
X43625000Y-68825000I-250000J0D01*
G01*
X42375000Y-68825000D01*
G75*
G02*
X42125000Y-68575000I0J250000D01*
G01*
X42125000Y-67825000D01*
G75*
G02*
X42375000Y-67575000I250000J0D01*
G01*
G37*
G04 #@! TD*
G04 #@! TO.C,D5*
G36*
G01*
X39875000Y-70375000D02*
X41125000Y-70375000D01*
G75*
G02*
X41375000Y-70625000I0J-250000D01*
G01*
X41375000Y-71375000D01*
G75*
G02*
X41125000Y-71625000I-250000J0D01*
G01*
X39875000Y-71625000D01*
G75*
G02*
X39625000Y-71375000I0J250000D01*
G01*
X39625000Y-70625000D01*
G75*
G02*
X39875000Y-70375000I250000J0D01*
G01*
G37*
G36*
G01*
X39875000Y-67575000D02*
X41125000Y-67575000D01*
G75*
G02*
X41375000Y-67825000I0J-250000D01*
G01*
X41375000Y-68575000D01*
G75*
G02*
X41125000Y-68825000I-250000J0D01*
G01*
X39875000Y-68825000D01*
G75*
G02*
X39625000Y-68575000I0J250000D01*
G01*
X39625000Y-67825000D01*
G75*
G02*
X39875000Y-67575000I250000J0D01*
G01*
G37*
G04 #@! TD*
G04 #@! TO.C,D4*
G36*
G01*
X37375000Y-70375000D02*
X38625000Y-70375000D01*
G75*
G02*
X38875000Y-70625000I0J-250000D01*
G01*
X38875000Y-71375000D01*
G75*
G02*
X38625000Y-71625000I-250000J0D01*
G01*
X37375000Y-71625000D01*
G75*
G02*
X37125000Y-71375000I0J250000D01*
G01*
X37125000Y-70625000D01*
G75*
G02*
X37375000Y-70375000I250000J0D01*
G01*
G37*
G36*
G01*
X37375000Y-67575000D02*
X38625000Y-67575000D01*
G75*
G02*
X38875000Y-67825000I0J-250000D01*
G01*
X38875000Y-68575000D01*
G75*
G02*
X38625000Y-68825000I-250000J0D01*
G01*
X37375000Y-68825000D01*
G75*
G02*
X37125000Y-68575000I0J250000D01*
G01*
X37125000Y-67825000D01*
G75*
G02*
X37375000Y-67575000I250000J0D01*
G01*
G37*
G04 #@! TD*
G04 #@! TO.C,D3*
G36*
G01*
X34875000Y-70375000D02*
X36125000Y-70375000D01*
G75*
G02*
X36375000Y-70625000I0J-250000D01*
G01*
X36375000Y-71375000D01*
G75*
G02*
X36125000Y-71625000I-250000J0D01*
G01*
X34875000Y-71625000D01*
G75*
G02*
X34625000Y-71375000I0J250000D01*
G01*
X34625000Y-70625000D01*
G75*
G02*
X34875000Y-70375000I250000J0D01*
G01*
G37*
G36*
G01*
X34875000Y-67575000D02*
X36125000Y-67575000D01*
G75*
G02*
X36375000Y-67825000I0J-250000D01*
G01*
X36375000Y-68575000D01*
G75*
G02*
X36125000Y-68825000I-250000J0D01*
G01*
X34875000Y-68825000D01*
G75*
G02*
X34625000Y-68575000I0J250000D01*
G01*
X34625000Y-67825000D01*
G75*
G02*
X34875000Y-67575000I250000J0D01*
G01*
G37*
G04 #@! TD*
G04 #@! TO.C,D2*
G36*
G01*
X32375000Y-70375000D02*
X33625000Y-70375000D01*
G75*
G02*
X33875000Y-70625000I0J-250000D01*
G01*
X33875000Y-71375000D01*
G75*
G02*
X33625000Y-71625000I-250000J0D01*
G01*
X32375000Y-71625000D01*
G75*
G02*
X32125000Y-71375000I0J250000D01*
G01*
X32125000Y-70625000D01*
G75*
G02*
X32375000Y-70375000I250000J0D01*
G01*
G37*
G36*
G01*
X32375000Y-67575000D02*
X33625000Y-67575000D01*
G75*
G02*
X33875000Y-67825000I0J-250000D01*
G01*
X33875000Y-68575000D01*
G75*
G02*
X33625000Y-68825000I-250000J0D01*
G01*
X32375000Y-68825000D01*
G75*
G02*
X32125000Y-68575000I0J250000D01*
G01*
X32125000Y-67825000D01*
G75*
G02*
X32375000Y-67575000I250000J0D01*
G01*
G37*
G04 #@! TD*
G04 #@! TO.C,D1*
G36*
G01*
X29875000Y-70375000D02*
X31125000Y-70375000D01*
G75*
G02*
X31375000Y-70625000I0J-250000D01*
G01*
X31375000Y-71375000D01*
G75*
G02*
X31125000Y-71625000I-250000J0D01*
G01*
X29875000Y-71625000D01*
G75*
G02*
X29625000Y-71375000I0J250000D01*
G01*
X29625000Y-70625000D01*
G75*
G02*
X29875000Y-70375000I250000J0D01*
G01*
G37*
G36*
G01*
X29875000Y-67575000D02*
X31125000Y-67575000D01*
G75*
G02*
X31375000Y-67825000I0J-250000D01*
G01*
X31375000Y-68575000D01*
G75*
G02*
X31125000Y-68825000I-250000J0D01*
G01*
X29875000Y-68825000D01*
G75*
G02*
X29625000Y-68575000I0J250000D01*
G01*
X29625000Y-67825000D01*
G75*
G02*
X29875000Y-67575000I250000J0D01*
G01*
G37*
G04 #@! TD*
M02*
