M48
INCH,TZ
T1C0.0157
T2C0.0315
T3C0.0394
T4C0.0906
T5C0.0984
T6C0.1181
%
G90
G05
T1
X12008Y-36614
X12598Y-36417
X13189Y-36220
X13583Y-35827
X15551Y-40945
X15945Y-41339
X16339Y-41929
X16732Y-42323
X20276Y-37992
X24016Y-39567
X24016Y-40551
X24409Y-38976
X24409Y-41732
X26575Y-37008
X27165Y-36614
X39567Y-34843
X40551Y-42323
X40945Y-41732
X41339Y-41339
X41732Y-40945
X42126Y-40551
X42482Y-39923
X42913Y-39370
X43307Y-38976
X44291Y-37008
X45866Y-38423
T2
X9252Y-37402
X14252Y-37402
T3
X9520Y-33268
X10520Y-33268
X11520Y-33268
X12520Y-33268
X13520Y-33268
X14520Y-33268
X15520Y-33268
X16520Y-33268
X17520Y-33268
X19094Y-33268
X20094Y-33268
X21094Y-33268
X22094Y-33268
X23094Y-33268
X24094Y-33268
X25094Y-33268
X25346Y-43307
X26094Y-33268
X26346Y-43307
X27094Y-33268
X27346Y-43307
X28346Y-43307
X28543Y-33268
X29543Y-33268
X30543Y-33268
X31543Y-33268
X32543Y-33268
X33543Y-33268
X34543Y-33268
X35543Y-33268
X36543Y-33268
X37992Y-33268
X38992Y-33268
X39992Y-33268
X40992Y-33268
X41992Y-33268
X42992Y-33268
X43992Y-33268
X44992Y-33268
X45992Y-33268
T4
X11417Y-41929
T5
X9646Y-42323
X13189Y-42323
T6
X11417Y-39567
T0
M30
