G04 #@! TF.GenerationSoftware,KiCad,Pcbnew,(5.1.9-0-10_14)*
G04 #@! TF.CreationDate,2021-09-02T08:13:15+02:00*
G04 #@! TF.ProjectId,i2c-32io,6932632d-3332-4696-9f2e-6b696361645f,rev?*
G04 #@! TF.SameCoordinates,Original*
G04 #@! TF.FileFunction,Copper,L2,Bot*
G04 #@! TF.FilePolarity,Positive*
%FSLAX46Y46*%
G04 Gerber Fmt 4.6, Leading zero omitted, Abs format (unit mm)*
G04 Created by KiCad (PCBNEW (5.1.9-0-10_14)) date 2021-09-02 08:13:15*
%MOMM*%
%LPD*%
G01*
G04 APERTURE LIST*
G04 #@! TA.AperFunction,ComponentPad*
%ADD10O,1.700000X1.700000*%
G04 #@! TD*
G04 #@! TA.AperFunction,ComponentPad*
%ADD11R,1.700000X1.700000*%
G04 #@! TD*
G04 #@! TA.AperFunction,ComponentPad*
%ADD12C,3.500000*%
G04 #@! TD*
G04 #@! TA.AperFunction,ComponentPad*
%ADD13C,3.300000*%
G04 #@! TD*
G04 #@! TA.AperFunction,ComponentPad*
%ADD14R,4.000000X4.000000*%
G04 #@! TD*
G04 #@! TA.AperFunction,ComponentPad*
%ADD15O,1.600000X1.600000*%
G04 #@! TD*
G04 #@! TA.AperFunction,ComponentPad*
%ADD16R,1.600000X1.600000*%
G04 #@! TD*
G04 #@! TA.AperFunction,ViaPad*
%ADD17C,0.800000*%
G04 #@! TD*
G04 #@! TA.AperFunction,Conductor*
%ADD18C,0.250000*%
G04 #@! TD*
G04 #@! TA.AperFunction,Conductor*
%ADD19C,0.254000*%
G04 #@! TD*
G04 #@! TA.AperFunction,Conductor*
%ADD20C,0.100000*%
G04 #@! TD*
G04 APERTURE END LIST*
D10*
G04 #@! TO.P,J1,4*
G04 #@! TO.N,GND*
X64380000Y-110000000D03*
G04 #@! TO.P,J1,3*
G04 #@! TO.N,Net-(J1-Pad3)*
X66920000Y-110000000D03*
G04 #@! TO.P,J1,2*
G04 #@! TO.N,Net-(J1-Pad2)*
X69460000Y-110000000D03*
D11*
G04 #@! TO.P,J1,1*
G04 #@! TO.N,VCC*
X72000000Y-110000000D03*
G04 #@! TD*
D10*
G04 #@! TO.P,J2,9*
G04 #@! TO.N,GND*
X68820000Y-84500000D03*
G04 #@! TO.P,J2,8*
G04 #@! TO.N,Net-(J2-Pad8)*
X66280000Y-84500000D03*
G04 #@! TO.P,J2,7*
G04 #@! TO.N,Net-(J2-Pad7)*
X63740000Y-84500000D03*
G04 #@! TO.P,J2,6*
G04 #@! TO.N,Net-(J2-Pad6)*
X61200000Y-84500000D03*
G04 #@! TO.P,J2,5*
G04 #@! TO.N,Net-(J2-Pad5)*
X58660000Y-84500000D03*
G04 #@! TO.P,J2,4*
G04 #@! TO.N,Net-(J2-Pad4)*
X56120000Y-84500000D03*
G04 #@! TO.P,J2,3*
G04 #@! TO.N,Net-(J2-Pad3)*
X53580000Y-84500000D03*
G04 #@! TO.P,J2,2*
G04 #@! TO.N,Net-(J2-Pad2)*
X51040000Y-84500000D03*
D11*
G04 #@! TO.P,J2,1*
G04 #@! TO.N,Net-(J2-Pad1)*
X48500000Y-84500000D03*
G04 #@! TD*
D12*
G04 #@! TO.P,J6,MP*
G04 #@! TO.N,N/C*
X33500000Y-107500000D03*
X24500000Y-107500000D03*
D13*
G04 #@! TO.P,J6,2*
G04 #@! TO.N,Net-(D33-Pad1)*
X29000000Y-106500000D03*
D14*
G04 #@! TO.P,J6,1*
G04 #@! TO.N,GND*
X29000000Y-100500000D03*
G04 #@! TD*
D10*
G04 #@! TO.P,J5,9*
G04 #@! TO.N,GND*
X92820000Y-84500000D03*
G04 #@! TO.P,J5,8*
G04 #@! TO.N,Net-(J5-Pad8)*
X90280000Y-84500000D03*
G04 #@! TO.P,J5,7*
G04 #@! TO.N,Net-(J5-Pad7)*
X87740000Y-84500000D03*
G04 #@! TO.P,J5,6*
G04 #@! TO.N,Net-(J5-Pad6)*
X85200000Y-84500000D03*
G04 #@! TO.P,J5,5*
G04 #@! TO.N,Net-(J5-Pad5)*
X82660000Y-84500000D03*
G04 #@! TO.P,J5,4*
G04 #@! TO.N,Net-(J5-Pad4)*
X80120000Y-84500000D03*
G04 #@! TO.P,J5,3*
G04 #@! TO.N,Net-(J5-Pad3)*
X77580000Y-84500000D03*
G04 #@! TO.P,J5,2*
G04 #@! TO.N,Net-(J5-Pad2)*
X75040000Y-84500000D03*
D11*
G04 #@! TO.P,J5,1*
G04 #@! TO.N,Net-(J5-Pad1)*
X72500000Y-84500000D03*
G04 #@! TD*
D10*
G04 #@! TO.P,J4,9*
G04 #@! TO.N,GND*
X116820000Y-84500000D03*
G04 #@! TO.P,J4,8*
G04 #@! TO.N,Net-(J4-Pad8)*
X114280000Y-84500000D03*
G04 #@! TO.P,J4,7*
G04 #@! TO.N,Net-(J4-Pad7)*
X111740000Y-84500000D03*
G04 #@! TO.P,J4,6*
G04 #@! TO.N,Net-(J4-Pad6)*
X109200000Y-84500000D03*
G04 #@! TO.P,J4,5*
G04 #@! TO.N,Net-(J4-Pad5)*
X106660000Y-84500000D03*
G04 #@! TO.P,J4,4*
G04 #@! TO.N,Net-(J4-Pad4)*
X104120000Y-84500000D03*
G04 #@! TO.P,J4,3*
G04 #@! TO.N,Net-(J4-Pad3)*
X101580000Y-84500000D03*
G04 #@! TO.P,J4,2*
G04 #@! TO.N,Net-(J4-Pad2)*
X99040000Y-84500000D03*
D11*
G04 #@! TO.P,J4,1*
G04 #@! TO.N,Net-(J4-Pad1)*
X96500000Y-84500000D03*
G04 #@! TD*
D10*
G04 #@! TO.P,J3,9*
G04 #@! TO.N,GND*
X44500000Y-84500000D03*
G04 #@! TO.P,J3,8*
G04 #@! TO.N,Net-(J3-Pad8)*
X41960000Y-84500000D03*
G04 #@! TO.P,J3,7*
G04 #@! TO.N,Net-(J3-Pad7)*
X39420000Y-84500000D03*
G04 #@! TO.P,J3,6*
G04 #@! TO.N,Net-(J3-Pad6)*
X36880000Y-84500000D03*
G04 #@! TO.P,J3,5*
G04 #@! TO.N,Net-(J3-Pad5)*
X34340000Y-84500000D03*
G04 #@! TO.P,J3,4*
G04 #@! TO.N,Net-(J3-Pad4)*
X31800000Y-84500000D03*
G04 #@! TO.P,J3,3*
G04 #@! TO.N,Net-(J3-Pad3)*
X29260000Y-84500000D03*
G04 #@! TO.P,J3,2*
G04 #@! TO.N,Net-(J3-Pad2)*
X26720000Y-84500000D03*
D11*
G04 #@! TO.P,J3,1*
G04 #@! TO.N,Net-(J3-Pad1)*
X24180000Y-84500000D03*
G04 #@! TD*
D15*
G04 #@! TO.P,D33,2*
G04 #@! TO.N,VCC*
X36200000Y-95000000D03*
D16*
G04 #@! TO.P,D33,1*
G04 #@! TO.N,Net-(D33-Pad1)*
X23500000Y-95000000D03*
G04 #@! TD*
D17*
G04 #@! TO.N,Net-(J1-Pad3)*
X67500000Y-94000000D03*
X112500000Y-94000000D03*
G04 #@! TO.N,Net-(J1-Pad2)*
X69000000Y-93000000D03*
X100500000Y-88500000D03*
G04 #@! TO.N,VCC*
X51500000Y-96500000D03*
X116500000Y-97595000D03*
X62000000Y-106000000D03*
G04 #@! TO.N,Net-(J2-Pad8)*
X62000000Y-99000000D03*
G04 #@! TO.N,Net-(J2-Pad7)*
X61000000Y-100500000D03*
G04 #@! TO.N,Net-(J2-Pad6)*
X61000014Y-103000000D03*
G04 #@! TO.N,Net-(J3-Pad8)*
X42500000Y-107500000D03*
X34500000Y-91000000D03*
G04 #@! TO.N,Net-(J3-Pad7)*
X41500000Y-106500000D03*
X33500000Y-92000000D03*
G04 #@! TO.N,Net-(J3-Pad6)*
X40500000Y-105000000D03*
X32000000Y-92500000D03*
G04 #@! TO.N,Net-(J3-Pad5)*
X30500000Y-93000000D03*
X39500000Y-104000000D03*
G04 #@! TO.N,Net-(J4-Pad8)*
X110000000Y-99000000D03*
G04 #@! TO.N,Net-(J4-Pad7)*
X109000000Y-100000000D03*
G04 #@! TO.N,Net-(J4-Pad6)*
X107905000Y-101405000D03*
G04 #@! TO.N,Net-(J4-Pad5)*
X107000000Y-103000000D03*
G04 #@! TO.N,Net-(J4-Pad4)*
X106000000Y-104000000D03*
G04 #@! TO.N,Net-(J4-Pad3)*
X105000000Y-105000000D03*
G04 #@! TO.N,Net-(J4-Pad2)*
X104000000Y-106000000D03*
G04 #@! TO.N,Net-(J4-Pad1)*
X103000000Y-107500000D03*
G04 #@! TD*
D18*
G04 #@! TO.N,GND*
X29000000Y-100500000D02*
X29000000Y-99000000D01*
X29000000Y-99000000D02*
X25500000Y-95500000D01*
X25500000Y-95500000D02*
X25500000Y-91000000D01*
X23004999Y-88504999D02*
X23004999Y-83495001D01*
X25500000Y-91000000D02*
X23004999Y-88504999D01*
X23004999Y-83495001D02*
X24000000Y-82500000D01*
X24000000Y-82500000D02*
X44000000Y-82500000D01*
X44500000Y-83000000D02*
X44500000Y-84500000D01*
X44000000Y-82500000D02*
X44500000Y-83000000D01*
X68820000Y-84500000D02*
X68820000Y-82820000D01*
X68820000Y-82820000D02*
X68500000Y-82500000D01*
X45000000Y-82500000D02*
X44500000Y-83000000D01*
X68500000Y-82500000D02*
X45000000Y-82500000D01*
X116820000Y-84500000D02*
X114320000Y-82000000D01*
X114320000Y-82000000D02*
X94000000Y-82000000D01*
X92820000Y-83180000D02*
X92820000Y-84500000D01*
X94000000Y-82000000D02*
X92820000Y-83180000D01*
X68820000Y-82180000D02*
X68820000Y-84500000D01*
X69500000Y-81500000D02*
X68820000Y-82180000D01*
X91500000Y-81500000D02*
X69500000Y-81500000D01*
X92820000Y-82820000D02*
X91500000Y-81500000D01*
X92820000Y-84500000D02*
X92820000Y-82820000D01*
G04 #@! TO.N,Net-(J1-Pad3)*
X67500000Y-109420000D02*
X66920000Y-110000000D01*
X67500000Y-94000000D02*
X67500000Y-109420000D01*
X112500000Y-94000000D02*
X112500000Y-109000000D01*
X112500000Y-109000000D02*
X75000000Y-109000000D01*
X75000000Y-109000000D02*
X74000000Y-108000000D01*
X74000000Y-108000000D02*
X71000000Y-108000000D01*
X70635001Y-108364999D02*
X70635001Y-110564001D01*
X71000000Y-108000000D02*
X70635001Y-108364999D01*
X70024001Y-111175001D02*
X67175001Y-111175001D01*
X70635001Y-110564001D02*
X70024001Y-111175001D01*
X66920000Y-110920000D02*
X66920000Y-110000000D01*
X67175001Y-111175001D02*
X66920000Y-110920000D01*
G04 #@! TO.N,Net-(J1-Pad2)*
X69000000Y-109540000D02*
X69460000Y-110000000D01*
X69000000Y-93000000D02*
X69000000Y-109540000D01*
X69000000Y-93000000D02*
X93500000Y-93000000D01*
X93500000Y-93000000D02*
X94500000Y-92000000D01*
X94500000Y-92000000D02*
X94500000Y-88000000D01*
X94500000Y-88000000D02*
X95000000Y-87500000D01*
X95000000Y-87500000D02*
X96500000Y-87500000D01*
X96500000Y-87500000D02*
X99500000Y-87500000D01*
X99500000Y-87500000D02*
X100500000Y-88500000D01*
G04 #@! TO.N,VCC*
X51500000Y-96500000D02*
X53000000Y-96500000D01*
X53000000Y-96500000D02*
X53500000Y-97000000D01*
X53500000Y-97000000D02*
X58500000Y-97000000D01*
X58500000Y-97000000D02*
X59000000Y-97500000D01*
X72000000Y-110500000D02*
X72000000Y-110000000D01*
X72000000Y-110000000D02*
X72000000Y-111500000D01*
X72000000Y-111500000D02*
X71549991Y-111950009D01*
X116500000Y-109500000D02*
X116500000Y-97595000D01*
X73000000Y-111000000D02*
X115000000Y-111000000D01*
X115000000Y-111000000D02*
X116500000Y-109500000D01*
X72000000Y-110000000D02*
X73000000Y-111000000D01*
X59000000Y-97500000D02*
X59000000Y-105500000D01*
X59500000Y-106000000D02*
X62000000Y-106000000D01*
X59000000Y-105500000D02*
X59500000Y-106000000D01*
X62000000Y-106000000D02*
X62000000Y-111500000D01*
X62000000Y-111500000D02*
X62450009Y-111950009D01*
X71549991Y-111950009D02*
X62450009Y-111950009D01*
G04 #@! TO.N,Net-(J2-Pad8)*
X64780000Y-86000000D02*
X66280000Y-84500000D01*
X62500000Y-86000000D02*
X64780000Y-86000000D01*
X62000000Y-86500000D02*
X62500000Y-86000000D01*
X62000000Y-99000000D02*
X62000000Y-86500000D01*
G04 #@! TO.N,Net-(J2-Pad7)*
X61000000Y-100500000D02*
X61000000Y-86500000D01*
X61000000Y-86500000D02*
X62000000Y-85500000D01*
X62740000Y-85500000D02*
X63740000Y-84500000D01*
X62000000Y-85500000D02*
X62740000Y-85500000D01*
G04 #@! TO.N,Net-(J2-Pad6)*
X61200000Y-84500000D02*
X60000000Y-85700000D01*
X60000000Y-85700000D02*
X60000000Y-102000000D01*
X61000000Y-103000000D02*
X61000014Y-103000000D01*
X60000000Y-102000000D02*
X61000000Y-103000000D01*
G04 #@! TO.N,Net-(J3-Pad8)*
X42500000Y-107500000D02*
X42500000Y-102500000D01*
X42500000Y-102500000D02*
X41000000Y-101000000D01*
X41000000Y-101000000D02*
X35000000Y-101000000D01*
X35000000Y-101000000D02*
X34500000Y-100500000D01*
X34500000Y-100500000D02*
X34500000Y-91500000D01*
X34500000Y-91500000D02*
X34500000Y-91000000D01*
G04 #@! TO.N,Net-(J3-Pad7)*
X41500000Y-106500000D02*
X41500000Y-103500000D01*
X41500000Y-103500000D02*
X40000000Y-102000000D01*
X40000000Y-102000000D02*
X34500000Y-102000000D01*
X33500000Y-101000000D02*
X33500000Y-92000000D01*
X34500000Y-102000000D02*
X33500000Y-101000000D01*
G04 #@! TO.N,Net-(J3-Pad6)*
X40500000Y-103926998D02*
X39573002Y-103000000D01*
X40500000Y-105000000D02*
X40500000Y-103926998D01*
X39573002Y-103000000D02*
X34000000Y-103000000D01*
X34000000Y-103000000D02*
X32000000Y-101000000D01*
X32000000Y-101000000D02*
X32000000Y-92500000D01*
G04 #@! TO.N,Net-(J3-Pad5)*
X31325001Y-93825001D02*
X31325001Y-101825001D01*
X30500000Y-93000000D02*
X31325001Y-93825001D01*
X31325001Y-101825001D02*
X33500000Y-104000000D01*
X33500000Y-104000000D02*
X39500000Y-104000000D01*
G04 #@! TO.N,Net-(J4-Pad8)*
X110000000Y-99000000D02*
X110000000Y-87500000D01*
X111824999Y-85675001D02*
X113324999Y-85675001D01*
X110000000Y-87500000D02*
X111824999Y-85675001D01*
X114280000Y-84720000D02*
X114280000Y-84500000D01*
X113324999Y-85675001D02*
X114280000Y-84720000D01*
G04 #@! TO.N,Net-(J4-Pad7)*
X111740000Y-84760000D02*
X111740000Y-84500000D01*
X109000000Y-87500000D02*
X111740000Y-84760000D01*
X109000000Y-100000000D02*
X109000000Y-87500000D01*
G04 #@! TO.N,Net-(J4-Pad6)*
X107905000Y-101405000D02*
X107905000Y-87595000D01*
X109200000Y-86300000D02*
X109200000Y-84500000D01*
X107905000Y-87595000D02*
X109200000Y-86300000D01*
G04 #@! TO.N,Net-(J4-Pad5)*
X107000000Y-84840000D02*
X106660000Y-84500000D01*
X107000000Y-103000000D02*
X107000000Y-84840000D01*
G04 #@! TO.N,Net-(J4-Pad4)*
X104120000Y-86120000D02*
X104120000Y-84500000D01*
X106000000Y-88000000D02*
X104120000Y-86120000D01*
X106000000Y-104000000D02*
X106000000Y-88000000D01*
G04 #@! TO.N,Net-(J4-Pad3)*
X105000000Y-89000000D02*
X101580000Y-85580000D01*
X101580000Y-85580000D02*
X101580000Y-84500000D01*
X105000000Y-105000000D02*
X105000000Y-89000000D01*
G04 #@! TO.N,Net-(J4-Pad2)*
X99040000Y-85540000D02*
X99040000Y-84500000D01*
X99500000Y-86000000D02*
X99040000Y-85540000D01*
X101000000Y-86000000D02*
X99500000Y-86000000D01*
X104000000Y-89000000D02*
X101000000Y-86000000D01*
X104000000Y-106000000D02*
X104000000Y-89000000D01*
G04 #@! TO.N,Net-(J4-Pad1)*
X103000000Y-107500000D02*
X103000000Y-89500000D01*
X103000000Y-89500000D02*
X100500000Y-87000000D01*
X100500000Y-87000000D02*
X97000000Y-87000000D01*
X97000000Y-87000000D02*
X96500000Y-86500000D01*
X96500000Y-86500000D02*
X96500000Y-84500000D01*
G04 #@! TD*
D19*
G04 #@! TO.N,GND*
X119373000Y-111873000D02*
X72662382Y-111873000D01*
X72705546Y-111792247D01*
X72729816Y-111712239D01*
X72851014Y-111749003D01*
X73000000Y-111763677D01*
X73037333Y-111760000D01*
X114962678Y-111760000D01*
X115000000Y-111763676D01*
X115037322Y-111760000D01*
X115037333Y-111760000D01*
X115148986Y-111749003D01*
X115292247Y-111705546D01*
X115424276Y-111634974D01*
X115540001Y-111540001D01*
X115563804Y-111510997D01*
X117011004Y-110063798D01*
X117040001Y-110040001D01*
X117134974Y-109924276D01*
X117205546Y-109792247D01*
X117249003Y-109648986D01*
X117260000Y-109537333D01*
X117260000Y-109537324D01*
X117263676Y-109500001D01*
X117260000Y-109462678D01*
X117260000Y-98298711D01*
X117303937Y-98254774D01*
X117417205Y-98085256D01*
X117495226Y-97896898D01*
X117535000Y-97696939D01*
X117535000Y-97493061D01*
X117495226Y-97293102D01*
X117417205Y-97104744D01*
X117303937Y-96935226D01*
X117159774Y-96791063D01*
X116990256Y-96677795D01*
X116801898Y-96599774D01*
X116601939Y-96560000D01*
X116398061Y-96560000D01*
X116198102Y-96599774D01*
X116009744Y-96677795D01*
X115840226Y-96791063D01*
X115696063Y-96935226D01*
X115582795Y-97104744D01*
X115504774Y-97293102D01*
X115465000Y-97493061D01*
X115465000Y-97696939D01*
X115504774Y-97896898D01*
X115582795Y-98085256D01*
X115696063Y-98254774D01*
X115740001Y-98298712D01*
X115740000Y-109185198D01*
X114685199Y-110240000D01*
X73488072Y-110240000D01*
X73488072Y-109150000D01*
X73475812Y-109025518D01*
X73439502Y-108905820D01*
X73380537Y-108795506D01*
X73351398Y-108760000D01*
X73685199Y-108760000D01*
X74436201Y-109511003D01*
X74459999Y-109540001D01*
X74488997Y-109563799D01*
X74575724Y-109634974D01*
X74707753Y-109705546D01*
X74851014Y-109749003D01*
X75000000Y-109763677D01*
X75037333Y-109760000D01*
X112462667Y-109760000D01*
X112500000Y-109763677D01*
X112648986Y-109749003D01*
X112792247Y-109705546D01*
X112924276Y-109634974D01*
X113040001Y-109540001D01*
X113134974Y-109424276D01*
X113205546Y-109292247D01*
X113249003Y-109148986D01*
X113260000Y-109037333D01*
X113263677Y-109000000D01*
X113260000Y-108962667D01*
X113260000Y-94703711D01*
X113303937Y-94659774D01*
X113417205Y-94490256D01*
X113495226Y-94301898D01*
X113535000Y-94101939D01*
X113535000Y-93898061D01*
X113495226Y-93698102D01*
X113417205Y-93509744D01*
X113303937Y-93340226D01*
X113159774Y-93196063D01*
X112990256Y-93082795D01*
X112801898Y-93004774D01*
X112601939Y-92965000D01*
X112398061Y-92965000D01*
X112198102Y-93004774D01*
X112009744Y-93082795D01*
X111840226Y-93196063D01*
X111696063Y-93340226D01*
X111582795Y-93509744D01*
X111504774Y-93698102D01*
X111465000Y-93898061D01*
X111465000Y-94101939D01*
X111504774Y-94301898D01*
X111582795Y-94490256D01*
X111696063Y-94659774D01*
X111740000Y-94703711D01*
X111740001Y-108240000D01*
X103723711Y-108240000D01*
X103803937Y-108159774D01*
X103917205Y-107990256D01*
X103995226Y-107801898D01*
X104035000Y-107601939D01*
X104035000Y-107398061D01*
X103995226Y-107198102D01*
X103927666Y-107035000D01*
X104101939Y-107035000D01*
X104301898Y-106995226D01*
X104490256Y-106917205D01*
X104659774Y-106803937D01*
X104803937Y-106659774D01*
X104917205Y-106490256D01*
X104995226Y-106301898D01*
X105035000Y-106101939D01*
X105035000Y-106035000D01*
X105101939Y-106035000D01*
X105301898Y-105995226D01*
X105490256Y-105917205D01*
X105659774Y-105803937D01*
X105803937Y-105659774D01*
X105917205Y-105490256D01*
X105995226Y-105301898D01*
X106035000Y-105101939D01*
X106035000Y-105035000D01*
X106101939Y-105035000D01*
X106301898Y-104995226D01*
X106490256Y-104917205D01*
X106659774Y-104803937D01*
X106803937Y-104659774D01*
X106917205Y-104490256D01*
X106995226Y-104301898D01*
X107035000Y-104101939D01*
X107035000Y-104035000D01*
X107101939Y-104035000D01*
X107301898Y-103995226D01*
X107490256Y-103917205D01*
X107659774Y-103803937D01*
X107803937Y-103659774D01*
X107917205Y-103490256D01*
X107995226Y-103301898D01*
X108035000Y-103101939D01*
X108035000Y-102898061D01*
X107995226Y-102698102D01*
X107917205Y-102509744D01*
X107870604Y-102440000D01*
X108006939Y-102440000D01*
X108206898Y-102400226D01*
X108395256Y-102322205D01*
X108564774Y-102208937D01*
X108708937Y-102064774D01*
X108822205Y-101895256D01*
X108900226Y-101706898D01*
X108940000Y-101506939D01*
X108940000Y-101303061D01*
X108900226Y-101103102D01*
X108869679Y-101029354D01*
X108898061Y-101035000D01*
X109101939Y-101035000D01*
X109301898Y-100995226D01*
X109490256Y-100917205D01*
X109659774Y-100803937D01*
X109803937Y-100659774D01*
X109917205Y-100490256D01*
X109995226Y-100301898D01*
X110035000Y-100101939D01*
X110035000Y-100035000D01*
X110101939Y-100035000D01*
X110301898Y-99995226D01*
X110490256Y-99917205D01*
X110659774Y-99803937D01*
X110803937Y-99659774D01*
X110917205Y-99490256D01*
X110995226Y-99301898D01*
X111035000Y-99101939D01*
X111035000Y-98898061D01*
X110995226Y-98698102D01*
X110917205Y-98509744D01*
X110803937Y-98340226D01*
X110760000Y-98296289D01*
X110760000Y-87814801D01*
X112139801Y-86435001D01*
X113287677Y-86435001D01*
X113324999Y-86438677D01*
X113362321Y-86435001D01*
X113362332Y-86435001D01*
X113473985Y-86424004D01*
X113617246Y-86380547D01*
X113749275Y-86309975D01*
X113865000Y-86215002D01*
X113888803Y-86185999D01*
X114097091Y-85977710D01*
X114133740Y-85985000D01*
X114426260Y-85985000D01*
X114713158Y-85927932D01*
X114983411Y-85815990D01*
X115226632Y-85653475D01*
X115433475Y-85446632D01*
X115555195Y-85264466D01*
X115624822Y-85381355D01*
X115819731Y-85597588D01*
X116053080Y-85771641D01*
X116315901Y-85896825D01*
X116463110Y-85941476D01*
X116693000Y-85820155D01*
X116693000Y-84627000D01*
X116947000Y-84627000D01*
X116947000Y-85820155D01*
X117176890Y-85941476D01*
X117324099Y-85896825D01*
X117586920Y-85771641D01*
X117820269Y-85597588D01*
X118015178Y-85381355D01*
X118164157Y-85131252D01*
X118261481Y-84856891D01*
X118140814Y-84627000D01*
X116947000Y-84627000D01*
X116693000Y-84627000D01*
X116673000Y-84627000D01*
X116673000Y-84373000D01*
X116693000Y-84373000D01*
X116693000Y-83179845D01*
X116947000Y-83179845D01*
X116947000Y-84373000D01*
X118140814Y-84373000D01*
X118261481Y-84143109D01*
X118164157Y-83868748D01*
X118015178Y-83618645D01*
X117820269Y-83402412D01*
X117586920Y-83228359D01*
X117324099Y-83103175D01*
X117176890Y-83058524D01*
X116947000Y-83179845D01*
X116693000Y-83179845D01*
X116463110Y-83058524D01*
X116315901Y-83103175D01*
X116053080Y-83228359D01*
X115819731Y-83402412D01*
X115624822Y-83618645D01*
X115555195Y-83735534D01*
X115433475Y-83553368D01*
X115226632Y-83346525D01*
X114983411Y-83184010D01*
X114713158Y-83072068D01*
X114426260Y-83015000D01*
X114133740Y-83015000D01*
X113846842Y-83072068D01*
X113576589Y-83184010D01*
X113333368Y-83346525D01*
X113126525Y-83553368D01*
X113010000Y-83727760D01*
X112893475Y-83553368D01*
X112686632Y-83346525D01*
X112443411Y-83184010D01*
X112173158Y-83072068D01*
X111886260Y-83015000D01*
X111593740Y-83015000D01*
X111306842Y-83072068D01*
X111036589Y-83184010D01*
X110793368Y-83346525D01*
X110586525Y-83553368D01*
X110470000Y-83727760D01*
X110353475Y-83553368D01*
X110146632Y-83346525D01*
X109903411Y-83184010D01*
X109633158Y-83072068D01*
X109346260Y-83015000D01*
X109053740Y-83015000D01*
X108766842Y-83072068D01*
X108496589Y-83184010D01*
X108253368Y-83346525D01*
X108046525Y-83553368D01*
X107930000Y-83727760D01*
X107813475Y-83553368D01*
X107606632Y-83346525D01*
X107363411Y-83184010D01*
X107093158Y-83072068D01*
X106806260Y-83015000D01*
X106513740Y-83015000D01*
X106226842Y-83072068D01*
X105956589Y-83184010D01*
X105713368Y-83346525D01*
X105506525Y-83553368D01*
X105390000Y-83727760D01*
X105273475Y-83553368D01*
X105066632Y-83346525D01*
X104823411Y-83184010D01*
X104553158Y-83072068D01*
X104266260Y-83015000D01*
X103973740Y-83015000D01*
X103686842Y-83072068D01*
X103416589Y-83184010D01*
X103173368Y-83346525D01*
X102966525Y-83553368D01*
X102850000Y-83727760D01*
X102733475Y-83553368D01*
X102526632Y-83346525D01*
X102283411Y-83184010D01*
X102013158Y-83072068D01*
X101726260Y-83015000D01*
X101433740Y-83015000D01*
X101146842Y-83072068D01*
X100876589Y-83184010D01*
X100633368Y-83346525D01*
X100426525Y-83553368D01*
X100310000Y-83727760D01*
X100193475Y-83553368D01*
X99986632Y-83346525D01*
X99743411Y-83184010D01*
X99473158Y-83072068D01*
X99186260Y-83015000D01*
X98893740Y-83015000D01*
X98606842Y-83072068D01*
X98336589Y-83184010D01*
X98093368Y-83346525D01*
X97961513Y-83478380D01*
X97939502Y-83405820D01*
X97880537Y-83295506D01*
X97801185Y-83198815D01*
X97704494Y-83119463D01*
X97594180Y-83060498D01*
X97474482Y-83024188D01*
X97350000Y-83011928D01*
X95650000Y-83011928D01*
X95525518Y-83024188D01*
X95405820Y-83060498D01*
X95295506Y-83119463D01*
X95198815Y-83198815D01*
X95119463Y-83295506D01*
X95060498Y-83405820D01*
X95024188Y-83525518D01*
X95011928Y-83650000D01*
X95011928Y-85350000D01*
X95024188Y-85474482D01*
X95060498Y-85594180D01*
X95119463Y-85704494D01*
X95198815Y-85801185D01*
X95295506Y-85880537D01*
X95405820Y-85939502D01*
X95525518Y-85975812D01*
X95650000Y-85988072D01*
X95740000Y-85988072D01*
X95740000Y-86462677D01*
X95736324Y-86500000D01*
X95740000Y-86537322D01*
X95740000Y-86537332D01*
X95750997Y-86648985D01*
X95778606Y-86740000D01*
X95037325Y-86740000D01*
X95000000Y-86736324D01*
X94962675Y-86740000D01*
X94962667Y-86740000D01*
X94851014Y-86750997D01*
X94707753Y-86794454D01*
X94575724Y-86865026D01*
X94459999Y-86959999D01*
X94436196Y-86989003D01*
X93988998Y-87436201D01*
X93960000Y-87459999D01*
X93936203Y-87488996D01*
X93936201Y-87488998D01*
X93865026Y-87575724D01*
X93794454Y-87707754D01*
X93783464Y-87743985D01*
X93750999Y-87851013D01*
X93750998Y-87851015D01*
X93736324Y-88000000D01*
X93740001Y-88037332D01*
X93740000Y-91685198D01*
X93185199Y-92240000D01*
X69703711Y-92240000D01*
X69659774Y-92196063D01*
X69490256Y-92082795D01*
X69301898Y-92004774D01*
X69101939Y-91965000D01*
X68898061Y-91965000D01*
X68698102Y-92004774D01*
X68509744Y-92082795D01*
X68340226Y-92196063D01*
X68196063Y-92340226D01*
X68082795Y-92509744D01*
X68004774Y-92698102D01*
X67965000Y-92898061D01*
X67965000Y-93072334D01*
X67801898Y-93004774D01*
X67601939Y-92965000D01*
X67398061Y-92965000D01*
X67198102Y-93004774D01*
X67009744Y-93082795D01*
X66840226Y-93196063D01*
X66696063Y-93340226D01*
X66582795Y-93509744D01*
X66504774Y-93698102D01*
X66465000Y-93898061D01*
X66465000Y-94101939D01*
X66504774Y-94301898D01*
X66582795Y-94490256D01*
X66696063Y-94659774D01*
X66740000Y-94703711D01*
X66740001Y-108521711D01*
X66486842Y-108572068D01*
X66216589Y-108684010D01*
X65973368Y-108846525D01*
X65766525Y-109053368D01*
X65644805Y-109235534D01*
X65575178Y-109118645D01*
X65380269Y-108902412D01*
X65146920Y-108728359D01*
X64884099Y-108603175D01*
X64736890Y-108558524D01*
X64507000Y-108679845D01*
X64507000Y-109873000D01*
X64527000Y-109873000D01*
X64527000Y-110127000D01*
X64507000Y-110127000D01*
X64507000Y-110147000D01*
X64253000Y-110147000D01*
X64253000Y-110127000D01*
X63059186Y-110127000D01*
X62938519Y-110356891D01*
X63035843Y-110631252D01*
X63184822Y-110881355D01*
X63379731Y-111097588D01*
X63503638Y-111190009D01*
X62764810Y-111190009D01*
X62760000Y-111185199D01*
X62760000Y-109643109D01*
X62938519Y-109643109D01*
X63059186Y-109873000D01*
X64253000Y-109873000D01*
X64253000Y-108679845D01*
X64023110Y-108558524D01*
X63875901Y-108603175D01*
X63613080Y-108728359D01*
X63379731Y-108902412D01*
X63184822Y-109118645D01*
X63035843Y-109368748D01*
X62938519Y-109643109D01*
X62760000Y-109643109D01*
X62760000Y-106703711D01*
X62803937Y-106659774D01*
X62917205Y-106490256D01*
X62995226Y-106301898D01*
X63035000Y-106101939D01*
X63035000Y-105898061D01*
X62995226Y-105698102D01*
X62917205Y-105509744D01*
X62803937Y-105340226D01*
X62659774Y-105196063D01*
X62490256Y-105082795D01*
X62301898Y-105004774D01*
X62101939Y-104965000D01*
X61898061Y-104965000D01*
X61698102Y-105004774D01*
X61509744Y-105082795D01*
X61340226Y-105196063D01*
X61296289Y-105240000D01*
X59814801Y-105240000D01*
X59760000Y-105185199D01*
X59760000Y-102834801D01*
X59965014Y-103039816D01*
X59965014Y-103101939D01*
X60004788Y-103301898D01*
X60082809Y-103490256D01*
X60196077Y-103659774D01*
X60340240Y-103803937D01*
X60509758Y-103917205D01*
X60698116Y-103995226D01*
X60898075Y-104035000D01*
X61101953Y-104035000D01*
X61301912Y-103995226D01*
X61490270Y-103917205D01*
X61659788Y-103803937D01*
X61803951Y-103659774D01*
X61917219Y-103490256D01*
X61995240Y-103301898D01*
X62035014Y-103101939D01*
X62035014Y-102898061D01*
X61995240Y-102698102D01*
X61917219Y-102509744D01*
X61803951Y-102340226D01*
X61659788Y-102196063D01*
X61490270Y-102082795D01*
X61301912Y-102004774D01*
X61101953Y-101965000D01*
X61039802Y-101965000D01*
X60760000Y-101685199D01*
X60760000Y-101507538D01*
X60898061Y-101535000D01*
X61101939Y-101535000D01*
X61301898Y-101495226D01*
X61490256Y-101417205D01*
X61659774Y-101303937D01*
X61803937Y-101159774D01*
X61917205Y-100990256D01*
X61995226Y-100801898D01*
X62035000Y-100601939D01*
X62035000Y-100398061D01*
X61995226Y-100198102D01*
X61927666Y-100035000D01*
X62101939Y-100035000D01*
X62301898Y-99995226D01*
X62490256Y-99917205D01*
X62659774Y-99803937D01*
X62803937Y-99659774D01*
X62917205Y-99490256D01*
X62995226Y-99301898D01*
X63035000Y-99101939D01*
X63035000Y-98898061D01*
X62995226Y-98698102D01*
X62917205Y-98509744D01*
X62803937Y-98340226D01*
X62760000Y-98296289D01*
X62760000Y-86814801D01*
X62814801Y-86760000D01*
X64742678Y-86760000D01*
X64780000Y-86763676D01*
X64817322Y-86760000D01*
X64817333Y-86760000D01*
X64928986Y-86749003D01*
X65072247Y-86705546D01*
X65204276Y-86634974D01*
X65320001Y-86540001D01*
X65343804Y-86510997D01*
X65913592Y-85941209D01*
X66133740Y-85985000D01*
X66426260Y-85985000D01*
X66713158Y-85927932D01*
X66983411Y-85815990D01*
X67226632Y-85653475D01*
X67433475Y-85446632D01*
X67555195Y-85264466D01*
X67624822Y-85381355D01*
X67819731Y-85597588D01*
X68053080Y-85771641D01*
X68315901Y-85896825D01*
X68463110Y-85941476D01*
X68693000Y-85820155D01*
X68693000Y-84627000D01*
X68947000Y-84627000D01*
X68947000Y-85820155D01*
X69176890Y-85941476D01*
X69324099Y-85896825D01*
X69586920Y-85771641D01*
X69820269Y-85597588D01*
X70015178Y-85381355D01*
X70164157Y-85131252D01*
X70261481Y-84856891D01*
X70140814Y-84627000D01*
X68947000Y-84627000D01*
X68693000Y-84627000D01*
X68673000Y-84627000D01*
X68673000Y-84373000D01*
X68693000Y-84373000D01*
X68693000Y-83179845D01*
X68947000Y-83179845D01*
X68947000Y-84373000D01*
X70140814Y-84373000D01*
X70261481Y-84143109D01*
X70164157Y-83868748D01*
X70033856Y-83650000D01*
X71011928Y-83650000D01*
X71011928Y-85350000D01*
X71024188Y-85474482D01*
X71060498Y-85594180D01*
X71119463Y-85704494D01*
X71198815Y-85801185D01*
X71295506Y-85880537D01*
X71405820Y-85939502D01*
X71525518Y-85975812D01*
X71650000Y-85988072D01*
X73350000Y-85988072D01*
X73474482Y-85975812D01*
X73594180Y-85939502D01*
X73704494Y-85880537D01*
X73801185Y-85801185D01*
X73880537Y-85704494D01*
X73939502Y-85594180D01*
X73961513Y-85521620D01*
X74093368Y-85653475D01*
X74336589Y-85815990D01*
X74606842Y-85927932D01*
X74893740Y-85985000D01*
X75186260Y-85985000D01*
X75473158Y-85927932D01*
X75743411Y-85815990D01*
X75986632Y-85653475D01*
X76193475Y-85446632D01*
X76310000Y-85272240D01*
X76426525Y-85446632D01*
X76633368Y-85653475D01*
X76876589Y-85815990D01*
X77146842Y-85927932D01*
X77433740Y-85985000D01*
X77726260Y-85985000D01*
X78013158Y-85927932D01*
X78283411Y-85815990D01*
X78526632Y-85653475D01*
X78733475Y-85446632D01*
X78850000Y-85272240D01*
X78966525Y-85446632D01*
X79173368Y-85653475D01*
X79416589Y-85815990D01*
X79686842Y-85927932D01*
X79973740Y-85985000D01*
X80266260Y-85985000D01*
X80553158Y-85927932D01*
X80823411Y-85815990D01*
X81066632Y-85653475D01*
X81273475Y-85446632D01*
X81390000Y-85272240D01*
X81506525Y-85446632D01*
X81713368Y-85653475D01*
X81956589Y-85815990D01*
X82226842Y-85927932D01*
X82513740Y-85985000D01*
X82806260Y-85985000D01*
X83093158Y-85927932D01*
X83363411Y-85815990D01*
X83606632Y-85653475D01*
X83813475Y-85446632D01*
X83930000Y-85272240D01*
X84046525Y-85446632D01*
X84253368Y-85653475D01*
X84496589Y-85815990D01*
X84766842Y-85927932D01*
X85053740Y-85985000D01*
X85346260Y-85985000D01*
X85633158Y-85927932D01*
X85903411Y-85815990D01*
X86146632Y-85653475D01*
X86353475Y-85446632D01*
X86470000Y-85272240D01*
X86586525Y-85446632D01*
X86793368Y-85653475D01*
X87036589Y-85815990D01*
X87306842Y-85927932D01*
X87593740Y-85985000D01*
X87886260Y-85985000D01*
X88173158Y-85927932D01*
X88443411Y-85815990D01*
X88686632Y-85653475D01*
X88893475Y-85446632D01*
X89010000Y-85272240D01*
X89126525Y-85446632D01*
X89333368Y-85653475D01*
X89576589Y-85815990D01*
X89846842Y-85927932D01*
X90133740Y-85985000D01*
X90426260Y-85985000D01*
X90713158Y-85927932D01*
X90983411Y-85815990D01*
X91226632Y-85653475D01*
X91433475Y-85446632D01*
X91555195Y-85264466D01*
X91624822Y-85381355D01*
X91819731Y-85597588D01*
X92053080Y-85771641D01*
X92315901Y-85896825D01*
X92463110Y-85941476D01*
X92693000Y-85820155D01*
X92693000Y-84627000D01*
X92947000Y-84627000D01*
X92947000Y-85820155D01*
X93176890Y-85941476D01*
X93324099Y-85896825D01*
X93586920Y-85771641D01*
X93820269Y-85597588D01*
X94015178Y-85381355D01*
X94164157Y-85131252D01*
X94261481Y-84856891D01*
X94140814Y-84627000D01*
X92947000Y-84627000D01*
X92693000Y-84627000D01*
X92673000Y-84627000D01*
X92673000Y-84373000D01*
X92693000Y-84373000D01*
X92693000Y-83179845D01*
X92947000Y-83179845D01*
X92947000Y-84373000D01*
X94140814Y-84373000D01*
X94261481Y-84143109D01*
X94164157Y-83868748D01*
X94015178Y-83618645D01*
X93820269Y-83402412D01*
X93586920Y-83228359D01*
X93324099Y-83103175D01*
X93176890Y-83058524D01*
X92947000Y-83179845D01*
X92693000Y-83179845D01*
X92463110Y-83058524D01*
X92315901Y-83103175D01*
X92053080Y-83228359D01*
X91819731Y-83402412D01*
X91624822Y-83618645D01*
X91555195Y-83735534D01*
X91433475Y-83553368D01*
X91226632Y-83346525D01*
X90983411Y-83184010D01*
X90713158Y-83072068D01*
X90426260Y-83015000D01*
X90133740Y-83015000D01*
X89846842Y-83072068D01*
X89576589Y-83184010D01*
X89333368Y-83346525D01*
X89126525Y-83553368D01*
X89010000Y-83727760D01*
X88893475Y-83553368D01*
X88686632Y-83346525D01*
X88443411Y-83184010D01*
X88173158Y-83072068D01*
X87886260Y-83015000D01*
X87593740Y-83015000D01*
X87306842Y-83072068D01*
X87036589Y-83184010D01*
X86793368Y-83346525D01*
X86586525Y-83553368D01*
X86470000Y-83727760D01*
X86353475Y-83553368D01*
X86146632Y-83346525D01*
X85903411Y-83184010D01*
X85633158Y-83072068D01*
X85346260Y-83015000D01*
X85053740Y-83015000D01*
X84766842Y-83072068D01*
X84496589Y-83184010D01*
X84253368Y-83346525D01*
X84046525Y-83553368D01*
X83930000Y-83727760D01*
X83813475Y-83553368D01*
X83606632Y-83346525D01*
X83363411Y-83184010D01*
X83093158Y-83072068D01*
X82806260Y-83015000D01*
X82513740Y-83015000D01*
X82226842Y-83072068D01*
X81956589Y-83184010D01*
X81713368Y-83346525D01*
X81506525Y-83553368D01*
X81390000Y-83727760D01*
X81273475Y-83553368D01*
X81066632Y-83346525D01*
X80823411Y-83184010D01*
X80553158Y-83072068D01*
X80266260Y-83015000D01*
X79973740Y-83015000D01*
X79686842Y-83072068D01*
X79416589Y-83184010D01*
X79173368Y-83346525D01*
X78966525Y-83553368D01*
X78850000Y-83727760D01*
X78733475Y-83553368D01*
X78526632Y-83346525D01*
X78283411Y-83184010D01*
X78013158Y-83072068D01*
X77726260Y-83015000D01*
X77433740Y-83015000D01*
X77146842Y-83072068D01*
X76876589Y-83184010D01*
X76633368Y-83346525D01*
X76426525Y-83553368D01*
X76310000Y-83727760D01*
X76193475Y-83553368D01*
X75986632Y-83346525D01*
X75743411Y-83184010D01*
X75473158Y-83072068D01*
X75186260Y-83015000D01*
X74893740Y-83015000D01*
X74606842Y-83072068D01*
X74336589Y-83184010D01*
X74093368Y-83346525D01*
X73961513Y-83478380D01*
X73939502Y-83405820D01*
X73880537Y-83295506D01*
X73801185Y-83198815D01*
X73704494Y-83119463D01*
X73594180Y-83060498D01*
X73474482Y-83024188D01*
X73350000Y-83011928D01*
X71650000Y-83011928D01*
X71525518Y-83024188D01*
X71405820Y-83060498D01*
X71295506Y-83119463D01*
X71198815Y-83198815D01*
X71119463Y-83295506D01*
X71060498Y-83405820D01*
X71024188Y-83525518D01*
X71011928Y-83650000D01*
X70033856Y-83650000D01*
X70015178Y-83618645D01*
X69820269Y-83402412D01*
X69586920Y-83228359D01*
X69324099Y-83103175D01*
X69176890Y-83058524D01*
X68947000Y-83179845D01*
X68693000Y-83179845D01*
X68463110Y-83058524D01*
X68315901Y-83103175D01*
X68053080Y-83228359D01*
X67819731Y-83402412D01*
X67624822Y-83618645D01*
X67555195Y-83735534D01*
X67433475Y-83553368D01*
X67226632Y-83346525D01*
X66983411Y-83184010D01*
X66713158Y-83072068D01*
X66426260Y-83015000D01*
X66133740Y-83015000D01*
X65846842Y-83072068D01*
X65576589Y-83184010D01*
X65333368Y-83346525D01*
X65126525Y-83553368D01*
X65010000Y-83727760D01*
X64893475Y-83553368D01*
X64686632Y-83346525D01*
X64443411Y-83184010D01*
X64173158Y-83072068D01*
X63886260Y-83015000D01*
X63593740Y-83015000D01*
X63306842Y-83072068D01*
X63036589Y-83184010D01*
X62793368Y-83346525D01*
X62586525Y-83553368D01*
X62470000Y-83727760D01*
X62353475Y-83553368D01*
X62146632Y-83346525D01*
X61903411Y-83184010D01*
X61633158Y-83072068D01*
X61346260Y-83015000D01*
X61053740Y-83015000D01*
X60766842Y-83072068D01*
X60496589Y-83184010D01*
X60253368Y-83346525D01*
X60046525Y-83553368D01*
X59930000Y-83727760D01*
X59813475Y-83553368D01*
X59606632Y-83346525D01*
X59363411Y-83184010D01*
X59093158Y-83072068D01*
X58806260Y-83015000D01*
X58513740Y-83015000D01*
X58226842Y-83072068D01*
X57956589Y-83184010D01*
X57713368Y-83346525D01*
X57506525Y-83553368D01*
X57390000Y-83727760D01*
X57273475Y-83553368D01*
X57066632Y-83346525D01*
X56823411Y-83184010D01*
X56553158Y-83072068D01*
X56266260Y-83015000D01*
X55973740Y-83015000D01*
X55686842Y-83072068D01*
X55416589Y-83184010D01*
X55173368Y-83346525D01*
X54966525Y-83553368D01*
X54850000Y-83727760D01*
X54733475Y-83553368D01*
X54526632Y-83346525D01*
X54283411Y-83184010D01*
X54013158Y-83072068D01*
X53726260Y-83015000D01*
X53433740Y-83015000D01*
X53146842Y-83072068D01*
X52876589Y-83184010D01*
X52633368Y-83346525D01*
X52426525Y-83553368D01*
X52310000Y-83727760D01*
X52193475Y-83553368D01*
X51986632Y-83346525D01*
X51743411Y-83184010D01*
X51473158Y-83072068D01*
X51186260Y-83015000D01*
X50893740Y-83015000D01*
X50606842Y-83072068D01*
X50336589Y-83184010D01*
X50093368Y-83346525D01*
X49961513Y-83478380D01*
X49939502Y-83405820D01*
X49880537Y-83295506D01*
X49801185Y-83198815D01*
X49704494Y-83119463D01*
X49594180Y-83060498D01*
X49474482Y-83024188D01*
X49350000Y-83011928D01*
X47650000Y-83011928D01*
X47525518Y-83024188D01*
X47405820Y-83060498D01*
X47295506Y-83119463D01*
X47198815Y-83198815D01*
X47119463Y-83295506D01*
X47060498Y-83405820D01*
X47024188Y-83525518D01*
X47011928Y-83650000D01*
X47011928Y-85350000D01*
X47024188Y-85474482D01*
X47060498Y-85594180D01*
X47119463Y-85704494D01*
X47198815Y-85801185D01*
X47295506Y-85880537D01*
X47405820Y-85939502D01*
X47525518Y-85975812D01*
X47650000Y-85988072D01*
X49350000Y-85988072D01*
X49474482Y-85975812D01*
X49594180Y-85939502D01*
X49704494Y-85880537D01*
X49801185Y-85801185D01*
X49880537Y-85704494D01*
X49939502Y-85594180D01*
X49961513Y-85521620D01*
X50093368Y-85653475D01*
X50336589Y-85815990D01*
X50606842Y-85927932D01*
X50893740Y-85985000D01*
X51186260Y-85985000D01*
X51473158Y-85927932D01*
X51743411Y-85815990D01*
X51986632Y-85653475D01*
X52193475Y-85446632D01*
X52310000Y-85272240D01*
X52426525Y-85446632D01*
X52633368Y-85653475D01*
X52876589Y-85815990D01*
X53146842Y-85927932D01*
X53433740Y-85985000D01*
X53726260Y-85985000D01*
X54013158Y-85927932D01*
X54283411Y-85815990D01*
X54526632Y-85653475D01*
X54733475Y-85446632D01*
X54850000Y-85272240D01*
X54966525Y-85446632D01*
X55173368Y-85653475D01*
X55416589Y-85815990D01*
X55686842Y-85927932D01*
X55973740Y-85985000D01*
X56266260Y-85985000D01*
X56553158Y-85927932D01*
X56823411Y-85815990D01*
X57066632Y-85653475D01*
X57273475Y-85446632D01*
X57390000Y-85272240D01*
X57506525Y-85446632D01*
X57713368Y-85653475D01*
X57956589Y-85815990D01*
X58226842Y-85927932D01*
X58513740Y-85985000D01*
X58806260Y-85985000D01*
X59093158Y-85927932D01*
X59240000Y-85867108D01*
X59240001Y-96665200D01*
X59063804Y-96489003D01*
X59040001Y-96459999D01*
X58924276Y-96365026D01*
X58792247Y-96294454D01*
X58648986Y-96250997D01*
X58537333Y-96240000D01*
X58537322Y-96240000D01*
X58500000Y-96236324D01*
X58462678Y-96240000D01*
X53814801Y-96240000D01*
X53563804Y-95989003D01*
X53540001Y-95959999D01*
X53424276Y-95865026D01*
X53292247Y-95794454D01*
X53148986Y-95750997D01*
X53037333Y-95740000D01*
X53037322Y-95740000D01*
X53000000Y-95736324D01*
X52962678Y-95740000D01*
X52203711Y-95740000D01*
X52159774Y-95696063D01*
X51990256Y-95582795D01*
X51801898Y-95504774D01*
X51601939Y-95465000D01*
X51398061Y-95465000D01*
X51198102Y-95504774D01*
X51009744Y-95582795D01*
X50840226Y-95696063D01*
X50696063Y-95840226D01*
X50582795Y-96009744D01*
X50504774Y-96198102D01*
X50465000Y-96398061D01*
X50465000Y-96601939D01*
X50504774Y-96801898D01*
X50582795Y-96990256D01*
X50696063Y-97159774D01*
X50840226Y-97303937D01*
X51009744Y-97417205D01*
X51198102Y-97495226D01*
X51398061Y-97535000D01*
X51601939Y-97535000D01*
X51801898Y-97495226D01*
X51990256Y-97417205D01*
X52159774Y-97303937D01*
X52203711Y-97260000D01*
X52685199Y-97260000D01*
X52936196Y-97510997D01*
X52959999Y-97540001D01*
X53075724Y-97634974D01*
X53207753Y-97705546D01*
X53351014Y-97749003D01*
X53462667Y-97760000D01*
X53462675Y-97760000D01*
X53500000Y-97763676D01*
X53537325Y-97760000D01*
X58185199Y-97760000D01*
X58240000Y-97814801D01*
X58240001Y-105462668D01*
X58236324Y-105500000D01*
X58240001Y-105537333D01*
X58250998Y-105648986D01*
X58264180Y-105692442D01*
X58294454Y-105792246D01*
X58365026Y-105924276D01*
X58396534Y-105962668D01*
X58460000Y-106040001D01*
X58488998Y-106063799D01*
X58936196Y-106510997D01*
X58959999Y-106540001D01*
X59075724Y-106634974D01*
X59207753Y-106705546D01*
X59351014Y-106749003D01*
X59462667Y-106760000D01*
X59462675Y-106760000D01*
X59500000Y-106763676D01*
X59537325Y-106760000D01*
X61240000Y-106760000D01*
X61240001Y-111462668D01*
X61236324Y-111500000D01*
X61240001Y-111537333D01*
X61250998Y-111648986D01*
X61257070Y-111669003D01*
X61294454Y-111792246D01*
X61337618Y-111873000D01*
X22627000Y-111873000D01*
X22627000Y-108989743D01*
X22647450Y-109020349D01*
X22979651Y-109352550D01*
X23370279Y-109613560D01*
X23804321Y-109793346D01*
X24265098Y-109885000D01*
X24734902Y-109885000D01*
X25195679Y-109793346D01*
X25629721Y-109613560D01*
X26020349Y-109352550D01*
X26352550Y-109020349D01*
X26613560Y-108629721D01*
X26793346Y-108195679D01*
X26885000Y-107734902D01*
X26885000Y-107364932D01*
X26975059Y-107582353D01*
X27225125Y-107956603D01*
X27543397Y-108274875D01*
X27917647Y-108524941D01*
X27937457Y-108533147D01*
X27885363Y-108585241D01*
X27728320Y-108820273D01*
X27620147Y-109081426D01*
X27565000Y-109358665D01*
X27565000Y-109641335D01*
X27620147Y-109918574D01*
X27728320Y-110179727D01*
X27885363Y-110414759D01*
X28085241Y-110614637D01*
X28320273Y-110771680D01*
X28581426Y-110879853D01*
X28858665Y-110935000D01*
X29141335Y-110935000D01*
X29418574Y-110879853D01*
X29679727Y-110771680D01*
X29914759Y-110614637D01*
X30114637Y-110414759D01*
X30271680Y-110179727D01*
X30379853Y-109918574D01*
X30435000Y-109641335D01*
X30435000Y-109358665D01*
X30379853Y-109081426D01*
X30271680Y-108820273D01*
X30114637Y-108585241D01*
X30062543Y-108533147D01*
X30082353Y-108524941D01*
X30456603Y-108274875D01*
X30774875Y-107956603D01*
X31024941Y-107582353D01*
X31115000Y-107364932D01*
X31115000Y-107734902D01*
X31206654Y-108195679D01*
X31386440Y-108629721D01*
X31647450Y-109020349D01*
X31979651Y-109352550D01*
X32370279Y-109613560D01*
X32804321Y-109793346D01*
X33265098Y-109885000D01*
X33734902Y-109885000D01*
X34195679Y-109793346D01*
X34629721Y-109613560D01*
X35020349Y-109352550D01*
X35352550Y-109020349D01*
X35613560Y-108629721D01*
X35793346Y-108195679D01*
X35885000Y-107734902D01*
X35885000Y-107265098D01*
X35793346Y-106804321D01*
X35613560Y-106370279D01*
X35352550Y-105979651D01*
X35020349Y-105647450D01*
X34629721Y-105386440D01*
X34195679Y-105206654D01*
X33734902Y-105115000D01*
X33265098Y-105115000D01*
X32804321Y-105206654D01*
X32370279Y-105386440D01*
X31979651Y-105647450D01*
X31647450Y-105979651D01*
X31386440Y-106370279D01*
X31285000Y-106615177D01*
X31285000Y-106274947D01*
X31197189Y-105833490D01*
X31024941Y-105417647D01*
X30774875Y-105043397D01*
X30456603Y-104725125D01*
X30082353Y-104475059D01*
X29666510Y-104302811D01*
X29225053Y-104215000D01*
X28774947Y-104215000D01*
X28333490Y-104302811D01*
X27917647Y-104475059D01*
X27543397Y-104725125D01*
X27225125Y-105043397D01*
X26975059Y-105417647D01*
X26802811Y-105833490D01*
X26715000Y-106274947D01*
X26715000Y-106615177D01*
X26613560Y-106370279D01*
X26352550Y-105979651D01*
X26020349Y-105647450D01*
X25629721Y-105386440D01*
X25195679Y-105206654D01*
X24734902Y-105115000D01*
X24265098Y-105115000D01*
X23804321Y-105206654D01*
X23370279Y-105386440D01*
X22979651Y-105647450D01*
X22647450Y-105979651D01*
X22627000Y-106010257D01*
X22627000Y-102500000D01*
X26361928Y-102500000D01*
X26374188Y-102624482D01*
X26410498Y-102744180D01*
X26469463Y-102854494D01*
X26548815Y-102951185D01*
X26645506Y-103030537D01*
X26755820Y-103089502D01*
X26875518Y-103125812D01*
X27000000Y-103138072D01*
X28714250Y-103135000D01*
X28873000Y-102976250D01*
X28873000Y-100627000D01*
X26523750Y-100627000D01*
X26365000Y-100785750D01*
X26361928Y-102500000D01*
X22627000Y-102500000D01*
X22627000Y-98500000D01*
X26361928Y-98500000D01*
X26365000Y-100214250D01*
X26523750Y-100373000D01*
X28873000Y-100373000D01*
X28873000Y-98023750D01*
X29127000Y-98023750D01*
X29127000Y-100373000D01*
X29147000Y-100373000D01*
X29147000Y-100627000D01*
X29127000Y-100627000D01*
X29127000Y-102976250D01*
X29285750Y-103135000D01*
X31000000Y-103138072D01*
X31124482Y-103125812D01*
X31244180Y-103089502D01*
X31354494Y-103030537D01*
X31410101Y-102984902D01*
X32936201Y-104511003D01*
X32959999Y-104540001D01*
X32988997Y-104563799D01*
X33075723Y-104634974D01*
X33152477Y-104676000D01*
X33207753Y-104705546D01*
X33351014Y-104749003D01*
X33462667Y-104760000D01*
X33462676Y-104760000D01*
X33499999Y-104763676D01*
X33537322Y-104760000D01*
X38796289Y-104760000D01*
X38840226Y-104803937D01*
X39009744Y-104917205D01*
X39198102Y-104995226D01*
X39398061Y-105035000D01*
X39465000Y-105035000D01*
X39465000Y-105101939D01*
X39504774Y-105301898D01*
X39582795Y-105490256D01*
X39696063Y-105659774D01*
X39840226Y-105803937D01*
X40009744Y-105917205D01*
X40198102Y-105995226D01*
X40398061Y-106035000D01*
X40572334Y-106035000D01*
X40504774Y-106198102D01*
X40465000Y-106398061D01*
X40465000Y-106601939D01*
X40504774Y-106801898D01*
X40582795Y-106990256D01*
X40696063Y-107159774D01*
X40840226Y-107303937D01*
X41009744Y-107417205D01*
X41198102Y-107495226D01*
X41398061Y-107535000D01*
X41465000Y-107535000D01*
X41465000Y-107601939D01*
X41504774Y-107801898D01*
X41582795Y-107990256D01*
X41696063Y-108159774D01*
X41840226Y-108303937D01*
X42009744Y-108417205D01*
X42198102Y-108495226D01*
X42398061Y-108535000D01*
X42601939Y-108535000D01*
X42801898Y-108495226D01*
X42990256Y-108417205D01*
X43159774Y-108303937D01*
X43303937Y-108159774D01*
X43417205Y-107990256D01*
X43495226Y-107801898D01*
X43535000Y-107601939D01*
X43535000Y-107398061D01*
X43495226Y-107198102D01*
X43417205Y-107009744D01*
X43303937Y-106840226D01*
X43260000Y-106796289D01*
X43260000Y-102537322D01*
X43263676Y-102499999D01*
X43260000Y-102462676D01*
X43260000Y-102462667D01*
X43249003Y-102351014D01*
X43205546Y-102207753D01*
X43134974Y-102075724D01*
X43040001Y-101959999D01*
X43011003Y-101936201D01*
X41563804Y-100489003D01*
X41540001Y-100459999D01*
X41424276Y-100365026D01*
X41292247Y-100294454D01*
X41148986Y-100250997D01*
X41037333Y-100240000D01*
X41037322Y-100240000D01*
X41000000Y-100236324D01*
X40962678Y-100240000D01*
X35314801Y-100240000D01*
X35260000Y-100185199D01*
X35260000Y-96089396D01*
X35285241Y-96114637D01*
X35520273Y-96271680D01*
X35781426Y-96379853D01*
X36058665Y-96435000D01*
X36341335Y-96435000D01*
X36618574Y-96379853D01*
X36879727Y-96271680D01*
X37114759Y-96114637D01*
X37314637Y-95914759D01*
X37471680Y-95679727D01*
X37579853Y-95418574D01*
X37635000Y-95141335D01*
X37635000Y-94858665D01*
X37579853Y-94581426D01*
X37471680Y-94320273D01*
X37314637Y-94085241D01*
X37114759Y-93885363D01*
X36879727Y-93728320D01*
X36618574Y-93620147D01*
X36341335Y-93565000D01*
X36058665Y-93565000D01*
X35781426Y-93620147D01*
X35520273Y-93728320D01*
X35285241Y-93885363D01*
X35260000Y-93910604D01*
X35260000Y-91703711D01*
X35303937Y-91659774D01*
X35417205Y-91490256D01*
X35495226Y-91301898D01*
X35535000Y-91101939D01*
X35535000Y-90898061D01*
X35495226Y-90698102D01*
X35417205Y-90509744D01*
X35303937Y-90340226D01*
X35159774Y-90196063D01*
X34990256Y-90082795D01*
X34801898Y-90004774D01*
X34601939Y-89965000D01*
X34398061Y-89965000D01*
X34198102Y-90004774D01*
X34009744Y-90082795D01*
X33840226Y-90196063D01*
X33696063Y-90340226D01*
X33582795Y-90509744D01*
X33504774Y-90698102D01*
X33465000Y-90898061D01*
X33465000Y-90965000D01*
X33398061Y-90965000D01*
X33198102Y-91004774D01*
X33009744Y-91082795D01*
X32840226Y-91196063D01*
X32696063Y-91340226D01*
X32582795Y-91509744D01*
X32539035Y-91615388D01*
X32490256Y-91582795D01*
X32301898Y-91504774D01*
X32101939Y-91465000D01*
X31898061Y-91465000D01*
X31698102Y-91504774D01*
X31509744Y-91582795D01*
X31340226Y-91696063D01*
X31196063Y-91840226D01*
X31082795Y-92009744D01*
X31039035Y-92115388D01*
X30990256Y-92082795D01*
X30801898Y-92004774D01*
X30601939Y-91965000D01*
X30398061Y-91965000D01*
X30198102Y-92004774D01*
X30009744Y-92082795D01*
X29840226Y-92196063D01*
X29696063Y-92340226D01*
X29582795Y-92509744D01*
X29504774Y-92698102D01*
X29465000Y-92898061D01*
X29465000Y-93101939D01*
X29504774Y-93301898D01*
X29582795Y-93490256D01*
X29696063Y-93659774D01*
X29840226Y-93803937D01*
X30009744Y-93917205D01*
X30198102Y-93995226D01*
X30398061Y-94035000D01*
X30460198Y-94035000D01*
X30565001Y-94139803D01*
X30565002Y-97862708D01*
X29285750Y-97865000D01*
X29127000Y-98023750D01*
X28873000Y-98023750D01*
X28714250Y-97865000D01*
X27000000Y-97861928D01*
X26875518Y-97874188D01*
X26755820Y-97910498D01*
X26645506Y-97969463D01*
X26548815Y-98048815D01*
X26469463Y-98145506D01*
X26410498Y-98255820D01*
X26374188Y-98375518D01*
X26361928Y-98500000D01*
X22627000Y-98500000D01*
X22627000Y-96430882D01*
X22700000Y-96438072D01*
X24300000Y-96438072D01*
X24424482Y-96425812D01*
X24544180Y-96389502D01*
X24654494Y-96330537D01*
X24751185Y-96251185D01*
X24830537Y-96154494D01*
X24889502Y-96044180D01*
X24925812Y-95924482D01*
X24938072Y-95800000D01*
X24938072Y-94200000D01*
X24925812Y-94075518D01*
X24889502Y-93955820D01*
X24830537Y-93845506D01*
X24751185Y-93748815D01*
X24654494Y-93669463D01*
X24544180Y-93610498D01*
X24424482Y-93574188D01*
X24300000Y-93561928D01*
X22700000Y-93561928D01*
X22627000Y-93569118D01*
X22627000Y-83650000D01*
X22691928Y-83650000D01*
X22691928Y-85350000D01*
X22704188Y-85474482D01*
X22740498Y-85594180D01*
X22799463Y-85704494D01*
X22878815Y-85801185D01*
X22975506Y-85880537D01*
X23085820Y-85939502D01*
X23205518Y-85975812D01*
X23330000Y-85988072D01*
X25030000Y-85988072D01*
X25154482Y-85975812D01*
X25274180Y-85939502D01*
X25384494Y-85880537D01*
X25481185Y-85801185D01*
X25560537Y-85704494D01*
X25619502Y-85594180D01*
X25641513Y-85521620D01*
X25773368Y-85653475D01*
X26016589Y-85815990D01*
X26286842Y-85927932D01*
X26573740Y-85985000D01*
X26866260Y-85985000D01*
X27153158Y-85927932D01*
X27423411Y-85815990D01*
X27666632Y-85653475D01*
X27873475Y-85446632D01*
X27990000Y-85272240D01*
X28106525Y-85446632D01*
X28313368Y-85653475D01*
X28556589Y-85815990D01*
X28826842Y-85927932D01*
X29113740Y-85985000D01*
X29406260Y-85985000D01*
X29693158Y-85927932D01*
X29963411Y-85815990D01*
X30206632Y-85653475D01*
X30413475Y-85446632D01*
X30530000Y-85272240D01*
X30646525Y-85446632D01*
X30853368Y-85653475D01*
X31096589Y-85815990D01*
X31366842Y-85927932D01*
X31653740Y-85985000D01*
X31946260Y-85985000D01*
X32233158Y-85927932D01*
X32503411Y-85815990D01*
X32746632Y-85653475D01*
X32953475Y-85446632D01*
X33070000Y-85272240D01*
X33186525Y-85446632D01*
X33393368Y-85653475D01*
X33636589Y-85815990D01*
X33906842Y-85927932D01*
X34193740Y-85985000D01*
X34486260Y-85985000D01*
X34773158Y-85927932D01*
X35043411Y-85815990D01*
X35286632Y-85653475D01*
X35493475Y-85446632D01*
X35610000Y-85272240D01*
X35726525Y-85446632D01*
X35933368Y-85653475D01*
X36176589Y-85815990D01*
X36446842Y-85927932D01*
X36733740Y-85985000D01*
X37026260Y-85985000D01*
X37313158Y-85927932D01*
X37583411Y-85815990D01*
X37826632Y-85653475D01*
X38033475Y-85446632D01*
X38150000Y-85272240D01*
X38266525Y-85446632D01*
X38473368Y-85653475D01*
X38716589Y-85815990D01*
X38986842Y-85927932D01*
X39273740Y-85985000D01*
X39566260Y-85985000D01*
X39853158Y-85927932D01*
X40123411Y-85815990D01*
X40366632Y-85653475D01*
X40573475Y-85446632D01*
X40690000Y-85272240D01*
X40806525Y-85446632D01*
X41013368Y-85653475D01*
X41256589Y-85815990D01*
X41526842Y-85927932D01*
X41813740Y-85985000D01*
X42106260Y-85985000D01*
X42393158Y-85927932D01*
X42663411Y-85815990D01*
X42906632Y-85653475D01*
X43113475Y-85446632D01*
X43235195Y-85264466D01*
X43304822Y-85381355D01*
X43499731Y-85597588D01*
X43733080Y-85771641D01*
X43995901Y-85896825D01*
X44143110Y-85941476D01*
X44373000Y-85820155D01*
X44373000Y-84627000D01*
X44627000Y-84627000D01*
X44627000Y-85820155D01*
X44856890Y-85941476D01*
X45004099Y-85896825D01*
X45266920Y-85771641D01*
X45500269Y-85597588D01*
X45695178Y-85381355D01*
X45844157Y-85131252D01*
X45941481Y-84856891D01*
X45820814Y-84627000D01*
X44627000Y-84627000D01*
X44373000Y-84627000D01*
X44353000Y-84627000D01*
X44353000Y-84373000D01*
X44373000Y-84373000D01*
X44373000Y-83179845D01*
X44627000Y-83179845D01*
X44627000Y-84373000D01*
X45820814Y-84373000D01*
X45941481Y-84143109D01*
X45844157Y-83868748D01*
X45695178Y-83618645D01*
X45500269Y-83402412D01*
X45266920Y-83228359D01*
X45004099Y-83103175D01*
X44856890Y-83058524D01*
X44627000Y-83179845D01*
X44373000Y-83179845D01*
X44143110Y-83058524D01*
X43995901Y-83103175D01*
X43733080Y-83228359D01*
X43499731Y-83402412D01*
X43304822Y-83618645D01*
X43235195Y-83735534D01*
X43113475Y-83553368D01*
X42906632Y-83346525D01*
X42663411Y-83184010D01*
X42393158Y-83072068D01*
X42106260Y-83015000D01*
X41813740Y-83015000D01*
X41526842Y-83072068D01*
X41256589Y-83184010D01*
X41013368Y-83346525D01*
X40806525Y-83553368D01*
X40690000Y-83727760D01*
X40573475Y-83553368D01*
X40366632Y-83346525D01*
X40123411Y-83184010D01*
X39853158Y-83072068D01*
X39566260Y-83015000D01*
X39273740Y-83015000D01*
X38986842Y-83072068D01*
X38716589Y-83184010D01*
X38473368Y-83346525D01*
X38266525Y-83553368D01*
X38150000Y-83727760D01*
X38033475Y-83553368D01*
X37826632Y-83346525D01*
X37583411Y-83184010D01*
X37313158Y-83072068D01*
X37026260Y-83015000D01*
X36733740Y-83015000D01*
X36446842Y-83072068D01*
X36176589Y-83184010D01*
X35933368Y-83346525D01*
X35726525Y-83553368D01*
X35610000Y-83727760D01*
X35493475Y-83553368D01*
X35286632Y-83346525D01*
X35043411Y-83184010D01*
X34773158Y-83072068D01*
X34486260Y-83015000D01*
X34193740Y-83015000D01*
X33906842Y-83072068D01*
X33636589Y-83184010D01*
X33393368Y-83346525D01*
X33186525Y-83553368D01*
X33070000Y-83727760D01*
X32953475Y-83553368D01*
X32746632Y-83346525D01*
X32503411Y-83184010D01*
X32233158Y-83072068D01*
X31946260Y-83015000D01*
X31653740Y-83015000D01*
X31366842Y-83072068D01*
X31096589Y-83184010D01*
X30853368Y-83346525D01*
X30646525Y-83553368D01*
X30530000Y-83727760D01*
X30413475Y-83553368D01*
X30206632Y-83346525D01*
X29963411Y-83184010D01*
X29693158Y-83072068D01*
X29406260Y-83015000D01*
X29113740Y-83015000D01*
X28826842Y-83072068D01*
X28556589Y-83184010D01*
X28313368Y-83346525D01*
X28106525Y-83553368D01*
X27990000Y-83727760D01*
X27873475Y-83553368D01*
X27666632Y-83346525D01*
X27423411Y-83184010D01*
X27153158Y-83072068D01*
X26866260Y-83015000D01*
X26573740Y-83015000D01*
X26286842Y-83072068D01*
X26016589Y-83184010D01*
X25773368Y-83346525D01*
X25641513Y-83478380D01*
X25619502Y-83405820D01*
X25560537Y-83295506D01*
X25481185Y-83198815D01*
X25384494Y-83119463D01*
X25274180Y-83060498D01*
X25154482Y-83024188D01*
X25030000Y-83011928D01*
X23330000Y-83011928D01*
X23205518Y-83024188D01*
X23085820Y-83060498D01*
X22975506Y-83119463D01*
X22878815Y-83198815D01*
X22799463Y-83295506D01*
X22740498Y-83405820D01*
X22704188Y-83525518D01*
X22691928Y-83650000D01*
X22627000Y-83650000D01*
X22627000Y-66127000D01*
X119373000Y-66127000D01*
X119373000Y-111873000D01*
G04 #@! TA.AperFunction,Conductor*
D20*
G36*
X119373000Y-111873000D02*
G01*
X72662382Y-111873000D01*
X72705546Y-111792247D01*
X72729816Y-111712239D01*
X72851014Y-111749003D01*
X73000000Y-111763677D01*
X73037333Y-111760000D01*
X114962678Y-111760000D01*
X115000000Y-111763676D01*
X115037322Y-111760000D01*
X115037333Y-111760000D01*
X115148986Y-111749003D01*
X115292247Y-111705546D01*
X115424276Y-111634974D01*
X115540001Y-111540001D01*
X115563804Y-111510997D01*
X117011004Y-110063798D01*
X117040001Y-110040001D01*
X117134974Y-109924276D01*
X117205546Y-109792247D01*
X117249003Y-109648986D01*
X117260000Y-109537333D01*
X117260000Y-109537324D01*
X117263676Y-109500001D01*
X117260000Y-109462678D01*
X117260000Y-98298711D01*
X117303937Y-98254774D01*
X117417205Y-98085256D01*
X117495226Y-97896898D01*
X117535000Y-97696939D01*
X117535000Y-97493061D01*
X117495226Y-97293102D01*
X117417205Y-97104744D01*
X117303937Y-96935226D01*
X117159774Y-96791063D01*
X116990256Y-96677795D01*
X116801898Y-96599774D01*
X116601939Y-96560000D01*
X116398061Y-96560000D01*
X116198102Y-96599774D01*
X116009744Y-96677795D01*
X115840226Y-96791063D01*
X115696063Y-96935226D01*
X115582795Y-97104744D01*
X115504774Y-97293102D01*
X115465000Y-97493061D01*
X115465000Y-97696939D01*
X115504774Y-97896898D01*
X115582795Y-98085256D01*
X115696063Y-98254774D01*
X115740001Y-98298712D01*
X115740000Y-109185198D01*
X114685199Y-110240000D01*
X73488072Y-110240000D01*
X73488072Y-109150000D01*
X73475812Y-109025518D01*
X73439502Y-108905820D01*
X73380537Y-108795506D01*
X73351398Y-108760000D01*
X73685199Y-108760000D01*
X74436201Y-109511003D01*
X74459999Y-109540001D01*
X74488997Y-109563799D01*
X74575724Y-109634974D01*
X74707753Y-109705546D01*
X74851014Y-109749003D01*
X75000000Y-109763677D01*
X75037333Y-109760000D01*
X112462667Y-109760000D01*
X112500000Y-109763677D01*
X112648986Y-109749003D01*
X112792247Y-109705546D01*
X112924276Y-109634974D01*
X113040001Y-109540001D01*
X113134974Y-109424276D01*
X113205546Y-109292247D01*
X113249003Y-109148986D01*
X113260000Y-109037333D01*
X113263677Y-109000000D01*
X113260000Y-108962667D01*
X113260000Y-94703711D01*
X113303937Y-94659774D01*
X113417205Y-94490256D01*
X113495226Y-94301898D01*
X113535000Y-94101939D01*
X113535000Y-93898061D01*
X113495226Y-93698102D01*
X113417205Y-93509744D01*
X113303937Y-93340226D01*
X113159774Y-93196063D01*
X112990256Y-93082795D01*
X112801898Y-93004774D01*
X112601939Y-92965000D01*
X112398061Y-92965000D01*
X112198102Y-93004774D01*
X112009744Y-93082795D01*
X111840226Y-93196063D01*
X111696063Y-93340226D01*
X111582795Y-93509744D01*
X111504774Y-93698102D01*
X111465000Y-93898061D01*
X111465000Y-94101939D01*
X111504774Y-94301898D01*
X111582795Y-94490256D01*
X111696063Y-94659774D01*
X111740000Y-94703711D01*
X111740001Y-108240000D01*
X103723711Y-108240000D01*
X103803937Y-108159774D01*
X103917205Y-107990256D01*
X103995226Y-107801898D01*
X104035000Y-107601939D01*
X104035000Y-107398061D01*
X103995226Y-107198102D01*
X103927666Y-107035000D01*
X104101939Y-107035000D01*
X104301898Y-106995226D01*
X104490256Y-106917205D01*
X104659774Y-106803937D01*
X104803937Y-106659774D01*
X104917205Y-106490256D01*
X104995226Y-106301898D01*
X105035000Y-106101939D01*
X105035000Y-106035000D01*
X105101939Y-106035000D01*
X105301898Y-105995226D01*
X105490256Y-105917205D01*
X105659774Y-105803937D01*
X105803937Y-105659774D01*
X105917205Y-105490256D01*
X105995226Y-105301898D01*
X106035000Y-105101939D01*
X106035000Y-105035000D01*
X106101939Y-105035000D01*
X106301898Y-104995226D01*
X106490256Y-104917205D01*
X106659774Y-104803937D01*
X106803937Y-104659774D01*
X106917205Y-104490256D01*
X106995226Y-104301898D01*
X107035000Y-104101939D01*
X107035000Y-104035000D01*
X107101939Y-104035000D01*
X107301898Y-103995226D01*
X107490256Y-103917205D01*
X107659774Y-103803937D01*
X107803937Y-103659774D01*
X107917205Y-103490256D01*
X107995226Y-103301898D01*
X108035000Y-103101939D01*
X108035000Y-102898061D01*
X107995226Y-102698102D01*
X107917205Y-102509744D01*
X107870604Y-102440000D01*
X108006939Y-102440000D01*
X108206898Y-102400226D01*
X108395256Y-102322205D01*
X108564774Y-102208937D01*
X108708937Y-102064774D01*
X108822205Y-101895256D01*
X108900226Y-101706898D01*
X108940000Y-101506939D01*
X108940000Y-101303061D01*
X108900226Y-101103102D01*
X108869679Y-101029354D01*
X108898061Y-101035000D01*
X109101939Y-101035000D01*
X109301898Y-100995226D01*
X109490256Y-100917205D01*
X109659774Y-100803937D01*
X109803937Y-100659774D01*
X109917205Y-100490256D01*
X109995226Y-100301898D01*
X110035000Y-100101939D01*
X110035000Y-100035000D01*
X110101939Y-100035000D01*
X110301898Y-99995226D01*
X110490256Y-99917205D01*
X110659774Y-99803937D01*
X110803937Y-99659774D01*
X110917205Y-99490256D01*
X110995226Y-99301898D01*
X111035000Y-99101939D01*
X111035000Y-98898061D01*
X110995226Y-98698102D01*
X110917205Y-98509744D01*
X110803937Y-98340226D01*
X110760000Y-98296289D01*
X110760000Y-87814801D01*
X112139801Y-86435001D01*
X113287677Y-86435001D01*
X113324999Y-86438677D01*
X113362321Y-86435001D01*
X113362332Y-86435001D01*
X113473985Y-86424004D01*
X113617246Y-86380547D01*
X113749275Y-86309975D01*
X113865000Y-86215002D01*
X113888803Y-86185999D01*
X114097091Y-85977710D01*
X114133740Y-85985000D01*
X114426260Y-85985000D01*
X114713158Y-85927932D01*
X114983411Y-85815990D01*
X115226632Y-85653475D01*
X115433475Y-85446632D01*
X115555195Y-85264466D01*
X115624822Y-85381355D01*
X115819731Y-85597588D01*
X116053080Y-85771641D01*
X116315901Y-85896825D01*
X116463110Y-85941476D01*
X116693000Y-85820155D01*
X116693000Y-84627000D01*
X116947000Y-84627000D01*
X116947000Y-85820155D01*
X117176890Y-85941476D01*
X117324099Y-85896825D01*
X117586920Y-85771641D01*
X117820269Y-85597588D01*
X118015178Y-85381355D01*
X118164157Y-85131252D01*
X118261481Y-84856891D01*
X118140814Y-84627000D01*
X116947000Y-84627000D01*
X116693000Y-84627000D01*
X116673000Y-84627000D01*
X116673000Y-84373000D01*
X116693000Y-84373000D01*
X116693000Y-83179845D01*
X116947000Y-83179845D01*
X116947000Y-84373000D01*
X118140814Y-84373000D01*
X118261481Y-84143109D01*
X118164157Y-83868748D01*
X118015178Y-83618645D01*
X117820269Y-83402412D01*
X117586920Y-83228359D01*
X117324099Y-83103175D01*
X117176890Y-83058524D01*
X116947000Y-83179845D01*
X116693000Y-83179845D01*
X116463110Y-83058524D01*
X116315901Y-83103175D01*
X116053080Y-83228359D01*
X115819731Y-83402412D01*
X115624822Y-83618645D01*
X115555195Y-83735534D01*
X115433475Y-83553368D01*
X115226632Y-83346525D01*
X114983411Y-83184010D01*
X114713158Y-83072068D01*
X114426260Y-83015000D01*
X114133740Y-83015000D01*
X113846842Y-83072068D01*
X113576589Y-83184010D01*
X113333368Y-83346525D01*
X113126525Y-83553368D01*
X113010000Y-83727760D01*
X112893475Y-83553368D01*
X112686632Y-83346525D01*
X112443411Y-83184010D01*
X112173158Y-83072068D01*
X111886260Y-83015000D01*
X111593740Y-83015000D01*
X111306842Y-83072068D01*
X111036589Y-83184010D01*
X110793368Y-83346525D01*
X110586525Y-83553368D01*
X110470000Y-83727760D01*
X110353475Y-83553368D01*
X110146632Y-83346525D01*
X109903411Y-83184010D01*
X109633158Y-83072068D01*
X109346260Y-83015000D01*
X109053740Y-83015000D01*
X108766842Y-83072068D01*
X108496589Y-83184010D01*
X108253368Y-83346525D01*
X108046525Y-83553368D01*
X107930000Y-83727760D01*
X107813475Y-83553368D01*
X107606632Y-83346525D01*
X107363411Y-83184010D01*
X107093158Y-83072068D01*
X106806260Y-83015000D01*
X106513740Y-83015000D01*
X106226842Y-83072068D01*
X105956589Y-83184010D01*
X105713368Y-83346525D01*
X105506525Y-83553368D01*
X105390000Y-83727760D01*
X105273475Y-83553368D01*
X105066632Y-83346525D01*
X104823411Y-83184010D01*
X104553158Y-83072068D01*
X104266260Y-83015000D01*
X103973740Y-83015000D01*
X103686842Y-83072068D01*
X103416589Y-83184010D01*
X103173368Y-83346525D01*
X102966525Y-83553368D01*
X102850000Y-83727760D01*
X102733475Y-83553368D01*
X102526632Y-83346525D01*
X102283411Y-83184010D01*
X102013158Y-83072068D01*
X101726260Y-83015000D01*
X101433740Y-83015000D01*
X101146842Y-83072068D01*
X100876589Y-83184010D01*
X100633368Y-83346525D01*
X100426525Y-83553368D01*
X100310000Y-83727760D01*
X100193475Y-83553368D01*
X99986632Y-83346525D01*
X99743411Y-83184010D01*
X99473158Y-83072068D01*
X99186260Y-83015000D01*
X98893740Y-83015000D01*
X98606842Y-83072068D01*
X98336589Y-83184010D01*
X98093368Y-83346525D01*
X97961513Y-83478380D01*
X97939502Y-83405820D01*
X97880537Y-83295506D01*
X97801185Y-83198815D01*
X97704494Y-83119463D01*
X97594180Y-83060498D01*
X97474482Y-83024188D01*
X97350000Y-83011928D01*
X95650000Y-83011928D01*
X95525518Y-83024188D01*
X95405820Y-83060498D01*
X95295506Y-83119463D01*
X95198815Y-83198815D01*
X95119463Y-83295506D01*
X95060498Y-83405820D01*
X95024188Y-83525518D01*
X95011928Y-83650000D01*
X95011928Y-85350000D01*
X95024188Y-85474482D01*
X95060498Y-85594180D01*
X95119463Y-85704494D01*
X95198815Y-85801185D01*
X95295506Y-85880537D01*
X95405820Y-85939502D01*
X95525518Y-85975812D01*
X95650000Y-85988072D01*
X95740000Y-85988072D01*
X95740000Y-86462677D01*
X95736324Y-86500000D01*
X95740000Y-86537322D01*
X95740000Y-86537332D01*
X95750997Y-86648985D01*
X95778606Y-86740000D01*
X95037325Y-86740000D01*
X95000000Y-86736324D01*
X94962675Y-86740000D01*
X94962667Y-86740000D01*
X94851014Y-86750997D01*
X94707753Y-86794454D01*
X94575724Y-86865026D01*
X94459999Y-86959999D01*
X94436196Y-86989003D01*
X93988998Y-87436201D01*
X93960000Y-87459999D01*
X93936203Y-87488996D01*
X93936201Y-87488998D01*
X93865026Y-87575724D01*
X93794454Y-87707754D01*
X93783464Y-87743985D01*
X93750999Y-87851013D01*
X93750998Y-87851015D01*
X93736324Y-88000000D01*
X93740001Y-88037332D01*
X93740000Y-91685198D01*
X93185199Y-92240000D01*
X69703711Y-92240000D01*
X69659774Y-92196063D01*
X69490256Y-92082795D01*
X69301898Y-92004774D01*
X69101939Y-91965000D01*
X68898061Y-91965000D01*
X68698102Y-92004774D01*
X68509744Y-92082795D01*
X68340226Y-92196063D01*
X68196063Y-92340226D01*
X68082795Y-92509744D01*
X68004774Y-92698102D01*
X67965000Y-92898061D01*
X67965000Y-93072334D01*
X67801898Y-93004774D01*
X67601939Y-92965000D01*
X67398061Y-92965000D01*
X67198102Y-93004774D01*
X67009744Y-93082795D01*
X66840226Y-93196063D01*
X66696063Y-93340226D01*
X66582795Y-93509744D01*
X66504774Y-93698102D01*
X66465000Y-93898061D01*
X66465000Y-94101939D01*
X66504774Y-94301898D01*
X66582795Y-94490256D01*
X66696063Y-94659774D01*
X66740000Y-94703711D01*
X66740001Y-108521711D01*
X66486842Y-108572068D01*
X66216589Y-108684010D01*
X65973368Y-108846525D01*
X65766525Y-109053368D01*
X65644805Y-109235534D01*
X65575178Y-109118645D01*
X65380269Y-108902412D01*
X65146920Y-108728359D01*
X64884099Y-108603175D01*
X64736890Y-108558524D01*
X64507000Y-108679845D01*
X64507000Y-109873000D01*
X64527000Y-109873000D01*
X64527000Y-110127000D01*
X64507000Y-110127000D01*
X64507000Y-110147000D01*
X64253000Y-110147000D01*
X64253000Y-110127000D01*
X63059186Y-110127000D01*
X62938519Y-110356891D01*
X63035843Y-110631252D01*
X63184822Y-110881355D01*
X63379731Y-111097588D01*
X63503638Y-111190009D01*
X62764810Y-111190009D01*
X62760000Y-111185199D01*
X62760000Y-109643109D01*
X62938519Y-109643109D01*
X63059186Y-109873000D01*
X64253000Y-109873000D01*
X64253000Y-108679845D01*
X64023110Y-108558524D01*
X63875901Y-108603175D01*
X63613080Y-108728359D01*
X63379731Y-108902412D01*
X63184822Y-109118645D01*
X63035843Y-109368748D01*
X62938519Y-109643109D01*
X62760000Y-109643109D01*
X62760000Y-106703711D01*
X62803937Y-106659774D01*
X62917205Y-106490256D01*
X62995226Y-106301898D01*
X63035000Y-106101939D01*
X63035000Y-105898061D01*
X62995226Y-105698102D01*
X62917205Y-105509744D01*
X62803937Y-105340226D01*
X62659774Y-105196063D01*
X62490256Y-105082795D01*
X62301898Y-105004774D01*
X62101939Y-104965000D01*
X61898061Y-104965000D01*
X61698102Y-105004774D01*
X61509744Y-105082795D01*
X61340226Y-105196063D01*
X61296289Y-105240000D01*
X59814801Y-105240000D01*
X59760000Y-105185199D01*
X59760000Y-102834801D01*
X59965014Y-103039816D01*
X59965014Y-103101939D01*
X60004788Y-103301898D01*
X60082809Y-103490256D01*
X60196077Y-103659774D01*
X60340240Y-103803937D01*
X60509758Y-103917205D01*
X60698116Y-103995226D01*
X60898075Y-104035000D01*
X61101953Y-104035000D01*
X61301912Y-103995226D01*
X61490270Y-103917205D01*
X61659788Y-103803937D01*
X61803951Y-103659774D01*
X61917219Y-103490256D01*
X61995240Y-103301898D01*
X62035014Y-103101939D01*
X62035014Y-102898061D01*
X61995240Y-102698102D01*
X61917219Y-102509744D01*
X61803951Y-102340226D01*
X61659788Y-102196063D01*
X61490270Y-102082795D01*
X61301912Y-102004774D01*
X61101953Y-101965000D01*
X61039802Y-101965000D01*
X60760000Y-101685199D01*
X60760000Y-101507538D01*
X60898061Y-101535000D01*
X61101939Y-101535000D01*
X61301898Y-101495226D01*
X61490256Y-101417205D01*
X61659774Y-101303937D01*
X61803937Y-101159774D01*
X61917205Y-100990256D01*
X61995226Y-100801898D01*
X62035000Y-100601939D01*
X62035000Y-100398061D01*
X61995226Y-100198102D01*
X61927666Y-100035000D01*
X62101939Y-100035000D01*
X62301898Y-99995226D01*
X62490256Y-99917205D01*
X62659774Y-99803937D01*
X62803937Y-99659774D01*
X62917205Y-99490256D01*
X62995226Y-99301898D01*
X63035000Y-99101939D01*
X63035000Y-98898061D01*
X62995226Y-98698102D01*
X62917205Y-98509744D01*
X62803937Y-98340226D01*
X62760000Y-98296289D01*
X62760000Y-86814801D01*
X62814801Y-86760000D01*
X64742678Y-86760000D01*
X64780000Y-86763676D01*
X64817322Y-86760000D01*
X64817333Y-86760000D01*
X64928986Y-86749003D01*
X65072247Y-86705546D01*
X65204276Y-86634974D01*
X65320001Y-86540001D01*
X65343804Y-86510997D01*
X65913592Y-85941209D01*
X66133740Y-85985000D01*
X66426260Y-85985000D01*
X66713158Y-85927932D01*
X66983411Y-85815990D01*
X67226632Y-85653475D01*
X67433475Y-85446632D01*
X67555195Y-85264466D01*
X67624822Y-85381355D01*
X67819731Y-85597588D01*
X68053080Y-85771641D01*
X68315901Y-85896825D01*
X68463110Y-85941476D01*
X68693000Y-85820155D01*
X68693000Y-84627000D01*
X68947000Y-84627000D01*
X68947000Y-85820155D01*
X69176890Y-85941476D01*
X69324099Y-85896825D01*
X69586920Y-85771641D01*
X69820269Y-85597588D01*
X70015178Y-85381355D01*
X70164157Y-85131252D01*
X70261481Y-84856891D01*
X70140814Y-84627000D01*
X68947000Y-84627000D01*
X68693000Y-84627000D01*
X68673000Y-84627000D01*
X68673000Y-84373000D01*
X68693000Y-84373000D01*
X68693000Y-83179845D01*
X68947000Y-83179845D01*
X68947000Y-84373000D01*
X70140814Y-84373000D01*
X70261481Y-84143109D01*
X70164157Y-83868748D01*
X70033856Y-83650000D01*
X71011928Y-83650000D01*
X71011928Y-85350000D01*
X71024188Y-85474482D01*
X71060498Y-85594180D01*
X71119463Y-85704494D01*
X71198815Y-85801185D01*
X71295506Y-85880537D01*
X71405820Y-85939502D01*
X71525518Y-85975812D01*
X71650000Y-85988072D01*
X73350000Y-85988072D01*
X73474482Y-85975812D01*
X73594180Y-85939502D01*
X73704494Y-85880537D01*
X73801185Y-85801185D01*
X73880537Y-85704494D01*
X73939502Y-85594180D01*
X73961513Y-85521620D01*
X74093368Y-85653475D01*
X74336589Y-85815990D01*
X74606842Y-85927932D01*
X74893740Y-85985000D01*
X75186260Y-85985000D01*
X75473158Y-85927932D01*
X75743411Y-85815990D01*
X75986632Y-85653475D01*
X76193475Y-85446632D01*
X76310000Y-85272240D01*
X76426525Y-85446632D01*
X76633368Y-85653475D01*
X76876589Y-85815990D01*
X77146842Y-85927932D01*
X77433740Y-85985000D01*
X77726260Y-85985000D01*
X78013158Y-85927932D01*
X78283411Y-85815990D01*
X78526632Y-85653475D01*
X78733475Y-85446632D01*
X78850000Y-85272240D01*
X78966525Y-85446632D01*
X79173368Y-85653475D01*
X79416589Y-85815990D01*
X79686842Y-85927932D01*
X79973740Y-85985000D01*
X80266260Y-85985000D01*
X80553158Y-85927932D01*
X80823411Y-85815990D01*
X81066632Y-85653475D01*
X81273475Y-85446632D01*
X81390000Y-85272240D01*
X81506525Y-85446632D01*
X81713368Y-85653475D01*
X81956589Y-85815990D01*
X82226842Y-85927932D01*
X82513740Y-85985000D01*
X82806260Y-85985000D01*
X83093158Y-85927932D01*
X83363411Y-85815990D01*
X83606632Y-85653475D01*
X83813475Y-85446632D01*
X83930000Y-85272240D01*
X84046525Y-85446632D01*
X84253368Y-85653475D01*
X84496589Y-85815990D01*
X84766842Y-85927932D01*
X85053740Y-85985000D01*
X85346260Y-85985000D01*
X85633158Y-85927932D01*
X85903411Y-85815990D01*
X86146632Y-85653475D01*
X86353475Y-85446632D01*
X86470000Y-85272240D01*
X86586525Y-85446632D01*
X86793368Y-85653475D01*
X87036589Y-85815990D01*
X87306842Y-85927932D01*
X87593740Y-85985000D01*
X87886260Y-85985000D01*
X88173158Y-85927932D01*
X88443411Y-85815990D01*
X88686632Y-85653475D01*
X88893475Y-85446632D01*
X89010000Y-85272240D01*
X89126525Y-85446632D01*
X89333368Y-85653475D01*
X89576589Y-85815990D01*
X89846842Y-85927932D01*
X90133740Y-85985000D01*
X90426260Y-85985000D01*
X90713158Y-85927932D01*
X90983411Y-85815990D01*
X91226632Y-85653475D01*
X91433475Y-85446632D01*
X91555195Y-85264466D01*
X91624822Y-85381355D01*
X91819731Y-85597588D01*
X92053080Y-85771641D01*
X92315901Y-85896825D01*
X92463110Y-85941476D01*
X92693000Y-85820155D01*
X92693000Y-84627000D01*
X92947000Y-84627000D01*
X92947000Y-85820155D01*
X93176890Y-85941476D01*
X93324099Y-85896825D01*
X93586920Y-85771641D01*
X93820269Y-85597588D01*
X94015178Y-85381355D01*
X94164157Y-85131252D01*
X94261481Y-84856891D01*
X94140814Y-84627000D01*
X92947000Y-84627000D01*
X92693000Y-84627000D01*
X92673000Y-84627000D01*
X92673000Y-84373000D01*
X92693000Y-84373000D01*
X92693000Y-83179845D01*
X92947000Y-83179845D01*
X92947000Y-84373000D01*
X94140814Y-84373000D01*
X94261481Y-84143109D01*
X94164157Y-83868748D01*
X94015178Y-83618645D01*
X93820269Y-83402412D01*
X93586920Y-83228359D01*
X93324099Y-83103175D01*
X93176890Y-83058524D01*
X92947000Y-83179845D01*
X92693000Y-83179845D01*
X92463110Y-83058524D01*
X92315901Y-83103175D01*
X92053080Y-83228359D01*
X91819731Y-83402412D01*
X91624822Y-83618645D01*
X91555195Y-83735534D01*
X91433475Y-83553368D01*
X91226632Y-83346525D01*
X90983411Y-83184010D01*
X90713158Y-83072068D01*
X90426260Y-83015000D01*
X90133740Y-83015000D01*
X89846842Y-83072068D01*
X89576589Y-83184010D01*
X89333368Y-83346525D01*
X89126525Y-83553368D01*
X89010000Y-83727760D01*
X88893475Y-83553368D01*
X88686632Y-83346525D01*
X88443411Y-83184010D01*
X88173158Y-83072068D01*
X87886260Y-83015000D01*
X87593740Y-83015000D01*
X87306842Y-83072068D01*
X87036589Y-83184010D01*
X86793368Y-83346525D01*
X86586525Y-83553368D01*
X86470000Y-83727760D01*
X86353475Y-83553368D01*
X86146632Y-83346525D01*
X85903411Y-83184010D01*
X85633158Y-83072068D01*
X85346260Y-83015000D01*
X85053740Y-83015000D01*
X84766842Y-83072068D01*
X84496589Y-83184010D01*
X84253368Y-83346525D01*
X84046525Y-83553368D01*
X83930000Y-83727760D01*
X83813475Y-83553368D01*
X83606632Y-83346525D01*
X83363411Y-83184010D01*
X83093158Y-83072068D01*
X82806260Y-83015000D01*
X82513740Y-83015000D01*
X82226842Y-83072068D01*
X81956589Y-83184010D01*
X81713368Y-83346525D01*
X81506525Y-83553368D01*
X81390000Y-83727760D01*
X81273475Y-83553368D01*
X81066632Y-83346525D01*
X80823411Y-83184010D01*
X80553158Y-83072068D01*
X80266260Y-83015000D01*
X79973740Y-83015000D01*
X79686842Y-83072068D01*
X79416589Y-83184010D01*
X79173368Y-83346525D01*
X78966525Y-83553368D01*
X78850000Y-83727760D01*
X78733475Y-83553368D01*
X78526632Y-83346525D01*
X78283411Y-83184010D01*
X78013158Y-83072068D01*
X77726260Y-83015000D01*
X77433740Y-83015000D01*
X77146842Y-83072068D01*
X76876589Y-83184010D01*
X76633368Y-83346525D01*
X76426525Y-83553368D01*
X76310000Y-83727760D01*
X76193475Y-83553368D01*
X75986632Y-83346525D01*
X75743411Y-83184010D01*
X75473158Y-83072068D01*
X75186260Y-83015000D01*
X74893740Y-83015000D01*
X74606842Y-83072068D01*
X74336589Y-83184010D01*
X74093368Y-83346525D01*
X73961513Y-83478380D01*
X73939502Y-83405820D01*
X73880537Y-83295506D01*
X73801185Y-83198815D01*
X73704494Y-83119463D01*
X73594180Y-83060498D01*
X73474482Y-83024188D01*
X73350000Y-83011928D01*
X71650000Y-83011928D01*
X71525518Y-83024188D01*
X71405820Y-83060498D01*
X71295506Y-83119463D01*
X71198815Y-83198815D01*
X71119463Y-83295506D01*
X71060498Y-83405820D01*
X71024188Y-83525518D01*
X71011928Y-83650000D01*
X70033856Y-83650000D01*
X70015178Y-83618645D01*
X69820269Y-83402412D01*
X69586920Y-83228359D01*
X69324099Y-83103175D01*
X69176890Y-83058524D01*
X68947000Y-83179845D01*
X68693000Y-83179845D01*
X68463110Y-83058524D01*
X68315901Y-83103175D01*
X68053080Y-83228359D01*
X67819731Y-83402412D01*
X67624822Y-83618645D01*
X67555195Y-83735534D01*
X67433475Y-83553368D01*
X67226632Y-83346525D01*
X66983411Y-83184010D01*
X66713158Y-83072068D01*
X66426260Y-83015000D01*
X66133740Y-83015000D01*
X65846842Y-83072068D01*
X65576589Y-83184010D01*
X65333368Y-83346525D01*
X65126525Y-83553368D01*
X65010000Y-83727760D01*
X64893475Y-83553368D01*
X64686632Y-83346525D01*
X64443411Y-83184010D01*
X64173158Y-83072068D01*
X63886260Y-83015000D01*
X63593740Y-83015000D01*
X63306842Y-83072068D01*
X63036589Y-83184010D01*
X62793368Y-83346525D01*
X62586525Y-83553368D01*
X62470000Y-83727760D01*
X62353475Y-83553368D01*
X62146632Y-83346525D01*
X61903411Y-83184010D01*
X61633158Y-83072068D01*
X61346260Y-83015000D01*
X61053740Y-83015000D01*
X60766842Y-83072068D01*
X60496589Y-83184010D01*
X60253368Y-83346525D01*
X60046525Y-83553368D01*
X59930000Y-83727760D01*
X59813475Y-83553368D01*
X59606632Y-83346525D01*
X59363411Y-83184010D01*
X59093158Y-83072068D01*
X58806260Y-83015000D01*
X58513740Y-83015000D01*
X58226842Y-83072068D01*
X57956589Y-83184010D01*
X57713368Y-83346525D01*
X57506525Y-83553368D01*
X57390000Y-83727760D01*
X57273475Y-83553368D01*
X57066632Y-83346525D01*
X56823411Y-83184010D01*
X56553158Y-83072068D01*
X56266260Y-83015000D01*
X55973740Y-83015000D01*
X55686842Y-83072068D01*
X55416589Y-83184010D01*
X55173368Y-83346525D01*
X54966525Y-83553368D01*
X54850000Y-83727760D01*
X54733475Y-83553368D01*
X54526632Y-83346525D01*
X54283411Y-83184010D01*
X54013158Y-83072068D01*
X53726260Y-83015000D01*
X53433740Y-83015000D01*
X53146842Y-83072068D01*
X52876589Y-83184010D01*
X52633368Y-83346525D01*
X52426525Y-83553368D01*
X52310000Y-83727760D01*
X52193475Y-83553368D01*
X51986632Y-83346525D01*
X51743411Y-83184010D01*
X51473158Y-83072068D01*
X51186260Y-83015000D01*
X50893740Y-83015000D01*
X50606842Y-83072068D01*
X50336589Y-83184010D01*
X50093368Y-83346525D01*
X49961513Y-83478380D01*
X49939502Y-83405820D01*
X49880537Y-83295506D01*
X49801185Y-83198815D01*
X49704494Y-83119463D01*
X49594180Y-83060498D01*
X49474482Y-83024188D01*
X49350000Y-83011928D01*
X47650000Y-83011928D01*
X47525518Y-83024188D01*
X47405820Y-83060498D01*
X47295506Y-83119463D01*
X47198815Y-83198815D01*
X47119463Y-83295506D01*
X47060498Y-83405820D01*
X47024188Y-83525518D01*
X47011928Y-83650000D01*
X47011928Y-85350000D01*
X47024188Y-85474482D01*
X47060498Y-85594180D01*
X47119463Y-85704494D01*
X47198815Y-85801185D01*
X47295506Y-85880537D01*
X47405820Y-85939502D01*
X47525518Y-85975812D01*
X47650000Y-85988072D01*
X49350000Y-85988072D01*
X49474482Y-85975812D01*
X49594180Y-85939502D01*
X49704494Y-85880537D01*
X49801185Y-85801185D01*
X49880537Y-85704494D01*
X49939502Y-85594180D01*
X49961513Y-85521620D01*
X50093368Y-85653475D01*
X50336589Y-85815990D01*
X50606842Y-85927932D01*
X50893740Y-85985000D01*
X51186260Y-85985000D01*
X51473158Y-85927932D01*
X51743411Y-85815990D01*
X51986632Y-85653475D01*
X52193475Y-85446632D01*
X52310000Y-85272240D01*
X52426525Y-85446632D01*
X52633368Y-85653475D01*
X52876589Y-85815990D01*
X53146842Y-85927932D01*
X53433740Y-85985000D01*
X53726260Y-85985000D01*
X54013158Y-85927932D01*
X54283411Y-85815990D01*
X54526632Y-85653475D01*
X54733475Y-85446632D01*
X54850000Y-85272240D01*
X54966525Y-85446632D01*
X55173368Y-85653475D01*
X55416589Y-85815990D01*
X55686842Y-85927932D01*
X55973740Y-85985000D01*
X56266260Y-85985000D01*
X56553158Y-85927932D01*
X56823411Y-85815990D01*
X57066632Y-85653475D01*
X57273475Y-85446632D01*
X57390000Y-85272240D01*
X57506525Y-85446632D01*
X57713368Y-85653475D01*
X57956589Y-85815990D01*
X58226842Y-85927932D01*
X58513740Y-85985000D01*
X58806260Y-85985000D01*
X59093158Y-85927932D01*
X59240000Y-85867108D01*
X59240001Y-96665200D01*
X59063804Y-96489003D01*
X59040001Y-96459999D01*
X58924276Y-96365026D01*
X58792247Y-96294454D01*
X58648986Y-96250997D01*
X58537333Y-96240000D01*
X58537322Y-96240000D01*
X58500000Y-96236324D01*
X58462678Y-96240000D01*
X53814801Y-96240000D01*
X53563804Y-95989003D01*
X53540001Y-95959999D01*
X53424276Y-95865026D01*
X53292247Y-95794454D01*
X53148986Y-95750997D01*
X53037333Y-95740000D01*
X53037322Y-95740000D01*
X53000000Y-95736324D01*
X52962678Y-95740000D01*
X52203711Y-95740000D01*
X52159774Y-95696063D01*
X51990256Y-95582795D01*
X51801898Y-95504774D01*
X51601939Y-95465000D01*
X51398061Y-95465000D01*
X51198102Y-95504774D01*
X51009744Y-95582795D01*
X50840226Y-95696063D01*
X50696063Y-95840226D01*
X50582795Y-96009744D01*
X50504774Y-96198102D01*
X50465000Y-96398061D01*
X50465000Y-96601939D01*
X50504774Y-96801898D01*
X50582795Y-96990256D01*
X50696063Y-97159774D01*
X50840226Y-97303937D01*
X51009744Y-97417205D01*
X51198102Y-97495226D01*
X51398061Y-97535000D01*
X51601939Y-97535000D01*
X51801898Y-97495226D01*
X51990256Y-97417205D01*
X52159774Y-97303937D01*
X52203711Y-97260000D01*
X52685199Y-97260000D01*
X52936196Y-97510997D01*
X52959999Y-97540001D01*
X53075724Y-97634974D01*
X53207753Y-97705546D01*
X53351014Y-97749003D01*
X53462667Y-97760000D01*
X53462675Y-97760000D01*
X53500000Y-97763676D01*
X53537325Y-97760000D01*
X58185199Y-97760000D01*
X58240000Y-97814801D01*
X58240001Y-105462668D01*
X58236324Y-105500000D01*
X58240001Y-105537333D01*
X58250998Y-105648986D01*
X58264180Y-105692442D01*
X58294454Y-105792246D01*
X58365026Y-105924276D01*
X58396534Y-105962668D01*
X58460000Y-106040001D01*
X58488998Y-106063799D01*
X58936196Y-106510997D01*
X58959999Y-106540001D01*
X59075724Y-106634974D01*
X59207753Y-106705546D01*
X59351014Y-106749003D01*
X59462667Y-106760000D01*
X59462675Y-106760000D01*
X59500000Y-106763676D01*
X59537325Y-106760000D01*
X61240000Y-106760000D01*
X61240001Y-111462668D01*
X61236324Y-111500000D01*
X61240001Y-111537333D01*
X61250998Y-111648986D01*
X61257070Y-111669003D01*
X61294454Y-111792246D01*
X61337618Y-111873000D01*
X22627000Y-111873000D01*
X22627000Y-108989743D01*
X22647450Y-109020349D01*
X22979651Y-109352550D01*
X23370279Y-109613560D01*
X23804321Y-109793346D01*
X24265098Y-109885000D01*
X24734902Y-109885000D01*
X25195679Y-109793346D01*
X25629721Y-109613560D01*
X26020349Y-109352550D01*
X26352550Y-109020349D01*
X26613560Y-108629721D01*
X26793346Y-108195679D01*
X26885000Y-107734902D01*
X26885000Y-107364932D01*
X26975059Y-107582353D01*
X27225125Y-107956603D01*
X27543397Y-108274875D01*
X27917647Y-108524941D01*
X27937457Y-108533147D01*
X27885363Y-108585241D01*
X27728320Y-108820273D01*
X27620147Y-109081426D01*
X27565000Y-109358665D01*
X27565000Y-109641335D01*
X27620147Y-109918574D01*
X27728320Y-110179727D01*
X27885363Y-110414759D01*
X28085241Y-110614637D01*
X28320273Y-110771680D01*
X28581426Y-110879853D01*
X28858665Y-110935000D01*
X29141335Y-110935000D01*
X29418574Y-110879853D01*
X29679727Y-110771680D01*
X29914759Y-110614637D01*
X30114637Y-110414759D01*
X30271680Y-110179727D01*
X30379853Y-109918574D01*
X30435000Y-109641335D01*
X30435000Y-109358665D01*
X30379853Y-109081426D01*
X30271680Y-108820273D01*
X30114637Y-108585241D01*
X30062543Y-108533147D01*
X30082353Y-108524941D01*
X30456603Y-108274875D01*
X30774875Y-107956603D01*
X31024941Y-107582353D01*
X31115000Y-107364932D01*
X31115000Y-107734902D01*
X31206654Y-108195679D01*
X31386440Y-108629721D01*
X31647450Y-109020349D01*
X31979651Y-109352550D01*
X32370279Y-109613560D01*
X32804321Y-109793346D01*
X33265098Y-109885000D01*
X33734902Y-109885000D01*
X34195679Y-109793346D01*
X34629721Y-109613560D01*
X35020349Y-109352550D01*
X35352550Y-109020349D01*
X35613560Y-108629721D01*
X35793346Y-108195679D01*
X35885000Y-107734902D01*
X35885000Y-107265098D01*
X35793346Y-106804321D01*
X35613560Y-106370279D01*
X35352550Y-105979651D01*
X35020349Y-105647450D01*
X34629721Y-105386440D01*
X34195679Y-105206654D01*
X33734902Y-105115000D01*
X33265098Y-105115000D01*
X32804321Y-105206654D01*
X32370279Y-105386440D01*
X31979651Y-105647450D01*
X31647450Y-105979651D01*
X31386440Y-106370279D01*
X31285000Y-106615177D01*
X31285000Y-106274947D01*
X31197189Y-105833490D01*
X31024941Y-105417647D01*
X30774875Y-105043397D01*
X30456603Y-104725125D01*
X30082353Y-104475059D01*
X29666510Y-104302811D01*
X29225053Y-104215000D01*
X28774947Y-104215000D01*
X28333490Y-104302811D01*
X27917647Y-104475059D01*
X27543397Y-104725125D01*
X27225125Y-105043397D01*
X26975059Y-105417647D01*
X26802811Y-105833490D01*
X26715000Y-106274947D01*
X26715000Y-106615177D01*
X26613560Y-106370279D01*
X26352550Y-105979651D01*
X26020349Y-105647450D01*
X25629721Y-105386440D01*
X25195679Y-105206654D01*
X24734902Y-105115000D01*
X24265098Y-105115000D01*
X23804321Y-105206654D01*
X23370279Y-105386440D01*
X22979651Y-105647450D01*
X22647450Y-105979651D01*
X22627000Y-106010257D01*
X22627000Y-102500000D01*
X26361928Y-102500000D01*
X26374188Y-102624482D01*
X26410498Y-102744180D01*
X26469463Y-102854494D01*
X26548815Y-102951185D01*
X26645506Y-103030537D01*
X26755820Y-103089502D01*
X26875518Y-103125812D01*
X27000000Y-103138072D01*
X28714250Y-103135000D01*
X28873000Y-102976250D01*
X28873000Y-100627000D01*
X26523750Y-100627000D01*
X26365000Y-100785750D01*
X26361928Y-102500000D01*
X22627000Y-102500000D01*
X22627000Y-98500000D01*
X26361928Y-98500000D01*
X26365000Y-100214250D01*
X26523750Y-100373000D01*
X28873000Y-100373000D01*
X28873000Y-98023750D01*
X29127000Y-98023750D01*
X29127000Y-100373000D01*
X29147000Y-100373000D01*
X29147000Y-100627000D01*
X29127000Y-100627000D01*
X29127000Y-102976250D01*
X29285750Y-103135000D01*
X31000000Y-103138072D01*
X31124482Y-103125812D01*
X31244180Y-103089502D01*
X31354494Y-103030537D01*
X31410101Y-102984902D01*
X32936201Y-104511003D01*
X32959999Y-104540001D01*
X32988997Y-104563799D01*
X33075723Y-104634974D01*
X33152477Y-104676000D01*
X33207753Y-104705546D01*
X33351014Y-104749003D01*
X33462667Y-104760000D01*
X33462676Y-104760000D01*
X33499999Y-104763676D01*
X33537322Y-104760000D01*
X38796289Y-104760000D01*
X38840226Y-104803937D01*
X39009744Y-104917205D01*
X39198102Y-104995226D01*
X39398061Y-105035000D01*
X39465000Y-105035000D01*
X39465000Y-105101939D01*
X39504774Y-105301898D01*
X39582795Y-105490256D01*
X39696063Y-105659774D01*
X39840226Y-105803937D01*
X40009744Y-105917205D01*
X40198102Y-105995226D01*
X40398061Y-106035000D01*
X40572334Y-106035000D01*
X40504774Y-106198102D01*
X40465000Y-106398061D01*
X40465000Y-106601939D01*
X40504774Y-106801898D01*
X40582795Y-106990256D01*
X40696063Y-107159774D01*
X40840226Y-107303937D01*
X41009744Y-107417205D01*
X41198102Y-107495226D01*
X41398061Y-107535000D01*
X41465000Y-107535000D01*
X41465000Y-107601939D01*
X41504774Y-107801898D01*
X41582795Y-107990256D01*
X41696063Y-108159774D01*
X41840226Y-108303937D01*
X42009744Y-108417205D01*
X42198102Y-108495226D01*
X42398061Y-108535000D01*
X42601939Y-108535000D01*
X42801898Y-108495226D01*
X42990256Y-108417205D01*
X43159774Y-108303937D01*
X43303937Y-108159774D01*
X43417205Y-107990256D01*
X43495226Y-107801898D01*
X43535000Y-107601939D01*
X43535000Y-107398061D01*
X43495226Y-107198102D01*
X43417205Y-107009744D01*
X43303937Y-106840226D01*
X43260000Y-106796289D01*
X43260000Y-102537322D01*
X43263676Y-102499999D01*
X43260000Y-102462676D01*
X43260000Y-102462667D01*
X43249003Y-102351014D01*
X43205546Y-102207753D01*
X43134974Y-102075724D01*
X43040001Y-101959999D01*
X43011003Y-101936201D01*
X41563804Y-100489003D01*
X41540001Y-100459999D01*
X41424276Y-100365026D01*
X41292247Y-100294454D01*
X41148986Y-100250997D01*
X41037333Y-100240000D01*
X41037322Y-100240000D01*
X41000000Y-100236324D01*
X40962678Y-100240000D01*
X35314801Y-100240000D01*
X35260000Y-100185199D01*
X35260000Y-96089396D01*
X35285241Y-96114637D01*
X35520273Y-96271680D01*
X35781426Y-96379853D01*
X36058665Y-96435000D01*
X36341335Y-96435000D01*
X36618574Y-96379853D01*
X36879727Y-96271680D01*
X37114759Y-96114637D01*
X37314637Y-95914759D01*
X37471680Y-95679727D01*
X37579853Y-95418574D01*
X37635000Y-95141335D01*
X37635000Y-94858665D01*
X37579853Y-94581426D01*
X37471680Y-94320273D01*
X37314637Y-94085241D01*
X37114759Y-93885363D01*
X36879727Y-93728320D01*
X36618574Y-93620147D01*
X36341335Y-93565000D01*
X36058665Y-93565000D01*
X35781426Y-93620147D01*
X35520273Y-93728320D01*
X35285241Y-93885363D01*
X35260000Y-93910604D01*
X35260000Y-91703711D01*
X35303937Y-91659774D01*
X35417205Y-91490256D01*
X35495226Y-91301898D01*
X35535000Y-91101939D01*
X35535000Y-90898061D01*
X35495226Y-90698102D01*
X35417205Y-90509744D01*
X35303937Y-90340226D01*
X35159774Y-90196063D01*
X34990256Y-90082795D01*
X34801898Y-90004774D01*
X34601939Y-89965000D01*
X34398061Y-89965000D01*
X34198102Y-90004774D01*
X34009744Y-90082795D01*
X33840226Y-90196063D01*
X33696063Y-90340226D01*
X33582795Y-90509744D01*
X33504774Y-90698102D01*
X33465000Y-90898061D01*
X33465000Y-90965000D01*
X33398061Y-90965000D01*
X33198102Y-91004774D01*
X33009744Y-91082795D01*
X32840226Y-91196063D01*
X32696063Y-91340226D01*
X32582795Y-91509744D01*
X32539035Y-91615388D01*
X32490256Y-91582795D01*
X32301898Y-91504774D01*
X32101939Y-91465000D01*
X31898061Y-91465000D01*
X31698102Y-91504774D01*
X31509744Y-91582795D01*
X31340226Y-91696063D01*
X31196063Y-91840226D01*
X31082795Y-92009744D01*
X31039035Y-92115388D01*
X30990256Y-92082795D01*
X30801898Y-92004774D01*
X30601939Y-91965000D01*
X30398061Y-91965000D01*
X30198102Y-92004774D01*
X30009744Y-92082795D01*
X29840226Y-92196063D01*
X29696063Y-92340226D01*
X29582795Y-92509744D01*
X29504774Y-92698102D01*
X29465000Y-92898061D01*
X29465000Y-93101939D01*
X29504774Y-93301898D01*
X29582795Y-93490256D01*
X29696063Y-93659774D01*
X29840226Y-93803937D01*
X30009744Y-93917205D01*
X30198102Y-93995226D01*
X30398061Y-94035000D01*
X30460198Y-94035000D01*
X30565001Y-94139803D01*
X30565002Y-97862708D01*
X29285750Y-97865000D01*
X29127000Y-98023750D01*
X28873000Y-98023750D01*
X28714250Y-97865000D01*
X27000000Y-97861928D01*
X26875518Y-97874188D01*
X26755820Y-97910498D01*
X26645506Y-97969463D01*
X26548815Y-98048815D01*
X26469463Y-98145506D01*
X26410498Y-98255820D01*
X26374188Y-98375518D01*
X26361928Y-98500000D01*
X22627000Y-98500000D01*
X22627000Y-96430882D01*
X22700000Y-96438072D01*
X24300000Y-96438072D01*
X24424482Y-96425812D01*
X24544180Y-96389502D01*
X24654494Y-96330537D01*
X24751185Y-96251185D01*
X24830537Y-96154494D01*
X24889502Y-96044180D01*
X24925812Y-95924482D01*
X24938072Y-95800000D01*
X24938072Y-94200000D01*
X24925812Y-94075518D01*
X24889502Y-93955820D01*
X24830537Y-93845506D01*
X24751185Y-93748815D01*
X24654494Y-93669463D01*
X24544180Y-93610498D01*
X24424482Y-93574188D01*
X24300000Y-93561928D01*
X22700000Y-93561928D01*
X22627000Y-93569118D01*
X22627000Y-83650000D01*
X22691928Y-83650000D01*
X22691928Y-85350000D01*
X22704188Y-85474482D01*
X22740498Y-85594180D01*
X22799463Y-85704494D01*
X22878815Y-85801185D01*
X22975506Y-85880537D01*
X23085820Y-85939502D01*
X23205518Y-85975812D01*
X23330000Y-85988072D01*
X25030000Y-85988072D01*
X25154482Y-85975812D01*
X25274180Y-85939502D01*
X25384494Y-85880537D01*
X25481185Y-85801185D01*
X25560537Y-85704494D01*
X25619502Y-85594180D01*
X25641513Y-85521620D01*
X25773368Y-85653475D01*
X26016589Y-85815990D01*
X26286842Y-85927932D01*
X26573740Y-85985000D01*
X26866260Y-85985000D01*
X27153158Y-85927932D01*
X27423411Y-85815990D01*
X27666632Y-85653475D01*
X27873475Y-85446632D01*
X27990000Y-85272240D01*
X28106525Y-85446632D01*
X28313368Y-85653475D01*
X28556589Y-85815990D01*
X28826842Y-85927932D01*
X29113740Y-85985000D01*
X29406260Y-85985000D01*
X29693158Y-85927932D01*
X29963411Y-85815990D01*
X30206632Y-85653475D01*
X30413475Y-85446632D01*
X30530000Y-85272240D01*
X30646525Y-85446632D01*
X30853368Y-85653475D01*
X31096589Y-85815990D01*
X31366842Y-85927932D01*
X31653740Y-85985000D01*
X31946260Y-85985000D01*
X32233158Y-85927932D01*
X32503411Y-85815990D01*
X32746632Y-85653475D01*
X32953475Y-85446632D01*
X33070000Y-85272240D01*
X33186525Y-85446632D01*
X33393368Y-85653475D01*
X33636589Y-85815990D01*
X33906842Y-85927932D01*
X34193740Y-85985000D01*
X34486260Y-85985000D01*
X34773158Y-85927932D01*
X35043411Y-85815990D01*
X35286632Y-85653475D01*
X35493475Y-85446632D01*
X35610000Y-85272240D01*
X35726525Y-85446632D01*
X35933368Y-85653475D01*
X36176589Y-85815990D01*
X36446842Y-85927932D01*
X36733740Y-85985000D01*
X37026260Y-85985000D01*
X37313158Y-85927932D01*
X37583411Y-85815990D01*
X37826632Y-85653475D01*
X38033475Y-85446632D01*
X38150000Y-85272240D01*
X38266525Y-85446632D01*
X38473368Y-85653475D01*
X38716589Y-85815990D01*
X38986842Y-85927932D01*
X39273740Y-85985000D01*
X39566260Y-85985000D01*
X39853158Y-85927932D01*
X40123411Y-85815990D01*
X40366632Y-85653475D01*
X40573475Y-85446632D01*
X40690000Y-85272240D01*
X40806525Y-85446632D01*
X41013368Y-85653475D01*
X41256589Y-85815990D01*
X41526842Y-85927932D01*
X41813740Y-85985000D01*
X42106260Y-85985000D01*
X42393158Y-85927932D01*
X42663411Y-85815990D01*
X42906632Y-85653475D01*
X43113475Y-85446632D01*
X43235195Y-85264466D01*
X43304822Y-85381355D01*
X43499731Y-85597588D01*
X43733080Y-85771641D01*
X43995901Y-85896825D01*
X44143110Y-85941476D01*
X44373000Y-85820155D01*
X44373000Y-84627000D01*
X44627000Y-84627000D01*
X44627000Y-85820155D01*
X44856890Y-85941476D01*
X45004099Y-85896825D01*
X45266920Y-85771641D01*
X45500269Y-85597588D01*
X45695178Y-85381355D01*
X45844157Y-85131252D01*
X45941481Y-84856891D01*
X45820814Y-84627000D01*
X44627000Y-84627000D01*
X44373000Y-84627000D01*
X44353000Y-84627000D01*
X44353000Y-84373000D01*
X44373000Y-84373000D01*
X44373000Y-83179845D01*
X44627000Y-83179845D01*
X44627000Y-84373000D01*
X45820814Y-84373000D01*
X45941481Y-84143109D01*
X45844157Y-83868748D01*
X45695178Y-83618645D01*
X45500269Y-83402412D01*
X45266920Y-83228359D01*
X45004099Y-83103175D01*
X44856890Y-83058524D01*
X44627000Y-83179845D01*
X44373000Y-83179845D01*
X44143110Y-83058524D01*
X43995901Y-83103175D01*
X43733080Y-83228359D01*
X43499731Y-83402412D01*
X43304822Y-83618645D01*
X43235195Y-83735534D01*
X43113475Y-83553368D01*
X42906632Y-83346525D01*
X42663411Y-83184010D01*
X42393158Y-83072068D01*
X42106260Y-83015000D01*
X41813740Y-83015000D01*
X41526842Y-83072068D01*
X41256589Y-83184010D01*
X41013368Y-83346525D01*
X40806525Y-83553368D01*
X40690000Y-83727760D01*
X40573475Y-83553368D01*
X40366632Y-83346525D01*
X40123411Y-83184010D01*
X39853158Y-83072068D01*
X39566260Y-83015000D01*
X39273740Y-83015000D01*
X38986842Y-83072068D01*
X38716589Y-83184010D01*
X38473368Y-83346525D01*
X38266525Y-83553368D01*
X38150000Y-83727760D01*
X38033475Y-83553368D01*
X37826632Y-83346525D01*
X37583411Y-83184010D01*
X37313158Y-83072068D01*
X37026260Y-83015000D01*
X36733740Y-83015000D01*
X36446842Y-83072068D01*
X36176589Y-83184010D01*
X35933368Y-83346525D01*
X35726525Y-83553368D01*
X35610000Y-83727760D01*
X35493475Y-83553368D01*
X35286632Y-83346525D01*
X35043411Y-83184010D01*
X34773158Y-83072068D01*
X34486260Y-83015000D01*
X34193740Y-83015000D01*
X33906842Y-83072068D01*
X33636589Y-83184010D01*
X33393368Y-83346525D01*
X33186525Y-83553368D01*
X33070000Y-83727760D01*
X32953475Y-83553368D01*
X32746632Y-83346525D01*
X32503411Y-83184010D01*
X32233158Y-83072068D01*
X31946260Y-83015000D01*
X31653740Y-83015000D01*
X31366842Y-83072068D01*
X31096589Y-83184010D01*
X30853368Y-83346525D01*
X30646525Y-83553368D01*
X30530000Y-83727760D01*
X30413475Y-83553368D01*
X30206632Y-83346525D01*
X29963411Y-83184010D01*
X29693158Y-83072068D01*
X29406260Y-83015000D01*
X29113740Y-83015000D01*
X28826842Y-83072068D01*
X28556589Y-83184010D01*
X28313368Y-83346525D01*
X28106525Y-83553368D01*
X27990000Y-83727760D01*
X27873475Y-83553368D01*
X27666632Y-83346525D01*
X27423411Y-83184010D01*
X27153158Y-83072068D01*
X26866260Y-83015000D01*
X26573740Y-83015000D01*
X26286842Y-83072068D01*
X26016589Y-83184010D01*
X25773368Y-83346525D01*
X25641513Y-83478380D01*
X25619502Y-83405820D01*
X25560537Y-83295506D01*
X25481185Y-83198815D01*
X25384494Y-83119463D01*
X25274180Y-83060498D01*
X25154482Y-83024188D01*
X25030000Y-83011928D01*
X23330000Y-83011928D01*
X23205518Y-83024188D01*
X23085820Y-83060498D01*
X22975506Y-83119463D01*
X22878815Y-83198815D01*
X22799463Y-83295506D01*
X22740498Y-83405820D01*
X22704188Y-83525518D01*
X22691928Y-83650000D01*
X22627000Y-83650000D01*
X22627000Y-66127000D01*
X119373000Y-66127000D01*
X119373000Y-111873000D01*
G37*
G04 #@! TD.AperFunction*
G04 #@! TD*
M02*
