G04 #@! TF.GenerationSoftware,KiCad,Pcbnew,(5.1.9-0-10_14)*
G04 #@! TF.CreationDate,2021-09-02T08:13:15+02:00*
G04 #@! TF.ProjectId,i2c-32io,6932632d-3332-4696-9f2e-6b696361645f,rev?*
G04 #@! TF.SameCoordinates,Original*
G04 #@! TF.FileFunction,Soldermask,Bot*
G04 #@! TF.FilePolarity,Negative*
%FSLAX46Y46*%
G04 Gerber Fmt 4.6, Leading zero omitted, Abs format (unit mm)*
G04 Created by KiCad (PCBNEW (5.1.9-0-10_14)) date 2021-09-02 08:13:15*
%MOMM*%
%LPD*%
G01*
G04 APERTURE LIST*
%ADD10O,1.700000X1.700000*%
%ADD11R,1.700000X1.700000*%
%ADD12C,1.600000*%
%ADD13C,3.500000*%
%ADD14C,3.300000*%
%ADD15R,4.000000X4.000000*%
%ADD16O,1.600000X1.600000*%
%ADD17R,1.600000X1.600000*%
G04 APERTURE END LIST*
D10*
G04 #@! TO.C,J1*
X64380000Y-110000000D03*
X66920000Y-110000000D03*
X69460000Y-110000000D03*
D11*
X72000000Y-110000000D03*
G04 #@! TD*
D10*
G04 #@! TO.C,J2*
X68820000Y-84500000D03*
X66280000Y-84500000D03*
X63740000Y-84500000D03*
X61200000Y-84500000D03*
X58660000Y-84500000D03*
X56120000Y-84500000D03*
X53580000Y-84500000D03*
X51040000Y-84500000D03*
D11*
X48500000Y-84500000D03*
G04 #@! TD*
D12*
G04 #@! TO.C,J6*
X29000000Y-109500000D03*
D13*
X33500000Y-107500000D03*
X24500000Y-107500000D03*
D14*
X29000000Y-106500000D03*
D15*
X29000000Y-100500000D03*
G04 #@! TD*
D10*
G04 #@! TO.C,J5*
X92820000Y-84500000D03*
X90280000Y-84500000D03*
X87740000Y-84500000D03*
X85200000Y-84500000D03*
X82660000Y-84500000D03*
X80120000Y-84500000D03*
X77580000Y-84500000D03*
X75040000Y-84500000D03*
D11*
X72500000Y-84500000D03*
G04 #@! TD*
D10*
G04 #@! TO.C,J4*
X116820000Y-84500000D03*
X114280000Y-84500000D03*
X111740000Y-84500000D03*
X109200000Y-84500000D03*
X106660000Y-84500000D03*
X104120000Y-84500000D03*
X101580000Y-84500000D03*
X99040000Y-84500000D03*
D11*
X96500000Y-84500000D03*
G04 #@! TD*
D10*
G04 #@! TO.C,J3*
X44500000Y-84500000D03*
X41960000Y-84500000D03*
X39420000Y-84500000D03*
X36880000Y-84500000D03*
X34340000Y-84500000D03*
X31800000Y-84500000D03*
X29260000Y-84500000D03*
X26720000Y-84500000D03*
D11*
X24180000Y-84500000D03*
G04 #@! TD*
D16*
G04 #@! TO.C,D33*
X36200000Y-95000000D03*
D17*
X23500000Y-95000000D03*
G04 #@! TD*
M02*
