G04 #@! TF.GenerationSoftware,KiCad,Pcbnew,(5.1.5-0-10_14)*
G04 #@! TF.CreationDate,2021-01-23T17:47:52+01:00*
G04 #@! TF.ProjectId,C64LED-latched,4336344c-4544-42d6-9c61-74636865642e,rev?*
G04 #@! TF.SameCoordinates,Original*
G04 #@! TF.FileFunction,Copper,L1,Top*
G04 #@! TF.FilePolarity,Positive*
%FSLAX46Y46*%
G04 Gerber Fmt 4.6, Leading zero omitted, Abs format (unit mm)*
G04 Created by KiCad (PCBNEW (5.1.5-0-10_14)) date 2021-01-23 17:47:52*
%MOMM*%
%LPD*%
G04 APERTURE LIST*
%ADD10C,2.032000*%
%ADD11R,2.032000X2.032000*%
%ADD12O,1.600000X1.600000*%
%ADD13R,1.600000X1.600000*%
%ADD14O,1.700000X1.700000*%
%ADD15R,1.700000X1.700000*%
%ADD16O,2.200000X2.200000*%
%ADD17R,2.200000X2.200000*%
%ADD18C,3.500000*%
%ADD19C,3.300000*%
%ADD20R,4.000000X4.000000*%
%ADD21O,1.905000X2.000000*%
%ADD22R,1.905000X2.000000*%
%ADD23O,1.400000X1.400000*%
%ADD24C,1.400000*%
%ADD25R,1.500000X1.050000*%
%ADD26O,1.500000X1.050000*%
%ADD27C,1.600000*%
%ADD28C,0.250000*%
G04 APERTURE END LIST*
D10*
X104140000Y-43180000D03*
X104140000Y-45720000D03*
X104140000Y-48260000D03*
X104140000Y-50800000D03*
X96520000Y-63500000D03*
X96520000Y-66040000D03*
X104140000Y-66040000D03*
X104140000Y-63500000D03*
X96520000Y-60960000D03*
X96520000Y-58420000D03*
X96520000Y-55880000D03*
X96520000Y-53340000D03*
X104140000Y-53340000D03*
X104140000Y-55880000D03*
X104140000Y-58420000D03*
X104140000Y-60960000D03*
X96520000Y-50800000D03*
X96520000Y-48260000D03*
X96520000Y-45720000D03*
D11*
X96520000Y-43180000D03*
D12*
X81280000Y-43180000D03*
X73660000Y-66040000D03*
X81280000Y-45720000D03*
X73660000Y-63500000D03*
X81280000Y-48260000D03*
X73660000Y-60960000D03*
X81280000Y-50800000D03*
X73660000Y-58420000D03*
X81280000Y-53340000D03*
X73660000Y-55880000D03*
X81280000Y-55880000D03*
X73660000Y-53340000D03*
X81280000Y-58420000D03*
X73660000Y-50800000D03*
X81280000Y-60960000D03*
X73660000Y-48260000D03*
X81280000Y-63500000D03*
X73660000Y-45720000D03*
X81280000Y-66040000D03*
D13*
X73660000Y-43180000D03*
D12*
X92710000Y-43180000D03*
X85090000Y-66040000D03*
X92710000Y-45720000D03*
X85090000Y-63500000D03*
X92710000Y-48260000D03*
X85090000Y-60960000D03*
X92710000Y-50800000D03*
X85090000Y-58420000D03*
X92710000Y-53340000D03*
X85090000Y-55880000D03*
X92710000Y-55880000D03*
X85090000Y-53340000D03*
X92710000Y-58420000D03*
X85090000Y-50800000D03*
X92710000Y-60960000D03*
X85090000Y-48260000D03*
X92710000Y-63500000D03*
X85090000Y-45720000D03*
X92710000Y-66040000D03*
D13*
X85090000Y-43180000D03*
D14*
X68580000Y-68580000D03*
X68580000Y-66040000D03*
X68580000Y-63500000D03*
X68580000Y-60960000D03*
X68580000Y-58420000D03*
X68580000Y-55880000D03*
X68580000Y-53340000D03*
X68580000Y-50800000D03*
X68580000Y-48260000D03*
D15*
X68580000Y-45720000D03*
D16*
X85090000Y-82550000D03*
D17*
X85090000Y-72390000D03*
D12*
X109220000Y-64770000D03*
X109220000Y-62230000D03*
X109220000Y-59690000D03*
X109220000Y-57150000D03*
X109220000Y-54610000D03*
X109220000Y-52070000D03*
X109220000Y-49530000D03*
X109220000Y-46990000D03*
D13*
X109220000Y-44450000D03*
D18*
X73010000Y-92130000D03*
X73010000Y-83130000D03*
D19*
X74010000Y-87630000D03*
D20*
X80010000Y-87630000D03*
D21*
X86360000Y-86360000D03*
X88900000Y-86360000D03*
D22*
X91440000Y-86360000D03*
D12*
X109220000Y-88900000D03*
X109220000Y-86360000D03*
X109220000Y-83820000D03*
X109220000Y-81280000D03*
X109220000Y-78740000D03*
X109220000Y-76200000D03*
X109220000Y-73660000D03*
X109220000Y-71120000D03*
D13*
X109220000Y-68580000D03*
D23*
X76200000Y-76200000D03*
D24*
X71120000Y-76200000D03*
D23*
X76200000Y-78740000D03*
D24*
X71120000Y-78740000D03*
D25*
X74930000Y-73660000D03*
D26*
X74930000Y-71120000D03*
X74930000Y-72390000D03*
D27*
X76240000Y-39370000D03*
X78740000Y-39370000D03*
X87630000Y-39370000D03*
X90130000Y-39370000D03*
X68580000Y-73660000D03*
X68580000Y-78660000D03*
D10*
X104140000Y-69850000D03*
X104140000Y-72390000D03*
X104140000Y-74930000D03*
X104140000Y-77470000D03*
X96520000Y-90170000D03*
X96520000Y-92710000D03*
X104140000Y-92710000D03*
X104140000Y-90170000D03*
X96520000Y-87630000D03*
X96520000Y-85090000D03*
X96520000Y-82550000D03*
X96520000Y-80010000D03*
X104140000Y-80010000D03*
X104140000Y-82550000D03*
X104140000Y-85090000D03*
X104140000Y-87630000D03*
X96520000Y-77470000D03*
X96520000Y-74930000D03*
X96520000Y-72390000D03*
D11*
X96520000Y-69850000D03*
D28*
X107950000Y-46990000D02*
X104140000Y-43180000D01*
X109220000Y-46990000D02*
X107950000Y-46990000D01*
X107950000Y-49530000D02*
X109220000Y-49530000D01*
X104140000Y-45720000D02*
X107950000Y-49530000D01*
X107950000Y-52070000D02*
X109220000Y-52070000D01*
X104140000Y-48260000D02*
X107950000Y-52070000D01*
X107950000Y-54610000D02*
X109220000Y-54610000D01*
X104140000Y-50800000D02*
X107950000Y-54610000D01*
X96520000Y-66040000D02*
X95250000Y-64770000D01*
X92314998Y-64770000D02*
X91044998Y-63500000D01*
X95250000Y-64770000D02*
X92314998Y-64770000D01*
X91044998Y-63500000D02*
X91044998Y-51674998D01*
X91044998Y-51674998D02*
X88900000Y-49530000D01*
X82550000Y-49530000D02*
X81280000Y-48260000D01*
X88900000Y-49530000D02*
X82550000Y-49530000D01*
X104140000Y-67476840D02*
X107783160Y-71120000D01*
X104140000Y-66040000D02*
X104140000Y-67476840D01*
X107783160Y-72223160D02*
X109220000Y-73660000D01*
X107783160Y-71120000D02*
X107783160Y-72223160D01*
X108420001Y-70320001D02*
X109220000Y-71120000D01*
X108094999Y-69994999D02*
X108420001Y-70320001D01*
X108094999Y-67454999D02*
X108094999Y-69994999D01*
X104140000Y-63500000D02*
X108094999Y-67454999D01*
X93980000Y-63500000D02*
X96520000Y-60960000D01*
X92710000Y-63500000D02*
X93980000Y-63500000D01*
X93980000Y-60960000D02*
X96520000Y-58420000D01*
X92710000Y-60960000D02*
X93980000Y-60960000D01*
X93980000Y-58420000D02*
X96520000Y-55880000D01*
X92710000Y-58420000D02*
X93980000Y-58420000D01*
X93980000Y-55880000D02*
X96520000Y-53340000D01*
X92710000Y-55880000D02*
X93980000Y-55880000D01*
X107950000Y-57150000D02*
X109220000Y-57150000D01*
X104140000Y-53340000D02*
X107950000Y-57150000D01*
X107950000Y-59690000D02*
X109220000Y-59690000D01*
X104140000Y-55880000D02*
X107950000Y-59690000D01*
X107950000Y-62230000D02*
X109220000Y-62230000D01*
X104140000Y-58420000D02*
X107950000Y-62230000D01*
X107950000Y-64770000D02*
X109220000Y-64770000D01*
X104140000Y-60960000D02*
X107950000Y-64770000D01*
X93980000Y-53340000D02*
X96520000Y-50800000D01*
X92710000Y-53340000D02*
X93980000Y-53340000D01*
X93980000Y-50800000D02*
X96520000Y-48260000D01*
X92710000Y-50800000D02*
X93980000Y-50800000D01*
X92710000Y-48260000D02*
X93980000Y-48260000D01*
X93980000Y-48260000D02*
X96520000Y-45720000D01*
X92710000Y-45720000D02*
X93980000Y-45720000D01*
X93980000Y-45720000D02*
X96520000Y-43180000D01*
X108420001Y-75400001D02*
X109220000Y-76200000D01*
X108420001Y-74525003D02*
X108420001Y-75400001D01*
X105155999Y-71261001D02*
X108420001Y-74525003D01*
X105155999Y-70865999D02*
X105155999Y-71261001D01*
X104140000Y-69850000D02*
X105155999Y-70865999D01*
X108420001Y-77065003D02*
X108420001Y-77940001D01*
X105155999Y-73801001D02*
X108420001Y-77065003D01*
X105155999Y-73405999D02*
X105155999Y-73801001D01*
X108420001Y-77940001D02*
X109220000Y-78740000D01*
X104140000Y-72390000D02*
X105155999Y-73405999D01*
X105155999Y-75945999D02*
X105155999Y-76341001D01*
X105155999Y-76341001D02*
X109220000Y-80405002D01*
X104140000Y-74930000D02*
X105155999Y-75945999D01*
X109220000Y-80405002D02*
X109220000Y-81280000D01*
X105155999Y-78881001D02*
X109220000Y-82945002D01*
X105155999Y-78485999D02*
X105155999Y-78881001D01*
X104140000Y-77470000D02*
X105155999Y-78485999D01*
X109220000Y-82945002D02*
X109220000Y-83820000D01*
X96520000Y-82550000D02*
X88900000Y-82550000D01*
X88900000Y-82550000D02*
X87630000Y-81280000D01*
X87630000Y-81280000D02*
X87630000Y-71120000D01*
X87630000Y-71120000D02*
X86360000Y-69850000D01*
X86360000Y-69850000D02*
X86360000Y-64770000D01*
X82550000Y-64770000D02*
X81280000Y-63500000D01*
X86360000Y-64770000D02*
X82550000Y-64770000D01*
X96520000Y-80010000D02*
X90170000Y-80010000D01*
X90170000Y-80010000D02*
X88900000Y-78740000D01*
X88900000Y-78740000D02*
X88900000Y-71120000D01*
X88900000Y-71120000D02*
X87630000Y-69850000D01*
X87630000Y-69850000D02*
X87630000Y-62230000D01*
X87630000Y-62230000D02*
X82550000Y-62230000D01*
X82550000Y-62230000D02*
X81280000Y-60960000D01*
X108420001Y-85560001D02*
X109220000Y-86360000D01*
X105155999Y-81421001D02*
X108420001Y-84685003D01*
X108420001Y-84685003D02*
X108420001Y-85560001D01*
X105155999Y-81025999D02*
X105155999Y-81421001D01*
X104140000Y-80010000D02*
X105155999Y-81025999D01*
X108420001Y-88100001D02*
X109220000Y-88900000D01*
X108420001Y-87225003D02*
X108420001Y-88100001D01*
X105155999Y-83565999D02*
X105155999Y-83961001D01*
X105155999Y-83961001D02*
X108420001Y-87225003D01*
X104140000Y-82550000D02*
X105155999Y-83565999D01*
X96520000Y-77470000D02*
X91440000Y-77470000D01*
X91440000Y-77470000D02*
X90170000Y-76200000D01*
X90170000Y-76200000D02*
X90170000Y-72390000D01*
X89350010Y-71570010D02*
X89350010Y-70933600D01*
X90170000Y-72390000D02*
X89350010Y-71570010D01*
X88080010Y-69663600D02*
X88080010Y-60140010D01*
X89350010Y-70933600D02*
X88080010Y-69663600D01*
X88080010Y-60140010D02*
X87630000Y-59690000D01*
X82550000Y-59690000D02*
X81280000Y-58420000D01*
X87630000Y-59690000D02*
X82550000Y-59690000D01*
X81280000Y-55880000D02*
X82550000Y-57150000D01*
X85485002Y-57150000D02*
X86755002Y-58420000D01*
X82550000Y-57150000D02*
X85485002Y-57150000D01*
X88266410Y-58420000D02*
X89350010Y-59503600D01*
X86755002Y-58420000D02*
X88266410Y-58420000D01*
X89350010Y-59503600D02*
X89350010Y-70297190D01*
X89350010Y-70297190D02*
X90620010Y-71567190D01*
X90620010Y-71567190D02*
X90620010Y-75380010D01*
X90620010Y-75380010D02*
X91440000Y-76200000D01*
X91440000Y-76200000D02*
X95250000Y-76200000D01*
X95250000Y-76200000D02*
X96520000Y-74930000D01*
X82550000Y-54610000D02*
X81280000Y-53340000D01*
X88160040Y-54610000D02*
X82550000Y-54610000D01*
X89800020Y-56249980D02*
X88160040Y-54610000D01*
X89800020Y-69480020D02*
X89800020Y-56249980D01*
X92710000Y-72390000D02*
X89800020Y-69480020D01*
X96520000Y-72390000D02*
X92710000Y-72390000D01*
X96520000Y-69850000D02*
X91520030Y-69850000D01*
X91520030Y-69850000D02*
X90250030Y-68580000D01*
X90250030Y-56063580D02*
X90170000Y-55983550D01*
X90250030Y-68580000D02*
X90250030Y-56063580D01*
X90170000Y-55983550D02*
X90170000Y-53340000D01*
X90170000Y-53340000D02*
X88900000Y-52070000D01*
X82550000Y-52070000D02*
X81280000Y-50800000D01*
X88900000Y-52070000D02*
X82550000Y-52070000D01*
X76240000Y-41870000D02*
X76240000Y-39370000D01*
X74930000Y-43180000D02*
X76240000Y-41870000D01*
X73660000Y-43180000D02*
X74930000Y-43180000D01*
X85090000Y-43180000D02*
X86360000Y-43180000D01*
X87630000Y-41910000D02*
X87630000Y-39370000D01*
X86360000Y-43180000D02*
X87630000Y-41910000D01*
X75930000Y-71120000D02*
X77200000Y-69850000D01*
X74930000Y-71120000D02*
X75930000Y-71120000D01*
X77200000Y-69850000D02*
X83820000Y-69850000D01*
X85090000Y-68580000D02*
X85090000Y-66040000D01*
X83820000Y-69850000D02*
X85090000Y-68580000D01*
X74930000Y-67310000D02*
X73660000Y-66040000D01*
X74930000Y-71120000D02*
X74930000Y-67310000D01*
X68580000Y-73660000D02*
X68580000Y-68580000D01*
X71120000Y-66040000D02*
X73660000Y-66040000D01*
X68580000Y-68580000D02*
X71120000Y-66040000D01*
X82260000Y-87630000D02*
X83530000Y-88900000D01*
X80010000Y-87630000D02*
X82260000Y-87630000D01*
X83530000Y-88900000D02*
X87630000Y-88900000D01*
X88900000Y-87630000D02*
X88900000Y-86360000D01*
X87630000Y-88900000D02*
X88900000Y-87630000D01*
X80010000Y-87630000D02*
X77470000Y-87630000D01*
X75494999Y-89605001D02*
X68015001Y-89605001D01*
X77470000Y-87630000D02*
X75494999Y-89605001D01*
X68015001Y-89605001D02*
X67310000Y-88900000D01*
X67310000Y-74930000D02*
X68580000Y-73660000D01*
X67310000Y-88900000D02*
X67310000Y-74930000D01*
X73660000Y-66040000D02*
X74930000Y-66040000D01*
X76240000Y-64730000D02*
X76240000Y-39370000D01*
X74930000Y-66040000D02*
X76240000Y-64730000D01*
X78740000Y-40640000D02*
X81280000Y-43180000D01*
X78740000Y-39370000D02*
X78740000Y-40640000D01*
X81280000Y-43180000D02*
X82550000Y-44450000D01*
X91440000Y-44450000D02*
X92710000Y-43180000D01*
X82550000Y-44450000D02*
X91440000Y-44450000D01*
X90130000Y-40600000D02*
X92710000Y-43180000D01*
X90130000Y-39370000D02*
X90130000Y-40600000D01*
X75659999Y-85980001D02*
X75659999Y-83090001D01*
X74010000Y-87630000D02*
X75659999Y-85980001D01*
X76200000Y-82550000D02*
X85090000Y-82550000D01*
X75659999Y-83090001D02*
X76200000Y-82550000D01*
X74930000Y-72390000D02*
X71120000Y-72390000D01*
X71120000Y-72390000D02*
X69850000Y-73660000D01*
X69850000Y-77470000D02*
X71120000Y-78740000D01*
X69850000Y-73660000D02*
X69850000Y-77470000D01*
M02*
