G04 #@! TF.GenerationSoftware,KiCad,Pcbnew,(5.1.5-0-10_14)*
G04 #@! TF.CreationDate,2021-01-23T17:47:52+01:00*
G04 #@! TF.ProjectId,C64LED-latched,4336344c-4544-42d6-9c61-74636865642e,rev?*
G04 #@! TF.SameCoordinates,Original*
G04 #@! TF.FileFunction,Copper,L2,Bot*
G04 #@! TF.FilePolarity,Positive*
%FSLAX46Y46*%
G04 Gerber Fmt 4.6, Leading zero omitted, Abs format (unit mm)*
G04 Created by KiCad (PCBNEW (5.1.5-0-10_14)) date 2021-01-23 17:47:52*
%MOMM*%
%LPD*%
G04 APERTURE LIST*
%ADD10C,2.032000*%
%ADD11R,2.032000X2.032000*%
%ADD12O,1.600000X1.600000*%
%ADD13R,1.600000X1.600000*%
%ADD14O,1.700000X1.700000*%
%ADD15R,1.700000X1.700000*%
%ADD16O,2.200000X2.200000*%
%ADD17R,2.200000X2.200000*%
%ADD18C,3.500000*%
%ADD19C,3.300000*%
%ADD20R,4.000000X4.000000*%
%ADD21O,1.905000X2.000000*%
%ADD22R,1.905000X2.000000*%
%ADD23O,1.400000X1.400000*%
%ADD24C,1.400000*%
%ADD25R,1.500000X1.050000*%
%ADD26O,1.500000X1.050000*%
%ADD27C,1.600000*%
%ADD28C,0.250000*%
%ADD29C,0.254000*%
G04 APERTURE END LIST*
D10*
X104140000Y-43180000D03*
X104140000Y-45720000D03*
X104140000Y-48260000D03*
X104140000Y-50800000D03*
X96520000Y-63500000D03*
X96520000Y-66040000D03*
X104140000Y-66040000D03*
X104140000Y-63500000D03*
X96520000Y-60960000D03*
X96520000Y-58420000D03*
X96520000Y-55880000D03*
X96520000Y-53340000D03*
X104140000Y-53340000D03*
X104140000Y-55880000D03*
X104140000Y-58420000D03*
X104140000Y-60960000D03*
X96520000Y-50800000D03*
X96520000Y-48260000D03*
X96520000Y-45720000D03*
D11*
X96520000Y-43180000D03*
D12*
X81280000Y-43180000D03*
X73660000Y-66040000D03*
X81280000Y-45720000D03*
X73660000Y-63500000D03*
X81280000Y-48260000D03*
X73660000Y-60960000D03*
X81280000Y-50800000D03*
X73660000Y-58420000D03*
X81280000Y-53340000D03*
X73660000Y-55880000D03*
X81280000Y-55880000D03*
X73660000Y-53340000D03*
X81280000Y-58420000D03*
X73660000Y-50800000D03*
X81280000Y-60960000D03*
X73660000Y-48260000D03*
X81280000Y-63500000D03*
X73660000Y-45720000D03*
X81280000Y-66040000D03*
D13*
X73660000Y-43180000D03*
D12*
X92710000Y-43180000D03*
X85090000Y-66040000D03*
X92710000Y-45720000D03*
X85090000Y-63500000D03*
X92710000Y-48260000D03*
X85090000Y-60960000D03*
X92710000Y-50800000D03*
X85090000Y-58420000D03*
X92710000Y-53340000D03*
X85090000Y-55880000D03*
X92710000Y-55880000D03*
X85090000Y-53340000D03*
X92710000Y-58420000D03*
X85090000Y-50800000D03*
X92710000Y-60960000D03*
X85090000Y-48260000D03*
X92710000Y-63500000D03*
X85090000Y-45720000D03*
X92710000Y-66040000D03*
D13*
X85090000Y-43180000D03*
D14*
X68580000Y-68580000D03*
X68580000Y-66040000D03*
X68580000Y-63500000D03*
X68580000Y-60960000D03*
X68580000Y-58420000D03*
X68580000Y-55880000D03*
X68580000Y-53340000D03*
X68580000Y-50800000D03*
X68580000Y-48260000D03*
D15*
X68580000Y-45720000D03*
D16*
X85090000Y-82550000D03*
D17*
X85090000Y-72390000D03*
D12*
X109220000Y-64770000D03*
X109220000Y-62230000D03*
X109220000Y-59690000D03*
X109220000Y-57150000D03*
X109220000Y-54610000D03*
X109220000Y-52070000D03*
X109220000Y-49530000D03*
X109220000Y-46990000D03*
D13*
X109220000Y-44450000D03*
D18*
X73010000Y-92130000D03*
X73010000Y-83130000D03*
D19*
X74010000Y-87630000D03*
D20*
X80010000Y-87630000D03*
D21*
X86360000Y-86360000D03*
X88900000Y-86360000D03*
D22*
X91440000Y-86360000D03*
D12*
X109220000Y-88900000D03*
X109220000Y-86360000D03*
X109220000Y-83820000D03*
X109220000Y-81280000D03*
X109220000Y-78740000D03*
X109220000Y-76200000D03*
X109220000Y-73660000D03*
X109220000Y-71120000D03*
D13*
X109220000Y-68580000D03*
D23*
X76200000Y-76200000D03*
D24*
X71120000Y-76200000D03*
D23*
X76200000Y-78740000D03*
D24*
X71120000Y-78740000D03*
D25*
X74930000Y-73660000D03*
D26*
X74930000Y-71120000D03*
X74930000Y-72390000D03*
D27*
X76240000Y-39370000D03*
X78740000Y-39370000D03*
X87630000Y-39370000D03*
X90130000Y-39370000D03*
X68580000Y-73660000D03*
X68580000Y-78660000D03*
D10*
X104140000Y-69850000D03*
X104140000Y-72390000D03*
X104140000Y-74930000D03*
X104140000Y-77470000D03*
X96520000Y-90170000D03*
X96520000Y-92710000D03*
X104140000Y-92710000D03*
X104140000Y-90170000D03*
X96520000Y-87630000D03*
X96520000Y-85090000D03*
X96520000Y-82550000D03*
X96520000Y-80010000D03*
X104140000Y-80010000D03*
X104140000Y-82550000D03*
X104140000Y-85090000D03*
X104140000Y-87630000D03*
X96520000Y-77470000D03*
X96520000Y-74930000D03*
X96520000Y-72390000D03*
D11*
X96520000Y-69850000D03*
D28*
X82411370Y-45720000D02*
X83681370Y-46990000D01*
X81280000Y-45720000D02*
X82411370Y-45720000D01*
X85485002Y-46990000D02*
X86360000Y-47864998D01*
X83681370Y-46990000D02*
X85485002Y-46990000D01*
X86360000Y-47864998D02*
X86360000Y-60960000D01*
X86360000Y-60960000D02*
X87630000Y-62230000D01*
X95250000Y-62230000D02*
X96520000Y-63500000D01*
X87630000Y-62230000D02*
X95250000Y-62230000D01*
X96520000Y-85090000D02*
X96520000Y-92710000D01*
X104140000Y-85090000D02*
X104140000Y-92710000D01*
X108170000Y-44450000D02*
X104360000Y-40640000D01*
X109220000Y-44450000D02*
X108170000Y-44450000D01*
X88900000Y-40640000D02*
X87630000Y-39370000D01*
X104360000Y-40640000D02*
X88900000Y-40640000D01*
X82550000Y-41910000D02*
X76200000Y-41910000D01*
X110270000Y-44450000D02*
X110490000Y-44670000D01*
X109220000Y-44450000D02*
X110270000Y-44450000D01*
X110270000Y-68580000D02*
X109220000Y-68580000D01*
X110490000Y-68360000D02*
X110270000Y-68580000D01*
X110490000Y-44670000D02*
X110490000Y-68360000D01*
X74930000Y-43180000D02*
X76200000Y-41910000D01*
X73660000Y-43180000D02*
X74930000Y-43180000D01*
X83820000Y-43180000D02*
X85090000Y-43180000D01*
X82550000Y-41910000D02*
X83820000Y-43180000D01*
X85157500Y-86360000D02*
X80077500Y-81280000D01*
X86360000Y-86360000D02*
X85157500Y-86360000D01*
X74231002Y-81280000D02*
X72390000Y-79438998D01*
X80077500Y-81280000D02*
X74231002Y-81280000D01*
X72390000Y-77470000D02*
X71120000Y-76200000D01*
X72390000Y-79438998D02*
X72390000Y-77470000D01*
X68580000Y-78660000D02*
X68580000Y-77470000D01*
X69850000Y-76200000D02*
X71120000Y-76200000D01*
X68580000Y-77470000D02*
X69850000Y-76200000D01*
X92710000Y-41910000D02*
X92710000Y-43180000D01*
X93529990Y-41090010D02*
X92710000Y-41910000D01*
X98240010Y-41090010D02*
X93529990Y-41090010D01*
X99060000Y-41910000D02*
X98240010Y-41090010D01*
X86360000Y-90170000D02*
X90241001Y-94051001D01*
X99060000Y-92154682D02*
X99060000Y-41910000D01*
X97163681Y-94051001D02*
X99060000Y-92154682D01*
X90241001Y-94051001D02*
X97163681Y-94051001D01*
X86360000Y-86360000D02*
X86360000Y-90170000D01*
X86440000Y-72390000D02*
X86515001Y-72465001D01*
X86515001Y-72465001D02*
X86515001Y-81124999D01*
X85090000Y-72390000D02*
X86440000Y-72390000D01*
X86515001Y-81124999D02*
X87940002Y-82550000D01*
X87940002Y-82550000D02*
X90170000Y-82550000D01*
X91440000Y-83820000D02*
X91440000Y-86360000D01*
X90170000Y-82550000D02*
X91440000Y-83820000D01*
X74930000Y-77470000D02*
X76200000Y-78740000D01*
X73660000Y-77470000D02*
X74930000Y-77470000D01*
X72390000Y-76200000D02*
X73660000Y-77470000D01*
X72390000Y-67310000D02*
X72390000Y-76200000D01*
X68580000Y-66040000D02*
X71120000Y-66040000D01*
X71120000Y-66040000D02*
X72390000Y-67310000D01*
X92710000Y-66040000D02*
X87630000Y-66040000D01*
X87630000Y-66040000D02*
X86360000Y-64770000D01*
X69850000Y-64770000D02*
X68580000Y-66040000D01*
X86360000Y-64770000D02*
X69850000Y-64770000D01*
X85090000Y-63500000D02*
X83820000Y-62230000D01*
X74930000Y-62230000D02*
X73660000Y-63500000D01*
X83820000Y-62230000D02*
X74930000Y-62230000D01*
X73660000Y-63500000D02*
X68580000Y-63500000D01*
X85090000Y-60960000D02*
X83820000Y-59690000D01*
X74930000Y-59690000D02*
X73660000Y-60960000D01*
X83820000Y-59690000D02*
X74930000Y-59690000D01*
X73660000Y-60960000D02*
X68580000Y-60960000D01*
X85090000Y-58420000D02*
X83820000Y-58420000D01*
X83820000Y-58420000D02*
X82550000Y-57150000D01*
X74930000Y-57150000D02*
X73660000Y-58420000D01*
X82550000Y-57150000D02*
X74930000Y-57150000D01*
X73660000Y-58420000D02*
X68580000Y-58420000D01*
X85090000Y-55880000D02*
X83820000Y-54610000D01*
X74930000Y-54610000D02*
X73660000Y-55880000D01*
X83820000Y-54610000D02*
X74930000Y-54610000D01*
X73660000Y-55880000D02*
X68580000Y-55880000D01*
X85090000Y-53340000D02*
X83820000Y-52070000D01*
X74930000Y-52070000D02*
X73660000Y-53340000D01*
X83820000Y-52070000D02*
X74930000Y-52070000D01*
X73660000Y-53340000D02*
X68580000Y-53340000D01*
X85090000Y-50800000D02*
X83820000Y-50800000D01*
X74459999Y-50000001D02*
X73660000Y-50800000D01*
X74785001Y-49674999D02*
X74459999Y-50000001D01*
X82694999Y-49674999D02*
X74785001Y-49674999D01*
X83820000Y-50800000D02*
X82694999Y-49674999D01*
X73660000Y-50800000D02*
X68580000Y-50800000D01*
X85090000Y-48260000D02*
X83820000Y-48260000D01*
X83820000Y-48260000D02*
X82550000Y-46990000D01*
X74930000Y-46990000D02*
X73660000Y-48260000D01*
X82550000Y-46990000D02*
X74930000Y-46990000D01*
X73660000Y-48260000D02*
X68580000Y-48260000D01*
X85090000Y-45720000D02*
X83820000Y-45720000D01*
X74459999Y-44920001D02*
X73660000Y-45720000D01*
X74785001Y-44594999D02*
X74459999Y-44920001D01*
X82694999Y-44594999D02*
X74785001Y-44594999D01*
X83820000Y-45720000D02*
X82694999Y-44594999D01*
X73660000Y-45720000D02*
X68580000Y-45720000D01*
X76200000Y-73930000D02*
X75930000Y-73660000D01*
X75930000Y-73660000D02*
X74930000Y-73660000D01*
X76200000Y-76200000D02*
X76200000Y-73930000D01*
X81280000Y-66040000D02*
X81280000Y-72390000D01*
X81280000Y-72390000D02*
X80010000Y-73660000D01*
X80010000Y-73660000D02*
X74930000Y-73660000D01*
D29*
G36*
X75426903Y-38377298D02*
G01*
X76240000Y-39190395D01*
X77053097Y-38377298D01*
X77008998Y-38227000D01*
X77867689Y-38227000D01*
X77825241Y-38255363D01*
X77625363Y-38455241D01*
X77491308Y-38655869D01*
X77476671Y-38628486D01*
X77232702Y-38556903D01*
X76419605Y-39370000D01*
X77232702Y-40183097D01*
X77476671Y-40111514D01*
X77490324Y-40082659D01*
X77625363Y-40284759D01*
X77825241Y-40484637D01*
X78060273Y-40641680D01*
X78321426Y-40749853D01*
X78598665Y-40805000D01*
X78881335Y-40805000D01*
X79158574Y-40749853D01*
X79419727Y-40641680D01*
X79654759Y-40484637D01*
X79776694Y-40362702D01*
X86816903Y-40362702D01*
X86888486Y-40606671D01*
X87143996Y-40727571D01*
X87418184Y-40796300D01*
X87700512Y-40810217D01*
X87980130Y-40768787D01*
X88246292Y-40673603D01*
X88371514Y-40606671D01*
X88443097Y-40362702D01*
X87630000Y-39549605D01*
X86816903Y-40362702D01*
X79776694Y-40362702D01*
X79854637Y-40284759D01*
X80011680Y-40049727D01*
X80119853Y-39788574D01*
X80175000Y-39511335D01*
X80175000Y-39440512D01*
X86189783Y-39440512D01*
X86231213Y-39720130D01*
X86326397Y-39986292D01*
X86393329Y-40111514D01*
X86637298Y-40183097D01*
X87450395Y-39370000D01*
X86637298Y-38556903D01*
X86393329Y-38628486D01*
X86272429Y-38883996D01*
X86203700Y-39158184D01*
X86189783Y-39440512D01*
X80175000Y-39440512D01*
X80175000Y-39228665D01*
X80119853Y-38951426D01*
X80011680Y-38690273D01*
X79854637Y-38455241D01*
X79654759Y-38255363D01*
X79612311Y-38227000D01*
X86861002Y-38227000D01*
X86816903Y-38377298D01*
X87630000Y-39190395D01*
X88443097Y-38377298D01*
X88398998Y-38227000D01*
X89257689Y-38227000D01*
X89215241Y-38255363D01*
X89015363Y-38455241D01*
X88881308Y-38655869D01*
X88866671Y-38628486D01*
X88622702Y-38556903D01*
X87809605Y-39370000D01*
X88622702Y-40183097D01*
X88866671Y-40111514D01*
X88880324Y-40082659D01*
X89015363Y-40284759D01*
X89215241Y-40484637D01*
X89450273Y-40641680D01*
X89711426Y-40749853D01*
X89988665Y-40805000D01*
X90271335Y-40805000D01*
X90548574Y-40749853D01*
X90809727Y-40641680D01*
X91044759Y-40484637D01*
X91244637Y-40284759D01*
X91401680Y-40049727D01*
X91509853Y-39788574D01*
X91565000Y-39511335D01*
X91565000Y-39228665D01*
X91509853Y-38951426D01*
X91401680Y-38690273D01*
X91244637Y-38455241D01*
X91044759Y-38255363D01*
X91002311Y-38227000D01*
X110363000Y-38227000D01*
X110363000Y-43113319D01*
X110264180Y-43060498D01*
X110144482Y-43024188D01*
X110020000Y-43011928D01*
X109505750Y-43015000D01*
X109347000Y-43173750D01*
X109347000Y-44323000D01*
X109367000Y-44323000D01*
X109367000Y-44577000D01*
X109347000Y-44577000D01*
X109347000Y-44597000D01*
X109093000Y-44597000D01*
X109093000Y-44577000D01*
X107943750Y-44577000D01*
X107785000Y-44735750D01*
X107781928Y-45250000D01*
X107794188Y-45374482D01*
X107830498Y-45494180D01*
X107889463Y-45604494D01*
X107968815Y-45701185D01*
X108065506Y-45780537D01*
X108175820Y-45839502D01*
X108295518Y-45875812D01*
X108303961Y-45876643D01*
X108105363Y-46075241D01*
X107948320Y-46310273D01*
X107840147Y-46571426D01*
X107785000Y-46848665D01*
X107785000Y-47131335D01*
X107840147Y-47408574D01*
X107948320Y-47669727D01*
X108105363Y-47904759D01*
X108305241Y-48104637D01*
X108537759Y-48260000D01*
X108305241Y-48415363D01*
X108105363Y-48615241D01*
X107948320Y-48850273D01*
X107840147Y-49111426D01*
X107785000Y-49388665D01*
X107785000Y-49671335D01*
X107840147Y-49948574D01*
X107948320Y-50209727D01*
X108105363Y-50444759D01*
X108305241Y-50644637D01*
X108537759Y-50800000D01*
X108305241Y-50955363D01*
X108105363Y-51155241D01*
X107948320Y-51390273D01*
X107840147Y-51651426D01*
X107785000Y-51928665D01*
X107785000Y-52211335D01*
X107840147Y-52488574D01*
X107948320Y-52749727D01*
X108105363Y-52984759D01*
X108305241Y-53184637D01*
X108537759Y-53340000D01*
X108305241Y-53495363D01*
X108105363Y-53695241D01*
X107948320Y-53930273D01*
X107840147Y-54191426D01*
X107785000Y-54468665D01*
X107785000Y-54751335D01*
X107840147Y-55028574D01*
X107948320Y-55289727D01*
X108105363Y-55524759D01*
X108305241Y-55724637D01*
X108537759Y-55880000D01*
X108305241Y-56035363D01*
X108105363Y-56235241D01*
X107948320Y-56470273D01*
X107840147Y-56731426D01*
X107785000Y-57008665D01*
X107785000Y-57291335D01*
X107840147Y-57568574D01*
X107948320Y-57829727D01*
X108105363Y-58064759D01*
X108305241Y-58264637D01*
X108537759Y-58420000D01*
X108305241Y-58575363D01*
X108105363Y-58775241D01*
X107948320Y-59010273D01*
X107840147Y-59271426D01*
X107785000Y-59548665D01*
X107785000Y-59831335D01*
X107840147Y-60108574D01*
X107948320Y-60369727D01*
X108105363Y-60604759D01*
X108305241Y-60804637D01*
X108537759Y-60960000D01*
X108305241Y-61115363D01*
X108105363Y-61315241D01*
X107948320Y-61550273D01*
X107840147Y-61811426D01*
X107785000Y-62088665D01*
X107785000Y-62371335D01*
X107840147Y-62648574D01*
X107948320Y-62909727D01*
X108105363Y-63144759D01*
X108305241Y-63344637D01*
X108537759Y-63500000D01*
X108305241Y-63655363D01*
X108105363Y-63855241D01*
X107948320Y-64090273D01*
X107840147Y-64351426D01*
X107785000Y-64628665D01*
X107785000Y-64911335D01*
X107840147Y-65188574D01*
X107948320Y-65449727D01*
X108105363Y-65684759D01*
X108305241Y-65884637D01*
X108540273Y-66041680D01*
X108801426Y-66149853D01*
X109078665Y-66205000D01*
X109361335Y-66205000D01*
X109638574Y-66149853D01*
X109899727Y-66041680D01*
X110134759Y-65884637D01*
X110334637Y-65684759D01*
X110363000Y-65642311D01*
X110363000Y-67243319D01*
X110264180Y-67190498D01*
X110144482Y-67154188D01*
X110020000Y-67141928D01*
X109505750Y-67145000D01*
X109347000Y-67303750D01*
X109347000Y-68453000D01*
X109367000Y-68453000D01*
X109367000Y-68707000D01*
X109347000Y-68707000D01*
X109347000Y-68727000D01*
X109093000Y-68727000D01*
X109093000Y-68707000D01*
X107943750Y-68707000D01*
X107785000Y-68865750D01*
X107781928Y-69380000D01*
X107794188Y-69504482D01*
X107830498Y-69624180D01*
X107889463Y-69734494D01*
X107968815Y-69831185D01*
X108065506Y-69910537D01*
X108175820Y-69969502D01*
X108295518Y-70005812D01*
X108303961Y-70006643D01*
X108105363Y-70205241D01*
X107948320Y-70440273D01*
X107840147Y-70701426D01*
X107785000Y-70978665D01*
X107785000Y-71261335D01*
X107840147Y-71538574D01*
X107948320Y-71799727D01*
X108105363Y-72034759D01*
X108305241Y-72234637D01*
X108537759Y-72390000D01*
X108305241Y-72545363D01*
X108105363Y-72745241D01*
X107948320Y-72980273D01*
X107840147Y-73241426D01*
X107785000Y-73518665D01*
X107785000Y-73801335D01*
X107840147Y-74078574D01*
X107948320Y-74339727D01*
X108105363Y-74574759D01*
X108305241Y-74774637D01*
X108537759Y-74930000D01*
X108305241Y-75085363D01*
X108105363Y-75285241D01*
X107948320Y-75520273D01*
X107840147Y-75781426D01*
X107785000Y-76058665D01*
X107785000Y-76341335D01*
X107840147Y-76618574D01*
X107948320Y-76879727D01*
X108105363Y-77114759D01*
X108305241Y-77314637D01*
X108537759Y-77470000D01*
X108305241Y-77625363D01*
X108105363Y-77825241D01*
X107948320Y-78060273D01*
X107840147Y-78321426D01*
X107785000Y-78598665D01*
X107785000Y-78881335D01*
X107840147Y-79158574D01*
X107948320Y-79419727D01*
X108105363Y-79654759D01*
X108305241Y-79854637D01*
X108537759Y-80010000D01*
X108305241Y-80165363D01*
X108105363Y-80365241D01*
X107948320Y-80600273D01*
X107840147Y-80861426D01*
X107785000Y-81138665D01*
X107785000Y-81421335D01*
X107840147Y-81698574D01*
X107948320Y-81959727D01*
X108105363Y-82194759D01*
X108305241Y-82394637D01*
X108537759Y-82550000D01*
X108305241Y-82705363D01*
X108105363Y-82905241D01*
X107948320Y-83140273D01*
X107840147Y-83401426D01*
X107785000Y-83678665D01*
X107785000Y-83961335D01*
X107840147Y-84238574D01*
X107948320Y-84499727D01*
X108105363Y-84734759D01*
X108305241Y-84934637D01*
X108537759Y-85090000D01*
X108305241Y-85245363D01*
X108105363Y-85445241D01*
X107948320Y-85680273D01*
X107840147Y-85941426D01*
X107785000Y-86218665D01*
X107785000Y-86501335D01*
X107840147Y-86778574D01*
X107948320Y-87039727D01*
X108105363Y-87274759D01*
X108305241Y-87474637D01*
X108537759Y-87630000D01*
X108305241Y-87785363D01*
X108105363Y-87985241D01*
X107948320Y-88220273D01*
X107840147Y-88481426D01*
X107785000Y-88758665D01*
X107785000Y-89041335D01*
X107840147Y-89318574D01*
X107948320Y-89579727D01*
X108105363Y-89814759D01*
X108305241Y-90014637D01*
X108540273Y-90171680D01*
X108801426Y-90279853D01*
X109078665Y-90335000D01*
X109361335Y-90335000D01*
X109638574Y-90279853D01*
X109899727Y-90171680D01*
X110134759Y-90014637D01*
X110334637Y-89814759D01*
X110363000Y-89772311D01*
X110363000Y-93853000D01*
X105331866Y-93853000D01*
X105422415Y-93762451D01*
X105603097Y-93492042D01*
X105727553Y-93191579D01*
X105791000Y-92872609D01*
X105791000Y-92547391D01*
X105727553Y-92228421D01*
X105603097Y-91927958D01*
X105422415Y-91657549D01*
X105204866Y-91440000D01*
X105422415Y-91222451D01*
X105603097Y-90952042D01*
X105727553Y-90651579D01*
X105791000Y-90332609D01*
X105791000Y-90007391D01*
X105727553Y-89688421D01*
X105603097Y-89387958D01*
X105422415Y-89117549D01*
X105204866Y-88900000D01*
X105422415Y-88682451D01*
X105603097Y-88412042D01*
X105727553Y-88111579D01*
X105791000Y-87792609D01*
X105791000Y-87467391D01*
X105727553Y-87148421D01*
X105603097Y-86847958D01*
X105422415Y-86577549D01*
X105204866Y-86360000D01*
X105422415Y-86142451D01*
X105603097Y-85872042D01*
X105727553Y-85571579D01*
X105791000Y-85252609D01*
X105791000Y-84927391D01*
X105727553Y-84608421D01*
X105603097Y-84307958D01*
X105422415Y-84037549D01*
X105204866Y-83820000D01*
X105422415Y-83602451D01*
X105603097Y-83332042D01*
X105727553Y-83031579D01*
X105791000Y-82712609D01*
X105791000Y-82387391D01*
X105727553Y-82068421D01*
X105603097Y-81767958D01*
X105422415Y-81497549D01*
X105204866Y-81280000D01*
X105422415Y-81062451D01*
X105603097Y-80792042D01*
X105727553Y-80491579D01*
X105791000Y-80172609D01*
X105791000Y-79847391D01*
X105727553Y-79528421D01*
X105603097Y-79227958D01*
X105422415Y-78957549D01*
X105204866Y-78740000D01*
X105422415Y-78522451D01*
X105603097Y-78252042D01*
X105727553Y-77951579D01*
X105791000Y-77632609D01*
X105791000Y-77307391D01*
X105727553Y-76988421D01*
X105603097Y-76687958D01*
X105422415Y-76417549D01*
X105204866Y-76200000D01*
X105422415Y-75982451D01*
X105603097Y-75712042D01*
X105727553Y-75411579D01*
X105791000Y-75092609D01*
X105791000Y-74767391D01*
X105727553Y-74448421D01*
X105603097Y-74147958D01*
X105422415Y-73877549D01*
X105204866Y-73660000D01*
X105422415Y-73442451D01*
X105603097Y-73172042D01*
X105727553Y-72871579D01*
X105791000Y-72552609D01*
X105791000Y-72227391D01*
X105727553Y-71908421D01*
X105603097Y-71607958D01*
X105422415Y-71337549D01*
X105204866Y-71120000D01*
X105422415Y-70902451D01*
X105603097Y-70632042D01*
X105727553Y-70331579D01*
X105791000Y-70012609D01*
X105791000Y-69687391D01*
X105727553Y-69368421D01*
X105603097Y-69067958D01*
X105422415Y-68797549D01*
X105192451Y-68567585D01*
X104922042Y-68386903D01*
X104621579Y-68262447D01*
X104302609Y-68199000D01*
X103977391Y-68199000D01*
X103658421Y-68262447D01*
X103357958Y-68386903D01*
X103087549Y-68567585D01*
X102857585Y-68797549D01*
X102676903Y-69067958D01*
X102552447Y-69368421D01*
X102489000Y-69687391D01*
X102489000Y-70012609D01*
X102552447Y-70331579D01*
X102676903Y-70632042D01*
X102857585Y-70902451D01*
X103075134Y-71120000D01*
X102857585Y-71337549D01*
X102676903Y-71607958D01*
X102552447Y-71908421D01*
X102489000Y-72227391D01*
X102489000Y-72552609D01*
X102552447Y-72871579D01*
X102676903Y-73172042D01*
X102857585Y-73442451D01*
X103075134Y-73660000D01*
X102857585Y-73877549D01*
X102676903Y-74147958D01*
X102552447Y-74448421D01*
X102489000Y-74767391D01*
X102489000Y-75092609D01*
X102552447Y-75411579D01*
X102676903Y-75712042D01*
X102857585Y-75982451D01*
X103075134Y-76200000D01*
X102857585Y-76417549D01*
X102676903Y-76687958D01*
X102552447Y-76988421D01*
X102489000Y-77307391D01*
X102489000Y-77632609D01*
X102552447Y-77951579D01*
X102676903Y-78252042D01*
X102857585Y-78522451D01*
X103075134Y-78740000D01*
X102857585Y-78957549D01*
X102676903Y-79227958D01*
X102552447Y-79528421D01*
X102489000Y-79847391D01*
X102489000Y-80172609D01*
X102552447Y-80491579D01*
X102676903Y-80792042D01*
X102857585Y-81062451D01*
X103075134Y-81280000D01*
X102857585Y-81497549D01*
X102676903Y-81767958D01*
X102552447Y-82068421D01*
X102489000Y-82387391D01*
X102489000Y-82712609D01*
X102552447Y-83031579D01*
X102676903Y-83332042D01*
X102857585Y-83602451D01*
X103075134Y-83820000D01*
X102857585Y-84037549D01*
X102676903Y-84307958D01*
X102552447Y-84608421D01*
X102489000Y-84927391D01*
X102489000Y-85252609D01*
X102552447Y-85571579D01*
X102676903Y-85872042D01*
X102857585Y-86142451D01*
X103075134Y-86360000D01*
X102857585Y-86577549D01*
X102676903Y-86847958D01*
X102552447Y-87148421D01*
X102489000Y-87467391D01*
X102489000Y-87792609D01*
X102552447Y-88111579D01*
X102676903Y-88412042D01*
X102857585Y-88682451D01*
X103075134Y-88900000D01*
X102857585Y-89117549D01*
X102676903Y-89387958D01*
X102552447Y-89688421D01*
X102489000Y-90007391D01*
X102489000Y-90332609D01*
X102552447Y-90651579D01*
X102676903Y-90952042D01*
X102857585Y-91222451D01*
X103075134Y-91440000D01*
X102857585Y-91657549D01*
X102676903Y-91927958D01*
X102552447Y-92228421D01*
X102489000Y-92547391D01*
X102489000Y-92872609D01*
X102552447Y-93191579D01*
X102676903Y-93492042D01*
X102857585Y-93762451D01*
X102948134Y-93853000D01*
X98436483Y-93853000D01*
X99571004Y-92718480D01*
X99600001Y-92694683D01*
X99626332Y-92662599D01*
X99694974Y-92578959D01*
X99765546Y-92446929D01*
X99790428Y-92364902D01*
X99809003Y-92303668D01*
X99820000Y-92192015D01*
X99820000Y-92192006D01*
X99823676Y-92154683D01*
X99820000Y-92117360D01*
X99820000Y-67780000D01*
X107781928Y-67780000D01*
X107785000Y-68294250D01*
X107943750Y-68453000D01*
X109093000Y-68453000D01*
X109093000Y-67303750D01*
X108934250Y-67145000D01*
X108420000Y-67141928D01*
X108295518Y-67154188D01*
X108175820Y-67190498D01*
X108065506Y-67249463D01*
X107968815Y-67328815D01*
X107889463Y-67425506D01*
X107830498Y-67535820D01*
X107794188Y-67655518D01*
X107781928Y-67780000D01*
X99820000Y-67780000D01*
X99820000Y-43017391D01*
X102489000Y-43017391D01*
X102489000Y-43342609D01*
X102552447Y-43661579D01*
X102676903Y-43962042D01*
X102857585Y-44232451D01*
X103075134Y-44450000D01*
X102857585Y-44667549D01*
X102676903Y-44937958D01*
X102552447Y-45238421D01*
X102489000Y-45557391D01*
X102489000Y-45882609D01*
X102552447Y-46201579D01*
X102676903Y-46502042D01*
X102857585Y-46772451D01*
X103075134Y-46990000D01*
X102857585Y-47207549D01*
X102676903Y-47477958D01*
X102552447Y-47778421D01*
X102489000Y-48097391D01*
X102489000Y-48422609D01*
X102552447Y-48741579D01*
X102676903Y-49042042D01*
X102857585Y-49312451D01*
X103075134Y-49530000D01*
X102857585Y-49747549D01*
X102676903Y-50017958D01*
X102552447Y-50318421D01*
X102489000Y-50637391D01*
X102489000Y-50962609D01*
X102552447Y-51281579D01*
X102676903Y-51582042D01*
X102857585Y-51852451D01*
X103075134Y-52070000D01*
X102857585Y-52287549D01*
X102676903Y-52557958D01*
X102552447Y-52858421D01*
X102489000Y-53177391D01*
X102489000Y-53502609D01*
X102552447Y-53821579D01*
X102676903Y-54122042D01*
X102857585Y-54392451D01*
X103075134Y-54610000D01*
X102857585Y-54827549D01*
X102676903Y-55097958D01*
X102552447Y-55398421D01*
X102489000Y-55717391D01*
X102489000Y-56042609D01*
X102552447Y-56361579D01*
X102676903Y-56662042D01*
X102857585Y-56932451D01*
X103075134Y-57150000D01*
X102857585Y-57367549D01*
X102676903Y-57637958D01*
X102552447Y-57938421D01*
X102489000Y-58257391D01*
X102489000Y-58582609D01*
X102552447Y-58901579D01*
X102676903Y-59202042D01*
X102857585Y-59472451D01*
X103075134Y-59690000D01*
X102857585Y-59907549D01*
X102676903Y-60177958D01*
X102552447Y-60478421D01*
X102489000Y-60797391D01*
X102489000Y-61122609D01*
X102552447Y-61441579D01*
X102676903Y-61742042D01*
X102857585Y-62012451D01*
X103075134Y-62230000D01*
X102857585Y-62447549D01*
X102676903Y-62717958D01*
X102552447Y-63018421D01*
X102489000Y-63337391D01*
X102489000Y-63662609D01*
X102552447Y-63981579D01*
X102676903Y-64282042D01*
X102857585Y-64552451D01*
X103075134Y-64770000D01*
X102857585Y-64987549D01*
X102676903Y-65257958D01*
X102552447Y-65558421D01*
X102489000Y-65877391D01*
X102489000Y-66202609D01*
X102552447Y-66521579D01*
X102676903Y-66822042D01*
X102857585Y-67092451D01*
X103087549Y-67322415D01*
X103357958Y-67503097D01*
X103658421Y-67627553D01*
X103977391Y-67691000D01*
X104302609Y-67691000D01*
X104621579Y-67627553D01*
X104922042Y-67503097D01*
X105192451Y-67322415D01*
X105422415Y-67092451D01*
X105603097Y-66822042D01*
X105727553Y-66521579D01*
X105791000Y-66202609D01*
X105791000Y-65877391D01*
X105727553Y-65558421D01*
X105603097Y-65257958D01*
X105422415Y-64987549D01*
X105204866Y-64770000D01*
X105422415Y-64552451D01*
X105603097Y-64282042D01*
X105727553Y-63981579D01*
X105791000Y-63662609D01*
X105791000Y-63337391D01*
X105727553Y-63018421D01*
X105603097Y-62717958D01*
X105422415Y-62447549D01*
X105204866Y-62230000D01*
X105422415Y-62012451D01*
X105603097Y-61742042D01*
X105727553Y-61441579D01*
X105791000Y-61122609D01*
X105791000Y-60797391D01*
X105727553Y-60478421D01*
X105603097Y-60177958D01*
X105422415Y-59907549D01*
X105204866Y-59690000D01*
X105422415Y-59472451D01*
X105603097Y-59202042D01*
X105727553Y-58901579D01*
X105791000Y-58582609D01*
X105791000Y-58257391D01*
X105727553Y-57938421D01*
X105603097Y-57637958D01*
X105422415Y-57367549D01*
X105204866Y-57150000D01*
X105422415Y-56932451D01*
X105603097Y-56662042D01*
X105727553Y-56361579D01*
X105791000Y-56042609D01*
X105791000Y-55717391D01*
X105727553Y-55398421D01*
X105603097Y-55097958D01*
X105422415Y-54827549D01*
X105204866Y-54610000D01*
X105422415Y-54392451D01*
X105603097Y-54122042D01*
X105727553Y-53821579D01*
X105791000Y-53502609D01*
X105791000Y-53177391D01*
X105727553Y-52858421D01*
X105603097Y-52557958D01*
X105422415Y-52287549D01*
X105204866Y-52070000D01*
X105422415Y-51852451D01*
X105603097Y-51582042D01*
X105727553Y-51281579D01*
X105791000Y-50962609D01*
X105791000Y-50637391D01*
X105727553Y-50318421D01*
X105603097Y-50017958D01*
X105422415Y-49747549D01*
X105204866Y-49530000D01*
X105422415Y-49312451D01*
X105603097Y-49042042D01*
X105727553Y-48741579D01*
X105791000Y-48422609D01*
X105791000Y-48097391D01*
X105727553Y-47778421D01*
X105603097Y-47477958D01*
X105422415Y-47207549D01*
X105204866Y-46990000D01*
X105422415Y-46772451D01*
X105603097Y-46502042D01*
X105727553Y-46201579D01*
X105791000Y-45882609D01*
X105791000Y-45557391D01*
X105727553Y-45238421D01*
X105603097Y-44937958D01*
X105422415Y-44667549D01*
X105204866Y-44450000D01*
X105422415Y-44232451D01*
X105603097Y-43962042D01*
X105727553Y-43661579D01*
X105729856Y-43650000D01*
X107781928Y-43650000D01*
X107785000Y-44164250D01*
X107943750Y-44323000D01*
X109093000Y-44323000D01*
X109093000Y-43173750D01*
X108934250Y-43015000D01*
X108420000Y-43011928D01*
X108295518Y-43024188D01*
X108175820Y-43060498D01*
X108065506Y-43119463D01*
X107968815Y-43198815D01*
X107889463Y-43295506D01*
X107830498Y-43405820D01*
X107794188Y-43525518D01*
X107781928Y-43650000D01*
X105729856Y-43650000D01*
X105791000Y-43342609D01*
X105791000Y-43017391D01*
X105727553Y-42698421D01*
X105603097Y-42397958D01*
X105422415Y-42127549D01*
X105192451Y-41897585D01*
X104922042Y-41716903D01*
X104621579Y-41592447D01*
X104302609Y-41529000D01*
X103977391Y-41529000D01*
X103658421Y-41592447D01*
X103357958Y-41716903D01*
X103087549Y-41897585D01*
X102857585Y-42127549D01*
X102676903Y-42397958D01*
X102552447Y-42698421D01*
X102489000Y-43017391D01*
X99820000Y-43017391D01*
X99820000Y-41947322D01*
X99823676Y-41910000D01*
X99820000Y-41872677D01*
X99820000Y-41872667D01*
X99809003Y-41761014D01*
X99765546Y-41617753D01*
X99756598Y-41601012D01*
X99694974Y-41485723D01*
X99623799Y-41398997D01*
X99600001Y-41369999D01*
X99571002Y-41346201D01*
X98803813Y-40579012D01*
X98780011Y-40550009D01*
X98664286Y-40455036D01*
X98532257Y-40384464D01*
X98388996Y-40341007D01*
X98277343Y-40330010D01*
X98277332Y-40330010D01*
X98240010Y-40326334D01*
X98202688Y-40330010D01*
X93567312Y-40330010D01*
X93529990Y-40326334D01*
X93492667Y-40330010D01*
X93492657Y-40330010D01*
X93381004Y-40341007D01*
X93237743Y-40384464D01*
X93105713Y-40455036D01*
X93022073Y-40523678D01*
X92989989Y-40550009D01*
X92966191Y-40579008D01*
X92199002Y-41346197D01*
X92169999Y-41369999D01*
X92114871Y-41437174D01*
X92075026Y-41485724D01*
X92027575Y-41574498D01*
X92004454Y-41617754D01*
X91960997Y-41761015D01*
X91950000Y-41872668D01*
X91950000Y-41872678D01*
X91946324Y-41910000D01*
X91950000Y-41947323D01*
X91950000Y-41961957D01*
X91795241Y-42065363D01*
X91595363Y-42265241D01*
X91438320Y-42500273D01*
X91330147Y-42761426D01*
X91275000Y-43038665D01*
X91275000Y-43321335D01*
X91330147Y-43598574D01*
X91438320Y-43859727D01*
X91595363Y-44094759D01*
X91795241Y-44294637D01*
X92027759Y-44450000D01*
X91795241Y-44605363D01*
X91595363Y-44805241D01*
X91438320Y-45040273D01*
X91330147Y-45301426D01*
X91275000Y-45578665D01*
X91275000Y-45861335D01*
X91330147Y-46138574D01*
X91438320Y-46399727D01*
X91595363Y-46634759D01*
X91795241Y-46834637D01*
X92027759Y-46990000D01*
X91795241Y-47145363D01*
X91595363Y-47345241D01*
X91438320Y-47580273D01*
X91330147Y-47841426D01*
X91275000Y-48118665D01*
X91275000Y-48401335D01*
X91330147Y-48678574D01*
X91438320Y-48939727D01*
X91595363Y-49174759D01*
X91795241Y-49374637D01*
X92027759Y-49530000D01*
X91795241Y-49685363D01*
X91595363Y-49885241D01*
X91438320Y-50120273D01*
X91330147Y-50381426D01*
X91275000Y-50658665D01*
X91275000Y-50941335D01*
X91330147Y-51218574D01*
X91438320Y-51479727D01*
X91595363Y-51714759D01*
X91795241Y-51914637D01*
X92027759Y-52070000D01*
X91795241Y-52225363D01*
X91595363Y-52425241D01*
X91438320Y-52660273D01*
X91330147Y-52921426D01*
X91275000Y-53198665D01*
X91275000Y-53481335D01*
X91330147Y-53758574D01*
X91438320Y-54019727D01*
X91595363Y-54254759D01*
X91795241Y-54454637D01*
X92027759Y-54610000D01*
X91795241Y-54765363D01*
X91595363Y-54965241D01*
X91438320Y-55200273D01*
X91330147Y-55461426D01*
X91275000Y-55738665D01*
X91275000Y-56021335D01*
X91330147Y-56298574D01*
X91438320Y-56559727D01*
X91595363Y-56794759D01*
X91795241Y-56994637D01*
X92027759Y-57150000D01*
X91795241Y-57305363D01*
X91595363Y-57505241D01*
X91438320Y-57740273D01*
X91330147Y-58001426D01*
X91275000Y-58278665D01*
X91275000Y-58561335D01*
X91330147Y-58838574D01*
X91438320Y-59099727D01*
X91595363Y-59334759D01*
X91795241Y-59534637D01*
X92027759Y-59690000D01*
X91795241Y-59845363D01*
X91595363Y-60045241D01*
X91438320Y-60280273D01*
X91330147Y-60541426D01*
X91275000Y-60818665D01*
X91275000Y-61101335D01*
X91330147Y-61378574D01*
X91368017Y-61470000D01*
X87944802Y-61470000D01*
X87120000Y-60645199D01*
X87120000Y-47902320D01*
X87123676Y-47864997D01*
X87120000Y-47827674D01*
X87120000Y-47827665D01*
X87109003Y-47716012D01*
X87065546Y-47572751D01*
X87042695Y-47530001D01*
X86994974Y-47440721D01*
X86923799Y-47353995D01*
X86900001Y-47324997D01*
X86871004Y-47301200D01*
X86204600Y-46634796D01*
X86204637Y-46634759D01*
X86361680Y-46399727D01*
X86469853Y-46138574D01*
X86525000Y-45861335D01*
X86525000Y-45578665D01*
X86469853Y-45301426D01*
X86361680Y-45040273D01*
X86204637Y-44805241D01*
X86006039Y-44606643D01*
X86014482Y-44605812D01*
X86134180Y-44569502D01*
X86244494Y-44510537D01*
X86341185Y-44431185D01*
X86420537Y-44334494D01*
X86479502Y-44224180D01*
X86515812Y-44104482D01*
X86528072Y-43980000D01*
X86525000Y-43465750D01*
X86366250Y-43307000D01*
X85217000Y-43307000D01*
X85217000Y-43327000D01*
X84963000Y-43327000D01*
X84963000Y-43307000D01*
X83813750Y-43307000D01*
X83655000Y-43465750D01*
X83651928Y-43980000D01*
X83664188Y-44104482D01*
X83700498Y-44224180D01*
X83759463Y-44334494D01*
X83838815Y-44431185D01*
X83935506Y-44510537D01*
X84045820Y-44569502D01*
X84165518Y-44605812D01*
X84173961Y-44606643D01*
X83977703Y-44802901D01*
X83258803Y-44084001D01*
X83235000Y-44054998D01*
X83119275Y-43960025D01*
X82987246Y-43889453D01*
X82843985Y-43845996D01*
X82732332Y-43834999D01*
X82732321Y-43834999D01*
X82694999Y-43831323D01*
X82657677Y-43834999D01*
X82561923Y-43834999D01*
X82659853Y-43598574D01*
X82715000Y-43321335D01*
X82715000Y-43038665D01*
X82659853Y-42761426D01*
X82551680Y-42500273D01*
X82471317Y-42380000D01*
X83651928Y-42380000D01*
X83655000Y-42894250D01*
X83813750Y-43053000D01*
X84963000Y-43053000D01*
X84963000Y-41903750D01*
X85217000Y-41903750D01*
X85217000Y-43053000D01*
X86366250Y-43053000D01*
X86525000Y-42894250D01*
X86528072Y-42380000D01*
X86515812Y-42255518D01*
X86479502Y-42135820D01*
X86420537Y-42025506D01*
X86341185Y-41928815D01*
X86244494Y-41849463D01*
X86134180Y-41790498D01*
X86014482Y-41754188D01*
X85890000Y-41741928D01*
X85375750Y-41745000D01*
X85217000Y-41903750D01*
X84963000Y-41903750D01*
X84804250Y-41745000D01*
X84290000Y-41741928D01*
X84165518Y-41754188D01*
X84045820Y-41790498D01*
X83935506Y-41849463D01*
X83838815Y-41928815D01*
X83759463Y-42025506D01*
X83700498Y-42135820D01*
X83664188Y-42255518D01*
X83651928Y-42380000D01*
X82471317Y-42380000D01*
X82394637Y-42265241D01*
X82194759Y-42065363D01*
X81959727Y-41908320D01*
X81698574Y-41800147D01*
X81421335Y-41745000D01*
X81138665Y-41745000D01*
X80861426Y-41800147D01*
X80600273Y-41908320D01*
X80365241Y-42065363D01*
X80165363Y-42265241D01*
X80008320Y-42500273D01*
X79900147Y-42761426D01*
X79845000Y-43038665D01*
X79845000Y-43321335D01*
X79900147Y-43598574D01*
X79998077Y-43834999D01*
X75097206Y-43834999D01*
X75095000Y-43465750D01*
X74936250Y-43307000D01*
X73787000Y-43307000D01*
X73787000Y-43327000D01*
X73533000Y-43327000D01*
X73533000Y-43307000D01*
X72383750Y-43307000D01*
X72225000Y-43465750D01*
X72221928Y-43980000D01*
X72234188Y-44104482D01*
X72270498Y-44224180D01*
X72329463Y-44334494D01*
X72408815Y-44431185D01*
X72505506Y-44510537D01*
X72615820Y-44569502D01*
X72735518Y-44605812D01*
X72743961Y-44606643D01*
X72545363Y-44805241D01*
X72441957Y-44960000D01*
X70068072Y-44960000D01*
X70068072Y-44870000D01*
X70055812Y-44745518D01*
X70019502Y-44625820D01*
X69960537Y-44515506D01*
X69881185Y-44418815D01*
X69784494Y-44339463D01*
X69674180Y-44280498D01*
X69554482Y-44244188D01*
X69430000Y-44231928D01*
X67730000Y-44231928D01*
X67605518Y-44244188D01*
X67485820Y-44280498D01*
X67437000Y-44306593D01*
X67437000Y-42380000D01*
X72221928Y-42380000D01*
X72225000Y-42894250D01*
X72383750Y-43053000D01*
X73533000Y-43053000D01*
X73533000Y-41903750D01*
X73787000Y-41903750D01*
X73787000Y-43053000D01*
X74936250Y-43053000D01*
X75095000Y-42894250D01*
X75098072Y-42380000D01*
X75085812Y-42255518D01*
X75049502Y-42135820D01*
X74990537Y-42025506D01*
X74911185Y-41928815D01*
X74814494Y-41849463D01*
X74704180Y-41790498D01*
X74584482Y-41754188D01*
X74460000Y-41741928D01*
X73945750Y-41745000D01*
X73787000Y-41903750D01*
X73533000Y-41903750D01*
X73374250Y-41745000D01*
X72860000Y-41741928D01*
X72735518Y-41754188D01*
X72615820Y-41790498D01*
X72505506Y-41849463D01*
X72408815Y-41928815D01*
X72329463Y-42025506D01*
X72270498Y-42135820D01*
X72234188Y-42255518D01*
X72221928Y-42380000D01*
X67437000Y-42380000D01*
X67437000Y-40362702D01*
X75426903Y-40362702D01*
X75498486Y-40606671D01*
X75753996Y-40727571D01*
X76028184Y-40796300D01*
X76310512Y-40810217D01*
X76590130Y-40768787D01*
X76856292Y-40673603D01*
X76981514Y-40606671D01*
X77053097Y-40362702D01*
X76240000Y-39549605D01*
X75426903Y-40362702D01*
X67437000Y-40362702D01*
X67437000Y-39440512D01*
X74799783Y-39440512D01*
X74841213Y-39720130D01*
X74936397Y-39986292D01*
X75003329Y-40111514D01*
X75247298Y-40183097D01*
X76060395Y-39370000D01*
X75247298Y-38556903D01*
X75003329Y-38628486D01*
X74882429Y-38883996D01*
X74813700Y-39158184D01*
X74799783Y-39440512D01*
X67437000Y-39440512D01*
X67437000Y-38227000D01*
X75471002Y-38227000D01*
X75426903Y-38377298D01*
G37*
X75426903Y-38377298D02*
X76240000Y-39190395D01*
X77053097Y-38377298D01*
X77008998Y-38227000D01*
X77867689Y-38227000D01*
X77825241Y-38255363D01*
X77625363Y-38455241D01*
X77491308Y-38655869D01*
X77476671Y-38628486D01*
X77232702Y-38556903D01*
X76419605Y-39370000D01*
X77232702Y-40183097D01*
X77476671Y-40111514D01*
X77490324Y-40082659D01*
X77625363Y-40284759D01*
X77825241Y-40484637D01*
X78060273Y-40641680D01*
X78321426Y-40749853D01*
X78598665Y-40805000D01*
X78881335Y-40805000D01*
X79158574Y-40749853D01*
X79419727Y-40641680D01*
X79654759Y-40484637D01*
X79776694Y-40362702D01*
X86816903Y-40362702D01*
X86888486Y-40606671D01*
X87143996Y-40727571D01*
X87418184Y-40796300D01*
X87700512Y-40810217D01*
X87980130Y-40768787D01*
X88246292Y-40673603D01*
X88371514Y-40606671D01*
X88443097Y-40362702D01*
X87630000Y-39549605D01*
X86816903Y-40362702D01*
X79776694Y-40362702D01*
X79854637Y-40284759D01*
X80011680Y-40049727D01*
X80119853Y-39788574D01*
X80175000Y-39511335D01*
X80175000Y-39440512D01*
X86189783Y-39440512D01*
X86231213Y-39720130D01*
X86326397Y-39986292D01*
X86393329Y-40111514D01*
X86637298Y-40183097D01*
X87450395Y-39370000D01*
X86637298Y-38556903D01*
X86393329Y-38628486D01*
X86272429Y-38883996D01*
X86203700Y-39158184D01*
X86189783Y-39440512D01*
X80175000Y-39440512D01*
X80175000Y-39228665D01*
X80119853Y-38951426D01*
X80011680Y-38690273D01*
X79854637Y-38455241D01*
X79654759Y-38255363D01*
X79612311Y-38227000D01*
X86861002Y-38227000D01*
X86816903Y-38377298D01*
X87630000Y-39190395D01*
X88443097Y-38377298D01*
X88398998Y-38227000D01*
X89257689Y-38227000D01*
X89215241Y-38255363D01*
X89015363Y-38455241D01*
X88881308Y-38655869D01*
X88866671Y-38628486D01*
X88622702Y-38556903D01*
X87809605Y-39370000D01*
X88622702Y-40183097D01*
X88866671Y-40111514D01*
X88880324Y-40082659D01*
X89015363Y-40284759D01*
X89215241Y-40484637D01*
X89450273Y-40641680D01*
X89711426Y-40749853D01*
X89988665Y-40805000D01*
X90271335Y-40805000D01*
X90548574Y-40749853D01*
X90809727Y-40641680D01*
X91044759Y-40484637D01*
X91244637Y-40284759D01*
X91401680Y-40049727D01*
X91509853Y-39788574D01*
X91565000Y-39511335D01*
X91565000Y-39228665D01*
X91509853Y-38951426D01*
X91401680Y-38690273D01*
X91244637Y-38455241D01*
X91044759Y-38255363D01*
X91002311Y-38227000D01*
X110363000Y-38227000D01*
X110363000Y-43113319D01*
X110264180Y-43060498D01*
X110144482Y-43024188D01*
X110020000Y-43011928D01*
X109505750Y-43015000D01*
X109347000Y-43173750D01*
X109347000Y-44323000D01*
X109367000Y-44323000D01*
X109367000Y-44577000D01*
X109347000Y-44577000D01*
X109347000Y-44597000D01*
X109093000Y-44597000D01*
X109093000Y-44577000D01*
X107943750Y-44577000D01*
X107785000Y-44735750D01*
X107781928Y-45250000D01*
X107794188Y-45374482D01*
X107830498Y-45494180D01*
X107889463Y-45604494D01*
X107968815Y-45701185D01*
X108065506Y-45780537D01*
X108175820Y-45839502D01*
X108295518Y-45875812D01*
X108303961Y-45876643D01*
X108105363Y-46075241D01*
X107948320Y-46310273D01*
X107840147Y-46571426D01*
X107785000Y-46848665D01*
X107785000Y-47131335D01*
X107840147Y-47408574D01*
X107948320Y-47669727D01*
X108105363Y-47904759D01*
X108305241Y-48104637D01*
X108537759Y-48260000D01*
X108305241Y-48415363D01*
X108105363Y-48615241D01*
X107948320Y-48850273D01*
X107840147Y-49111426D01*
X107785000Y-49388665D01*
X107785000Y-49671335D01*
X107840147Y-49948574D01*
X107948320Y-50209727D01*
X108105363Y-50444759D01*
X108305241Y-50644637D01*
X108537759Y-50800000D01*
X108305241Y-50955363D01*
X108105363Y-51155241D01*
X107948320Y-51390273D01*
X107840147Y-51651426D01*
X107785000Y-51928665D01*
X107785000Y-52211335D01*
X107840147Y-52488574D01*
X107948320Y-52749727D01*
X108105363Y-52984759D01*
X108305241Y-53184637D01*
X108537759Y-53340000D01*
X108305241Y-53495363D01*
X108105363Y-53695241D01*
X107948320Y-53930273D01*
X107840147Y-54191426D01*
X107785000Y-54468665D01*
X107785000Y-54751335D01*
X107840147Y-55028574D01*
X107948320Y-55289727D01*
X108105363Y-55524759D01*
X108305241Y-55724637D01*
X108537759Y-55880000D01*
X108305241Y-56035363D01*
X108105363Y-56235241D01*
X107948320Y-56470273D01*
X107840147Y-56731426D01*
X107785000Y-57008665D01*
X107785000Y-57291335D01*
X107840147Y-57568574D01*
X107948320Y-57829727D01*
X108105363Y-58064759D01*
X108305241Y-58264637D01*
X108537759Y-58420000D01*
X108305241Y-58575363D01*
X108105363Y-58775241D01*
X107948320Y-59010273D01*
X107840147Y-59271426D01*
X107785000Y-59548665D01*
X107785000Y-59831335D01*
X107840147Y-60108574D01*
X107948320Y-60369727D01*
X108105363Y-60604759D01*
X108305241Y-60804637D01*
X108537759Y-60960000D01*
X108305241Y-61115363D01*
X108105363Y-61315241D01*
X107948320Y-61550273D01*
X107840147Y-61811426D01*
X107785000Y-62088665D01*
X107785000Y-62371335D01*
X107840147Y-62648574D01*
X107948320Y-62909727D01*
X108105363Y-63144759D01*
X108305241Y-63344637D01*
X108537759Y-63500000D01*
X108305241Y-63655363D01*
X108105363Y-63855241D01*
X107948320Y-64090273D01*
X107840147Y-64351426D01*
X107785000Y-64628665D01*
X107785000Y-64911335D01*
X107840147Y-65188574D01*
X107948320Y-65449727D01*
X108105363Y-65684759D01*
X108305241Y-65884637D01*
X108540273Y-66041680D01*
X108801426Y-66149853D01*
X109078665Y-66205000D01*
X109361335Y-66205000D01*
X109638574Y-66149853D01*
X109899727Y-66041680D01*
X110134759Y-65884637D01*
X110334637Y-65684759D01*
X110363000Y-65642311D01*
X110363000Y-67243319D01*
X110264180Y-67190498D01*
X110144482Y-67154188D01*
X110020000Y-67141928D01*
X109505750Y-67145000D01*
X109347000Y-67303750D01*
X109347000Y-68453000D01*
X109367000Y-68453000D01*
X109367000Y-68707000D01*
X109347000Y-68707000D01*
X109347000Y-68727000D01*
X109093000Y-68727000D01*
X109093000Y-68707000D01*
X107943750Y-68707000D01*
X107785000Y-68865750D01*
X107781928Y-69380000D01*
X107794188Y-69504482D01*
X107830498Y-69624180D01*
X107889463Y-69734494D01*
X107968815Y-69831185D01*
X108065506Y-69910537D01*
X108175820Y-69969502D01*
X108295518Y-70005812D01*
X108303961Y-70006643D01*
X108105363Y-70205241D01*
X107948320Y-70440273D01*
X107840147Y-70701426D01*
X107785000Y-70978665D01*
X107785000Y-71261335D01*
X107840147Y-71538574D01*
X107948320Y-71799727D01*
X108105363Y-72034759D01*
X108305241Y-72234637D01*
X108537759Y-72390000D01*
X108305241Y-72545363D01*
X108105363Y-72745241D01*
X107948320Y-72980273D01*
X107840147Y-73241426D01*
X107785000Y-73518665D01*
X107785000Y-73801335D01*
X107840147Y-74078574D01*
X107948320Y-74339727D01*
X108105363Y-74574759D01*
X108305241Y-74774637D01*
X108537759Y-74930000D01*
X108305241Y-75085363D01*
X108105363Y-75285241D01*
X107948320Y-75520273D01*
X107840147Y-75781426D01*
X107785000Y-76058665D01*
X107785000Y-76341335D01*
X107840147Y-76618574D01*
X107948320Y-76879727D01*
X108105363Y-77114759D01*
X108305241Y-77314637D01*
X108537759Y-77470000D01*
X108305241Y-77625363D01*
X108105363Y-77825241D01*
X107948320Y-78060273D01*
X107840147Y-78321426D01*
X107785000Y-78598665D01*
X107785000Y-78881335D01*
X107840147Y-79158574D01*
X107948320Y-79419727D01*
X108105363Y-79654759D01*
X108305241Y-79854637D01*
X108537759Y-80010000D01*
X108305241Y-80165363D01*
X108105363Y-80365241D01*
X107948320Y-80600273D01*
X107840147Y-80861426D01*
X107785000Y-81138665D01*
X107785000Y-81421335D01*
X107840147Y-81698574D01*
X107948320Y-81959727D01*
X108105363Y-82194759D01*
X108305241Y-82394637D01*
X108537759Y-82550000D01*
X108305241Y-82705363D01*
X108105363Y-82905241D01*
X107948320Y-83140273D01*
X107840147Y-83401426D01*
X107785000Y-83678665D01*
X107785000Y-83961335D01*
X107840147Y-84238574D01*
X107948320Y-84499727D01*
X108105363Y-84734759D01*
X108305241Y-84934637D01*
X108537759Y-85090000D01*
X108305241Y-85245363D01*
X108105363Y-85445241D01*
X107948320Y-85680273D01*
X107840147Y-85941426D01*
X107785000Y-86218665D01*
X107785000Y-86501335D01*
X107840147Y-86778574D01*
X107948320Y-87039727D01*
X108105363Y-87274759D01*
X108305241Y-87474637D01*
X108537759Y-87630000D01*
X108305241Y-87785363D01*
X108105363Y-87985241D01*
X107948320Y-88220273D01*
X107840147Y-88481426D01*
X107785000Y-88758665D01*
X107785000Y-89041335D01*
X107840147Y-89318574D01*
X107948320Y-89579727D01*
X108105363Y-89814759D01*
X108305241Y-90014637D01*
X108540273Y-90171680D01*
X108801426Y-90279853D01*
X109078665Y-90335000D01*
X109361335Y-90335000D01*
X109638574Y-90279853D01*
X109899727Y-90171680D01*
X110134759Y-90014637D01*
X110334637Y-89814759D01*
X110363000Y-89772311D01*
X110363000Y-93853000D01*
X105331866Y-93853000D01*
X105422415Y-93762451D01*
X105603097Y-93492042D01*
X105727553Y-93191579D01*
X105791000Y-92872609D01*
X105791000Y-92547391D01*
X105727553Y-92228421D01*
X105603097Y-91927958D01*
X105422415Y-91657549D01*
X105204866Y-91440000D01*
X105422415Y-91222451D01*
X105603097Y-90952042D01*
X105727553Y-90651579D01*
X105791000Y-90332609D01*
X105791000Y-90007391D01*
X105727553Y-89688421D01*
X105603097Y-89387958D01*
X105422415Y-89117549D01*
X105204866Y-88900000D01*
X105422415Y-88682451D01*
X105603097Y-88412042D01*
X105727553Y-88111579D01*
X105791000Y-87792609D01*
X105791000Y-87467391D01*
X105727553Y-87148421D01*
X105603097Y-86847958D01*
X105422415Y-86577549D01*
X105204866Y-86360000D01*
X105422415Y-86142451D01*
X105603097Y-85872042D01*
X105727553Y-85571579D01*
X105791000Y-85252609D01*
X105791000Y-84927391D01*
X105727553Y-84608421D01*
X105603097Y-84307958D01*
X105422415Y-84037549D01*
X105204866Y-83820000D01*
X105422415Y-83602451D01*
X105603097Y-83332042D01*
X105727553Y-83031579D01*
X105791000Y-82712609D01*
X105791000Y-82387391D01*
X105727553Y-82068421D01*
X105603097Y-81767958D01*
X105422415Y-81497549D01*
X105204866Y-81280000D01*
X105422415Y-81062451D01*
X105603097Y-80792042D01*
X105727553Y-80491579D01*
X105791000Y-80172609D01*
X105791000Y-79847391D01*
X105727553Y-79528421D01*
X105603097Y-79227958D01*
X105422415Y-78957549D01*
X105204866Y-78740000D01*
X105422415Y-78522451D01*
X105603097Y-78252042D01*
X105727553Y-77951579D01*
X105791000Y-77632609D01*
X105791000Y-77307391D01*
X105727553Y-76988421D01*
X105603097Y-76687958D01*
X105422415Y-76417549D01*
X105204866Y-76200000D01*
X105422415Y-75982451D01*
X105603097Y-75712042D01*
X105727553Y-75411579D01*
X105791000Y-75092609D01*
X105791000Y-74767391D01*
X105727553Y-74448421D01*
X105603097Y-74147958D01*
X105422415Y-73877549D01*
X105204866Y-73660000D01*
X105422415Y-73442451D01*
X105603097Y-73172042D01*
X105727553Y-72871579D01*
X105791000Y-72552609D01*
X105791000Y-72227391D01*
X105727553Y-71908421D01*
X105603097Y-71607958D01*
X105422415Y-71337549D01*
X105204866Y-71120000D01*
X105422415Y-70902451D01*
X105603097Y-70632042D01*
X105727553Y-70331579D01*
X105791000Y-70012609D01*
X105791000Y-69687391D01*
X105727553Y-69368421D01*
X105603097Y-69067958D01*
X105422415Y-68797549D01*
X105192451Y-68567585D01*
X104922042Y-68386903D01*
X104621579Y-68262447D01*
X104302609Y-68199000D01*
X103977391Y-68199000D01*
X103658421Y-68262447D01*
X103357958Y-68386903D01*
X103087549Y-68567585D01*
X102857585Y-68797549D01*
X102676903Y-69067958D01*
X102552447Y-69368421D01*
X102489000Y-69687391D01*
X102489000Y-70012609D01*
X102552447Y-70331579D01*
X102676903Y-70632042D01*
X102857585Y-70902451D01*
X103075134Y-71120000D01*
X102857585Y-71337549D01*
X102676903Y-71607958D01*
X102552447Y-71908421D01*
X102489000Y-72227391D01*
X102489000Y-72552609D01*
X102552447Y-72871579D01*
X102676903Y-73172042D01*
X102857585Y-73442451D01*
X103075134Y-73660000D01*
X102857585Y-73877549D01*
X102676903Y-74147958D01*
X102552447Y-74448421D01*
X102489000Y-74767391D01*
X102489000Y-75092609D01*
X102552447Y-75411579D01*
X102676903Y-75712042D01*
X102857585Y-75982451D01*
X103075134Y-76200000D01*
X102857585Y-76417549D01*
X102676903Y-76687958D01*
X102552447Y-76988421D01*
X102489000Y-77307391D01*
X102489000Y-77632609D01*
X102552447Y-77951579D01*
X102676903Y-78252042D01*
X102857585Y-78522451D01*
X103075134Y-78740000D01*
X102857585Y-78957549D01*
X102676903Y-79227958D01*
X102552447Y-79528421D01*
X102489000Y-79847391D01*
X102489000Y-80172609D01*
X102552447Y-80491579D01*
X102676903Y-80792042D01*
X102857585Y-81062451D01*
X103075134Y-81280000D01*
X102857585Y-81497549D01*
X102676903Y-81767958D01*
X102552447Y-82068421D01*
X102489000Y-82387391D01*
X102489000Y-82712609D01*
X102552447Y-83031579D01*
X102676903Y-83332042D01*
X102857585Y-83602451D01*
X103075134Y-83820000D01*
X102857585Y-84037549D01*
X102676903Y-84307958D01*
X102552447Y-84608421D01*
X102489000Y-84927391D01*
X102489000Y-85252609D01*
X102552447Y-85571579D01*
X102676903Y-85872042D01*
X102857585Y-86142451D01*
X103075134Y-86360000D01*
X102857585Y-86577549D01*
X102676903Y-86847958D01*
X102552447Y-87148421D01*
X102489000Y-87467391D01*
X102489000Y-87792609D01*
X102552447Y-88111579D01*
X102676903Y-88412042D01*
X102857585Y-88682451D01*
X103075134Y-88900000D01*
X102857585Y-89117549D01*
X102676903Y-89387958D01*
X102552447Y-89688421D01*
X102489000Y-90007391D01*
X102489000Y-90332609D01*
X102552447Y-90651579D01*
X102676903Y-90952042D01*
X102857585Y-91222451D01*
X103075134Y-91440000D01*
X102857585Y-91657549D01*
X102676903Y-91927958D01*
X102552447Y-92228421D01*
X102489000Y-92547391D01*
X102489000Y-92872609D01*
X102552447Y-93191579D01*
X102676903Y-93492042D01*
X102857585Y-93762451D01*
X102948134Y-93853000D01*
X98436483Y-93853000D01*
X99571004Y-92718480D01*
X99600001Y-92694683D01*
X99626332Y-92662599D01*
X99694974Y-92578959D01*
X99765546Y-92446929D01*
X99790428Y-92364902D01*
X99809003Y-92303668D01*
X99820000Y-92192015D01*
X99820000Y-92192006D01*
X99823676Y-92154683D01*
X99820000Y-92117360D01*
X99820000Y-67780000D01*
X107781928Y-67780000D01*
X107785000Y-68294250D01*
X107943750Y-68453000D01*
X109093000Y-68453000D01*
X109093000Y-67303750D01*
X108934250Y-67145000D01*
X108420000Y-67141928D01*
X108295518Y-67154188D01*
X108175820Y-67190498D01*
X108065506Y-67249463D01*
X107968815Y-67328815D01*
X107889463Y-67425506D01*
X107830498Y-67535820D01*
X107794188Y-67655518D01*
X107781928Y-67780000D01*
X99820000Y-67780000D01*
X99820000Y-43017391D01*
X102489000Y-43017391D01*
X102489000Y-43342609D01*
X102552447Y-43661579D01*
X102676903Y-43962042D01*
X102857585Y-44232451D01*
X103075134Y-44450000D01*
X102857585Y-44667549D01*
X102676903Y-44937958D01*
X102552447Y-45238421D01*
X102489000Y-45557391D01*
X102489000Y-45882609D01*
X102552447Y-46201579D01*
X102676903Y-46502042D01*
X102857585Y-46772451D01*
X103075134Y-46990000D01*
X102857585Y-47207549D01*
X102676903Y-47477958D01*
X102552447Y-47778421D01*
X102489000Y-48097391D01*
X102489000Y-48422609D01*
X102552447Y-48741579D01*
X102676903Y-49042042D01*
X102857585Y-49312451D01*
X103075134Y-49530000D01*
X102857585Y-49747549D01*
X102676903Y-50017958D01*
X102552447Y-50318421D01*
X102489000Y-50637391D01*
X102489000Y-50962609D01*
X102552447Y-51281579D01*
X102676903Y-51582042D01*
X102857585Y-51852451D01*
X103075134Y-52070000D01*
X102857585Y-52287549D01*
X102676903Y-52557958D01*
X102552447Y-52858421D01*
X102489000Y-53177391D01*
X102489000Y-53502609D01*
X102552447Y-53821579D01*
X102676903Y-54122042D01*
X102857585Y-54392451D01*
X103075134Y-54610000D01*
X102857585Y-54827549D01*
X102676903Y-55097958D01*
X102552447Y-55398421D01*
X102489000Y-55717391D01*
X102489000Y-56042609D01*
X102552447Y-56361579D01*
X102676903Y-56662042D01*
X102857585Y-56932451D01*
X103075134Y-57150000D01*
X102857585Y-57367549D01*
X102676903Y-57637958D01*
X102552447Y-57938421D01*
X102489000Y-58257391D01*
X102489000Y-58582609D01*
X102552447Y-58901579D01*
X102676903Y-59202042D01*
X102857585Y-59472451D01*
X103075134Y-59690000D01*
X102857585Y-59907549D01*
X102676903Y-60177958D01*
X102552447Y-60478421D01*
X102489000Y-60797391D01*
X102489000Y-61122609D01*
X102552447Y-61441579D01*
X102676903Y-61742042D01*
X102857585Y-62012451D01*
X103075134Y-62230000D01*
X102857585Y-62447549D01*
X102676903Y-62717958D01*
X102552447Y-63018421D01*
X102489000Y-63337391D01*
X102489000Y-63662609D01*
X102552447Y-63981579D01*
X102676903Y-64282042D01*
X102857585Y-64552451D01*
X103075134Y-64770000D01*
X102857585Y-64987549D01*
X102676903Y-65257958D01*
X102552447Y-65558421D01*
X102489000Y-65877391D01*
X102489000Y-66202609D01*
X102552447Y-66521579D01*
X102676903Y-66822042D01*
X102857585Y-67092451D01*
X103087549Y-67322415D01*
X103357958Y-67503097D01*
X103658421Y-67627553D01*
X103977391Y-67691000D01*
X104302609Y-67691000D01*
X104621579Y-67627553D01*
X104922042Y-67503097D01*
X105192451Y-67322415D01*
X105422415Y-67092451D01*
X105603097Y-66822042D01*
X105727553Y-66521579D01*
X105791000Y-66202609D01*
X105791000Y-65877391D01*
X105727553Y-65558421D01*
X105603097Y-65257958D01*
X105422415Y-64987549D01*
X105204866Y-64770000D01*
X105422415Y-64552451D01*
X105603097Y-64282042D01*
X105727553Y-63981579D01*
X105791000Y-63662609D01*
X105791000Y-63337391D01*
X105727553Y-63018421D01*
X105603097Y-62717958D01*
X105422415Y-62447549D01*
X105204866Y-62230000D01*
X105422415Y-62012451D01*
X105603097Y-61742042D01*
X105727553Y-61441579D01*
X105791000Y-61122609D01*
X105791000Y-60797391D01*
X105727553Y-60478421D01*
X105603097Y-60177958D01*
X105422415Y-59907549D01*
X105204866Y-59690000D01*
X105422415Y-59472451D01*
X105603097Y-59202042D01*
X105727553Y-58901579D01*
X105791000Y-58582609D01*
X105791000Y-58257391D01*
X105727553Y-57938421D01*
X105603097Y-57637958D01*
X105422415Y-57367549D01*
X105204866Y-57150000D01*
X105422415Y-56932451D01*
X105603097Y-56662042D01*
X105727553Y-56361579D01*
X105791000Y-56042609D01*
X105791000Y-55717391D01*
X105727553Y-55398421D01*
X105603097Y-55097958D01*
X105422415Y-54827549D01*
X105204866Y-54610000D01*
X105422415Y-54392451D01*
X105603097Y-54122042D01*
X105727553Y-53821579D01*
X105791000Y-53502609D01*
X105791000Y-53177391D01*
X105727553Y-52858421D01*
X105603097Y-52557958D01*
X105422415Y-52287549D01*
X105204866Y-52070000D01*
X105422415Y-51852451D01*
X105603097Y-51582042D01*
X105727553Y-51281579D01*
X105791000Y-50962609D01*
X105791000Y-50637391D01*
X105727553Y-50318421D01*
X105603097Y-50017958D01*
X105422415Y-49747549D01*
X105204866Y-49530000D01*
X105422415Y-49312451D01*
X105603097Y-49042042D01*
X105727553Y-48741579D01*
X105791000Y-48422609D01*
X105791000Y-48097391D01*
X105727553Y-47778421D01*
X105603097Y-47477958D01*
X105422415Y-47207549D01*
X105204866Y-46990000D01*
X105422415Y-46772451D01*
X105603097Y-46502042D01*
X105727553Y-46201579D01*
X105791000Y-45882609D01*
X105791000Y-45557391D01*
X105727553Y-45238421D01*
X105603097Y-44937958D01*
X105422415Y-44667549D01*
X105204866Y-44450000D01*
X105422415Y-44232451D01*
X105603097Y-43962042D01*
X105727553Y-43661579D01*
X105729856Y-43650000D01*
X107781928Y-43650000D01*
X107785000Y-44164250D01*
X107943750Y-44323000D01*
X109093000Y-44323000D01*
X109093000Y-43173750D01*
X108934250Y-43015000D01*
X108420000Y-43011928D01*
X108295518Y-43024188D01*
X108175820Y-43060498D01*
X108065506Y-43119463D01*
X107968815Y-43198815D01*
X107889463Y-43295506D01*
X107830498Y-43405820D01*
X107794188Y-43525518D01*
X107781928Y-43650000D01*
X105729856Y-43650000D01*
X105791000Y-43342609D01*
X105791000Y-43017391D01*
X105727553Y-42698421D01*
X105603097Y-42397958D01*
X105422415Y-42127549D01*
X105192451Y-41897585D01*
X104922042Y-41716903D01*
X104621579Y-41592447D01*
X104302609Y-41529000D01*
X103977391Y-41529000D01*
X103658421Y-41592447D01*
X103357958Y-41716903D01*
X103087549Y-41897585D01*
X102857585Y-42127549D01*
X102676903Y-42397958D01*
X102552447Y-42698421D01*
X102489000Y-43017391D01*
X99820000Y-43017391D01*
X99820000Y-41947322D01*
X99823676Y-41910000D01*
X99820000Y-41872677D01*
X99820000Y-41872667D01*
X99809003Y-41761014D01*
X99765546Y-41617753D01*
X99756598Y-41601012D01*
X99694974Y-41485723D01*
X99623799Y-41398997D01*
X99600001Y-41369999D01*
X99571002Y-41346201D01*
X98803813Y-40579012D01*
X98780011Y-40550009D01*
X98664286Y-40455036D01*
X98532257Y-40384464D01*
X98388996Y-40341007D01*
X98277343Y-40330010D01*
X98277332Y-40330010D01*
X98240010Y-40326334D01*
X98202688Y-40330010D01*
X93567312Y-40330010D01*
X93529990Y-40326334D01*
X93492667Y-40330010D01*
X93492657Y-40330010D01*
X93381004Y-40341007D01*
X93237743Y-40384464D01*
X93105713Y-40455036D01*
X93022073Y-40523678D01*
X92989989Y-40550009D01*
X92966191Y-40579008D01*
X92199002Y-41346197D01*
X92169999Y-41369999D01*
X92114871Y-41437174D01*
X92075026Y-41485724D01*
X92027575Y-41574498D01*
X92004454Y-41617754D01*
X91960997Y-41761015D01*
X91950000Y-41872668D01*
X91950000Y-41872678D01*
X91946324Y-41910000D01*
X91950000Y-41947323D01*
X91950000Y-41961957D01*
X91795241Y-42065363D01*
X91595363Y-42265241D01*
X91438320Y-42500273D01*
X91330147Y-42761426D01*
X91275000Y-43038665D01*
X91275000Y-43321335D01*
X91330147Y-43598574D01*
X91438320Y-43859727D01*
X91595363Y-44094759D01*
X91795241Y-44294637D01*
X92027759Y-44450000D01*
X91795241Y-44605363D01*
X91595363Y-44805241D01*
X91438320Y-45040273D01*
X91330147Y-45301426D01*
X91275000Y-45578665D01*
X91275000Y-45861335D01*
X91330147Y-46138574D01*
X91438320Y-46399727D01*
X91595363Y-46634759D01*
X91795241Y-46834637D01*
X92027759Y-46990000D01*
X91795241Y-47145363D01*
X91595363Y-47345241D01*
X91438320Y-47580273D01*
X91330147Y-47841426D01*
X91275000Y-48118665D01*
X91275000Y-48401335D01*
X91330147Y-48678574D01*
X91438320Y-48939727D01*
X91595363Y-49174759D01*
X91795241Y-49374637D01*
X92027759Y-49530000D01*
X91795241Y-49685363D01*
X91595363Y-49885241D01*
X91438320Y-50120273D01*
X91330147Y-50381426D01*
X91275000Y-50658665D01*
X91275000Y-50941335D01*
X91330147Y-51218574D01*
X91438320Y-51479727D01*
X91595363Y-51714759D01*
X91795241Y-51914637D01*
X92027759Y-52070000D01*
X91795241Y-52225363D01*
X91595363Y-52425241D01*
X91438320Y-52660273D01*
X91330147Y-52921426D01*
X91275000Y-53198665D01*
X91275000Y-53481335D01*
X91330147Y-53758574D01*
X91438320Y-54019727D01*
X91595363Y-54254759D01*
X91795241Y-54454637D01*
X92027759Y-54610000D01*
X91795241Y-54765363D01*
X91595363Y-54965241D01*
X91438320Y-55200273D01*
X91330147Y-55461426D01*
X91275000Y-55738665D01*
X91275000Y-56021335D01*
X91330147Y-56298574D01*
X91438320Y-56559727D01*
X91595363Y-56794759D01*
X91795241Y-56994637D01*
X92027759Y-57150000D01*
X91795241Y-57305363D01*
X91595363Y-57505241D01*
X91438320Y-57740273D01*
X91330147Y-58001426D01*
X91275000Y-58278665D01*
X91275000Y-58561335D01*
X91330147Y-58838574D01*
X91438320Y-59099727D01*
X91595363Y-59334759D01*
X91795241Y-59534637D01*
X92027759Y-59690000D01*
X91795241Y-59845363D01*
X91595363Y-60045241D01*
X91438320Y-60280273D01*
X91330147Y-60541426D01*
X91275000Y-60818665D01*
X91275000Y-61101335D01*
X91330147Y-61378574D01*
X91368017Y-61470000D01*
X87944802Y-61470000D01*
X87120000Y-60645199D01*
X87120000Y-47902320D01*
X87123676Y-47864997D01*
X87120000Y-47827674D01*
X87120000Y-47827665D01*
X87109003Y-47716012D01*
X87065546Y-47572751D01*
X87042695Y-47530001D01*
X86994974Y-47440721D01*
X86923799Y-47353995D01*
X86900001Y-47324997D01*
X86871004Y-47301200D01*
X86204600Y-46634796D01*
X86204637Y-46634759D01*
X86361680Y-46399727D01*
X86469853Y-46138574D01*
X86525000Y-45861335D01*
X86525000Y-45578665D01*
X86469853Y-45301426D01*
X86361680Y-45040273D01*
X86204637Y-44805241D01*
X86006039Y-44606643D01*
X86014482Y-44605812D01*
X86134180Y-44569502D01*
X86244494Y-44510537D01*
X86341185Y-44431185D01*
X86420537Y-44334494D01*
X86479502Y-44224180D01*
X86515812Y-44104482D01*
X86528072Y-43980000D01*
X86525000Y-43465750D01*
X86366250Y-43307000D01*
X85217000Y-43307000D01*
X85217000Y-43327000D01*
X84963000Y-43327000D01*
X84963000Y-43307000D01*
X83813750Y-43307000D01*
X83655000Y-43465750D01*
X83651928Y-43980000D01*
X83664188Y-44104482D01*
X83700498Y-44224180D01*
X83759463Y-44334494D01*
X83838815Y-44431185D01*
X83935506Y-44510537D01*
X84045820Y-44569502D01*
X84165518Y-44605812D01*
X84173961Y-44606643D01*
X83977703Y-44802901D01*
X83258803Y-44084001D01*
X83235000Y-44054998D01*
X83119275Y-43960025D01*
X82987246Y-43889453D01*
X82843985Y-43845996D01*
X82732332Y-43834999D01*
X82732321Y-43834999D01*
X82694999Y-43831323D01*
X82657677Y-43834999D01*
X82561923Y-43834999D01*
X82659853Y-43598574D01*
X82715000Y-43321335D01*
X82715000Y-43038665D01*
X82659853Y-42761426D01*
X82551680Y-42500273D01*
X82471317Y-42380000D01*
X83651928Y-42380000D01*
X83655000Y-42894250D01*
X83813750Y-43053000D01*
X84963000Y-43053000D01*
X84963000Y-41903750D01*
X85217000Y-41903750D01*
X85217000Y-43053000D01*
X86366250Y-43053000D01*
X86525000Y-42894250D01*
X86528072Y-42380000D01*
X86515812Y-42255518D01*
X86479502Y-42135820D01*
X86420537Y-42025506D01*
X86341185Y-41928815D01*
X86244494Y-41849463D01*
X86134180Y-41790498D01*
X86014482Y-41754188D01*
X85890000Y-41741928D01*
X85375750Y-41745000D01*
X85217000Y-41903750D01*
X84963000Y-41903750D01*
X84804250Y-41745000D01*
X84290000Y-41741928D01*
X84165518Y-41754188D01*
X84045820Y-41790498D01*
X83935506Y-41849463D01*
X83838815Y-41928815D01*
X83759463Y-42025506D01*
X83700498Y-42135820D01*
X83664188Y-42255518D01*
X83651928Y-42380000D01*
X82471317Y-42380000D01*
X82394637Y-42265241D01*
X82194759Y-42065363D01*
X81959727Y-41908320D01*
X81698574Y-41800147D01*
X81421335Y-41745000D01*
X81138665Y-41745000D01*
X80861426Y-41800147D01*
X80600273Y-41908320D01*
X80365241Y-42065363D01*
X80165363Y-42265241D01*
X80008320Y-42500273D01*
X79900147Y-42761426D01*
X79845000Y-43038665D01*
X79845000Y-43321335D01*
X79900147Y-43598574D01*
X79998077Y-43834999D01*
X75097206Y-43834999D01*
X75095000Y-43465750D01*
X74936250Y-43307000D01*
X73787000Y-43307000D01*
X73787000Y-43327000D01*
X73533000Y-43327000D01*
X73533000Y-43307000D01*
X72383750Y-43307000D01*
X72225000Y-43465750D01*
X72221928Y-43980000D01*
X72234188Y-44104482D01*
X72270498Y-44224180D01*
X72329463Y-44334494D01*
X72408815Y-44431185D01*
X72505506Y-44510537D01*
X72615820Y-44569502D01*
X72735518Y-44605812D01*
X72743961Y-44606643D01*
X72545363Y-44805241D01*
X72441957Y-44960000D01*
X70068072Y-44960000D01*
X70068072Y-44870000D01*
X70055812Y-44745518D01*
X70019502Y-44625820D01*
X69960537Y-44515506D01*
X69881185Y-44418815D01*
X69784494Y-44339463D01*
X69674180Y-44280498D01*
X69554482Y-44244188D01*
X69430000Y-44231928D01*
X67730000Y-44231928D01*
X67605518Y-44244188D01*
X67485820Y-44280498D01*
X67437000Y-44306593D01*
X67437000Y-42380000D01*
X72221928Y-42380000D01*
X72225000Y-42894250D01*
X72383750Y-43053000D01*
X73533000Y-43053000D01*
X73533000Y-41903750D01*
X73787000Y-41903750D01*
X73787000Y-43053000D01*
X74936250Y-43053000D01*
X75095000Y-42894250D01*
X75098072Y-42380000D01*
X75085812Y-42255518D01*
X75049502Y-42135820D01*
X74990537Y-42025506D01*
X74911185Y-41928815D01*
X74814494Y-41849463D01*
X74704180Y-41790498D01*
X74584482Y-41754188D01*
X74460000Y-41741928D01*
X73945750Y-41745000D01*
X73787000Y-41903750D01*
X73533000Y-41903750D01*
X73374250Y-41745000D01*
X72860000Y-41741928D01*
X72735518Y-41754188D01*
X72615820Y-41790498D01*
X72505506Y-41849463D01*
X72408815Y-41928815D01*
X72329463Y-42025506D01*
X72270498Y-42135820D01*
X72234188Y-42255518D01*
X72221928Y-42380000D01*
X67437000Y-42380000D01*
X67437000Y-40362702D01*
X75426903Y-40362702D01*
X75498486Y-40606671D01*
X75753996Y-40727571D01*
X76028184Y-40796300D01*
X76310512Y-40810217D01*
X76590130Y-40768787D01*
X76856292Y-40673603D01*
X76981514Y-40606671D01*
X77053097Y-40362702D01*
X76240000Y-39549605D01*
X75426903Y-40362702D01*
X67437000Y-40362702D01*
X67437000Y-39440512D01*
X74799783Y-39440512D01*
X74841213Y-39720130D01*
X74936397Y-39986292D01*
X75003329Y-40111514D01*
X75247298Y-40183097D01*
X76060395Y-39370000D01*
X75247298Y-38556903D01*
X75003329Y-38628486D01*
X74882429Y-38883996D01*
X74813700Y-39158184D01*
X74799783Y-39440512D01*
X67437000Y-39440512D01*
X67437000Y-38227000D01*
X75471002Y-38227000D01*
X75426903Y-38377298D01*
G36*
X84593701Y-86871003D02*
G01*
X84617499Y-86900001D01*
X84646497Y-86923799D01*
X84733223Y-86994974D01*
X84865253Y-87065546D01*
X84920672Y-87082357D01*
X85033655Y-87293734D01*
X85232037Y-87535463D01*
X85473765Y-87733845D01*
X85600000Y-87801319D01*
X85600001Y-90132668D01*
X85596324Y-90170000D01*
X85600001Y-90207333D01*
X85610998Y-90318986D01*
X85615856Y-90335000D01*
X85654454Y-90462246D01*
X85725026Y-90594276D01*
X85772054Y-90651579D01*
X85820000Y-90710001D01*
X85848998Y-90733799D01*
X88968198Y-93853000D01*
X74659899Y-93853000D01*
X74862550Y-93650349D01*
X75123560Y-93259721D01*
X75303346Y-92825679D01*
X75395000Y-92364902D01*
X75395000Y-91895098D01*
X75303346Y-91434321D01*
X75123560Y-91000279D01*
X74862550Y-90609651D01*
X74530349Y-90277450D01*
X74139721Y-90016440D01*
X73894823Y-89915000D01*
X74235053Y-89915000D01*
X74676510Y-89827189D01*
X75092353Y-89654941D01*
X75129679Y-89630000D01*
X77371928Y-89630000D01*
X77384188Y-89754482D01*
X77420498Y-89874180D01*
X77479463Y-89984494D01*
X77558815Y-90081185D01*
X77655506Y-90160537D01*
X77765820Y-90219502D01*
X77885518Y-90255812D01*
X78010000Y-90268072D01*
X79724250Y-90265000D01*
X79883000Y-90106250D01*
X79883000Y-87757000D01*
X80137000Y-87757000D01*
X80137000Y-90106250D01*
X80295750Y-90265000D01*
X82010000Y-90268072D01*
X82134482Y-90255812D01*
X82254180Y-90219502D01*
X82364494Y-90160537D01*
X82461185Y-90081185D01*
X82540537Y-89984494D01*
X82599502Y-89874180D01*
X82635812Y-89754482D01*
X82648072Y-89630000D01*
X82645000Y-87915750D01*
X82486250Y-87757000D01*
X80137000Y-87757000D01*
X79883000Y-87757000D01*
X77533750Y-87757000D01*
X77375000Y-87915750D01*
X77371928Y-89630000D01*
X75129679Y-89630000D01*
X75466603Y-89404875D01*
X75784875Y-89086603D01*
X76034941Y-88712353D01*
X76207189Y-88296510D01*
X76295000Y-87855053D01*
X76295000Y-87404947D01*
X76207189Y-86963490D01*
X76034941Y-86547647D01*
X75784875Y-86173397D01*
X75466603Y-85855125D01*
X75129680Y-85630000D01*
X77371928Y-85630000D01*
X77375000Y-87344250D01*
X77533750Y-87503000D01*
X79883000Y-87503000D01*
X79883000Y-85153750D01*
X80137000Y-85153750D01*
X80137000Y-87503000D01*
X82486250Y-87503000D01*
X82645000Y-87344250D01*
X82648072Y-85630000D01*
X82635812Y-85505518D01*
X82599502Y-85385820D01*
X82540537Y-85275506D01*
X82461185Y-85178815D01*
X82364494Y-85099463D01*
X82254180Y-85040498D01*
X82134482Y-85004188D01*
X82010000Y-84991928D01*
X80295750Y-84995000D01*
X80137000Y-85153750D01*
X79883000Y-85153750D01*
X79724250Y-84995000D01*
X78010000Y-84991928D01*
X77885518Y-85004188D01*
X77765820Y-85040498D01*
X77655506Y-85099463D01*
X77558815Y-85178815D01*
X77479463Y-85275506D01*
X77420498Y-85385820D01*
X77384188Y-85505518D01*
X77371928Y-85630000D01*
X75129680Y-85630000D01*
X75092353Y-85605059D01*
X74676510Y-85432811D01*
X74235053Y-85345000D01*
X73894823Y-85345000D01*
X74139721Y-85243560D01*
X74530349Y-84982550D01*
X74862550Y-84650349D01*
X75123560Y-84259721D01*
X75303346Y-83825679D01*
X75395000Y-83364902D01*
X75395000Y-82895098D01*
X75303346Y-82434321D01*
X75140013Y-82040000D01*
X79762699Y-82040000D01*
X84593701Y-86871003D01*
G37*
X84593701Y-86871003D02*
X84617499Y-86900001D01*
X84646497Y-86923799D01*
X84733223Y-86994974D01*
X84865253Y-87065546D01*
X84920672Y-87082357D01*
X85033655Y-87293734D01*
X85232037Y-87535463D01*
X85473765Y-87733845D01*
X85600000Y-87801319D01*
X85600001Y-90132668D01*
X85596324Y-90170000D01*
X85600001Y-90207333D01*
X85610998Y-90318986D01*
X85615856Y-90335000D01*
X85654454Y-90462246D01*
X85725026Y-90594276D01*
X85772054Y-90651579D01*
X85820000Y-90710001D01*
X85848998Y-90733799D01*
X88968198Y-93853000D01*
X74659899Y-93853000D01*
X74862550Y-93650349D01*
X75123560Y-93259721D01*
X75303346Y-92825679D01*
X75395000Y-92364902D01*
X75395000Y-91895098D01*
X75303346Y-91434321D01*
X75123560Y-91000279D01*
X74862550Y-90609651D01*
X74530349Y-90277450D01*
X74139721Y-90016440D01*
X73894823Y-89915000D01*
X74235053Y-89915000D01*
X74676510Y-89827189D01*
X75092353Y-89654941D01*
X75129679Y-89630000D01*
X77371928Y-89630000D01*
X77384188Y-89754482D01*
X77420498Y-89874180D01*
X77479463Y-89984494D01*
X77558815Y-90081185D01*
X77655506Y-90160537D01*
X77765820Y-90219502D01*
X77885518Y-90255812D01*
X78010000Y-90268072D01*
X79724250Y-90265000D01*
X79883000Y-90106250D01*
X79883000Y-87757000D01*
X80137000Y-87757000D01*
X80137000Y-90106250D01*
X80295750Y-90265000D01*
X82010000Y-90268072D01*
X82134482Y-90255812D01*
X82254180Y-90219502D01*
X82364494Y-90160537D01*
X82461185Y-90081185D01*
X82540537Y-89984494D01*
X82599502Y-89874180D01*
X82635812Y-89754482D01*
X82648072Y-89630000D01*
X82645000Y-87915750D01*
X82486250Y-87757000D01*
X80137000Y-87757000D01*
X79883000Y-87757000D01*
X77533750Y-87757000D01*
X77375000Y-87915750D01*
X77371928Y-89630000D01*
X75129679Y-89630000D01*
X75466603Y-89404875D01*
X75784875Y-89086603D01*
X76034941Y-88712353D01*
X76207189Y-88296510D01*
X76295000Y-87855053D01*
X76295000Y-87404947D01*
X76207189Y-86963490D01*
X76034941Y-86547647D01*
X75784875Y-86173397D01*
X75466603Y-85855125D01*
X75129680Y-85630000D01*
X77371928Y-85630000D01*
X77375000Y-87344250D01*
X77533750Y-87503000D01*
X79883000Y-87503000D01*
X79883000Y-85153750D01*
X80137000Y-85153750D01*
X80137000Y-87503000D01*
X82486250Y-87503000D01*
X82645000Y-87344250D01*
X82648072Y-85630000D01*
X82635812Y-85505518D01*
X82599502Y-85385820D01*
X82540537Y-85275506D01*
X82461185Y-85178815D01*
X82364494Y-85099463D01*
X82254180Y-85040498D01*
X82134482Y-85004188D01*
X82010000Y-84991928D01*
X80295750Y-84995000D01*
X80137000Y-85153750D01*
X79883000Y-85153750D01*
X79724250Y-84995000D01*
X78010000Y-84991928D01*
X77885518Y-85004188D01*
X77765820Y-85040498D01*
X77655506Y-85099463D01*
X77558815Y-85178815D01*
X77479463Y-85275506D01*
X77420498Y-85385820D01*
X77384188Y-85505518D01*
X77371928Y-85630000D01*
X75129680Y-85630000D01*
X75092353Y-85605059D01*
X74676510Y-85432811D01*
X74235053Y-85345000D01*
X73894823Y-85345000D01*
X74139721Y-85243560D01*
X74530349Y-84982550D01*
X74862550Y-84650349D01*
X75123560Y-84259721D01*
X75303346Y-83825679D01*
X75395000Y-83364902D01*
X75395000Y-82895098D01*
X75303346Y-82434321D01*
X75140013Y-82040000D01*
X79762699Y-82040000D01*
X84593701Y-86871003D01*
G36*
X98300001Y-42224803D02*
G01*
X98300000Y-91839880D01*
X98050118Y-92089762D01*
X97983097Y-91927958D01*
X97802415Y-91657549D01*
X97584866Y-91440000D01*
X97802415Y-91222451D01*
X97983097Y-90952042D01*
X98107553Y-90651579D01*
X98171000Y-90332609D01*
X98171000Y-90007391D01*
X98107553Y-89688421D01*
X97983097Y-89387958D01*
X97802415Y-89117549D01*
X97584866Y-88900000D01*
X97802415Y-88682451D01*
X97983097Y-88412042D01*
X98107553Y-88111579D01*
X98171000Y-87792609D01*
X98171000Y-87467391D01*
X98107553Y-87148421D01*
X97983097Y-86847958D01*
X97802415Y-86577549D01*
X97584866Y-86360000D01*
X97802415Y-86142451D01*
X97983097Y-85872042D01*
X98107553Y-85571579D01*
X98171000Y-85252609D01*
X98171000Y-84927391D01*
X98107553Y-84608421D01*
X97983097Y-84307958D01*
X97802415Y-84037549D01*
X97584866Y-83820000D01*
X97802415Y-83602451D01*
X97983097Y-83332042D01*
X98107553Y-83031579D01*
X98171000Y-82712609D01*
X98171000Y-82387391D01*
X98107553Y-82068421D01*
X97983097Y-81767958D01*
X97802415Y-81497549D01*
X97584866Y-81280000D01*
X97802415Y-81062451D01*
X97983097Y-80792042D01*
X98107553Y-80491579D01*
X98171000Y-80172609D01*
X98171000Y-79847391D01*
X98107553Y-79528421D01*
X97983097Y-79227958D01*
X97802415Y-78957549D01*
X97584866Y-78740000D01*
X97802415Y-78522451D01*
X97983097Y-78252042D01*
X98107553Y-77951579D01*
X98171000Y-77632609D01*
X98171000Y-77307391D01*
X98107553Y-76988421D01*
X97983097Y-76687958D01*
X97802415Y-76417549D01*
X97584866Y-76200000D01*
X97802415Y-75982451D01*
X97983097Y-75712042D01*
X98107553Y-75411579D01*
X98171000Y-75092609D01*
X98171000Y-74767391D01*
X98107553Y-74448421D01*
X97983097Y-74147958D01*
X97802415Y-73877549D01*
X97584866Y-73660000D01*
X97802415Y-73442451D01*
X97983097Y-73172042D01*
X98107553Y-72871579D01*
X98171000Y-72552609D01*
X98171000Y-72227391D01*
X98107553Y-71908421D01*
X97983097Y-71607958D01*
X97854636Y-71415704D01*
X97890494Y-71396537D01*
X97987185Y-71317185D01*
X98066537Y-71220494D01*
X98125502Y-71110180D01*
X98161812Y-70990482D01*
X98174072Y-70866000D01*
X98174072Y-68834000D01*
X98161812Y-68709518D01*
X98125502Y-68589820D01*
X98066537Y-68479506D01*
X97987185Y-68382815D01*
X97890494Y-68303463D01*
X97780180Y-68244498D01*
X97660482Y-68208188D01*
X97536000Y-68195928D01*
X95504000Y-68195928D01*
X95379518Y-68208188D01*
X95259820Y-68244498D01*
X95149506Y-68303463D01*
X95052815Y-68382815D01*
X94973463Y-68479506D01*
X94914498Y-68589820D01*
X94878188Y-68709518D01*
X94865928Y-68834000D01*
X94865928Y-70866000D01*
X94878188Y-70990482D01*
X94914498Y-71110180D01*
X94973463Y-71220494D01*
X95052815Y-71317185D01*
X95149506Y-71396537D01*
X95185364Y-71415704D01*
X95056903Y-71607958D01*
X94932447Y-71908421D01*
X94869000Y-72227391D01*
X94869000Y-72552609D01*
X94932447Y-72871579D01*
X95056903Y-73172042D01*
X95237585Y-73442451D01*
X95455134Y-73660000D01*
X95237585Y-73877549D01*
X95056903Y-74147958D01*
X94932447Y-74448421D01*
X94869000Y-74767391D01*
X94869000Y-75092609D01*
X94932447Y-75411579D01*
X95056903Y-75712042D01*
X95237585Y-75982451D01*
X95455134Y-76200000D01*
X95237585Y-76417549D01*
X95056903Y-76687958D01*
X94932447Y-76988421D01*
X94869000Y-77307391D01*
X94869000Y-77632609D01*
X94932447Y-77951579D01*
X95056903Y-78252042D01*
X95237585Y-78522451D01*
X95455134Y-78740000D01*
X95237585Y-78957549D01*
X95056903Y-79227958D01*
X94932447Y-79528421D01*
X94869000Y-79847391D01*
X94869000Y-80172609D01*
X94932447Y-80491579D01*
X95056903Y-80792042D01*
X95237585Y-81062451D01*
X95455134Y-81280000D01*
X95237585Y-81497549D01*
X95056903Y-81767958D01*
X94932447Y-82068421D01*
X94869000Y-82387391D01*
X94869000Y-82712609D01*
X94932447Y-83031579D01*
X95056903Y-83332042D01*
X95237585Y-83602451D01*
X95455134Y-83820000D01*
X95237585Y-84037549D01*
X95056903Y-84307958D01*
X94932447Y-84608421D01*
X94869000Y-84927391D01*
X94869000Y-85252609D01*
X94932447Y-85571579D01*
X95056903Y-85872042D01*
X95237585Y-86142451D01*
X95455134Y-86360000D01*
X95237585Y-86577549D01*
X95056903Y-86847958D01*
X94932447Y-87148421D01*
X94869000Y-87467391D01*
X94869000Y-87792609D01*
X94932447Y-88111579D01*
X95056903Y-88412042D01*
X95237585Y-88682451D01*
X95455134Y-88900000D01*
X95237585Y-89117549D01*
X95056903Y-89387958D01*
X94932447Y-89688421D01*
X94869000Y-90007391D01*
X94869000Y-90332609D01*
X94932447Y-90651579D01*
X95056903Y-90952042D01*
X95237585Y-91222451D01*
X95455134Y-91440000D01*
X95237585Y-91657549D01*
X95056903Y-91927958D01*
X94932447Y-92228421D01*
X94869000Y-92547391D01*
X94869000Y-92872609D01*
X94932447Y-93191579D01*
X94973629Y-93291001D01*
X90555803Y-93291001D01*
X87120000Y-89855199D01*
X87120000Y-87801318D01*
X87246234Y-87733845D01*
X87487963Y-87535463D01*
X87635163Y-87356101D01*
X87790563Y-87541315D01*
X88033077Y-87735969D01*
X88308906Y-87879571D01*
X88527020Y-87950563D01*
X88773000Y-87830594D01*
X88773000Y-86487000D01*
X88753000Y-86487000D01*
X88753000Y-86233000D01*
X88773000Y-86233000D01*
X88773000Y-84889406D01*
X88527020Y-84769437D01*
X88308906Y-84840429D01*
X88033077Y-84984031D01*
X87790563Y-85178685D01*
X87635162Y-85363900D01*
X87487963Y-85184537D01*
X87246235Y-84986155D01*
X86970449Y-84838745D01*
X86671204Y-84747970D01*
X86360000Y-84717319D01*
X86048797Y-84747970D01*
X85749552Y-84838745D01*
X85473766Y-84986155D01*
X85232037Y-85184537D01*
X85153065Y-85280764D01*
X80641304Y-80769003D01*
X80617501Y-80739999D01*
X80501776Y-80645026D01*
X80369747Y-80574454D01*
X80226486Y-80530997D01*
X80114833Y-80520000D01*
X80114822Y-80520000D01*
X80077500Y-80516324D01*
X80040178Y-80520000D01*
X74545804Y-80520000D01*
X73150000Y-79124197D01*
X73150000Y-78034622D01*
X73235724Y-78104974D01*
X73367753Y-78175546D01*
X73511014Y-78219003D01*
X73622667Y-78230000D01*
X73622676Y-78230000D01*
X73659999Y-78233676D01*
X73697322Y-78230000D01*
X74615199Y-78230000D01*
X74886355Y-78501156D01*
X74865000Y-78608514D01*
X74865000Y-78871486D01*
X74916304Y-79129405D01*
X75016939Y-79372359D01*
X75163038Y-79591013D01*
X75348987Y-79776962D01*
X75567641Y-79923061D01*
X75810595Y-80023696D01*
X76068514Y-80075000D01*
X76331486Y-80075000D01*
X76589405Y-80023696D01*
X76832359Y-79923061D01*
X77051013Y-79776962D01*
X77236962Y-79591013D01*
X77383061Y-79372359D01*
X77483696Y-79129405D01*
X77535000Y-78871486D01*
X77535000Y-78608514D01*
X77483696Y-78350595D01*
X77383061Y-78107641D01*
X77236962Y-77888987D01*
X77051013Y-77703038D01*
X76832359Y-77556939D01*
X76622470Y-77470000D01*
X76832359Y-77383061D01*
X77051013Y-77236962D01*
X77236962Y-77051013D01*
X77383061Y-76832359D01*
X77483696Y-76589405D01*
X77535000Y-76331486D01*
X77535000Y-76068514D01*
X77483696Y-75810595D01*
X77383061Y-75567641D01*
X77236962Y-75348987D01*
X77051013Y-75163038D01*
X76960000Y-75102225D01*
X76960000Y-74420000D01*
X79972678Y-74420000D01*
X80010000Y-74423676D01*
X80047322Y-74420000D01*
X80047333Y-74420000D01*
X80158986Y-74409003D01*
X80302247Y-74365546D01*
X80434276Y-74294974D01*
X80550001Y-74200001D01*
X80573804Y-74170997D01*
X81791003Y-72953799D01*
X81820001Y-72930001D01*
X81914974Y-72814276D01*
X81985546Y-72682247D01*
X82029003Y-72538986D01*
X82040000Y-72427333D01*
X82040000Y-72427324D01*
X82043676Y-72390001D01*
X82040000Y-72352678D01*
X82040000Y-71290000D01*
X83351928Y-71290000D01*
X83351928Y-73490000D01*
X83364188Y-73614482D01*
X83400498Y-73734180D01*
X83459463Y-73844494D01*
X83538815Y-73941185D01*
X83635506Y-74020537D01*
X83745820Y-74079502D01*
X83865518Y-74115812D01*
X83990000Y-74128072D01*
X85755001Y-74128072D01*
X85755002Y-80947502D01*
X85596081Y-80881675D01*
X85260883Y-80815000D01*
X84919117Y-80815000D01*
X84583919Y-80881675D01*
X84268169Y-81012463D01*
X83984002Y-81202337D01*
X83742337Y-81444002D01*
X83552463Y-81728169D01*
X83421675Y-82043919D01*
X83355000Y-82379117D01*
X83355000Y-82720883D01*
X83421675Y-83056081D01*
X83552463Y-83371831D01*
X83742337Y-83655998D01*
X83984002Y-83897663D01*
X84268169Y-84087537D01*
X84583919Y-84218325D01*
X84919117Y-84285000D01*
X85260883Y-84285000D01*
X85596081Y-84218325D01*
X85911831Y-84087537D01*
X86195998Y-83897663D01*
X86437663Y-83655998D01*
X86627537Y-83371831D01*
X86758325Y-83056081D01*
X86825000Y-82720883D01*
X86825000Y-82509800D01*
X87376202Y-83061002D01*
X87400001Y-83090001D01*
X87515726Y-83184974D01*
X87647755Y-83255546D01*
X87791016Y-83299003D01*
X87902669Y-83310000D01*
X87902677Y-83310000D01*
X87940002Y-83313676D01*
X87977327Y-83310000D01*
X89855199Y-83310000D01*
X90680000Y-84134802D01*
X90680000Y-84721928D01*
X90487500Y-84721928D01*
X90363018Y-84734188D01*
X90243320Y-84770498D01*
X90133006Y-84829463D01*
X90036315Y-84908815D01*
X89956963Y-85005506D01*
X89907941Y-85097219D01*
X89766923Y-84984031D01*
X89491094Y-84840429D01*
X89272980Y-84769437D01*
X89027000Y-84889406D01*
X89027000Y-86233000D01*
X89047000Y-86233000D01*
X89047000Y-86487000D01*
X89027000Y-86487000D01*
X89027000Y-87830594D01*
X89272980Y-87950563D01*
X89491094Y-87879571D01*
X89766923Y-87735969D01*
X89907941Y-87622781D01*
X89956963Y-87714494D01*
X90036315Y-87811185D01*
X90133006Y-87890537D01*
X90243320Y-87949502D01*
X90363018Y-87985812D01*
X90487500Y-87998072D01*
X92392500Y-87998072D01*
X92516982Y-87985812D01*
X92636680Y-87949502D01*
X92746994Y-87890537D01*
X92843685Y-87811185D01*
X92923037Y-87714494D01*
X92982002Y-87604180D01*
X93018312Y-87484482D01*
X93030572Y-87360000D01*
X93030572Y-85360000D01*
X93018312Y-85235518D01*
X92982002Y-85115820D01*
X92923037Y-85005506D01*
X92843685Y-84908815D01*
X92746994Y-84829463D01*
X92636680Y-84770498D01*
X92516982Y-84734188D01*
X92392500Y-84721928D01*
X92200000Y-84721928D01*
X92200000Y-83857322D01*
X92203676Y-83819999D01*
X92200000Y-83782676D01*
X92200000Y-83782667D01*
X92189003Y-83671014D01*
X92145546Y-83527753D01*
X92074974Y-83395724D01*
X91980001Y-83279999D01*
X91951004Y-83256202D01*
X90733804Y-82039003D01*
X90710001Y-82009999D01*
X90594276Y-81915026D01*
X90462247Y-81844454D01*
X90318986Y-81800997D01*
X90207333Y-81790000D01*
X90207322Y-81790000D01*
X90170000Y-81786324D01*
X90132678Y-81790000D01*
X88254804Y-81790000D01*
X87275001Y-80810198D01*
X87275001Y-72502323D01*
X87278677Y-72465000D01*
X87275001Y-72427678D01*
X87275001Y-72427668D01*
X87264004Y-72316015D01*
X87220547Y-72172754D01*
X87149975Y-72040725D01*
X87055002Y-71925000D01*
X87026003Y-71901201D01*
X87003802Y-71879000D01*
X86980001Y-71849999D01*
X86864276Y-71755026D01*
X86828072Y-71735674D01*
X86828072Y-71290000D01*
X86815812Y-71165518D01*
X86779502Y-71045820D01*
X86720537Y-70935506D01*
X86641185Y-70838815D01*
X86544494Y-70759463D01*
X86434180Y-70700498D01*
X86314482Y-70664188D01*
X86190000Y-70651928D01*
X83990000Y-70651928D01*
X83865518Y-70664188D01*
X83745820Y-70700498D01*
X83635506Y-70759463D01*
X83538815Y-70838815D01*
X83459463Y-70935506D01*
X83400498Y-71045820D01*
X83364188Y-71165518D01*
X83351928Y-71290000D01*
X82040000Y-71290000D01*
X82040000Y-67258043D01*
X82194759Y-67154637D01*
X82394637Y-66954759D01*
X82551680Y-66719727D01*
X82659853Y-66458574D01*
X82673684Y-66389039D01*
X83698096Y-66389039D01*
X83738754Y-66523087D01*
X83858963Y-66777420D01*
X84026481Y-67003414D01*
X84234869Y-67192385D01*
X84476119Y-67337070D01*
X84740960Y-67431909D01*
X84963000Y-67310624D01*
X84963000Y-66167000D01*
X85217000Y-66167000D01*
X85217000Y-67310624D01*
X85439040Y-67431909D01*
X85703881Y-67337070D01*
X85945131Y-67192385D01*
X86153519Y-67003414D01*
X86321037Y-66777420D01*
X86441246Y-66523087D01*
X86481904Y-66389039D01*
X86359915Y-66167000D01*
X85217000Y-66167000D01*
X84963000Y-66167000D01*
X83820085Y-66167000D01*
X83698096Y-66389039D01*
X82673684Y-66389039D01*
X82715000Y-66181335D01*
X82715000Y-65898665D01*
X82659853Y-65621426D01*
X82621983Y-65530000D01*
X83751474Y-65530000D01*
X83738754Y-65556913D01*
X83698096Y-65690961D01*
X83820085Y-65913000D01*
X84963000Y-65913000D01*
X84963000Y-65893000D01*
X85217000Y-65893000D01*
X85217000Y-65913000D01*
X86359915Y-65913000D01*
X86384128Y-65868929D01*
X87066200Y-66551002D01*
X87089999Y-66580001D01*
X87205724Y-66674974D01*
X87337753Y-66745546D01*
X87481014Y-66789003D01*
X87592667Y-66800000D01*
X87592676Y-66800000D01*
X87629999Y-66803676D01*
X87667322Y-66800000D01*
X91491957Y-66800000D01*
X91595363Y-66954759D01*
X91795241Y-67154637D01*
X92030273Y-67311680D01*
X92291426Y-67419853D01*
X92568665Y-67475000D01*
X92851335Y-67475000D01*
X93128574Y-67419853D01*
X93389727Y-67311680D01*
X93624759Y-67154637D01*
X93824637Y-66954759D01*
X93981680Y-66719727D01*
X94089853Y-66458574D01*
X94145000Y-66181335D01*
X94145000Y-65898665D01*
X94089853Y-65621426D01*
X93981680Y-65360273D01*
X93824637Y-65125241D01*
X93624759Y-64925363D01*
X93392241Y-64770000D01*
X93624759Y-64614637D01*
X93824637Y-64414759D01*
X93981680Y-64179727D01*
X94089853Y-63918574D01*
X94145000Y-63641335D01*
X94145000Y-63358665D01*
X94089853Y-63081426D01*
X94051983Y-62990000D01*
X94935199Y-62990000D01*
X94941577Y-62996379D01*
X94932447Y-63018421D01*
X94869000Y-63337391D01*
X94869000Y-63662609D01*
X94932447Y-63981579D01*
X95056903Y-64282042D01*
X95237585Y-64552451D01*
X95455134Y-64770000D01*
X95237585Y-64987549D01*
X95056903Y-65257958D01*
X94932447Y-65558421D01*
X94869000Y-65877391D01*
X94869000Y-66202609D01*
X94932447Y-66521579D01*
X95056903Y-66822042D01*
X95237585Y-67092451D01*
X95467549Y-67322415D01*
X95737958Y-67503097D01*
X96038421Y-67627553D01*
X96357391Y-67691000D01*
X96682609Y-67691000D01*
X97001579Y-67627553D01*
X97302042Y-67503097D01*
X97572451Y-67322415D01*
X97802415Y-67092451D01*
X97983097Y-66822042D01*
X98107553Y-66521579D01*
X98171000Y-66202609D01*
X98171000Y-65877391D01*
X98107553Y-65558421D01*
X97983097Y-65257958D01*
X97802415Y-64987549D01*
X97584866Y-64770000D01*
X97802415Y-64552451D01*
X97983097Y-64282042D01*
X98107553Y-63981579D01*
X98171000Y-63662609D01*
X98171000Y-63337391D01*
X98107553Y-63018421D01*
X97983097Y-62717958D01*
X97802415Y-62447549D01*
X97584866Y-62230000D01*
X97802415Y-62012451D01*
X97983097Y-61742042D01*
X98107553Y-61441579D01*
X98171000Y-61122609D01*
X98171000Y-60797391D01*
X98107553Y-60478421D01*
X97983097Y-60177958D01*
X97802415Y-59907549D01*
X97584866Y-59690000D01*
X97802415Y-59472451D01*
X97983097Y-59202042D01*
X98107553Y-58901579D01*
X98171000Y-58582609D01*
X98171000Y-58257391D01*
X98107553Y-57938421D01*
X97983097Y-57637958D01*
X97802415Y-57367549D01*
X97584866Y-57150000D01*
X97802415Y-56932451D01*
X97983097Y-56662042D01*
X98107553Y-56361579D01*
X98171000Y-56042609D01*
X98171000Y-55717391D01*
X98107553Y-55398421D01*
X97983097Y-55097958D01*
X97802415Y-54827549D01*
X97584866Y-54610000D01*
X97802415Y-54392451D01*
X97983097Y-54122042D01*
X98107553Y-53821579D01*
X98171000Y-53502609D01*
X98171000Y-53177391D01*
X98107553Y-52858421D01*
X97983097Y-52557958D01*
X97802415Y-52287549D01*
X97584866Y-52070000D01*
X97802415Y-51852451D01*
X97983097Y-51582042D01*
X98107553Y-51281579D01*
X98171000Y-50962609D01*
X98171000Y-50637391D01*
X98107553Y-50318421D01*
X97983097Y-50017958D01*
X97802415Y-49747549D01*
X97584866Y-49530000D01*
X97802415Y-49312451D01*
X97983097Y-49042042D01*
X98107553Y-48741579D01*
X98171000Y-48422609D01*
X98171000Y-48097391D01*
X98107553Y-47778421D01*
X97983097Y-47477958D01*
X97802415Y-47207549D01*
X97584866Y-46990000D01*
X97802415Y-46772451D01*
X97983097Y-46502042D01*
X98107553Y-46201579D01*
X98171000Y-45882609D01*
X98171000Y-45557391D01*
X98107553Y-45238421D01*
X97983097Y-44937958D01*
X97854636Y-44745704D01*
X97890494Y-44726537D01*
X97987185Y-44647185D01*
X98066537Y-44550494D01*
X98125502Y-44440180D01*
X98161812Y-44320482D01*
X98174072Y-44196000D01*
X98174072Y-42164000D01*
X98166957Y-42091759D01*
X98300001Y-42224803D01*
G37*
X98300001Y-42224803D02*
X98300000Y-91839880D01*
X98050118Y-92089762D01*
X97983097Y-91927958D01*
X97802415Y-91657549D01*
X97584866Y-91440000D01*
X97802415Y-91222451D01*
X97983097Y-90952042D01*
X98107553Y-90651579D01*
X98171000Y-90332609D01*
X98171000Y-90007391D01*
X98107553Y-89688421D01*
X97983097Y-89387958D01*
X97802415Y-89117549D01*
X97584866Y-88900000D01*
X97802415Y-88682451D01*
X97983097Y-88412042D01*
X98107553Y-88111579D01*
X98171000Y-87792609D01*
X98171000Y-87467391D01*
X98107553Y-87148421D01*
X97983097Y-86847958D01*
X97802415Y-86577549D01*
X97584866Y-86360000D01*
X97802415Y-86142451D01*
X97983097Y-85872042D01*
X98107553Y-85571579D01*
X98171000Y-85252609D01*
X98171000Y-84927391D01*
X98107553Y-84608421D01*
X97983097Y-84307958D01*
X97802415Y-84037549D01*
X97584866Y-83820000D01*
X97802415Y-83602451D01*
X97983097Y-83332042D01*
X98107553Y-83031579D01*
X98171000Y-82712609D01*
X98171000Y-82387391D01*
X98107553Y-82068421D01*
X97983097Y-81767958D01*
X97802415Y-81497549D01*
X97584866Y-81280000D01*
X97802415Y-81062451D01*
X97983097Y-80792042D01*
X98107553Y-80491579D01*
X98171000Y-80172609D01*
X98171000Y-79847391D01*
X98107553Y-79528421D01*
X97983097Y-79227958D01*
X97802415Y-78957549D01*
X97584866Y-78740000D01*
X97802415Y-78522451D01*
X97983097Y-78252042D01*
X98107553Y-77951579D01*
X98171000Y-77632609D01*
X98171000Y-77307391D01*
X98107553Y-76988421D01*
X97983097Y-76687958D01*
X97802415Y-76417549D01*
X97584866Y-76200000D01*
X97802415Y-75982451D01*
X97983097Y-75712042D01*
X98107553Y-75411579D01*
X98171000Y-75092609D01*
X98171000Y-74767391D01*
X98107553Y-74448421D01*
X97983097Y-74147958D01*
X97802415Y-73877549D01*
X97584866Y-73660000D01*
X97802415Y-73442451D01*
X97983097Y-73172042D01*
X98107553Y-72871579D01*
X98171000Y-72552609D01*
X98171000Y-72227391D01*
X98107553Y-71908421D01*
X97983097Y-71607958D01*
X97854636Y-71415704D01*
X97890494Y-71396537D01*
X97987185Y-71317185D01*
X98066537Y-71220494D01*
X98125502Y-71110180D01*
X98161812Y-70990482D01*
X98174072Y-70866000D01*
X98174072Y-68834000D01*
X98161812Y-68709518D01*
X98125502Y-68589820D01*
X98066537Y-68479506D01*
X97987185Y-68382815D01*
X97890494Y-68303463D01*
X97780180Y-68244498D01*
X97660482Y-68208188D01*
X97536000Y-68195928D01*
X95504000Y-68195928D01*
X95379518Y-68208188D01*
X95259820Y-68244498D01*
X95149506Y-68303463D01*
X95052815Y-68382815D01*
X94973463Y-68479506D01*
X94914498Y-68589820D01*
X94878188Y-68709518D01*
X94865928Y-68834000D01*
X94865928Y-70866000D01*
X94878188Y-70990482D01*
X94914498Y-71110180D01*
X94973463Y-71220494D01*
X95052815Y-71317185D01*
X95149506Y-71396537D01*
X95185364Y-71415704D01*
X95056903Y-71607958D01*
X94932447Y-71908421D01*
X94869000Y-72227391D01*
X94869000Y-72552609D01*
X94932447Y-72871579D01*
X95056903Y-73172042D01*
X95237585Y-73442451D01*
X95455134Y-73660000D01*
X95237585Y-73877549D01*
X95056903Y-74147958D01*
X94932447Y-74448421D01*
X94869000Y-74767391D01*
X94869000Y-75092609D01*
X94932447Y-75411579D01*
X95056903Y-75712042D01*
X95237585Y-75982451D01*
X95455134Y-76200000D01*
X95237585Y-76417549D01*
X95056903Y-76687958D01*
X94932447Y-76988421D01*
X94869000Y-77307391D01*
X94869000Y-77632609D01*
X94932447Y-77951579D01*
X95056903Y-78252042D01*
X95237585Y-78522451D01*
X95455134Y-78740000D01*
X95237585Y-78957549D01*
X95056903Y-79227958D01*
X94932447Y-79528421D01*
X94869000Y-79847391D01*
X94869000Y-80172609D01*
X94932447Y-80491579D01*
X95056903Y-80792042D01*
X95237585Y-81062451D01*
X95455134Y-81280000D01*
X95237585Y-81497549D01*
X95056903Y-81767958D01*
X94932447Y-82068421D01*
X94869000Y-82387391D01*
X94869000Y-82712609D01*
X94932447Y-83031579D01*
X95056903Y-83332042D01*
X95237585Y-83602451D01*
X95455134Y-83820000D01*
X95237585Y-84037549D01*
X95056903Y-84307958D01*
X94932447Y-84608421D01*
X94869000Y-84927391D01*
X94869000Y-85252609D01*
X94932447Y-85571579D01*
X95056903Y-85872042D01*
X95237585Y-86142451D01*
X95455134Y-86360000D01*
X95237585Y-86577549D01*
X95056903Y-86847958D01*
X94932447Y-87148421D01*
X94869000Y-87467391D01*
X94869000Y-87792609D01*
X94932447Y-88111579D01*
X95056903Y-88412042D01*
X95237585Y-88682451D01*
X95455134Y-88900000D01*
X95237585Y-89117549D01*
X95056903Y-89387958D01*
X94932447Y-89688421D01*
X94869000Y-90007391D01*
X94869000Y-90332609D01*
X94932447Y-90651579D01*
X95056903Y-90952042D01*
X95237585Y-91222451D01*
X95455134Y-91440000D01*
X95237585Y-91657549D01*
X95056903Y-91927958D01*
X94932447Y-92228421D01*
X94869000Y-92547391D01*
X94869000Y-92872609D01*
X94932447Y-93191579D01*
X94973629Y-93291001D01*
X90555803Y-93291001D01*
X87120000Y-89855199D01*
X87120000Y-87801318D01*
X87246234Y-87733845D01*
X87487963Y-87535463D01*
X87635163Y-87356101D01*
X87790563Y-87541315D01*
X88033077Y-87735969D01*
X88308906Y-87879571D01*
X88527020Y-87950563D01*
X88773000Y-87830594D01*
X88773000Y-86487000D01*
X88753000Y-86487000D01*
X88753000Y-86233000D01*
X88773000Y-86233000D01*
X88773000Y-84889406D01*
X88527020Y-84769437D01*
X88308906Y-84840429D01*
X88033077Y-84984031D01*
X87790563Y-85178685D01*
X87635162Y-85363900D01*
X87487963Y-85184537D01*
X87246235Y-84986155D01*
X86970449Y-84838745D01*
X86671204Y-84747970D01*
X86360000Y-84717319D01*
X86048797Y-84747970D01*
X85749552Y-84838745D01*
X85473766Y-84986155D01*
X85232037Y-85184537D01*
X85153065Y-85280764D01*
X80641304Y-80769003D01*
X80617501Y-80739999D01*
X80501776Y-80645026D01*
X80369747Y-80574454D01*
X80226486Y-80530997D01*
X80114833Y-80520000D01*
X80114822Y-80520000D01*
X80077500Y-80516324D01*
X80040178Y-80520000D01*
X74545804Y-80520000D01*
X73150000Y-79124197D01*
X73150000Y-78034622D01*
X73235724Y-78104974D01*
X73367753Y-78175546D01*
X73511014Y-78219003D01*
X73622667Y-78230000D01*
X73622676Y-78230000D01*
X73659999Y-78233676D01*
X73697322Y-78230000D01*
X74615199Y-78230000D01*
X74886355Y-78501156D01*
X74865000Y-78608514D01*
X74865000Y-78871486D01*
X74916304Y-79129405D01*
X75016939Y-79372359D01*
X75163038Y-79591013D01*
X75348987Y-79776962D01*
X75567641Y-79923061D01*
X75810595Y-80023696D01*
X76068514Y-80075000D01*
X76331486Y-80075000D01*
X76589405Y-80023696D01*
X76832359Y-79923061D01*
X77051013Y-79776962D01*
X77236962Y-79591013D01*
X77383061Y-79372359D01*
X77483696Y-79129405D01*
X77535000Y-78871486D01*
X77535000Y-78608514D01*
X77483696Y-78350595D01*
X77383061Y-78107641D01*
X77236962Y-77888987D01*
X77051013Y-77703038D01*
X76832359Y-77556939D01*
X76622470Y-77470000D01*
X76832359Y-77383061D01*
X77051013Y-77236962D01*
X77236962Y-77051013D01*
X77383061Y-76832359D01*
X77483696Y-76589405D01*
X77535000Y-76331486D01*
X77535000Y-76068514D01*
X77483696Y-75810595D01*
X77383061Y-75567641D01*
X77236962Y-75348987D01*
X77051013Y-75163038D01*
X76960000Y-75102225D01*
X76960000Y-74420000D01*
X79972678Y-74420000D01*
X80010000Y-74423676D01*
X80047322Y-74420000D01*
X80047333Y-74420000D01*
X80158986Y-74409003D01*
X80302247Y-74365546D01*
X80434276Y-74294974D01*
X80550001Y-74200001D01*
X80573804Y-74170997D01*
X81791003Y-72953799D01*
X81820001Y-72930001D01*
X81914974Y-72814276D01*
X81985546Y-72682247D01*
X82029003Y-72538986D01*
X82040000Y-72427333D01*
X82040000Y-72427324D01*
X82043676Y-72390001D01*
X82040000Y-72352678D01*
X82040000Y-71290000D01*
X83351928Y-71290000D01*
X83351928Y-73490000D01*
X83364188Y-73614482D01*
X83400498Y-73734180D01*
X83459463Y-73844494D01*
X83538815Y-73941185D01*
X83635506Y-74020537D01*
X83745820Y-74079502D01*
X83865518Y-74115812D01*
X83990000Y-74128072D01*
X85755001Y-74128072D01*
X85755002Y-80947502D01*
X85596081Y-80881675D01*
X85260883Y-80815000D01*
X84919117Y-80815000D01*
X84583919Y-80881675D01*
X84268169Y-81012463D01*
X83984002Y-81202337D01*
X83742337Y-81444002D01*
X83552463Y-81728169D01*
X83421675Y-82043919D01*
X83355000Y-82379117D01*
X83355000Y-82720883D01*
X83421675Y-83056081D01*
X83552463Y-83371831D01*
X83742337Y-83655998D01*
X83984002Y-83897663D01*
X84268169Y-84087537D01*
X84583919Y-84218325D01*
X84919117Y-84285000D01*
X85260883Y-84285000D01*
X85596081Y-84218325D01*
X85911831Y-84087537D01*
X86195998Y-83897663D01*
X86437663Y-83655998D01*
X86627537Y-83371831D01*
X86758325Y-83056081D01*
X86825000Y-82720883D01*
X86825000Y-82509800D01*
X87376202Y-83061002D01*
X87400001Y-83090001D01*
X87515726Y-83184974D01*
X87647755Y-83255546D01*
X87791016Y-83299003D01*
X87902669Y-83310000D01*
X87902677Y-83310000D01*
X87940002Y-83313676D01*
X87977327Y-83310000D01*
X89855199Y-83310000D01*
X90680000Y-84134802D01*
X90680000Y-84721928D01*
X90487500Y-84721928D01*
X90363018Y-84734188D01*
X90243320Y-84770498D01*
X90133006Y-84829463D01*
X90036315Y-84908815D01*
X89956963Y-85005506D01*
X89907941Y-85097219D01*
X89766923Y-84984031D01*
X89491094Y-84840429D01*
X89272980Y-84769437D01*
X89027000Y-84889406D01*
X89027000Y-86233000D01*
X89047000Y-86233000D01*
X89047000Y-86487000D01*
X89027000Y-86487000D01*
X89027000Y-87830594D01*
X89272980Y-87950563D01*
X89491094Y-87879571D01*
X89766923Y-87735969D01*
X89907941Y-87622781D01*
X89956963Y-87714494D01*
X90036315Y-87811185D01*
X90133006Y-87890537D01*
X90243320Y-87949502D01*
X90363018Y-87985812D01*
X90487500Y-87998072D01*
X92392500Y-87998072D01*
X92516982Y-87985812D01*
X92636680Y-87949502D01*
X92746994Y-87890537D01*
X92843685Y-87811185D01*
X92923037Y-87714494D01*
X92982002Y-87604180D01*
X93018312Y-87484482D01*
X93030572Y-87360000D01*
X93030572Y-85360000D01*
X93018312Y-85235518D01*
X92982002Y-85115820D01*
X92923037Y-85005506D01*
X92843685Y-84908815D01*
X92746994Y-84829463D01*
X92636680Y-84770498D01*
X92516982Y-84734188D01*
X92392500Y-84721928D01*
X92200000Y-84721928D01*
X92200000Y-83857322D01*
X92203676Y-83819999D01*
X92200000Y-83782676D01*
X92200000Y-83782667D01*
X92189003Y-83671014D01*
X92145546Y-83527753D01*
X92074974Y-83395724D01*
X91980001Y-83279999D01*
X91951004Y-83256202D01*
X90733804Y-82039003D01*
X90710001Y-82009999D01*
X90594276Y-81915026D01*
X90462247Y-81844454D01*
X90318986Y-81800997D01*
X90207333Y-81790000D01*
X90207322Y-81790000D01*
X90170000Y-81786324D01*
X90132678Y-81790000D01*
X88254804Y-81790000D01*
X87275001Y-80810198D01*
X87275001Y-72502323D01*
X87278677Y-72465000D01*
X87275001Y-72427678D01*
X87275001Y-72427668D01*
X87264004Y-72316015D01*
X87220547Y-72172754D01*
X87149975Y-72040725D01*
X87055002Y-71925000D01*
X87026003Y-71901201D01*
X87003802Y-71879000D01*
X86980001Y-71849999D01*
X86864276Y-71755026D01*
X86828072Y-71735674D01*
X86828072Y-71290000D01*
X86815812Y-71165518D01*
X86779502Y-71045820D01*
X86720537Y-70935506D01*
X86641185Y-70838815D01*
X86544494Y-70759463D01*
X86434180Y-70700498D01*
X86314482Y-70664188D01*
X86190000Y-70651928D01*
X83990000Y-70651928D01*
X83865518Y-70664188D01*
X83745820Y-70700498D01*
X83635506Y-70759463D01*
X83538815Y-70838815D01*
X83459463Y-70935506D01*
X83400498Y-71045820D01*
X83364188Y-71165518D01*
X83351928Y-71290000D01*
X82040000Y-71290000D01*
X82040000Y-67258043D01*
X82194759Y-67154637D01*
X82394637Y-66954759D01*
X82551680Y-66719727D01*
X82659853Y-66458574D01*
X82673684Y-66389039D01*
X83698096Y-66389039D01*
X83738754Y-66523087D01*
X83858963Y-66777420D01*
X84026481Y-67003414D01*
X84234869Y-67192385D01*
X84476119Y-67337070D01*
X84740960Y-67431909D01*
X84963000Y-67310624D01*
X84963000Y-66167000D01*
X85217000Y-66167000D01*
X85217000Y-67310624D01*
X85439040Y-67431909D01*
X85703881Y-67337070D01*
X85945131Y-67192385D01*
X86153519Y-67003414D01*
X86321037Y-66777420D01*
X86441246Y-66523087D01*
X86481904Y-66389039D01*
X86359915Y-66167000D01*
X85217000Y-66167000D01*
X84963000Y-66167000D01*
X83820085Y-66167000D01*
X83698096Y-66389039D01*
X82673684Y-66389039D01*
X82715000Y-66181335D01*
X82715000Y-65898665D01*
X82659853Y-65621426D01*
X82621983Y-65530000D01*
X83751474Y-65530000D01*
X83738754Y-65556913D01*
X83698096Y-65690961D01*
X83820085Y-65913000D01*
X84963000Y-65913000D01*
X84963000Y-65893000D01*
X85217000Y-65893000D01*
X85217000Y-65913000D01*
X86359915Y-65913000D01*
X86384128Y-65868929D01*
X87066200Y-66551002D01*
X87089999Y-66580001D01*
X87205724Y-66674974D01*
X87337753Y-66745546D01*
X87481014Y-66789003D01*
X87592667Y-66800000D01*
X87592676Y-66800000D01*
X87629999Y-66803676D01*
X87667322Y-66800000D01*
X91491957Y-66800000D01*
X91595363Y-66954759D01*
X91795241Y-67154637D01*
X92030273Y-67311680D01*
X92291426Y-67419853D01*
X92568665Y-67475000D01*
X92851335Y-67475000D01*
X93128574Y-67419853D01*
X93389727Y-67311680D01*
X93624759Y-67154637D01*
X93824637Y-66954759D01*
X93981680Y-66719727D01*
X94089853Y-66458574D01*
X94145000Y-66181335D01*
X94145000Y-65898665D01*
X94089853Y-65621426D01*
X93981680Y-65360273D01*
X93824637Y-65125241D01*
X93624759Y-64925363D01*
X93392241Y-64770000D01*
X93624759Y-64614637D01*
X93824637Y-64414759D01*
X93981680Y-64179727D01*
X94089853Y-63918574D01*
X94145000Y-63641335D01*
X94145000Y-63358665D01*
X94089853Y-63081426D01*
X94051983Y-62990000D01*
X94935199Y-62990000D01*
X94941577Y-62996379D01*
X94932447Y-63018421D01*
X94869000Y-63337391D01*
X94869000Y-63662609D01*
X94932447Y-63981579D01*
X95056903Y-64282042D01*
X95237585Y-64552451D01*
X95455134Y-64770000D01*
X95237585Y-64987549D01*
X95056903Y-65257958D01*
X94932447Y-65558421D01*
X94869000Y-65877391D01*
X94869000Y-66202609D01*
X94932447Y-66521579D01*
X95056903Y-66822042D01*
X95237585Y-67092451D01*
X95467549Y-67322415D01*
X95737958Y-67503097D01*
X96038421Y-67627553D01*
X96357391Y-67691000D01*
X96682609Y-67691000D01*
X97001579Y-67627553D01*
X97302042Y-67503097D01*
X97572451Y-67322415D01*
X97802415Y-67092451D01*
X97983097Y-66822042D01*
X98107553Y-66521579D01*
X98171000Y-66202609D01*
X98171000Y-65877391D01*
X98107553Y-65558421D01*
X97983097Y-65257958D01*
X97802415Y-64987549D01*
X97584866Y-64770000D01*
X97802415Y-64552451D01*
X97983097Y-64282042D01*
X98107553Y-63981579D01*
X98171000Y-63662609D01*
X98171000Y-63337391D01*
X98107553Y-63018421D01*
X97983097Y-62717958D01*
X97802415Y-62447549D01*
X97584866Y-62230000D01*
X97802415Y-62012451D01*
X97983097Y-61742042D01*
X98107553Y-61441579D01*
X98171000Y-61122609D01*
X98171000Y-60797391D01*
X98107553Y-60478421D01*
X97983097Y-60177958D01*
X97802415Y-59907549D01*
X97584866Y-59690000D01*
X97802415Y-59472451D01*
X97983097Y-59202042D01*
X98107553Y-58901579D01*
X98171000Y-58582609D01*
X98171000Y-58257391D01*
X98107553Y-57938421D01*
X97983097Y-57637958D01*
X97802415Y-57367549D01*
X97584866Y-57150000D01*
X97802415Y-56932451D01*
X97983097Y-56662042D01*
X98107553Y-56361579D01*
X98171000Y-56042609D01*
X98171000Y-55717391D01*
X98107553Y-55398421D01*
X97983097Y-55097958D01*
X97802415Y-54827549D01*
X97584866Y-54610000D01*
X97802415Y-54392451D01*
X97983097Y-54122042D01*
X98107553Y-53821579D01*
X98171000Y-53502609D01*
X98171000Y-53177391D01*
X98107553Y-52858421D01*
X97983097Y-52557958D01*
X97802415Y-52287549D01*
X97584866Y-52070000D01*
X97802415Y-51852451D01*
X97983097Y-51582042D01*
X98107553Y-51281579D01*
X98171000Y-50962609D01*
X98171000Y-50637391D01*
X98107553Y-50318421D01*
X97983097Y-50017958D01*
X97802415Y-49747549D01*
X97584866Y-49530000D01*
X97802415Y-49312451D01*
X97983097Y-49042042D01*
X98107553Y-48741579D01*
X98171000Y-48422609D01*
X98171000Y-48097391D01*
X98107553Y-47778421D01*
X97983097Y-47477958D01*
X97802415Y-47207549D01*
X97584866Y-46990000D01*
X97802415Y-46772451D01*
X97983097Y-46502042D01*
X98107553Y-46201579D01*
X98171000Y-45882609D01*
X98171000Y-45557391D01*
X98107553Y-45238421D01*
X97983097Y-44937958D01*
X97854636Y-44745704D01*
X97890494Y-44726537D01*
X97987185Y-44647185D01*
X98066537Y-44550494D01*
X98125502Y-44440180D01*
X98161812Y-44320482D01*
X98174072Y-44196000D01*
X98174072Y-42164000D01*
X98166957Y-42091759D01*
X98300001Y-42224803D01*
G36*
X71630000Y-67624802D02*
G01*
X71630001Y-74966257D01*
X71509405Y-74916304D01*
X71251486Y-74865000D01*
X70988514Y-74865000D01*
X70730595Y-74916304D01*
X70487641Y-75016939D01*
X70268987Y-75163038D01*
X70083038Y-75348987D01*
X70022225Y-75440000D01*
X69887322Y-75440000D01*
X69849999Y-75436324D01*
X69812676Y-75440000D01*
X69812667Y-75440000D01*
X69701014Y-75450997D01*
X69557753Y-75494454D01*
X69425724Y-75565026D01*
X69309999Y-75659999D01*
X69286201Y-75688997D01*
X68068998Y-76906201D01*
X68040000Y-76929999D01*
X68016202Y-76958997D01*
X68016201Y-76958998D01*
X67945026Y-77045724D01*
X67874454Y-77177754D01*
X67860123Y-77225000D01*
X67830999Y-77321013D01*
X67830998Y-77321015D01*
X67819022Y-77442610D01*
X67665241Y-77545363D01*
X67465363Y-77745241D01*
X67437000Y-77787689D01*
X67437000Y-74652702D01*
X67766903Y-74652702D01*
X67838486Y-74896671D01*
X68093996Y-75017571D01*
X68368184Y-75086300D01*
X68650512Y-75100217D01*
X68930130Y-75058787D01*
X69196292Y-74963603D01*
X69321514Y-74896671D01*
X69393097Y-74652702D01*
X68580000Y-73839605D01*
X67766903Y-74652702D01*
X67437000Y-74652702D01*
X67437000Y-74428998D01*
X67587298Y-74473097D01*
X68400395Y-73660000D01*
X68759605Y-73660000D01*
X69572702Y-74473097D01*
X69816671Y-74401514D01*
X69937571Y-74146004D01*
X70006300Y-73871816D01*
X70020217Y-73589488D01*
X69978787Y-73309870D01*
X69883603Y-73043708D01*
X69816671Y-72918486D01*
X69572702Y-72846903D01*
X68759605Y-73660000D01*
X68400395Y-73660000D01*
X67587298Y-72846903D01*
X67437000Y-72891002D01*
X67437000Y-72667298D01*
X67766903Y-72667298D01*
X68580000Y-73480395D01*
X69393097Y-72667298D01*
X69321514Y-72423329D01*
X69066004Y-72302429D01*
X68791816Y-72233700D01*
X68509488Y-72219783D01*
X68229870Y-72261213D01*
X67963708Y-72356397D01*
X67838486Y-72423329D01*
X67766903Y-72667298D01*
X67437000Y-72667298D01*
X67437000Y-69519386D01*
X67482412Y-69580269D01*
X67698645Y-69775178D01*
X67948748Y-69924157D01*
X68223109Y-70021481D01*
X68453000Y-69900814D01*
X68453000Y-68707000D01*
X68707000Y-68707000D01*
X68707000Y-69900814D01*
X68936891Y-70021481D01*
X69211252Y-69924157D01*
X69461355Y-69775178D01*
X69677588Y-69580269D01*
X69851641Y-69346920D01*
X69976825Y-69084099D01*
X70021476Y-68936890D01*
X69900155Y-68707000D01*
X68707000Y-68707000D01*
X68453000Y-68707000D01*
X68433000Y-68707000D01*
X68433000Y-68453000D01*
X68453000Y-68453000D01*
X68453000Y-68433000D01*
X68707000Y-68433000D01*
X68707000Y-68453000D01*
X69900155Y-68453000D01*
X70021476Y-68223110D01*
X69976825Y-68075901D01*
X69851641Y-67813080D01*
X69677588Y-67579731D01*
X69461355Y-67384822D01*
X69344466Y-67315195D01*
X69526632Y-67193475D01*
X69733475Y-66986632D01*
X69858178Y-66800000D01*
X70805199Y-66800000D01*
X71630000Y-67624802D01*
G37*
X71630000Y-67624802D02*
X71630001Y-74966257D01*
X71509405Y-74916304D01*
X71251486Y-74865000D01*
X70988514Y-74865000D01*
X70730595Y-74916304D01*
X70487641Y-75016939D01*
X70268987Y-75163038D01*
X70083038Y-75348987D01*
X70022225Y-75440000D01*
X69887322Y-75440000D01*
X69849999Y-75436324D01*
X69812676Y-75440000D01*
X69812667Y-75440000D01*
X69701014Y-75450997D01*
X69557753Y-75494454D01*
X69425724Y-75565026D01*
X69309999Y-75659999D01*
X69286201Y-75688997D01*
X68068998Y-76906201D01*
X68040000Y-76929999D01*
X68016202Y-76958997D01*
X68016201Y-76958998D01*
X67945026Y-77045724D01*
X67874454Y-77177754D01*
X67860123Y-77225000D01*
X67830999Y-77321013D01*
X67830998Y-77321015D01*
X67819022Y-77442610D01*
X67665241Y-77545363D01*
X67465363Y-77745241D01*
X67437000Y-77787689D01*
X67437000Y-74652702D01*
X67766903Y-74652702D01*
X67838486Y-74896671D01*
X68093996Y-75017571D01*
X68368184Y-75086300D01*
X68650512Y-75100217D01*
X68930130Y-75058787D01*
X69196292Y-74963603D01*
X69321514Y-74896671D01*
X69393097Y-74652702D01*
X68580000Y-73839605D01*
X67766903Y-74652702D01*
X67437000Y-74652702D01*
X67437000Y-74428998D01*
X67587298Y-74473097D01*
X68400395Y-73660000D01*
X68759605Y-73660000D01*
X69572702Y-74473097D01*
X69816671Y-74401514D01*
X69937571Y-74146004D01*
X70006300Y-73871816D01*
X70020217Y-73589488D01*
X69978787Y-73309870D01*
X69883603Y-73043708D01*
X69816671Y-72918486D01*
X69572702Y-72846903D01*
X68759605Y-73660000D01*
X68400395Y-73660000D01*
X67587298Y-72846903D01*
X67437000Y-72891002D01*
X67437000Y-72667298D01*
X67766903Y-72667298D01*
X68580000Y-73480395D01*
X69393097Y-72667298D01*
X69321514Y-72423329D01*
X69066004Y-72302429D01*
X68791816Y-72233700D01*
X68509488Y-72219783D01*
X68229870Y-72261213D01*
X67963708Y-72356397D01*
X67838486Y-72423329D01*
X67766903Y-72667298D01*
X67437000Y-72667298D01*
X67437000Y-69519386D01*
X67482412Y-69580269D01*
X67698645Y-69775178D01*
X67948748Y-69924157D01*
X68223109Y-70021481D01*
X68453000Y-69900814D01*
X68453000Y-68707000D01*
X68707000Y-68707000D01*
X68707000Y-69900814D01*
X68936891Y-70021481D01*
X69211252Y-69924157D01*
X69461355Y-69775178D01*
X69677588Y-69580269D01*
X69851641Y-69346920D01*
X69976825Y-69084099D01*
X70021476Y-68936890D01*
X69900155Y-68707000D01*
X68707000Y-68707000D01*
X68453000Y-68707000D01*
X68433000Y-68707000D01*
X68433000Y-68453000D01*
X68453000Y-68453000D01*
X68453000Y-68433000D01*
X68707000Y-68433000D01*
X68707000Y-68453000D01*
X69900155Y-68453000D01*
X70021476Y-68223110D01*
X69976825Y-68075901D01*
X69851641Y-67813080D01*
X69677588Y-67579731D01*
X69461355Y-67384822D01*
X69344466Y-67315195D01*
X69526632Y-67193475D01*
X69733475Y-66986632D01*
X69858178Y-66800000D01*
X70805199Y-66800000D01*
X71630000Y-67624802D01*
G36*
X72308754Y-65556913D02*
G01*
X72268096Y-65690961D01*
X72390085Y-65913000D01*
X73533000Y-65913000D01*
X73533000Y-65893000D01*
X73787000Y-65893000D01*
X73787000Y-65913000D01*
X74929915Y-65913000D01*
X75051904Y-65690961D01*
X75011246Y-65556913D01*
X74998526Y-65530000D01*
X79938017Y-65530000D01*
X79900147Y-65621426D01*
X79845000Y-65898665D01*
X79845000Y-66181335D01*
X79900147Y-66458574D01*
X80008320Y-66719727D01*
X80165363Y-66954759D01*
X80365241Y-67154637D01*
X80520000Y-67258044D01*
X80520001Y-72075197D01*
X79695199Y-72900000D01*
X76272287Y-72900000D01*
X76269502Y-72890820D01*
X76234907Y-72826098D01*
X76298215Y-72617400D01*
X76320612Y-72390000D01*
X76298215Y-72162600D01*
X76231885Y-71943940D01*
X76131071Y-71755331D01*
X76172275Y-71696882D01*
X76265272Y-71487337D01*
X76273964Y-71425810D01*
X76148163Y-71247000D01*
X75383109Y-71247000D01*
X75382400Y-71246785D01*
X75211979Y-71230000D01*
X74648021Y-71230000D01*
X74477600Y-71246785D01*
X74476891Y-71247000D01*
X73711837Y-71247000D01*
X73586036Y-71425810D01*
X73594728Y-71487337D01*
X73687725Y-71696882D01*
X73728929Y-71755331D01*
X73628115Y-71943940D01*
X73561785Y-72162600D01*
X73539388Y-72390000D01*
X73561785Y-72617400D01*
X73625093Y-72826098D01*
X73590498Y-72890820D01*
X73554188Y-73010518D01*
X73541928Y-73135000D01*
X73541928Y-74185000D01*
X73554188Y-74309482D01*
X73590498Y-74429180D01*
X73649463Y-74539494D01*
X73728815Y-74636185D01*
X73825506Y-74715537D01*
X73935820Y-74774502D01*
X74055518Y-74810812D01*
X74180000Y-74823072D01*
X75440001Y-74823072D01*
X75440000Y-75102225D01*
X75348987Y-75163038D01*
X75163038Y-75348987D01*
X75016939Y-75567641D01*
X74916304Y-75810595D01*
X74865000Y-76068514D01*
X74865000Y-76331486D01*
X74916304Y-76589405D01*
X74966211Y-76709891D01*
X74930000Y-76706324D01*
X74892678Y-76710000D01*
X73974802Y-76710000D01*
X73150000Y-75885199D01*
X73150000Y-70814190D01*
X73586036Y-70814190D01*
X73711837Y-70993000D01*
X74803000Y-70993000D01*
X74803000Y-70113402D01*
X75057000Y-70113402D01*
X75057000Y-70993000D01*
X76148163Y-70993000D01*
X76273964Y-70814190D01*
X76265272Y-70752663D01*
X76172275Y-70543118D01*
X76040184Y-70355742D01*
X75874076Y-70197736D01*
X75680334Y-70075172D01*
X75466404Y-69992761D01*
X75240507Y-69953669D01*
X75057000Y-70113402D01*
X74803000Y-70113402D01*
X74619493Y-69953669D01*
X74393596Y-69992761D01*
X74179666Y-70075172D01*
X73985924Y-70197736D01*
X73819816Y-70355742D01*
X73687725Y-70543118D01*
X73594728Y-70752663D01*
X73586036Y-70814190D01*
X73150000Y-70814190D01*
X73150000Y-67374270D01*
X73310960Y-67431909D01*
X73533000Y-67310624D01*
X73533000Y-66167000D01*
X73787000Y-66167000D01*
X73787000Y-67310624D01*
X74009040Y-67431909D01*
X74273881Y-67337070D01*
X74515131Y-67192385D01*
X74723519Y-67003414D01*
X74891037Y-66777420D01*
X75011246Y-66523087D01*
X75051904Y-66389039D01*
X74929915Y-66167000D01*
X73787000Y-66167000D01*
X73533000Y-66167000D01*
X72390085Y-66167000D01*
X72365872Y-66211071D01*
X71684801Y-65530000D01*
X72321474Y-65530000D01*
X72308754Y-65556913D01*
G37*
X72308754Y-65556913D02*
X72268096Y-65690961D01*
X72390085Y-65913000D01*
X73533000Y-65913000D01*
X73533000Y-65893000D01*
X73787000Y-65893000D01*
X73787000Y-65913000D01*
X74929915Y-65913000D01*
X75051904Y-65690961D01*
X75011246Y-65556913D01*
X74998526Y-65530000D01*
X79938017Y-65530000D01*
X79900147Y-65621426D01*
X79845000Y-65898665D01*
X79845000Y-66181335D01*
X79900147Y-66458574D01*
X80008320Y-66719727D01*
X80165363Y-66954759D01*
X80365241Y-67154637D01*
X80520000Y-67258044D01*
X80520001Y-72075197D01*
X79695199Y-72900000D01*
X76272287Y-72900000D01*
X76269502Y-72890820D01*
X76234907Y-72826098D01*
X76298215Y-72617400D01*
X76320612Y-72390000D01*
X76298215Y-72162600D01*
X76231885Y-71943940D01*
X76131071Y-71755331D01*
X76172275Y-71696882D01*
X76265272Y-71487337D01*
X76273964Y-71425810D01*
X76148163Y-71247000D01*
X75383109Y-71247000D01*
X75382400Y-71246785D01*
X75211979Y-71230000D01*
X74648021Y-71230000D01*
X74477600Y-71246785D01*
X74476891Y-71247000D01*
X73711837Y-71247000D01*
X73586036Y-71425810D01*
X73594728Y-71487337D01*
X73687725Y-71696882D01*
X73728929Y-71755331D01*
X73628115Y-71943940D01*
X73561785Y-72162600D01*
X73539388Y-72390000D01*
X73561785Y-72617400D01*
X73625093Y-72826098D01*
X73590498Y-72890820D01*
X73554188Y-73010518D01*
X73541928Y-73135000D01*
X73541928Y-74185000D01*
X73554188Y-74309482D01*
X73590498Y-74429180D01*
X73649463Y-74539494D01*
X73728815Y-74636185D01*
X73825506Y-74715537D01*
X73935820Y-74774502D01*
X74055518Y-74810812D01*
X74180000Y-74823072D01*
X75440001Y-74823072D01*
X75440000Y-75102225D01*
X75348987Y-75163038D01*
X75163038Y-75348987D01*
X75016939Y-75567641D01*
X74916304Y-75810595D01*
X74865000Y-76068514D01*
X74865000Y-76331486D01*
X74916304Y-76589405D01*
X74966211Y-76709891D01*
X74930000Y-76706324D01*
X74892678Y-76710000D01*
X73974802Y-76710000D01*
X73150000Y-75885199D01*
X73150000Y-70814190D01*
X73586036Y-70814190D01*
X73711837Y-70993000D01*
X74803000Y-70993000D01*
X74803000Y-70113402D01*
X75057000Y-70113402D01*
X75057000Y-70993000D01*
X76148163Y-70993000D01*
X76273964Y-70814190D01*
X76265272Y-70752663D01*
X76172275Y-70543118D01*
X76040184Y-70355742D01*
X75874076Y-70197736D01*
X75680334Y-70075172D01*
X75466404Y-69992761D01*
X75240507Y-69953669D01*
X75057000Y-70113402D01*
X74803000Y-70113402D01*
X74619493Y-69953669D01*
X74393596Y-69992761D01*
X74179666Y-70075172D01*
X73985924Y-70197736D01*
X73819816Y-70355742D01*
X73687725Y-70543118D01*
X73594728Y-70752663D01*
X73586036Y-70814190D01*
X73150000Y-70814190D01*
X73150000Y-67374270D01*
X73310960Y-67431909D01*
X73533000Y-67310624D01*
X73533000Y-66167000D01*
X73787000Y-66167000D01*
X73787000Y-67310624D01*
X74009040Y-67431909D01*
X74273881Y-67337070D01*
X74515131Y-67192385D01*
X74723519Y-67003414D01*
X74891037Y-66777420D01*
X75011246Y-66523087D01*
X75051904Y-66389039D01*
X74929915Y-66167000D01*
X73787000Y-66167000D01*
X73533000Y-66167000D01*
X72390085Y-66167000D01*
X72365872Y-66211071D01*
X71684801Y-65530000D01*
X72321474Y-65530000D01*
X72308754Y-65556913D01*
M02*
