G04 #@! TF.GenerationSoftware,KiCad,Pcbnew,(5.1.5-0-10_14)*
G04 #@! TF.CreationDate,2021-01-23T17:47:52+01:00*
G04 #@! TF.ProjectId,C64LED-latched,4336344c-4544-42d6-9c61-74636865642e,rev?*
G04 #@! TF.SameCoordinates,Original*
G04 #@! TF.FileFunction,Legend,Top*
G04 #@! TF.FilePolarity,Positive*
%FSLAX46Y46*%
G04 Gerber Fmt 4.6, Leading zero omitted, Abs format (unit mm)*
G04 Created by KiCad (PCBNEW (5.1.5-0-10_14)) date 2021-01-23 17:47:52*
%MOMM*%
%LPD*%
G04 APERTURE LIST*
%ADD10C,0.120000*%
%ADD11C,0.150000*%
G04 APERTURE END LIST*
D10*
X105550000Y-41770000D02*
X105550000Y-67450000D01*
X95110000Y-41770000D02*
X105550000Y-41770000D01*
X95110000Y-67450000D02*
X95110000Y-41770000D01*
X105550000Y-67450000D02*
X95110000Y-67450000D01*
X94820000Y-41480000D02*
X94820000Y-43180000D01*
X96520000Y-41480000D02*
X94820000Y-41480000D01*
X82610000Y-41790000D02*
X72330000Y-41790000D01*
X82610000Y-67430000D02*
X82610000Y-41790000D01*
X72330000Y-67430000D02*
X82610000Y-67430000D01*
X72330000Y-41790000D02*
X72330000Y-67430000D01*
X80120000Y-41850000D02*
X78470000Y-41850000D01*
X80120000Y-67370000D02*
X80120000Y-41850000D01*
X74820000Y-67370000D02*
X80120000Y-67370000D01*
X74820000Y-41850000D02*
X74820000Y-67370000D01*
X76470000Y-41850000D02*
X74820000Y-41850000D01*
X78470000Y-41850000D02*
G75*
G02X76470000Y-41850000I-1000000J0D01*
G01*
X94040000Y-41790000D02*
X83760000Y-41790000D01*
X94040000Y-67430000D02*
X94040000Y-41790000D01*
X83760000Y-67430000D02*
X94040000Y-67430000D01*
X83760000Y-41790000D02*
X83760000Y-67430000D01*
X91550000Y-41850000D02*
X89900000Y-41850000D01*
X91550000Y-67370000D02*
X91550000Y-41850000D01*
X86250000Y-67370000D02*
X91550000Y-67370000D01*
X86250000Y-41850000D02*
X86250000Y-67370000D01*
X87900000Y-41850000D02*
X86250000Y-41850000D01*
X89900000Y-41850000D02*
G75*
G02X87900000Y-41850000I-1000000J0D01*
G01*
X67250000Y-44390000D02*
X68580000Y-44390000D01*
X67250000Y-45720000D02*
X67250000Y-44390000D01*
X67250000Y-46990000D02*
X69910000Y-46990000D01*
X69910000Y-46990000D02*
X69910000Y-69910000D01*
X67250000Y-46990000D02*
X67250000Y-69910000D01*
X67250000Y-69910000D02*
X69910000Y-69910000D01*
X86560000Y-75530000D02*
X83620000Y-75530000D01*
X86560000Y-75770000D02*
X83620000Y-75770000D01*
X86560000Y-75650000D02*
X83620000Y-75650000D01*
X85090000Y-81210000D02*
X85090000Y-80190000D01*
X85090000Y-73730000D02*
X85090000Y-74750000D01*
X86560000Y-80190000D02*
X86560000Y-74750000D01*
X83620000Y-80190000D02*
X86560000Y-80190000D01*
X83620000Y-74750000D02*
X83620000Y-80190000D01*
X86560000Y-74750000D02*
X83620000Y-74750000D01*
X110620000Y-45720000D02*
X107820000Y-45720000D01*
X110620000Y-66210000D02*
X110620000Y-43010000D01*
X107820000Y-66210000D02*
X110620000Y-66210000D01*
X107820000Y-43010000D02*
X107820000Y-66210000D01*
X110620000Y-43010000D02*
X107820000Y-43010000D01*
X82310000Y-86630000D02*
X82310000Y-88630000D01*
X67900000Y-82520000D02*
X70960000Y-82520000D01*
X67900000Y-92740000D02*
X67900000Y-82520000D01*
X70960000Y-92740000D02*
X67900000Y-92740000D01*
X81120000Y-92740000D02*
X75060000Y-92740000D01*
X81120000Y-89930000D02*
X81120000Y-92740000D01*
X81120000Y-82520000D02*
X81120000Y-85330000D01*
X75060000Y-82520000D02*
X81120000Y-82520000D01*
X87049000Y-89630000D02*
X87049000Y-88120000D01*
X90750000Y-89630000D02*
X90750000Y-88120000D01*
X94020000Y-88120000D02*
X83780000Y-88120000D01*
X83780000Y-89630000D02*
X83780000Y-84989000D01*
X94020000Y-89630000D02*
X94020000Y-84989000D01*
X94020000Y-84989000D02*
X83780000Y-84989000D01*
X94020000Y-89630000D02*
X83780000Y-89630000D01*
X110620000Y-69850000D02*
X107820000Y-69850000D01*
X110620000Y-90340000D02*
X110620000Y-67140000D01*
X107820000Y-90340000D02*
X110620000Y-90340000D01*
X107820000Y-67140000D02*
X107820000Y-90340000D01*
X110620000Y-67140000D02*
X107820000Y-67140000D01*
X71740000Y-77120000D02*
X75580000Y-77120000D01*
X71740000Y-75280000D02*
X75580000Y-75280000D01*
X71740000Y-79660000D02*
X75580000Y-79660000D01*
X71740000Y-77820000D02*
X75580000Y-77820000D01*
X76768478Y-70551522D02*
G75*
G03X72330000Y-72390000I-1838478J-1838478D01*
G01*
X76768478Y-74228478D02*
G75*
G02X72330000Y-72390000I-1838478J1838478D01*
G01*
X76780000Y-74190000D02*
X76780000Y-70590000D01*
X74870000Y-40740000D02*
X74870000Y-38000000D01*
X80110000Y-40740000D02*
X80110000Y-38000000D01*
X80110000Y-38000000D02*
X74870000Y-38000000D01*
X80110000Y-40740000D02*
X74870000Y-40740000D01*
X86260000Y-40740000D02*
X86260000Y-38000000D01*
X91500000Y-40740000D02*
X91500000Y-38000000D01*
X91500000Y-38000000D02*
X86260000Y-38000000D01*
X91500000Y-40740000D02*
X86260000Y-40740000D01*
X69505000Y-73040000D02*
X69950000Y-73040000D01*
X67210000Y-73040000D02*
X67655000Y-73040000D01*
X69505000Y-79280000D02*
X69950000Y-79280000D01*
X67210000Y-79280000D02*
X67655000Y-79280000D01*
X69950000Y-79280000D02*
X69950000Y-73040000D01*
X67210000Y-79280000D02*
X67210000Y-73040000D01*
X105550000Y-68440000D02*
X105550000Y-94120000D01*
X95110000Y-68440000D02*
X105550000Y-68440000D01*
X95110000Y-94120000D02*
X95110000Y-68440000D01*
X105550000Y-94120000D02*
X95110000Y-94120000D01*
X94820000Y-68150000D02*
X94820000Y-69850000D01*
X96520000Y-68150000D02*
X94820000Y-68150000D01*
D11*
X95656666Y-40738571D02*
X95799523Y-40786190D01*
X95847142Y-40833809D01*
X95894761Y-40929047D01*
X95894761Y-41071904D01*
X95847142Y-41167142D01*
X95799523Y-41214761D01*
X95704285Y-41262380D01*
X95323333Y-41262380D01*
X95323333Y-40262380D01*
X95656666Y-40262380D01*
X95751904Y-40310000D01*
X95799523Y-40357619D01*
X95847142Y-40452857D01*
X95847142Y-40548095D01*
X95799523Y-40643333D01*
X95751904Y-40690952D01*
X95656666Y-40738571D01*
X95323333Y-40738571D01*
X96275714Y-40976666D02*
X96751904Y-40976666D01*
X96180476Y-41262380D02*
X96513809Y-40262380D01*
X96847142Y-41262380D01*
X97751904Y-41262380D02*
X97418571Y-40786190D01*
X97180476Y-41262380D02*
X97180476Y-40262380D01*
X97561428Y-40262380D01*
X97656666Y-40310000D01*
X97704285Y-40357619D01*
X97751904Y-40452857D01*
X97751904Y-40595714D01*
X97704285Y-40690952D01*
X97656666Y-40738571D01*
X97561428Y-40786190D01*
X97180476Y-40786190D01*
X98704285Y-41262380D02*
X98132857Y-41262380D01*
X98418571Y-41262380D02*
X98418571Y-40262380D01*
X98323333Y-40405238D01*
X98228095Y-40500476D01*
X98132857Y-40548095D01*
X76708095Y-40302380D02*
X76708095Y-41111904D01*
X76755714Y-41207142D01*
X76803333Y-41254761D01*
X76898571Y-41302380D01*
X77089047Y-41302380D01*
X77184285Y-41254761D01*
X77231904Y-41207142D01*
X77279523Y-41111904D01*
X77279523Y-40302380D01*
X77708095Y-40397619D02*
X77755714Y-40350000D01*
X77850952Y-40302380D01*
X78089047Y-40302380D01*
X78184285Y-40350000D01*
X78231904Y-40397619D01*
X78279523Y-40492857D01*
X78279523Y-40588095D01*
X78231904Y-40730952D01*
X77660476Y-41302380D01*
X78279523Y-41302380D01*
X88138095Y-40302380D02*
X88138095Y-41111904D01*
X88185714Y-41207142D01*
X88233333Y-41254761D01*
X88328571Y-41302380D01*
X88519047Y-41302380D01*
X88614285Y-41254761D01*
X88661904Y-41207142D01*
X88709523Y-41111904D01*
X88709523Y-40302380D01*
X89709523Y-41302380D02*
X89138095Y-41302380D01*
X89423809Y-41302380D02*
X89423809Y-40302380D01*
X89328571Y-40445238D01*
X89233333Y-40540476D01*
X89138095Y-40588095D01*
X68246666Y-42842380D02*
X68246666Y-43556666D01*
X68199047Y-43699523D01*
X68103809Y-43794761D01*
X67960952Y-43842380D01*
X67865714Y-43842380D01*
X69246666Y-43842380D02*
X68675238Y-43842380D01*
X68960952Y-43842380D02*
X68960952Y-42842380D01*
X68865714Y-42985238D01*
X68770476Y-43080476D01*
X68675238Y-43128095D01*
X87462380Y-76938095D02*
X86462380Y-76938095D01*
X86462380Y-76700000D01*
X86510000Y-76557142D01*
X86605238Y-76461904D01*
X86700476Y-76414285D01*
X86890952Y-76366666D01*
X87033809Y-76366666D01*
X87224285Y-76414285D01*
X87319523Y-76461904D01*
X87414761Y-76557142D01*
X87462380Y-76700000D01*
X87462380Y-76938095D01*
X87462380Y-75414285D02*
X87462380Y-75985714D01*
X87462380Y-75700000D02*
X86462380Y-75700000D01*
X86605238Y-75795238D01*
X86700476Y-75890476D01*
X86748095Y-75985714D01*
X107132380Y-50220476D02*
X106656190Y-50553809D01*
X107132380Y-50791904D02*
X106132380Y-50791904D01*
X106132380Y-50410952D01*
X106180000Y-50315714D01*
X106227619Y-50268095D01*
X106322857Y-50220476D01*
X106465714Y-50220476D01*
X106560952Y-50268095D01*
X106608571Y-50315714D01*
X106656190Y-50410952D01*
X106656190Y-50791904D01*
X107132380Y-49791904D02*
X106132380Y-49791904D01*
X107132380Y-49220476D01*
X106132380Y-49220476D01*
X107132380Y-48220476D02*
X107132380Y-48791904D01*
X107132380Y-48506190D02*
X106132380Y-48506190D01*
X106275238Y-48601428D01*
X106370476Y-48696666D01*
X106418095Y-48791904D01*
X82762380Y-87963333D02*
X83476666Y-87963333D01*
X83619523Y-88010952D01*
X83714761Y-88106190D01*
X83762380Y-88249047D01*
X83762380Y-88344285D01*
X82857619Y-87534761D02*
X82810000Y-87487142D01*
X82762380Y-87391904D01*
X82762380Y-87153809D01*
X82810000Y-87058571D01*
X82857619Y-87010952D01*
X82952857Y-86963333D01*
X83048095Y-86963333D01*
X83190952Y-87010952D01*
X83762380Y-87582380D01*
X83762380Y-86963333D01*
X88138095Y-90082380D02*
X88138095Y-90891904D01*
X88185714Y-90987142D01*
X88233333Y-91034761D01*
X88328571Y-91082380D01*
X88519047Y-91082380D01*
X88614285Y-91034761D01*
X88661904Y-90987142D01*
X88709523Y-90891904D01*
X88709523Y-90082380D01*
X89090476Y-90082380D02*
X89709523Y-90082380D01*
X89376190Y-90463333D01*
X89519047Y-90463333D01*
X89614285Y-90510952D01*
X89661904Y-90558571D01*
X89709523Y-90653809D01*
X89709523Y-90891904D01*
X89661904Y-90987142D01*
X89614285Y-91034761D01*
X89519047Y-91082380D01*
X89233333Y-91082380D01*
X89138095Y-91034761D01*
X89090476Y-90987142D01*
X107132380Y-73080476D02*
X106656190Y-73413809D01*
X107132380Y-73651904D02*
X106132380Y-73651904D01*
X106132380Y-73270952D01*
X106180000Y-73175714D01*
X106227619Y-73128095D01*
X106322857Y-73080476D01*
X106465714Y-73080476D01*
X106560952Y-73128095D01*
X106608571Y-73175714D01*
X106656190Y-73270952D01*
X106656190Y-73651904D01*
X107132380Y-72651904D02*
X106132380Y-72651904D01*
X107132380Y-72080476D01*
X106132380Y-72080476D01*
X106227619Y-71651904D02*
X106180000Y-71604285D01*
X106132380Y-71509047D01*
X106132380Y-71270952D01*
X106180000Y-71175714D01*
X106227619Y-71128095D01*
X106322857Y-71080476D01*
X106418095Y-71080476D01*
X106560952Y-71128095D01*
X107132380Y-71699523D01*
X107132380Y-71080476D01*
X73493333Y-74732380D02*
X73160000Y-74256190D01*
X72921904Y-74732380D02*
X72921904Y-73732380D01*
X73302857Y-73732380D01*
X73398095Y-73780000D01*
X73445714Y-73827619D01*
X73493333Y-73922857D01*
X73493333Y-74065714D01*
X73445714Y-74160952D01*
X73398095Y-74208571D01*
X73302857Y-74256190D01*
X72921904Y-74256190D01*
X73874285Y-73827619D02*
X73921904Y-73780000D01*
X74017142Y-73732380D01*
X74255238Y-73732380D01*
X74350476Y-73780000D01*
X74398095Y-73827619D01*
X74445714Y-73922857D01*
X74445714Y-74018095D01*
X74398095Y-74160952D01*
X73826666Y-74732380D01*
X74445714Y-74732380D01*
X73493333Y-77272380D02*
X73160000Y-76796190D01*
X72921904Y-77272380D02*
X72921904Y-76272380D01*
X73302857Y-76272380D01*
X73398095Y-76320000D01*
X73445714Y-76367619D01*
X73493333Y-76462857D01*
X73493333Y-76605714D01*
X73445714Y-76700952D01*
X73398095Y-76748571D01*
X73302857Y-76796190D01*
X72921904Y-76796190D01*
X74445714Y-77272380D02*
X73874285Y-77272380D01*
X74160000Y-77272380D02*
X74160000Y-76272380D01*
X74064761Y-76415238D01*
X73969523Y-76510476D01*
X73874285Y-76558095D01*
X71917619Y-72485238D02*
X71870000Y-72580476D01*
X71774761Y-72675714D01*
X71631904Y-72818571D01*
X71584285Y-72913809D01*
X71584285Y-73009047D01*
X71822380Y-72961428D02*
X71774761Y-73056666D01*
X71679523Y-73151904D01*
X71489047Y-73199523D01*
X71155714Y-73199523D01*
X70965238Y-73151904D01*
X70870000Y-73056666D01*
X70822380Y-72961428D01*
X70822380Y-72770952D01*
X70870000Y-72675714D01*
X70965238Y-72580476D01*
X71155714Y-72532857D01*
X71489047Y-72532857D01*
X71679523Y-72580476D01*
X71774761Y-72675714D01*
X71822380Y-72770952D01*
X71822380Y-72961428D01*
X71822380Y-71580476D02*
X71822380Y-72151904D01*
X71822380Y-71866190D02*
X70822380Y-71866190D01*
X70965238Y-71961428D01*
X71060476Y-72056666D01*
X71108095Y-72151904D01*
X77323333Y-42227142D02*
X77275714Y-42274761D01*
X77132857Y-42322380D01*
X77037619Y-42322380D01*
X76894761Y-42274761D01*
X76799523Y-42179523D01*
X76751904Y-42084285D01*
X76704285Y-41893809D01*
X76704285Y-41750952D01*
X76751904Y-41560476D01*
X76799523Y-41465238D01*
X76894761Y-41370000D01*
X77037619Y-41322380D01*
X77132857Y-41322380D01*
X77275714Y-41370000D01*
X77323333Y-41417619D01*
X77656666Y-41322380D02*
X78275714Y-41322380D01*
X77942380Y-41703333D01*
X78085238Y-41703333D01*
X78180476Y-41750952D01*
X78228095Y-41798571D01*
X78275714Y-41893809D01*
X78275714Y-42131904D01*
X78228095Y-42227142D01*
X78180476Y-42274761D01*
X78085238Y-42322380D01*
X77799523Y-42322380D01*
X77704285Y-42274761D01*
X77656666Y-42227142D01*
X88713333Y-42227142D02*
X88665714Y-42274761D01*
X88522857Y-42322380D01*
X88427619Y-42322380D01*
X88284761Y-42274761D01*
X88189523Y-42179523D01*
X88141904Y-42084285D01*
X88094285Y-41893809D01*
X88094285Y-41750952D01*
X88141904Y-41560476D01*
X88189523Y-41465238D01*
X88284761Y-41370000D01*
X88427619Y-41322380D01*
X88522857Y-41322380D01*
X88665714Y-41370000D01*
X88713333Y-41417619D01*
X89094285Y-41417619D02*
X89141904Y-41370000D01*
X89237142Y-41322380D01*
X89475238Y-41322380D01*
X89570476Y-41370000D01*
X89618095Y-41417619D01*
X89665714Y-41512857D01*
X89665714Y-41608095D01*
X89618095Y-41750952D01*
X89046666Y-42322380D01*
X89665714Y-42322380D01*
X68937142Y-76366666D02*
X68984761Y-76414285D01*
X69032380Y-76557142D01*
X69032380Y-76652380D01*
X68984761Y-76795238D01*
X68889523Y-76890476D01*
X68794285Y-76938095D01*
X68603809Y-76985714D01*
X68460952Y-76985714D01*
X68270476Y-76938095D01*
X68175238Y-76890476D01*
X68080000Y-76795238D01*
X68032380Y-76652380D01*
X68032380Y-76557142D01*
X68080000Y-76414285D01*
X68127619Y-76366666D01*
X69032380Y-75414285D02*
X69032380Y-75985714D01*
X69032380Y-75700000D02*
X68032380Y-75700000D01*
X68175238Y-75795238D01*
X68270476Y-75890476D01*
X68318095Y-75985714D01*
X95656666Y-67408571D02*
X95799523Y-67456190D01*
X95847142Y-67503809D01*
X95894761Y-67599047D01*
X95894761Y-67741904D01*
X95847142Y-67837142D01*
X95799523Y-67884761D01*
X95704285Y-67932380D01*
X95323333Y-67932380D01*
X95323333Y-66932380D01*
X95656666Y-66932380D01*
X95751904Y-66980000D01*
X95799523Y-67027619D01*
X95847142Y-67122857D01*
X95847142Y-67218095D01*
X95799523Y-67313333D01*
X95751904Y-67360952D01*
X95656666Y-67408571D01*
X95323333Y-67408571D01*
X96275714Y-67646666D02*
X96751904Y-67646666D01*
X96180476Y-67932380D02*
X96513809Y-66932380D01*
X96847142Y-67932380D01*
X97751904Y-67932380D02*
X97418571Y-67456190D01*
X97180476Y-67932380D02*
X97180476Y-66932380D01*
X97561428Y-66932380D01*
X97656666Y-66980000D01*
X97704285Y-67027619D01*
X97751904Y-67122857D01*
X97751904Y-67265714D01*
X97704285Y-67360952D01*
X97656666Y-67408571D01*
X97561428Y-67456190D01*
X97180476Y-67456190D01*
X98132857Y-67027619D02*
X98180476Y-66980000D01*
X98275714Y-66932380D01*
X98513809Y-66932380D01*
X98609047Y-66980000D01*
X98656666Y-67027619D01*
X98704285Y-67122857D01*
X98704285Y-67218095D01*
X98656666Y-67360952D01*
X98085238Y-67932380D01*
X98704285Y-67932380D01*
M02*
