G04 #@! TF.GenerationSoftware,KiCad,Pcbnew,(5.1.5-0-10_14)*
G04 #@! TF.CreationDate,2021-01-23T17:47:52+01:00*
G04 #@! TF.ProjectId,C64LED-latched,4336344c-4544-42d6-9c61-74636865642e,rev?*
G04 #@! TF.SameCoordinates,Original*
G04 #@! TF.FileFunction,Soldermask,Bot*
G04 #@! TF.FilePolarity,Negative*
%FSLAX46Y46*%
G04 Gerber Fmt 4.6, Leading zero omitted, Abs format (unit mm)*
G04 Created by KiCad (PCBNEW (5.1.5-0-10_14)) date 2021-01-23 17:47:52*
%MOMM*%
%LPD*%
G04 APERTURE LIST*
%ADD10C,2.032000*%
%ADD11R,2.032000X2.032000*%
%ADD12O,1.600000X1.600000*%
%ADD13R,1.600000X1.600000*%
%ADD14O,1.700000X1.700000*%
%ADD15R,1.700000X1.700000*%
%ADD16O,2.200000X2.200000*%
%ADD17R,2.200000X2.200000*%
%ADD18C,1.600000*%
%ADD19C,3.500000*%
%ADD20C,3.300000*%
%ADD21R,4.000000X4.000000*%
%ADD22O,1.905000X2.000000*%
%ADD23R,1.905000X2.000000*%
%ADD24O,1.400000X1.400000*%
%ADD25C,1.400000*%
%ADD26R,1.500000X1.050000*%
%ADD27O,1.500000X1.050000*%
G04 APERTURE END LIST*
D10*
X104140000Y-43180000D03*
X104140000Y-45720000D03*
X104140000Y-48260000D03*
X104140000Y-50800000D03*
X96520000Y-63500000D03*
X96520000Y-66040000D03*
X104140000Y-66040000D03*
X104140000Y-63500000D03*
X96520000Y-60960000D03*
X96520000Y-58420000D03*
X96520000Y-55880000D03*
X96520000Y-53340000D03*
X104140000Y-53340000D03*
X104140000Y-55880000D03*
X104140000Y-58420000D03*
X104140000Y-60960000D03*
X96520000Y-50800000D03*
X96520000Y-48260000D03*
X96520000Y-45720000D03*
D11*
X96520000Y-43180000D03*
D12*
X81280000Y-43180000D03*
X73660000Y-66040000D03*
X81280000Y-45720000D03*
X73660000Y-63500000D03*
X81280000Y-48260000D03*
X73660000Y-60960000D03*
X81280000Y-50800000D03*
X73660000Y-58420000D03*
X81280000Y-53340000D03*
X73660000Y-55880000D03*
X81280000Y-55880000D03*
X73660000Y-53340000D03*
X81280000Y-58420000D03*
X73660000Y-50800000D03*
X81280000Y-60960000D03*
X73660000Y-48260000D03*
X81280000Y-63500000D03*
X73660000Y-45720000D03*
X81280000Y-66040000D03*
D13*
X73660000Y-43180000D03*
D12*
X92710000Y-43180000D03*
X85090000Y-66040000D03*
X92710000Y-45720000D03*
X85090000Y-63500000D03*
X92710000Y-48260000D03*
X85090000Y-60960000D03*
X92710000Y-50800000D03*
X85090000Y-58420000D03*
X92710000Y-53340000D03*
X85090000Y-55880000D03*
X92710000Y-55880000D03*
X85090000Y-53340000D03*
X92710000Y-58420000D03*
X85090000Y-50800000D03*
X92710000Y-60960000D03*
X85090000Y-48260000D03*
X92710000Y-63500000D03*
X85090000Y-45720000D03*
X92710000Y-66040000D03*
D13*
X85090000Y-43180000D03*
D14*
X68580000Y-68580000D03*
X68580000Y-66040000D03*
X68580000Y-63500000D03*
X68580000Y-60960000D03*
X68580000Y-58420000D03*
X68580000Y-55880000D03*
X68580000Y-53340000D03*
X68580000Y-50800000D03*
X68580000Y-48260000D03*
D15*
X68580000Y-45720000D03*
D16*
X85090000Y-82550000D03*
D17*
X85090000Y-72390000D03*
D12*
X109220000Y-64770000D03*
X109220000Y-62230000D03*
X109220000Y-59690000D03*
X109220000Y-57150000D03*
X109220000Y-54610000D03*
X109220000Y-52070000D03*
X109220000Y-49530000D03*
X109220000Y-46990000D03*
D13*
X109220000Y-44450000D03*
D18*
X71010000Y-87630000D03*
D19*
X73010000Y-92130000D03*
X73010000Y-83130000D03*
D20*
X74010000Y-87630000D03*
D21*
X80010000Y-87630000D03*
D22*
X86360000Y-86360000D03*
X88900000Y-86360000D03*
D23*
X91440000Y-86360000D03*
D12*
X109220000Y-88900000D03*
X109220000Y-86360000D03*
X109220000Y-83820000D03*
X109220000Y-81280000D03*
X109220000Y-78740000D03*
X109220000Y-76200000D03*
X109220000Y-73660000D03*
X109220000Y-71120000D03*
D13*
X109220000Y-68580000D03*
D24*
X76200000Y-76200000D03*
D25*
X71120000Y-76200000D03*
D24*
X76200000Y-78740000D03*
D25*
X71120000Y-78740000D03*
D26*
X74930000Y-73660000D03*
D27*
X74930000Y-71120000D03*
X74930000Y-72390000D03*
D18*
X76240000Y-39370000D03*
X78740000Y-39370000D03*
X87630000Y-39370000D03*
X90130000Y-39370000D03*
X68580000Y-73660000D03*
X68580000Y-78660000D03*
D10*
X104140000Y-69850000D03*
X104140000Y-72390000D03*
X104140000Y-74930000D03*
X104140000Y-77470000D03*
X96520000Y-90170000D03*
X96520000Y-92710000D03*
X104140000Y-92710000D03*
X104140000Y-90170000D03*
X96520000Y-87630000D03*
X96520000Y-85090000D03*
X96520000Y-82550000D03*
X96520000Y-80010000D03*
X104140000Y-80010000D03*
X104140000Y-82550000D03*
X104140000Y-85090000D03*
X104140000Y-87630000D03*
X96520000Y-77470000D03*
X96520000Y-74930000D03*
X96520000Y-72390000D03*
D11*
X96520000Y-69850000D03*
M02*
