%TF.GenerationSoftware,KiCad,Pcbnew,(5.1.9-0-10_14)*%
%TF.CreationDate,2021-08-25T01:40:26+02:00*%
%TF.ProjectId,i2c-32io,6932632d-3332-4696-9f2e-6b696361645f,rev?*%
%TF.SameCoordinates,Original*%
%TF.FileFunction,Copper,L1,Top*%
%TF.FilePolarity,Positive*%
%FSLAX46Y46*%
G04 Gerber Fmt 4.6, Leading zero omitted, Abs format (unit mm)*
G04 Created by KiCad (PCBNEW (5.1.9-0-10_14)) date 2021-08-25 01:40:26*
%MOMM*%
%LPD*%
G01*
G04 APERTURE LIST*
%TA.AperFunction,ComponentPad*%
%ADD10O,1.700000X1.700000*%
%TD*%
%TA.AperFunction,ComponentPad*%
%ADD11R,1.700000X1.700000*%
%TD*%
%TA.AperFunction,ViaPad*%
%ADD12C,0.800000*%
%TD*%
%TA.AperFunction,Conductor*%
%ADD13C,0.250000*%
%TD*%
G04 APERTURE END LIST*
%TO.P,U2,28*%
%TO.N,Net-(J5-Pad8)*%
%TA.AperFunction,SMDPad,CuDef*%
G36*
G01*
X77875000Y-105105000D02*
X77875000Y-105405000D01*
G75*
G02*
X77725000Y-105555000I-150000J0D01*
G01*
X75975000Y-105555000D01*
G75*
G02*
X75825000Y-105405000I0J150000D01*
G01*
X75825000Y-105105000D01*
G75*
G02*
X75975000Y-104955000I150000J0D01*
G01*
X77725000Y-104955000D01*
G75*
G02*
X77875000Y-105105000I0J-150000D01*
G01*
G37*
%TD.AperFunction*%
%TO.P,U2,27*%
%TO.N,Net-(J5-Pad7)*%
%TA.AperFunction,SMDPad,CuDef*%
G36*
G01*
X77875000Y-103835000D02*
X77875000Y-104135000D01*
G75*
G02*
X77725000Y-104285000I-150000J0D01*
G01*
X75975000Y-104285000D01*
G75*
G02*
X75825000Y-104135000I0J150000D01*
G01*
X75825000Y-103835000D01*
G75*
G02*
X75975000Y-103685000I150000J0D01*
G01*
X77725000Y-103685000D01*
G75*
G02*
X77875000Y-103835000I0J-150000D01*
G01*
G37*
%TD.AperFunction*%
%TO.P,U2,26*%
%TO.N,Net-(J5-Pad6)*%
%TA.AperFunction,SMDPad,CuDef*%
G36*
G01*
X77875000Y-102565000D02*
X77875000Y-102865000D01*
G75*
G02*
X77725000Y-103015000I-150000J0D01*
G01*
X75975000Y-103015000D01*
G75*
G02*
X75825000Y-102865000I0J150000D01*
G01*
X75825000Y-102565000D01*
G75*
G02*
X75975000Y-102415000I150000J0D01*
G01*
X77725000Y-102415000D01*
G75*
G02*
X77875000Y-102565000I0J-150000D01*
G01*
G37*
%TD.AperFunction*%
%TO.P,U2,25*%
%TO.N,Net-(J5-Pad5)*%
%TA.AperFunction,SMDPad,CuDef*%
G36*
G01*
X77875000Y-101295000D02*
X77875000Y-101595000D01*
G75*
G02*
X77725000Y-101745000I-150000J0D01*
G01*
X75975000Y-101745000D01*
G75*
G02*
X75825000Y-101595000I0J150000D01*
G01*
X75825000Y-101295000D01*
G75*
G02*
X75975000Y-101145000I150000J0D01*
G01*
X77725000Y-101145000D01*
G75*
G02*
X77875000Y-101295000I0J-150000D01*
G01*
G37*
%TD.AperFunction*%
%TO.P,U2,24*%
%TO.N,Net-(J5-Pad4)*%
%TA.AperFunction,SMDPad,CuDef*%
G36*
G01*
X77875000Y-100025000D02*
X77875000Y-100325000D01*
G75*
G02*
X77725000Y-100475000I-150000J0D01*
G01*
X75975000Y-100475000D01*
G75*
G02*
X75825000Y-100325000I0J150000D01*
G01*
X75825000Y-100025000D01*
G75*
G02*
X75975000Y-99875000I150000J0D01*
G01*
X77725000Y-99875000D01*
G75*
G02*
X77875000Y-100025000I0J-150000D01*
G01*
G37*
%TD.AperFunction*%
%TO.P,U2,23*%
%TO.N,Net-(J5-Pad3)*%
%TA.AperFunction,SMDPad,CuDef*%
G36*
G01*
X77875000Y-98755000D02*
X77875000Y-99055000D01*
G75*
G02*
X77725000Y-99205000I-150000J0D01*
G01*
X75975000Y-99205000D01*
G75*
G02*
X75825000Y-99055000I0J150000D01*
G01*
X75825000Y-98755000D01*
G75*
G02*
X75975000Y-98605000I150000J0D01*
G01*
X77725000Y-98605000D01*
G75*
G02*
X77875000Y-98755000I0J-150000D01*
G01*
G37*
%TD.AperFunction*%
%TO.P,U2,22*%
%TO.N,Net-(J5-Pad2)*%
%TA.AperFunction,SMDPad,CuDef*%
G36*
G01*
X77875000Y-97485000D02*
X77875000Y-97785000D01*
G75*
G02*
X77725000Y-97935000I-150000J0D01*
G01*
X75975000Y-97935000D01*
G75*
G02*
X75825000Y-97785000I0J150000D01*
G01*
X75825000Y-97485000D01*
G75*
G02*
X75975000Y-97335000I150000J0D01*
G01*
X77725000Y-97335000D01*
G75*
G02*
X77875000Y-97485000I0J-150000D01*
G01*
G37*
%TD.AperFunction*%
%TO.P,U2,21*%
%TO.N,Net-(J5-Pad1)*%
%TA.AperFunction,SMDPad,CuDef*%
G36*
G01*
X77875000Y-96215000D02*
X77875000Y-96515000D01*
G75*
G02*
X77725000Y-96665000I-150000J0D01*
G01*
X75975000Y-96665000D01*
G75*
G02*
X75825000Y-96515000I0J150000D01*
G01*
X75825000Y-96215000D01*
G75*
G02*
X75975000Y-96065000I150000J0D01*
G01*
X77725000Y-96065000D01*
G75*
G02*
X77875000Y-96215000I0J-150000D01*
G01*
G37*
%TD.AperFunction*%
%TO.P,U2,20*%
%TO.N,N/C*%
%TA.AperFunction,SMDPad,CuDef*%
G36*
G01*
X77875000Y-94945000D02*
X77875000Y-95245000D01*
G75*
G02*
X77725000Y-95395000I-150000J0D01*
G01*
X75975000Y-95395000D01*
G75*
G02*
X75825000Y-95245000I0J150000D01*
G01*
X75825000Y-94945000D01*
G75*
G02*
X75975000Y-94795000I150000J0D01*
G01*
X77725000Y-94795000D01*
G75*
G02*
X77875000Y-94945000I0J-150000D01*
G01*
G37*
%TD.AperFunction*%
%TO.P,U2,19*%
%TA.AperFunction,SMDPad,CuDef*%
G36*
G01*
X77875000Y-93675000D02*
X77875000Y-93975000D01*
G75*
G02*
X77725000Y-94125000I-150000J0D01*
G01*
X75975000Y-94125000D01*
G75*
G02*
X75825000Y-93975000I0J150000D01*
G01*
X75825000Y-93675000D01*
G75*
G02*
X75975000Y-93525000I150000J0D01*
G01*
X77725000Y-93525000D01*
G75*
G02*
X77875000Y-93675000I0J-150000D01*
G01*
G37*
%TD.AperFunction*%
%TO.P,U2,18*%
%TO.N,Net-(R33-Pad2)*%
%TA.AperFunction,SMDPad,CuDef*%
G36*
G01*
X77875000Y-92405000D02*
X77875000Y-92705000D01*
G75*
G02*
X77725000Y-92855000I-150000J0D01*
G01*
X75975000Y-92855000D01*
G75*
G02*
X75825000Y-92705000I0J150000D01*
G01*
X75825000Y-92405000D01*
G75*
G02*
X75975000Y-92255000I150000J0D01*
G01*
X77725000Y-92255000D01*
G75*
G02*
X77875000Y-92405000I0J-150000D01*
G01*
G37*
%TD.AperFunction*%
%TO.P,U2,17*%
%TO.N,GND*%
%TA.AperFunction,SMDPad,CuDef*%
G36*
G01*
X77875000Y-91135000D02*
X77875000Y-91435000D01*
G75*
G02*
X77725000Y-91585000I-150000J0D01*
G01*
X75975000Y-91585000D01*
G75*
G02*
X75825000Y-91435000I0J150000D01*
G01*
X75825000Y-91135000D01*
G75*
G02*
X75975000Y-90985000I150000J0D01*
G01*
X77725000Y-90985000D01*
G75*
G02*
X77875000Y-91135000I0J-150000D01*
G01*
G37*
%TD.AperFunction*%
%TO.P,U2,16*%
%TA.AperFunction,SMDPad,CuDef*%
G36*
G01*
X77875000Y-89865000D02*
X77875000Y-90165000D01*
G75*
G02*
X77725000Y-90315000I-150000J0D01*
G01*
X75975000Y-90315000D01*
G75*
G02*
X75825000Y-90165000I0J150000D01*
G01*
X75825000Y-89865000D01*
G75*
G02*
X75975000Y-89715000I150000J0D01*
G01*
X77725000Y-89715000D01*
G75*
G02*
X77875000Y-89865000I0J-150000D01*
G01*
G37*
%TD.AperFunction*%
%TO.P,U2,15*%
%TO.N,VCC*%
%TA.AperFunction,SMDPad,CuDef*%
G36*
G01*
X77875000Y-88595000D02*
X77875000Y-88895000D01*
G75*
G02*
X77725000Y-89045000I-150000J0D01*
G01*
X75975000Y-89045000D01*
G75*
G02*
X75825000Y-88895000I0J150000D01*
G01*
X75825000Y-88595000D01*
G75*
G02*
X75975000Y-88445000I150000J0D01*
G01*
X77725000Y-88445000D01*
G75*
G02*
X77875000Y-88595000I0J-150000D01*
G01*
G37*
%TD.AperFunction*%
%TO.P,U2,14*%
%TO.N,N/C*%
%TA.AperFunction,SMDPad,CuDef*%
G36*
G01*
X87175000Y-88595000D02*
X87175000Y-88895000D01*
G75*
G02*
X87025000Y-89045000I-150000J0D01*
G01*
X85275000Y-89045000D01*
G75*
G02*
X85125000Y-88895000I0J150000D01*
G01*
X85125000Y-88595000D01*
G75*
G02*
X85275000Y-88445000I150000J0D01*
G01*
X87025000Y-88445000D01*
G75*
G02*
X87175000Y-88595000I0J-150000D01*
G01*
G37*
%TD.AperFunction*%
%TO.P,U2,13*%
%TO.N,Net-(J1-Pad2)*%
%TA.AperFunction,SMDPad,CuDef*%
G36*
G01*
X87175000Y-89865000D02*
X87175000Y-90165000D01*
G75*
G02*
X87025000Y-90315000I-150000J0D01*
G01*
X85275000Y-90315000D01*
G75*
G02*
X85125000Y-90165000I0J150000D01*
G01*
X85125000Y-89865000D01*
G75*
G02*
X85275000Y-89715000I150000J0D01*
G01*
X87025000Y-89715000D01*
G75*
G02*
X87175000Y-89865000I0J-150000D01*
G01*
G37*
%TD.AperFunction*%
%TO.P,U2,12*%
%TO.N,Net-(J1-Pad3)*%
%TA.AperFunction,SMDPad,CuDef*%
G36*
G01*
X87175000Y-91135000D02*
X87175000Y-91435000D01*
G75*
G02*
X87025000Y-91585000I-150000J0D01*
G01*
X85275000Y-91585000D01*
G75*
G02*
X85125000Y-91435000I0J150000D01*
G01*
X85125000Y-91135000D01*
G75*
G02*
X85275000Y-90985000I150000J0D01*
G01*
X87025000Y-90985000D01*
G75*
G02*
X87175000Y-91135000I0J-150000D01*
G01*
G37*
%TD.AperFunction*%
%TO.P,U2,11*%
%TO.N,N/C*%
%TA.AperFunction,SMDPad,CuDef*%
G36*
G01*
X87175000Y-92405000D02*
X87175000Y-92705000D01*
G75*
G02*
X87025000Y-92855000I-150000J0D01*
G01*
X85275000Y-92855000D01*
G75*
G02*
X85125000Y-92705000I0J150000D01*
G01*
X85125000Y-92405000D01*
G75*
G02*
X85275000Y-92255000I150000J0D01*
G01*
X87025000Y-92255000D01*
G75*
G02*
X87175000Y-92405000I0J-150000D01*
G01*
G37*
%TD.AperFunction*%
%TO.P,U2,10*%
%TO.N,GND*%
%TA.AperFunction,SMDPad,CuDef*%
G36*
G01*
X87175000Y-93675000D02*
X87175000Y-93975000D01*
G75*
G02*
X87025000Y-94125000I-150000J0D01*
G01*
X85275000Y-94125000D01*
G75*
G02*
X85125000Y-93975000I0J150000D01*
G01*
X85125000Y-93675000D01*
G75*
G02*
X85275000Y-93525000I150000J0D01*
G01*
X87025000Y-93525000D01*
G75*
G02*
X87175000Y-93675000I0J-150000D01*
G01*
G37*
%TD.AperFunction*%
%TO.P,U2,9*%
%TO.N,VCC*%
%TA.AperFunction,SMDPad,CuDef*%
G36*
G01*
X87175000Y-94945000D02*
X87175000Y-95245000D01*
G75*
G02*
X87025000Y-95395000I-150000J0D01*
G01*
X85275000Y-95395000D01*
G75*
G02*
X85125000Y-95245000I0J150000D01*
G01*
X85125000Y-94945000D01*
G75*
G02*
X85275000Y-94795000I150000J0D01*
G01*
X87025000Y-94795000D01*
G75*
G02*
X87175000Y-94945000I0J-150000D01*
G01*
G37*
%TD.AperFunction*%
%TO.P,U2,8*%
%TO.N,Net-(J4-Pad8)*%
%TA.AperFunction,SMDPad,CuDef*%
G36*
G01*
X87175000Y-96215000D02*
X87175000Y-96515000D01*
G75*
G02*
X87025000Y-96665000I-150000J0D01*
G01*
X85275000Y-96665000D01*
G75*
G02*
X85125000Y-96515000I0J150000D01*
G01*
X85125000Y-96215000D01*
G75*
G02*
X85275000Y-96065000I150000J0D01*
G01*
X87025000Y-96065000D01*
G75*
G02*
X87175000Y-96215000I0J-150000D01*
G01*
G37*
%TD.AperFunction*%
%TO.P,U2,7*%
%TO.N,Net-(J4-Pad7)*%
%TA.AperFunction,SMDPad,CuDef*%
G36*
G01*
X87175000Y-97485000D02*
X87175000Y-97785000D01*
G75*
G02*
X87025000Y-97935000I-150000J0D01*
G01*
X85275000Y-97935000D01*
G75*
G02*
X85125000Y-97785000I0J150000D01*
G01*
X85125000Y-97485000D01*
G75*
G02*
X85275000Y-97335000I150000J0D01*
G01*
X87025000Y-97335000D01*
G75*
G02*
X87175000Y-97485000I0J-150000D01*
G01*
G37*
%TD.AperFunction*%
%TO.P,U2,6*%
%TO.N,Net-(J4-Pad6)*%
%TA.AperFunction,SMDPad,CuDef*%
G36*
G01*
X87175000Y-98755000D02*
X87175000Y-99055000D01*
G75*
G02*
X87025000Y-99205000I-150000J0D01*
G01*
X85275000Y-99205000D01*
G75*
G02*
X85125000Y-99055000I0J150000D01*
G01*
X85125000Y-98755000D01*
G75*
G02*
X85275000Y-98605000I150000J0D01*
G01*
X87025000Y-98605000D01*
G75*
G02*
X87175000Y-98755000I0J-150000D01*
G01*
G37*
%TD.AperFunction*%
%TO.P,U2,5*%
%TO.N,Net-(J4-Pad5)*%
%TA.AperFunction,SMDPad,CuDef*%
G36*
G01*
X87175000Y-100025000D02*
X87175000Y-100325000D01*
G75*
G02*
X87025000Y-100475000I-150000J0D01*
G01*
X85275000Y-100475000D01*
G75*
G02*
X85125000Y-100325000I0J150000D01*
G01*
X85125000Y-100025000D01*
G75*
G02*
X85275000Y-99875000I150000J0D01*
G01*
X87025000Y-99875000D01*
G75*
G02*
X87175000Y-100025000I0J-150000D01*
G01*
G37*
%TD.AperFunction*%
%TO.P,U2,4*%
%TO.N,Net-(J4-Pad4)*%
%TA.AperFunction,SMDPad,CuDef*%
G36*
G01*
X87175000Y-101295000D02*
X87175000Y-101595000D01*
G75*
G02*
X87025000Y-101745000I-150000J0D01*
G01*
X85275000Y-101745000D01*
G75*
G02*
X85125000Y-101595000I0J150000D01*
G01*
X85125000Y-101295000D01*
G75*
G02*
X85275000Y-101145000I150000J0D01*
G01*
X87025000Y-101145000D01*
G75*
G02*
X87175000Y-101295000I0J-150000D01*
G01*
G37*
%TD.AperFunction*%
%TO.P,U2,3*%
%TO.N,Net-(J4-Pad3)*%
%TA.AperFunction,SMDPad,CuDef*%
G36*
G01*
X87175000Y-102565000D02*
X87175000Y-102865000D01*
G75*
G02*
X87025000Y-103015000I-150000J0D01*
G01*
X85275000Y-103015000D01*
G75*
G02*
X85125000Y-102865000I0J150000D01*
G01*
X85125000Y-102565000D01*
G75*
G02*
X85275000Y-102415000I150000J0D01*
G01*
X87025000Y-102415000D01*
G75*
G02*
X87175000Y-102565000I0J-150000D01*
G01*
G37*
%TD.AperFunction*%
%TO.P,U2,2*%
%TO.N,Net-(J4-Pad2)*%
%TA.AperFunction,SMDPad,CuDef*%
G36*
G01*
X87175000Y-103835000D02*
X87175000Y-104135000D01*
G75*
G02*
X87025000Y-104285000I-150000J0D01*
G01*
X85275000Y-104285000D01*
G75*
G02*
X85125000Y-104135000I0J150000D01*
G01*
X85125000Y-103835000D01*
G75*
G02*
X85275000Y-103685000I150000J0D01*
G01*
X87025000Y-103685000D01*
G75*
G02*
X87175000Y-103835000I0J-150000D01*
G01*
G37*
%TD.AperFunction*%
%TO.P,U2,1*%
%TO.N,Net-(J4-Pad1)*%
%TA.AperFunction,SMDPad,CuDef*%
G36*
G01*
X87175000Y-105105000D02*
X87175000Y-105405000D01*
G75*
G02*
X87025000Y-105555000I-150000J0D01*
G01*
X85275000Y-105555000D01*
G75*
G02*
X85125000Y-105405000I0J150000D01*
G01*
X85125000Y-105105000D01*
G75*
G02*
X85275000Y-104955000I150000J0D01*
G01*
X87025000Y-104955000D01*
G75*
G02*
X87175000Y-105105000I0J-150000D01*
G01*
G37*
%TD.AperFunction*%
%TD*%
D10*
%TO.P,J6,2*%
%TO.N,GND*%
X27540000Y-110000000D03*
D11*
%TO.P,J6,1*%
%TO.N,VCC*%
X25000000Y-110000000D03*
%TD*%
D10*
%TO.P,J4,8*%
%TO.N,Net-(J4-Pad8)*%
X76300000Y-84000000D03*
%TO.P,J4,7*%
%TO.N,Net-(J4-Pad7)*%
X78840000Y-84000000D03*
%TO.P,J4,6*%
%TO.N,Net-(J4-Pad6)*%
X81380000Y-84000000D03*
%TO.P,J4,5*%
%TO.N,Net-(J4-Pad5)*%
X83920000Y-84000000D03*
%TO.P,J4,4*%
%TO.N,Net-(J4-Pad4)*%
X86460000Y-84000000D03*
%TO.P,J4,3*%
%TO.N,Net-(J4-Pad3)*%
X89000000Y-84000000D03*
%TO.P,J4,2*%
%TO.N,Net-(J4-Pad2)*%
X91540000Y-84000000D03*
D11*
%TO.P,J4,1*%
%TO.N,Net-(J4-Pad1)*%
X94080000Y-84000000D03*
%TD*%
D10*
%TO.P,J3,8*%
%TO.N,Net-(J3-Pad8)*%
X50080000Y-110000000D03*
%TO.P,J3,7*%
%TO.N,Net-(J3-Pad7)*%
X47540000Y-110000000D03*
%TO.P,J3,6*%
%TO.N,Net-(J3-Pad6)*%
X45000000Y-110000000D03*
%TO.P,J3,5*%
%TO.N,Net-(J3-Pad5)*%
X42460000Y-110000000D03*
%TO.P,J3,4*%
%TO.N,Net-(J3-Pad4)*%
X39920000Y-110000000D03*
%TO.P,J3,3*%
%TO.N,Net-(J3-Pad3)*%
X37380000Y-110000000D03*
%TO.P,J3,2*%
%TO.N,Net-(J3-Pad2)*%
X34840000Y-110000000D03*
D11*
%TO.P,J3,1*%
%TO.N,Net-(J3-Pad1)*%
X32300000Y-110000000D03*
%TD*%
D10*
%TO.P,J2,8*%
%TO.N,Net-(J2-Pad8)*%
X31720000Y-84500000D03*
%TO.P,J2,7*%
%TO.N,Net-(J2-Pad7)*%
X34260000Y-84500000D03*
%TO.P,J2,6*%
%TO.N,Net-(J2-Pad6)*%
X36800000Y-84500000D03*
%TO.P,J2,5*%
%TO.N,Net-(J2-Pad5)*%
X39340000Y-84500000D03*
%TO.P,J2,4*%
%TO.N,Net-(J2-Pad4)*%
X41880000Y-84500000D03*
%TO.P,J2,3*%
%TO.N,Net-(J2-Pad3)*%
X44420000Y-84500000D03*
%TO.P,J2,2*%
%TO.N,Net-(J2-Pad2)*%
X46960000Y-84500000D03*
D11*
%TO.P,J2,1*%
%TO.N,Net-(J2-Pad1)*%
X49500000Y-84500000D03*
%TD*%
D10*
%TO.P,J1,4*%
%TO.N,GND*%
X60380000Y-110000000D03*
%TO.P,J1,3*%
%TO.N,Net-(J1-Pad3)*%
X62920000Y-110000000D03*
%TO.P,J1,2*%
%TO.N,Net-(J1-Pad2)*%
X65460000Y-110000000D03*
D11*
%TO.P,J1,1*%
%TO.N,VCC*%
X68000000Y-110000000D03*
%TD*%
%TO.P,U1,28*%
%TO.N,Net-(J3-Pad8)*%
%TA.AperFunction,SMDPad,CuDef*%
G36*
G01*
X46625000Y-88395000D02*
X46625000Y-88095000D01*
G75*
G02*
X46775000Y-87945000I150000J0D01*
G01*
X48525000Y-87945000D01*
G75*
G02*
X48675000Y-88095000I0J-150000D01*
G01*
X48675000Y-88395000D01*
G75*
G02*
X48525000Y-88545000I-150000J0D01*
G01*
X46775000Y-88545000D01*
G75*
G02*
X46625000Y-88395000I0J150000D01*
G01*
G37*
%TD.AperFunction*%
%TO.P,U1,27*%
%TO.N,Net-(J3-Pad7)*%
%TA.AperFunction,SMDPad,CuDef*%
G36*
G01*
X46625000Y-89665000D02*
X46625000Y-89365000D01*
G75*
G02*
X46775000Y-89215000I150000J0D01*
G01*
X48525000Y-89215000D01*
G75*
G02*
X48675000Y-89365000I0J-150000D01*
G01*
X48675000Y-89665000D01*
G75*
G02*
X48525000Y-89815000I-150000J0D01*
G01*
X46775000Y-89815000D01*
G75*
G02*
X46625000Y-89665000I0J150000D01*
G01*
G37*
%TD.AperFunction*%
%TO.P,U1,26*%
%TO.N,Net-(J3-Pad6)*%
%TA.AperFunction,SMDPad,CuDef*%
G36*
G01*
X46625000Y-90935000D02*
X46625000Y-90635000D01*
G75*
G02*
X46775000Y-90485000I150000J0D01*
G01*
X48525000Y-90485000D01*
G75*
G02*
X48675000Y-90635000I0J-150000D01*
G01*
X48675000Y-90935000D01*
G75*
G02*
X48525000Y-91085000I-150000J0D01*
G01*
X46775000Y-91085000D01*
G75*
G02*
X46625000Y-90935000I0J150000D01*
G01*
G37*
%TD.AperFunction*%
%TO.P,U1,25*%
%TO.N,Net-(J3-Pad5)*%
%TA.AperFunction,SMDPad,CuDef*%
G36*
G01*
X46625000Y-92205000D02*
X46625000Y-91905000D01*
G75*
G02*
X46775000Y-91755000I150000J0D01*
G01*
X48525000Y-91755000D01*
G75*
G02*
X48675000Y-91905000I0J-150000D01*
G01*
X48675000Y-92205000D01*
G75*
G02*
X48525000Y-92355000I-150000J0D01*
G01*
X46775000Y-92355000D01*
G75*
G02*
X46625000Y-92205000I0J150000D01*
G01*
G37*
%TD.AperFunction*%
%TO.P,U1,24*%
%TO.N,Net-(J3-Pad4)*%
%TA.AperFunction,SMDPad,CuDef*%
G36*
G01*
X46625000Y-93475000D02*
X46625000Y-93175000D01*
G75*
G02*
X46775000Y-93025000I150000J0D01*
G01*
X48525000Y-93025000D01*
G75*
G02*
X48675000Y-93175000I0J-150000D01*
G01*
X48675000Y-93475000D01*
G75*
G02*
X48525000Y-93625000I-150000J0D01*
G01*
X46775000Y-93625000D01*
G75*
G02*
X46625000Y-93475000I0J150000D01*
G01*
G37*
%TD.AperFunction*%
%TO.P,U1,23*%
%TO.N,Net-(J3-Pad3)*%
%TA.AperFunction,SMDPad,CuDef*%
G36*
G01*
X46625000Y-94745000D02*
X46625000Y-94445000D01*
G75*
G02*
X46775000Y-94295000I150000J0D01*
G01*
X48525000Y-94295000D01*
G75*
G02*
X48675000Y-94445000I0J-150000D01*
G01*
X48675000Y-94745000D01*
G75*
G02*
X48525000Y-94895000I-150000J0D01*
G01*
X46775000Y-94895000D01*
G75*
G02*
X46625000Y-94745000I0J150000D01*
G01*
G37*
%TD.AperFunction*%
%TO.P,U1,22*%
%TO.N,Net-(J3-Pad2)*%
%TA.AperFunction,SMDPad,CuDef*%
G36*
G01*
X46625000Y-96015000D02*
X46625000Y-95715000D01*
G75*
G02*
X46775000Y-95565000I150000J0D01*
G01*
X48525000Y-95565000D01*
G75*
G02*
X48675000Y-95715000I0J-150000D01*
G01*
X48675000Y-96015000D01*
G75*
G02*
X48525000Y-96165000I-150000J0D01*
G01*
X46775000Y-96165000D01*
G75*
G02*
X46625000Y-96015000I0J150000D01*
G01*
G37*
%TD.AperFunction*%
%TO.P,U1,21*%
%TO.N,Net-(J3-Pad1)*%
%TA.AperFunction,SMDPad,CuDef*%
G36*
G01*
X46625000Y-97285000D02*
X46625000Y-96985000D01*
G75*
G02*
X46775000Y-96835000I150000J0D01*
G01*
X48525000Y-96835000D01*
G75*
G02*
X48675000Y-96985000I0J-150000D01*
G01*
X48675000Y-97285000D01*
G75*
G02*
X48525000Y-97435000I-150000J0D01*
G01*
X46775000Y-97435000D01*
G75*
G02*
X46625000Y-97285000I0J150000D01*
G01*
G37*
%TD.AperFunction*%
%TO.P,U1,20*%
%TO.N,N/C*%
%TA.AperFunction,SMDPad,CuDef*%
G36*
G01*
X46625000Y-98555000D02*
X46625000Y-98255000D01*
G75*
G02*
X46775000Y-98105000I150000J0D01*
G01*
X48525000Y-98105000D01*
G75*
G02*
X48675000Y-98255000I0J-150000D01*
G01*
X48675000Y-98555000D01*
G75*
G02*
X48525000Y-98705000I-150000J0D01*
G01*
X46775000Y-98705000D01*
G75*
G02*
X46625000Y-98555000I0J150000D01*
G01*
G37*
%TD.AperFunction*%
%TO.P,U1,19*%
%TA.AperFunction,SMDPad,CuDef*%
G36*
G01*
X46625000Y-99825000D02*
X46625000Y-99525000D01*
G75*
G02*
X46775000Y-99375000I150000J0D01*
G01*
X48525000Y-99375000D01*
G75*
G02*
X48675000Y-99525000I0J-150000D01*
G01*
X48675000Y-99825000D01*
G75*
G02*
X48525000Y-99975000I-150000J0D01*
G01*
X46775000Y-99975000D01*
G75*
G02*
X46625000Y-99825000I0J150000D01*
G01*
G37*
%TD.AperFunction*%
%TO.P,U1,18*%
%TO.N,Net-(R34-Pad2)*%
%TA.AperFunction,SMDPad,CuDef*%
G36*
G01*
X46625000Y-101095000D02*
X46625000Y-100795000D01*
G75*
G02*
X46775000Y-100645000I150000J0D01*
G01*
X48525000Y-100645000D01*
G75*
G02*
X48675000Y-100795000I0J-150000D01*
G01*
X48675000Y-101095000D01*
G75*
G02*
X48525000Y-101245000I-150000J0D01*
G01*
X46775000Y-101245000D01*
G75*
G02*
X46625000Y-101095000I0J150000D01*
G01*
G37*
%TD.AperFunction*%
%TO.P,U1,17*%
%TO.N,GND*%
%TA.AperFunction,SMDPad,CuDef*%
G36*
G01*
X46625000Y-102365000D02*
X46625000Y-102065000D01*
G75*
G02*
X46775000Y-101915000I150000J0D01*
G01*
X48525000Y-101915000D01*
G75*
G02*
X48675000Y-102065000I0J-150000D01*
G01*
X48675000Y-102365000D01*
G75*
G02*
X48525000Y-102515000I-150000J0D01*
G01*
X46775000Y-102515000D01*
G75*
G02*
X46625000Y-102365000I0J150000D01*
G01*
G37*
%TD.AperFunction*%
%TO.P,U1,16*%
%TA.AperFunction,SMDPad,CuDef*%
G36*
G01*
X46625000Y-103635000D02*
X46625000Y-103335000D01*
G75*
G02*
X46775000Y-103185000I150000J0D01*
G01*
X48525000Y-103185000D01*
G75*
G02*
X48675000Y-103335000I0J-150000D01*
G01*
X48675000Y-103635000D01*
G75*
G02*
X48525000Y-103785000I-150000J0D01*
G01*
X46775000Y-103785000D01*
G75*
G02*
X46625000Y-103635000I0J150000D01*
G01*
G37*
%TD.AperFunction*%
%TO.P,U1,15*%
%TA.AperFunction,SMDPad,CuDef*%
G36*
G01*
X46625000Y-104905000D02*
X46625000Y-104605000D01*
G75*
G02*
X46775000Y-104455000I150000J0D01*
G01*
X48525000Y-104455000D01*
G75*
G02*
X48675000Y-104605000I0J-150000D01*
G01*
X48675000Y-104905000D01*
G75*
G02*
X48525000Y-105055000I-150000J0D01*
G01*
X46775000Y-105055000D01*
G75*
G02*
X46625000Y-104905000I0J150000D01*
G01*
G37*
%TD.AperFunction*%
%TO.P,U1,14*%
%TO.N,N/C*%
%TA.AperFunction,SMDPad,CuDef*%
G36*
G01*
X37325000Y-104905000D02*
X37325000Y-104605000D01*
G75*
G02*
X37475000Y-104455000I150000J0D01*
G01*
X39225000Y-104455000D01*
G75*
G02*
X39375000Y-104605000I0J-150000D01*
G01*
X39375000Y-104905000D01*
G75*
G02*
X39225000Y-105055000I-150000J0D01*
G01*
X37475000Y-105055000D01*
G75*
G02*
X37325000Y-104905000I0J150000D01*
G01*
G37*
%TD.AperFunction*%
%TO.P,U1,13*%
%TO.N,Net-(J1-Pad2)*%
%TA.AperFunction,SMDPad,CuDef*%
G36*
G01*
X37325000Y-103635000D02*
X37325000Y-103335000D01*
G75*
G02*
X37475000Y-103185000I150000J0D01*
G01*
X39225000Y-103185000D01*
G75*
G02*
X39375000Y-103335000I0J-150000D01*
G01*
X39375000Y-103635000D01*
G75*
G02*
X39225000Y-103785000I-150000J0D01*
G01*
X37475000Y-103785000D01*
G75*
G02*
X37325000Y-103635000I0J150000D01*
G01*
G37*
%TD.AperFunction*%
%TO.P,U1,12*%
%TO.N,Net-(J1-Pad3)*%
%TA.AperFunction,SMDPad,CuDef*%
G36*
G01*
X37325000Y-102365000D02*
X37325000Y-102065000D01*
G75*
G02*
X37475000Y-101915000I150000J0D01*
G01*
X39225000Y-101915000D01*
G75*
G02*
X39375000Y-102065000I0J-150000D01*
G01*
X39375000Y-102365000D01*
G75*
G02*
X39225000Y-102515000I-150000J0D01*
G01*
X37475000Y-102515000D01*
G75*
G02*
X37325000Y-102365000I0J150000D01*
G01*
G37*
%TD.AperFunction*%
%TO.P,U1,11*%
%TO.N,N/C*%
%TA.AperFunction,SMDPad,CuDef*%
G36*
G01*
X37325000Y-101095000D02*
X37325000Y-100795000D01*
G75*
G02*
X37475000Y-100645000I150000J0D01*
G01*
X39225000Y-100645000D01*
G75*
G02*
X39375000Y-100795000I0J-150000D01*
G01*
X39375000Y-101095000D01*
G75*
G02*
X39225000Y-101245000I-150000J0D01*
G01*
X37475000Y-101245000D01*
G75*
G02*
X37325000Y-101095000I0J150000D01*
G01*
G37*
%TD.AperFunction*%
%TO.P,U1,10*%
%TO.N,GND*%
%TA.AperFunction,SMDPad,CuDef*%
G36*
G01*
X37325000Y-99825000D02*
X37325000Y-99525000D01*
G75*
G02*
X37475000Y-99375000I150000J0D01*
G01*
X39225000Y-99375000D01*
G75*
G02*
X39375000Y-99525000I0J-150000D01*
G01*
X39375000Y-99825000D01*
G75*
G02*
X39225000Y-99975000I-150000J0D01*
G01*
X37475000Y-99975000D01*
G75*
G02*
X37325000Y-99825000I0J150000D01*
G01*
G37*
%TD.AperFunction*%
%TO.P,U1,9*%
%TO.N,VCC*%
%TA.AperFunction,SMDPad,CuDef*%
G36*
G01*
X37325000Y-98555000D02*
X37325000Y-98255000D01*
G75*
G02*
X37475000Y-98105000I150000J0D01*
G01*
X39225000Y-98105000D01*
G75*
G02*
X39375000Y-98255000I0J-150000D01*
G01*
X39375000Y-98555000D01*
G75*
G02*
X39225000Y-98705000I-150000J0D01*
G01*
X37475000Y-98705000D01*
G75*
G02*
X37325000Y-98555000I0J150000D01*
G01*
G37*
%TD.AperFunction*%
%TO.P,U1,8*%
%TO.N,Net-(J2-Pad8)*%
%TA.AperFunction,SMDPad,CuDef*%
G36*
G01*
X37325000Y-97285000D02*
X37325000Y-96985000D01*
G75*
G02*
X37475000Y-96835000I150000J0D01*
G01*
X39225000Y-96835000D01*
G75*
G02*
X39375000Y-96985000I0J-150000D01*
G01*
X39375000Y-97285000D01*
G75*
G02*
X39225000Y-97435000I-150000J0D01*
G01*
X37475000Y-97435000D01*
G75*
G02*
X37325000Y-97285000I0J150000D01*
G01*
G37*
%TD.AperFunction*%
%TO.P,U1,7*%
%TO.N,Net-(J2-Pad7)*%
%TA.AperFunction,SMDPad,CuDef*%
G36*
G01*
X37325000Y-96015000D02*
X37325000Y-95715000D01*
G75*
G02*
X37475000Y-95565000I150000J0D01*
G01*
X39225000Y-95565000D01*
G75*
G02*
X39375000Y-95715000I0J-150000D01*
G01*
X39375000Y-96015000D01*
G75*
G02*
X39225000Y-96165000I-150000J0D01*
G01*
X37475000Y-96165000D01*
G75*
G02*
X37325000Y-96015000I0J150000D01*
G01*
G37*
%TD.AperFunction*%
%TO.P,U1,6*%
%TO.N,Net-(J2-Pad6)*%
%TA.AperFunction,SMDPad,CuDef*%
G36*
G01*
X37325000Y-94745000D02*
X37325000Y-94445000D01*
G75*
G02*
X37475000Y-94295000I150000J0D01*
G01*
X39225000Y-94295000D01*
G75*
G02*
X39375000Y-94445000I0J-150000D01*
G01*
X39375000Y-94745000D01*
G75*
G02*
X39225000Y-94895000I-150000J0D01*
G01*
X37475000Y-94895000D01*
G75*
G02*
X37325000Y-94745000I0J150000D01*
G01*
G37*
%TD.AperFunction*%
%TO.P,U1,5*%
%TO.N,Net-(J2-Pad5)*%
%TA.AperFunction,SMDPad,CuDef*%
G36*
G01*
X37325000Y-93475000D02*
X37325000Y-93175000D01*
G75*
G02*
X37475000Y-93025000I150000J0D01*
G01*
X39225000Y-93025000D01*
G75*
G02*
X39375000Y-93175000I0J-150000D01*
G01*
X39375000Y-93475000D01*
G75*
G02*
X39225000Y-93625000I-150000J0D01*
G01*
X37475000Y-93625000D01*
G75*
G02*
X37325000Y-93475000I0J150000D01*
G01*
G37*
%TD.AperFunction*%
%TO.P,U1,4*%
%TO.N,Net-(J2-Pad4)*%
%TA.AperFunction,SMDPad,CuDef*%
G36*
G01*
X37325000Y-92205000D02*
X37325000Y-91905000D01*
G75*
G02*
X37475000Y-91755000I150000J0D01*
G01*
X39225000Y-91755000D01*
G75*
G02*
X39375000Y-91905000I0J-150000D01*
G01*
X39375000Y-92205000D01*
G75*
G02*
X39225000Y-92355000I-150000J0D01*
G01*
X37475000Y-92355000D01*
G75*
G02*
X37325000Y-92205000I0J150000D01*
G01*
G37*
%TD.AperFunction*%
%TO.P,U1,3*%
%TO.N,Net-(J2-Pad3)*%
%TA.AperFunction,SMDPad,CuDef*%
G36*
G01*
X37325000Y-90935000D02*
X37325000Y-90635000D01*
G75*
G02*
X37475000Y-90485000I150000J0D01*
G01*
X39225000Y-90485000D01*
G75*
G02*
X39375000Y-90635000I0J-150000D01*
G01*
X39375000Y-90935000D01*
G75*
G02*
X39225000Y-91085000I-150000J0D01*
G01*
X37475000Y-91085000D01*
G75*
G02*
X37325000Y-90935000I0J150000D01*
G01*
G37*
%TD.AperFunction*%
%TO.P,U1,2*%
%TO.N,Net-(J2-Pad2)*%
%TA.AperFunction,SMDPad,CuDef*%
G36*
G01*
X37325000Y-89665000D02*
X37325000Y-89365000D01*
G75*
G02*
X37475000Y-89215000I150000J0D01*
G01*
X39225000Y-89215000D01*
G75*
G02*
X39375000Y-89365000I0J-150000D01*
G01*
X39375000Y-89665000D01*
G75*
G02*
X39225000Y-89815000I-150000J0D01*
G01*
X37475000Y-89815000D01*
G75*
G02*
X37325000Y-89665000I0J150000D01*
G01*
G37*
%TD.AperFunction*%
%TO.P,U1,1*%
%TO.N,Net-(J2-Pad1)*%
%TA.AperFunction,SMDPad,CuDef*%
G36*
G01*
X37325000Y-88395000D02*
X37325000Y-88095000D01*
G75*
G02*
X37475000Y-87945000I150000J0D01*
G01*
X39225000Y-87945000D01*
G75*
G02*
X39375000Y-88095000I0J-150000D01*
G01*
X39375000Y-88395000D01*
G75*
G02*
X39225000Y-88545000I-150000J0D01*
G01*
X37475000Y-88545000D01*
G75*
G02*
X37325000Y-88395000I0J150000D01*
G01*
G37*
%TD.AperFunction*%
%TD*%
%TO.P,R34,2*%
%TO.N,Net-(R34-Pad2)*%
%TA.AperFunction,SMDPad,CuDef*%
G36*
G01*
X57874999Y-94437500D02*
X59125001Y-94437500D01*
G75*
G02*
X59375000Y-94687499I0J-249999D01*
G01*
X59375000Y-95312501D01*
G75*
G02*
X59125001Y-95562500I-249999J0D01*
G01*
X57874999Y-95562500D01*
G75*
G02*
X57625000Y-95312501I0J249999D01*
G01*
X57625000Y-94687499D01*
G75*
G02*
X57874999Y-94437500I249999J0D01*
G01*
G37*
%TD.AperFunction*%
%TO.P,R34,1*%
%TO.N,VCC*%
%TA.AperFunction,SMDPad,CuDef*%
G36*
G01*
X57874999Y-91512500D02*
X59125001Y-91512500D01*
G75*
G02*
X59375000Y-91762499I0J-249999D01*
G01*
X59375000Y-92387501D01*
G75*
G02*
X59125001Y-92637500I-249999J0D01*
G01*
X57874999Y-92637500D01*
G75*
G02*
X57625000Y-92387501I0J249999D01*
G01*
X57625000Y-91762499D01*
G75*
G02*
X57874999Y-91512500I249999J0D01*
G01*
G37*
%TD.AperFunction*%
%TD*%
%TO.P,R33,2*%
%TO.N,Net-(R33-Pad2)*%
%TA.AperFunction,SMDPad,CuDef*%
G36*
G01*
X93125001Y-97062500D02*
X91874999Y-97062500D01*
G75*
G02*
X91625000Y-96812501I0J249999D01*
G01*
X91625000Y-96187499D01*
G75*
G02*
X91874999Y-95937500I249999J0D01*
G01*
X93125001Y-95937500D01*
G75*
G02*
X93375000Y-96187499I0J-249999D01*
G01*
X93375000Y-96812501D01*
G75*
G02*
X93125001Y-97062500I-249999J0D01*
G01*
G37*
%TD.AperFunction*%
%TO.P,R33,1*%
%TO.N,VCC*%
%TA.AperFunction,SMDPad,CuDef*%
G36*
G01*
X93125001Y-99987500D02*
X91874999Y-99987500D01*
G75*
G02*
X91625000Y-99737501I0J249999D01*
G01*
X91625000Y-99112499D01*
G75*
G02*
X91874999Y-98862500I249999J0D01*
G01*
X93125001Y-98862500D01*
G75*
G02*
X93375000Y-99112499I0J-249999D01*
G01*
X93375000Y-99737501D01*
G75*
G02*
X93125001Y-99987500I-249999J0D01*
G01*
G37*
%TD.AperFunction*%
%TD*%
%TO.P,R32,2*%
%TO.N,Net-(J4-Pad1)*%
%TA.AperFunction,SMDPad,CuDef*%
G36*
G01*
X101374999Y-78937500D02*
X102625001Y-78937500D01*
G75*
G02*
X102875000Y-79187499I0J-249999D01*
G01*
X102875000Y-79812501D01*
G75*
G02*
X102625001Y-80062500I-249999J0D01*
G01*
X101374999Y-80062500D01*
G75*
G02*
X101125000Y-79812501I0J249999D01*
G01*
X101125000Y-79187499D01*
G75*
G02*
X101374999Y-78937500I249999J0D01*
G01*
G37*
%TD.AperFunction*%
%TO.P,R32,1*%
%TO.N,Net-(D32-Pad2)*%
%TA.AperFunction,SMDPad,CuDef*%
G36*
G01*
X101374999Y-76012500D02*
X102625001Y-76012500D01*
G75*
G02*
X102875000Y-76262499I0J-249999D01*
G01*
X102875000Y-76887501D01*
G75*
G02*
X102625001Y-77137500I-249999J0D01*
G01*
X101374999Y-77137500D01*
G75*
G02*
X101125000Y-76887501I0J249999D01*
G01*
X101125000Y-76262499D01*
G75*
G02*
X101374999Y-76012500I249999J0D01*
G01*
G37*
%TD.AperFunction*%
%TD*%
%TO.P,R31,2*%
%TO.N,Net-(J4-Pad2)*%
%TA.AperFunction,SMDPad,CuDef*%
G36*
G01*
X98874999Y-78937500D02*
X100125001Y-78937500D01*
G75*
G02*
X100375000Y-79187499I0J-249999D01*
G01*
X100375000Y-79812501D01*
G75*
G02*
X100125001Y-80062500I-249999J0D01*
G01*
X98874999Y-80062500D01*
G75*
G02*
X98625000Y-79812501I0J249999D01*
G01*
X98625000Y-79187499D01*
G75*
G02*
X98874999Y-78937500I249999J0D01*
G01*
G37*
%TD.AperFunction*%
%TO.P,R31,1*%
%TO.N,Net-(D31-Pad2)*%
%TA.AperFunction,SMDPad,CuDef*%
G36*
G01*
X98874999Y-76012500D02*
X100125001Y-76012500D01*
G75*
G02*
X100375000Y-76262499I0J-249999D01*
G01*
X100375000Y-76887501D01*
G75*
G02*
X100125001Y-77137500I-249999J0D01*
G01*
X98874999Y-77137500D01*
G75*
G02*
X98625000Y-76887501I0J249999D01*
G01*
X98625000Y-76262499D01*
G75*
G02*
X98874999Y-76012500I249999J0D01*
G01*
G37*
%TD.AperFunction*%
%TD*%
%TO.P,R30,2*%
%TO.N,Net-(J4-Pad3)*%
%TA.AperFunction,SMDPad,CuDef*%
G36*
G01*
X96374999Y-78937500D02*
X97625001Y-78937500D01*
G75*
G02*
X97875000Y-79187499I0J-249999D01*
G01*
X97875000Y-79812501D01*
G75*
G02*
X97625001Y-80062500I-249999J0D01*
G01*
X96374999Y-80062500D01*
G75*
G02*
X96125000Y-79812501I0J249999D01*
G01*
X96125000Y-79187499D01*
G75*
G02*
X96374999Y-78937500I249999J0D01*
G01*
G37*
%TD.AperFunction*%
%TO.P,R30,1*%
%TO.N,Net-(D30-Pad2)*%
%TA.AperFunction,SMDPad,CuDef*%
G36*
G01*
X96374999Y-76012500D02*
X97625001Y-76012500D01*
G75*
G02*
X97875000Y-76262499I0J-249999D01*
G01*
X97875000Y-76887501D01*
G75*
G02*
X97625001Y-77137500I-249999J0D01*
G01*
X96374999Y-77137500D01*
G75*
G02*
X96125000Y-76887501I0J249999D01*
G01*
X96125000Y-76262499D01*
G75*
G02*
X96374999Y-76012500I249999J0D01*
G01*
G37*
%TD.AperFunction*%
%TD*%
%TO.P,R29,2*%
%TO.N,Net-(J4-Pad4)*%
%TA.AperFunction,SMDPad,CuDef*%
G36*
G01*
X93874999Y-78937500D02*
X95125001Y-78937500D01*
G75*
G02*
X95375000Y-79187499I0J-249999D01*
G01*
X95375000Y-79812501D01*
G75*
G02*
X95125001Y-80062500I-249999J0D01*
G01*
X93874999Y-80062500D01*
G75*
G02*
X93625000Y-79812501I0J249999D01*
G01*
X93625000Y-79187499D01*
G75*
G02*
X93874999Y-78937500I249999J0D01*
G01*
G37*
%TD.AperFunction*%
%TO.P,R29,1*%
%TO.N,Net-(D29-Pad2)*%
%TA.AperFunction,SMDPad,CuDef*%
G36*
G01*
X93874999Y-76012500D02*
X95125001Y-76012500D01*
G75*
G02*
X95375000Y-76262499I0J-249999D01*
G01*
X95375000Y-76887501D01*
G75*
G02*
X95125001Y-77137500I-249999J0D01*
G01*
X93874999Y-77137500D01*
G75*
G02*
X93625000Y-76887501I0J249999D01*
G01*
X93625000Y-76262499D01*
G75*
G02*
X93874999Y-76012500I249999J0D01*
G01*
G37*
%TD.AperFunction*%
%TD*%
%TO.P,R28,2*%
%TO.N,Net-(J4-Pad5)*%
%TA.AperFunction,SMDPad,CuDef*%
G36*
G01*
X91374999Y-78937500D02*
X92625001Y-78937500D01*
G75*
G02*
X92875000Y-79187499I0J-249999D01*
G01*
X92875000Y-79812501D01*
G75*
G02*
X92625001Y-80062500I-249999J0D01*
G01*
X91374999Y-80062500D01*
G75*
G02*
X91125000Y-79812501I0J249999D01*
G01*
X91125000Y-79187499D01*
G75*
G02*
X91374999Y-78937500I249999J0D01*
G01*
G37*
%TD.AperFunction*%
%TO.P,R28,1*%
%TO.N,Net-(D28-Pad2)*%
%TA.AperFunction,SMDPad,CuDef*%
G36*
G01*
X91374999Y-76012500D02*
X92625001Y-76012500D01*
G75*
G02*
X92875000Y-76262499I0J-249999D01*
G01*
X92875000Y-76887501D01*
G75*
G02*
X92625001Y-77137500I-249999J0D01*
G01*
X91374999Y-77137500D01*
G75*
G02*
X91125000Y-76887501I0J249999D01*
G01*
X91125000Y-76262499D01*
G75*
G02*
X91374999Y-76012500I249999J0D01*
G01*
G37*
%TD.AperFunction*%
%TD*%
%TO.P,R27,2*%
%TO.N,Net-(J4-Pad6)*%
%TA.AperFunction,SMDPad,CuDef*%
G36*
G01*
X88874999Y-78937500D02*
X90125001Y-78937500D01*
G75*
G02*
X90375000Y-79187499I0J-249999D01*
G01*
X90375000Y-79812501D01*
G75*
G02*
X90125001Y-80062500I-249999J0D01*
G01*
X88874999Y-80062500D01*
G75*
G02*
X88625000Y-79812501I0J249999D01*
G01*
X88625000Y-79187499D01*
G75*
G02*
X88874999Y-78937500I249999J0D01*
G01*
G37*
%TD.AperFunction*%
%TO.P,R27,1*%
%TO.N,Net-(D27-Pad2)*%
%TA.AperFunction,SMDPad,CuDef*%
G36*
G01*
X88874999Y-76012500D02*
X90125001Y-76012500D01*
G75*
G02*
X90375000Y-76262499I0J-249999D01*
G01*
X90375000Y-76887501D01*
G75*
G02*
X90125001Y-77137500I-249999J0D01*
G01*
X88874999Y-77137500D01*
G75*
G02*
X88625000Y-76887501I0J249999D01*
G01*
X88625000Y-76262499D01*
G75*
G02*
X88874999Y-76012500I249999J0D01*
G01*
G37*
%TD.AperFunction*%
%TD*%
%TO.P,R26,2*%
%TO.N,Net-(J4-Pad7)*%
%TA.AperFunction,SMDPad,CuDef*%
G36*
G01*
X86374999Y-78937500D02*
X87625001Y-78937500D01*
G75*
G02*
X87875000Y-79187499I0J-249999D01*
G01*
X87875000Y-79812501D01*
G75*
G02*
X87625001Y-80062500I-249999J0D01*
G01*
X86374999Y-80062500D01*
G75*
G02*
X86125000Y-79812501I0J249999D01*
G01*
X86125000Y-79187499D01*
G75*
G02*
X86374999Y-78937500I249999J0D01*
G01*
G37*
%TD.AperFunction*%
%TO.P,R26,1*%
%TO.N,Net-(D26-Pad2)*%
%TA.AperFunction,SMDPad,CuDef*%
G36*
G01*
X86374999Y-76012500D02*
X87625001Y-76012500D01*
G75*
G02*
X87875000Y-76262499I0J-249999D01*
G01*
X87875000Y-76887501D01*
G75*
G02*
X87625001Y-77137500I-249999J0D01*
G01*
X86374999Y-77137500D01*
G75*
G02*
X86125000Y-76887501I0J249999D01*
G01*
X86125000Y-76262499D01*
G75*
G02*
X86374999Y-76012500I249999J0D01*
G01*
G37*
%TD.AperFunction*%
%TD*%
%TO.P,R25,2*%
%TO.N,Net-(J4-Pad8)*%
%TA.AperFunction,SMDPad,CuDef*%
G36*
G01*
X83874999Y-78937500D02*
X85125001Y-78937500D01*
G75*
G02*
X85375000Y-79187499I0J-249999D01*
G01*
X85375000Y-79812501D01*
G75*
G02*
X85125001Y-80062500I-249999J0D01*
G01*
X83874999Y-80062500D01*
G75*
G02*
X83625000Y-79812501I0J249999D01*
G01*
X83625000Y-79187499D01*
G75*
G02*
X83874999Y-78937500I249999J0D01*
G01*
G37*
%TD.AperFunction*%
%TO.P,R25,1*%
%TO.N,Net-(D25-Pad2)*%
%TA.AperFunction,SMDPad,CuDef*%
G36*
G01*
X83874999Y-76012500D02*
X85125001Y-76012500D01*
G75*
G02*
X85375000Y-76262499I0J-249999D01*
G01*
X85375000Y-76887501D01*
G75*
G02*
X85125001Y-77137500I-249999J0D01*
G01*
X83874999Y-77137500D01*
G75*
G02*
X83625000Y-76887501I0J249999D01*
G01*
X83625000Y-76262499D01*
G75*
G02*
X83874999Y-76012500I249999J0D01*
G01*
G37*
%TD.AperFunction*%
%TD*%
%TO.P,R24,2*%
%TO.N,Net-(J5-Pad1)*%
%TA.AperFunction,SMDPad,CuDef*%
G36*
G01*
X81374999Y-78937500D02*
X82625001Y-78937500D01*
G75*
G02*
X82875000Y-79187499I0J-249999D01*
G01*
X82875000Y-79812501D01*
G75*
G02*
X82625001Y-80062500I-249999J0D01*
G01*
X81374999Y-80062500D01*
G75*
G02*
X81125000Y-79812501I0J249999D01*
G01*
X81125000Y-79187499D01*
G75*
G02*
X81374999Y-78937500I249999J0D01*
G01*
G37*
%TD.AperFunction*%
%TO.P,R24,1*%
%TO.N,Net-(D24-Pad2)*%
%TA.AperFunction,SMDPad,CuDef*%
G36*
G01*
X81374999Y-76012500D02*
X82625001Y-76012500D01*
G75*
G02*
X82875000Y-76262499I0J-249999D01*
G01*
X82875000Y-76887501D01*
G75*
G02*
X82625001Y-77137500I-249999J0D01*
G01*
X81374999Y-77137500D01*
G75*
G02*
X81125000Y-76887501I0J249999D01*
G01*
X81125000Y-76262499D01*
G75*
G02*
X81374999Y-76012500I249999J0D01*
G01*
G37*
%TD.AperFunction*%
%TD*%
%TO.P,R23,2*%
%TO.N,Net-(J5-Pad2)*%
%TA.AperFunction,SMDPad,CuDef*%
G36*
G01*
X78874999Y-78937500D02*
X80125001Y-78937500D01*
G75*
G02*
X80375000Y-79187499I0J-249999D01*
G01*
X80375000Y-79812501D01*
G75*
G02*
X80125001Y-80062500I-249999J0D01*
G01*
X78874999Y-80062500D01*
G75*
G02*
X78625000Y-79812501I0J249999D01*
G01*
X78625000Y-79187499D01*
G75*
G02*
X78874999Y-78937500I249999J0D01*
G01*
G37*
%TD.AperFunction*%
%TO.P,R23,1*%
%TO.N,Net-(D23-Pad2)*%
%TA.AperFunction,SMDPad,CuDef*%
G36*
G01*
X78874999Y-76012500D02*
X80125001Y-76012500D01*
G75*
G02*
X80375000Y-76262499I0J-249999D01*
G01*
X80375000Y-76887501D01*
G75*
G02*
X80125001Y-77137500I-249999J0D01*
G01*
X78874999Y-77137500D01*
G75*
G02*
X78625000Y-76887501I0J249999D01*
G01*
X78625000Y-76262499D01*
G75*
G02*
X78874999Y-76012500I249999J0D01*
G01*
G37*
%TD.AperFunction*%
%TD*%
%TO.P,R22,2*%
%TO.N,Net-(J5-Pad3)*%
%TA.AperFunction,SMDPad,CuDef*%
G36*
G01*
X76374999Y-78937500D02*
X77625001Y-78937500D01*
G75*
G02*
X77875000Y-79187499I0J-249999D01*
G01*
X77875000Y-79812501D01*
G75*
G02*
X77625001Y-80062500I-249999J0D01*
G01*
X76374999Y-80062500D01*
G75*
G02*
X76125000Y-79812501I0J249999D01*
G01*
X76125000Y-79187499D01*
G75*
G02*
X76374999Y-78937500I249999J0D01*
G01*
G37*
%TD.AperFunction*%
%TO.P,R22,1*%
%TO.N,Net-(D22-Pad2)*%
%TA.AperFunction,SMDPad,CuDef*%
G36*
G01*
X76374999Y-76012500D02*
X77625001Y-76012500D01*
G75*
G02*
X77875000Y-76262499I0J-249999D01*
G01*
X77875000Y-76887501D01*
G75*
G02*
X77625001Y-77137500I-249999J0D01*
G01*
X76374999Y-77137500D01*
G75*
G02*
X76125000Y-76887501I0J249999D01*
G01*
X76125000Y-76262499D01*
G75*
G02*
X76374999Y-76012500I249999J0D01*
G01*
G37*
%TD.AperFunction*%
%TD*%
%TO.P,R21,2*%
%TO.N,Net-(J5-Pad4)*%
%TA.AperFunction,SMDPad,CuDef*%
G36*
G01*
X73874999Y-78937500D02*
X75125001Y-78937500D01*
G75*
G02*
X75375000Y-79187499I0J-249999D01*
G01*
X75375000Y-79812501D01*
G75*
G02*
X75125001Y-80062500I-249999J0D01*
G01*
X73874999Y-80062500D01*
G75*
G02*
X73625000Y-79812501I0J249999D01*
G01*
X73625000Y-79187499D01*
G75*
G02*
X73874999Y-78937500I249999J0D01*
G01*
G37*
%TD.AperFunction*%
%TO.P,R21,1*%
%TO.N,Net-(D21-Pad2)*%
%TA.AperFunction,SMDPad,CuDef*%
G36*
G01*
X73874999Y-76012500D02*
X75125001Y-76012500D01*
G75*
G02*
X75375000Y-76262499I0J-249999D01*
G01*
X75375000Y-76887501D01*
G75*
G02*
X75125001Y-77137500I-249999J0D01*
G01*
X73874999Y-77137500D01*
G75*
G02*
X73625000Y-76887501I0J249999D01*
G01*
X73625000Y-76262499D01*
G75*
G02*
X73874999Y-76012500I249999J0D01*
G01*
G37*
%TD.AperFunction*%
%TD*%
%TO.P,R20,2*%
%TO.N,Net-(J5-Pad5)*%
%TA.AperFunction,SMDPad,CuDef*%
G36*
G01*
X71374999Y-78937500D02*
X72625001Y-78937500D01*
G75*
G02*
X72875000Y-79187499I0J-249999D01*
G01*
X72875000Y-79812501D01*
G75*
G02*
X72625001Y-80062500I-249999J0D01*
G01*
X71374999Y-80062500D01*
G75*
G02*
X71125000Y-79812501I0J249999D01*
G01*
X71125000Y-79187499D01*
G75*
G02*
X71374999Y-78937500I249999J0D01*
G01*
G37*
%TD.AperFunction*%
%TO.P,R20,1*%
%TO.N,Net-(D20-Pad2)*%
%TA.AperFunction,SMDPad,CuDef*%
G36*
G01*
X71374999Y-76012500D02*
X72625001Y-76012500D01*
G75*
G02*
X72875000Y-76262499I0J-249999D01*
G01*
X72875000Y-76887501D01*
G75*
G02*
X72625001Y-77137500I-249999J0D01*
G01*
X71374999Y-77137500D01*
G75*
G02*
X71125000Y-76887501I0J249999D01*
G01*
X71125000Y-76262499D01*
G75*
G02*
X71374999Y-76012500I249999J0D01*
G01*
G37*
%TD.AperFunction*%
%TD*%
%TO.P,R19,2*%
%TO.N,Net-(J5-Pad6)*%
%TA.AperFunction,SMDPad,CuDef*%
G36*
G01*
X68874999Y-78937500D02*
X70125001Y-78937500D01*
G75*
G02*
X70375000Y-79187499I0J-249999D01*
G01*
X70375000Y-79812501D01*
G75*
G02*
X70125001Y-80062500I-249999J0D01*
G01*
X68874999Y-80062500D01*
G75*
G02*
X68625000Y-79812501I0J249999D01*
G01*
X68625000Y-79187499D01*
G75*
G02*
X68874999Y-78937500I249999J0D01*
G01*
G37*
%TD.AperFunction*%
%TO.P,R19,1*%
%TO.N,Net-(D19-Pad2)*%
%TA.AperFunction,SMDPad,CuDef*%
G36*
G01*
X68874999Y-76012500D02*
X70125001Y-76012500D01*
G75*
G02*
X70375000Y-76262499I0J-249999D01*
G01*
X70375000Y-76887501D01*
G75*
G02*
X70125001Y-77137500I-249999J0D01*
G01*
X68874999Y-77137500D01*
G75*
G02*
X68625000Y-76887501I0J249999D01*
G01*
X68625000Y-76262499D01*
G75*
G02*
X68874999Y-76012500I249999J0D01*
G01*
G37*
%TD.AperFunction*%
%TD*%
%TO.P,R18,2*%
%TO.N,Net-(J5-Pad7)*%
%TA.AperFunction,SMDPad,CuDef*%
G36*
G01*
X66374999Y-78937500D02*
X67625001Y-78937500D01*
G75*
G02*
X67875000Y-79187499I0J-249999D01*
G01*
X67875000Y-79812501D01*
G75*
G02*
X67625001Y-80062500I-249999J0D01*
G01*
X66374999Y-80062500D01*
G75*
G02*
X66125000Y-79812501I0J249999D01*
G01*
X66125000Y-79187499D01*
G75*
G02*
X66374999Y-78937500I249999J0D01*
G01*
G37*
%TD.AperFunction*%
%TO.P,R18,1*%
%TO.N,Net-(D18-Pad2)*%
%TA.AperFunction,SMDPad,CuDef*%
G36*
G01*
X66374999Y-76012500D02*
X67625001Y-76012500D01*
G75*
G02*
X67875000Y-76262499I0J-249999D01*
G01*
X67875000Y-76887501D01*
G75*
G02*
X67625001Y-77137500I-249999J0D01*
G01*
X66374999Y-77137500D01*
G75*
G02*
X66125000Y-76887501I0J249999D01*
G01*
X66125000Y-76262499D01*
G75*
G02*
X66374999Y-76012500I249999J0D01*
G01*
G37*
%TD.AperFunction*%
%TD*%
%TO.P,R17,2*%
%TO.N,Net-(J5-Pad8)*%
%TA.AperFunction,SMDPad,CuDef*%
G36*
G01*
X63874999Y-78937500D02*
X65125001Y-78937500D01*
G75*
G02*
X65375000Y-79187499I0J-249999D01*
G01*
X65375000Y-79812501D01*
G75*
G02*
X65125001Y-80062500I-249999J0D01*
G01*
X63874999Y-80062500D01*
G75*
G02*
X63625000Y-79812501I0J249999D01*
G01*
X63625000Y-79187499D01*
G75*
G02*
X63874999Y-78937500I249999J0D01*
G01*
G37*
%TD.AperFunction*%
%TO.P,R17,1*%
%TO.N,Net-(D17-Pad2)*%
%TA.AperFunction,SMDPad,CuDef*%
G36*
G01*
X63874999Y-76012500D02*
X65125001Y-76012500D01*
G75*
G02*
X65375000Y-76262499I0J-249999D01*
G01*
X65375000Y-76887501D01*
G75*
G02*
X65125001Y-77137500I-249999J0D01*
G01*
X63874999Y-77137500D01*
G75*
G02*
X63625000Y-76887501I0J249999D01*
G01*
X63625000Y-76262499D01*
G75*
G02*
X63874999Y-76012500I249999J0D01*
G01*
G37*
%TD.AperFunction*%
%TD*%
%TO.P,R16,2*%
%TO.N,Net-(J3-Pad1)*%
%TA.AperFunction,SMDPad,CuDef*%
G36*
G01*
X61374999Y-78937500D02*
X62625001Y-78937500D01*
G75*
G02*
X62875000Y-79187499I0J-249999D01*
G01*
X62875000Y-79812501D01*
G75*
G02*
X62625001Y-80062500I-249999J0D01*
G01*
X61374999Y-80062500D01*
G75*
G02*
X61125000Y-79812501I0J249999D01*
G01*
X61125000Y-79187499D01*
G75*
G02*
X61374999Y-78937500I249999J0D01*
G01*
G37*
%TD.AperFunction*%
%TO.P,R16,1*%
%TO.N,Net-(D16-Pad2)*%
%TA.AperFunction,SMDPad,CuDef*%
G36*
G01*
X61374999Y-76012500D02*
X62625001Y-76012500D01*
G75*
G02*
X62875000Y-76262499I0J-249999D01*
G01*
X62875000Y-76887501D01*
G75*
G02*
X62625001Y-77137500I-249999J0D01*
G01*
X61374999Y-77137500D01*
G75*
G02*
X61125000Y-76887501I0J249999D01*
G01*
X61125000Y-76262499D01*
G75*
G02*
X61374999Y-76012500I249999J0D01*
G01*
G37*
%TD.AperFunction*%
%TD*%
%TO.P,R15,2*%
%TO.N,Net-(J3-Pad2)*%
%TA.AperFunction,SMDPad,CuDef*%
G36*
G01*
X58874999Y-78937500D02*
X60125001Y-78937500D01*
G75*
G02*
X60375000Y-79187499I0J-249999D01*
G01*
X60375000Y-79812501D01*
G75*
G02*
X60125001Y-80062500I-249999J0D01*
G01*
X58874999Y-80062500D01*
G75*
G02*
X58625000Y-79812501I0J249999D01*
G01*
X58625000Y-79187499D01*
G75*
G02*
X58874999Y-78937500I249999J0D01*
G01*
G37*
%TD.AperFunction*%
%TO.P,R15,1*%
%TO.N,Net-(D15-Pad2)*%
%TA.AperFunction,SMDPad,CuDef*%
G36*
G01*
X58874999Y-76012500D02*
X60125001Y-76012500D01*
G75*
G02*
X60375000Y-76262499I0J-249999D01*
G01*
X60375000Y-76887501D01*
G75*
G02*
X60125001Y-77137500I-249999J0D01*
G01*
X58874999Y-77137500D01*
G75*
G02*
X58625000Y-76887501I0J249999D01*
G01*
X58625000Y-76262499D01*
G75*
G02*
X58874999Y-76012500I249999J0D01*
G01*
G37*
%TD.AperFunction*%
%TD*%
%TO.P,R14,2*%
%TO.N,Net-(J3-Pad3)*%
%TA.AperFunction,SMDPad,CuDef*%
G36*
G01*
X56374999Y-78937500D02*
X57625001Y-78937500D01*
G75*
G02*
X57875000Y-79187499I0J-249999D01*
G01*
X57875000Y-79812501D01*
G75*
G02*
X57625001Y-80062500I-249999J0D01*
G01*
X56374999Y-80062500D01*
G75*
G02*
X56125000Y-79812501I0J249999D01*
G01*
X56125000Y-79187499D01*
G75*
G02*
X56374999Y-78937500I249999J0D01*
G01*
G37*
%TD.AperFunction*%
%TO.P,R14,1*%
%TO.N,Net-(D14-Pad2)*%
%TA.AperFunction,SMDPad,CuDef*%
G36*
G01*
X56374999Y-76012500D02*
X57625001Y-76012500D01*
G75*
G02*
X57875000Y-76262499I0J-249999D01*
G01*
X57875000Y-76887501D01*
G75*
G02*
X57625001Y-77137500I-249999J0D01*
G01*
X56374999Y-77137500D01*
G75*
G02*
X56125000Y-76887501I0J249999D01*
G01*
X56125000Y-76262499D01*
G75*
G02*
X56374999Y-76012500I249999J0D01*
G01*
G37*
%TD.AperFunction*%
%TD*%
%TO.P,R13,2*%
%TO.N,Net-(J3-Pad4)*%
%TA.AperFunction,SMDPad,CuDef*%
G36*
G01*
X53874999Y-78937500D02*
X55125001Y-78937500D01*
G75*
G02*
X55375000Y-79187499I0J-249999D01*
G01*
X55375000Y-79812501D01*
G75*
G02*
X55125001Y-80062500I-249999J0D01*
G01*
X53874999Y-80062500D01*
G75*
G02*
X53625000Y-79812501I0J249999D01*
G01*
X53625000Y-79187499D01*
G75*
G02*
X53874999Y-78937500I249999J0D01*
G01*
G37*
%TD.AperFunction*%
%TO.P,R13,1*%
%TO.N,Net-(D13-Pad2)*%
%TA.AperFunction,SMDPad,CuDef*%
G36*
G01*
X53874999Y-76012500D02*
X55125001Y-76012500D01*
G75*
G02*
X55375000Y-76262499I0J-249999D01*
G01*
X55375000Y-76887501D01*
G75*
G02*
X55125001Y-77137500I-249999J0D01*
G01*
X53874999Y-77137500D01*
G75*
G02*
X53625000Y-76887501I0J249999D01*
G01*
X53625000Y-76262499D01*
G75*
G02*
X53874999Y-76012500I249999J0D01*
G01*
G37*
%TD.AperFunction*%
%TD*%
%TO.P,R12,2*%
%TO.N,Net-(J3-Pad5)*%
%TA.AperFunction,SMDPad,CuDef*%
G36*
G01*
X51374999Y-78937500D02*
X52625001Y-78937500D01*
G75*
G02*
X52875000Y-79187499I0J-249999D01*
G01*
X52875000Y-79812501D01*
G75*
G02*
X52625001Y-80062500I-249999J0D01*
G01*
X51374999Y-80062500D01*
G75*
G02*
X51125000Y-79812501I0J249999D01*
G01*
X51125000Y-79187499D01*
G75*
G02*
X51374999Y-78937500I249999J0D01*
G01*
G37*
%TD.AperFunction*%
%TO.P,R12,1*%
%TO.N,Net-(D12-Pad2)*%
%TA.AperFunction,SMDPad,CuDef*%
G36*
G01*
X51374999Y-76012500D02*
X52625001Y-76012500D01*
G75*
G02*
X52875000Y-76262499I0J-249999D01*
G01*
X52875000Y-76887501D01*
G75*
G02*
X52625001Y-77137500I-249999J0D01*
G01*
X51374999Y-77137500D01*
G75*
G02*
X51125000Y-76887501I0J249999D01*
G01*
X51125000Y-76262499D01*
G75*
G02*
X51374999Y-76012500I249999J0D01*
G01*
G37*
%TD.AperFunction*%
%TD*%
%TO.P,R11,2*%
%TO.N,Net-(J3-Pad6)*%
%TA.AperFunction,SMDPad,CuDef*%
G36*
G01*
X48874999Y-78937500D02*
X50125001Y-78937500D01*
G75*
G02*
X50375000Y-79187499I0J-249999D01*
G01*
X50375000Y-79812501D01*
G75*
G02*
X50125001Y-80062500I-249999J0D01*
G01*
X48874999Y-80062500D01*
G75*
G02*
X48625000Y-79812501I0J249999D01*
G01*
X48625000Y-79187499D01*
G75*
G02*
X48874999Y-78937500I249999J0D01*
G01*
G37*
%TD.AperFunction*%
%TO.P,R11,1*%
%TO.N,Net-(D11-Pad2)*%
%TA.AperFunction,SMDPad,CuDef*%
G36*
G01*
X48874999Y-76012500D02*
X50125001Y-76012500D01*
G75*
G02*
X50375000Y-76262499I0J-249999D01*
G01*
X50375000Y-76887501D01*
G75*
G02*
X50125001Y-77137500I-249999J0D01*
G01*
X48874999Y-77137500D01*
G75*
G02*
X48625000Y-76887501I0J249999D01*
G01*
X48625000Y-76262499D01*
G75*
G02*
X48874999Y-76012500I249999J0D01*
G01*
G37*
%TD.AperFunction*%
%TD*%
%TO.P,R10,2*%
%TO.N,Net-(J3-Pad7)*%
%TA.AperFunction,SMDPad,CuDef*%
G36*
G01*
X46374999Y-78937500D02*
X47625001Y-78937500D01*
G75*
G02*
X47875000Y-79187499I0J-249999D01*
G01*
X47875000Y-79812501D01*
G75*
G02*
X47625001Y-80062500I-249999J0D01*
G01*
X46374999Y-80062500D01*
G75*
G02*
X46125000Y-79812501I0J249999D01*
G01*
X46125000Y-79187499D01*
G75*
G02*
X46374999Y-78937500I249999J0D01*
G01*
G37*
%TD.AperFunction*%
%TO.P,R10,1*%
%TO.N,Net-(D10-Pad2)*%
%TA.AperFunction,SMDPad,CuDef*%
G36*
G01*
X46374999Y-76012500D02*
X47625001Y-76012500D01*
G75*
G02*
X47875000Y-76262499I0J-249999D01*
G01*
X47875000Y-76887501D01*
G75*
G02*
X47625001Y-77137500I-249999J0D01*
G01*
X46374999Y-77137500D01*
G75*
G02*
X46125000Y-76887501I0J249999D01*
G01*
X46125000Y-76262499D01*
G75*
G02*
X46374999Y-76012500I249999J0D01*
G01*
G37*
%TD.AperFunction*%
%TD*%
%TO.P,R9,2*%
%TO.N,Net-(J3-Pad8)*%
%TA.AperFunction,SMDPad,CuDef*%
G36*
G01*
X43874999Y-78862500D02*
X45125001Y-78862500D01*
G75*
G02*
X45375000Y-79112499I0J-249999D01*
G01*
X45375000Y-79737501D01*
G75*
G02*
X45125001Y-79987500I-249999J0D01*
G01*
X43874999Y-79987500D01*
G75*
G02*
X43625000Y-79737501I0J249999D01*
G01*
X43625000Y-79112499D01*
G75*
G02*
X43874999Y-78862500I249999J0D01*
G01*
G37*
%TD.AperFunction*%
%TO.P,R9,1*%
%TO.N,Net-(D9-Pad2)*%
%TA.AperFunction,SMDPad,CuDef*%
G36*
G01*
X43874999Y-75937500D02*
X45125001Y-75937500D01*
G75*
G02*
X45375000Y-76187499I0J-249999D01*
G01*
X45375000Y-76812501D01*
G75*
G02*
X45125001Y-77062500I-249999J0D01*
G01*
X43874999Y-77062500D01*
G75*
G02*
X43625000Y-76812501I0J249999D01*
G01*
X43625000Y-76187499D01*
G75*
G02*
X43874999Y-75937500I249999J0D01*
G01*
G37*
%TD.AperFunction*%
%TD*%
%TO.P,R8,2*%
%TO.N,Net-(J2-Pad1)*%
%TA.AperFunction,SMDPad,CuDef*%
G36*
G01*
X41374999Y-78862500D02*
X42625001Y-78862500D01*
G75*
G02*
X42875000Y-79112499I0J-249999D01*
G01*
X42875000Y-79737501D01*
G75*
G02*
X42625001Y-79987500I-249999J0D01*
G01*
X41374999Y-79987500D01*
G75*
G02*
X41125000Y-79737501I0J249999D01*
G01*
X41125000Y-79112499D01*
G75*
G02*
X41374999Y-78862500I249999J0D01*
G01*
G37*
%TD.AperFunction*%
%TO.P,R8,1*%
%TO.N,Net-(D8-Pad2)*%
%TA.AperFunction,SMDPad,CuDef*%
G36*
G01*
X41374999Y-75937500D02*
X42625001Y-75937500D01*
G75*
G02*
X42875000Y-76187499I0J-249999D01*
G01*
X42875000Y-76812501D01*
G75*
G02*
X42625001Y-77062500I-249999J0D01*
G01*
X41374999Y-77062500D01*
G75*
G02*
X41125000Y-76812501I0J249999D01*
G01*
X41125000Y-76187499D01*
G75*
G02*
X41374999Y-75937500I249999J0D01*
G01*
G37*
%TD.AperFunction*%
%TD*%
%TO.P,R7,2*%
%TO.N,Net-(J2-Pad2)*%
%TA.AperFunction,SMDPad,CuDef*%
G36*
G01*
X38874999Y-78862500D02*
X40125001Y-78862500D01*
G75*
G02*
X40375000Y-79112499I0J-249999D01*
G01*
X40375000Y-79737501D01*
G75*
G02*
X40125001Y-79987500I-249999J0D01*
G01*
X38874999Y-79987500D01*
G75*
G02*
X38625000Y-79737501I0J249999D01*
G01*
X38625000Y-79112499D01*
G75*
G02*
X38874999Y-78862500I249999J0D01*
G01*
G37*
%TD.AperFunction*%
%TO.P,R7,1*%
%TO.N,Net-(D7-Pad2)*%
%TA.AperFunction,SMDPad,CuDef*%
G36*
G01*
X38874999Y-75937500D02*
X40125001Y-75937500D01*
G75*
G02*
X40375000Y-76187499I0J-249999D01*
G01*
X40375000Y-76812501D01*
G75*
G02*
X40125001Y-77062500I-249999J0D01*
G01*
X38874999Y-77062500D01*
G75*
G02*
X38625000Y-76812501I0J249999D01*
G01*
X38625000Y-76187499D01*
G75*
G02*
X38874999Y-75937500I249999J0D01*
G01*
G37*
%TD.AperFunction*%
%TD*%
%TO.P,R6,2*%
%TO.N,Net-(J2-Pad3)*%
%TA.AperFunction,SMDPad,CuDef*%
G36*
G01*
X36374999Y-78862500D02*
X37625001Y-78862500D01*
G75*
G02*
X37875000Y-79112499I0J-249999D01*
G01*
X37875000Y-79737501D01*
G75*
G02*
X37625001Y-79987500I-249999J0D01*
G01*
X36374999Y-79987500D01*
G75*
G02*
X36125000Y-79737501I0J249999D01*
G01*
X36125000Y-79112499D01*
G75*
G02*
X36374999Y-78862500I249999J0D01*
G01*
G37*
%TD.AperFunction*%
%TO.P,R6,1*%
%TO.N,Net-(D6-Pad2)*%
%TA.AperFunction,SMDPad,CuDef*%
G36*
G01*
X36374999Y-75937500D02*
X37625001Y-75937500D01*
G75*
G02*
X37875000Y-76187499I0J-249999D01*
G01*
X37875000Y-76812501D01*
G75*
G02*
X37625001Y-77062500I-249999J0D01*
G01*
X36374999Y-77062500D01*
G75*
G02*
X36125000Y-76812501I0J249999D01*
G01*
X36125000Y-76187499D01*
G75*
G02*
X36374999Y-75937500I249999J0D01*
G01*
G37*
%TD.AperFunction*%
%TD*%
%TO.P,R5,2*%
%TO.N,Net-(J2-Pad4)*%
%TA.AperFunction,SMDPad,CuDef*%
G36*
G01*
X33874999Y-78862500D02*
X35125001Y-78862500D01*
G75*
G02*
X35375000Y-79112499I0J-249999D01*
G01*
X35375000Y-79737501D01*
G75*
G02*
X35125001Y-79987500I-249999J0D01*
G01*
X33874999Y-79987500D01*
G75*
G02*
X33625000Y-79737501I0J249999D01*
G01*
X33625000Y-79112499D01*
G75*
G02*
X33874999Y-78862500I249999J0D01*
G01*
G37*
%TD.AperFunction*%
%TO.P,R5,1*%
%TO.N,Net-(D5-Pad2)*%
%TA.AperFunction,SMDPad,CuDef*%
G36*
G01*
X33874999Y-75937500D02*
X35125001Y-75937500D01*
G75*
G02*
X35375000Y-76187499I0J-249999D01*
G01*
X35375000Y-76812501D01*
G75*
G02*
X35125001Y-77062500I-249999J0D01*
G01*
X33874999Y-77062500D01*
G75*
G02*
X33625000Y-76812501I0J249999D01*
G01*
X33625000Y-76187499D01*
G75*
G02*
X33874999Y-75937500I249999J0D01*
G01*
G37*
%TD.AperFunction*%
%TD*%
%TO.P,R4,2*%
%TO.N,Net-(J2-Pad5)*%
%TA.AperFunction,SMDPad,CuDef*%
G36*
G01*
X31374999Y-78900000D02*
X32625001Y-78900000D01*
G75*
G02*
X32875000Y-79149999I0J-249999D01*
G01*
X32875000Y-79775001D01*
G75*
G02*
X32625001Y-80025000I-249999J0D01*
G01*
X31374999Y-80025000D01*
G75*
G02*
X31125000Y-79775001I0J249999D01*
G01*
X31125000Y-79149999D01*
G75*
G02*
X31374999Y-78900000I249999J0D01*
G01*
G37*
%TD.AperFunction*%
%TO.P,R4,1*%
%TO.N,Net-(D4-Pad2)*%
%TA.AperFunction,SMDPad,CuDef*%
G36*
G01*
X31374999Y-75975000D02*
X32625001Y-75975000D01*
G75*
G02*
X32875000Y-76224999I0J-249999D01*
G01*
X32875000Y-76850001D01*
G75*
G02*
X32625001Y-77100000I-249999J0D01*
G01*
X31374999Y-77100000D01*
G75*
G02*
X31125000Y-76850001I0J249999D01*
G01*
X31125000Y-76224999D01*
G75*
G02*
X31374999Y-75975000I249999J0D01*
G01*
G37*
%TD.AperFunction*%
%TD*%
%TO.P,R3,2*%
%TO.N,Net-(J2-Pad6)*%
%TA.AperFunction,SMDPad,CuDef*%
G36*
G01*
X28874999Y-78900000D02*
X30125001Y-78900000D01*
G75*
G02*
X30375000Y-79149999I0J-249999D01*
G01*
X30375000Y-79775001D01*
G75*
G02*
X30125001Y-80025000I-249999J0D01*
G01*
X28874999Y-80025000D01*
G75*
G02*
X28625000Y-79775001I0J249999D01*
G01*
X28625000Y-79149999D01*
G75*
G02*
X28874999Y-78900000I249999J0D01*
G01*
G37*
%TD.AperFunction*%
%TO.P,R3,1*%
%TO.N,Net-(D3-Pad2)*%
%TA.AperFunction,SMDPad,CuDef*%
G36*
G01*
X28874999Y-75975000D02*
X30125001Y-75975000D01*
G75*
G02*
X30375000Y-76224999I0J-249999D01*
G01*
X30375000Y-76850001D01*
G75*
G02*
X30125001Y-77100000I-249999J0D01*
G01*
X28874999Y-77100000D01*
G75*
G02*
X28625000Y-76850001I0J249999D01*
G01*
X28625000Y-76224999D01*
G75*
G02*
X28874999Y-75975000I249999J0D01*
G01*
G37*
%TD.AperFunction*%
%TD*%
%TO.P,R2,2*%
%TO.N,Net-(J2-Pad7)*%
%TA.AperFunction,SMDPad,CuDef*%
G36*
G01*
X26374999Y-78862500D02*
X27625001Y-78862500D01*
G75*
G02*
X27875000Y-79112499I0J-249999D01*
G01*
X27875000Y-79737501D01*
G75*
G02*
X27625001Y-79987500I-249999J0D01*
G01*
X26374999Y-79987500D01*
G75*
G02*
X26125000Y-79737501I0J249999D01*
G01*
X26125000Y-79112499D01*
G75*
G02*
X26374999Y-78862500I249999J0D01*
G01*
G37*
%TD.AperFunction*%
%TO.P,R2,1*%
%TO.N,Net-(D2-Pad2)*%
%TA.AperFunction,SMDPad,CuDef*%
G36*
G01*
X26374999Y-75937500D02*
X27625001Y-75937500D01*
G75*
G02*
X27875000Y-76187499I0J-249999D01*
G01*
X27875000Y-76812501D01*
G75*
G02*
X27625001Y-77062500I-249999J0D01*
G01*
X26374999Y-77062500D01*
G75*
G02*
X26125000Y-76812501I0J249999D01*
G01*
X26125000Y-76187499D01*
G75*
G02*
X26374999Y-75937500I249999J0D01*
G01*
G37*
%TD.AperFunction*%
%TD*%
%TO.P,R1,2*%
%TO.N,Net-(J2-Pad8)*%
%TA.AperFunction,SMDPad,CuDef*%
G36*
G01*
X23874999Y-78862500D02*
X25125001Y-78862500D01*
G75*
G02*
X25375000Y-79112499I0J-249999D01*
G01*
X25375000Y-79737501D01*
G75*
G02*
X25125001Y-79987500I-249999J0D01*
G01*
X23874999Y-79987500D01*
G75*
G02*
X23625000Y-79737501I0J249999D01*
G01*
X23625000Y-79112499D01*
G75*
G02*
X23874999Y-78862500I249999J0D01*
G01*
G37*
%TD.AperFunction*%
%TO.P,R1,1*%
%TO.N,Net-(D1-Pad2)*%
%TA.AperFunction,SMDPad,CuDef*%
G36*
G01*
X23874999Y-75937500D02*
X25125001Y-75937500D01*
G75*
G02*
X25375000Y-76187499I0J-249999D01*
G01*
X25375000Y-76812501D01*
G75*
G02*
X25125001Y-77062500I-249999J0D01*
G01*
X23874999Y-77062500D01*
G75*
G02*
X23625000Y-76812501I0J249999D01*
G01*
X23625000Y-76187499D01*
G75*
G02*
X23874999Y-75937500I249999J0D01*
G01*
G37*
%TD.AperFunction*%
%TD*%
D10*
%TO.P,J5,8*%
%TO.N,Net-(J5-Pad8)*%
X76260000Y-110000000D03*
%TO.P,J5,7*%
%TO.N,Net-(J5-Pad7)*%
X78800000Y-110000000D03*
%TO.P,J5,6*%
%TO.N,Net-(J5-Pad6)*%
X81340000Y-110000000D03*
%TO.P,J5,5*%
%TO.N,Net-(J5-Pad5)*%
X83880000Y-110000000D03*
%TO.P,J5,4*%
%TO.N,Net-(J5-Pad4)*%
X86420000Y-110000000D03*
%TO.P,J5,3*%
%TO.N,Net-(J5-Pad3)*%
X88960000Y-110000000D03*
%TO.P,J5,2*%
%TO.N,Net-(J5-Pad2)*%
X91500000Y-110000000D03*
D11*
%TO.P,J5,1*%
%TO.N,Net-(J5-Pad1)*%
X94040000Y-110000000D03*
%TD*%
%TO.P,D32,2*%
%TO.N,Net-(D32-Pad2)*%
%TA.AperFunction,SMDPad,CuDef*%
G36*
G01*
X101375000Y-71375000D02*
X102625000Y-71375000D01*
G75*
G02*
X102875000Y-71625000I0J-250000D01*
G01*
X102875000Y-72375000D01*
G75*
G02*
X102625000Y-72625000I-250000J0D01*
G01*
X101375000Y-72625000D01*
G75*
G02*
X101125000Y-72375000I0J250000D01*
G01*
X101125000Y-71625000D01*
G75*
G02*
X101375000Y-71375000I250000J0D01*
G01*
G37*
%TD.AperFunction*%
%TO.P,D32,1*%
%TO.N,GND*%
%TA.AperFunction,SMDPad,CuDef*%
G36*
G01*
X101375000Y-68575000D02*
X102625000Y-68575000D01*
G75*
G02*
X102875000Y-68825000I0J-250000D01*
G01*
X102875000Y-69575000D01*
G75*
G02*
X102625000Y-69825000I-250000J0D01*
G01*
X101375000Y-69825000D01*
G75*
G02*
X101125000Y-69575000I0J250000D01*
G01*
X101125000Y-68825000D01*
G75*
G02*
X101375000Y-68575000I250000J0D01*
G01*
G37*
%TD.AperFunction*%
%TD*%
%TO.P,D31,2*%
%TO.N,Net-(D31-Pad2)*%
%TA.AperFunction,SMDPad,CuDef*%
G36*
G01*
X98875000Y-71375000D02*
X100125000Y-71375000D01*
G75*
G02*
X100375000Y-71625000I0J-250000D01*
G01*
X100375000Y-72375000D01*
G75*
G02*
X100125000Y-72625000I-250000J0D01*
G01*
X98875000Y-72625000D01*
G75*
G02*
X98625000Y-72375000I0J250000D01*
G01*
X98625000Y-71625000D01*
G75*
G02*
X98875000Y-71375000I250000J0D01*
G01*
G37*
%TD.AperFunction*%
%TO.P,D31,1*%
%TO.N,GND*%
%TA.AperFunction,SMDPad,CuDef*%
G36*
G01*
X98875000Y-68575000D02*
X100125000Y-68575000D01*
G75*
G02*
X100375000Y-68825000I0J-250000D01*
G01*
X100375000Y-69575000D01*
G75*
G02*
X100125000Y-69825000I-250000J0D01*
G01*
X98875000Y-69825000D01*
G75*
G02*
X98625000Y-69575000I0J250000D01*
G01*
X98625000Y-68825000D01*
G75*
G02*
X98875000Y-68575000I250000J0D01*
G01*
G37*
%TD.AperFunction*%
%TD*%
%TO.P,D30,2*%
%TO.N,Net-(D30-Pad2)*%
%TA.AperFunction,SMDPad,CuDef*%
G36*
G01*
X96375000Y-71375000D02*
X97625000Y-71375000D01*
G75*
G02*
X97875000Y-71625000I0J-250000D01*
G01*
X97875000Y-72375000D01*
G75*
G02*
X97625000Y-72625000I-250000J0D01*
G01*
X96375000Y-72625000D01*
G75*
G02*
X96125000Y-72375000I0J250000D01*
G01*
X96125000Y-71625000D01*
G75*
G02*
X96375000Y-71375000I250000J0D01*
G01*
G37*
%TD.AperFunction*%
%TO.P,D30,1*%
%TO.N,GND*%
%TA.AperFunction,SMDPad,CuDef*%
G36*
G01*
X96375000Y-68575000D02*
X97625000Y-68575000D01*
G75*
G02*
X97875000Y-68825000I0J-250000D01*
G01*
X97875000Y-69575000D01*
G75*
G02*
X97625000Y-69825000I-250000J0D01*
G01*
X96375000Y-69825000D01*
G75*
G02*
X96125000Y-69575000I0J250000D01*
G01*
X96125000Y-68825000D01*
G75*
G02*
X96375000Y-68575000I250000J0D01*
G01*
G37*
%TD.AperFunction*%
%TD*%
%TO.P,D29,2*%
%TO.N,Net-(D29-Pad2)*%
%TA.AperFunction,SMDPad,CuDef*%
G36*
G01*
X93875000Y-71375000D02*
X95125000Y-71375000D01*
G75*
G02*
X95375000Y-71625000I0J-250000D01*
G01*
X95375000Y-72375000D01*
G75*
G02*
X95125000Y-72625000I-250000J0D01*
G01*
X93875000Y-72625000D01*
G75*
G02*
X93625000Y-72375000I0J250000D01*
G01*
X93625000Y-71625000D01*
G75*
G02*
X93875000Y-71375000I250000J0D01*
G01*
G37*
%TD.AperFunction*%
%TO.P,D29,1*%
%TO.N,GND*%
%TA.AperFunction,SMDPad,CuDef*%
G36*
G01*
X93875000Y-68575000D02*
X95125000Y-68575000D01*
G75*
G02*
X95375000Y-68825000I0J-250000D01*
G01*
X95375000Y-69575000D01*
G75*
G02*
X95125000Y-69825000I-250000J0D01*
G01*
X93875000Y-69825000D01*
G75*
G02*
X93625000Y-69575000I0J250000D01*
G01*
X93625000Y-68825000D01*
G75*
G02*
X93875000Y-68575000I250000J0D01*
G01*
G37*
%TD.AperFunction*%
%TD*%
%TO.P,D28,2*%
%TO.N,Net-(D28-Pad2)*%
%TA.AperFunction,SMDPad,CuDef*%
G36*
G01*
X91375000Y-71375000D02*
X92625000Y-71375000D01*
G75*
G02*
X92875000Y-71625000I0J-250000D01*
G01*
X92875000Y-72375000D01*
G75*
G02*
X92625000Y-72625000I-250000J0D01*
G01*
X91375000Y-72625000D01*
G75*
G02*
X91125000Y-72375000I0J250000D01*
G01*
X91125000Y-71625000D01*
G75*
G02*
X91375000Y-71375000I250000J0D01*
G01*
G37*
%TD.AperFunction*%
%TO.P,D28,1*%
%TO.N,GND*%
%TA.AperFunction,SMDPad,CuDef*%
G36*
G01*
X91375000Y-68575000D02*
X92625000Y-68575000D01*
G75*
G02*
X92875000Y-68825000I0J-250000D01*
G01*
X92875000Y-69575000D01*
G75*
G02*
X92625000Y-69825000I-250000J0D01*
G01*
X91375000Y-69825000D01*
G75*
G02*
X91125000Y-69575000I0J250000D01*
G01*
X91125000Y-68825000D01*
G75*
G02*
X91375000Y-68575000I250000J0D01*
G01*
G37*
%TD.AperFunction*%
%TD*%
%TO.P,D27,2*%
%TO.N,Net-(D27-Pad2)*%
%TA.AperFunction,SMDPad,CuDef*%
G36*
G01*
X88875000Y-71375000D02*
X90125000Y-71375000D01*
G75*
G02*
X90375000Y-71625000I0J-250000D01*
G01*
X90375000Y-72375000D01*
G75*
G02*
X90125000Y-72625000I-250000J0D01*
G01*
X88875000Y-72625000D01*
G75*
G02*
X88625000Y-72375000I0J250000D01*
G01*
X88625000Y-71625000D01*
G75*
G02*
X88875000Y-71375000I250000J0D01*
G01*
G37*
%TD.AperFunction*%
%TO.P,D27,1*%
%TO.N,GND*%
%TA.AperFunction,SMDPad,CuDef*%
G36*
G01*
X88875000Y-68575000D02*
X90125000Y-68575000D01*
G75*
G02*
X90375000Y-68825000I0J-250000D01*
G01*
X90375000Y-69575000D01*
G75*
G02*
X90125000Y-69825000I-250000J0D01*
G01*
X88875000Y-69825000D01*
G75*
G02*
X88625000Y-69575000I0J250000D01*
G01*
X88625000Y-68825000D01*
G75*
G02*
X88875000Y-68575000I250000J0D01*
G01*
G37*
%TD.AperFunction*%
%TD*%
%TO.P,D26,2*%
%TO.N,Net-(D26-Pad2)*%
%TA.AperFunction,SMDPad,CuDef*%
G36*
G01*
X86375000Y-71375000D02*
X87625000Y-71375000D01*
G75*
G02*
X87875000Y-71625000I0J-250000D01*
G01*
X87875000Y-72375000D01*
G75*
G02*
X87625000Y-72625000I-250000J0D01*
G01*
X86375000Y-72625000D01*
G75*
G02*
X86125000Y-72375000I0J250000D01*
G01*
X86125000Y-71625000D01*
G75*
G02*
X86375000Y-71375000I250000J0D01*
G01*
G37*
%TD.AperFunction*%
%TO.P,D26,1*%
%TO.N,GND*%
%TA.AperFunction,SMDPad,CuDef*%
G36*
G01*
X86375000Y-68575000D02*
X87625000Y-68575000D01*
G75*
G02*
X87875000Y-68825000I0J-250000D01*
G01*
X87875000Y-69575000D01*
G75*
G02*
X87625000Y-69825000I-250000J0D01*
G01*
X86375000Y-69825000D01*
G75*
G02*
X86125000Y-69575000I0J250000D01*
G01*
X86125000Y-68825000D01*
G75*
G02*
X86375000Y-68575000I250000J0D01*
G01*
G37*
%TD.AperFunction*%
%TD*%
%TO.P,D25,2*%
%TO.N,Net-(D25-Pad2)*%
%TA.AperFunction,SMDPad,CuDef*%
G36*
G01*
X83875000Y-71375000D02*
X85125000Y-71375000D01*
G75*
G02*
X85375000Y-71625000I0J-250000D01*
G01*
X85375000Y-72375000D01*
G75*
G02*
X85125000Y-72625000I-250000J0D01*
G01*
X83875000Y-72625000D01*
G75*
G02*
X83625000Y-72375000I0J250000D01*
G01*
X83625000Y-71625000D01*
G75*
G02*
X83875000Y-71375000I250000J0D01*
G01*
G37*
%TD.AperFunction*%
%TO.P,D25,1*%
%TO.N,GND*%
%TA.AperFunction,SMDPad,CuDef*%
G36*
G01*
X83875000Y-68575000D02*
X85125000Y-68575000D01*
G75*
G02*
X85375000Y-68825000I0J-250000D01*
G01*
X85375000Y-69575000D01*
G75*
G02*
X85125000Y-69825000I-250000J0D01*
G01*
X83875000Y-69825000D01*
G75*
G02*
X83625000Y-69575000I0J250000D01*
G01*
X83625000Y-68825000D01*
G75*
G02*
X83875000Y-68575000I250000J0D01*
G01*
G37*
%TD.AperFunction*%
%TD*%
%TO.P,D24,2*%
%TO.N,Net-(D24-Pad2)*%
%TA.AperFunction,SMDPad,CuDef*%
G36*
G01*
X81375000Y-71375000D02*
X82625000Y-71375000D01*
G75*
G02*
X82875000Y-71625000I0J-250000D01*
G01*
X82875000Y-72375000D01*
G75*
G02*
X82625000Y-72625000I-250000J0D01*
G01*
X81375000Y-72625000D01*
G75*
G02*
X81125000Y-72375000I0J250000D01*
G01*
X81125000Y-71625000D01*
G75*
G02*
X81375000Y-71375000I250000J0D01*
G01*
G37*
%TD.AperFunction*%
%TO.P,D24,1*%
%TO.N,GND*%
%TA.AperFunction,SMDPad,CuDef*%
G36*
G01*
X81375000Y-68575000D02*
X82625000Y-68575000D01*
G75*
G02*
X82875000Y-68825000I0J-250000D01*
G01*
X82875000Y-69575000D01*
G75*
G02*
X82625000Y-69825000I-250000J0D01*
G01*
X81375000Y-69825000D01*
G75*
G02*
X81125000Y-69575000I0J250000D01*
G01*
X81125000Y-68825000D01*
G75*
G02*
X81375000Y-68575000I250000J0D01*
G01*
G37*
%TD.AperFunction*%
%TD*%
%TO.P,D23,2*%
%TO.N,Net-(D23-Pad2)*%
%TA.AperFunction,SMDPad,CuDef*%
G36*
G01*
X78875000Y-71375000D02*
X80125000Y-71375000D01*
G75*
G02*
X80375000Y-71625000I0J-250000D01*
G01*
X80375000Y-72375000D01*
G75*
G02*
X80125000Y-72625000I-250000J0D01*
G01*
X78875000Y-72625000D01*
G75*
G02*
X78625000Y-72375000I0J250000D01*
G01*
X78625000Y-71625000D01*
G75*
G02*
X78875000Y-71375000I250000J0D01*
G01*
G37*
%TD.AperFunction*%
%TO.P,D23,1*%
%TO.N,GND*%
%TA.AperFunction,SMDPad,CuDef*%
G36*
G01*
X78875000Y-68575000D02*
X80125000Y-68575000D01*
G75*
G02*
X80375000Y-68825000I0J-250000D01*
G01*
X80375000Y-69575000D01*
G75*
G02*
X80125000Y-69825000I-250000J0D01*
G01*
X78875000Y-69825000D01*
G75*
G02*
X78625000Y-69575000I0J250000D01*
G01*
X78625000Y-68825000D01*
G75*
G02*
X78875000Y-68575000I250000J0D01*
G01*
G37*
%TD.AperFunction*%
%TD*%
%TO.P,D22,2*%
%TO.N,Net-(D22-Pad2)*%
%TA.AperFunction,SMDPad,CuDef*%
G36*
G01*
X76375000Y-71375000D02*
X77625000Y-71375000D01*
G75*
G02*
X77875000Y-71625000I0J-250000D01*
G01*
X77875000Y-72375000D01*
G75*
G02*
X77625000Y-72625000I-250000J0D01*
G01*
X76375000Y-72625000D01*
G75*
G02*
X76125000Y-72375000I0J250000D01*
G01*
X76125000Y-71625000D01*
G75*
G02*
X76375000Y-71375000I250000J0D01*
G01*
G37*
%TD.AperFunction*%
%TO.P,D22,1*%
%TO.N,GND*%
%TA.AperFunction,SMDPad,CuDef*%
G36*
G01*
X76375000Y-68575000D02*
X77625000Y-68575000D01*
G75*
G02*
X77875000Y-68825000I0J-250000D01*
G01*
X77875000Y-69575000D01*
G75*
G02*
X77625000Y-69825000I-250000J0D01*
G01*
X76375000Y-69825000D01*
G75*
G02*
X76125000Y-69575000I0J250000D01*
G01*
X76125000Y-68825000D01*
G75*
G02*
X76375000Y-68575000I250000J0D01*
G01*
G37*
%TD.AperFunction*%
%TD*%
%TO.P,D21,2*%
%TO.N,Net-(D21-Pad2)*%
%TA.AperFunction,SMDPad,CuDef*%
G36*
G01*
X73875000Y-71375000D02*
X75125000Y-71375000D01*
G75*
G02*
X75375000Y-71625000I0J-250000D01*
G01*
X75375000Y-72375000D01*
G75*
G02*
X75125000Y-72625000I-250000J0D01*
G01*
X73875000Y-72625000D01*
G75*
G02*
X73625000Y-72375000I0J250000D01*
G01*
X73625000Y-71625000D01*
G75*
G02*
X73875000Y-71375000I250000J0D01*
G01*
G37*
%TD.AperFunction*%
%TO.P,D21,1*%
%TO.N,GND*%
%TA.AperFunction,SMDPad,CuDef*%
G36*
G01*
X73875000Y-68575000D02*
X75125000Y-68575000D01*
G75*
G02*
X75375000Y-68825000I0J-250000D01*
G01*
X75375000Y-69575000D01*
G75*
G02*
X75125000Y-69825000I-250000J0D01*
G01*
X73875000Y-69825000D01*
G75*
G02*
X73625000Y-69575000I0J250000D01*
G01*
X73625000Y-68825000D01*
G75*
G02*
X73875000Y-68575000I250000J0D01*
G01*
G37*
%TD.AperFunction*%
%TD*%
%TO.P,D20,2*%
%TO.N,Net-(D20-Pad2)*%
%TA.AperFunction,SMDPad,CuDef*%
G36*
G01*
X71375000Y-71375000D02*
X72625000Y-71375000D01*
G75*
G02*
X72875000Y-71625000I0J-250000D01*
G01*
X72875000Y-72375000D01*
G75*
G02*
X72625000Y-72625000I-250000J0D01*
G01*
X71375000Y-72625000D01*
G75*
G02*
X71125000Y-72375000I0J250000D01*
G01*
X71125000Y-71625000D01*
G75*
G02*
X71375000Y-71375000I250000J0D01*
G01*
G37*
%TD.AperFunction*%
%TO.P,D20,1*%
%TO.N,GND*%
%TA.AperFunction,SMDPad,CuDef*%
G36*
G01*
X71375000Y-68575000D02*
X72625000Y-68575000D01*
G75*
G02*
X72875000Y-68825000I0J-250000D01*
G01*
X72875000Y-69575000D01*
G75*
G02*
X72625000Y-69825000I-250000J0D01*
G01*
X71375000Y-69825000D01*
G75*
G02*
X71125000Y-69575000I0J250000D01*
G01*
X71125000Y-68825000D01*
G75*
G02*
X71375000Y-68575000I250000J0D01*
G01*
G37*
%TD.AperFunction*%
%TD*%
%TO.P,D19,2*%
%TO.N,Net-(D19-Pad2)*%
%TA.AperFunction,SMDPad,CuDef*%
G36*
G01*
X68875000Y-71375000D02*
X70125000Y-71375000D01*
G75*
G02*
X70375000Y-71625000I0J-250000D01*
G01*
X70375000Y-72375000D01*
G75*
G02*
X70125000Y-72625000I-250000J0D01*
G01*
X68875000Y-72625000D01*
G75*
G02*
X68625000Y-72375000I0J250000D01*
G01*
X68625000Y-71625000D01*
G75*
G02*
X68875000Y-71375000I250000J0D01*
G01*
G37*
%TD.AperFunction*%
%TO.P,D19,1*%
%TO.N,GND*%
%TA.AperFunction,SMDPad,CuDef*%
G36*
G01*
X68875000Y-68575000D02*
X70125000Y-68575000D01*
G75*
G02*
X70375000Y-68825000I0J-250000D01*
G01*
X70375000Y-69575000D01*
G75*
G02*
X70125000Y-69825000I-250000J0D01*
G01*
X68875000Y-69825000D01*
G75*
G02*
X68625000Y-69575000I0J250000D01*
G01*
X68625000Y-68825000D01*
G75*
G02*
X68875000Y-68575000I250000J0D01*
G01*
G37*
%TD.AperFunction*%
%TD*%
%TO.P,D18,2*%
%TO.N,Net-(D18-Pad2)*%
%TA.AperFunction,SMDPad,CuDef*%
G36*
G01*
X66375000Y-71375000D02*
X67625000Y-71375000D01*
G75*
G02*
X67875000Y-71625000I0J-250000D01*
G01*
X67875000Y-72375000D01*
G75*
G02*
X67625000Y-72625000I-250000J0D01*
G01*
X66375000Y-72625000D01*
G75*
G02*
X66125000Y-72375000I0J250000D01*
G01*
X66125000Y-71625000D01*
G75*
G02*
X66375000Y-71375000I250000J0D01*
G01*
G37*
%TD.AperFunction*%
%TO.P,D18,1*%
%TO.N,GND*%
%TA.AperFunction,SMDPad,CuDef*%
G36*
G01*
X66375000Y-68575000D02*
X67625000Y-68575000D01*
G75*
G02*
X67875000Y-68825000I0J-250000D01*
G01*
X67875000Y-69575000D01*
G75*
G02*
X67625000Y-69825000I-250000J0D01*
G01*
X66375000Y-69825000D01*
G75*
G02*
X66125000Y-69575000I0J250000D01*
G01*
X66125000Y-68825000D01*
G75*
G02*
X66375000Y-68575000I250000J0D01*
G01*
G37*
%TD.AperFunction*%
%TD*%
%TO.P,D17,2*%
%TO.N,Net-(D17-Pad2)*%
%TA.AperFunction,SMDPad,CuDef*%
G36*
G01*
X63875000Y-71375000D02*
X65125000Y-71375000D01*
G75*
G02*
X65375000Y-71625000I0J-250000D01*
G01*
X65375000Y-72375000D01*
G75*
G02*
X65125000Y-72625000I-250000J0D01*
G01*
X63875000Y-72625000D01*
G75*
G02*
X63625000Y-72375000I0J250000D01*
G01*
X63625000Y-71625000D01*
G75*
G02*
X63875000Y-71375000I250000J0D01*
G01*
G37*
%TD.AperFunction*%
%TO.P,D17,1*%
%TO.N,GND*%
%TA.AperFunction,SMDPad,CuDef*%
G36*
G01*
X63875000Y-68575000D02*
X65125000Y-68575000D01*
G75*
G02*
X65375000Y-68825000I0J-250000D01*
G01*
X65375000Y-69575000D01*
G75*
G02*
X65125000Y-69825000I-250000J0D01*
G01*
X63875000Y-69825000D01*
G75*
G02*
X63625000Y-69575000I0J250000D01*
G01*
X63625000Y-68825000D01*
G75*
G02*
X63875000Y-68575000I250000J0D01*
G01*
G37*
%TD.AperFunction*%
%TD*%
%TO.P,D16,2*%
%TO.N,Net-(D16-Pad2)*%
%TA.AperFunction,SMDPad,CuDef*%
G36*
G01*
X61375000Y-71375000D02*
X62625000Y-71375000D01*
G75*
G02*
X62875000Y-71625000I0J-250000D01*
G01*
X62875000Y-72375000D01*
G75*
G02*
X62625000Y-72625000I-250000J0D01*
G01*
X61375000Y-72625000D01*
G75*
G02*
X61125000Y-72375000I0J250000D01*
G01*
X61125000Y-71625000D01*
G75*
G02*
X61375000Y-71375000I250000J0D01*
G01*
G37*
%TD.AperFunction*%
%TO.P,D16,1*%
%TO.N,GND*%
%TA.AperFunction,SMDPad,CuDef*%
G36*
G01*
X61375000Y-68575000D02*
X62625000Y-68575000D01*
G75*
G02*
X62875000Y-68825000I0J-250000D01*
G01*
X62875000Y-69575000D01*
G75*
G02*
X62625000Y-69825000I-250000J0D01*
G01*
X61375000Y-69825000D01*
G75*
G02*
X61125000Y-69575000I0J250000D01*
G01*
X61125000Y-68825000D01*
G75*
G02*
X61375000Y-68575000I250000J0D01*
G01*
G37*
%TD.AperFunction*%
%TD*%
%TO.P,D15,2*%
%TO.N,Net-(D15-Pad2)*%
%TA.AperFunction,SMDPad,CuDef*%
G36*
G01*
X58875000Y-71375000D02*
X60125000Y-71375000D01*
G75*
G02*
X60375000Y-71625000I0J-250000D01*
G01*
X60375000Y-72375000D01*
G75*
G02*
X60125000Y-72625000I-250000J0D01*
G01*
X58875000Y-72625000D01*
G75*
G02*
X58625000Y-72375000I0J250000D01*
G01*
X58625000Y-71625000D01*
G75*
G02*
X58875000Y-71375000I250000J0D01*
G01*
G37*
%TD.AperFunction*%
%TO.P,D15,1*%
%TO.N,GND*%
%TA.AperFunction,SMDPad,CuDef*%
G36*
G01*
X58875000Y-68575000D02*
X60125000Y-68575000D01*
G75*
G02*
X60375000Y-68825000I0J-250000D01*
G01*
X60375000Y-69575000D01*
G75*
G02*
X60125000Y-69825000I-250000J0D01*
G01*
X58875000Y-69825000D01*
G75*
G02*
X58625000Y-69575000I0J250000D01*
G01*
X58625000Y-68825000D01*
G75*
G02*
X58875000Y-68575000I250000J0D01*
G01*
G37*
%TD.AperFunction*%
%TD*%
%TO.P,D14,2*%
%TO.N,Net-(D14-Pad2)*%
%TA.AperFunction,SMDPad,CuDef*%
G36*
G01*
X56375000Y-71375000D02*
X57625000Y-71375000D01*
G75*
G02*
X57875000Y-71625000I0J-250000D01*
G01*
X57875000Y-72375000D01*
G75*
G02*
X57625000Y-72625000I-250000J0D01*
G01*
X56375000Y-72625000D01*
G75*
G02*
X56125000Y-72375000I0J250000D01*
G01*
X56125000Y-71625000D01*
G75*
G02*
X56375000Y-71375000I250000J0D01*
G01*
G37*
%TD.AperFunction*%
%TO.P,D14,1*%
%TO.N,GND*%
%TA.AperFunction,SMDPad,CuDef*%
G36*
G01*
X56375000Y-68575000D02*
X57625000Y-68575000D01*
G75*
G02*
X57875000Y-68825000I0J-250000D01*
G01*
X57875000Y-69575000D01*
G75*
G02*
X57625000Y-69825000I-250000J0D01*
G01*
X56375000Y-69825000D01*
G75*
G02*
X56125000Y-69575000I0J250000D01*
G01*
X56125000Y-68825000D01*
G75*
G02*
X56375000Y-68575000I250000J0D01*
G01*
G37*
%TD.AperFunction*%
%TD*%
%TO.P,D13,2*%
%TO.N,Net-(D13-Pad2)*%
%TA.AperFunction,SMDPad,CuDef*%
G36*
G01*
X53875000Y-71375000D02*
X55125000Y-71375000D01*
G75*
G02*
X55375000Y-71625000I0J-250000D01*
G01*
X55375000Y-72375000D01*
G75*
G02*
X55125000Y-72625000I-250000J0D01*
G01*
X53875000Y-72625000D01*
G75*
G02*
X53625000Y-72375000I0J250000D01*
G01*
X53625000Y-71625000D01*
G75*
G02*
X53875000Y-71375000I250000J0D01*
G01*
G37*
%TD.AperFunction*%
%TO.P,D13,1*%
%TO.N,GND*%
%TA.AperFunction,SMDPad,CuDef*%
G36*
G01*
X53875000Y-68575000D02*
X55125000Y-68575000D01*
G75*
G02*
X55375000Y-68825000I0J-250000D01*
G01*
X55375000Y-69575000D01*
G75*
G02*
X55125000Y-69825000I-250000J0D01*
G01*
X53875000Y-69825000D01*
G75*
G02*
X53625000Y-69575000I0J250000D01*
G01*
X53625000Y-68825000D01*
G75*
G02*
X53875000Y-68575000I250000J0D01*
G01*
G37*
%TD.AperFunction*%
%TD*%
%TO.P,D12,2*%
%TO.N,Net-(D12-Pad2)*%
%TA.AperFunction,SMDPad,CuDef*%
G36*
G01*
X51375000Y-71375000D02*
X52625000Y-71375000D01*
G75*
G02*
X52875000Y-71625000I0J-250000D01*
G01*
X52875000Y-72375000D01*
G75*
G02*
X52625000Y-72625000I-250000J0D01*
G01*
X51375000Y-72625000D01*
G75*
G02*
X51125000Y-72375000I0J250000D01*
G01*
X51125000Y-71625000D01*
G75*
G02*
X51375000Y-71375000I250000J0D01*
G01*
G37*
%TD.AperFunction*%
%TO.P,D12,1*%
%TO.N,GND*%
%TA.AperFunction,SMDPad,CuDef*%
G36*
G01*
X51375000Y-68575000D02*
X52625000Y-68575000D01*
G75*
G02*
X52875000Y-68825000I0J-250000D01*
G01*
X52875000Y-69575000D01*
G75*
G02*
X52625000Y-69825000I-250000J0D01*
G01*
X51375000Y-69825000D01*
G75*
G02*
X51125000Y-69575000I0J250000D01*
G01*
X51125000Y-68825000D01*
G75*
G02*
X51375000Y-68575000I250000J0D01*
G01*
G37*
%TD.AperFunction*%
%TD*%
%TO.P,D11,2*%
%TO.N,Net-(D11-Pad2)*%
%TA.AperFunction,SMDPad,CuDef*%
G36*
G01*
X48875000Y-71375000D02*
X50125000Y-71375000D01*
G75*
G02*
X50375000Y-71625000I0J-250000D01*
G01*
X50375000Y-72375000D01*
G75*
G02*
X50125000Y-72625000I-250000J0D01*
G01*
X48875000Y-72625000D01*
G75*
G02*
X48625000Y-72375000I0J250000D01*
G01*
X48625000Y-71625000D01*
G75*
G02*
X48875000Y-71375000I250000J0D01*
G01*
G37*
%TD.AperFunction*%
%TO.P,D11,1*%
%TO.N,GND*%
%TA.AperFunction,SMDPad,CuDef*%
G36*
G01*
X48875000Y-68575000D02*
X50125000Y-68575000D01*
G75*
G02*
X50375000Y-68825000I0J-250000D01*
G01*
X50375000Y-69575000D01*
G75*
G02*
X50125000Y-69825000I-250000J0D01*
G01*
X48875000Y-69825000D01*
G75*
G02*
X48625000Y-69575000I0J250000D01*
G01*
X48625000Y-68825000D01*
G75*
G02*
X48875000Y-68575000I250000J0D01*
G01*
G37*
%TD.AperFunction*%
%TD*%
%TO.P,D10,2*%
%TO.N,Net-(D10-Pad2)*%
%TA.AperFunction,SMDPad,CuDef*%
G36*
G01*
X46375000Y-71375000D02*
X47625000Y-71375000D01*
G75*
G02*
X47875000Y-71625000I0J-250000D01*
G01*
X47875000Y-72375000D01*
G75*
G02*
X47625000Y-72625000I-250000J0D01*
G01*
X46375000Y-72625000D01*
G75*
G02*
X46125000Y-72375000I0J250000D01*
G01*
X46125000Y-71625000D01*
G75*
G02*
X46375000Y-71375000I250000J0D01*
G01*
G37*
%TD.AperFunction*%
%TO.P,D10,1*%
%TO.N,GND*%
%TA.AperFunction,SMDPad,CuDef*%
G36*
G01*
X46375000Y-68575000D02*
X47625000Y-68575000D01*
G75*
G02*
X47875000Y-68825000I0J-250000D01*
G01*
X47875000Y-69575000D01*
G75*
G02*
X47625000Y-69825000I-250000J0D01*
G01*
X46375000Y-69825000D01*
G75*
G02*
X46125000Y-69575000I0J250000D01*
G01*
X46125000Y-68825000D01*
G75*
G02*
X46375000Y-68575000I250000J0D01*
G01*
G37*
%TD.AperFunction*%
%TD*%
%TO.P,D9,2*%
%TO.N,Net-(D9-Pad2)*%
%TA.AperFunction,SMDPad,CuDef*%
G36*
G01*
X43875000Y-71375000D02*
X45125000Y-71375000D01*
G75*
G02*
X45375000Y-71625000I0J-250000D01*
G01*
X45375000Y-72375000D01*
G75*
G02*
X45125000Y-72625000I-250000J0D01*
G01*
X43875000Y-72625000D01*
G75*
G02*
X43625000Y-72375000I0J250000D01*
G01*
X43625000Y-71625000D01*
G75*
G02*
X43875000Y-71375000I250000J0D01*
G01*
G37*
%TD.AperFunction*%
%TO.P,D9,1*%
%TO.N,GND*%
%TA.AperFunction,SMDPad,CuDef*%
G36*
G01*
X43875000Y-68575000D02*
X45125000Y-68575000D01*
G75*
G02*
X45375000Y-68825000I0J-250000D01*
G01*
X45375000Y-69575000D01*
G75*
G02*
X45125000Y-69825000I-250000J0D01*
G01*
X43875000Y-69825000D01*
G75*
G02*
X43625000Y-69575000I0J250000D01*
G01*
X43625000Y-68825000D01*
G75*
G02*
X43875000Y-68575000I250000J0D01*
G01*
G37*
%TD.AperFunction*%
%TD*%
%TO.P,D8,2*%
%TO.N,Net-(D8-Pad2)*%
%TA.AperFunction,SMDPad,CuDef*%
G36*
G01*
X41375000Y-71375000D02*
X42625000Y-71375000D01*
G75*
G02*
X42875000Y-71625000I0J-250000D01*
G01*
X42875000Y-72375000D01*
G75*
G02*
X42625000Y-72625000I-250000J0D01*
G01*
X41375000Y-72625000D01*
G75*
G02*
X41125000Y-72375000I0J250000D01*
G01*
X41125000Y-71625000D01*
G75*
G02*
X41375000Y-71375000I250000J0D01*
G01*
G37*
%TD.AperFunction*%
%TO.P,D8,1*%
%TO.N,GND*%
%TA.AperFunction,SMDPad,CuDef*%
G36*
G01*
X41375000Y-68575000D02*
X42625000Y-68575000D01*
G75*
G02*
X42875000Y-68825000I0J-250000D01*
G01*
X42875000Y-69575000D01*
G75*
G02*
X42625000Y-69825000I-250000J0D01*
G01*
X41375000Y-69825000D01*
G75*
G02*
X41125000Y-69575000I0J250000D01*
G01*
X41125000Y-68825000D01*
G75*
G02*
X41375000Y-68575000I250000J0D01*
G01*
G37*
%TD.AperFunction*%
%TD*%
%TO.P,D7,2*%
%TO.N,Net-(D7-Pad2)*%
%TA.AperFunction,SMDPad,CuDef*%
G36*
G01*
X38875000Y-71375000D02*
X40125000Y-71375000D01*
G75*
G02*
X40375000Y-71625000I0J-250000D01*
G01*
X40375000Y-72375000D01*
G75*
G02*
X40125000Y-72625000I-250000J0D01*
G01*
X38875000Y-72625000D01*
G75*
G02*
X38625000Y-72375000I0J250000D01*
G01*
X38625000Y-71625000D01*
G75*
G02*
X38875000Y-71375000I250000J0D01*
G01*
G37*
%TD.AperFunction*%
%TO.P,D7,1*%
%TO.N,GND*%
%TA.AperFunction,SMDPad,CuDef*%
G36*
G01*
X38875000Y-68575000D02*
X40125000Y-68575000D01*
G75*
G02*
X40375000Y-68825000I0J-250000D01*
G01*
X40375000Y-69575000D01*
G75*
G02*
X40125000Y-69825000I-250000J0D01*
G01*
X38875000Y-69825000D01*
G75*
G02*
X38625000Y-69575000I0J250000D01*
G01*
X38625000Y-68825000D01*
G75*
G02*
X38875000Y-68575000I250000J0D01*
G01*
G37*
%TD.AperFunction*%
%TD*%
%TO.P,D6,2*%
%TO.N,Net-(D6-Pad2)*%
%TA.AperFunction,SMDPad,CuDef*%
G36*
G01*
X36375000Y-71375000D02*
X37625000Y-71375000D01*
G75*
G02*
X37875000Y-71625000I0J-250000D01*
G01*
X37875000Y-72375000D01*
G75*
G02*
X37625000Y-72625000I-250000J0D01*
G01*
X36375000Y-72625000D01*
G75*
G02*
X36125000Y-72375000I0J250000D01*
G01*
X36125000Y-71625000D01*
G75*
G02*
X36375000Y-71375000I250000J0D01*
G01*
G37*
%TD.AperFunction*%
%TO.P,D6,1*%
%TO.N,GND*%
%TA.AperFunction,SMDPad,CuDef*%
G36*
G01*
X36375000Y-68575000D02*
X37625000Y-68575000D01*
G75*
G02*
X37875000Y-68825000I0J-250000D01*
G01*
X37875000Y-69575000D01*
G75*
G02*
X37625000Y-69825000I-250000J0D01*
G01*
X36375000Y-69825000D01*
G75*
G02*
X36125000Y-69575000I0J250000D01*
G01*
X36125000Y-68825000D01*
G75*
G02*
X36375000Y-68575000I250000J0D01*
G01*
G37*
%TD.AperFunction*%
%TD*%
%TO.P,D5,2*%
%TO.N,Net-(D5-Pad2)*%
%TA.AperFunction,SMDPad,CuDef*%
G36*
G01*
X33875000Y-71375000D02*
X35125000Y-71375000D01*
G75*
G02*
X35375000Y-71625000I0J-250000D01*
G01*
X35375000Y-72375000D01*
G75*
G02*
X35125000Y-72625000I-250000J0D01*
G01*
X33875000Y-72625000D01*
G75*
G02*
X33625000Y-72375000I0J250000D01*
G01*
X33625000Y-71625000D01*
G75*
G02*
X33875000Y-71375000I250000J0D01*
G01*
G37*
%TD.AperFunction*%
%TO.P,D5,1*%
%TO.N,GND*%
%TA.AperFunction,SMDPad,CuDef*%
G36*
G01*
X33875000Y-68575000D02*
X35125000Y-68575000D01*
G75*
G02*
X35375000Y-68825000I0J-250000D01*
G01*
X35375000Y-69575000D01*
G75*
G02*
X35125000Y-69825000I-250000J0D01*
G01*
X33875000Y-69825000D01*
G75*
G02*
X33625000Y-69575000I0J250000D01*
G01*
X33625000Y-68825000D01*
G75*
G02*
X33875000Y-68575000I250000J0D01*
G01*
G37*
%TD.AperFunction*%
%TD*%
%TO.P,D4,2*%
%TO.N,Net-(D4-Pad2)*%
%TA.AperFunction,SMDPad,CuDef*%
G36*
G01*
X31375000Y-71375000D02*
X32625000Y-71375000D01*
G75*
G02*
X32875000Y-71625000I0J-250000D01*
G01*
X32875000Y-72375000D01*
G75*
G02*
X32625000Y-72625000I-250000J0D01*
G01*
X31375000Y-72625000D01*
G75*
G02*
X31125000Y-72375000I0J250000D01*
G01*
X31125000Y-71625000D01*
G75*
G02*
X31375000Y-71375000I250000J0D01*
G01*
G37*
%TD.AperFunction*%
%TO.P,D4,1*%
%TO.N,GND*%
%TA.AperFunction,SMDPad,CuDef*%
G36*
G01*
X31375000Y-68575000D02*
X32625000Y-68575000D01*
G75*
G02*
X32875000Y-68825000I0J-250000D01*
G01*
X32875000Y-69575000D01*
G75*
G02*
X32625000Y-69825000I-250000J0D01*
G01*
X31375000Y-69825000D01*
G75*
G02*
X31125000Y-69575000I0J250000D01*
G01*
X31125000Y-68825000D01*
G75*
G02*
X31375000Y-68575000I250000J0D01*
G01*
G37*
%TD.AperFunction*%
%TD*%
%TO.P,D3,2*%
%TO.N,Net-(D3-Pad2)*%
%TA.AperFunction,SMDPad,CuDef*%
G36*
G01*
X28875000Y-71375000D02*
X30125000Y-71375000D01*
G75*
G02*
X30375000Y-71625000I0J-250000D01*
G01*
X30375000Y-72375000D01*
G75*
G02*
X30125000Y-72625000I-250000J0D01*
G01*
X28875000Y-72625000D01*
G75*
G02*
X28625000Y-72375000I0J250000D01*
G01*
X28625000Y-71625000D01*
G75*
G02*
X28875000Y-71375000I250000J0D01*
G01*
G37*
%TD.AperFunction*%
%TO.P,D3,1*%
%TO.N,GND*%
%TA.AperFunction,SMDPad,CuDef*%
G36*
G01*
X28875000Y-68575000D02*
X30125000Y-68575000D01*
G75*
G02*
X30375000Y-68825000I0J-250000D01*
G01*
X30375000Y-69575000D01*
G75*
G02*
X30125000Y-69825000I-250000J0D01*
G01*
X28875000Y-69825000D01*
G75*
G02*
X28625000Y-69575000I0J250000D01*
G01*
X28625000Y-68825000D01*
G75*
G02*
X28875000Y-68575000I250000J0D01*
G01*
G37*
%TD.AperFunction*%
%TD*%
%TO.P,D2,2*%
%TO.N,Net-(D2-Pad2)*%
%TA.AperFunction,SMDPad,CuDef*%
G36*
G01*
X26375000Y-71375000D02*
X27625000Y-71375000D01*
G75*
G02*
X27875000Y-71625000I0J-250000D01*
G01*
X27875000Y-72375000D01*
G75*
G02*
X27625000Y-72625000I-250000J0D01*
G01*
X26375000Y-72625000D01*
G75*
G02*
X26125000Y-72375000I0J250000D01*
G01*
X26125000Y-71625000D01*
G75*
G02*
X26375000Y-71375000I250000J0D01*
G01*
G37*
%TD.AperFunction*%
%TO.P,D2,1*%
%TO.N,GND*%
%TA.AperFunction,SMDPad,CuDef*%
G36*
G01*
X26375000Y-68575000D02*
X27625000Y-68575000D01*
G75*
G02*
X27875000Y-68825000I0J-250000D01*
G01*
X27875000Y-69575000D01*
G75*
G02*
X27625000Y-69825000I-250000J0D01*
G01*
X26375000Y-69825000D01*
G75*
G02*
X26125000Y-69575000I0J250000D01*
G01*
X26125000Y-68825000D01*
G75*
G02*
X26375000Y-68575000I250000J0D01*
G01*
G37*
%TD.AperFunction*%
%TD*%
%TO.P,D1,2*%
%TO.N,Net-(D1-Pad2)*%
%TA.AperFunction,SMDPad,CuDef*%
G36*
G01*
X23875000Y-71375000D02*
X25125000Y-71375000D01*
G75*
G02*
X25375000Y-71625000I0J-250000D01*
G01*
X25375000Y-72375000D01*
G75*
G02*
X25125000Y-72625000I-250000J0D01*
G01*
X23875000Y-72625000D01*
G75*
G02*
X23625000Y-72375000I0J250000D01*
G01*
X23625000Y-71625000D01*
G75*
G02*
X23875000Y-71375000I250000J0D01*
G01*
G37*
%TD.AperFunction*%
%TO.P,D1,1*%
%TO.N,GND*%
%TA.AperFunction,SMDPad,CuDef*%
G36*
G01*
X23875000Y-68575000D02*
X25125000Y-68575000D01*
G75*
G02*
X25375000Y-68825000I0J-250000D01*
G01*
X25375000Y-69575000D01*
G75*
G02*
X25125000Y-69825000I-250000J0D01*
G01*
X23875000Y-69825000D01*
G75*
G02*
X23625000Y-69575000I0J250000D01*
G01*
X23625000Y-68825000D01*
G75*
G02*
X23875000Y-68575000I250000J0D01*
G01*
G37*
%TD.AperFunction*%
%TD*%
D12*
%TO.N,GND*%
X67000000Y-87000000D03*
X24000000Y-97000000D03*
X27540000Y-100960000D03*
X58500000Y-102500000D03*
%TO.N,Net-(J1-Pad3)*%
X83000000Y-91500000D03*
%TO.N,Net-(J1-Pad2)*%
X84015000Y-90015000D03*
%TO.N,VCC*%
X99000000Y-107500000D03*
X96500000Y-99500000D03*
%TO.N,Net-(J2-Pad3)*%
X40285000Y-90785000D03*
%TO.N,Net-(J2-Pad2)*%
X41985000Y-89515000D03*
%TO.N,Net-(J3-Pad8)*%
X46000000Y-89000000D03*
%TO.N,Net-(J3-Pad7)*%
X45000000Y-90000000D03*
%TO.N,Net-(J3-Pad6)*%
X44000000Y-91500000D03*
%TO.N,Net-(J3-Pad5)*%
X43000000Y-92500000D03*
%TO.N,Net-(J3-Pad4)*%
X42500000Y-94000000D03*
%TO.N,Net-(J3-Pad3)*%
X42000000Y-95500000D03*
%TO.N,Net-(J3-Pad2)*%
X41500000Y-97000000D03*
%TO.N,Net-(J3-Pad1)*%
X41000000Y-98500000D03*
%TD*%
D13*
%TO.N,Net-(D1-Pad2)*%
X24500000Y-76500000D02*
X24500000Y-72000000D01*
%TO.N,GND*%
X24500000Y-69200000D02*
X27000000Y-69200000D01*
X27000000Y-69200000D02*
X29500000Y-69200000D01*
X29500000Y-69200000D02*
X32000000Y-69200000D01*
X32000000Y-69200000D02*
X34500000Y-69200000D01*
X34500000Y-69200000D02*
X37000000Y-69200000D01*
X37000000Y-69200000D02*
X39500000Y-69200000D01*
X39500000Y-69200000D02*
X42000000Y-69200000D01*
X42000000Y-69200000D02*
X44500000Y-69200000D01*
X44500000Y-69200000D02*
X47000000Y-69200000D01*
X47000000Y-69200000D02*
X49500000Y-69200000D01*
X49500000Y-69200000D02*
X52000000Y-69200000D01*
X52000000Y-69200000D02*
X54500000Y-69200000D01*
X54500000Y-69200000D02*
X57000000Y-69200000D01*
X57000000Y-69200000D02*
X59500000Y-69200000D01*
X64500000Y-69200000D02*
X67000000Y-69200000D01*
X67000000Y-69200000D02*
X69500000Y-69200000D01*
X69500000Y-69200000D02*
X72000000Y-69200000D01*
X72000000Y-69200000D02*
X74500000Y-69200000D01*
X74500000Y-69200000D02*
X77000000Y-69200000D01*
X77000000Y-69200000D02*
X79500000Y-69200000D01*
X79500000Y-69200000D02*
X82000000Y-69200000D01*
X82000000Y-69200000D02*
X84500000Y-69200000D01*
X84500000Y-69200000D02*
X87000000Y-69200000D01*
X87000000Y-69200000D02*
X89500000Y-69200000D01*
X89500000Y-69200000D02*
X92000000Y-69200000D01*
X92000000Y-69200000D02*
X94500000Y-69200000D01*
X94500000Y-69200000D02*
X97000000Y-69200000D01*
X97000000Y-69200000D02*
X99500000Y-69200000D01*
X99500000Y-69200000D02*
X102000000Y-69200000D01*
X60380000Y-110000000D02*
X60380000Y-106880000D01*
X58255000Y-104755000D02*
X47650000Y-104755000D01*
X60380000Y-106880000D02*
X58255000Y-104755000D01*
X47650000Y-102215000D02*
X47650000Y-103485000D01*
X38350000Y-99675000D02*
X36325000Y-99675000D01*
X34599981Y-101400019D02*
X34599981Y-104099981D01*
X36325000Y-99675000D02*
X34599981Y-101400019D01*
X34599981Y-104099981D02*
X36000000Y-105500000D01*
X36000000Y-105500000D02*
X44000000Y-105500000D01*
X44000000Y-105500000D02*
X45000000Y-106500000D01*
X45000000Y-106500000D02*
X56500000Y-106500000D01*
X56500000Y-106500000D02*
X57500000Y-107500000D01*
X57500000Y-107500000D02*
X57500000Y-110000000D01*
X59125011Y-111625011D02*
X63374989Y-111625011D01*
X57500000Y-110000000D02*
X59125011Y-111625011D01*
X64284999Y-110715001D02*
X64284999Y-108284999D01*
X63374989Y-111625011D02*
X64284999Y-110715001D01*
X62880000Y-106880000D02*
X60380000Y-106880000D01*
X64284999Y-108284999D02*
X62880000Y-106880000D01*
X27540000Y-110000000D02*
X27540000Y-100960000D01*
X28825000Y-99675000D02*
X38350000Y-99675000D01*
X27540000Y-100960000D02*
X28825000Y-99675000D01*
X86150000Y-93825000D02*
X82825000Y-93825000D01*
X80285000Y-91285000D02*
X76850000Y-91285000D01*
X82825000Y-93825000D02*
X80285000Y-91285000D01*
X76850000Y-90015000D02*
X76850000Y-91285000D01*
X76850000Y-90015000D02*
X77985000Y-90015000D01*
X77985000Y-90015000D02*
X79000000Y-89000000D01*
X79000000Y-89000000D02*
X79000000Y-88000000D01*
X79000000Y-88000000D02*
X78000000Y-87000000D01*
X78000000Y-87000000D02*
X67000000Y-87000000D01*
X67000000Y-87000000D02*
X67000000Y-87000000D01*
X62000000Y-69200000D02*
X64500000Y-69200000D01*
X62000000Y-69200000D02*
X59500000Y-69200000D01*
X24500000Y-69200000D02*
X23800000Y-69200000D01*
X24500000Y-69200000D02*
X24300000Y-69200000D01*
X23299990Y-70200010D02*
X23299990Y-96299990D01*
X24300000Y-69200000D02*
X23299990Y-70200010D01*
X23299990Y-96299990D02*
X24000000Y-97000000D01*
X24000000Y-97000000D02*
X24000000Y-97000000D01*
X27540000Y-100960000D02*
X27540000Y-100960000D01*
X47650000Y-102215000D02*
X58215000Y-102215000D01*
X58215000Y-102215000D02*
X58500000Y-102500000D01*
X58500000Y-102500000D02*
X58500000Y-102500000D01*
%TO.N,Net-(D2-Pad2)*%
X27000000Y-76500000D02*
X27000000Y-72000000D01*
%TO.N,Net-(D3-Pad2)*%
X29500000Y-76537500D02*
X29500000Y-72000000D01*
%TO.N,Net-(D4-Pad2)*%
X32000000Y-76537500D02*
X32000000Y-72000000D01*
%TO.N,Net-(D5-Pad2)*%
X34500000Y-76500000D02*
X34500000Y-72000000D01*
%TO.N,Net-(D6-Pad2)*%
X37000000Y-76500000D02*
X37000000Y-72000000D01*
%TO.N,Net-(D7-Pad2)*%
X39500000Y-76500000D02*
X39500000Y-72000000D01*
%TO.N,Net-(D8-Pad2)*%
X42000000Y-76500000D02*
X42000000Y-72000000D01*
%TO.N,Net-(D9-Pad2)*%
X44500000Y-76500000D02*
X44500000Y-72000000D01*
%TO.N,Net-(D10-Pad2)*%
X47000000Y-76575000D02*
X47000000Y-72000000D01*
%TO.N,Net-(D11-Pad2)*%
X49500000Y-76575000D02*
X49500000Y-72000000D01*
%TO.N,Net-(D12-Pad2)*%
X52000000Y-76575000D02*
X52000000Y-72000000D01*
%TO.N,Net-(D13-Pad2)*%
X54500000Y-76575000D02*
X54500000Y-72000000D01*
%TO.N,Net-(D14-Pad2)*%
X57000000Y-76575000D02*
X57000000Y-72000000D01*
%TO.N,Net-(D15-Pad2)*%
X59500000Y-76575000D02*
X59500000Y-72000000D01*
%TO.N,Net-(D16-Pad2)*%
X62000000Y-76575000D02*
X62000000Y-72000000D01*
%TO.N,Net-(D17-Pad2)*%
X64500000Y-76575000D02*
X64500000Y-72000000D01*
%TO.N,Net-(D18-Pad2)*%
X67000000Y-76575000D02*
X67000000Y-72000000D01*
%TO.N,Net-(D19-Pad2)*%
X69500000Y-76575000D02*
X69500000Y-72000000D01*
%TO.N,Net-(D20-Pad2)*%
X72000000Y-76575000D02*
X72000000Y-72000000D01*
%TO.N,Net-(D21-Pad2)*%
X74500000Y-76575000D02*
X74500000Y-72000000D01*
%TO.N,Net-(D22-Pad2)*%
X77000000Y-76575000D02*
X77000000Y-72000000D01*
%TO.N,Net-(D23-Pad2)*%
X79500000Y-76575000D02*
X79500000Y-72000000D01*
%TO.N,Net-(D24-Pad2)*%
X82000000Y-76575000D02*
X82000000Y-72000000D01*
%TO.N,Net-(D25-Pad2)*%
X84500000Y-76575000D02*
X84500000Y-72000000D01*
%TO.N,Net-(D26-Pad2)*%
X87000000Y-76575000D02*
X87000000Y-72000000D01*
%TO.N,Net-(D27-Pad2)*%
X89500000Y-76575000D02*
X89500000Y-72000000D01*
%TO.N,Net-(D28-Pad2)*%
X92000000Y-76575000D02*
X92000000Y-72000000D01*
%TO.N,Net-(D29-Pad2)*%
X94500000Y-76575000D02*
X94500000Y-72000000D01*
%TO.N,Net-(D30-Pad2)*%
X97000000Y-76575000D02*
X97000000Y-72000000D01*
%TO.N,Net-(D31-Pad2)*%
X99500000Y-76575000D02*
X99500000Y-72000000D01*
%TO.N,Net-(D32-Pad2)*%
X102000000Y-76575000D02*
X102000000Y-72000000D01*
%TO.N,Net-(J1-Pad3)*%
X62920000Y-110000000D02*
X61744999Y-111175001D01*
X35500000Y-103500000D02*
X35500000Y-102500000D01*
X46000000Y-105500000D02*
X44610010Y-104110010D01*
X36110010Y-104110010D02*
X35500000Y-103500000D01*
X57500000Y-105500000D02*
X46000000Y-105500000D01*
X61744999Y-111175001D02*
X59675001Y-111175001D01*
X59675001Y-111175001D02*
X58500000Y-110000000D01*
X58500000Y-110000000D02*
X58500000Y-106500000D01*
X35500000Y-102500000D02*
X35785000Y-102215000D01*
X35785000Y-102215000D02*
X38350000Y-102215000D01*
X44610010Y-104110010D02*
X36110010Y-104110010D01*
X58500000Y-106500000D02*
X57500000Y-105500000D01*
X83215000Y-91285000D02*
X83000000Y-91500000D01*
X86150000Y-91285000D02*
X83215000Y-91285000D01*
%TO.N,Net-(J1-Pad2)*%
X38350000Y-103485000D02*
X44985000Y-103485000D01*
X45610010Y-104110010D02*
X61110010Y-104110010D01*
X44985000Y-103485000D02*
X45610010Y-104110010D01*
X65460000Y-108460000D02*
X65460000Y-110000000D01*
X61110010Y-104110010D02*
X65460000Y-108460000D01*
X86150000Y-90015000D02*
X84015000Y-90015000D01*
X84015000Y-90015000D02*
X84015000Y-90015000D01*
%TO.N,VCC*%
X55720010Y-97779990D02*
X57000000Y-96500000D01*
X57000000Y-96500000D02*
X57000000Y-92000000D01*
X58425000Y-92000000D02*
X58500000Y-92075000D01*
X57000000Y-92000000D02*
X58425000Y-92000000D01*
X55720010Y-97779990D02*
X46220010Y-97779990D01*
X46220010Y-97779990D02*
X45000000Y-99000000D01*
X45000000Y-99000000D02*
X43500000Y-99000000D01*
X43500000Y-99000000D02*
X43000000Y-99500000D01*
X43000000Y-99500000D02*
X40500000Y-99500000D01*
X39405000Y-98405000D02*
X38350000Y-98405000D01*
X40500000Y-99500000D02*
X39405000Y-98405000D01*
X60500000Y-102500000D02*
X60500000Y-92500000D01*
X68000000Y-110000000D02*
X60500000Y-102500000D01*
X60500000Y-92500000D02*
X60000000Y-92000000D01*
X58575000Y-92000000D02*
X58500000Y-92075000D01*
X60000000Y-92000000D02*
X58575000Y-92000000D01*
X38350000Y-98405000D02*
X25095000Y-98405000D01*
X25095000Y-98405000D02*
X24000000Y-99500000D01*
X24000000Y-109000000D02*
X25000000Y-110000000D01*
X24000000Y-99500000D02*
X24000000Y-109000000D01*
X86245000Y-95000000D02*
X86150000Y-95095000D01*
X90000000Y-95000000D02*
X86245000Y-95000000D01*
X91299990Y-96299990D02*
X90000000Y-95000000D01*
X91299990Y-98224990D02*
X91299990Y-96299990D01*
X92500000Y-99425000D02*
X91299990Y-98224990D01*
X86150000Y-95095000D02*
X81595000Y-95095000D01*
X79680010Y-93180010D02*
X74680010Y-93180010D01*
X81595000Y-95095000D02*
X79680010Y-93180010D01*
X74680010Y-93180010D02*
X74500000Y-93000000D01*
X74500000Y-93000000D02*
X74500000Y-89500000D01*
X75255000Y-88745000D02*
X76850000Y-88745000D01*
X74500000Y-89500000D02*
X75255000Y-88745000D01*
X68000000Y-110000000D02*
X72500000Y-110000000D01*
X73675001Y-111175001D02*
X97824999Y-111175001D01*
X72500000Y-110000000D02*
X73675001Y-111175001D01*
X97824999Y-111175001D02*
X99000000Y-110000000D01*
X99000000Y-110000000D02*
X99000000Y-107500000D01*
X99000000Y-107500000D02*
X99000000Y-107500000D01*
X92575000Y-99500000D02*
X92500000Y-99425000D01*
X96500000Y-99500000D02*
X92575000Y-99500000D01*
%TO.N,Net-(J2-Pad8)*%
X31720000Y-84500000D02*
X25500000Y-84500000D01*
X24500000Y-83500000D02*
X24500000Y-79425000D01*
X25500000Y-84500000D02*
X24500000Y-83500000D01*
X38350000Y-97135000D02*
X26635000Y-97135000D01*
X26635000Y-97135000D02*
X24500000Y-95000000D01*
X24500000Y-95000000D02*
X24500000Y-79425000D01*
%TO.N,Net-(J2-Pad7)*%
X33084999Y-83324999D02*
X27824999Y-83324999D01*
X34260000Y-84500000D02*
X33084999Y-83324999D01*
X27000000Y-82500000D02*
X27000000Y-79425000D01*
X27824999Y-83324999D02*
X27000000Y-82500000D01*
X38350000Y-95865000D02*
X26365000Y-95865000D01*
X26365000Y-95865000D02*
X25000000Y-94500000D01*
X25000000Y-94500000D02*
X25000000Y-86500000D01*
X25000000Y-86500000D02*
X25500000Y-86000000D01*
X32760000Y-86000000D02*
X34260000Y-84500000D01*
X25500000Y-86000000D02*
X32760000Y-86000000D01*
%TO.N,Net-(J2-Pad6)*%
X36800000Y-84500000D02*
X35174989Y-82874989D01*
X35174989Y-82874989D02*
X30374989Y-82874989D01*
X29500000Y-82000000D02*
X29500000Y-79462500D01*
X30374989Y-82874989D02*
X29500000Y-82000000D01*
X38350000Y-94595000D02*
X26095000Y-94595000D01*
X26095000Y-94595000D02*
X25500000Y-94000000D01*
X25500000Y-94000000D02*
X25500000Y-87000000D01*
X25500000Y-87000000D02*
X26000000Y-86500000D01*
X34800000Y-86500000D02*
X36800000Y-84500000D01*
X26000000Y-86500000D02*
X34800000Y-86500000D01*
%TO.N,Net-(J2-Pad5)*%
X39340000Y-84500000D02*
X37264979Y-82424979D01*
X37264979Y-82424979D02*
X32924979Y-82424979D01*
X32000000Y-81500000D02*
X32000000Y-79462500D01*
X32924979Y-82424979D02*
X32000000Y-81500000D01*
X38350000Y-93325000D02*
X26325000Y-93325000D01*
X26325000Y-93325000D02*
X26000000Y-93000000D01*
X26000000Y-93000000D02*
X26000000Y-87500000D01*
X26000000Y-87500000D02*
X26500000Y-87000000D01*
X36840000Y-87000000D02*
X39340000Y-84500000D01*
X26500000Y-87000000D02*
X36840000Y-87000000D01*
%TO.N,Net-(J2-Pad4)*%
X41880000Y-84500000D02*
X39354969Y-81974969D01*
X39354969Y-81974969D02*
X35474969Y-81974969D01*
X34500000Y-81000000D02*
X34500000Y-79425000D01*
X35474969Y-81974969D02*
X34500000Y-81000000D01*
X38350000Y-92055000D02*
X27055000Y-92055000D01*
X27055000Y-92055000D02*
X26500000Y-91500000D01*
X26500000Y-91500000D02*
X26500000Y-88000000D01*
X26500000Y-88000000D02*
X27000000Y-87500000D01*
X27000000Y-87500000D02*
X37000000Y-87500000D01*
X37000000Y-87500000D02*
X38500000Y-86000000D01*
X40380000Y-86000000D02*
X41880000Y-84500000D01*
X38500000Y-86000000D02*
X40380000Y-86000000D01*
%TO.N,Net-(J2-Pad3)*%
X44420000Y-84500000D02*
X41420000Y-81500000D01*
X41420000Y-81500000D02*
X37500000Y-81500000D01*
X37000000Y-81000000D02*
X37000000Y-79425000D01*
X37500000Y-81500000D02*
X37000000Y-81000000D01*
X38350000Y-90785000D02*
X40285000Y-90785000D01*
X40285000Y-90785000D02*
X40285000Y-90785000D01*
%TO.N,Net-(J2-Pad2)*%
X46960000Y-84500000D02*
X44960000Y-82500000D01*
X44960000Y-82500000D02*
X43500000Y-82500000D01*
X43500000Y-82500000D02*
X42000000Y-81000000D01*
X42000000Y-81000000D02*
X40000000Y-81000000D01*
X39500000Y-80500000D02*
X39500000Y-79425000D01*
X40000000Y-81000000D02*
X39500000Y-80500000D01*
X38350000Y-89515000D02*
X41985000Y-89515000D01*
X41985000Y-89515000D02*
X41985000Y-89515000D01*
%TO.N,Net-(J2-Pad1)*%
X49500000Y-84500000D02*
X46500000Y-81500000D01*
X46500000Y-81500000D02*
X43500000Y-81500000D01*
X42000000Y-80000000D02*
X42000000Y-79425000D01*
X43500000Y-81500000D02*
X42000000Y-80000000D01*
X45000000Y-87000000D02*
X45000000Y-87000000D01*
X48000000Y-86000000D02*
X49500000Y-84500000D01*
X46000000Y-86000000D02*
X48000000Y-86000000D01*
X43755000Y-88245000D02*
X46000000Y-86000000D01*
X38350000Y-88245000D02*
X43755000Y-88245000D01*
%TO.N,Net-(J3-Pad8)*%
X47650000Y-87350000D02*
X47650000Y-88245000D01*
X49000000Y-86000000D02*
X47650000Y-87350000D01*
X48636410Y-83000000D02*
X51000000Y-83000000D01*
X50500000Y-86000000D02*
X49000000Y-86000000D01*
X46636410Y-81000000D02*
X48636410Y-83000000D01*
X51000000Y-85500000D02*
X50500000Y-86000000D01*
X51000000Y-83000000D02*
X51000000Y-85500000D01*
X45000000Y-81000000D02*
X46636410Y-81000000D01*
X44500000Y-80500000D02*
X45000000Y-81000000D01*
X44500000Y-79425000D02*
X44500000Y-80500000D01*
X47650000Y-88245000D02*
X46255000Y-88245000D01*
X46000000Y-88500000D02*
X46000000Y-89000000D01*
X46255000Y-88245000D02*
X46000000Y-88500000D01*
%TO.N,Net-(J3-Pad7)*%
X47000000Y-79500000D02*
X47000000Y-80500000D01*
X47000000Y-80500000D02*
X49000000Y-82500000D01*
X51136410Y-82500000D02*
X51500000Y-82863590D01*
X49000000Y-82500000D02*
X51136410Y-82500000D01*
X51500000Y-85636410D02*
X50000000Y-87136410D01*
X51500000Y-82863590D02*
X51500000Y-85636410D01*
X50000000Y-88190000D02*
X48675000Y-89515000D01*
X48675000Y-89515000D02*
X47650000Y-89515000D01*
X50000000Y-87136410D02*
X50000000Y-88190000D01*
X47350000Y-89815000D02*
X45185000Y-89815000D01*
X47650000Y-89515000D02*
X47350000Y-89815000D01*
X45185000Y-89815000D02*
X45000000Y-90000000D01*
X45000000Y-90000000D02*
X45000000Y-90000000D01*
%TO.N,Net-(J3-Pad6)*%
X47650000Y-90785000D02*
X48215000Y-90785000D01*
X48215000Y-90785000D02*
X52000000Y-87000000D01*
X52000000Y-87000000D02*
X52000000Y-82500000D01*
X52000000Y-82500000D02*
X51500000Y-82000000D01*
X51500000Y-82000000D02*
X49500000Y-82000000D01*
X49500000Y-82000000D02*
X49500000Y-79500000D01*
X47650000Y-90785000D02*
X46215000Y-90785000D01*
X46215000Y-90785000D02*
X46000000Y-91000000D01*
X44500000Y-91000000D02*
X44000000Y-91500000D01*
X46000000Y-91000000D02*
X44500000Y-91000000D01*
%TO.N,Net-(J3-Pad5)*%
X52000000Y-79500000D02*
X52000000Y-81500000D01*
X52450010Y-81950010D02*
X52450010Y-87549990D01*
X52000000Y-81500000D02*
X52450010Y-81950010D01*
X52450010Y-87549990D02*
X49000000Y-91000000D01*
X49000000Y-91000000D02*
X49000000Y-92000000D01*
X47705000Y-92000000D02*
X47650000Y-92055000D01*
X49000000Y-92000000D02*
X47705000Y-92000000D01*
X43145000Y-92355000D02*
X43000000Y-92500000D01*
X47350000Y-92355000D02*
X43145000Y-92355000D01*
X47650000Y-92055000D02*
X47350000Y-92355000D01*
%TO.N,Net-(J3-Pad4)*%
X48311410Y-93325000D02*
X47650000Y-93325000D01*
X49500000Y-92136410D02*
X48311410Y-93325000D01*
X49500000Y-91500000D02*
X49500000Y-92136410D01*
X53000000Y-88000000D02*
X49500000Y-91500000D01*
X53000000Y-81000000D02*
X53000000Y-88000000D01*
X54500000Y-79500000D02*
X53000000Y-81000000D01*
X43175000Y-93325000D02*
X42500000Y-94000000D01*
X47650000Y-93325000D02*
X43175000Y-93325000D01*
%TO.N,Net-(J3-Pad3)*%
X56000000Y-80500000D02*
X57000000Y-79500000D01*
X53500000Y-82000000D02*
X55000000Y-80500000D01*
X53500000Y-88500000D02*
X53500000Y-82000000D01*
X50000000Y-92000000D02*
X53500000Y-88500000D01*
X47650000Y-94595000D02*
X48675000Y-94595000D01*
X50000000Y-93270000D02*
X50000000Y-92000000D01*
X55000000Y-80500000D02*
X56000000Y-80500000D01*
X48675000Y-94595000D02*
X50000000Y-93270000D01*
X47650000Y-94595000D02*
X43405000Y-94595000D01*
X42500000Y-95500000D02*
X42000000Y-95500000D01*
X43405000Y-94595000D02*
X42500000Y-95500000D01*
%TO.N,Net-(J3-Pad2)*%
X48635000Y-95865000D02*
X47650000Y-95865000D01*
X50450010Y-92549990D02*
X50450010Y-94049990D01*
X54000000Y-89000000D02*
X50450010Y-92549990D01*
X50450010Y-94049990D02*
X48635000Y-95865000D01*
X55500000Y-81000000D02*
X54000000Y-82500000D01*
X58000000Y-81000000D02*
X55500000Y-81000000D01*
X54000000Y-82500000D02*
X54000000Y-89000000D01*
X59500000Y-79500000D02*
X58000000Y-81000000D01*
X47650000Y-95865000D02*
X43135000Y-95865000D01*
X42000000Y-97000000D02*
X41500000Y-97000000D01*
X43135000Y-95865000D02*
X42000000Y-97000000D01*
%TO.N,Net-(J3-Pad1)*%
X48675000Y-97135000D02*
X51000000Y-94810000D01*
X47650000Y-97135000D02*
X48675000Y-97135000D01*
X51000000Y-94810000D02*
X51000000Y-93000000D01*
X54500000Y-89500000D02*
X54500000Y-82636410D01*
X51000000Y-93000000D02*
X54500000Y-89500000D01*
X54500000Y-82636410D02*
X55636410Y-81500000D01*
X55636410Y-81500000D02*
X59500000Y-81500000D01*
X61500000Y-79500000D02*
X62000000Y-79500000D01*
X59500000Y-81500000D02*
X61500000Y-79500000D01*
X47650000Y-97135000D02*
X43865000Y-97135000D01*
X43865000Y-97135000D02*
X42500000Y-98500000D01*
X42500000Y-98500000D02*
X41000000Y-98500000D01*
%TO.N,Net-(J4-Pad8)*%
X84500000Y-79500000D02*
X83000000Y-81000000D01*
X83000000Y-81000000D02*
X81500000Y-81000000D01*
X80636410Y-81500000D02*
X80398870Y-81737540D01*
X81000000Y-81500000D02*
X80636410Y-81500000D01*
X81500000Y-81000000D02*
X81000000Y-81500000D01*
X80398870Y-81737540D02*
X76762460Y-81737540D01*
X76500000Y-83800000D02*
X76300000Y-84000000D01*
X76500000Y-82000000D02*
X76500000Y-83800000D01*
X76762460Y-81737540D02*
X76500000Y-82000000D01*
X76300000Y-84000000D02*
X78800000Y-86500000D01*
X78800000Y-86500000D02*
X84000000Y-86500000D01*
X85619990Y-88119990D02*
X99119990Y-88119990D01*
X84000000Y-86500000D02*
X85619990Y-88119990D01*
X99119990Y-88119990D02*
X99500000Y-88500000D01*
X99500000Y-88500000D02*
X99500000Y-101500000D01*
X99500000Y-101500000D02*
X99000000Y-102000000D01*
X99000000Y-102000000D02*
X90500000Y-102000000D01*
X90500000Y-102000000D02*
X88500000Y-100000000D01*
X88500000Y-100000000D02*
X88500000Y-97000000D01*
X87865000Y-96365000D02*
X86150000Y-96365000D01*
X88500000Y-97000000D02*
X87865000Y-96365000D01*
%TO.N,Net-(J4-Pad7)*%
X82743590Y-82000000D02*
X83761805Y-80981785D01*
X86018215Y-80981785D02*
X87000000Y-80000000D01*
X80840000Y-82000000D02*
X82743590Y-82000000D01*
X83761805Y-80981785D02*
X86018215Y-80981785D01*
X87000000Y-80000000D02*
X87000000Y-79500000D01*
X78840000Y-84000000D02*
X80840000Y-82000000D01*
X87175000Y-97635000D02*
X86150000Y-97635000D01*
X99500000Y-102500000D02*
X90272820Y-102500000D01*
X100000000Y-102000000D02*
X99500000Y-102500000D01*
X88000000Y-98460000D02*
X87175000Y-97635000D01*
X100000000Y-88000000D02*
X100000000Y-102000000D01*
X90272820Y-102500000D02*
X88000000Y-100227180D01*
X78840000Y-84000000D02*
X80840000Y-86000000D01*
X84363590Y-86000000D02*
X85863590Y-87500000D01*
X99500000Y-87500000D02*
X100000000Y-88000000D01*
X80840000Y-86000000D02*
X84363590Y-86000000D01*
X88000000Y-100227180D02*
X88000000Y-98460000D01*
X85863590Y-87500000D02*
X99500000Y-87500000D01*
%TO.N,Net-(J4-Pad6)*%
X81380000Y-84000000D02*
X83948205Y-81431795D01*
X83948205Y-81431795D02*
X89068205Y-81431795D01*
X89500000Y-81000000D02*
X89500000Y-79500000D01*
X89068205Y-81431795D02*
X89500000Y-81000000D01*
X87500000Y-99000000D02*
X86245000Y-99000000D01*
X86245000Y-99000000D02*
X86150000Y-98905000D01*
X90136410Y-103000000D02*
X87500000Y-100363590D01*
X99863590Y-103000000D02*
X90136410Y-103000000D01*
X86000000Y-87000000D02*
X100000000Y-87000000D01*
X87500000Y-100363590D02*
X87500000Y-99000000D01*
X100500000Y-102363590D02*
X99863590Y-103000000D01*
X82880000Y-85500000D02*
X84500000Y-85500000D01*
X100500000Y-87500000D02*
X100500000Y-102363590D01*
X100000000Y-87000000D02*
X100500000Y-87500000D01*
X84500000Y-85500000D02*
X86000000Y-87000000D01*
X81380000Y-84000000D02*
X82880000Y-85500000D01*
%TO.N,Net-(J4-Pad5)*%
X83920000Y-83080000D02*
X83920000Y-84000000D01*
X85000000Y-82000000D02*
X83920000Y-83080000D01*
X89500000Y-82000000D02*
X85000000Y-82000000D01*
X92000000Y-79500000D02*
X89500000Y-82000000D01*
X86675000Y-100175000D02*
X86150000Y-100175000D01*
X101000000Y-102500000D02*
X100000000Y-103500000D01*
X101000000Y-87000000D02*
X101000000Y-102500000D01*
X100000000Y-103500000D02*
X90000000Y-103500000D01*
X100525031Y-86525031D02*
X101000000Y-87000000D01*
X90000000Y-103500000D02*
X86675000Y-100175000D01*
X86445031Y-86525031D02*
X100525031Y-86525031D01*
X83920000Y-84000000D02*
X86445031Y-86525031D01*
%TO.N,Net-(J4-Pad4)*%
X94500000Y-79500000D02*
X94500000Y-81000000D01*
X93950010Y-81549990D02*
X91049990Y-81549990D01*
X94500000Y-81000000D02*
X93950010Y-81549990D01*
X91000000Y-81599980D02*
X90900020Y-81599980D01*
X91049990Y-81549990D02*
X91000000Y-81599980D01*
X90900020Y-81599980D02*
X90000000Y-82500000D01*
X90000000Y-82500000D02*
X88500000Y-82500000D01*
X87460000Y-83000000D02*
X86460000Y-84000000D01*
X88000000Y-83000000D02*
X87460000Y-83000000D01*
X88500000Y-82500000D02*
X88000000Y-83000000D01*
X86460000Y-84000000D02*
X88535021Y-86075021D01*
X88535021Y-86075021D02*
X101075021Y-86075021D01*
X101075021Y-86075021D02*
X101500000Y-86500000D01*
X101500000Y-86500000D02*
X101500000Y-103000000D01*
X101500000Y-103000000D02*
X100500000Y-104000000D01*
X100500000Y-104000000D02*
X89500000Y-104000000D01*
X89500000Y-104000000D02*
X87500000Y-102000000D01*
X86705000Y-102000000D02*
X86150000Y-101445000D01*
X87500000Y-102000000D02*
X86705000Y-102000000D01*
%TO.N,Net-(J4-Pad3)*%
X97000000Y-79500000D02*
X97000000Y-81500000D01*
X97000000Y-81500000D02*
X96500000Y-82000000D01*
X96500000Y-82000000D02*
X91500000Y-82000000D01*
X91500000Y-82000000D02*
X90500000Y-83000000D01*
X90000000Y-83000000D02*
X89000000Y-84000000D01*
X90500000Y-83000000D02*
X90000000Y-83000000D01*
X89000000Y-84000000D02*
X90625011Y-85625011D01*
X90625011Y-85625011D02*
X101625011Y-85625011D01*
X101625011Y-85625011D02*
X102000000Y-86000000D01*
X102000000Y-86000000D02*
X102000000Y-104000000D01*
X102000000Y-104000000D02*
X101500000Y-104500000D01*
X101500000Y-104500000D02*
X89000000Y-104500000D01*
X87215000Y-102715000D02*
X86150000Y-102715000D01*
X89000000Y-104500000D02*
X87215000Y-102715000D01*
%TO.N,Net-(J4-Pad2)*%
X99500000Y-79500000D02*
X99500000Y-81500000D01*
X99500000Y-81500000D02*
X98500000Y-82500000D01*
X93040000Y-82500000D02*
X91540000Y-84000000D01*
X98500000Y-82500000D02*
X93040000Y-82500000D01*
X87485000Y-103985000D02*
X86150000Y-103985000D01*
X102000000Y-105000000D02*
X88500000Y-105000000D01*
X92715001Y-85175001D02*
X102175001Y-85175001D01*
X102500000Y-104500000D02*
X102000000Y-105000000D01*
X102175001Y-85175001D02*
X102500000Y-85500000D01*
X102500000Y-85500000D02*
X102500000Y-104500000D01*
X88500000Y-105000000D02*
X87485000Y-103985000D01*
X91540000Y-84000000D02*
X92715001Y-85175001D01*
%TO.N,Net-(J4-Pad1)*%
X102000000Y-84000000D02*
X103000000Y-85000000D01*
X103000000Y-85000000D02*
X103000000Y-105000000D01*
X103000000Y-105000000D02*
X102500000Y-105500000D01*
X86395000Y-105500000D02*
X86150000Y-105255000D01*
X102500000Y-105500000D02*
X86395000Y-105500000D01*
X101500000Y-84000000D02*
X101500000Y-80000000D01*
X101500000Y-80000000D02*
X102000000Y-79500000D01*
X94080000Y-84000000D02*
X101500000Y-84000000D01*
X101500000Y-84000000D02*
X102000000Y-84000000D01*
%TO.N,Net-(J5-Pad8)*%
X76850000Y-109410000D02*
X76260000Y-110000000D01*
X76850000Y-105255000D02*
X76850000Y-109410000D01*
X76850000Y-105255000D02*
X64255000Y-105255000D01*
X64255000Y-105255000D02*
X61000000Y-102000000D01*
X61000000Y-102000000D02*
X61000000Y-82000000D01*
X61000000Y-82000000D02*
X62500000Y-80500000D01*
X63500000Y-80500000D02*
X64500000Y-79500000D01*
X62500000Y-80500000D02*
X63500000Y-80500000D01*
%TO.N,Net-(J5-Pad7)*%
X76850000Y-103985000D02*
X64015000Y-103985000D01*
X63530000Y-103500000D02*
X63500000Y-103500000D01*
X64015000Y-103985000D02*
X63530000Y-103500000D01*
X61500000Y-101500000D02*
X61500000Y-82136410D01*
X63500000Y-103500000D02*
X61500000Y-101500000D01*
X61500000Y-82136410D02*
X62636410Y-81000000D01*
X65500000Y-81000000D02*
X67000000Y-79500000D01*
X62636410Y-81000000D02*
X65500000Y-81000000D01*
X76850000Y-103985000D02*
X77485000Y-103985000D01*
X78200010Y-109400010D02*
X78800000Y-110000000D01*
X78200010Y-104700010D02*
X78200010Y-109400010D01*
X77485000Y-103985000D02*
X78200010Y-104700010D01*
%TO.N,Net-(J5-Pad6)*%
X76850000Y-102715000D02*
X63715000Y-102715000D01*
X63715000Y-102715000D02*
X62000000Y-101000000D01*
X62000000Y-101000000D02*
X62000000Y-82500000D01*
X62000000Y-82500000D02*
X63000000Y-81500000D01*
X67500000Y-81500000D02*
X69500000Y-79500000D01*
X63000000Y-81500000D02*
X67500000Y-81500000D01*
X80500000Y-110000000D02*
X81340000Y-110000000D01*
X79000000Y-108500000D02*
X80500000Y-110000000D01*
X79000000Y-103840000D02*
X79000000Y-108500000D01*
X77875000Y-102715000D02*
X79000000Y-103840000D01*
X76850000Y-102715000D02*
X77875000Y-102715000D01*
%TO.N,Net-(J5-Pad5)*%
X62500000Y-83000000D02*
X63500000Y-82000000D01*
X63500000Y-82000000D02*
X69000000Y-82000000D01*
X69000000Y-82000000D02*
X71500000Y-79500000D01*
X62500000Y-100000000D02*
X62500000Y-83000000D01*
X63945000Y-101445000D02*
X62500000Y-100000000D01*
X71500000Y-79500000D02*
X72000000Y-79500000D01*
X76850000Y-101445000D02*
X63945000Y-101445000D01*
X82704999Y-108824999D02*
X83880000Y-110000000D01*
X79500000Y-103000000D02*
X79500000Y-107500000D01*
X77945000Y-101445000D02*
X79500000Y-103000000D01*
X80824999Y-108824999D02*
X82704999Y-108824999D01*
X79500000Y-107500000D02*
X80824999Y-108824999D01*
X76850000Y-101445000D02*
X77945000Y-101445000D01*
%TO.N,Net-(J5-Pad4)*%
X76850000Y-100175000D02*
X64175000Y-100175000D01*
X64175000Y-100175000D02*
X63000000Y-99000000D01*
X63000000Y-99000000D02*
X63000000Y-83500000D01*
X64049990Y-82450010D02*
X70549990Y-82450010D01*
X63000000Y-83500000D02*
X64049990Y-82450010D01*
X73612490Y-80387510D02*
X74500000Y-79500000D01*
X72612490Y-80387510D02*
X73612490Y-80387510D01*
X70549990Y-82450010D02*
X72612490Y-80387510D01*
X79950010Y-101950010D02*
X78175000Y-100175000D01*
X79950010Y-106950010D02*
X79950010Y-101950010D01*
X78175000Y-100175000D02*
X76850000Y-100175000D01*
X84420000Y-108000000D02*
X81000000Y-108000000D01*
X81000000Y-108000000D02*
X79950010Y-106950010D01*
X86420000Y-110000000D02*
X84420000Y-108000000D01*
%TO.N,Net-(J5-Pad3)*%
X76850000Y-98905000D02*
X64905000Y-98905000D01*
X64905000Y-98905000D02*
X63500000Y-97500000D01*
X63500000Y-97500000D02*
X63500000Y-84000000D01*
X64599980Y-82900020D02*
X72599980Y-82900020D01*
X63500000Y-84000000D02*
X64599980Y-82900020D01*
X76112490Y-80387510D02*
X77000000Y-79500000D01*
X75112490Y-80387510D02*
X76112490Y-80387510D01*
X72599980Y-82900020D02*
X75112490Y-80387510D01*
X81500000Y-107500000D02*
X86460000Y-107500000D01*
X80500000Y-106500000D02*
X81500000Y-107500000D01*
X80500000Y-101530000D02*
X80500000Y-106500000D01*
X77875000Y-98905000D02*
X80500000Y-101530000D01*
X86460000Y-107500000D02*
X88960000Y-110000000D01*
X76850000Y-98905000D02*
X77875000Y-98905000D01*
%TO.N,Net-(J5-Pad2)*%
X76850000Y-97635000D02*
X65135000Y-97635000D01*
X65135000Y-97635000D02*
X64000000Y-96500000D01*
X64000000Y-96500000D02*
X64000000Y-84500000D01*
X64000000Y-84500000D02*
X65000000Y-83500000D01*
X65000000Y-83500000D02*
X73000000Y-83500000D01*
X73000000Y-83500000D02*
X75662480Y-80837520D01*
X78162480Y-80837520D02*
X79500000Y-79500000D01*
X75662480Y-80837520D02*
X78162480Y-80837520D01*
X91500000Y-110000000D02*
X88500000Y-107000000D01*
X88500000Y-107000000D02*
X82000000Y-107000000D01*
X80950010Y-105950010D02*
X80950010Y-99450010D01*
X82000000Y-107000000D02*
X80950010Y-105950010D01*
X79135000Y-97635000D02*
X76850000Y-97635000D01*
X80950010Y-99450010D02*
X79135000Y-97635000D01*
%TO.N,Net-(J5-Pad1)*%
X76850000Y-96365000D02*
X65365000Y-96365000D01*
X65365000Y-96365000D02*
X64500000Y-95500000D01*
X64500000Y-95500000D02*
X64500000Y-85000000D01*
X65549990Y-83950010D02*
X73549990Y-83950010D01*
X64500000Y-85000000D02*
X65549990Y-83950010D01*
X80212470Y-81287530D02*
X82000000Y-79500000D01*
X76212470Y-81287530D02*
X80212470Y-81287530D01*
X73549990Y-83950010D02*
X76212470Y-81287530D01*
X94040000Y-110000000D02*
X90540000Y-106500000D01*
X90540000Y-106500000D02*
X82136410Y-106500000D01*
X81400020Y-105763610D02*
X81400020Y-98400020D01*
X82136410Y-106500000D02*
X81400020Y-105763610D01*
X79365000Y-96365000D02*
X76850000Y-96365000D01*
X81400020Y-98400020D02*
X79365000Y-96365000D01*
%TO.N,Net-(R33-Pad2)*%
X92500000Y-96500000D02*
X92500000Y-95500000D01*
X91469990Y-94469990D02*
X82469990Y-94469990D01*
X92500000Y-95500000D02*
X91469990Y-94469990D01*
X80555000Y-92555000D02*
X76850000Y-92555000D01*
X82469990Y-94469990D02*
X80555000Y-92555000D01*
%TO.N,Net-(R34-Pad2)*%
X48675000Y-100945000D02*
X48730000Y-101000000D01*
X47650000Y-100945000D02*
X48675000Y-100945000D01*
X48730000Y-101000000D02*
X57500000Y-101000000D01*
X58500000Y-100000000D02*
X58500000Y-95000000D01*
X57500000Y-101000000D02*
X58500000Y-100000000D01*
%TD*%
M02*
