%TF.GenerationSoftware,KiCad,Pcbnew,(5.1.9-0-10_14)*%
%TF.CreationDate,2021-08-25T01:40:26+02:00*%
%TF.ProjectId,i2c-32io,6932632d-3332-4696-9f2e-6b696361645f,rev?*%
%TF.SameCoordinates,Original*%
%TF.FileFunction,Copper,L2,Bot*%
%TF.FilePolarity,Positive*%
%FSLAX46Y46*%
G04 Gerber Fmt 4.6, Leading zero omitted, Abs format (unit mm)*
G04 Created by KiCad (PCBNEW (5.1.9-0-10_14)) date 2021-08-25 01:40:26*
%MOMM*%
%LPD*%
G01*
G04 APERTURE LIST*
%TA.AperFunction,ComponentPad*%
%ADD10O,1.700000X1.700000*%
%TD*%
%TA.AperFunction,ComponentPad*%
%ADD11R,1.700000X1.700000*%
%TD*%
%TA.AperFunction,ViaPad*%
%ADD12C,0.800000*%
%TD*%
%TA.AperFunction,Conductor*%
%ADD13C,0.250000*%
%TD*%
%TA.AperFunction,NonConductor*%
%ADD14C,0.254000*%
%TD*%
%TA.AperFunction,NonConductor*%
%ADD15C,0.100000*%
%TD*%
G04 APERTURE END LIST*
D10*
%TO.P,J6,2*%
%TO.N,GND*%
X27540000Y-110000000D03*
D11*
%TO.P,J6,1*%
%TO.N,VCC*%
X25000000Y-110000000D03*
%TD*%
D10*
%TO.P,J4,8*%
%TO.N,Net-(J4-Pad8)*%
X76300000Y-84000000D03*
%TO.P,J4,7*%
%TO.N,Net-(J4-Pad7)*%
X78840000Y-84000000D03*
%TO.P,J4,6*%
%TO.N,Net-(J4-Pad6)*%
X81380000Y-84000000D03*
%TO.P,J4,5*%
%TO.N,Net-(J4-Pad5)*%
X83920000Y-84000000D03*
%TO.P,J4,4*%
%TO.N,Net-(J4-Pad4)*%
X86460000Y-84000000D03*
%TO.P,J4,3*%
%TO.N,Net-(J4-Pad3)*%
X89000000Y-84000000D03*
%TO.P,J4,2*%
%TO.N,Net-(J4-Pad2)*%
X91540000Y-84000000D03*
D11*
%TO.P,J4,1*%
%TO.N,Net-(J4-Pad1)*%
X94080000Y-84000000D03*
%TD*%
D10*
%TO.P,J3,8*%
%TO.N,Net-(J3-Pad8)*%
X50080000Y-110000000D03*
%TO.P,J3,7*%
%TO.N,Net-(J3-Pad7)*%
X47540000Y-110000000D03*
%TO.P,J3,6*%
%TO.N,Net-(J3-Pad6)*%
X45000000Y-110000000D03*
%TO.P,J3,5*%
%TO.N,Net-(J3-Pad5)*%
X42460000Y-110000000D03*
%TO.P,J3,4*%
%TO.N,Net-(J3-Pad4)*%
X39920000Y-110000000D03*
%TO.P,J3,3*%
%TO.N,Net-(J3-Pad3)*%
X37380000Y-110000000D03*
%TO.P,J3,2*%
%TO.N,Net-(J3-Pad2)*%
X34840000Y-110000000D03*
D11*
%TO.P,J3,1*%
%TO.N,Net-(J3-Pad1)*%
X32300000Y-110000000D03*
%TD*%
D10*
%TO.P,J2,8*%
%TO.N,Net-(J2-Pad8)*%
X31720000Y-84500000D03*
%TO.P,J2,7*%
%TO.N,Net-(J2-Pad7)*%
X34260000Y-84500000D03*
%TO.P,J2,6*%
%TO.N,Net-(J2-Pad6)*%
X36800000Y-84500000D03*
%TO.P,J2,5*%
%TO.N,Net-(J2-Pad5)*%
X39340000Y-84500000D03*
%TO.P,J2,4*%
%TO.N,Net-(J2-Pad4)*%
X41880000Y-84500000D03*
%TO.P,J2,3*%
%TO.N,Net-(J2-Pad3)*%
X44420000Y-84500000D03*
%TO.P,J2,2*%
%TO.N,Net-(J2-Pad2)*%
X46960000Y-84500000D03*
D11*
%TO.P,J2,1*%
%TO.N,Net-(J2-Pad1)*%
X49500000Y-84500000D03*
%TD*%
D10*
%TO.P,J1,4*%
%TO.N,GND*%
X60380000Y-110000000D03*
%TO.P,J1,3*%
%TO.N,Net-(J1-Pad3)*%
X62920000Y-110000000D03*
%TO.P,J1,2*%
%TO.N,Net-(J1-Pad2)*%
X65460000Y-110000000D03*
D11*
%TO.P,J1,1*%
%TO.N,VCC*%
X68000000Y-110000000D03*
%TD*%
D10*
%TO.P,J5,8*%
%TO.N,Net-(J5-Pad8)*%
X76260000Y-110000000D03*
%TO.P,J5,7*%
%TO.N,Net-(J5-Pad7)*%
X78800000Y-110000000D03*
%TO.P,J5,6*%
%TO.N,Net-(J5-Pad6)*%
X81340000Y-110000000D03*
%TO.P,J5,5*%
%TO.N,Net-(J5-Pad5)*%
X83880000Y-110000000D03*
%TO.P,J5,4*%
%TO.N,Net-(J5-Pad4)*%
X86420000Y-110000000D03*
%TO.P,J5,3*%
%TO.N,Net-(J5-Pad3)*%
X88960000Y-110000000D03*
%TO.P,J5,2*%
%TO.N,Net-(J5-Pad2)*%
X91500000Y-110000000D03*
D11*
%TO.P,J5,1*%
%TO.N,Net-(J5-Pad1)*%
X94040000Y-110000000D03*
%TD*%
D12*
%TO.N,GND*%
X67000000Y-87000000D03*
X24000000Y-97000000D03*
X27540000Y-100960000D03*
X58500000Y-102500000D03*
%TO.N,Net-(J1-Pad3)*%
X83000000Y-91500000D03*
%TO.N,Net-(J1-Pad2)*%
X84015000Y-90015000D03*
%TO.N,VCC*%
X99000000Y-107500000D03*
X96500000Y-99500000D03*
%TO.N,Net-(J2-Pad3)*%
X40285000Y-90785000D03*
%TO.N,Net-(J2-Pad2)*%
X41985000Y-89515000D03*
%TO.N,Net-(J3-Pad8)*%
X46000000Y-89000000D03*
%TO.N,Net-(J3-Pad7)*%
X45000000Y-90000000D03*
%TO.N,Net-(J3-Pad6)*%
X44000000Y-91500000D03*
%TO.N,Net-(J3-Pad5)*%
X43000000Y-92500000D03*
%TO.N,Net-(J3-Pad4)*%
X42500000Y-94000000D03*
%TO.N,Net-(J3-Pad3)*%
X42000000Y-95500000D03*
%TO.N,Net-(J3-Pad2)*%
X41500000Y-97000000D03*
%TO.N,Net-(J3-Pad1)*%
X41000000Y-98500000D03*
%TD*%
D13*
%TO.N,GND*%
X67000000Y-87000000D02*
X62000000Y-87000000D01*
X62000000Y-87000000D02*
X60380000Y-88620000D01*
X27540000Y-100540000D02*
X27540000Y-100960000D01*
X24000000Y-97000000D02*
X27540000Y-100540000D01*
X58500000Y-102500000D02*
X59760000Y-102500000D01*
X60380000Y-103120000D02*
X60380000Y-110000000D01*
X59760000Y-102500000D02*
X60380000Y-103120000D01*
X60380000Y-88620000D02*
X60380000Y-103120000D01*
%TO.N,Net-(J1-Pad3)*%
X62920000Y-110000000D02*
X65920000Y-107000000D01*
X65920000Y-107000000D02*
X82000000Y-107000000D01*
X82000000Y-107000000D02*
X83500000Y-105500000D01*
X83500000Y-105500000D02*
X83500000Y-92000000D01*
X83500000Y-92000000D02*
X83000000Y-91500000D01*
X83000000Y-91500000D02*
X83000000Y-91500000D01*
%TO.N,Net-(J1-Pad2)*%
X84015000Y-90015000D02*
X84015000Y-106485000D01*
X84015000Y-106485000D02*
X82500000Y-108000000D01*
X82500000Y-108000000D02*
X66000000Y-108000000D01*
X65460000Y-108540000D02*
X65460000Y-110000000D01*
X66000000Y-108000000D02*
X65460000Y-108540000D01*
%TO.N,VCC*%
X99000000Y-107500000D02*
X99000000Y-100500000D01*
X99000000Y-100500000D02*
X98000000Y-99500000D01*
X98000000Y-99500000D02*
X96500000Y-99500000D01*
X96500000Y-99500000D02*
X96500000Y-99500000D01*
%TO.N,Net-(J2-Pad3)*%
X40285000Y-90785000D02*
X40285000Y-87390001D01*
X42000000Y-85675001D02*
X42824999Y-85675001D01*
X40285000Y-87390001D02*
X42000000Y-85675001D01*
X44000000Y-84500000D02*
X44420000Y-84500000D01*
X42824999Y-85675001D02*
X44000000Y-84500000D01*
%TO.N,Net-(J2-Pad2)*%
X41985000Y-89515000D02*
X41985000Y-87515000D01*
X41985000Y-87515000D02*
X43000000Y-86500000D01*
X44159002Y-86500000D02*
X44659002Y-86000000D01*
X43000000Y-86500000D02*
X44159002Y-86500000D01*
X45460000Y-86000000D02*
X46960000Y-84500000D01*
X44659002Y-86000000D02*
X45460000Y-86000000D01*
%TO.N,Net-(J3-Pad8)*%
X50080000Y-109500000D02*
X56000000Y-109500000D01*
X56000000Y-109500000D02*
X57000000Y-108500000D01*
X57000000Y-108500000D02*
X57000000Y-89500000D01*
X57000000Y-89500000D02*
X56500000Y-89000000D01*
X56500000Y-89000000D02*
X46000000Y-89000000D01*
X46000000Y-89000000D02*
X46000000Y-89000000D01*
%TO.N,Net-(J3-Pad7)*%
X45000000Y-90000000D02*
X45000000Y-106000000D01*
X47540000Y-108540000D02*
X47540000Y-109500000D01*
X45000000Y-106000000D02*
X47540000Y-108540000D01*
%TO.N,Net-(J3-Pad6)*%
X45000000Y-109500000D02*
X44000000Y-108500000D01*
X44000000Y-108500000D02*
X44000000Y-91500000D01*
X44000000Y-91500000D02*
X44000000Y-91500000D01*
%TO.N,Net-(J3-Pad5)*%
X42460000Y-109500000D02*
X42460000Y-108540000D01*
X42460000Y-108540000D02*
X43500000Y-107500000D01*
X43500000Y-107500000D02*
X43500000Y-93000000D01*
X43500000Y-93000000D02*
X43000000Y-92500000D01*
X43000000Y-92500000D02*
X43000000Y-92500000D01*
%TO.N,Net-(J3-Pad4)*%
X39920000Y-109500000D02*
X41420000Y-108000000D01*
X41420000Y-108000000D02*
X42000000Y-108000000D01*
X42000000Y-108000000D02*
X43000000Y-107000000D01*
X43000000Y-107000000D02*
X43000000Y-94500000D01*
X43000000Y-94500000D02*
X42500000Y-94000000D01*
X42500000Y-94000000D02*
X42500000Y-94000000D01*
%TO.N,Net-(J3-Pad3)*%
X37380000Y-109500000D02*
X39380000Y-107500000D01*
X39380000Y-107500000D02*
X41500000Y-107500000D01*
X41500000Y-107500000D02*
X42500000Y-106500000D01*
X42500000Y-106500000D02*
X42500000Y-96000000D01*
X42500000Y-96000000D02*
X42500000Y-95500000D01*
X42500000Y-95500000D02*
X42000000Y-95500000D01*
X42000000Y-95500000D02*
X42000000Y-95500000D01*
%TO.N,Net-(J3-Pad2)*%
X34840000Y-109500000D02*
X36340000Y-108000000D01*
X36340000Y-108000000D02*
X38000000Y-108000000D01*
X39000000Y-107000000D02*
X41000000Y-107000000D01*
X38000000Y-108000000D02*
X39000000Y-107000000D01*
X41000000Y-107000000D02*
X41500000Y-106500000D01*
X41500000Y-106500000D02*
X42000000Y-106000000D01*
X42000000Y-106000000D02*
X42000000Y-97500000D01*
X42000000Y-97500000D02*
X41500000Y-97000000D01*
X41500000Y-97000000D02*
X41500000Y-97000000D01*
%TO.N,Net-(J3-Pad1)*%
X32300000Y-109500000D02*
X32500000Y-109500000D01*
X32500000Y-109500000D02*
X35000000Y-107000000D01*
X35000000Y-107000000D02*
X38000000Y-107000000D01*
X38000000Y-107000000D02*
X39000000Y-106000000D01*
X39000000Y-106000000D02*
X40500000Y-106000000D01*
X40500000Y-106000000D02*
X41000000Y-105500000D01*
X41000000Y-105500000D02*
X41000000Y-98500000D01*
X41000000Y-98500000D02*
X41000000Y-98500000D01*
%TD*%
D14*
X23511928Y-110850000D02*
X23524188Y-110974482D01*
X23560498Y-111094180D01*
X23619463Y-111204494D01*
X23698815Y-111301185D01*
X23786322Y-111373000D01*
X22627000Y-111373000D01*
X22627000Y-110500000D01*
X23511928Y-110500000D01*
X23511928Y-110850000D01*
%TA.AperFunction,NonConductor*%
D15*
G36*
X23511928Y-110850000D02*
G01*
X23524188Y-110974482D01*
X23560498Y-111094180D01*
X23619463Y-111204494D01*
X23698815Y-111301185D01*
X23786322Y-111373000D01*
X22627000Y-111373000D01*
X22627000Y-110500000D01*
X23511928Y-110500000D01*
X23511928Y-110850000D01*
G37*
%TD.AperFunction*%
M02*
