M48
INCH,TZ
T1C0.0157
T2C0.0394
%
G90
G05
T1
X9449Y-38189
X10843Y-39748
X15860Y-35742
X16142Y-38780
X16339Y-38189
X16530Y-35242
X16535Y-37598
X16732Y-37008
X16929Y-36417
X17323Y-36024
X17717Y-35433
X18110Y-35039
X23031Y-40354
X26378Y-34252
X32677Y-36024
X33077Y-35439
X37992Y-39173
X38976Y-42323
T2
X9843Y-43307
X10843Y-43307
X12488Y-33268
X12717Y-43307
X13488Y-33268
X13717Y-43307
X14488Y-33268
X14717Y-43307
X15488Y-33268
X15717Y-43307
X16488Y-33268
X16717Y-43307
X17488Y-33268
X17717Y-43307
X18488Y-33268
X18717Y-43307
X19488Y-33268
X19717Y-43307
X23772Y-43307
X24772Y-43307
X25772Y-43307
X26772Y-43307
X30024Y-43307
X30039Y-33071
X31024Y-43307
X31039Y-33071
X32024Y-43307
X32039Y-33071
X33024Y-43307
X33039Y-33071
X34024Y-43307
X34039Y-33071
X35024Y-43307
X35039Y-33071
X36024Y-43307
X36039Y-33071
X37024Y-43307
X37039Y-33071
T0
M30
