%TF.GenerationSoftware,KiCad,Pcbnew,(5.1.9-0-10_14)*%
%TF.CreationDate,2021-08-25T01:40:26+02:00*%
%TF.ProjectId,i2c-32io,6932632d-3332-4696-9f2e-6b696361645f,rev?*%
%TF.SameCoordinates,Original*%
%TF.FileFunction,Legend,Top*%
%TF.FilePolarity,Positive*%
%FSLAX46Y46*%
G04 Gerber Fmt 4.6, Leading zero omitted, Abs format (unit mm)*
G04 Created by KiCad (PCBNEW (5.1.9-0-10_14)) date 2021-08-25 01:40:26*
%MOMM*%
%LPD*%
G01*
G04 APERTURE LIST*
%ADD10C,0.120000*%
%ADD11C,0.150000*%
G04 APERTURE END LIST*
D10*
%TO.C,U2*%
X81500000Y-87940000D02*
X77640000Y-87940000D01*
X77640000Y-87940000D02*
X77640000Y-88185000D01*
X81500000Y-87940000D02*
X85360000Y-87940000D01*
X85360000Y-87940000D02*
X85360000Y-88185000D01*
X81500000Y-106060000D02*
X77640000Y-106060000D01*
X77640000Y-106060000D02*
X77640000Y-105815000D01*
X81500000Y-106060000D02*
X85360000Y-106060000D01*
X85360000Y-106060000D02*
X85360000Y-105815000D01*
X85360000Y-105815000D02*
X87175000Y-105815000D01*
%TO.C,J6*%
X28870000Y-111330000D02*
X28870000Y-108670000D01*
X26270000Y-111330000D02*
X28870000Y-111330000D01*
X26270000Y-108670000D02*
X28870000Y-108670000D01*
X26270000Y-111330000D02*
X26270000Y-108670000D01*
X25000000Y-111330000D02*
X23670000Y-111330000D01*
X23670000Y-111330000D02*
X23670000Y-110000000D01*
%TO.C,J4*%
X74970000Y-82670000D02*
X74970000Y-85330000D01*
X92810000Y-82670000D02*
X74970000Y-82670000D01*
X92810000Y-85330000D02*
X74970000Y-85330000D01*
X92810000Y-82670000D02*
X92810000Y-85330000D01*
X94080000Y-82670000D02*
X95410000Y-82670000D01*
X95410000Y-82670000D02*
X95410000Y-84000000D01*
%TO.C,J3*%
X51410000Y-111330000D02*
X51410000Y-108670000D01*
X33570000Y-111330000D02*
X51410000Y-111330000D01*
X33570000Y-108670000D02*
X51410000Y-108670000D01*
X33570000Y-111330000D02*
X33570000Y-108670000D01*
X32300000Y-111330000D02*
X30970000Y-111330000D01*
X30970000Y-111330000D02*
X30970000Y-110000000D01*
%TO.C,J2*%
X30390000Y-83170000D02*
X30390000Y-85830000D01*
X48230000Y-83170000D02*
X30390000Y-83170000D01*
X48230000Y-85830000D02*
X30390000Y-85830000D01*
X48230000Y-83170000D02*
X48230000Y-85830000D01*
X49500000Y-83170000D02*
X50830000Y-83170000D01*
X50830000Y-83170000D02*
X50830000Y-84500000D01*
%TO.C,J1*%
X59050000Y-108670000D02*
X59050000Y-111330000D01*
X66730000Y-108670000D02*
X59050000Y-108670000D01*
X66730000Y-111330000D02*
X59050000Y-111330000D01*
X66730000Y-108670000D02*
X66730000Y-111330000D01*
X68000000Y-108670000D02*
X69330000Y-108670000D01*
X69330000Y-108670000D02*
X69330000Y-110000000D01*
%TO.C,U1*%
X43000000Y-105560000D02*
X46860000Y-105560000D01*
X46860000Y-105560000D02*
X46860000Y-105315000D01*
X43000000Y-105560000D02*
X39140000Y-105560000D01*
X39140000Y-105560000D02*
X39140000Y-105315000D01*
X43000000Y-87440000D02*
X46860000Y-87440000D01*
X46860000Y-87440000D02*
X46860000Y-87685000D01*
X43000000Y-87440000D02*
X39140000Y-87440000D01*
X39140000Y-87440000D02*
X39140000Y-87685000D01*
X39140000Y-87685000D02*
X37325000Y-87685000D01*
%TO.C,R34*%
X59410000Y-92810436D02*
X59410000Y-94264564D01*
X57590000Y-92810436D02*
X57590000Y-94264564D01*
%TO.C,R33*%
X91590000Y-98689564D02*
X91590000Y-97235436D01*
X93410000Y-98689564D02*
X93410000Y-97235436D01*
%TO.C,R32*%
X102910000Y-77310436D02*
X102910000Y-78764564D01*
X101090000Y-77310436D02*
X101090000Y-78764564D01*
%TO.C,R31*%
X100410000Y-77310436D02*
X100410000Y-78764564D01*
X98590000Y-77310436D02*
X98590000Y-78764564D01*
%TO.C,R30*%
X97910000Y-77310436D02*
X97910000Y-78764564D01*
X96090000Y-77310436D02*
X96090000Y-78764564D01*
%TO.C,R29*%
X95410000Y-77310436D02*
X95410000Y-78764564D01*
X93590000Y-77310436D02*
X93590000Y-78764564D01*
%TO.C,R28*%
X92910000Y-77310436D02*
X92910000Y-78764564D01*
X91090000Y-77310436D02*
X91090000Y-78764564D01*
%TO.C,R27*%
X90410000Y-77310436D02*
X90410000Y-78764564D01*
X88590000Y-77310436D02*
X88590000Y-78764564D01*
%TO.C,R26*%
X87910000Y-77310436D02*
X87910000Y-78764564D01*
X86090000Y-77310436D02*
X86090000Y-78764564D01*
%TO.C,R25*%
X85410000Y-77310436D02*
X85410000Y-78764564D01*
X83590000Y-77310436D02*
X83590000Y-78764564D01*
%TO.C,R24*%
X82910000Y-77310436D02*
X82910000Y-78764564D01*
X81090000Y-77310436D02*
X81090000Y-78764564D01*
%TO.C,R23*%
X80410000Y-77310436D02*
X80410000Y-78764564D01*
X78590000Y-77310436D02*
X78590000Y-78764564D01*
%TO.C,R22*%
X77910000Y-77310436D02*
X77910000Y-78764564D01*
X76090000Y-77310436D02*
X76090000Y-78764564D01*
%TO.C,R21*%
X75410000Y-77310436D02*
X75410000Y-78764564D01*
X73590000Y-77310436D02*
X73590000Y-78764564D01*
%TO.C,R20*%
X72910000Y-77310436D02*
X72910000Y-78764564D01*
X71090000Y-77310436D02*
X71090000Y-78764564D01*
%TO.C,R19*%
X70410000Y-77310436D02*
X70410000Y-78764564D01*
X68590000Y-77310436D02*
X68590000Y-78764564D01*
%TO.C,R18*%
X67910000Y-77310436D02*
X67910000Y-78764564D01*
X66090000Y-77310436D02*
X66090000Y-78764564D01*
%TO.C,R17*%
X65410000Y-77310436D02*
X65410000Y-78764564D01*
X63590000Y-77310436D02*
X63590000Y-78764564D01*
%TO.C,R16*%
X62910000Y-77310436D02*
X62910000Y-78764564D01*
X61090000Y-77310436D02*
X61090000Y-78764564D01*
%TO.C,R15*%
X60410000Y-77310436D02*
X60410000Y-78764564D01*
X58590000Y-77310436D02*
X58590000Y-78764564D01*
%TO.C,R14*%
X57910000Y-77310436D02*
X57910000Y-78764564D01*
X56090000Y-77310436D02*
X56090000Y-78764564D01*
%TO.C,R13*%
X55410000Y-77310436D02*
X55410000Y-78764564D01*
X53590000Y-77310436D02*
X53590000Y-78764564D01*
%TO.C,R12*%
X52910000Y-77310436D02*
X52910000Y-78764564D01*
X51090000Y-77310436D02*
X51090000Y-78764564D01*
%TO.C,R11*%
X50410000Y-77310436D02*
X50410000Y-78764564D01*
X48590000Y-77310436D02*
X48590000Y-78764564D01*
%TO.C,R10*%
X47910000Y-77310436D02*
X47910000Y-78764564D01*
X46090000Y-77310436D02*
X46090000Y-78764564D01*
%TO.C,R9*%
X45410000Y-77235436D02*
X45410000Y-78689564D01*
X43590000Y-77235436D02*
X43590000Y-78689564D01*
%TO.C,R8*%
X42910000Y-77235436D02*
X42910000Y-78689564D01*
X41090000Y-77235436D02*
X41090000Y-78689564D01*
%TO.C,R7*%
X40410000Y-77235436D02*
X40410000Y-78689564D01*
X38590000Y-77235436D02*
X38590000Y-78689564D01*
%TO.C,R6*%
X37910000Y-77235436D02*
X37910000Y-78689564D01*
X36090000Y-77235436D02*
X36090000Y-78689564D01*
%TO.C,R5*%
X35410000Y-77235436D02*
X35410000Y-78689564D01*
X33590000Y-77235436D02*
X33590000Y-78689564D01*
%TO.C,R4*%
X32910000Y-77272936D02*
X32910000Y-78727064D01*
X31090000Y-77272936D02*
X31090000Y-78727064D01*
%TO.C,R3*%
X30410000Y-77272936D02*
X30410000Y-78727064D01*
X28590000Y-77272936D02*
X28590000Y-78727064D01*
%TO.C,R2*%
X27910000Y-77235436D02*
X27910000Y-78689564D01*
X26090000Y-77235436D02*
X26090000Y-78689564D01*
%TO.C,R1*%
X25410000Y-77235436D02*
X25410000Y-78689564D01*
X23590000Y-77235436D02*
X23590000Y-78689564D01*
%TO.C,J5*%
X74930000Y-108670000D02*
X74930000Y-111330000D01*
X92770000Y-108670000D02*
X74930000Y-108670000D01*
X92770000Y-111330000D02*
X74930000Y-111330000D01*
X92770000Y-108670000D02*
X92770000Y-111330000D01*
X94040000Y-108670000D02*
X95370000Y-108670000D01*
X95370000Y-108670000D02*
X95370000Y-110000000D01*
%TO.C,D32*%
X103135000Y-72200000D02*
X103135000Y-68315000D01*
X103135000Y-68315000D02*
X100865000Y-68315000D01*
X100865000Y-68315000D02*
X100865000Y-72200000D01*
%TO.C,D31*%
X100635000Y-72200000D02*
X100635000Y-68315000D01*
X100635000Y-68315000D02*
X98365000Y-68315000D01*
X98365000Y-68315000D02*
X98365000Y-72200000D01*
%TO.C,D30*%
X98135000Y-72200000D02*
X98135000Y-68315000D01*
X98135000Y-68315000D02*
X95865000Y-68315000D01*
X95865000Y-68315000D02*
X95865000Y-72200000D01*
%TO.C,D29*%
X95635000Y-72200000D02*
X95635000Y-68315000D01*
X95635000Y-68315000D02*
X93365000Y-68315000D01*
X93365000Y-68315000D02*
X93365000Y-72200000D01*
%TO.C,D28*%
X93135000Y-72200000D02*
X93135000Y-68315000D01*
X93135000Y-68315000D02*
X90865000Y-68315000D01*
X90865000Y-68315000D02*
X90865000Y-72200000D01*
%TO.C,D27*%
X90635000Y-72200000D02*
X90635000Y-68315000D01*
X90635000Y-68315000D02*
X88365000Y-68315000D01*
X88365000Y-68315000D02*
X88365000Y-72200000D01*
%TO.C,D26*%
X88135000Y-72200000D02*
X88135000Y-68315000D01*
X88135000Y-68315000D02*
X85865000Y-68315000D01*
X85865000Y-68315000D02*
X85865000Y-72200000D01*
%TO.C,D25*%
X85635000Y-72200000D02*
X85635000Y-68315000D01*
X85635000Y-68315000D02*
X83365000Y-68315000D01*
X83365000Y-68315000D02*
X83365000Y-72200000D01*
%TO.C,D24*%
X83135000Y-72200000D02*
X83135000Y-68315000D01*
X83135000Y-68315000D02*
X80865000Y-68315000D01*
X80865000Y-68315000D02*
X80865000Y-72200000D01*
%TO.C,D23*%
X80635000Y-72200000D02*
X80635000Y-68315000D01*
X80635000Y-68315000D02*
X78365000Y-68315000D01*
X78365000Y-68315000D02*
X78365000Y-72200000D01*
%TO.C,D22*%
X78135000Y-72200000D02*
X78135000Y-68315000D01*
X78135000Y-68315000D02*
X75865000Y-68315000D01*
X75865000Y-68315000D02*
X75865000Y-72200000D01*
%TO.C,D21*%
X75635000Y-72200000D02*
X75635000Y-68315000D01*
X75635000Y-68315000D02*
X73365000Y-68315000D01*
X73365000Y-68315000D02*
X73365000Y-72200000D01*
%TO.C,D20*%
X73135000Y-72200000D02*
X73135000Y-68315000D01*
X73135000Y-68315000D02*
X70865000Y-68315000D01*
X70865000Y-68315000D02*
X70865000Y-72200000D01*
%TO.C,D19*%
X70635000Y-72200000D02*
X70635000Y-68315000D01*
X70635000Y-68315000D02*
X68365000Y-68315000D01*
X68365000Y-68315000D02*
X68365000Y-72200000D01*
%TO.C,D18*%
X68135000Y-72200000D02*
X68135000Y-68315000D01*
X68135000Y-68315000D02*
X65865000Y-68315000D01*
X65865000Y-68315000D02*
X65865000Y-72200000D01*
%TO.C,D17*%
X65635000Y-72200000D02*
X65635000Y-68315000D01*
X65635000Y-68315000D02*
X63365000Y-68315000D01*
X63365000Y-68315000D02*
X63365000Y-72200000D01*
%TO.C,D16*%
X63135000Y-72200000D02*
X63135000Y-68315000D01*
X63135000Y-68315000D02*
X60865000Y-68315000D01*
X60865000Y-68315000D02*
X60865000Y-72200000D01*
%TO.C,D15*%
X60635000Y-72200000D02*
X60635000Y-68315000D01*
X60635000Y-68315000D02*
X58365000Y-68315000D01*
X58365000Y-68315000D02*
X58365000Y-72200000D01*
%TO.C,D14*%
X58135000Y-72200000D02*
X58135000Y-68315000D01*
X58135000Y-68315000D02*
X55865000Y-68315000D01*
X55865000Y-68315000D02*
X55865000Y-72200000D01*
%TO.C,D13*%
X55635000Y-72200000D02*
X55635000Y-68315000D01*
X55635000Y-68315000D02*
X53365000Y-68315000D01*
X53365000Y-68315000D02*
X53365000Y-72200000D01*
%TO.C,D12*%
X53135000Y-72200000D02*
X53135000Y-68315000D01*
X53135000Y-68315000D02*
X50865000Y-68315000D01*
X50865000Y-68315000D02*
X50865000Y-72200000D01*
%TO.C,D11*%
X50635000Y-72200000D02*
X50635000Y-68315000D01*
X50635000Y-68315000D02*
X48365000Y-68315000D01*
X48365000Y-68315000D02*
X48365000Y-72200000D01*
%TO.C,D10*%
X48135000Y-72200000D02*
X48135000Y-68315000D01*
X48135000Y-68315000D02*
X45865000Y-68315000D01*
X45865000Y-68315000D02*
X45865000Y-72200000D01*
%TO.C,D9*%
X45635000Y-72200000D02*
X45635000Y-68315000D01*
X45635000Y-68315000D02*
X43365000Y-68315000D01*
X43365000Y-68315000D02*
X43365000Y-72200000D01*
%TO.C,D8*%
X43135000Y-72200000D02*
X43135000Y-68315000D01*
X43135000Y-68315000D02*
X40865000Y-68315000D01*
X40865000Y-68315000D02*
X40865000Y-72200000D01*
%TO.C,D7*%
X40635000Y-72200000D02*
X40635000Y-68315000D01*
X40635000Y-68315000D02*
X38365000Y-68315000D01*
X38365000Y-68315000D02*
X38365000Y-72200000D01*
%TO.C,D6*%
X38135000Y-72200000D02*
X38135000Y-68315000D01*
X38135000Y-68315000D02*
X35865000Y-68315000D01*
X35865000Y-68315000D02*
X35865000Y-72200000D01*
%TO.C,D5*%
X35635000Y-72200000D02*
X35635000Y-68315000D01*
X35635000Y-68315000D02*
X33365000Y-68315000D01*
X33365000Y-68315000D02*
X33365000Y-72200000D01*
%TO.C,D4*%
X33135000Y-72200000D02*
X33135000Y-68315000D01*
X33135000Y-68315000D02*
X30865000Y-68315000D01*
X30865000Y-68315000D02*
X30865000Y-72200000D01*
%TO.C,D3*%
X30635000Y-72200000D02*
X30635000Y-68315000D01*
X30635000Y-68315000D02*
X28365000Y-68315000D01*
X28365000Y-68315000D02*
X28365000Y-72200000D01*
%TO.C,D2*%
X28135000Y-72200000D02*
X28135000Y-68315000D01*
X28135000Y-68315000D02*
X25865000Y-68315000D01*
X25865000Y-68315000D02*
X25865000Y-72200000D01*
%TO.C,D1*%
X25635000Y-72200000D02*
X25635000Y-68315000D01*
X25635000Y-68315000D02*
X23365000Y-68315000D01*
X23365000Y-68315000D02*
X23365000Y-72200000D01*
%TO.C,U2*%
D11*
X80738095Y-106352380D02*
X80738095Y-107161904D01*
X80785714Y-107257142D01*
X80833333Y-107304761D01*
X80928571Y-107352380D01*
X81119047Y-107352380D01*
X81214285Y-107304761D01*
X81261904Y-107257142D01*
X81309523Y-107161904D01*
X81309523Y-106352380D01*
X81738095Y-106447619D02*
X81785714Y-106400000D01*
X81880952Y-106352380D01*
X82119047Y-106352380D01*
X82214285Y-106400000D01*
X82261904Y-106447619D01*
X82309523Y-106542857D01*
X82309523Y-106638095D01*
X82261904Y-106780952D01*
X81690476Y-107352380D01*
X82309523Y-107352380D01*
%TO.C,J6*%
X22122380Y-110333333D02*
X22836666Y-110333333D01*
X22979523Y-110380952D01*
X23074761Y-110476190D01*
X23122380Y-110619047D01*
X23122380Y-110714285D01*
X22122380Y-109428571D02*
X22122380Y-109619047D01*
X22170000Y-109714285D01*
X22217619Y-109761904D01*
X22360476Y-109857142D01*
X22550952Y-109904761D01*
X22931904Y-109904761D01*
X23027142Y-109857142D01*
X23074761Y-109809523D01*
X23122380Y-109714285D01*
X23122380Y-109523809D01*
X23074761Y-109428571D01*
X23027142Y-109380952D01*
X22931904Y-109333333D01*
X22693809Y-109333333D01*
X22598571Y-109380952D01*
X22550952Y-109428571D01*
X22503333Y-109523809D01*
X22503333Y-109714285D01*
X22550952Y-109809523D01*
X22598571Y-109857142D01*
X22693809Y-109904761D01*
%TO.C,J4*%
X95862380Y-84333333D02*
X96576666Y-84333333D01*
X96719523Y-84380952D01*
X96814761Y-84476190D01*
X96862380Y-84619047D01*
X96862380Y-84714285D01*
X96195714Y-83428571D02*
X96862380Y-83428571D01*
X95814761Y-83666666D02*
X96529047Y-83904761D01*
X96529047Y-83285714D01*
%TO.C,J3*%
X29422380Y-110333333D02*
X30136666Y-110333333D01*
X30279523Y-110380952D01*
X30374761Y-110476190D01*
X30422380Y-110619047D01*
X30422380Y-110714285D01*
X29422380Y-109952380D02*
X29422380Y-109333333D01*
X29803333Y-109666666D01*
X29803333Y-109523809D01*
X29850952Y-109428571D01*
X29898571Y-109380952D01*
X29993809Y-109333333D01*
X30231904Y-109333333D01*
X30327142Y-109380952D01*
X30374761Y-109428571D01*
X30422380Y-109523809D01*
X30422380Y-109809523D01*
X30374761Y-109904761D01*
X30327142Y-109952380D01*
%TO.C,J2*%
X51282380Y-84833333D02*
X51996666Y-84833333D01*
X52139523Y-84880952D01*
X52234761Y-84976190D01*
X52282380Y-85119047D01*
X52282380Y-85214285D01*
X51377619Y-84404761D02*
X51330000Y-84357142D01*
X51282380Y-84261904D01*
X51282380Y-84023809D01*
X51330000Y-83928571D01*
X51377619Y-83880952D01*
X51472857Y-83833333D01*
X51568095Y-83833333D01*
X51710952Y-83880952D01*
X52282380Y-84452380D01*
X52282380Y-83833333D01*
%TO.C,J1*%
X69782380Y-110333333D02*
X70496666Y-110333333D01*
X70639523Y-110380952D01*
X70734761Y-110476190D01*
X70782380Y-110619047D01*
X70782380Y-110714285D01*
X70782380Y-109333333D02*
X70782380Y-109904761D01*
X70782380Y-109619047D02*
X69782380Y-109619047D01*
X69925238Y-109714285D01*
X70020476Y-109809523D01*
X70068095Y-109904761D01*
%TO.C,U1*%
X42238095Y-86052380D02*
X42238095Y-86861904D01*
X42285714Y-86957142D01*
X42333333Y-87004761D01*
X42428571Y-87052380D01*
X42619047Y-87052380D01*
X42714285Y-87004761D01*
X42761904Y-86957142D01*
X42809523Y-86861904D01*
X42809523Y-86052380D01*
X43809523Y-87052380D02*
X43238095Y-87052380D01*
X43523809Y-87052380D02*
X43523809Y-86052380D01*
X43428571Y-86195238D01*
X43333333Y-86290476D01*
X43238095Y-86338095D01*
%TO.C,R34*%
X60772380Y-94180357D02*
X60296190Y-94513690D01*
X60772380Y-94751785D02*
X59772380Y-94751785D01*
X59772380Y-94370833D01*
X59820000Y-94275595D01*
X59867619Y-94227976D01*
X59962857Y-94180357D01*
X60105714Y-94180357D01*
X60200952Y-94227976D01*
X60248571Y-94275595D01*
X60296190Y-94370833D01*
X60296190Y-94751785D01*
X59772380Y-93847023D02*
X59772380Y-93227976D01*
X60153333Y-93561309D01*
X60153333Y-93418452D01*
X60200952Y-93323214D01*
X60248571Y-93275595D01*
X60343809Y-93227976D01*
X60581904Y-93227976D01*
X60677142Y-93275595D01*
X60724761Y-93323214D01*
X60772380Y-93418452D01*
X60772380Y-93704166D01*
X60724761Y-93799404D01*
X60677142Y-93847023D01*
X60105714Y-92370833D02*
X60772380Y-92370833D01*
X59724761Y-92608928D02*
X60439047Y-92847023D01*
X60439047Y-92227976D01*
%TO.C,R33*%
X91132380Y-98605357D02*
X90656190Y-98938690D01*
X91132380Y-99176785D02*
X90132380Y-99176785D01*
X90132380Y-98795833D01*
X90180000Y-98700595D01*
X90227619Y-98652976D01*
X90322857Y-98605357D01*
X90465714Y-98605357D01*
X90560952Y-98652976D01*
X90608571Y-98700595D01*
X90656190Y-98795833D01*
X90656190Y-99176785D01*
X90132380Y-98272023D02*
X90132380Y-97652976D01*
X90513333Y-97986309D01*
X90513333Y-97843452D01*
X90560952Y-97748214D01*
X90608571Y-97700595D01*
X90703809Y-97652976D01*
X90941904Y-97652976D01*
X91037142Y-97700595D01*
X91084761Y-97748214D01*
X91132380Y-97843452D01*
X91132380Y-98129166D01*
X91084761Y-98224404D01*
X91037142Y-98272023D01*
X90132380Y-97319642D02*
X90132380Y-96700595D01*
X90513333Y-97033928D01*
X90513333Y-96891071D01*
X90560952Y-96795833D01*
X90608571Y-96748214D01*
X90703809Y-96700595D01*
X90941904Y-96700595D01*
X91037142Y-96748214D01*
X91084761Y-96795833D01*
X91132380Y-96891071D01*
X91132380Y-97176785D01*
X91084761Y-97272023D01*
X91037142Y-97319642D01*
%TO.C,R32*%
X104272380Y-78680357D02*
X103796190Y-79013690D01*
X104272380Y-79251785D02*
X103272380Y-79251785D01*
X103272380Y-78870833D01*
X103320000Y-78775595D01*
X103367619Y-78727976D01*
X103462857Y-78680357D01*
X103605714Y-78680357D01*
X103700952Y-78727976D01*
X103748571Y-78775595D01*
X103796190Y-78870833D01*
X103796190Y-79251785D01*
X103272380Y-78347023D02*
X103272380Y-77727976D01*
X103653333Y-78061309D01*
X103653333Y-77918452D01*
X103700952Y-77823214D01*
X103748571Y-77775595D01*
X103843809Y-77727976D01*
X104081904Y-77727976D01*
X104177142Y-77775595D01*
X104224761Y-77823214D01*
X104272380Y-77918452D01*
X104272380Y-78204166D01*
X104224761Y-78299404D01*
X104177142Y-78347023D01*
X103367619Y-77347023D02*
X103320000Y-77299404D01*
X103272380Y-77204166D01*
X103272380Y-76966071D01*
X103320000Y-76870833D01*
X103367619Y-76823214D01*
X103462857Y-76775595D01*
X103558095Y-76775595D01*
X103700952Y-76823214D01*
X104272380Y-77394642D01*
X104272380Y-76775595D01*
%TO.C,R31*%
X101772380Y-78680357D02*
X101296190Y-79013690D01*
X101772380Y-79251785D02*
X100772380Y-79251785D01*
X100772380Y-78870833D01*
X100820000Y-78775595D01*
X100867619Y-78727976D01*
X100962857Y-78680357D01*
X101105714Y-78680357D01*
X101200952Y-78727976D01*
X101248571Y-78775595D01*
X101296190Y-78870833D01*
X101296190Y-79251785D01*
X100772380Y-78347023D02*
X100772380Y-77727976D01*
X101153333Y-78061309D01*
X101153333Y-77918452D01*
X101200952Y-77823214D01*
X101248571Y-77775595D01*
X101343809Y-77727976D01*
X101581904Y-77727976D01*
X101677142Y-77775595D01*
X101724761Y-77823214D01*
X101772380Y-77918452D01*
X101772380Y-78204166D01*
X101724761Y-78299404D01*
X101677142Y-78347023D01*
X101772380Y-76775595D02*
X101772380Y-77347023D01*
X101772380Y-77061309D02*
X100772380Y-77061309D01*
X100915238Y-77156547D01*
X101010476Y-77251785D01*
X101058095Y-77347023D01*
%TO.C,R30*%
X99272380Y-78680357D02*
X98796190Y-79013690D01*
X99272380Y-79251785D02*
X98272380Y-79251785D01*
X98272380Y-78870833D01*
X98320000Y-78775595D01*
X98367619Y-78727976D01*
X98462857Y-78680357D01*
X98605714Y-78680357D01*
X98700952Y-78727976D01*
X98748571Y-78775595D01*
X98796190Y-78870833D01*
X98796190Y-79251785D01*
X98272380Y-78347023D02*
X98272380Y-77727976D01*
X98653333Y-78061309D01*
X98653333Y-77918452D01*
X98700952Y-77823214D01*
X98748571Y-77775595D01*
X98843809Y-77727976D01*
X99081904Y-77727976D01*
X99177142Y-77775595D01*
X99224761Y-77823214D01*
X99272380Y-77918452D01*
X99272380Y-78204166D01*
X99224761Y-78299404D01*
X99177142Y-78347023D01*
X98272380Y-77108928D02*
X98272380Y-77013690D01*
X98320000Y-76918452D01*
X98367619Y-76870833D01*
X98462857Y-76823214D01*
X98653333Y-76775595D01*
X98891428Y-76775595D01*
X99081904Y-76823214D01*
X99177142Y-76870833D01*
X99224761Y-76918452D01*
X99272380Y-77013690D01*
X99272380Y-77108928D01*
X99224761Y-77204166D01*
X99177142Y-77251785D01*
X99081904Y-77299404D01*
X98891428Y-77347023D01*
X98653333Y-77347023D01*
X98462857Y-77299404D01*
X98367619Y-77251785D01*
X98320000Y-77204166D01*
X98272380Y-77108928D01*
%TO.C,R29*%
X96772380Y-78680357D02*
X96296190Y-79013690D01*
X96772380Y-79251785D02*
X95772380Y-79251785D01*
X95772380Y-78870833D01*
X95820000Y-78775595D01*
X95867619Y-78727976D01*
X95962857Y-78680357D01*
X96105714Y-78680357D01*
X96200952Y-78727976D01*
X96248571Y-78775595D01*
X96296190Y-78870833D01*
X96296190Y-79251785D01*
X95867619Y-78299404D02*
X95820000Y-78251785D01*
X95772380Y-78156547D01*
X95772380Y-77918452D01*
X95820000Y-77823214D01*
X95867619Y-77775595D01*
X95962857Y-77727976D01*
X96058095Y-77727976D01*
X96200952Y-77775595D01*
X96772380Y-78347023D01*
X96772380Y-77727976D01*
X96772380Y-77251785D02*
X96772380Y-77061309D01*
X96724761Y-76966071D01*
X96677142Y-76918452D01*
X96534285Y-76823214D01*
X96343809Y-76775595D01*
X95962857Y-76775595D01*
X95867619Y-76823214D01*
X95820000Y-76870833D01*
X95772380Y-76966071D01*
X95772380Y-77156547D01*
X95820000Y-77251785D01*
X95867619Y-77299404D01*
X95962857Y-77347023D01*
X96200952Y-77347023D01*
X96296190Y-77299404D01*
X96343809Y-77251785D01*
X96391428Y-77156547D01*
X96391428Y-76966071D01*
X96343809Y-76870833D01*
X96296190Y-76823214D01*
X96200952Y-76775595D01*
%TO.C,R28*%
X94272380Y-78680357D02*
X93796190Y-79013690D01*
X94272380Y-79251785D02*
X93272380Y-79251785D01*
X93272380Y-78870833D01*
X93320000Y-78775595D01*
X93367619Y-78727976D01*
X93462857Y-78680357D01*
X93605714Y-78680357D01*
X93700952Y-78727976D01*
X93748571Y-78775595D01*
X93796190Y-78870833D01*
X93796190Y-79251785D01*
X93367619Y-78299404D02*
X93320000Y-78251785D01*
X93272380Y-78156547D01*
X93272380Y-77918452D01*
X93320000Y-77823214D01*
X93367619Y-77775595D01*
X93462857Y-77727976D01*
X93558095Y-77727976D01*
X93700952Y-77775595D01*
X94272380Y-78347023D01*
X94272380Y-77727976D01*
X93700952Y-77156547D02*
X93653333Y-77251785D01*
X93605714Y-77299404D01*
X93510476Y-77347023D01*
X93462857Y-77347023D01*
X93367619Y-77299404D01*
X93320000Y-77251785D01*
X93272380Y-77156547D01*
X93272380Y-76966071D01*
X93320000Y-76870833D01*
X93367619Y-76823214D01*
X93462857Y-76775595D01*
X93510476Y-76775595D01*
X93605714Y-76823214D01*
X93653333Y-76870833D01*
X93700952Y-76966071D01*
X93700952Y-77156547D01*
X93748571Y-77251785D01*
X93796190Y-77299404D01*
X93891428Y-77347023D01*
X94081904Y-77347023D01*
X94177142Y-77299404D01*
X94224761Y-77251785D01*
X94272380Y-77156547D01*
X94272380Y-76966071D01*
X94224761Y-76870833D01*
X94177142Y-76823214D01*
X94081904Y-76775595D01*
X93891428Y-76775595D01*
X93796190Y-76823214D01*
X93748571Y-76870833D01*
X93700952Y-76966071D01*
%TO.C,R27*%
X91772380Y-78680357D02*
X91296190Y-79013690D01*
X91772380Y-79251785D02*
X90772380Y-79251785D01*
X90772380Y-78870833D01*
X90820000Y-78775595D01*
X90867619Y-78727976D01*
X90962857Y-78680357D01*
X91105714Y-78680357D01*
X91200952Y-78727976D01*
X91248571Y-78775595D01*
X91296190Y-78870833D01*
X91296190Y-79251785D01*
X90867619Y-78299404D02*
X90820000Y-78251785D01*
X90772380Y-78156547D01*
X90772380Y-77918452D01*
X90820000Y-77823214D01*
X90867619Y-77775595D01*
X90962857Y-77727976D01*
X91058095Y-77727976D01*
X91200952Y-77775595D01*
X91772380Y-78347023D01*
X91772380Y-77727976D01*
X90772380Y-77394642D02*
X90772380Y-76727976D01*
X91772380Y-77156547D01*
%TO.C,R26*%
X89272380Y-78680357D02*
X88796190Y-79013690D01*
X89272380Y-79251785D02*
X88272380Y-79251785D01*
X88272380Y-78870833D01*
X88320000Y-78775595D01*
X88367619Y-78727976D01*
X88462857Y-78680357D01*
X88605714Y-78680357D01*
X88700952Y-78727976D01*
X88748571Y-78775595D01*
X88796190Y-78870833D01*
X88796190Y-79251785D01*
X88367619Y-78299404D02*
X88320000Y-78251785D01*
X88272380Y-78156547D01*
X88272380Y-77918452D01*
X88320000Y-77823214D01*
X88367619Y-77775595D01*
X88462857Y-77727976D01*
X88558095Y-77727976D01*
X88700952Y-77775595D01*
X89272380Y-78347023D01*
X89272380Y-77727976D01*
X88272380Y-76870833D02*
X88272380Y-77061309D01*
X88320000Y-77156547D01*
X88367619Y-77204166D01*
X88510476Y-77299404D01*
X88700952Y-77347023D01*
X89081904Y-77347023D01*
X89177142Y-77299404D01*
X89224761Y-77251785D01*
X89272380Y-77156547D01*
X89272380Y-76966071D01*
X89224761Y-76870833D01*
X89177142Y-76823214D01*
X89081904Y-76775595D01*
X88843809Y-76775595D01*
X88748571Y-76823214D01*
X88700952Y-76870833D01*
X88653333Y-76966071D01*
X88653333Y-77156547D01*
X88700952Y-77251785D01*
X88748571Y-77299404D01*
X88843809Y-77347023D01*
%TO.C,R25*%
X86772380Y-78680357D02*
X86296190Y-79013690D01*
X86772380Y-79251785D02*
X85772380Y-79251785D01*
X85772380Y-78870833D01*
X85820000Y-78775595D01*
X85867619Y-78727976D01*
X85962857Y-78680357D01*
X86105714Y-78680357D01*
X86200952Y-78727976D01*
X86248571Y-78775595D01*
X86296190Y-78870833D01*
X86296190Y-79251785D01*
X85867619Y-78299404D02*
X85820000Y-78251785D01*
X85772380Y-78156547D01*
X85772380Y-77918452D01*
X85820000Y-77823214D01*
X85867619Y-77775595D01*
X85962857Y-77727976D01*
X86058095Y-77727976D01*
X86200952Y-77775595D01*
X86772380Y-78347023D01*
X86772380Y-77727976D01*
X85772380Y-76823214D02*
X85772380Y-77299404D01*
X86248571Y-77347023D01*
X86200952Y-77299404D01*
X86153333Y-77204166D01*
X86153333Y-76966071D01*
X86200952Y-76870833D01*
X86248571Y-76823214D01*
X86343809Y-76775595D01*
X86581904Y-76775595D01*
X86677142Y-76823214D01*
X86724761Y-76870833D01*
X86772380Y-76966071D01*
X86772380Y-77204166D01*
X86724761Y-77299404D01*
X86677142Y-77347023D01*
%TO.C,R24*%
X84272380Y-78680357D02*
X83796190Y-79013690D01*
X84272380Y-79251785D02*
X83272380Y-79251785D01*
X83272380Y-78870833D01*
X83320000Y-78775595D01*
X83367619Y-78727976D01*
X83462857Y-78680357D01*
X83605714Y-78680357D01*
X83700952Y-78727976D01*
X83748571Y-78775595D01*
X83796190Y-78870833D01*
X83796190Y-79251785D01*
X83367619Y-78299404D02*
X83320000Y-78251785D01*
X83272380Y-78156547D01*
X83272380Y-77918452D01*
X83320000Y-77823214D01*
X83367619Y-77775595D01*
X83462857Y-77727976D01*
X83558095Y-77727976D01*
X83700952Y-77775595D01*
X84272380Y-78347023D01*
X84272380Y-77727976D01*
X83605714Y-76870833D02*
X84272380Y-76870833D01*
X83224761Y-77108928D02*
X83939047Y-77347023D01*
X83939047Y-76727976D01*
%TO.C,R23*%
X81772380Y-78680357D02*
X81296190Y-79013690D01*
X81772380Y-79251785D02*
X80772380Y-79251785D01*
X80772380Y-78870833D01*
X80820000Y-78775595D01*
X80867619Y-78727976D01*
X80962857Y-78680357D01*
X81105714Y-78680357D01*
X81200952Y-78727976D01*
X81248571Y-78775595D01*
X81296190Y-78870833D01*
X81296190Y-79251785D01*
X80867619Y-78299404D02*
X80820000Y-78251785D01*
X80772380Y-78156547D01*
X80772380Y-77918452D01*
X80820000Y-77823214D01*
X80867619Y-77775595D01*
X80962857Y-77727976D01*
X81058095Y-77727976D01*
X81200952Y-77775595D01*
X81772380Y-78347023D01*
X81772380Y-77727976D01*
X80772380Y-77394642D02*
X80772380Y-76775595D01*
X81153333Y-77108928D01*
X81153333Y-76966071D01*
X81200952Y-76870833D01*
X81248571Y-76823214D01*
X81343809Y-76775595D01*
X81581904Y-76775595D01*
X81677142Y-76823214D01*
X81724761Y-76870833D01*
X81772380Y-76966071D01*
X81772380Y-77251785D01*
X81724761Y-77347023D01*
X81677142Y-77394642D01*
%TO.C,R22*%
X79272380Y-78680357D02*
X78796190Y-79013690D01*
X79272380Y-79251785D02*
X78272380Y-79251785D01*
X78272380Y-78870833D01*
X78320000Y-78775595D01*
X78367619Y-78727976D01*
X78462857Y-78680357D01*
X78605714Y-78680357D01*
X78700952Y-78727976D01*
X78748571Y-78775595D01*
X78796190Y-78870833D01*
X78796190Y-79251785D01*
X78367619Y-78299404D02*
X78320000Y-78251785D01*
X78272380Y-78156547D01*
X78272380Y-77918452D01*
X78320000Y-77823214D01*
X78367619Y-77775595D01*
X78462857Y-77727976D01*
X78558095Y-77727976D01*
X78700952Y-77775595D01*
X79272380Y-78347023D01*
X79272380Y-77727976D01*
X78367619Y-77347023D02*
X78320000Y-77299404D01*
X78272380Y-77204166D01*
X78272380Y-76966071D01*
X78320000Y-76870833D01*
X78367619Y-76823214D01*
X78462857Y-76775595D01*
X78558095Y-76775595D01*
X78700952Y-76823214D01*
X79272380Y-77394642D01*
X79272380Y-76775595D01*
%TO.C,R21*%
X76772380Y-78680357D02*
X76296190Y-79013690D01*
X76772380Y-79251785D02*
X75772380Y-79251785D01*
X75772380Y-78870833D01*
X75820000Y-78775595D01*
X75867619Y-78727976D01*
X75962857Y-78680357D01*
X76105714Y-78680357D01*
X76200952Y-78727976D01*
X76248571Y-78775595D01*
X76296190Y-78870833D01*
X76296190Y-79251785D01*
X75867619Y-78299404D02*
X75820000Y-78251785D01*
X75772380Y-78156547D01*
X75772380Y-77918452D01*
X75820000Y-77823214D01*
X75867619Y-77775595D01*
X75962857Y-77727976D01*
X76058095Y-77727976D01*
X76200952Y-77775595D01*
X76772380Y-78347023D01*
X76772380Y-77727976D01*
X76772380Y-76775595D02*
X76772380Y-77347023D01*
X76772380Y-77061309D02*
X75772380Y-77061309D01*
X75915238Y-77156547D01*
X76010476Y-77251785D01*
X76058095Y-77347023D01*
%TO.C,R20*%
X74272380Y-78680357D02*
X73796190Y-79013690D01*
X74272380Y-79251785D02*
X73272380Y-79251785D01*
X73272380Y-78870833D01*
X73320000Y-78775595D01*
X73367619Y-78727976D01*
X73462857Y-78680357D01*
X73605714Y-78680357D01*
X73700952Y-78727976D01*
X73748571Y-78775595D01*
X73796190Y-78870833D01*
X73796190Y-79251785D01*
X73367619Y-78299404D02*
X73320000Y-78251785D01*
X73272380Y-78156547D01*
X73272380Y-77918452D01*
X73320000Y-77823214D01*
X73367619Y-77775595D01*
X73462857Y-77727976D01*
X73558095Y-77727976D01*
X73700952Y-77775595D01*
X74272380Y-78347023D01*
X74272380Y-77727976D01*
X73272380Y-77108928D02*
X73272380Y-77013690D01*
X73320000Y-76918452D01*
X73367619Y-76870833D01*
X73462857Y-76823214D01*
X73653333Y-76775595D01*
X73891428Y-76775595D01*
X74081904Y-76823214D01*
X74177142Y-76870833D01*
X74224761Y-76918452D01*
X74272380Y-77013690D01*
X74272380Y-77108928D01*
X74224761Y-77204166D01*
X74177142Y-77251785D01*
X74081904Y-77299404D01*
X73891428Y-77347023D01*
X73653333Y-77347023D01*
X73462857Y-77299404D01*
X73367619Y-77251785D01*
X73320000Y-77204166D01*
X73272380Y-77108928D01*
%TO.C,R19*%
X71772380Y-78680357D02*
X71296190Y-79013690D01*
X71772380Y-79251785D02*
X70772380Y-79251785D01*
X70772380Y-78870833D01*
X70820000Y-78775595D01*
X70867619Y-78727976D01*
X70962857Y-78680357D01*
X71105714Y-78680357D01*
X71200952Y-78727976D01*
X71248571Y-78775595D01*
X71296190Y-78870833D01*
X71296190Y-79251785D01*
X71772380Y-77727976D02*
X71772380Y-78299404D01*
X71772380Y-78013690D02*
X70772380Y-78013690D01*
X70915238Y-78108928D01*
X71010476Y-78204166D01*
X71058095Y-78299404D01*
X71772380Y-77251785D02*
X71772380Y-77061309D01*
X71724761Y-76966071D01*
X71677142Y-76918452D01*
X71534285Y-76823214D01*
X71343809Y-76775595D01*
X70962857Y-76775595D01*
X70867619Y-76823214D01*
X70820000Y-76870833D01*
X70772380Y-76966071D01*
X70772380Y-77156547D01*
X70820000Y-77251785D01*
X70867619Y-77299404D01*
X70962857Y-77347023D01*
X71200952Y-77347023D01*
X71296190Y-77299404D01*
X71343809Y-77251785D01*
X71391428Y-77156547D01*
X71391428Y-76966071D01*
X71343809Y-76870833D01*
X71296190Y-76823214D01*
X71200952Y-76775595D01*
%TO.C,R18*%
X69272380Y-78680357D02*
X68796190Y-79013690D01*
X69272380Y-79251785D02*
X68272380Y-79251785D01*
X68272380Y-78870833D01*
X68320000Y-78775595D01*
X68367619Y-78727976D01*
X68462857Y-78680357D01*
X68605714Y-78680357D01*
X68700952Y-78727976D01*
X68748571Y-78775595D01*
X68796190Y-78870833D01*
X68796190Y-79251785D01*
X69272380Y-77727976D02*
X69272380Y-78299404D01*
X69272380Y-78013690D02*
X68272380Y-78013690D01*
X68415238Y-78108928D01*
X68510476Y-78204166D01*
X68558095Y-78299404D01*
X68700952Y-77156547D02*
X68653333Y-77251785D01*
X68605714Y-77299404D01*
X68510476Y-77347023D01*
X68462857Y-77347023D01*
X68367619Y-77299404D01*
X68320000Y-77251785D01*
X68272380Y-77156547D01*
X68272380Y-76966071D01*
X68320000Y-76870833D01*
X68367619Y-76823214D01*
X68462857Y-76775595D01*
X68510476Y-76775595D01*
X68605714Y-76823214D01*
X68653333Y-76870833D01*
X68700952Y-76966071D01*
X68700952Y-77156547D01*
X68748571Y-77251785D01*
X68796190Y-77299404D01*
X68891428Y-77347023D01*
X69081904Y-77347023D01*
X69177142Y-77299404D01*
X69224761Y-77251785D01*
X69272380Y-77156547D01*
X69272380Y-76966071D01*
X69224761Y-76870833D01*
X69177142Y-76823214D01*
X69081904Y-76775595D01*
X68891428Y-76775595D01*
X68796190Y-76823214D01*
X68748571Y-76870833D01*
X68700952Y-76966071D01*
%TO.C,R17*%
X66772380Y-78680357D02*
X66296190Y-79013690D01*
X66772380Y-79251785D02*
X65772380Y-79251785D01*
X65772380Y-78870833D01*
X65820000Y-78775595D01*
X65867619Y-78727976D01*
X65962857Y-78680357D01*
X66105714Y-78680357D01*
X66200952Y-78727976D01*
X66248571Y-78775595D01*
X66296190Y-78870833D01*
X66296190Y-79251785D01*
X66772380Y-77727976D02*
X66772380Y-78299404D01*
X66772380Y-78013690D02*
X65772380Y-78013690D01*
X65915238Y-78108928D01*
X66010476Y-78204166D01*
X66058095Y-78299404D01*
X65772380Y-77394642D02*
X65772380Y-76727976D01*
X66772380Y-77156547D01*
%TO.C,R16*%
X64272380Y-78680357D02*
X63796190Y-79013690D01*
X64272380Y-79251785D02*
X63272380Y-79251785D01*
X63272380Y-78870833D01*
X63320000Y-78775595D01*
X63367619Y-78727976D01*
X63462857Y-78680357D01*
X63605714Y-78680357D01*
X63700952Y-78727976D01*
X63748571Y-78775595D01*
X63796190Y-78870833D01*
X63796190Y-79251785D01*
X64272380Y-77727976D02*
X64272380Y-78299404D01*
X64272380Y-78013690D02*
X63272380Y-78013690D01*
X63415238Y-78108928D01*
X63510476Y-78204166D01*
X63558095Y-78299404D01*
X63272380Y-76870833D02*
X63272380Y-77061309D01*
X63320000Y-77156547D01*
X63367619Y-77204166D01*
X63510476Y-77299404D01*
X63700952Y-77347023D01*
X64081904Y-77347023D01*
X64177142Y-77299404D01*
X64224761Y-77251785D01*
X64272380Y-77156547D01*
X64272380Y-76966071D01*
X64224761Y-76870833D01*
X64177142Y-76823214D01*
X64081904Y-76775595D01*
X63843809Y-76775595D01*
X63748571Y-76823214D01*
X63700952Y-76870833D01*
X63653333Y-76966071D01*
X63653333Y-77156547D01*
X63700952Y-77251785D01*
X63748571Y-77299404D01*
X63843809Y-77347023D01*
%TO.C,R15*%
X61772380Y-78680357D02*
X61296190Y-79013690D01*
X61772380Y-79251785D02*
X60772380Y-79251785D01*
X60772380Y-78870833D01*
X60820000Y-78775595D01*
X60867619Y-78727976D01*
X60962857Y-78680357D01*
X61105714Y-78680357D01*
X61200952Y-78727976D01*
X61248571Y-78775595D01*
X61296190Y-78870833D01*
X61296190Y-79251785D01*
X61772380Y-77727976D02*
X61772380Y-78299404D01*
X61772380Y-78013690D02*
X60772380Y-78013690D01*
X60915238Y-78108928D01*
X61010476Y-78204166D01*
X61058095Y-78299404D01*
X60772380Y-76823214D02*
X60772380Y-77299404D01*
X61248571Y-77347023D01*
X61200952Y-77299404D01*
X61153333Y-77204166D01*
X61153333Y-76966071D01*
X61200952Y-76870833D01*
X61248571Y-76823214D01*
X61343809Y-76775595D01*
X61581904Y-76775595D01*
X61677142Y-76823214D01*
X61724761Y-76870833D01*
X61772380Y-76966071D01*
X61772380Y-77204166D01*
X61724761Y-77299404D01*
X61677142Y-77347023D01*
%TO.C,R14*%
X59272380Y-78680357D02*
X58796190Y-79013690D01*
X59272380Y-79251785D02*
X58272380Y-79251785D01*
X58272380Y-78870833D01*
X58320000Y-78775595D01*
X58367619Y-78727976D01*
X58462857Y-78680357D01*
X58605714Y-78680357D01*
X58700952Y-78727976D01*
X58748571Y-78775595D01*
X58796190Y-78870833D01*
X58796190Y-79251785D01*
X59272380Y-77727976D02*
X59272380Y-78299404D01*
X59272380Y-78013690D02*
X58272380Y-78013690D01*
X58415238Y-78108928D01*
X58510476Y-78204166D01*
X58558095Y-78299404D01*
X58605714Y-76870833D02*
X59272380Y-76870833D01*
X58224761Y-77108928D02*
X58939047Y-77347023D01*
X58939047Y-76727976D01*
%TO.C,R13*%
X56772380Y-78680357D02*
X56296190Y-79013690D01*
X56772380Y-79251785D02*
X55772380Y-79251785D01*
X55772380Y-78870833D01*
X55820000Y-78775595D01*
X55867619Y-78727976D01*
X55962857Y-78680357D01*
X56105714Y-78680357D01*
X56200952Y-78727976D01*
X56248571Y-78775595D01*
X56296190Y-78870833D01*
X56296190Y-79251785D01*
X56772380Y-77727976D02*
X56772380Y-78299404D01*
X56772380Y-78013690D02*
X55772380Y-78013690D01*
X55915238Y-78108928D01*
X56010476Y-78204166D01*
X56058095Y-78299404D01*
X55772380Y-77394642D02*
X55772380Y-76775595D01*
X56153333Y-77108928D01*
X56153333Y-76966071D01*
X56200952Y-76870833D01*
X56248571Y-76823214D01*
X56343809Y-76775595D01*
X56581904Y-76775595D01*
X56677142Y-76823214D01*
X56724761Y-76870833D01*
X56772380Y-76966071D01*
X56772380Y-77251785D01*
X56724761Y-77347023D01*
X56677142Y-77394642D01*
%TO.C,R12*%
X54272380Y-78680357D02*
X53796190Y-79013690D01*
X54272380Y-79251785D02*
X53272380Y-79251785D01*
X53272380Y-78870833D01*
X53320000Y-78775595D01*
X53367619Y-78727976D01*
X53462857Y-78680357D01*
X53605714Y-78680357D01*
X53700952Y-78727976D01*
X53748571Y-78775595D01*
X53796190Y-78870833D01*
X53796190Y-79251785D01*
X54272380Y-77727976D02*
X54272380Y-78299404D01*
X54272380Y-78013690D02*
X53272380Y-78013690D01*
X53415238Y-78108928D01*
X53510476Y-78204166D01*
X53558095Y-78299404D01*
X53367619Y-77347023D02*
X53320000Y-77299404D01*
X53272380Y-77204166D01*
X53272380Y-76966071D01*
X53320000Y-76870833D01*
X53367619Y-76823214D01*
X53462857Y-76775595D01*
X53558095Y-76775595D01*
X53700952Y-76823214D01*
X54272380Y-77394642D01*
X54272380Y-76775595D01*
%TO.C,R11*%
X51772380Y-78680357D02*
X51296190Y-79013690D01*
X51772380Y-79251785D02*
X50772380Y-79251785D01*
X50772380Y-78870833D01*
X50820000Y-78775595D01*
X50867619Y-78727976D01*
X50962857Y-78680357D01*
X51105714Y-78680357D01*
X51200952Y-78727976D01*
X51248571Y-78775595D01*
X51296190Y-78870833D01*
X51296190Y-79251785D01*
X51772380Y-77727976D02*
X51772380Y-78299404D01*
X51772380Y-78013690D02*
X50772380Y-78013690D01*
X50915238Y-78108928D01*
X51010476Y-78204166D01*
X51058095Y-78299404D01*
X51772380Y-76775595D02*
X51772380Y-77347023D01*
X51772380Y-77061309D02*
X50772380Y-77061309D01*
X50915238Y-77156547D01*
X51010476Y-77251785D01*
X51058095Y-77347023D01*
%TO.C,R10*%
X49272380Y-78680357D02*
X48796190Y-79013690D01*
X49272380Y-79251785D02*
X48272380Y-79251785D01*
X48272380Y-78870833D01*
X48320000Y-78775595D01*
X48367619Y-78727976D01*
X48462857Y-78680357D01*
X48605714Y-78680357D01*
X48700952Y-78727976D01*
X48748571Y-78775595D01*
X48796190Y-78870833D01*
X48796190Y-79251785D01*
X49272380Y-77727976D02*
X49272380Y-78299404D01*
X49272380Y-78013690D02*
X48272380Y-78013690D01*
X48415238Y-78108928D01*
X48510476Y-78204166D01*
X48558095Y-78299404D01*
X48272380Y-77108928D02*
X48272380Y-77013690D01*
X48320000Y-76918452D01*
X48367619Y-76870833D01*
X48462857Y-76823214D01*
X48653333Y-76775595D01*
X48891428Y-76775595D01*
X49081904Y-76823214D01*
X49177142Y-76870833D01*
X49224761Y-76918452D01*
X49272380Y-77013690D01*
X49272380Y-77108928D01*
X49224761Y-77204166D01*
X49177142Y-77251785D01*
X49081904Y-77299404D01*
X48891428Y-77347023D01*
X48653333Y-77347023D01*
X48462857Y-77299404D01*
X48367619Y-77251785D01*
X48320000Y-77204166D01*
X48272380Y-77108928D01*
%TO.C,R9*%
X46772380Y-78129166D02*
X46296190Y-78462500D01*
X46772380Y-78700595D02*
X45772380Y-78700595D01*
X45772380Y-78319642D01*
X45820000Y-78224404D01*
X45867619Y-78176785D01*
X45962857Y-78129166D01*
X46105714Y-78129166D01*
X46200952Y-78176785D01*
X46248571Y-78224404D01*
X46296190Y-78319642D01*
X46296190Y-78700595D01*
X46772380Y-77652976D02*
X46772380Y-77462500D01*
X46724761Y-77367261D01*
X46677142Y-77319642D01*
X46534285Y-77224404D01*
X46343809Y-77176785D01*
X45962857Y-77176785D01*
X45867619Y-77224404D01*
X45820000Y-77272023D01*
X45772380Y-77367261D01*
X45772380Y-77557738D01*
X45820000Y-77652976D01*
X45867619Y-77700595D01*
X45962857Y-77748214D01*
X46200952Y-77748214D01*
X46296190Y-77700595D01*
X46343809Y-77652976D01*
X46391428Y-77557738D01*
X46391428Y-77367261D01*
X46343809Y-77272023D01*
X46296190Y-77224404D01*
X46200952Y-77176785D01*
%TO.C,R8*%
X44272380Y-78129166D02*
X43796190Y-78462500D01*
X44272380Y-78700595D02*
X43272380Y-78700595D01*
X43272380Y-78319642D01*
X43320000Y-78224404D01*
X43367619Y-78176785D01*
X43462857Y-78129166D01*
X43605714Y-78129166D01*
X43700952Y-78176785D01*
X43748571Y-78224404D01*
X43796190Y-78319642D01*
X43796190Y-78700595D01*
X43700952Y-77557738D02*
X43653333Y-77652976D01*
X43605714Y-77700595D01*
X43510476Y-77748214D01*
X43462857Y-77748214D01*
X43367619Y-77700595D01*
X43320000Y-77652976D01*
X43272380Y-77557738D01*
X43272380Y-77367261D01*
X43320000Y-77272023D01*
X43367619Y-77224404D01*
X43462857Y-77176785D01*
X43510476Y-77176785D01*
X43605714Y-77224404D01*
X43653333Y-77272023D01*
X43700952Y-77367261D01*
X43700952Y-77557738D01*
X43748571Y-77652976D01*
X43796190Y-77700595D01*
X43891428Y-77748214D01*
X44081904Y-77748214D01*
X44177142Y-77700595D01*
X44224761Y-77652976D01*
X44272380Y-77557738D01*
X44272380Y-77367261D01*
X44224761Y-77272023D01*
X44177142Y-77224404D01*
X44081904Y-77176785D01*
X43891428Y-77176785D01*
X43796190Y-77224404D01*
X43748571Y-77272023D01*
X43700952Y-77367261D01*
%TO.C,R7*%
X41772380Y-78129166D02*
X41296190Y-78462500D01*
X41772380Y-78700595D02*
X40772380Y-78700595D01*
X40772380Y-78319642D01*
X40820000Y-78224404D01*
X40867619Y-78176785D01*
X40962857Y-78129166D01*
X41105714Y-78129166D01*
X41200952Y-78176785D01*
X41248571Y-78224404D01*
X41296190Y-78319642D01*
X41296190Y-78700595D01*
X40772380Y-77795833D02*
X40772380Y-77129166D01*
X41772380Y-77557738D01*
%TO.C,R6*%
X39272380Y-78129166D02*
X38796190Y-78462500D01*
X39272380Y-78700595D02*
X38272380Y-78700595D01*
X38272380Y-78319642D01*
X38320000Y-78224404D01*
X38367619Y-78176785D01*
X38462857Y-78129166D01*
X38605714Y-78129166D01*
X38700952Y-78176785D01*
X38748571Y-78224404D01*
X38796190Y-78319642D01*
X38796190Y-78700595D01*
X38272380Y-77272023D02*
X38272380Y-77462500D01*
X38320000Y-77557738D01*
X38367619Y-77605357D01*
X38510476Y-77700595D01*
X38700952Y-77748214D01*
X39081904Y-77748214D01*
X39177142Y-77700595D01*
X39224761Y-77652976D01*
X39272380Y-77557738D01*
X39272380Y-77367261D01*
X39224761Y-77272023D01*
X39177142Y-77224404D01*
X39081904Y-77176785D01*
X38843809Y-77176785D01*
X38748571Y-77224404D01*
X38700952Y-77272023D01*
X38653333Y-77367261D01*
X38653333Y-77557738D01*
X38700952Y-77652976D01*
X38748571Y-77700595D01*
X38843809Y-77748214D01*
%TO.C,R5*%
X36772380Y-78129166D02*
X36296190Y-78462500D01*
X36772380Y-78700595D02*
X35772380Y-78700595D01*
X35772380Y-78319642D01*
X35820000Y-78224404D01*
X35867619Y-78176785D01*
X35962857Y-78129166D01*
X36105714Y-78129166D01*
X36200952Y-78176785D01*
X36248571Y-78224404D01*
X36296190Y-78319642D01*
X36296190Y-78700595D01*
X35772380Y-77224404D02*
X35772380Y-77700595D01*
X36248571Y-77748214D01*
X36200952Y-77700595D01*
X36153333Y-77605357D01*
X36153333Y-77367261D01*
X36200952Y-77272023D01*
X36248571Y-77224404D01*
X36343809Y-77176785D01*
X36581904Y-77176785D01*
X36677142Y-77224404D01*
X36724761Y-77272023D01*
X36772380Y-77367261D01*
X36772380Y-77605357D01*
X36724761Y-77700595D01*
X36677142Y-77748214D01*
%TO.C,R4*%
X34272380Y-78166666D02*
X33796190Y-78500000D01*
X34272380Y-78738095D02*
X33272380Y-78738095D01*
X33272380Y-78357142D01*
X33320000Y-78261904D01*
X33367619Y-78214285D01*
X33462857Y-78166666D01*
X33605714Y-78166666D01*
X33700952Y-78214285D01*
X33748571Y-78261904D01*
X33796190Y-78357142D01*
X33796190Y-78738095D01*
X33605714Y-77309523D02*
X34272380Y-77309523D01*
X33224761Y-77547619D02*
X33939047Y-77785714D01*
X33939047Y-77166666D01*
%TO.C,R3*%
X31772380Y-78166666D02*
X31296190Y-78500000D01*
X31772380Y-78738095D02*
X30772380Y-78738095D01*
X30772380Y-78357142D01*
X30820000Y-78261904D01*
X30867619Y-78214285D01*
X30962857Y-78166666D01*
X31105714Y-78166666D01*
X31200952Y-78214285D01*
X31248571Y-78261904D01*
X31296190Y-78357142D01*
X31296190Y-78738095D01*
X30772380Y-77833333D02*
X30772380Y-77214285D01*
X31153333Y-77547619D01*
X31153333Y-77404761D01*
X31200952Y-77309523D01*
X31248571Y-77261904D01*
X31343809Y-77214285D01*
X31581904Y-77214285D01*
X31677142Y-77261904D01*
X31724761Y-77309523D01*
X31772380Y-77404761D01*
X31772380Y-77690476D01*
X31724761Y-77785714D01*
X31677142Y-77833333D01*
%TO.C,R2*%
X29272380Y-78129166D02*
X28796190Y-78462500D01*
X29272380Y-78700595D02*
X28272380Y-78700595D01*
X28272380Y-78319642D01*
X28320000Y-78224404D01*
X28367619Y-78176785D01*
X28462857Y-78129166D01*
X28605714Y-78129166D01*
X28700952Y-78176785D01*
X28748571Y-78224404D01*
X28796190Y-78319642D01*
X28796190Y-78700595D01*
X28367619Y-77748214D02*
X28320000Y-77700595D01*
X28272380Y-77605357D01*
X28272380Y-77367261D01*
X28320000Y-77272023D01*
X28367619Y-77224404D01*
X28462857Y-77176785D01*
X28558095Y-77176785D01*
X28700952Y-77224404D01*
X29272380Y-77795833D01*
X29272380Y-77176785D01*
%TO.C,R1*%
X26772380Y-78129166D02*
X26296190Y-78462500D01*
X26772380Y-78700595D02*
X25772380Y-78700595D01*
X25772380Y-78319642D01*
X25820000Y-78224404D01*
X25867619Y-78176785D01*
X25962857Y-78129166D01*
X26105714Y-78129166D01*
X26200952Y-78176785D01*
X26248571Y-78224404D01*
X26296190Y-78319642D01*
X26296190Y-78700595D01*
X26772380Y-77176785D02*
X26772380Y-77748214D01*
X26772380Y-77462500D02*
X25772380Y-77462500D01*
X25915238Y-77557738D01*
X26010476Y-77652976D01*
X26058095Y-77748214D01*
%TO.C,J5*%
X95822380Y-110333333D02*
X96536666Y-110333333D01*
X96679523Y-110380952D01*
X96774761Y-110476190D01*
X96822380Y-110619047D01*
X96822380Y-110714285D01*
X95822380Y-109380952D02*
X95822380Y-109857142D01*
X96298571Y-109904761D01*
X96250952Y-109857142D01*
X96203333Y-109761904D01*
X96203333Y-109523809D01*
X96250952Y-109428571D01*
X96298571Y-109380952D01*
X96393809Y-109333333D01*
X96631904Y-109333333D01*
X96727142Y-109380952D01*
X96774761Y-109428571D01*
X96822380Y-109523809D01*
X96822380Y-109761904D01*
X96774761Y-109857142D01*
X96727142Y-109904761D01*
%TO.C,D32*%
X104272380Y-71814285D02*
X103272380Y-71814285D01*
X103272380Y-71576190D01*
X103320000Y-71433333D01*
X103415238Y-71338095D01*
X103510476Y-71290476D01*
X103700952Y-71242857D01*
X103843809Y-71242857D01*
X104034285Y-71290476D01*
X104129523Y-71338095D01*
X104224761Y-71433333D01*
X104272380Y-71576190D01*
X104272380Y-71814285D01*
X103272380Y-70909523D02*
X103272380Y-70290476D01*
X103653333Y-70623809D01*
X103653333Y-70480952D01*
X103700952Y-70385714D01*
X103748571Y-70338095D01*
X103843809Y-70290476D01*
X104081904Y-70290476D01*
X104177142Y-70338095D01*
X104224761Y-70385714D01*
X104272380Y-70480952D01*
X104272380Y-70766666D01*
X104224761Y-70861904D01*
X104177142Y-70909523D01*
X103367619Y-69909523D02*
X103320000Y-69861904D01*
X103272380Y-69766666D01*
X103272380Y-69528571D01*
X103320000Y-69433333D01*
X103367619Y-69385714D01*
X103462857Y-69338095D01*
X103558095Y-69338095D01*
X103700952Y-69385714D01*
X104272380Y-69957142D01*
X104272380Y-69338095D01*
%TO.C,D31*%
X101772380Y-71814285D02*
X100772380Y-71814285D01*
X100772380Y-71576190D01*
X100820000Y-71433333D01*
X100915238Y-71338095D01*
X101010476Y-71290476D01*
X101200952Y-71242857D01*
X101343809Y-71242857D01*
X101534285Y-71290476D01*
X101629523Y-71338095D01*
X101724761Y-71433333D01*
X101772380Y-71576190D01*
X101772380Y-71814285D01*
X100772380Y-70909523D02*
X100772380Y-70290476D01*
X101153333Y-70623809D01*
X101153333Y-70480952D01*
X101200952Y-70385714D01*
X101248571Y-70338095D01*
X101343809Y-70290476D01*
X101581904Y-70290476D01*
X101677142Y-70338095D01*
X101724761Y-70385714D01*
X101772380Y-70480952D01*
X101772380Y-70766666D01*
X101724761Y-70861904D01*
X101677142Y-70909523D01*
X101772380Y-69338095D02*
X101772380Y-69909523D01*
X101772380Y-69623809D02*
X100772380Y-69623809D01*
X100915238Y-69719047D01*
X101010476Y-69814285D01*
X101058095Y-69909523D01*
%TO.C,D30*%
X99272380Y-71814285D02*
X98272380Y-71814285D01*
X98272380Y-71576190D01*
X98320000Y-71433333D01*
X98415238Y-71338095D01*
X98510476Y-71290476D01*
X98700952Y-71242857D01*
X98843809Y-71242857D01*
X99034285Y-71290476D01*
X99129523Y-71338095D01*
X99224761Y-71433333D01*
X99272380Y-71576190D01*
X99272380Y-71814285D01*
X98272380Y-70909523D02*
X98272380Y-70290476D01*
X98653333Y-70623809D01*
X98653333Y-70480952D01*
X98700952Y-70385714D01*
X98748571Y-70338095D01*
X98843809Y-70290476D01*
X99081904Y-70290476D01*
X99177142Y-70338095D01*
X99224761Y-70385714D01*
X99272380Y-70480952D01*
X99272380Y-70766666D01*
X99224761Y-70861904D01*
X99177142Y-70909523D01*
X98272380Y-69671428D02*
X98272380Y-69576190D01*
X98320000Y-69480952D01*
X98367619Y-69433333D01*
X98462857Y-69385714D01*
X98653333Y-69338095D01*
X98891428Y-69338095D01*
X99081904Y-69385714D01*
X99177142Y-69433333D01*
X99224761Y-69480952D01*
X99272380Y-69576190D01*
X99272380Y-69671428D01*
X99224761Y-69766666D01*
X99177142Y-69814285D01*
X99081904Y-69861904D01*
X98891428Y-69909523D01*
X98653333Y-69909523D01*
X98462857Y-69861904D01*
X98367619Y-69814285D01*
X98320000Y-69766666D01*
X98272380Y-69671428D01*
%TO.C,D29*%
X96772380Y-71814285D02*
X95772380Y-71814285D01*
X95772380Y-71576190D01*
X95820000Y-71433333D01*
X95915238Y-71338095D01*
X96010476Y-71290476D01*
X96200952Y-71242857D01*
X96343809Y-71242857D01*
X96534285Y-71290476D01*
X96629523Y-71338095D01*
X96724761Y-71433333D01*
X96772380Y-71576190D01*
X96772380Y-71814285D01*
X95867619Y-70861904D02*
X95820000Y-70814285D01*
X95772380Y-70719047D01*
X95772380Y-70480952D01*
X95820000Y-70385714D01*
X95867619Y-70338095D01*
X95962857Y-70290476D01*
X96058095Y-70290476D01*
X96200952Y-70338095D01*
X96772380Y-70909523D01*
X96772380Y-70290476D01*
X96772380Y-69814285D02*
X96772380Y-69623809D01*
X96724761Y-69528571D01*
X96677142Y-69480952D01*
X96534285Y-69385714D01*
X96343809Y-69338095D01*
X95962857Y-69338095D01*
X95867619Y-69385714D01*
X95820000Y-69433333D01*
X95772380Y-69528571D01*
X95772380Y-69719047D01*
X95820000Y-69814285D01*
X95867619Y-69861904D01*
X95962857Y-69909523D01*
X96200952Y-69909523D01*
X96296190Y-69861904D01*
X96343809Y-69814285D01*
X96391428Y-69719047D01*
X96391428Y-69528571D01*
X96343809Y-69433333D01*
X96296190Y-69385714D01*
X96200952Y-69338095D01*
%TO.C,D28*%
X94272380Y-71814285D02*
X93272380Y-71814285D01*
X93272380Y-71576190D01*
X93320000Y-71433333D01*
X93415238Y-71338095D01*
X93510476Y-71290476D01*
X93700952Y-71242857D01*
X93843809Y-71242857D01*
X94034285Y-71290476D01*
X94129523Y-71338095D01*
X94224761Y-71433333D01*
X94272380Y-71576190D01*
X94272380Y-71814285D01*
X93367619Y-70861904D02*
X93320000Y-70814285D01*
X93272380Y-70719047D01*
X93272380Y-70480952D01*
X93320000Y-70385714D01*
X93367619Y-70338095D01*
X93462857Y-70290476D01*
X93558095Y-70290476D01*
X93700952Y-70338095D01*
X94272380Y-70909523D01*
X94272380Y-70290476D01*
X93700952Y-69719047D02*
X93653333Y-69814285D01*
X93605714Y-69861904D01*
X93510476Y-69909523D01*
X93462857Y-69909523D01*
X93367619Y-69861904D01*
X93320000Y-69814285D01*
X93272380Y-69719047D01*
X93272380Y-69528571D01*
X93320000Y-69433333D01*
X93367619Y-69385714D01*
X93462857Y-69338095D01*
X93510476Y-69338095D01*
X93605714Y-69385714D01*
X93653333Y-69433333D01*
X93700952Y-69528571D01*
X93700952Y-69719047D01*
X93748571Y-69814285D01*
X93796190Y-69861904D01*
X93891428Y-69909523D01*
X94081904Y-69909523D01*
X94177142Y-69861904D01*
X94224761Y-69814285D01*
X94272380Y-69719047D01*
X94272380Y-69528571D01*
X94224761Y-69433333D01*
X94177142Y-69385714D01*
X94081904Y-69338095D01*
X93891428Y-69338095D01*
X93796190Y-69385714D01*
X93748571Y-69433333D01*
X93700952Y-69528571D01*
%TO.C,D27*%
X91772380Y-71814285D02*
X90772380Y-71814285D01*
X90772380Y-71576190D01*
X90820000Y-71433333D01*
X90915238Y-71338095D01*
X91010476Y-71290476D01*
X91200952Y-71242857D01*
X91343809Y-71242857D01*
X91534285Y-71290476D01*
X91629523Y-71338095D01*
X91724761Y-71433333D01*
X91772380Y-71576190D01*
X91772380Y-71814285D01*
X90867619Y-70861904D02*
X90820000Y-70814285D01*
X90772380Y-70719047D01*
X90772380Y-70480952D01*
X90820000Y-70385714D01*
X90867619Y-70338095D01*
X90962857Y-70290476D01*
X91058095Y-70290476D01*
X91200952Y-70338095D01*
X91772380Y-70909523D01*
X91772380Y-70290476D01*
X90772380Y-69957142D02*
X90772380Y-69290476D01*
X91772380Y-69719047D01*
%TO.C,D26*%
X89272380Y-71814285D02*
X88272380Y-71814285D01*
X88272380Y-71576190D01*
X88320000Y-71433333D01*
X88415238Y-71338095D01*
X88510476Y-71290476D01*
X88700952Y-71242857D01*
X88843809Y-71242857D01*
X89034285Y-71290476D01*
X89129523Y-71338095D01*
X89224761Y-71433333D01*
X89272380Y-71576190D01*
X89272380Y-71814285D01*
X88367619Y-70861904D02*
X88320000Y-70814285D01*
X88272380Y-70719047D01*
X88272380Y-70480952D01*
X88320000Y-70385714D01*
X88367619Y-70338095D01*
X88462857Y-70290476D01*
X88558095Y-70290476D01*
X88700952Y-70338095D01*
X89272380Y-70909523D01*
X89272380Y-70290476D01*
X88272380Y-69433333D02*
X88272380Y-69623809D01*
X88320000Y-69719047D01*
X88367619Y-69766666D01*
X88510476Y-69861904D01*
X88700952Y-69909523D01*
X89081904Y-69909523D01*
X89177142Y-69861904D01*
X89224761Y-69814285D01*
X89272380Y-69719047D01*
X89272380Y-69528571D01*
X89224761Y-69433333D01*
X89177142Y-69385714D01*
X89081904Y-69338095D01*
X88843809Y-69338095D01*
X88748571Y-69385714D01*
X88700952Y-69433333D01*
X88653333Y-69528571D01*
X88653333Y-69719047D01*
X88700952Y-69814285D01*
X88748571Y-69861904D01*
X88843809Y-69909523D01*
%TO.C,D25*%
X86772380Y-71814285D02*
X85772380Y-71814285D01*
X85772380Y-71576190D01*
X85820000Y-71433333D01*
X85915238Y-71338095D01*
X86010476Y-71290476D01*
X86200952Y-71242857D01*
X86343809Y-71242857D01*
X86534285Y-71290476D01*
X86629523Y-71338095D01*
X86724761Y-71433333D01*
X86772380Y-71576190D01*
X86772380Y-71814285D01*
X85867619Y-70861904D02*
X85820000Y-70814285D01*
X85772380Y-70719047D01*
X85772380Y-70480952D01*
X85820000Y-70385714D01*
X85867619Y-70338095D01*
X85962857Y-70290476D01*
X86058095Y-70290476D01*
X86200952Y-70338095D01*
X86772380Y-70909523D01*
X86772380Y-70290476D01*
X85772380Y-69385714D02*
X85772380Y-69861904D01*
X86248571Y-69909523D01*
X86200952Y-69861904D01*
X86153333Y-69766666D01*
X86153333Y-69528571D01*
X86200952Y-69433333D01*
X86248571Y-69385714D01*
X86343809Y-69338095D01*
X86581904Y-69338095D01*
X86677142Y-69385714D01*
X86724761Y-69433333D01*
X86772380Y-69528571D01*
X86772380Y-69766666D01*
X86724761Y-69861904D01*
X86677142Y-69909523D01*
%TO.C,D24*%
X84272380Y-71814285D02*
X83272380Y-71814285D01*
X83272380Y-71576190D01*
X83320000Y-71433333D01*
X83415238Y-71338095D01*
X83510476Y-71290476D01*
X83700952Y-71242857D01*
X83843809Y-71242857D01*
X84034285Y-71290476D01*
X84129523Y-71338095D01*
X84224761Y-71433333D01*
X84272380Y-71576190D01*
X84272380Y-71814285D01*
X83367619Y-70861904D02*
X83320000Y-70814285D01*
X83272380Y-70719047D01*
X83272380Y-70480952D01*
X83320000Y-70385714D01*
X83367619Y-70338095D01*
X83462857Y-70290476D01*
X83558095Y-70290476D01*
X83700952Y-70338095D01*
X84272380Y-70909523D01*
X84272380Y-70290476D01*
X83605714Y-69433333D02*
X84272380Y-69433333D01*
X83224761Y-69671428D02*
X83939047Y-69909523D01*
X83939047Y-69290476D01*
%TO.C,D23*%
X81772380Y-71814285D02*
X80772380Y-71814285D01*
X80772380Y-71576190D01*
X80820000Y-71433333D01*
X80915238Y-71338095D01*
X81010476Y-71290476D01*
X81200952Y-71242857D01*
X81343809Y-71242857D01*
X81534285Y-71290476D01*
X81629523Y-71338095D01*
X81724761Y-71433333D01*
X81772380Y-71576190D01*
X81772380Y-71814285D01*
X80867619Y-70861904D02*
X80820000Y-70814285D01*
X80772380Y-70719047D01*
X80772380Y-70480952D01*
X80820000Y-70385714D01*
X80867619Y-70338095D01*
X80962857Y-70290476D01*
X81058095Y-70290476D01*
X81200952Y-70338095D01*
X81772380Y-70909523D01*
X81772380Y-70290476D01*
X80772380Y-69957142D02*
X80772380Y-69338095D01*
X81153333Y-69671428D01*
X81153333Y-69528571D01*
X81200952Y-69433333D01*
X81248571Y-69385714D01*
X81343809Y-69338095D01*
X81581904Y-69338095D01*
X81677142Y-69385714D01*
X81724761Y-69433333D01*
X81772380Y-69528571D01*
X81772380Y-69814285D01*
X81724761Y-69909523D01*
X81677142Y-69957142D01*
%TO.C,D22*%
X79272380Y-71814285D02*
X78272380Y-71814285D01*
X78272380Y-71576190D01*
X78320000Y-71433333D01*
X78415238Y-71338095D01*
X78510476Y-71290476D01*
X78700952Y-71242857D01*
X78843809Y-71242857D01*
X79034285Y-71290476D01*
X79129523Y-71338095D01*
X79224761Y-71433333D01*
X79272380Y-71576190D01*
X79272380Y-71814285D01*
X78367619Y-70861904D02*
X78320000Y-70814285D01*
X78272380Y-70719047D01*
X78272380Y-70480952D01*
X78320000Y-70385714D01*
X78367619Y-70338095D01*
X78462857Y-70290476D01*
X78558095Y-70290476D01*
X78700952Y-70338095D01*
X79272380Y-70909523D01*
X79272380Y-70290476D01*
X78367619Y-69909523D02*
X78320000Y-69861904D01*
X78272380Y-69766666D01*
X78272380Y-69528571D01*
X78320000Y-69433333D01*
X78367619Y-69385714D01*
X78462857Y-69338095D01*
X78558095Y-69338095D01*
X78700952Y-69385714D01*
X79272380Y-69957142D01*
X79272380Y-69338095D01*
%TO.C,D21*%
X76772380Y-71814285D02*
X75772380Y-71814285D01*
X75772380Y-71576190D01*
X75820000Y-71433333D01*
X75915238Y-71338095D01*
X76010476Y-71290476D01*
X76200952Y-71242857D01*
X76343809Y-71242857D01*
X76534285Y-71290476D01*
X76629523Y-71338095D01*
X76724761Y-71433333D01*
X76772380Y-71576190D01*
X76772380Y-71814285D01*
X75867619Y-70861904D02*
X75820000Y-70814285D01*
X75772380Y-70719047D01*
X75772380Y-70480952D01*
X75820000Y-70385714D01*
X75867619Y-70338095D01*
X75962857Y-70290476D01*
X76058095Y-70290476D01*
X76200952Y-70338095D01*
X76772380Y-70909523D01*
X76772380Y-70290476D01*
X76772380Y-69338095D02*
X76772380Y-69909523D01*
X76772380Y-69623809D02*
X75772380Y-69623809D01*
X75915238Y-69719047D01*
X76010476Y-69814285D01*
X76058095Y-69909523D01*
%TO.C,D20*%
X74272380Y-71814285D02*
X73272380Y-71814285D01*
X73272380Y-71576190D01*
X73320000Y-71433333D01*
X73415238Y-71338095D01*
X73510476Y-71290476D01*
X73700952Y-71242857D01*
X73843809Y-71242857D01*
X74034285Y-71290476D01*
X74129523Y-71338095D01*
X74224761Y-71433333D01*
X74272380Y-71576190D01*
X74272380Y-71814285D01*
X73367619Y-70861904D02*
X73320000Y-70814285D01*
X73272380Y-70719047D01*
X73272380Y-70480952D01*
X73320000Y-70385714D01*
X73367619Y-70338095D01*
X73462857Y-70290476D01*
X73558095Y-70290476D01*
X73700952Y-70338095D01*
X74272380Y-70909523D01*
X74272380Y-70290476D01*
X73272380Y-69671428D02*
X73272380Y-69576190D01*
X73320000Y-69480952D01*
X73367619Y-69433333D01*
X73462857Y-69385714D01*
X73653333Y-69338095D01*
X73891428Y-69338095D01*
X74081904Y-69385714D01*
X74177142Y-69433333D01*
X74224761Y-69480952D01*
X74272380Y-69576190D01*
X74272380Y-69671428D01*
X74224761Y-69766666D01*
X74177142Y-69814285D01*
X74081904Y-69861904D01*
X73891428Y-69909523D01*
X73653333Y-69909523D01*
X73462857Y-69861904D01*
X73367619Y-69814285D01*
X73320000Y-69766666D01*
X73272380Y-69671428D01*
%TO.C,D19*%
X71772380Y-71814285D02*
X70772380Y-71814285D01*
X70772380Y-71576190D01*
X70820000Y-71433333D01*
X70915238Y-71338095D01*
X71010476Y-71290476D01*
X71200952Y-71242857D01*
X71343809Y-71242857D01*
X71534285Y-71290476D01*
X71629523Y-71338095D01*
X71724761Y-71433333D01*
X71772380Y-71576190D01*
X71772380Y-71814285D01*
X71772380Y-70290476D02*
X71772380Y-70861904D01*
X71772380Y-70576190D02*
X70772380Y-70576190D01*
X70915238Y-70671428D01*
X71010476Y-70766666D01*
X71058095Y-70861904D01*
X71772380Y-69814285D02*
X71772380Y-69623809D01*
X71724761Y-69528571D01*
X71677142Y-69480952D01*
X71534285Y-69385714D01*
X71343809Y-69338095D01*
X70962857Y-69338095D01*
X70867619Y-69385714D01*
X70820000Y-69433333D01*
X70772380Y-69528571D01*
X70772380Y-69719047D01*
X70820000Y-69814285D01*
X70867619Y-69861904D01*
X70962857Y-69909523D01*
X71200952Y-69909523D01*
X71296190Y-69861904D01*
X71343809Y-69814285D01*
X71391428Y-69719047D01*
X71391428Y-69528571D01*
X71343809Y-69433333D01*
X71296190Y-69385714D01*
X71200952Y-69338095D01*
%TO.C,D18*%
X69272380Y-71814285D02*
X68272380Y-71814285D01*
X68272380Y-71576190D01*
X68320000Y-71433333D01*
X68415238Y-71338095D01*
X68510476Y-71290476D01*
X68700952Y-71242857D01*
X68843809Y-71242857D01*
X69034285Y-71290476D01*
X69129523Y-71338095D01*
X69224761Y-71433333D01*
X69272380Y-71576190D01*
X69272380Y-71814285D01*
X69272380Y-70290476D02*
X69272380Y-70861904D01*
X69272380Y-70576190D02*
X68272380Y-70576190D01*
X68415238Y-70671428D01*
X68510476Y-70766666D01*
X68558095Y-70861904D01*
X68700952Y-69719047D02*
X68653333Y-69814285D01*
X68605714Y-69861904D01*
X68510476Y-69909523D01*
X68462857Y-69909523D01*
X68367619Y-69861904D01*
X68320000Y-69814285D01*
X68272380Y-69719047D01*
X68272380Y-69528571D01*
X68320000Y-69433333D01*
X68367619Y-69385714D01*
X68462857Y-69338095D01*
X68510476Y-69338095D01*
X68605714Y-69385714D01*
X68653333Y-69433333D01*
X68700952Y-69528571D01*
X68700952Y-69719047D01*
X68748571Y-69814285D01*
X68796190Y-69861904D01*
X68891428Y-69909523D01*
X69081904Y-69909523D01*
X69177142Y-69861904D01*
X69224761Y-69814285D01*
X69272380Y-69719047D01*
X69272380Y-69528571D01*
X69224761Y-69433333D01*
X69177142Y-69385714D01*
X69081904Y-69338095D01*
X68891428Y-69338095D01*
X68796190Y-69385714D01*
X68748571Y-69433333D01*
X68700952Y-69528571D01*
%TO.C,D17*%
X66772380Y-71814285D02*
X65772380Y-71814285D01*
X65772380Y-71576190D01*
X65820000Y-71433333D01*
X65915238Y-71338095D01*
X66010476Y-71290476D01*
X66200952Y-71242857D01*
X66343809Y-71242857D01*
X66534285Y-71290476D01*
X66629523Y-71338095D01*
X66724761Y-71433333D01*
X66772380Y-71576190D01*
X66772380Y-71814285D01*
X66772380Y-70290476D02*
X66772380Y-70861904D01*
X66772380Y-70576190D02*
X65772380Y-70576190D01*
X65915238Y-70671428D01*
X66010476Y-70766666D01*
X66058095Y-70861904D01*
X65772380Y-69957142D02*
X65772380Y-69290476D01*
X66772380Y-69719047D01*
%TO.C,D16*%
X64272380Y-71814285D02*
X63272380Y-71814285D01*
X63272380Y-71576190D01*
X63320000Y-71433333D01*
X63415238Y-71338095D01*
X63510476Y-71290476D01*
X63700952Y-71242857D01*
X63843809Y-71242857D01*
X64034285Y-71290476D01*
X64129523Y-71338095D01*
X64224761Y-71433333D01*
X64272380Y-71576190D01*
X64272380Y-71814285D01*
X64272380Y-70290476D02*
X64272380Y-70861904D01*
X64272380Y-70576190D02*
X63272380Y-70576190D01*
X63415238Y-70671428D01*
X63510476Y-70766666D01*
X63558095Y-70861904D01*
X63272380Y-69433333D02*
X63272380Y-69623809D01*
X63320000Y-69719047D01*
X63367619Y-69766666D01*
X63510476Y-69861904D01*
X63700952Y-69909523D01*
X64081904Y-69909523D01*
X64177142Y-69861904D01*
X64224761Y-69814285D01*
X64272380Y-69719047D01*
X64272380Y-69528571D01*
X64224761Y-69433333D01*
X64177142Y-69385714D01*
X64081904Y-69338095D01*
X63843809Y-69338095D01*
X63748571Y-69385714D01*
X63700952Y-69433333D01*
X63653333Y-69528571D01*
X63653333Y-69719047D01*
X63700952Y-69814285D01*
X63748571Y-69861904D01*
X63843809Y-69909523D01*
%TO.C,D15*%
X61772380Y-71814285D02*
X60772380Y-71814285D01*
X60772380Y-71576190D01*
X60820000Y-71433333D01*
X60915238Y-71338095D01*
X61010476Y-71290476D01*
X61200952Y-71242857D01*
X61343809Y-71242857D01*
X61534285Y-71290476D01*
X61629523Y-71338095D01*
X61724761Y-71433333D01*
X61772380Y-71576190D01*
X61772380Y-71814285D01*
X61772380Y-70290476D02*
X61772380Y-70861904D01*
X61772380Y-70576190D02*
X60772380Y-70576190D01*
X60915238Y-70671428D01*
X61010476Y-70766666D01*
X61058095Y-70861904D01*
X60772380Y-69385714D02*
X60772380Y-69861904D01*
X61248571Y-69909523D01*
X61200952Y-69861904D01*
X61153333Y-69766666D01*
X61153333Y-69528571D01*
X61200952Y-69433333D01*
X61248571Y-69385714D01*
X61343809Y-69338095D01*
X61581904Y-69338095D01*
X61677142Y-69385714D01*
X61724761Y-69433333D01*
X61772380Y-69528571D01*
X61772380Y-69766666D01*
X61724761Y-69861904D01*
X61677142Y-69909523D01*
%TO.C,D14*%
X59272380Y-71814285D02*
X58272380Y-71814285D01*
X58272380Y-71576190D01*
X58320000Y-71433333D01*
X58415238Y-71338095D01*
X58510476Y-71290476D01*
X58700952Y-71242857D01*
X58843809Y-71242857D01*
X59034285Y-71290476D01*
X59129523Y-71338095D01*
X59224761Y-71433333D01*
X59272380Y-71576190D01*
X59272380Y-71814285D01*
X59272380Y-70290476D02*
X59272380Y-70861904D01*
X59272380Y-70576190D02*
X58272380Y-70576190D01*
X58415238Y-70671428D01*
X58510476Y-70766666D01*
X58558095Y-70861904D01*
X58605714Y-69433333D02*
X59272380Y-69433333D01*
X58224761Y-69671428D02*
X58939047Y-69909523D01*
X58939047Y-69290476D01*
%TO.C,D13*%
X56772380Y-71814285D02*
X55772380Y-71814285D01*
X55772380Y-71576190D01*
X55820000Y-71433333D01*
X55915238Y-71338095D01*
X56010476Y-71290476D01*
X56200952Y-71242857D01*
X56343809Y-71242857D01*
X56534285Y-71290476D01*
X56629523Y-71338095D01*
X56724761Y-71433333D01*
X56772380Y-71576190D01*
X56772380Y-71814285D01*
X56772380Y-70290476D02*
X56772380Y-70861904D01*
X56772380Y-70576190D02*
X55772380Y-70576190D01*
X55915238Y-70671428D01*
X56010476Y-70766666D01*
X56058095Y-70861904D01*
X55772380Y-69957142D02*
X55772380Y-69338095D01*
X56153333Y-69671428D01*
X56153333Y-69528571D01*
X56200952Y-69433333D01*
X56248571Y-69385714D01*
X56343809Y-69338095D01*
X56581904Y-69338095D01*
X56677142Y-69385714D01*
X56724761Y-69433333D01*
X56772380Y-69528571D01*
X56772380Y-69814285D01*
X56724761Y-69909523D01*
X56677142Y-69957142D01*
%TO.C,D12*%
X54272380Y-71814285D02*
X53272380Y-71814285D01*
X53272380Y-71576190D01*
X53320000Y-71433333D01*
X53415238Y-71338095D01*
X53510476Y-71290476D01*
X53700952Y-71242857D01*
X53843809Y-71242857D01*
X54034285Y-71290476D01*
X54129523Y-71338095D01*
X54224761Y-71433333D01*
X54272380Y-71576190D01*
X54272380Y-71814285D01*
X54272380Y-70290476D02*
X54272380Y-70861904D01*
X54272380Y-70576190D02*
X53272380Y-70576190D01*
X53415238Y-70671428D01*
X53510476Y-70766666D01*
X53558095Y-70861904D01*
X53367619Y-69909523D02*
X53320000Y-69861904D01*
X53272380Y-69766666D01*
X53272380Y-69528571D01*
X53320000Y-69433333D01*
X53367619Y-69385714D01*
X53462857Y-69338095D01*
X53558095Y-69338095D01*
X53700952Y-69385714D01*
X54272380Y-69957142D01*
X54272380Y-69338095D01*
%TO.C,D11*%
X51772380Y-71814285D02*
X50772380Y-71814285D01*
X50772380Y-71576190D01*
X50820000Y-71433333D01*
X50915238Y-71338095D01*
X51010476Y-71290476D01*
X51200952Y-71242857D01*
X51343809Y-71242857D01*
X51534285Y-71290476D01*
X51629523Y-71338095D01*
X51724761Y-71433333D01*
X51772380Y-71576190D01*
X51772380Y-71814285D01*
X51772380Y-70290476D02*
X51772380Y-70861904D01*
X51772380Y-70576190D02*
X50772380Y-70576190D01*
X50915238Y-70671428D01*
X51010476Y-70766666D01*
X51058095Y-70861904D01*
X51772380Y-69338095D02*
X51772380Y-69909523D01*
X51772380Y-69623809D02*
X50772380Y-69623809D01*
X50915238Y-69719047D01*
X51010476Y-69814285D01*
X51058095Y-69909523D01*
%TO.C,D10*%
X49272380Y-71814285D02*
X48272380Y-71814285D01*
X48272380Y-71576190D01*
X48320000Y-71433333D01*
X48415238Y-71338095D01*
X48510476Y-71290476D01*
X48700952Y-71242857D01*
X48843809Y-71242857D01*
X49034285Y-71290476D01*
X49129523Y-71338095D01*
X49224761Y-71433333D01*
X49272380Y-71576190D01*
X49272380Y-71814285D01*
X49272380Y-70290476D02*
X49272380Y-70861904D01*
X49272380Y-70576190D02*
X48272380Y-70576190D01*
X48415238Y-70671428D01*
X48510476Y-70766666D01*
X48558095Y-70861904D01*
X48272380Y-69671428D02*
X48272380Y-69576190D01*
X48320000Y-69480952D01*
X48367619Y-69433333D01*
X48462857Y-69385714D01*
X48653333Y-69338095D01*
X48891428Y-69338095D01*
X49081904Y-69385714D01*
X49177142Y-69433333D01*
X49224761Y-69480952D01*
X49272380Y-69576190D01*
X49272380Y-69671428D01*
X49224761Y-69766666D01*
X49177142Y-69814285D01*
X49081904Y-69861904D01*
X48891428Y-69909523D01*
X48653333Y-69909523D01*
X48462857Y-69861904D01*
X48367619Y-69814285D01*
X48320000Y-69766666D01*
X48272380Y-69671428D01*
%TO.C,D9*%
X46772380Y-71338095D02*
X45772380Y-71338095D01*
X45772380Y-71100000D01*
X45820000Y-70957142D01*
X45915238Y-70861904D01*
X46010476Y-70814285D01*
X46200952Y-70766666D01*
X46343809Y-70766666D01*
X46534285Y-70814285D01*
X46629523Y-70861904D01*
X46724761Y-70957142D01*
X46772380Y-71100000D01*
X46772380Y-71338095D01*
X46772380Y-70290476D02*
X46772380Y-70100000D01*
X46724761Y-70004761D01*
X46677142Y-69957142D01*
X46534285Y-69861904D01*
X46343809Y-69814285D01*
X45962857Y-69814285D01*
X45867619Y-69861904D01*
X45820000Y-69909523D01*
X45772380Y-70004761D01*
X45772380Y-70195238D01*
X45820000Y-70290476D01*
X45867619Y-70338095D01*
X45962857Y-70385714D01*
X46200952Y-70385714D01*
X46296190Y-70338095D01*
X46343809Y-70290476D01*
X46391428Y-70195238D01*
X46391428Y-70004761D01*
X46343809Y-69909523D01*
X46296190Y-69861904D01*
X46200952Y-69814285D01*
%TO.C,D8*%
X44272380Y-71338095D02*
X43272380Y-71338095D01*
X43272380Y-71100000D01*
X43320000Y-70957142D01*
X43415238Y-70861904D01*
X43510476Y-70814285D01*
X43700952Y-70766666D01*
X43843809Y-70766666D01*
X44034285Y-70814285D01*
X44129523Y-70861904D01*
X44224761Y-70957142D01*
X44272380Y-71100000D01*
X44272380Y-71338095D01*
X43700952Y-70195238D02*
X43653333Y-70290476D01*
X43605714Y-70338095D01*
X43510476Y-70385714D01*
X43462857Y-70385714D01*
X43367619Y-70338095D01*
X43320000Y-70290476D01*
X43272380Y-70195238D01*
X43272380Y-70004761D01*
X43320000Y-69909523D01*
X43367619Y-69861904D01*
X43462857Y-69814285D01*
X43510476Y-69814285D01*
X43605714Y-69861904D01*
X43653333Y-69909523D01*
X43700952Y-70004761D01*
X43700952Y-70195238D01*
X43748571Y-70290476D01*
X43796190Y-70338095D01*
X43891428Y-70385714D01*
X44081904Y-70385714D01*
X44177142Y-70338095D01*
X44224761Y-70290476D01*
X44272380Y-70195238D01*
X44272380Y-70004761D01*
X44224761Y-69909523D01*
X44177142Y-69861904D01*
X44081904Y-69814285D01*
X43891428Y-69814285D01*
X43796190Y-69861904D01*
X43748571Y-69909523D01*
X43700952Y-70004761D01*
%TO.C,D7*%
X41772380Y-71338095D02*
X40772380Y-71338095D01*
X40772380Y-71100000D01*
X40820000Y-70957142D01*
X40915238Y-70861904D01*
X41010476Y-70814285D01*
X41200952Y-70766666D01*
X41343809Y-70766666D01*
X41534285Y-70814285D01*
X41629523Y-70861904D01*
X41724761Y-70957142D01*
X41772380Y-71100000D01*
X41772380Y-71338095D01*
X40772380Y-70433333D02*
X40772380Y-69766666D01*
X41772380Y-70195238D01*
%TO.C,D6*%
X39272380Y-71338095D02*
X38272380Y-71338095D01*
X38272380Y-71100000D01*
X38320000Y-70957142D01*
X38415238Y-70861904D01*
X38510476Y-70814285D01*
X38700952Y-70766666D01*
X38843809Y-70766666D01*
X39034285Y-70814285D01*
X39129523Y-70861904D01*
X39224761Y-70957142D01*
X39272380Y-71100000D01*
X39272380Y-71338095D01*
X38272380Y-69909523D02*
X38272380Y-70100000D01*
X38320000Y-70195238D01*
X38367619Y-70242857D01*
X38510476Y-70338095D01*
X38700952Y-70385714D01*
X39081904Y-70385714D01*
X39177142Y-70338095D01*
X39224761Y-70290476D01*
X39272380Y-70195238D01*
X39272380Y-70004761D01*
X39224761Y-69909523D01*
X39177142Y-69861904D01*
X39081904Y-69814285D01*
X38843809Y-69814285D01*
X38748571Y-69861904D01*
X38700952Y-69909523D01*
X38653333Y-70004761D01*
X38653333Y-70195238D01*
X38700952Y-70290476D01*
X38748571Y-70338095D01*
X38843809Y-70385714D01*
%TO.C,D5*%
X36772380Y-71338095D02*
X35772380Y-71338095D01*
X35772380Y-71100000D01*
X35820000Y-70957142D01*
X35915238Y-70861904D01*
X36010476Y-70814285D01*
X36200952Y-70766666D01*
X36343809Y-70766666D01*
X36534285Y-70814285D01*
X36629523Y-70861904D01*
X36724761Y-70957142D01*
X36772380Y-71100000D01*
X36772380Y-71338095D01*
X35772380Y-69861904D02*
X35772380Y-70338095D01*
X36248571Y-70385714D01*
X36200952Y-70338095D01*
X36153333Y-70242857D01*
X36153333Y-70004761D01*
X36200952Y-69909523D01*
X36248571Y-69861904D01*
X36343809Y-69814285D01*
X36581904Y-69814285D01*
X36677142Y-69861904D01*
X36724761Y-69909523D01*
X36772380Y-70004761D01*
X36772380Y-70242857D01*
X36724761Y-70338095D01*
X36677142Y-70385714D01*
%TO.C,D4*%
X34272380Y-71338095D02*
X33272380Y-71338095D01*
X33272380Y-71100000D01*
X33320000Y-70957142D01*
X33415238Y-70861904D01*
X33510476Y-70814285D01*
X33700952Y-70766666D01*
X33843809Y-70766666D01*
X34034285Y-70814285D01*
X34129523Y-70861904D01*
X34224761Y-70957142D01*
X34272380Y-71100000D01*
X34272380Y-71338095D01*
X33605714Y-69909523D02*
X34272380Y-69909523D01*
X33224761Y-70147619D02*
X33939047Y-70385714D01*
X33939047Y-69766666D01*
%TO.C,D3*%
X31772380Y-71338095D02*
X30772380Y-71338095D01*
X30772380Y-71100000D01*
X30820000Y-70957142D01*
X30915238Y-70861904D01*
X31010476Y-70814285D01*
X31200952Y-70766666D01*
X31343809Y-70766666D01*
X31534285Y-70814285D01*
X31629523Y-70861904D01*
X31724761Y-70957142D01*
X31772380Y-71100000D01*
X31772380Y-71338095D01*
X30772380Y-70433333D02*
X30772380Y-69814285D01*
X31153333Y-70147619D01*
X31153333Y-70004761D01*
X31200952Y-69909523D01*
X31248571Y-69861904D01*
X31343809Y-69814285D01*
X31581904Y-69814285D01*
X31677142Y-69861904D01*
X31724761Y-69909523D01*
X31772380Y-70004761D01*
X31772380Y-70290476D01*
X31724761Y-70385714D01*
X31677142Y-70433333D01*
%TO.C,D2*%
X29272380Y-71338095D02*
X28272380Y-71338095D01*
X28272380Y-71100000D01*
X28320000Y-70957142D01*
X28415238Y-70861904D01*
X28510476Y-70814285D01*
X28700952Y-70766666D01*
X28843809Y-70766666D01*
X29034285Y-70814285D01*
X29129523Y-70861904D01*
X29224761Y-70957142D01*
X29272380Y-71100000D01*
X29272380Y-71338095D01*
X28367619Y-70385714D02*
X28320000Y-70338095D01*
X28272380Y-70242857D01*
X28272380Y-70004761D01*
X28320000Y-69909523D01*
X28367619Y-69861904D01*
X28462857Y-69814285D01*
X28558095Y-69814285D01*
X28700952Y-69861904D01*
X29272380Y-70433333D01*
X29272380Y-69814285D01*
%TO.C,D1*%
X26772380Y-71338095D02*
X25772380Y-71338095D01*
X25772380Y-71100000D01*
X25820000Y-70957142D01*
X25915238Y-70861904D01*
X26010476Y-70814285D01*
X26200952Y-70766666D01*
X26343809Y-70766666D01*
X26534285Y-70814285D01*
X26629523Y-70861904D01*
X26724761Y-70957142D01*
X26772380Y-71100000D01*
X26772380Y-71338095D01*
X26772380Y-69814285D02*
X26772380Y-70385714D01*
X26772380Y-70100000D02*
X25772380Y-70100000D01*
X25915238Y-70195238D01*
X26010476Y-70290476D01*
X26058095Y-70385714D01*
%TD*%
M02*
